<?xml version="1.0" encoding="UTF-8"?>
<svg xmlns="http://www.w3.org/2000/svg" xmlns:xlink="http://www.w3.org/1999/xlink" width="341.762492" height="250.927083" viewBox="0 0 341.762492 250.927083" version="1.1">
<defs>
<clipPath id="clip1">
  <path d="M 63.277344 106 L 74 106 L 74 116 L 63.277344 116 Z M 63.277344 106 "/>
</clipPath>
</defs>
<g id="surface1">
<path style=" stroke:none;fill-rule:nonzero;fill:rgb(100%,100%,100%);fill-opacity:1;" d="M 0 250.925781 L 341.761719 250.925781 L 341.761719 0 L 0 0 Z M 0 250.925781 "/>
<path style=" stroke:none;fill-rule:nonzero;fill:rgb(100%,100%,100%);fill-opacity:1;" d="M 63.277344 194.398438 L 323.679688 194.398438 L 323.679688 9.601562 L 63.277344 9.601562 Z M 63.277344 194.398438 "/>
<path style=" stroke:none;fill-rule:nonzero;fill:rgb(12.156863%,46.666667%,70.588237%);fill-opacity:1;" d="M 68.386719 114.730469 C 69.445312 114.730469 70.464844 114.308594 71.214844 113.558594 C 71.964844 112.808594 72.386719 111.792969 72.386719 110.730469 C 72.386719 109.667969 71.964844 108.652344 71.214844 107.902344 C 70.464844 107.152344 69.445312 106.730469 68.386719 106.730469 C 67.324219 106.730469 66.308594 107.152344 65.554688 107.902344 C 64.804688 108.652344 64.386719 109.667969 64.386719 110.730469 C 64.386719 111.792969 64.804688 112.808594 65.554688 113.558594 C 66.308594 114.308594 67.324219 114.730469 68.386719 114.730469 Z M 68.386719 114.730469 "/>
<g clip-path="url(#clip1)" clip-rule="nonzero">
<path style="fill:none;stroke-width:1;stroke-linecap:butt;stroke-linejoin:round;stroke:rgb(12.156863%,46.666667%,70.588237%);stroke-opacity:1;stroke-miterlimit:4;" d="M 0.00125122 3.000023 C 0.795197 3.000023 1.559845 2.683617 2.122345 2.121117 C 2.684845 1.558617 3.001251 0.796898 3.001251 0.0000228882 C 3.001251 -0.796852 2.684845 -1.558571 2.122345 -2.121071 C 1.559845 -2.683571 0.795197 -2.999977 0.00125122 -2.999977 C -0.795624 -2.999977 -1.557343 -2.683571 -2.122772 -2.121071 C -2.685272 -1.558571 -2.998749 -0.796852 -2.998749 0.0000228882 C -2.998749 0.796898 -2.685272 1.558617 -2.122772 2.121117 C -1.557343 2.683617 -0.795624 3.000023 0.00125122 3.000023 Z M 0.00125122 3.000023 " transform="matrix(1.333333,0,0,1.333333,68.38505,110.730438)"/>
</g>
<path style="fill-rule:nonzero;fill:rgb(12.156863%,46.666667%,70.588237%);fill-opacity:1;stroke-width:1;stroke-linecap:butt;stroke-linejoin:round;stroke:rgb(12.156863%,46.666667%,70.588237%);stroke-opacity:1;stroke-miterlimit:4;" d="M 0.00063324 3 C 0.794579 3 1.559227 2.683594 2.121727 2.121094 C 2.684227 1.558594 3.000633 0.796875 3.000633 0.000000000000008882 C 3.000633 -0.796875 2.684227 -1.558594 2.121727 -2.121094 C 1.559227 -2.683594 0.794579 -3 0.00063324 -3 C -0.796242 -3 -1.557961 -2.683594 -2.120461 -2.121094 C -2.682961 -1.558594 -2.999367 -0.796875 -2.999367 0.000000000000008882 C -2.999367 0.796875 -2.682961 1.558594 -2.120461 2.121094 C -1.557961 2.683594 -0.796242 3 0.00063324 3 Z M 0.00063324 3 " transform="matrix(1.333333,0,0,1.333333,78.596812,18)"/>
<path style="fill-rule:nonzero;fill:rgb(12.156863%,46.666667%,70.588237%);fill-opacity:1;stroke-width:1;stroke-linecap:butt;stroke-linejoin:round;stroke:rgb(12.156863%,46.666667%,70.588237%);stroke-opacity:1;stroke-miterlimit:4;" d="M 0.00000762939 3.0005 C 0.796883 3.0005 1.558601 2.684093 2.121101 2.121593 C 2.683601 1.559093 3.000008 0.794445 3.000008 0.000499725 C 3.000008 -0.796375 2.683601 -1.558094 2.121101 -2.120594 C 1.558601 -2.683094 0.796883 -2.9995 0.00000762939 -2.9995 C -0.796867 -2.9995 -1.558586 -2.683094 -2.121086 -2.120594 C -2.683586 -1.558094 -2.999992 -0.796375 -2.999992 0.000499725 C -2.999992 0.794445 -2.683586 1.559093 -2.121086 2.121593 C -1.558586 2.684093 -0.796867 3.0005 0.00000762939 3.0005 Z M 0.00000762939 3.0005 " transform="matrix(1.333333,0,0,1.333333,88.808584,73.319646)"/>
<path style="fill-rule:nonzero;fill:rgb(12.156863%,46.666667%,70.588237%);fill-opacity:1;stroke-width:1;stroke-linecap:butt;stroke-linejoin:round;stroke:rgb(12.156863%,46.666667%,70.588237%);stroke-opacity:1;stroke-miterlimit:4;" d="M -0.000610352 2.99865 C 0.796265 2.99865 1.557983 2.685173 2.120483 2.122673 C 2.682983 1.560173 2.99939 0.795525 2.99939 -0.0013504 C 2.99939 -0.795296 2.682983 -1.559944 2.120483 -2.122444 C 1.557983 -2.684944 0.796265 -3.00135 -0.000610352 -3.00135 C -0.794556 -3.00135 -1.559204 -2.684944 -2.121704 -2.122444 C -2.684204 -1.559944 -3.00061 -0.795296 -3.00061 -0.0013504 C -3.00061 0.795525 -2.684204 1.560173 -2.121704 2.122673 C -1.559204 2.685173 -0.794556 2.99865 -0.000610352 2.99865 Z M -0.000610352 2.99865 " transform="matrix(1.333333,0,0,1.333333,99.020345,133.329926)"/>
<path style="fill-rule:nonzero;fill:rgb(12.156863%,46.666667%,70.588237%);fill-opacity:1;stroke-width:1;stroke-linecap:butt;stroke-linejoin:round;stroke:rgb(12.156863%,46.666667%,70.588237%);stroke-opacity:1;stroke-miterlimit:4;" d="M 0.000457764 2.999527 C 0.794403 2.999527 1.559052 2.683121 2.121552 2.120621 C 2.684052 1.558121 3.000458 0.796402 3.000458 -0.000473022 C 3.000458 -0.794418 2.684052 -1.559067 2.121552 -2.121567 C 1.559052 -2.684067 0.794403 -3.000473 0.000457764 -3.000473 C -0.796417 -3.000473 -1.558136 -2.684067 -2.120636 -2.121567 C -2.683136 -1.559067 -2.999542 -0.794418 -2.999542 -0.000473022 C -2.999542 0.796402 -2.683136 1.558121 -2.120636 2.120621 C -1.558136 2.683121 -0.796417 2.999527 0.000457764 2.999527 Z M 0.000457764 2.999527 " transform="matrix(1.333333,0,0,1.333333,129.65564,139.770162)"/>
<path style="fill-rule:nonzero;fill:rgb(12.156863%,46.666667%,70.588237%);fill-opacity:1;stroke-width:1;stroke-linecap:butt;stroke-linejoin:round;stroke:rgb(12.156863%,46.666667%,70.588237%);stroke-opacity:1;stroke-miterlimit:4;" d="M -0.000160217 3.00032 C 0.796715 3.00032 1.558434 2.683914 2.120934 2.121414 C 2.683434 1.558914 2.99984 0.794266 2.99984 0.000320435 C 2.99984 -0.796555 2.683434 -1.558273 2.120934 -2.120773 C 1.558434 -2.683273 0.796715 -2.99968 -0.000160217 -2.99968 C -0.797035 -2.99968 -1.558754 -2.683273 -2.121254 -2.120773 C -2.683754 -1.558273 -3.00016 -0.796555 -3.00016 0.000320435 C -3.00016 0.794266 -2.683754 1.558914 -2.121254 2.121414 C -1.558754 2.683914 -0.797035 3.00032 -0.000160217 3.00032 Z M -0.000160217 3.00032 " transform="matrix(1.333333,0,0,1.333333,139.867401,127.542542)"/>
<path style="fill-rule:nonzero;fill:rgb(12.156863%,46.666667%,70.588237%);fill-opacity:1;stroke-width:1;stroke-linecap:butt;stroke-linejoin:round;stroke:rgb(12.156863%,46.666667%,70.588237%);stroke-opacity:1;stroke-miterlimit:4;" d="M -0.000778198 3.001141 C 0.796097 3.001141 1.557816 2.684734 2.120316 2.122234 C 2.682816 1.559734 2.999222 0.795086 2.999222 0.00114059 C 2.999222 -0.795734 2.682816 -1.557453 2.120316 -2.119953 C 1.557816 -2.682453 0.796097 -2.998859 -0.000778198 -2.998859 C -0.794724 -2.998859 -1.559372 -2.682453 -2.121872 -2.119953 C -2.684372 -1.557453 -3.000778 -0.795734 -3.000778 0.00114059 C -3.000778 0.795086 -2.684372 1.559734 -2.121872 2.122234 C -1.559372 2.684734 -0.794724 3.001141 -0.000778198 3.001141 Z M -0.000778198 3.001141 " transform="matrix(1.333333,0,0,1.333333,150.079163,66.068792)"/>
<path style="fill-rule:nonzero;fill:rgb(12.156863%,46.666667%,70.588237%);fill-opacity:1;stroke-width:1;stroke-linecap:butt;stroke-linejoin:round;stroke:rgb(12.156863%,46.666667%,70.588237%);stroke-opacity:1;stroke-miterlimit:4;" d="M -0.00140381 2.999884 C 0.795471 2.999884 1.56012 2.683477 2.12262 2.120977 C 2.68512 1.558477 2.998596 0.796759 2.998596 -0.000116348 C 2.998596 -0.796991 2.68512 -1.55871 2.12262 -2.12121 C 1.56012 -2.68371 0.795471 -3.000116 -0.00140381 -3.000116 C -0.795349 -3.000116 -1.559998 -2.68371 -2.122498 -2.12121 C -2.684998 -1.55871 -3.001404 -0.796991 -3.001404 -0.000116348 C -3.001404 0.796759 -2.684998 1.558477 -2.122498 2.120977 C -1.559998 2.683477 -0.795349 2.999884 -0.00140381 2.999884 Z M -0.00140381 2.999884 " transform="matrix(1.333333,0,0,1.333333,160.290934,41.113436)"/>
<path style="fill-rule:nonzero;fill:rgb(12.156863%,46.666667%,70.588237%);fill-opacity:1;stroke-width:1;stroke-linecap:butt;stroke-linejoin:round;stroke:rgb(12.156863%,46.666667%,70.588237%);stroke-opacity:1;stroke-miterlimit:4;" d="M 0.000907898 3.000397 C 0.794853 3.000397 1.559502 2.68399 2.122002 2.12149 C 2.684502 1.55899 3.000908 0.794342 3.000908 0.000396729 C 3.000908 -0.796478 2.684502 -1.558197 2.122002 -2.120697 C 1.559502 -2.683197 0.794853 -2.999603 0.000907898 -2.999603 C -0.795967 -2.999603 -1.557686 -2.683197 -2.120186 -2.120697 C -2.682686 -1.558197 -2.999092 -0.796478 -2.999092 0.000396729 C -2.999092 0.794342 -2.682686 1.55899 -2.120186 2.12149 C -1.557686 2.68399 -0.795967 3.000397 0.000907898 3.000397 Z M 0.000907898 3.000397 " transform="matrix(1.333333,0,0,1.333333,170.502696,90.405721)"/>
<path style="fill-rule:nonzero;fill:rgb(12.156863%,46.666667%,70.588237%);fill-opacity:1;stroke-width:1;stroke-linecap:butt;stroke-linejoin:round;stroke:rgb(12.156863%,46.666667%,70.588237%);stroke-opacity:1;stroke-miterlimit:4;" d="M 0.00012207 3.000477 C 0.796997 3.000477 1.558716 2.684071 2.121216 2.121571 C 2.683716 1.559071 3.000122 0.794422 3.000122 0.000476837 C 3.000122 -0.796398 2.683716 -1.558117 2.121216 -2.120617 C 1.558716 -2.683117 0.796997 -2.999523 0.00012207 -2.999523 C -0.796753 -2.999523 -1.558472 -2.683117 -2.120972 -2.120617 C -2.683472 -1.558117 -2.999878 -0.796398 -2.999878 0.000476837 C -2.999878 0.794422 -2.683472 1.559071 -2.120972 2.121571 C -1.558472 2.684071 -0.796753 3.000477 0.00012207 3.000477 Z M 0.00012207 3.000477 " transform="matrix(1.333333,0,0,1.333333,231.773275,72.636083)"/>
<path style="fill-rule:nonzero;fill:rgb(12.156863%,46.666667%,70.588237%);fill-opacity:1;stroke-width:1;stroke-linecap:butt;stroke-linejoin:round;stroke:rgb(12.156863%,46.666667%,70.588237%);stroke-opacity:1;stroke-miterlimit:4;" d="M -0.00050354 2.999609 C 0.796371 2.999609 1.55809 2.683203 2.12059 2.120703 C 2.68309 1.558203 2.999496 0.796484 2.999496 -0.000391006 C 2.999496 -0.794336 2.68309 -1.558985 2.12059 -2.121485 C 1.55809 -2.683985 0.796371 -3.000391 -0.00050354 -3.000391 C -0.794449 -3.000391 -1.559097 -2.683985 -2.121597 -2.121485 C -2.684097 -1.558985 -3.000504 -0.794336 -3.000504 -0.000391006 C -3.000504 0.796484 -2.684097 1.558203 -2.121597 2.120703 C -1.559097 2.683203 -0.794449 2.999609 -0.00050354 2.999609 Z M -0.00050354 2.999609 " transform="matrix(1.333333,0,0,1.333333,241.985046,36.930209)"/>
<path style="fill-rule:nonzero;fill:rgb(12.156863%,46.666667%,70.588237%);fill-opacity:1;stroke-width:1;stroke-linecap:butt;stroke-linejoin:round;stroke:rgb(12.156863%,46.666667%,70.588237%);stroke-opacity:1;stroke-miterlimit:4;" d="M 0.00119019 3 C 0.795135 3 1.559784 2.683594 2.122284 2.121094 C 2.684784 1.558594 3.00119 0.796875 3.00119 -0.000000000000028422 C 3.00119 -0.796875 2.684784 -1.558594 2.122284 -2.121094 C 1.559784 -2.683594 0.795135 -3 0.00119019 -3 C -0.795685 -3 -1.557404 -2.683594 -2.119904 -2.121094 C -2.685333 -1.558594 -2.99881 -0.796875 -2.99881 -0.000000000000028422 C -2.99881 0.796875 -2.685333 1.558594 -2.119904 2.121094 C -1.557404 2.683594 -0.795685 3 0.00119019 3 Z M 0.00119019 3 " transform="matrix(1.333333,0,0,1.333333,262.408569,186)"/>
<path style="fill:none;stroke-width:0.8;stroke-linecap:butt;stroke-linejoin:round;stroke:rgb(0%,0%,0%);stroke-opacity:1;stroke-miterlimit:4;" d="M 0.00125122 -0.00117493 L 0.00125122 3.499802 " transform="matrix(1.333333,0,0,1.333333,68.38505,194.400004)"/>
<path style=" stroke:none;fill-rule:nonzero;fill:rgb(0%,0%,0%);fill-opacity:1;" d="M 68.382812 205.011719 C 67.703125 205.011719 67.195312 205.34375 66.855469 206.011719 C 66.511719 206.675781 66.34375 207.675781 66.34375 209.015625 C 66.34375 210.347656 66.511719 211.347656 66.855469 212.011719 C 67.195312 212.679688 67.703125 213.011719 68.382812 213.011719 C 69.0625 213.011719 69.574219 212.679688 69.914062 212.011719 C 70.257812 211.347656 70.425781 210.347656 70.425781 209.015625 C 70.425781 207.675781 70.257812 206.675781 69.914062 206.011719 C 69.574219 205.34375 69.0625 205.011719 68.382812 205.011719 Z M 68.382812 203.96875 C 69.472656 203.96875 70.304688 204.398438 70.878906 205.261719 C 71.453125 206.125 71.742188 207.375 71.742188 209.015625 C 71.742188 210.652344 71.453125 211.898438 70.878906 212.761719 C 70.304688 213.625 69.472656 214.054688 68.382812 214.054688 C 67.292969 214.054688 66.460938 213.625 65.886719 212.761719 C 65.308594 211.898438 65.023438 210.652344 65.023438 209.015625 C 65.023438 207.375 65.308594 206.125 65.886719 205.261719 C 66.460938 204.398438 67.292969 203.96875 68.382812 203.96875 Z M 68.382812 203.96875 "/>
<path style="fill:none;stroke-width:0.8;stroke-linecap:butt;stroke-linejoin:round;stroke:rgb(0%,0%,0%);stroke-opacity:1;stroke-miterlimit:4;" d="M 0.00108337 -0.00117493 L 0.00108337 3.499802 " transform="matrix(1.333333,0,0,1.333333,119.443868,194.400004)"/>
<path style=" stroke:none;fill-rule:nonzero;fill:rgb(0%,0%,0%);fill-opacity:1;" d="M 116.640625 204.144531 L 121.804688 204.144531 L 121.804688 205.253906 L 117.847656 205.253906 L 117.847656 207.632812 C 118.035156 207.566406 118.226562 207.519531 118.417969 207.488281 C 118.609375 207.457031 118.800781 207.441406 118.992188 207.441406 C 120.078125 207.441406 120.933594 207.738281 121.570312 208.332031 C 122.203125 208.925781 122.519531 209.730469 122.519531 210.746094 C 122.519531 211.792969 122.195312 212.605469 121.542969 213.183594 C 120.890625 213.765625 119.972656 214.054688 118.789062 214.054688 C 118.382812 214.054688 117.964844 214.019531 117.542969 213.949219 C 117.121094 213.878906 116.683594 213.777344 116.230469 213.636719 L 116.230469 212.316406 C 116.621094 212.527344 117.023438 212.683594 117.441406 212.789062 C 117.859375 212.894531 118.296875 212.945312 118.761719 212.945312 C 119.515625 212.945312 120.109375 212.75 120.546875 212.355469 C 120.984375 211.960938 121.203125 211.421875 121.203125 210.746094 C 121.203125 210.070312 120.984375 209.535156 120.546875 209.140625 C 120.109375 208.742188 119.515625 208.546875 118.761719 208.546875 C 118.410156 208.546875 118.058594 208.585938 117.710938 208.664062 C 117.363281 208.742188 117.003906 208.863281 116.640625 209.027344 Z M 116.640625 204.144531 "/>
<path style="fill:none;stroke-width:0.8;stroke-linecap:butt;stroke-linejoin:round;stroke:rgb(0%,0%,0%);stroke-opacity:1;stroke-miterlimit:4;" d="M 0.000907898 -0.00117493 L 0.000907898 3.499802 " transform="matrix(1.333333,0,0,1.333333,170.502696,194.400004)"/>
<path style=" stroke:none;fill-rule:nonzero;fill:rgb(0%,0%,0%);fill-opacity:1;" d="M 163.671875 212.757812 L 165.820312 212.757812 L 165.820312 205.339844 L 163.484375 205.808594 L 163.484375 204.613281 L 165.808594 204.144531 L 167.125 204.144531 L 167.125 212.757812 L 169.269531 212.757812 L 169.269531 213.863281 L 163.671875 213.863281 Z M 163.671875 212.757812 "/>
<path style=" stroke:none;fill-rule:nonzero;fill:rgb(0%,0%,0%);fill-opacity:1;" d="M 174.738281 205.011719 C 174.0625 205.011719 173.554688 205.34375 173.210938 206.011719 C 172.871094 206.675781 172.703125 207.675781 172.703125 209.015625 C 172.703125 210.347656 172.871094 211.347656 173.210938 212.011719 C 173.554688 212.679688 174.0625 213.011719 174.738281 213.011719 C 175.421875 213.011719 175.933594 212.679688 176.273438 212.011719 C 176.613281 211.347656 176.785156 210.347656 176.785156 209.015625 C 176.785156 207.675781 176.613281 206.675781 176.273438 206.011719 C 175.933594 205.34375 175.421875 205.011719 174.738281 205.011719 Z M 174.738281 203.96875 C 175.832031 203.96875 176.664062 204.398438 177.238281 205.261719 C 177.8125 206.125 178.101562 207.375 178.101562 209.015625 C 178.101562 210.652344 177.8125 211.898438 177.238281 212.761719 C 176.664062 213.625 175.832031 214.054688 174.738281 214.054688 C 173.652344 214.054688 172.820312 213.625 172.242188 212.761719 C 171.667969 211.898438 171.382812 210.652344 171.382812 209.015625 C 171.382812 207.375 171.667969 206.125 172.242188 205.261719 C 172.820312 204.398438 173.652344 203.96875 174.738281 203.96875 Z M 174.738281 203.96875 "/>
<path style="fill:none;stroke-width:0.8;stroke-linecap:butt;stroke-linejoin:round;stroke:rgb(0%,0%,0%);stroke-opacity:1;stroke-miterlimit:4;" d="M 0.000732422 -0.00117493 L 0.000732422 3.499802 " transform="matrix(1.333333,0,0,1.333333,221.561523,194.400004)"/>
<path style=" stroke:none;fill-rule:nonzero;fill:rgb(0%,0%,0%);fill-opacity:1;" d="M 214.730469 212.757812 L 216.878906 212.757812 L 216.878906 205.339844 L 214.542969 205.808594 L 214.542969 204.613281 L 216.867188 204.144531 L 218.183594 204.144531 L 218.183594 212.757812 L 220.332031 212.757812 L 220.332031 213.863281 L 214.730469 213.863281 Z M 214.730469 212.757812 "/>
<path style=" stroke:none;fill-rule:nonzero;fill:rgb(0%,0%,0%);fill-opacity:1;" d="M 223 204.144531 L 228.164062 204.144531 L 228.164062 205.253906 L 224.203125 205.253906 L 224.203125 207.632812 C 224.394531 207.566406 224.585938 207.519531 224.777344 207.488281 C 224.96875 207.457031 225.160156 207.441406 225.351562 207.441406 C 226.4375 207.441406 227.292969 207.738281 227.929688 208.332031 C 228.5625 208.925781 228.878906 209.730469 228.878906 210.746094 C 228.878906 211.792969 228.554688 212.605469 227.902344 213.183594 C 227.25 213.765625 226.332031 214.054688 225.148438 214.054688 C 224.742188 214.054688 224.324219 214.019531 223.902344 213.949219 C 223.480469 213.878906 223.042969 213.777344 222.589844 213.636719 L 222.589844 212.316406 C 222.980469 212.527344 223.382812 212.683594 223.800781 212.789062 C 224.21875 212.894531 224.65625 212.945312 225.121094 212.945312 C 225.875 212.945312 226.46875 212.75 226.90625 212.355469 C 227.34375 211.960938 227.5625 211.421875 227.5625 210.746094 C 227.5625 210.070312 227.34375 209.535156 226.90625 209.140625 C 226.46875 208.742188 225.875 208.546875 225.121094 208.546875 C 224.769531 208.546875 224.417969 208.585938 224.070312 208.664062 C 223.722656 208.742188 223.363281 208.863281 223 209.027344 Z M 223 204.144531 "/>
<path style="fill:none;stroke-width:0.8;stroke-linecap:butt;stroke-linejoin:round;stroke:rgb(0%,0%,0%);stroke-opacity:1;stroke-miterlimit:4;" d="M 0.000564575 -0.00117493 L 0.000564575 3.499802 " transform="matrix(1.333333,0,0,1.333333,272.620341,194.400004)"/>
<path style=" stroke:none;fill-rule:nonzero;fill:rgb(0%,0%,0%);fill-opacity:1;" d="M 266.695312 212.757812 L 271.285156 212.757812 L 271.285156 213.863281 L 265.113281 213.863281 L 265.113281 212.757812 C 265.613281 212.242188 266.292969 211.546875 267.152344 210.679688 C 268.015625 209.808594 268.558594 209.246094 268.777344 208.992188 C 269.199219 208.523438 269.492188 208.121094 269.660156 207.792969 C 269.828125 207.464844 269.910156 207.144531 269.910156 206.828125 C 269.910156 206.308594 269.730469 205.890625 269.367188 205.566406 C 269.003906 205.238281 268.535156 205.074219 267.953125 205.074219 C 267.539062 205.074219 267.105469 205.148438 266.644531 205.289062 C 266.1875 205.433594 265.699219 205.648438 265.179688 205.941406 L 265.179688 204.613281 C 265.707031 204.398438 266.203125 204.238281 266.660156 204.132812 C 267.125 204.023438 267.542969 203.96875 267.925781 203.96875 C 268.933594 203.96875 269.734375 204.222656 270.335938 204.726562 C 270.933594 205.226562 271.234375 205.898438 271.234375 206.742188 C 271.234375 207.140625 271.15625 207.519531 271.007812 207.878906 C 270.859375 208.234375 270.585938 208.65625 270.191406 209.144531 C 270.082031 209.269531 269.738281 209.632812 269.15625 210.234375 C 268.574219 210.835938 267.753906 211.679688 266.695312 212.757812 Z M 266.695312 212.757812 "/>
<path style=" stroke:none;fill-rule:nonzero;fill:rgb(0%,0%,0%);fill-opacity:1;" d="M 276.859375 205.011719 C 276.179688 205.011719 275.671875 205.34375 275.332031 206.011719 C 274.988281 206.675781 274.820312 207.675781 274.820312 209.015625 C 274.820312 210.347656 274.988281 211.347656 275.332031 212.011719 C 275.671875 212.679688 276.179688 213.011719 276.859375 213.011719 C 277.539062 213.011719 278.050781 212.679688 278.390625 212.011719 C 278.734375 211.347656 278.902344 210.347656 278.902344 209.015625 C 278.902344 207.675781 278.734375 206.675781 278.390625 206.011719 C 278.050781 205.34375 277.539062 205.011719 276.859375 205.011719 Z M 276.859375 203.96875 C 277.949219 203.96875 278.78125 204.398438 279.355469 205.261719 C 279.929688 206.125 280.21875 207.375 280.21875 209.015625 C 280.21875 210.652344 279.929688 211.898438 279.355469 212.761719 C 278.78125 213.625 277.949219 214.054688 276.859375 214.054688 C 275.769531 214.054688 274.9375 213.625 274.363281 212.761719 C 273.785156 211.898438 273.5 210.652344 273.5 209.015625 C 273.5 207.375 273.785156 206.125 274.363281 205.261719 C 274.9375 204.398438 275.769531 203.96875 276.859375 203.96875 Z M 276.859375 203.96875 "/>
<path style="fill:none;stroke-width:0.8;stroke-linecap:butt;stroke-linejoin:round;stroke:rgb(0%,0%,0%);stroke-opacity:1;stroke-miterlimit:4;" d="M 0.000396729 -0.00117493 L 0.000396729 3.499802 " transform="matrix(1.333333,0,0,1.333333,323.679159,194.400004)"/>
<path style=" stroke:none;fill-rule:nonzero;fill:rgb(0%,0%,0%);fill-opacity:1;" d="M 317.753906 212.757812 L 322.34375 212.757812 L 322.34375 213.863281 L 316.171875 213.863281 L 316.171875 212.757812 C 316.671875 212.242188 317.351562 211.546875 318.210938 210.679688 C 319.074219 209.808594 319.617188 209.246094 319.835938 208.992188 C 320.257812 208.523438 320.550781 208.121094 320.71875 207.792969 C 320.886719 207.464844 320.972656 207.144531 320.972656 206.828125 C 320.972656 206.308594 320.789062 205.890625 320.425781 205.566406 C 320.066406 205.238281 319.59375 205.074219 319.011719 205.074219 C 318.597656 205.074219 318.164062 205.148438 317.703125 205.289062 C 317.246094 205.433594 316.757812 205.648438 316.238281 205.941406 L 316.238281 204.613281 C 316.765625 204.398438 317.261719 204.238281 317.722656 204.132812 C 318.183594 204.023438 318.601562 203.96875 318.984375 203.96875 C 319.992188 203.96875 320.796875 204.222656 321.394531 204.726562 C 321.992188 205.226562 322.292969 205.898438 322.292969 206.742188 C 322.292969 207.140625 322.214844 207.519531 322.066406 207.878906 C 321.917969 208.234375 321.644531 208.65625 321.25 209.144531 C 321.140625 209.269531 320.796875 209.632812 320.214844 210.234375 C 319.632812 210.835938 318.8125 211.679688 317.753906 212.757812 Z M 317.753906 212.757812 "/>
<path style=" stroke:none;fill-rule:nonzero;fill:rgb(0%,0%,0%);fill-opacity:1;" d="M 325.117188 204.144531 L 330.28125 204.144531 L 330.28125 205.253906 L 326.324219 205.253906 L 326.324219 207.632812 C 326.511719 207.566406 326.703125 207.519531 326.894531 207.488281 C 327.085938 207.457031 327.277344 207.441406 327.46875 207.441406 C 328.554688 207.441406 329.414062 207.738281 330.046875 208.332031 C 330.679688 208.925781 330.996094 209.730469 330.996094 210.746094 C 330.996094 211.792969 330.671875 212.605469 330.019531 213.183594 C 329.371094 213.765625 328.449219 214.054688 327.265625 214.054688 C 326.859375 214.054688 326.441406 214.019531 326.019531 213.949219 C 325.597656 213.878906 325.160156 213.777344 324.707031 213.636719 L 324.707031 212.316406 C 325.097656 212.527344 325.5 212.683594 325.917969 212.789062 C 326.335938 212.894531 326.777344 212.945312 327.238281 212.945312 C 327.992188 212.945312 328.585938 212.75 329.023438 212.355469 C 329.460938 211.960938 329.679688 211.421875 329.679688 210.746094 C 329.679688 210.070312 329.460938 209.535156 329.023438 209.140625 C 328.585938 208.742188 327.992188 208.546875 327.238281 208.546875 C 326.886719 208.546875 326.539062 208.585938 326.1875 208.664062 C 325.839844 208.742188 325.480469 208.863281 325.117188 209.027344 Z M 325.117188 204.144531 "/>
<path style=" stroke:none;fill-rule:nonzero;fill:rgb(0%,0%,0%);fill-opacity:1;" d="M 155.242188 222.585938 L 157.214844 222.585938 L 157.214844 237.167969 L 155.242188 237.167969 Z M 155.242188 222.585938 "/>
<path style=" stroke:none;fill-rule:nonzero;fill:rgb(0%,0%,0%);fill-opacity:1;" d="M 170.15625 230.566406 L 170.15625 237.167969 L 168.359375 237.167969 L 168.359375 230.625 C 168.359375 229.589844 168.15625 228.816406 167.753906 228.300781 C 167.347656 227.789062 166.742188 227.53125 165.9375 227.53125 C 164.964844 227.53125 164.199219 227.839844 163.640625 228.457031 C 163.078125 229.074219 162.800781 229.917969 162.800781 230.988281 L 162.800781 237.167969 L 160.992188 237.167969 L 160.992188 226.230469 L 162.800781 226.230469 L 162.800781 227.929688 C 163.230469 227.273438 163.738281 226.78125 164.316406 226.457031 C 164.902344 226.128906 165.574219 225.96875 166.335938 225.96875 C 167.59375 225.96875 168.542969 226.355469 169.1875 227.132812 C 169.832031 227.910156 170.15625 229.054688 170.15625 230.566406 Z M 170.15625 230.566406 "/>
<path style=" stroke:none;fill-rule:nonzero;fill:rgb(0%,0%,0%);fill-opacity:1;" d="M 175.476562 235.527344 L 175.476562 241.328125 L 173.667969 241.328125 L 173.667969 226.230469 L 175.476562 226.230469 L 175.476562 227.890625 C 175.855469 227.238281 176.332031 226.757812 176.90625 226.441406 C 177.484375 226.125 178.171875 225.96875 178.972656 225.96875 C 180.300781 225.96875 181.378906 226.496094 182.210938 227.550781 C 183.039062 228.601562 183.457031 229.988281 183.457031 231.707031 C 183.457031 233.425781 183.039062 234.816406 182.210938 235.871094 C 181.378906 236.925781 180.300781 237.453125 178.972656 237.453125 C 178.171875 237.453125 177.484375 237.292969 176.90625 236.976562 C 176.332031 236.660156 175.855469 236.175781 175.476562 235.527344 Z M 181.589844 231.707031 C 181.589844 230.386719 181.320312 229.351562 180.773438 228.597656 C 180.230469 227.847656 179.484375 227.472656 178.535156 227.472656 C 177.582031 227.472656 176.835938 227.847656 176.289062 228.597656 C 175.746094 229.351562 175.476562 230.386719 175.476562 231.707031 C 175.476562 233.027344 175.746094 234.066406 176.289062 234.816406 C 176.835938 235.570312 177.582031 235.945312 178.535156 235.945312 C 179.484375 235.945312 180.230469 235.570312 180.773438 234.816406 C 181.320312 234.066406 181.589844 233.027344 181.589844 231.707031 Z M 181.589844 231.707031 "/>
<path style=" stroke:none;fill-rule:nonzero;fill:rgb(0%,0%,0%);fill-opacity:1;" d="M 186.25 232.851562 L 186.25 226.230469 L 188.046875 226.230469 L 188.046875 232.785156 C 188.046875 233.820312 188.246094 234.597656 188.648438 235.113281 C 189.054688 235.632812 189.660156 235.890625 190.46875 235.890625 C 191.4375 235.890625 192.203125 235.582031 192.765625 234.960938 C 193.328125 234.34375 193.609375 233.5 193.609375 232.429688 L 193.609375 226.230469 L 195.40625 226.230469 L 195.40625 237.167969 L 193.609375 237.167969 L 193.609375 235.488281 C 193.175781 236.152344 192.667969 236.644531 192.09375 236.96875 C 191.515625 237.289062 190.847656 237.453125 190.085938 237.453125 C 188.828125 237.453125 187.875 237.0625 187.222656 236.28125 C 186.574219 235.5 186.25 234.355469 186.25 232.851562 Z M 190.769531 225.96875 Z M 190.769531 225.96875 "/>
<path style=" stroke:none;fill-rule:nonzero;fill:rgb(0%,0%,0%);fill-opacity:1;" d="M 200.886719 223.125 L 200.886719 226.230469 L 204.585938 226.230469 L 204.585938 227.628906 L 200.886719 227.628906 L 200.886719 233.566406 C 200.886719 234.457031 201.007812 235.027344 201.253906 235.285156 C 201.496094 235.539062 201.992188 235.664062 202.742188 235.664062 L 204.585938 235.664062 L 204.585938 237.167969 L 202.742188 237.167969 C 201.355469 237.167969 200.398438 236.910156 199.871094 236.394531 C 199.34375 235.875 199.082031 234.929688 199.082031 233.566406 L 199.082031 227.628906 L 197.761719 227.628906 L 197.761719 226.230469 L 199.082031 226.230469 L 199.082031 223.125 Z M 200.886719 223.125 "/>
<path style=" stroke:none;fill-rule:nonzero;fill:rgb(0%,0%,0%);fill-opacity:1;" d="M 213.921875 226.550781 L 213.921875 228.253906 C 213.417969 227.992188 212.890625 227.796875 212.339844 227.667969 C 211.796875 227.535156 211.230469 227.472656 210.640625 227.472656 C 209.75 227.472656 209.082031 227.605469 208.636719 227.878906 C 208.1875 228.152344 207.964844 228.5625 207.964844 229.113281 C 207.964844 229.527344 208.125 229.855469 208.445312 230.09375 C 208.761719 230.332031 209.40625 230.554688 210.371094 230.769531 L 210.984375 230.910156 C 212.261719 231.179688 213.167969 231.566406 213.703125 232.066406 C 214.242188 232.5625 214.511719 233.257812 214.511719 234.148438 C 214.511719 235.164062 214.109375 235.972656 213.304688 236.566406 C 212.5 237.15625 211.394531 237.453125 209.988281 237.453125 C 209.402344 237.453125 208.792969 237.394531 208.15625 237.28125 C 207.523438 237.164062 206.851562 236.996094 206.152344 236.769531 L 206.152344 234.910156 C 206.816406 235.257812 207.46875 235.515625 208.113281 235.691406 C 208.757812 235.859375 209.394531 235.945312 210.027344 235.945312 C 210.875 235.945312 211.523438 235.800781 211.980469 235.511719 C 212.433594 235.222656 212.664062 234.8125 212.664062 234.285156 C 212.664062 233.800781 212.5 233.425781 212.167969 233.164062 C 211.84375 232.902344 211.121094 232.652344 210.007812 232.410156 L 209.382812 232.265625 C 208.269531 232.03125 207.464844 231.671875 206.96875 231.1875 C 206.476562 230.699219 206.230469 230.035156 206.230469 229.191406 C 206.230469 228.160156 206.59375 227.367188 207.324219 226.808594 C 208.050781 226.246094 209.085938 225.96875 210.429688 225.96875 C 211.089844 225.96875 211.714844 226.015625 212.300781 226.113281 C 212.886719 226.210938 213.429688 226.355469 213.921875 226.550781 Z M 213.921875 226.550781 "/>
<path style=" stroke:none;fill-rule:nonzero;fill:rgb(0%,0%,0%);fill-opacity:1;" d="M 232.820312 226.230469 L 228.867188 231.550781 L 233.023438 237.167969 L 230.90625 237.167969 L 227.722656 232.871094 L 224.539062 237.167969 L 222.417969 237.167969 L 226.667969 231.445312 L 222.78125 226.230469 L 224.898438 226.230469 L 227.800781 230.128906 L 230.699219 226.230469 Z M 232.820312 226.230469 "/>
<path style="fill:none;stroke-width:0.8;stroke-linecap:butt;stroke-linejoin:round;stroke:rgb(0%,0%,0%);stroke-opacity:1;stroke-miterlimit:4;" d="M -0.00136566 -0.00050354 L -3.499413 -0.00050354 " transform="matrix(1.333333,0,0,1.333333,63.279165,189.820984)"/>
<path style=" stroke:none;fill-rule:nonzero;fill:rgb(0%,0%,0%);fill-opacity:1;" d="M 35.703125 190.152344 L 44.046875 190.152344 L 44.046875 191.257812 L 35.703125 191.257812 Z M 35.703125 190.152344 "/>
<path style=" stroke:none;fill-rule:nonzero;fill:rgb(0%,0%,0%);fill-opacity:1;" d="M 48.019531 193.78125 L 52.609375 193.78125 L 52.609375 194.886719 L 46.4375 194.886719 L 46.4375 193.78125 C 46.9375 193.265625 47.617188 192.570312 48.476562 191.703125 C 49.339844 190.832031 49.882812 190.269531 50.101562 190.015625 C 50.523438 189.542969 50.816406 189.144531 50.984375 188.816406 C 51.152344 188.488281 51.238281 188.164062 51.238281 187.847656 C 51.238281 187.332031 51.054688 186.910156 50.691406 186.585938 C 50.332031 186.261719 49.859375 186.097656 49.277344 186.097656 C 48.863281 186.097656 48.429688 186.167969 47.96875 186.3125 C 47.511719 186.453125 47.023438 186.671875 46.503906 186.964844 L 46.503906 185.632812 C 47.03125 185.421875 47.527344 185.261719 47.988281 185.152344 C 48.449219 185.046875 48.867188 184.992188 49.25 184.992188 C 50.257812 184.992188 51.0625 185.242188 51.660156 185.746094 C 52.257812 186.25 52.558594 186.921875 52.558594 187.765625 C 52.558594 188.164062 52.480469 188.542969 52.332031 188.902344 C 52.183594 189.257812 51.910156 189.679688 51.515625 190.164062 C 51.40625 190.292969 51.0625 190.65625 50.480469 191.257812 C 49.898438 191.859375 49.078125 192.699219 48.019531 193.78125 Z M 48.019531 193.78125 "/>
<path style="fill:none;stroke-width:0.8;stroke-linecap:butt;stroke-linejoin:round;stroke:rgb(0%,0%,0%);stroke-opacity:1;stroke-miterlimit:4;" d="M -0.00136566 -0.00128174 L -3.499413 -0.00128174 " transform="matrix(1.333333,0,0,1.333333,63.279165,147.638428)"/>
<path style=" stroke:none;fill-rule:nonzero;fill:rgb(0%,0%,0%);fill-opacity:1;" d="M 35.703125 147.972656 L 44.046875 147.972656 L 44.046875 149.078125 L 35.703125 149.078125 Z M 35.703125 147.972656 "/>
<path style=" stroke:none;fill-rule:nonzero;fill:rgb(0%,0%,0%);fill-opacity:1;" d="M 47.117188 151.597656 L 49.261719 151.597656 L 49.261719 144.179688 L 46.925781 144.648438 L 46.925781 143.453125 L 49.25 142.984375 L 50.566406 142.984375 L 50.566406 151.597656 L 52.714844 151.597656 L 52.714844 152.703125 L 47.117188 152.703125 Z M 47.117188 151.597656 "/>
<path style="fill:none;stroke-width:0.8;stroke-linecap:butt;stroke-linejoin:round;stroke:rgb(0%,0%,0%);stroke-opacity:1;stroke-miterlimit:4;" d="M -0.00136566 0.000862122 L -3.499413 0.000862122 " transform="matrix(1.333333,0,0,1.333333,63.279165,105.455882)"/>
<path style=" stroke:none;fill-rule:nonzero;fill:rgb(0%,0%,0%);fill-opacity:1;" d="M 49.699219 101.667969 C 49.023438 101.667969 48.515625 102 48.171875 102.667969 C 47.832031 103.332031 47.664062 104.335938 47.664062 105.671875 C 47.664062 107.003906 47.832031 108.003906 48.171875 108.667969 C 48.515625 109.335938 49.023438 109.667969 49.699219 109.667969 C 50.382812 109.667969 50.894531 109.335938 51.234375 108.667969 C 51.574219 108.003906 51.746094 107.003906 51.746094 105.671875 C 51.746094 104.335938 51.574219 103.332031 51.234375 102.667969 C 50.894531 102 50.382812 101.667969 49.699219 101.667969 Z M 49.699219 100.625 C 50.789062 100.625 51.621094 101.058594 52.199219 101.917969 C 52.773438 102.78125 53.058594 104.03125 53.058594 105.671875 C 53.058594 107.308594 52.773438 108.558594 52.199219 109.417969 C 51.621094 110.28125 50.789062 110.710938 49.699219 110.710938 C 48.609375 110.710938 47.777344 110.28125 47.203125 109.417969 C 46.628906 108.558594 46.339844 107.308594 46.339844 105.671875 C 46.339844 104.03125 46.628906 102.78125 47.203125 101.917969 C 47.777344 101.058594 48.609375 100.625 49.699219 100.625 Z M 49.699219 100.625 "/>
<path style="fill:none;stroke-width:0.8;stroke-linecap:butt;stroke-linejoin:round;stroke:rgb(0%,0%,0%);stroke-opacity:1;stroke-miterlimit:4;" d="M -0.00136566 0.0000839233 L -3.499413 0.0000839233 " transform="matrix(1.333333,0,0,1.333333,63.279165,63.273326)"/>
<path style=" stroke:none;fill-rule:nonzero;fill:rgb(0%,0%,0%);fill-opacity:1;" d="M 47.117188 67.234375 L 49.265625 67.234375 L 49.265625 59.816406 L 46.925781 60.285156 L 46.925781 59.085938 L 49.253906 58.617188 L 50.566406 58.617188 L 50.566406 67.234375 L 52.714844 67.234375 L 52.714844 68.339844 L 47.117188 68.339844 Z M 47.117188 67.234375 "/>
<path style="fill:none;stroke-width:0.8;stroke-linecap:butt;stroke-linejoin:round;stroke:rgb(0%,0%,0%);stroke-opacity:1;stroke-miterlimit:4;" d="M -0.00136566 -0.000697136 L -3.499413 -0.000697136 " transform="matrix(1.333333,0,0,1.333333,63.279165,21.090773)"/>
<path style=" stroke:none;fill-rule:nonzero;fill:rgb(0%,0%,0%);fill-opacity:1;" d="M 48.019531 25.050781 L 52.609375 25.050781 L 52.609375 26.15625 L 46.441406 26.15625 L 46.441406 25.050781 C 46.9375 24.535156 47.617188 23.839844 48.480469 22.972656 C 49.339844 22.101562 49.882812 21.539062 50.105469 21.285156 C 50.523438 20.8125 50.820312 20.414062 50.984375 20.085938 C 51.152344 19.757812 51.238281 19.4375 51.238281 19.117188 C 51.238281 18.601562 51.054688 18.179688 50.695312 17.855469 C 50.332031 17.53125 49.859375 17.367188 49.277344 17.367188 C 48.863281 17.367188 48.429688 17.4375 47.972656 17.582031 C 47.515625 17.722656 47.023438 17.941406 46.503906 18.234375 L 46.503906 16.90625 C 47.035156 16.691406 47.527344 16.53125 47.988281 16.421875 C 48.449219 16.316406 48.871094 16.261719 49.253906 16.261719 C 50.257812 16.261719 51.0625 16.511719 51.660156 17.015625 C 52.257812 17.519531 52.558594 18.191406 52.558594 19.035156 C 52.558594 19.433594 52.484375 19.8125 52.332031 20.171875 C 52.183594 20.527344 51.914062 20.949219 51.515625 21.4375 C 51.410156 21.5625 51.0625 21.925781 50.480469 22.527344 C 49.902344 23.128906 49.082031 23.96875 48.019531 25.050781 Z M 48.019531 25.050781 "/>
<path style=" stroke:none;fill-rule:nonzero;fill:rgb(0%,0%,0%);fill-opacity:1;" d="M 11.554688 169.320312 C 11.554688 170.753906 12.085938 171.890625 13.15625 172.734375 C 14.222656 173.578125 15.679688 174 17.523438 174 C 19.355469 174 20.808594 173.578125 21.878906 172.734375 C 22.945312 171.890625 23.476562 170.753906 23.476562 169.320312 C 23.476562 167.890625 22.945312 166.753906 21.878906 165.917969 C 20.808594 165.078125 19.355469 164.660156 17.523438 164.660156 C 15.679688 164.660156 14.222656 165.078125 13.15625 165.917969 C 12.085938 166.753906 11.554688 167.890625 11.554688 169.320312 Z M 9.953125 169.320312 C 9.953125 167.277344 10.636719 165.644531 12.007812 164.421875 C 13.378906 163.195312 15.21875 162.582031 17.523438 162.582031 C 19.820312 162.582031 21.652344 163.195312 23.023438 164.421875 C 24.394531 165.644531 25.082031 167.277344 25.082031 169.320312 C 25.082031 171.371094 24.398438 173.011719 23.03125 174.238281 C 21.664062 175.464844 19.824219 176.078125 17.523438 176.078125 C 15.21875 176.078125 13.378906 175.464844 12.007812 174.238281 C 10.636719 173.011719 9.953125 171.371094 9.953125 169.320312 Z M 9.953125 169.320312 "/>
<path style=" stroke:none;fill-rule:nonzero;fill:rgb(0%,0%,0%);fill-opacity:1;" d="M 19.335938 151.722656 C 18.015625 151.722656 16.980469 151.992188 16.226562 152.539062 C 15.476562 153.082031 15.101562 153.828125 15.101562 154.777344 C 15.101562 155.730469 15.476562 156.476562 16.226562 157.023438 C 16.980469 157.566406 18.015625 157.835938 19.335938 157.835938 C 20.660156 157.835938 21.695312 157.566406 22.445312 157.023438 C 23.199219 156.476562 23.574219 155.730469 23.574219 154.777344 C 23.574219 153.828125 23.199219 153.082031 22.445312 152.539062 C 21.695312 151.992188 20.660156 151.722656 19.335938 151.722656 Z M 15.519531 157.835938 C 14.867188 157.457031 14.386719 156.980469 14.070312 156.40625 C 13.753906 155.828125 13.597656 155.140625 13.597656 154.339844 C 13.597656 153.011719 14.125 151.933594 15.179688 151.101562 C 16.230469 150.273438 17.617188 149.855469 19.335938 149.855469 C 21.054688 149.855469 22.445312 150.273438 23.5 151.101562 C 24.554688 151.933594 25.082031 153.011719 25.082031 154.339844 C 25.082031 155.140625 24.921875 155.828125 24.605469 156.40625 C 24.289062 156.980469 23.804688 157.457031 23.15625 157.835938 L 24.796875 157.835938 L 24.796875 159.644531 L 9.601562 159.644531 L 9.601562 157.835938 Z M 15.519531 157.835938 "/>
<path style=" stroke:none;fill-rule:nonzero;fill:rgb(0%,0%,0%);fill-opacity:1;" d="M 14.179688 139.90625 L 15.882812 139.90625 C 15.621094 140.414062 15.425781 140.941406 15.296875 141.488281 C 15.164062 142.035156 15.101562 142.601562 15.101562 143.1875 C 15.101562 144.082031 15.238281 144.75 15.507812 145.195312 C 15.78125 145.640625 16.191406 145.863281 16.742188 145.863281 C 17.15625 145.863281 17.484375 145.703125 17.722656 145.386719 C 17.960938 145.066406 18.183594 144.425781 18.398438 143.460938 L 18.539062 142.84375 C 18.808594 141.570312 19.195312 140.664062 19.695312 140.125 C 20.191406 139.589844 20.886719 139.320312 21.777344 139.320312 C 22.792969 139.320312 23.601562 139.722656 24.195312 140.527344 C 24.785156 141.332031 25.082031 142.4375 25.082031 143.84375 C 25.082031 144.425781 25.023438 145.039062 24.910156 145.671875 C 24.792969 146.308594 24.625 146.976562 24.398438 147.679688 L 22.539062 147.679688 C 22.886719 147.015625 23.144531 146.359375 23.320312 145.71875 C 23.488281 145.074219 23.574219 144.433594 23.574219 143.800781 C 23.574219 142.957031 23.429688 142.304688 23.140625 141.851562 C 22.851562 141.394531 22.441406 141.167969 21.914062 141.167969 C 21.429688 141.167969 21.054688 141.332031 20.792969 141.660156 C 20.535156 141.988281 20.28125 142.707031 20.039062 143.824219 L 19.894531 144.449219 C 19.660156 145.5625 19.300781 146.363281 18.816406 146.859375 C 18.332031 147.355469 17.664062 147.601562 16.820312 147.601562 C 15.789062 147.601562 14.996094 147.238281 14.4375 146.507812 C 13.878906 145.777344 13.597656 144.742188 13.597656 143.402344 C 13.597656 142.738281 13.644531 142.113281 13.742188 141.53125 C 13.839844 140.941406 13.984375 140.402344 14.179688 139.90625 Z M 14.179688 139.90625 "/>
<path style=" stroke:none;fill-rule:nonzero;fill:rgb(0%,0%,0%);fill-opacity:1;" d="M 18.878906 127.101562 L 19.757812 127.101562 L 19.757812 135.367188 C 20.992188 135.285156 21.9375 134.914062 22.585938 134.246094 C 23.230469 133.582031 23.554688 132.652344 23.554688 131.460938 C 23.554688 130.769531 23.472656 130.101562 23.304688 129.453125 C 23.132812 128.804688 22.878906 128.160156 22.539062 127.523438 L 24.242188 127.523438 C 24.511719 128.167969 24.722656 128.828125 24.867188 129.507812 C 25.007812 130.183594 25.082031 130.871094 25.082031 131.566406 C 25.082031 133.3125 24.574219 134.695312 23.558594 135.710938 C 22.542969 136.730469 21.167969 137.242188 19.433594 137.242188 C 17.644531 137.242188 16.226562 136.757812 15.175781 135.789062 C 14.121094 134.824219 13.597656 133.519531 13.597656 131.878906 C 13.597656 130.40625 14.070312 129.242188 15.019531 128.386719 C 15.964844 127.53125 17.25 127.101562 18.878906 127.101562 Z M 18.351562 128.898438 C 17.367188 128.914062 16.585938 129.1875 16 129.726562 C 15.414062 130.261719 15.117188 130.972656 15.117188 131.859375 C 15.117188 132.863281 15.402344 133.664062 15.96875 134.265625 C 16.535156 134.867188 17.332031 135.214844 18.363281 135.304688 Z M 18.351562 128.898438 "/>
<path style=" stroke:none;fill-rule:nonzero;fill:rgb(0%,0%,0%);fill-opacity:1;" d="M 15.539062 117.816406 C 15.421875 118.019531 15.335938 118.238281 15.28125 118.476562 C 15.226562 118.714844 15.195312 118.976562 15.195312 119.261719 C 15.195312 120.277344 15.527344 121.058594 16.1875 121.601562 C 16.847656 122.144531 17.796875 122.417969 19.035156 122.417969 L 24.796875 122.417969 L 24.796875 124.222656 L 13.859375 124.222656 L 13.859375 122.417969 L 15.558594 122.417969 C 14.894531 122.039062 14.402344 121.546875 14.082031 120.941406 C 13.757812 120.335938 13.597656 119.601562 13.597656 118.734375 C 13.597656 118.609375 13.605469 118.472656 13.621094 118.324219 C 13.636719 118.171875 13.660156 118.007812 13.695312 117.828125 Z M 15.539062 117.816406 "/>
<path style=" stroke:none;fill-rule:nonzero;fill:rgb(0%,0%,0%);fill-opacity:1;" d="M 13.859375 117.21875 L 13.859375 115.316406 L 23.039062 111.898438 L 13.859375 108.480469 L 13.859375 106.574219 L 24.796875 110.679688 L 24.796875 113.121094 Z M 13.859375 117.21875 "/>
<path style=" stroke:none;fill-rule:nonzero;fill:rgb(0%,0%,0%);fill-opacity:1;" d="M 19.300781 99.125 C 19.300781 100.578125 19.464844 101.582031 19.796875 102.144531 C 20.128906 102.703125 20.695312 102.984375 21.496094 102.984375 C 22.132812 102.984375 22.640625 102.773438 23.015625 102.351562 C 23.386719 101.933594 23.574219 101.359375 23.574219 100.640625 C 23.574219 99.640625 23.222656 98.84375 22.515625 98.238281 C 21.808594 97.636719 20.871094 97.335938 19.699219 97.335938 L 19.300781 97.335938 Z M 18.554688 95.539062 L 24.796875 95.539062 L 24.796875 97.335938 L 23.136719 97.335938 C 23.800781 97.746094 24.289062 98.257812 24.605469 98.871094 C 24.921875 99.484375 25.082031 100.234375 25.082031 101.117188 C 25.082031 102.238281 24.765625 103.128906 24.136719 103.789062 C 23.507812 104.449219 22.667969 104.78125 21.613281 104.78125 C 20.382812 104.78125 19.457031 104.371094 18.832031 103.546875 C 18.207031 102.722656 17.894531 101.492188 17.894531 99.859375 L 17.894531 97.335938 L 17.714844 97.335938 C 16.886719 97.335938 16.25 97.609375 15.796875 98.152344 C 15.34375 98.695312 15.117188 99.460938 15.117188 100.441406 C 15.117188 101.066406 15.195312 101.675781 15.34375 102.269531 C 15.492188 102.863281 15.71875 103.433594 16.019531 103.976562 L 14.355469 103.976562 C 14.101562 103.320312 13.914062 102.683594 13.789062 102.066406 C 13.660156 101.445312 13.597656 100.84375 13.597656 100.257812 C 13.597656 98.675781 14.007812 97.492188 14.828125 96.710938 C 15.648438 95.929688 16.890625 95.539062 18.554688 95.539062 Z M 18.554688 95.539062 "/>
<path style=" stroke:none;fill-rule:nonzero;fill:rgb(0%,0%,0%);fill-opacity:1;" d="M 10.753906 90.0625 L 13.859375 90.0625 L 13.859375 86.363281 L 15.257812 86.363281 L 15.257812 90.0625 L 21.195312 90.0625 C 22.085938 90.0625 22.660156 89.941406 22.914062 89.695312 C 23.167969 89.453125 23.292969 88.957031 23.292969 88.207031 L 23.292969 86.363281 L 24.796875 86.363281 L 24.796875 88.207031 C 24.796875 89.59375 24.539062 90.550781 24.023438 91.078125 C 23.503906 91.605469 22.558594 91.867188 21.195312 91.867188 L 15.257812 91.867188 L 15.257812 93.1875 L 13.859375 93.1875 L 13.859375 91.867188 L 10.753906 91.867188 Z M 10.753906 90.0625 "/>
<path style=" stroke:none;fill-rule:nonzero;fill:rgb(0%,0%,0%);fill-opacity:1;" d="M 13.859375 84 L 13.859375 82.203125 L 24.796875 82.203125 L 24.796875 84 Z M 9.601562 84 L 9.601562 82.203125 L 11.878906 82.203125 L 11.878906 84 Z M 9.601562 84 "/>
<path style=" stroke:none;fill-rule:nonzero;fill:rgb(0%,0%,0%);fill-opacity:1;" d="M 15.117188 74.203125 C 15.117188 75.167969 15.496094 75.929688 16.246094 76.488281 C 17 77.050781 18.027344 77.328125 19.335938 77.328125 C 20.644531 77.328125 21.675781 77.050781 22.429688 76.496094 C 23.179688 75.9375 23.554688 75.171875 23.554688 74.203125 C 23.554688 73.246094 23.179688 72.488281 22.425781 71.929688 C 21.667969 71.371094 20.640625 71.089844 19.335938 71.089844 C 18.042969 71.089844 17.015625 71.371094 16.257812 71.929688 C 15.496094 72.488281 15.117188 73.246094 15.117188 74.203125 Z M 13.597656 74.203125 C 13.597656 72.640625 14.105469 71.414062 15.121094 70.523438 C 16.136719 69.628906 17.542969 69.183594 19.335938 69.183594 C 21.128906 69.183594 22.53125 69.628906 23.554688 70.523438 C 24.570312 71.414062 25.082031 72.640625 25.082031 74.203125 C 25.082031 75.773438 24.570312 77.003906 23.554688 77.890625 C 22.53125 78.78125 21.128906 79.222656 19.335938 79.222656 C 17.542969 79.222656 16.136719 78.78125 15.121094 77.890625 C 14.105469 77.003906 13.597656 75.773438 13.597656 74.203125 Z M 13.597656 74.203125 "/>
<path style=" stroke:none;fill-rule:nonzero;fill:rgb(0%,0%,0%);fill-opacity:1;" d="M 18.195312 57.113281 L 24.796875 57.113281 L 24.796875 58.910156 L 18.253906 58.910156 C 17.21875 58.910156 16.445312 59.109375 15.929688 59.515625 C 15.417969 59.917969 15.160156 60.523438 15.160156 61.332031 C 15.160156 62.300781 15.46875 63.066406 16.085938 63.628906 C 16.703125 64.1875 17.546875 64.46875 18.617188 64.46875 L 24.796875 64.46875 L 24.796875 66.273438 L 13.859375 66.273438 L 13.859375 64.46875 L 15.558594 64.46875 C 14.902344 64.035156 14.410156 63.53125 14.085938 62.949219 C 13.757812 62.367188 13.597656 61.691406 13.597656 60.929688 C 13.597656 59.675781 13.984375 58.722656 14.761719 58.082031 C 15.539062 57.433594 16.683594 57.113281 18.195312 57.113281 Z M 18.195312 57.113281 "/>
<path style=" stroke:none;fill-rule:nonzero;fill:rgb(0%,0%,0%);fill-opacity:1;" d="M 14.179688 46.558594 L 15.882812 46.558594 C 15.621094 47.0625 15.425781 47.589844 15.296875 48.140625 C 15.164062 48.683594 15.101562 49.25 15.101562 49.839844 C 15.101562 50.730469 15.238281 51.398438 15.507812 51.84375 C 15.78125 52.292969 16.191406 52.515625 16.742188 52.515625 C 17.15625 52.515625 17.484375 52.355469 17.722656 52.035156 C 17.960938 51.71875 18.183594 51.074219 18.398438 50.109375 L 18.539062 49.496094 C 18.808594 48.21875 19.195312 47.3125 19.695312 46.777344 C 20.191406 46.238281 20.886719 45.96875 21.777344 45.96875 C 22.792969 45.96875 23.601562 46.371094 24.195312 47.175781 C 24.785156 47.980469 25.082031 49.085938 25.082031 50.492188 C 25.082031 51.078125 25.023438 51.6875 24.910156 52.324219 C 24.792969 52.960938 24.625 53.628906 24.398438 54.328125 L 22.539062 54.328125 C 22.886719 53.664062 23.144531 53.011719 23.320312 52.367188 C 23.488281 51.722656 23.574219 51.085938 23.574219 50.453125 C 23.574219 49.605469 23.429688 48.957031 23.140625 48.5 C 22.851562 48.046875 22.441406 47.816406 21.914062 47.816406 C 21.429688 47.816406 21.054688 47.980469 20.792969 48.3125 C 20.535156 48.636719 20.28125 49.359375 20.039062 50.472656 L 19.894531 51.097656 C 19.660156 52.210938 19.300781 53.015625 18.816406 53.511719 C 18.332031 54.003906 17.664062 54.25 16.820312 54.25 C 15.789062 54.25 14.996094 53.886719 14.4375 53.15625 C 13.878906 52.429688 13.597656 51.394531 13.597656 50.050781 C 13.597656 49.390625 13.644531 48.765625 13.742188 48.179688 C 13.839844 47.59375 13.984375 47.050781 14.179688 46.558594 Z M 14.179688 46.558594 "/>
<path style=" stroke:none;fill-rule:nonzero;fill:rgb(0%,0%,0%);fill-opacity:1;" d="M 25.8125 32.203125 C 27.113281 32.707031 27.964844 33.203125 28.359375 33.6875 C 28.757812 34.167969 28.957031 34.8125 28.957031 35.617188 L 28.957031 37.054688 L 27.453125 37.054688 L 27.453125 36 C 27.453125 35.503906 27.335938 35.121094 27.101562 34.847656 C 26.867188 34.574219 26.3125 34.269531 25.441406 33.941406 L 24.621094 33.617188 L 13.859375 38.039062 L 13.859375 36.136719 L 22.414062 32.71875 L 13.859375 29.300781 L 13.859375 27.394531 Z M 25.8125 32.203125 "/>
<path style="fill:none;stroke-width:0.8;stroke-linecap:square;stroke-linejoin:miter;stroke:rgb(0%,0%,0%);stroke-opacity:1;stroke-miterlimit:4;" d="M 47.458008 145.798828 L 47.458008 7.201172 " transform="matrix(1.333333,0,0,1.333333,0,-0.000000000000014211)"/>
<path style="fill:none;stroke-width:0.8;stroke-linecap:square;stroke-linejoin:miter;stroke:rgb(0%,0%,0%);stroke-opacity:1;stroke-miterlimit:4;" d="M 242.759766 145.798828 L 242.759766 7.201172 " transform="matrix(1.333333,0,0,1.333333,0,-0.000000000000014211)"/>
<path style="fill:none;stroke-width:0.8;stroke-linecap:square;stroke-linejoin:miter;stroke:rgb(0%,0%,0%);stroke-opacity:1;stroke-miterlimit:4;" d="M 47.458008 145.798828 L 242.759766 145.798828 " transform="matrix(1.333333,0,0,1.333333,0,-0.000000000000014211)"/>
<path style="fill:none;stroke-width:0.8;stroke-linecap:square;stroke-linejoin:miter;stroke:rgb(0%,0%,0%);stroke-opacity:1;stroke-miterlimit:4;" d="M 47.458008 7.201172 L 242.759766 7.201172 " transform="matrix(1.333333,0,0,1.333333,0,-0.000000000000014211)"/>
</g>
</svg>
