<?xml version="1.0" encoding="UTF-8"?>
<svg xmlns="http://www.w3.org/2000/svg" xmlns:xlink="http://www.w3.org/1999/xlink" width="308.589579" height="226.237508" viewBox="0 0 308.589579 226.237508" version="1.1">
<g id="surface1">
<path style=" stroke:none;fill-rule:nonzero;fill:rgb(100%,100%,100%);fill-opacity:1;" d="M 0 226.238281 L 308.589844 226.238281 L 308.589844 0 L 0 0 Z M 0 226.238281 "/>
<path style=" stroke:none;fill-rule:nonzero;fill:rgb(100%,100%,100%);fill-opacity:1;" d="M 38.589844 194.398438 L 298.988281 194.398438 L 298.988281 9.601562 L 38.589844 9.601562 Z M 38.589844 194.398438 "/>
<path style="fill:none;stroke-width:0.8;stroke-linecap:butt;stroke-linejoin:round;stroke:rgb(0%,0%,0%);stroke-opacity:1;stroke-miterlimit:4;" d="M -0.000125885 -0.00117493 L -0.000125885 3.499802 " transform="matrix(1.333333,0,0,1.333333,50.425949,194.400004)"/>
<path style=" stroke:none;fill-rule:nonzero;fill:rgb(0%,0%,0%);fill-opacity:1;" d="M 50.421875 205.011719 C 49.746094 205.011719 49.238281 205.34375 48.894531 206.011719 C 48.554688 206.675781 48.382812 207.675781 48.382812 209.015625 C 48.382812 210.347656 48.554688 211.347656 48.894531 212.011719 C 49.238281 212.679688 49.746094 213.011719 50.421875 213.011719 C 51.105469 213.011719 51.613281 212.679688 51.957031 212.011719 C 52.296875 211.347656 52.46875 210.347656 52.46875 209.015625 C 52.46875 207.675781 52.296875 206.675781 51.957031 206.011719 C 51.613281 205.34375 51.105469 205.011719 50.421875 205.011719 Z M 50.421875 203.96875 C 51.511719 203.96875 52.34375 204.398438 52.917969 205.261719 C 53.496094 206.125 53.78125 207.375 53.78125 209.015625 C 53.78125 210.652344 53.496094 211.898438 52.917969 212.761719 C 52.34375 213.625 51.511719 214.054688 50.421875 214.054688 C 49.332031 214.054688 48.5 213.625 47.925781 212.761719 C 47.351562 211.898438 47.0625 210.652344 47.0625 209.015625 C 47.0625 207.375 47.351562 206.125 47.925781 205.261719 C 48.5 204.398438 49.332031 203.96875 50.421875 203.96875 Z M 50.421875 203.96875 "/>
<path style="fill:none;stroke-width:0.8;stroke-linecap:butt;stroke-linejoin:round;stroke:rgb(0%,0%,0%);stroke-opacity:1;stroke-miterlimit:4;" d="M -0.00140381 -0.00117493 L -0.00140381 3.499802 " transform="matrix(1.333333,0,0,1.333333,97.771403,194.400004)"/>
<path style=" stroke:none;fill-rule:nonzero;fill:rgb(0%,0%,0%);fill-opacity:1;" d="M 94.96875 204.144531 L 100.132812 204.144531 L 100.132812 205.253906 L 96.171875 205.253906 L 96.171875 207.632812 C 96.363281 207.566406 96.554688 207.519531 96.746094 207.488281 C 96.9375 207.457031 97.128906 207.441406 97.320312 207.441406 C 98.402344 207.441406 99.261719 207.738281 99.894531 208.332031 C 100.53125 208.925781 100.847656 209.730469 100.847656 210.746094 C 100.847656 211.792969 100.523438 212.605469 99.871094 213.183594 C 99.21875 213.765625 98.300781 214.054688 97.117188 214.054688 C 96.707031 214.054688 96.292969 214.019531 95.871094 213.949219 C 95.445312 213.878906 95.011719 213.777344 94.558594 213.636719 L 94.558594 212.316406 C 94.949219 212.527344 95.351562 212.683594 95.769531 212.789062 C 96.1875 212.894531 96.625 212.945312 97.089844 212.945312 C 97.839844 212.945312 98.4375 212.75 98.875 212.355469 C 99.3125 211.960938 99.53125 211.421875 99.53125 210.746094 C 99.53125 210.070312 99.3125 209.535156 98.875 209.140625 C 98.4375 208.742188 97.839844 208.546875 97.089844 208.546875 C 96.738281 208.546875 96.386719 208.585938 96.039062 208.664062 C 95.691406 208.742188 95.332031 208.863281 94.96875 209.027344 Z M 94.96875 204.144531 "/>
<path style="fill:none;stroke-width:0.8;stroke-linecap:butt;stroke-linejoin:round;stroke:rgb(0%,0%,0%);stroke-opacity:1;stroke-miterlimit:4;" d="M 0.00025177 -0.00117493 L 0.00025177 3.499802 " transform="matrix(1.333333,0,0,1.333333,145.116852,194.400004)"/>
<path style=" stroke:none;fill-rule:nonzero;fill:rgb(0%,0%,0%);fill-opacity:1;" d="M 138.289062 212.757812 L 140.4375 212.757812 L 140.4375 205.339844 L 138.097656 205.808594 L 138.097656 204.613281 L 140.421875 204.144531 L 141.738281 204.144531 L 141.738281 212.757812 L 143.886719 212.757812 L 143.886719 213.863281 L 138.289062 213.863281 Z M 138.289062 212.757812 "/>
<path style=" stroke:none;fill-rule:nonzero;fill:rgb(0%,0%,0%);fill-opacity:1;" d="M 149.355469 205.011719 C 148.675781 205.011719 148.167969 205.34375 147.828125 206.011719 C 147.488281 206.675781 147.316406 207.675781 147.316406 209.015625 C 147.316406 210.347656 147.488281 211.347656 147.828125 212.011719 C 148.167969 212.679688 148.675781 213.011719 149.355469 213.011719 C 150.035156 213.011719 150.546875 212.679688 150.886719 212.011719 C 151.230469 211.347656 151.398438 210.347656 151.398438 209.015625 C 151.398438 207.675781 151.230469 206.675781 150.886719 206.011719 C 150.546875 205.34375 150.035156 205.011719 149.355469 205.011719 Z M 149.355469 203.96875 C 150.445312 203.96875 151.277344 204.398438 151.851562 205.261719 C 152.425781 206.125 152.714844 207.375 152.714844 209.015625 C 152.714844 210.652344 152.425781 211.898438 151.851562 212.761719 C 151.277344 213.625 150.445312 214.054688 149.355469 214.054688 C 148.265625 214.054688 147.433594 213.625 146.859375 212.761719 C 146.285156 211.898438 145.996094 210.652344 145.996094 209.015625 C 145.996094 207.375 146.285156 206.125 146.859375 205.261719 C 147.433594 204.398438 148.265625 203.96875 149.355469 203.96875 Z M 149.355469 203.96875 "/>
<path style="fill:none;stroke-width:0.8;stroke-linecap:butt;stroke-linejoin:round;stroke:rgb(0%,0%,0%);stroke-opacity:1;stroke-miterlimit:4;" d="M -0.00102234 -0.00117493 L -0.00102234 3.499802 " transform="matrix(1.333333,0,0,1.333333,192.462301,194.400004)"/>
<path style=" stroke:none;fill-rule:nonzero;fill:rgb(0%,0%,0%);fill-opacity:1;" d="M 185.632812 212.757812 L 187.78125 212.757812 L 187.78125 205.339844 L 185.445312 205.808594 L 185.445312 204.613281 L 187.769531 204.144531 L 189.082031 204.144531 L 189.082031 212.757812 L 191.230469 212.757812 L 191.230469 213.863281 L 185.632812 213.863281 Z M 185.632812 212.757812 "/>
<path style=" stroke:none;fill-rule:nonzero;fill:rgb(0%,0%,0%);fill-opacity:1;" d="M 193.902344 204.144531 L 199.0625 204.144531 L 199.0625 205.253906 L 195.105469 205.253906 L 195.105469 207.632812 C 195.296875 207.566406 195.488281 207.519531 195.675781 207.488281 C 195.867188 207.457031 196.058594 207.441406 196.25 207.441406 C 197.335938 207.441406 198.195312 207.738281 198.828125 208.332031 C 199.464844 208.925781 199.78125 209.730469 199.78125 210.746094 C 199.78125 211.792969 199.457031 212.605469 198.804688 213.183594 C 198.152344 213.765625 197.234375 214.054688 196.050781 214.054688 C 195.640625 214.054688 195.226562 214.019531 194.800781 213.949219 C 194.378906 213.878906 193.941406 213.777344 193.492188 213.636719 L 193.492188 212.316406 C 193.882812 212.527344 194.285156 212.683594 194.703125 212.789062 C 195.117188 212.894531 195.558594 212.945312 196.023438 212.945312 C 196.773438 212.945312 197.367188 212.75 197.804688 212.355469 C 198.246094 211.960938 198.464844 211.421875 198.464844 210.746094 C 198.464844 210.070312 198.246094 209.535156 197.804688 209.140625 C 197.367188 208.742188 196.773438 208.546875 196.023438 208.546875 C 195.671875 208.546875 195.320312 208.585938 194.96875 208.664062 C 194.621094 208.742188 194.265625 208.863281 193.902344 209.027344 Z M 193.902344 204.144531 "/>
<path style="fill:none;stroke-width:0.8;stroke-linecap:butt;stroke-linejoin:round;stroke:rgb(0%,0%,0%);stroke-opacity:1;stroke-miterlimit:4;" d="M 0.00062561 -0.00117493 L 0.00062561 3.499802 " transform="matrix(1.333333,0,0,1.333333,239.80776,194.400004)"/>
<path style=" stroke:none;fill-rule:nonzero;fill:rgb(0%,0%,0%);fill-opacity:1;" d="M 233.882812 212.757812 L 238.472656 212.757812 L 238.472656 213.863281 L 232.300781 213.863281 L 232.300781 212.757812 C 232.800781 212.242188 233.480469 211.546875 234.339844 210.679688 C 235.203125 209.808594 235.746094 209.246094 235.964844 208.992188 C 236.386719 208.523438 236.679688 208.121094 236.847656 207.792969 C 237.015625 207.464844 237.097656 207.144531 237.097656 206.828125 C 237.097656 206.308594 236.917969 205.890625 236.554688 205.566406 C 236.191406 205.238281 235.722656 205.074219 235.140625 205.074219 C 234.726562 205.074219 234.292969 205.148438 233.832031 205.289062 C 233.375 205.433594 232.886719 205.648438 232.367188 205.941406 L 232.367188 204.613281 C 232.894531 204.398438 233.390625 204.238281 233.847656 204.132812 C 234.308594 204.023438 234.730469 203.96875 235.113281 203.96875 C 236.121094 203.96875 236.921875 204.222656 237.523438 204.726562 C 238.121094 205.226562 238.421875 205.898438 238.421875 206.742188 C 238.421875 207.140625 238.34375 207.519531 238.195312 207.878906 C 238.046875 208.234375 237.773438 208.65625 237.378906 209.144531 C 237.269531 209.269531 236.925781 209.632812 236.34375 210.234375 C 235.761719 210.835938 234.941406 211.679688 233.882812 212.757812 Z M 233.882812 212.757812 "/>
<path style=" stroke:none;fill-rule:nonzero;fill:rgb(0%,0%,0%);fill-opacity:1;" d="M 244.046875 205.011719 C 243.367188 205.011719 242.859375 205.34375 242.519531 206.011719 C 242.175781 206.675781 242.007812 207.675781 242.007812 209.015625 C 242.007812 210.347656 242.175781 211.347656 242.519531 212.011719 C 242.859375 212.679688 243.367188 213.011719 244.046875 213.011719 C 244.726562 213.011719 245.238281 212.679688 245.578125 212.011719 C 245.921875 211.347656 246.089844 210.347656 246.089844 209.015625 C 246.089844 207.675781 245.921875 206.675781 245.578125 206.011719 C 245.238281 205.34375 244.726562 205.011719 244.046875 205.011719 Z M 244.046875 203.96875 C 245.136719 203.96875 245.96875 204.398438 246.542969 205.261719 C 247.117188 206.125 247.40625 207.375 247.40625 209.015625 C 247.40625 210.652344 247.117188 211.898438 246.542969 212.761719 C 245.96875 213.625 245.136719 214.054688 244.046875 214.054688 C 242.957031 214.054688 242.125 213.625 241.550781 212.761719 C 240.972656 211.898438 240.6875 210.652344 240.6875 209.015625 C 240.6875 207.375 240.972656 206.125 241.550781 205.261719 C 242.125 204.398438 242.957031 203.96875 244.046875 203.96875 Z M 244.046875 203.96875 "/>
<path style="fill:none;stroke-width:0.8;stroke-linecap:butt;stroke-linejoin:round;stroke:rgb(0%,0%,0%);stroke-opacity:1;stroke-miterlimit:4;" d="M -0.000656128 -0.00117493 L -0.000656128 3.499802 " transform="matrix(1.333333,0,0,1.333333,287.153219,194.400004)"/>
<path style=" stroke:none;fill-rule:nonzero;fill:rgb(0%,0%,0%);fill-opacity:1;" d="M 281.226562 212.757812 L 285.816406 212.757812 L 285.816406 213.863281 L 279.648438 213.863281 L 279.648438 212.757812 C 280.144531 212.242188 280.824219 211.546875 281.6875 210.679688 C 282.550781 209.808594 283.089844 209.246094 283.3125 208.992188 C 283.730469 208.523438 284.027344 208.121094 284.191406 207.792969 C 284.359375 207.464844 284.445312 207.144531 284.445312 206.828125 C 284.445312 206.308594 284.261719 205.890625 283.902344 205.566406 C 283.539062 205.238281 283.066406 205.074219 282.484375 205.074219 C 282.070312 205.074219 281.636719 205.148438 281.179688 205.289062 C 280.722656 205.433594 280.230469 205.648438 279.710938 205.941406 L 279.710938 204.613281 C 280.242188 204.398438 280.734375 204.238281 281.195312 204.132812 C 281.65625 204.023438 282.078125 203.96875 282.460938 203.96875 C 283.464844 203.96875 284.269531 204.222656 284.867188 204.726562 C 285.464844 205.226562 285.765625 205.898438 285.765625 206.742188 C 285.765625 207.140625 285.691406 207.519531 285.539062 207.878906 C 285.390625 208.234375 285.121094 208.65625 284.722656 209.144531 C 284.617188 209.269531 284.269531 209.632812 283.6875 210.234375 C 283.109375 210.835938 282.289062 211.679688 281.226562 212.757812 Z M 281.226562 212.757812 "/>
<path style=" stroke:none;fill-rule:nonzero;fill:rgb(0%,0%,0%);fill-opacity:1;" d="M 288.59375 204.144531 L 293.753906 204.144531 L 293.753906 205.253906 L 289.796875 205.253906 L 289.796875 207.632812 C 289.988281 207.566406 290.175781 207.519531 290.367188 207.488281 C 290.558594 207.457031 290.75 207.441406 290.941406 207.441406 C 292.027344 207.441406 292.886719 207.738281 293.519531 208.332031 C 294.15625 208.925781 294.472656 209.730469 294.472656 210.746094 C 294.472656 211.792969 294.144531 212.605469 293.496094 213.183594 C 292.84375 213.765625 291.925781 214.054688 290.742188 214.054688 C 290.332031 214.054688 289.917969 214.019531 289.492188 213.949219 C 289.070312 213.878906 288.632812 213.777344 288.183594 213.636719 L 288.183594 212.316406 C 288.574219 212.527344 288.976562 212.683594 289.390625 212.789062 C 289.808594 212.894531 290.25 212.945312 290.714844 212.945312 C 291.464844 212.945312 292.058594 212.75 292.496094 212.355469 C 292.9375 211.960938 293.15625 211.421875 293.15625 210.746094 C 293.15625 210.070312 292.9375 209.535156 292.496094 209.140625 C 292.058594 208.742188 291.464844 208.546875 290.714844 208.546875 C 290.363281 208.546875 290.011719 208.585938 289.660156 208.664062 C 289.3125 208.742188 288.957031 208.863281 288.59375 209.027344 Z M 288.59375 204.144531 "/>
<path style="fill:none;stroke-width:0.8;stroke-linecap:butt;stroke-linejoin:round;stroke:rgb(0%,0%,0%);stroke-opacity:1;stroke-miterlimit:4;" d="M 0.00019455 0.000534058 L -3.500782 0.000534058 " transform="matrix(1.333333,0,0,1.333333,38.589584,175.905538)"/>
<path style=" stroke:none;fill-rule:nonzero;fill:rgb(0%,0%,0%);fill-opacity:1;" d="M 11.011719 176.238281 L 19.359375 176.238281 L 19.359375 177.34375 L 11.011719 177.34375 Z M 11.011719 176.238281 "/>
<path style=" stroke:none;fill-rule:nonzero;fill:rgb(0%,0%,0%);fill-opacity:1;" d="M 23.332031 179.863281 L 27.917969 179.863281 L 27.917969 180.972656 L 21.75 180.972656 L 21.75 179.863281 C 22.246094 179.347656 22.925781 178.65625 23.789062 177.785156 C 24.652344 176.914062 25.191406 176.351562 25.414062 176.101562 C 25.835938 175.628906 26.128906 175.226562 26.292969 174.898438 C 26.460938 174.574219 26.546875 174.25 26.546875 173.933594 C 26.546875 173.417969 26.367188 172.996094 26.003906 172.671875 C 25.640625 172.34375 25.167969 172.179688 24.585938 172.179688 C 24.175781 172.179688 23.738281 172.253906 23.28125 172.394531 C 22.824219 172.539062 22.335938 172.757812 21.8125 173.046875 L 21.8125 171.71875 C 22.34375 171.507812 22.835938 171.347656 23.296875 171.238281 C 23.757812 171.128906 24.179688 171.074219 24.5625 171.074219 C 25.570312 171.074219 26.371094 171.328125 26.96875 171.832031 C 27.570312 172.335938 27.867188 173.007812 27.867188 173.847656 C 27.867188 174.25 27.792969 174.628906 27.644531 174.984375 C 27.492188 175.34375 27.222656 175.765625 26.824219 176.25 C 26.71875 176.375 26.371094 176.742188 25.789062 177.34375 C 25.210938 177.945312 24.390625 178.785156 23.332031 179.863281 Z M 23.332031 179.863281 "/>
<path style="fill:none;stroke-width:0.8;stroke-linecap:butt;stroke-linejoin:round;stroke:rgb(0%,0%,0%);stroke-opacity:1;stroke-miterlimit:4;" d="M 0.00019455 -0.00139618 L -3.500782 -0.00139618 " transform="matrix(1.333333,0,0,1.333333,38.589584,140.896393)"/>
<path style=" stroke:none;fill-rule:nonzero;fill:rgb(0%,0%,0%);fill-opacity:1;" d="M 11.011719 141.230469 L 19.359375 141.230469 L 19.359375 142.335938 L 11.011719 142.335938 Z M 11.011719 141.230469 "/>
<path style=" stroke:none;fill-rule:nonzero;fill:rgb(0%,0%,0%);fill-opacity:1;" d="M 22.425781 144.855469 L 24.574219 144.855469 L 24.574219 137.4375 L 22.238281 137.90625 L 22.238281 136.710938 L 24.5625 136.242188 L 25.875 136.242188 L 25.875 144.855469 L 28.023438 144.855469 L 28.023438 145.960938 L 22.425781 145.960938 Z M 22.425781 144.855469 "/>
<path style="fill:none;stroke-width:0.8;stroke-linecap:butt;stroke-linejoin:round;stroke:rgb(0%,0%,0%);stroke-opacity:1;stroke-miterlimit:4;" d="M 0.00019455 -0.000389099 L -3.500782 -0.000389099 " transform="matrix(1.333333,0,0,1.333333,38.589584,105.887238)"/>
<path style=" stroke:none;fill-rule:nonzero;fill:rgb(0%,0%,0%);fill-opacity:1;" d="M 25.011719 102.097656 C 24.335938 102.097656 23.824219 102.433594 23.484375 103.097656 C 23.144531 103.765625 22.972656 104.765625 22.972656 106.101562 C 22.972656 107.433594 23.144531 108.433594 23.484375 109.101562 C 23.824219 109.765625 24.335938 110.101562 25.011719 110.101562 C 25.691406 110.101562 26.203125 109.765625 26.542969 109.101562 C 26.886719 108.433594 27.054688 107.433594 27.054688 106.101562 C 27.054688 104.765625 26.886719 103.765625 26.542969 103.097656 C 26.203125 102.433594 25.691406 102.097656 25.011719 102.097656 Z M 25.011719 101.058594 C 26.101562 101.058594 26.933594 101.488281 27.507812 102.351562 C 28.082031 103.210938 28.371094 104.460938 28.371094 106.101562 C 28.371094 107.738281 28.082031 108.988281 27.507812 109.851562 C 26.933594 110.710938 26.101562 111.140625 25.011719 111.140625 C 23.921875 111.140625 23.089844 110.710938 22.515625 109.851562 C 21.941406 108.988281 21.652344 107.738281 21.652344 106.101562 C 21.652344 104.460938 21.941406 103.210938 22.515625 102.351562 C 23.089844 101.488281 23.921875 101.058594 25.011719 101.058594 Z M 25.011719 101.058594 "/>
<path style="fill:none;stroke-width:0.8;stroke-linecap:butt;stroke-linejoin:round;stroke:rgb(0%,0%,0%);stroke-opacity:1;stroke-miterlimit:4;" d="M 0.00019455 0.000617981 L -3.500782 0.000617981 " transform="matrix(1.333333,0,0,1.333333,38.589584,70.878082)"/>
<path style=" stroke:none;fill-rule:nonzero;fill:rgb(0%,0%,0%);fill-opacity:1;" d="M 22.425781 74.835938 L 24.574219 74.835938 L 24.574219 67.421875 L 22.238281 67.890625 L 22.238281 66.691406 L 24.5625 66.222656 L 25.878906 66.222656 L 25.878906 74.835938 L 28.023438 74.835938 L 28.023438 75.945312 L 22.425781 75.945312 Z M 22.425781 74.835938 "/>
<path style="fill:none;stroke-width:0.8;stroke-linecap:butt;stroke-linejoin:round;stroke:rgb(0%,0%,0%);stroke-opacity:1;stroke-miterlimit:4;" d="M 0.00019455 -0.00130653 L -3.500782 -0.00130653 " transform="matrix(1.333333,0,0,1.333333,38.589584,35.86893)"/>
<path style=" stroke:none;fill-rule:nonzero;fill:rgb(0%,0%,0%);fill-opacity:1;" d="M 23.332031 39.828125 L 27.921875 39.828125 L 27.921875 40.933594 L 21.75 40.933594 L 21.75 39.828125 C 22.25 39.3125 22.929688 38.617188 23.789062 37.75 C 24.652344 36.878906 25.195312 36.316406 25.414062 36.0625 C 25.835938 35.589844 26.128906 35.191406 26.296875 34.863281 C 26.464844 34.535156 26.546875 34.214844 26.546875 33.898438 C 26.546875 33.378906 26.367188 32.960938 26.003906 32.632812 C 25.640625 32.308594 25.167969 32.144531 24.585938 32.144531 C 24.175781 32.144531 23.738281 32.214844 23.28125 32.359375 C 22.824219 32.503906 22.335938 32.71875 21.816406 33.011719 L 21.816406 31.683594 C 22.34375 31.46875 22.839844 31.308594 23.296875 31.203125 C 23.757812 31.09375 24.179688 31.039062 24.5625 31.039062 C 25.570312 31.039062 26.371094 31.289062 26.972656 31.796875 C 27.570312 32.296875 27.867188 32.96875 27.867188 33.8125 C 27.867188 34.210938 27.792969 34.589844 27.644531 34.949219 C 27.496094 35.304688 27.222656 35.726562 26.828125 36.214844 C 26.71875 36.339844 26.375 36.703125 25.792969 37.304688 C 25.210938 37.90625 24.390625 38.746094 23.332031 39.828125 Z M 23.332031 39.828125 "/>
<path style="fill:none;stroke-width:2;stroke-linecap:square;stroke-linejoin:round;stroke:rgb(0%,0%,0%);stroke-opacity:0.501961;stroke-miterlimit:4;" d="M 37.819336 21.56543 L 38.885742 22.274414 L 40.30957 23.540039 L 41.733398 25.168945 L 43.157227 27.143555 L 44.935547 30.058594 L 47.071289 34.086914 L 49.916016 40.013672 L 54.899414 50.44043 L 57.744141 55.836914 L 65.214844 69.550781 L 66.996094 73.541016 L 68.774414 78.073242 L 70.552734 83.182617 L 72.688477 90.00293 L 75.890625 101.121094 L 79.447266 113.285156 L 81.228516 118.699219 L 83.006836 123.386719 L 84.430664 126.509766 L 85.851562 129.029297 L 86.920898 130.505859 L 87.987305 131.62793 L 89.053711 132.398437 L 90.123047 132.829102 L 91.189453 132.931641 L 92.255859 132.723633 L 93.325195 132.219727 L 94.391602 131.44043 L 95.458008 130.40625 L 96.881836 128.666016 L 98.305664 126.55957 L 100.083984 123.506836 L 102.574219 118.669922 L 107.912109 107.99707 L 109.69043 104.985352 L 111.114258 102.963867 L 112.538086 101.355469 L 113.604492 100.450195 L 114.673828 99.814453 L 115.740234 99.445312 L 116.806641 99.336914 L 117.875977 99.474609 L 118.942383 99.829102 L 120.366211 100.59375 L 122.144531 101.879883 L 127.482422 106.037109 L 128.90625 106.78125 L 130.327148 107.25293 L 131.750977 107.4375 L 133.174805 107.349609 L 134.598633 107.041992 L 137.088867 106.201172 L 139.224609 105.527344 L 140.645508 105.295898 L 141.714844 105.307617 L 142.78125 105.512695 L 143.847656 105.93457 L 144.916992 106.587891 L 145.983398 107.469727 L 147.407227 108.978516 L 149.185547 111.298828 L 154.87793 119.276367 L 155.947266 120.339844 L 157.013672 121.125 L 158.080078 121.587891 L 158.791992 121.696289 L 159.503906 121.640625 L 160.21582 121.415039 L 160.927734 121.016602 L 161.994141 120.102539 L 163.060547 118.819336 L 164.129883 117.19043 L 165.553711 114.547852 L 167.332031 110.642578 L 169.822266 104.487305 L 174.09082 93.864258 L 176.226562 89.241211 L 178.004883 85.957031 L 179.428711 83.745117 L 180.852539 81.911133 L 182.276367 80.458008 L 183.697266 79.365234 L 185.121094 78.612305 L 186.544922 78.175781 L 187.96875 78.029297 L 189.392578 78.146484 L 190.813477 78.498047 L 192.237305 79.054688 L 194.015625 79.995117 L 196.151367 81.398438 L 199.710937 84.073242 L 202.913086 86.384766 L 205.045898 87.632812 L 206.824219 88.385742 L 208.248047 88.766602 L 209.671875 88.927734 L 211.095703 88.866211 L 212.519531 88.582031 L 213.94043 88.089844 L 215.364258 87.407227 " transform="matrix(1.333333,0,0,1.333333,0,-0.000000000000014211)"/>
<path style="fill:none;stroke-width:2;stroke-linecap:square;stroke-linejoin:round;stroke:rgb(0%,0%,0%);stroke-opacity:0.501961;stroke-miterlimit:4;" d="M 37.819336 112.391602 L 39.243164 114.146484 L 40.666992 115.505859 L 42.087891 116.478516 L 43.157227 116.970703 L 44.581055 117.342773 L 46.001953 117.433594 L 47.425781 117.292969 L 49.204102 116.885742 L 52.40625 115.857422 L 55.253906 115.02832 L 57.389648 114.635742 L 59.167969 114.515625 L 60.946289 114.585938 L 63.082031 114.908203 L 65.572266 115.543945 L 69.84082 116.958984 L 72.688477 117.776367 L 74.466797 118.063477 L 75.890625 118.089844 L 77.314453 117.873047 L 78.380859 117.518555 L 79.447266 116.979492 L 80.516602 116.229492 L 81.583008 115.262695 L 83.006836 113.613281 L 84.430664 111.553711 L 85.851562 109.104492 L 87.632812 105.568359 L 90.123047 100.007812 L 94.391602 90.295898 L 96.169922 86.750977 L 97.951172 83.727539 L 99.37207 81.735352 L 100.795898 80.118164 L 102.219727 78.837891 L 103.998047 77.598633 L 109.69043 74.100586 L 111.114258 72.785156 L 112.538086 71.129883 L 113.961914 69.102539 L 115.385742 66.694336 L 117.164062 63.199219 L 119.296875 58.458984 L 124.634766 46.321289 L 126.058594 43.655273 L 127.482422 41.487305 L 128.548828 40.256836 L 129.615234 39.416016 L 130.327148 39.09082 L 131.039062 38.964844 L 131.750977 39.043945 L 132.462891 39.336914 L 133.174805 39.84375 L 133.886719 40.570312 L 134.953125 42.070312 L 136.019531 44.053711 L 137.088867 46.505859 L 138.512695 50.452148 L 139.933594 55.089844 L 141.714844 61.669922 L 144.205078 71.827148 L 148.473633 89.405273 L 150.251953 95.90332 L 151.675781 100.467773 L 153.099609 104.34668 L 154.166016 106.760742 L 155.235352 108.720703 L 156.301758 110.223633 L 157.368164 111.257812 L 158.080078 111.694336 L 158.791992 111.928711 L 159.503906 111.969727 L 160.21582 111.823242 L 160.927734 111.495117 L 161.994141 110.683594 L 163.060547 109.517578 L 164.129883 108.032227 L 165.553711 105.612305 L 167.332031 102.00293 L 169.467773 97.025391 L 172.3125 89.71875 L 178.004883 74.938477 L 180.140625 70.054688 L 181.918945 66.524414 L 183.342773 64.136719 L 184.766602 62.194336 L 185.833008 61.054688 L 186.899414 60.193359 L 187.96875 59.619141 L 189.035156 59.329102 L 190.101562 59.317383 L 191.170898 59.569336 L 192.237305 60.070312 L 193.303711 60.796875 L 194.727539 62.071289 L 196.508789 64.051758 L 198.641602 66.808594 L 205.045898 75.383789 L 207.181641 77.803711 L 209.317383 79.857422 L 211.095703 81.266602 L 212.874023 82.371094 L 214.297852 83.015625 L 215.364258 83.34668 " transform="matrix(1.333333,0,0,1.333333,0,-0.000000000000014211)"/>
<path style="fill:none;stroke-width:2;stroke-linecap:square;stroke-linejoin:round;stroke:rgb(0%,0%,0%);stroke-opacity:0.501961;stroke-miterlimit:4;" d="M 37.819336 134.81543 L 39.955078 127.456055 L 42.799805 116.686523 L 52.051758 80.648438 L 53.830078 74.841797 L 55.608398 69.802734 L 57.032227 66.416016 L 58.456055 63.647461 L 59.522461 61.989258 L 60.591797 60.688477 L 61.658203 59.733398 L 62.724609 59.103516 L 63.793945 58.77832 L 64.860352 58.722656 L 65.926758 58.901367 L 66.996094 59.276367 L 68.419922 60.011719 L 70.552734 61.441406 L 77.314453 66.257812 L 81.228516 68.604492 L 84.785156 70.813477 L 87.275391 72.635742 L 89.411133 74.455078 L 91.901367 76.889648 L 94.391602 79.643555 L 97.239258 83.144531 L 99.729492 86.53418 L 102.219727 90.316406 L 104.355469 93.969727 L 106.488281 98.094727 L 108.624023 102.74707 L 110.759766 107.912109 L 113.604492 115.397461 L 118.230469 127.602539 L 120.008789 131.683594 L 121.432617 134.466797 L 122.856445 136.713867 L 123.922852 137.99707 L 124.992187 138.896484 L 125.704102 139.274414 L 126.413086 139.470703 L 127.125 139.482422 L 127.836914 139.306641 L 128.548828 138.946289 L 129.615234 138.067383 L 130.68457 136.798828 L 131.750977 135.164062 L 133.174805 132.474609 L 134.598633 129.290039 L 136.376953 124.787109 L 139.579102 115.927734 L 143.135742 106.265625 L 145.271484 101.088867 L 147.049805 97.268555 L 148.831055 93.922852 L 150.609375 91.025391 L 152.387695 88.532227 L 154.166016 86.387695 L 155.947266 84.550781 L 157.725586 83.000977 L 159.503906 81.744141 L 160.927734 80.973633 L 162.351562 80.44043 L 163.772461 80.167969 L 165.196289 80.182617 L 166.265625 80.390625 L 167.686523 80.929688 L 169.110352 81.75293 L 170.53418 82.825195 L 172.669922 84.770508 L 176.938477 88.804688 L 178.362305 89.824219 L 179.428711 90.375 L 180.495117 90.703125 L 181.564453 90.776367 L 182.630859 90.568359 L 183.697266 90.058594 L 184.766602 89.235352 L 185.833008 88.101562 L 186.899414 86.657227 L 188.323242 84.272461 L 189.74707 81.418945 L 191.525391 77.299805 L 194.015625 70.845703 L 198.641602 58.646484 L 200.419922 54.539062 L 201.84375 51.679688 L 203.267578 49.274414 L 204.691406 47.367188 L 205.757812 46.277344 L 206.824219 45.477539 L 207.893555 44.964844 L 208.959961 44.72168 L 210.029297 44.736328 L 211.095703 44.976562 L 212.162109 45.421875 L 213.585937 46.277344 L 215.364258 47.657227 " transform="matrix(1.333333,0,0,1.333333,0,-0.000000000000014211)"/>
<path style="fill:none;stroke-width:2;stroke-linecap:square;stroke-linejoin:round;stroke:rgb(0%,0%,0%);stroke-opacity:0.501961;stroke-miterlimit:4;" d="M 37.819336 98.375977 L 41.378906 98.794922 L 43.511719 99.28125 L 46.001953 100.092773 L 49.204102 101.129883 L 50.62793 101.361328 L 51.694336 101.349609 L 52.763672 101.126953 L 53.830078 100.649414 L 54.899414 99.875977 L 55.96582 98.777344 L 57.032227 97.327148 L 58.101562 95.513672 L 59.522461 92.540039 L 60.946289 88.96875 L 62.724609 83.81543 L 65.572266 74.666016 L 68.0625 66.855469 L 69.486328 62.964844 L 70.910156 59.765625 L 71.976562 57.9375 L 72.688477 57.029297 L 73.400391 56.387695 L 74.112305 56.021484 L 74.824219 55.945312 L 75.533203 56.15625 L 76.245117 56.663086 L 76.957031 57.457031 L 77.668945 58.535156 L 78.735352 60.650391 L 79.804687 63.322266 L 81.228516 67.631836 L 83.006836 73.936523 L 85.851562 85.12207 L 88.699219 96.111328 L 90.477539 102.225586 L 91.901367 106.5 L 93.325195 110.15332 L 94.749023 113.15625 L 95.81543 114.990234 L 96.881836 116.478516 L 97.951172 117.644531 L 99.017578 118.514648 L 100.083984 119.112305 L 101.15332 119.466797 L 102.219727 119.598633 L 103.286133 119.53125 L 104.355469 119.279297 L 105.776367 118.672852 L 107.200195 117.767578 L 108.624023 116.566406 L 110.047852 115.066406 L 111.47168 113.255859 L 112.892578 111.134766 L 114.673828 108.046875 L 116.452148 104.510742 L 118.587891 99.758789 L 121.432617 92.818359 L 130.68457 69.773438 L 140.645508 45.966797 L 149.897461 22.617188 L 151.675781 19.060547 L 153.099609 16.740234 L 154.166016 15.366211 L 155.235352 14.349609 L 156.301758 13.716797 L 157.013672 13.526367 L 157.725586 13.523438 L 158.4375 13.713867 L 159.149414 14.100586 L 159.858398 14.686523 L 160.927734 15.9375 L 161.994141 17.62207 L 163.060547 19.731445 L 164.484375 23.15332 L 165.908203 27.202148 L 167.686523 32.985352 L 170.176758 41.994141 L 175.160156 60.351562 L 176.938477 66.09668 L 178.362305 70.12207 L 179.783203 73.552734 L 181.207031 76.333008 L 182.276367 77.985352 L 183.342773 79.271484 L 184.40918 80.206055 L 185.478516 80.824219 L 186.544922 81.158203 L 187.611328 81.260742 L 189.035156 81.120117 L 191.170898 80.589844 L 193.661133 80.009766 L 195.084961 79.913086 L 196.508789 80.077148 L 197.929687 80.537109 L 199.353516 81.295898 L 200.777344 82.31543 L 202.913086 84.1875 L 206.469727 87.398438 L 207.893555 88.415039 L 209.317383 89.135742 L 210.383789 89.449219 L 211.450195 89.545898 L 212.519531 89.419922 L 213.585937 89.077148 L 214.652344 88.532227 L 215.364258 88.066406 " transform="matrix(1.333333,0,0,1.333333,0,-0.000000000000014211)"/>
<path style="fill:none;stroke-width:0.8;stroke-linecap:square;stroke-linejoin:miter;stroke:rgb(0%,0%,0%);stroke-opacity:1;stroke-miterlimit:4;" d="M 28.942383 145.798828 L 28.942383 7.201172 " transform="matrix(1.333333,0,0,1.333333,0,-0.000000000000014211)"/>
<path style="fill:none;stroke-width:0.8;stroke-linecap:square;stroke-linejoin:miter;stroke:rgb(0%,0%,0%);stroke-opacity:1;stroke-miterlimit:4;" d="M 224.241211 145.798828 L 224.241211 7.201172 " transform="matrix(1.333333,0,0,1.333333,0,-0.000000000000014211)"/>
<path style="fill:none;stroke-width:0.8;stroke-linecap:square;stroke-linejoin:miter;stroke:rgb(0%,0%,0%);stroke-opacity:1;stroke-miterlimit:4;" d="M 28.942383 145.798828 L 224.241211 145.798828 " transform="matrix(1.333333,0,0,1.333333,0,-0.000000000000014211)"/>
<path style="fill:none;stroke-width:0.8;stroke-linecap:square;stroke-linejoin:miter;stroke:rgb(0%,0%,0%);stroke-opacity:1;stroke-miterlimit:4;" d="M 28.942383 7.201172 L 224.241211 7.201172 " transform="matrix(1.333333,0,0,1.333333,0,-0.000000000000014211)"/>
</g>
</svg>
