<?xml version="1.0" encoding="UTF-8"?>
<svg xmlns="http://www.w3.org/2000/svg" xmlns:xlink="http://www.w3.org/1999/xlink" width="237.333333" height="156" viewBox="0 0 237.333333 156" version="1.1">
<g id="surface1">
<path style=" stroke:none;fill-rule:nonzero;fill:rgb(0%,0%,0%);fill-opacity:1;" d="M 105.152344 17.714844 L 105.070312 9.132812 L 106.109375 9.109375 L 106.195312 17.695312 Z M 105.152344 17.714844 "/>
<path style=" stroke:none;fill-rule:nonzero;fill:rgb(0%,0%,0%);fill-opacity:1;" d="M 107.402344 14.582031 C 107.402344 13.429688 107.714844 12.570312 108.339844 12 C 108.882812 11.539062 109.53125 11.304688 110.296875 11.289062 C 111.15625 11.289062 111.859375 11.570312 112.402344 12.125 C 112.953125 12.664062 113.234375 13.429688 113.234375 14.414062 C 113.246094 15.222656 113.136719 15.851562 112.902344 16.3125 C 112.664062 16.769531 112.320312 17.132812 111.859375 17.394531 C 111.402344 17.660156 110.902344 17.789062 110.359375 17.789062 C 109.484375 17.800781 108.777344 17.535156 108.234375 16.976562 C 107.695312 16.425781 107.414062 15.625 107.402344 14.582031 Z M 108.484375 14.5625 C 108.496094 15.351562 108.679688 15.953125 109.027344 16.351562 C 109.386719 16.742188 109.828125 16.929688 110.359375 16.914062 C 110.886719 16.914062 111.320312 16.71875 111.652344 16.3125 C 111.996094 15.910156 112.164062 15.300781 112.152344 14.476562 C 112.152344 13.71875 111.96875 13.140625 111.609375 12.75 C 111.261719 12.347656 110.824219 12.144531 110.296875 12.144531 C 109.765625 12.160156 109.328125 12.367188 108.984375 12.769531 C 108.652344 13.160156 108.484375 13.757812 108.484375 14.5625 Z M 108.484375 14.5625 "/>
<path style=" stroke:none;fill-rule:nonzero;fill:rgb(0%,0%,0%);fill-opacity:1;" d="M 116.242188 17.59375 L 113.804688 11.386719 L 114.929688 11.367188 L 116.304688 15.09375 C 116.441406 15.5 116.574219 15.90625 116.699219 16.324219 C 116.792969 16.007812 116.929688 15.617188 117.097656 15.15625 L 118.429688 11.34375 L 119.511719 11.324219 L 117.222656 17.574219 Z M 116.242188 17.59375 "/>
<path style=" stroke:none;fill-rule:nonzero;fill:rgb(0%,0%,0%);fill-opacity:1;" d="M 124.742188 15.492188 L 125.847656 15.617188 C 125.679688 16.257812 125.355469 16.757812 124.886719 17.117188 C 124.429688 17.480469 123.835938 17.65625 123.117188 17.65625 C 122.210938 17.667969 121.492188 17.402344 120.949219 16.84375 C 120.410156 16.292969 120.128906 15.507812 120.117188 14.492188 C 120.117188 13.449219 120.378906 12.636719 120.910156 12.054688 C 121.449219 11.46875 122.148438 11.171875 123.011719 11.15625 C 123.847656 11.15625 124.523438 11.4375 125.054688 11.992188 C 125.582031 12.546875 125.847656 13.339844 125.847656 14.367188 C 125.847656 14.4375 125.851562 14.53125 125.867188 14.65625 L 121.222656 14.699219 C 121.261719 15.382812 121.457031 15.902344 121.804688 16.261719 C 122.164062 16.625 122.605469 16.796875 123.136719 16.78125 C 123.523438 16.78125 123.851562 16.6875 124.117188 16.492188 C 124.378906 16.28125 124.585938 15.949219 124.742188 15.492188 Z M 121.261719 13.824219 L 124.742188 13.78125 C 124.699219 13.257812 124.566406 12.867188 124.347656 12.617188 C 123.996094 12.214844 123.554688 12.011719 123.011719 12.011719 C 122.523438 12.027344 122.121094 12.199219 121.804688 12.53125 C 121.480469 12.855469 121.304688 13.28125 121.261719 13.824219 Z M 121.261719 13.824219 "/>
<path style=" stroke:none;fill-rule:nonzero;fill:rgb(0%,0%,0%);fill-opacity:1;" d="M 126.75 15.628906 L 127.792969 15.441406 C 127.84375 15.859375 128.011719 16.179688 128.292969 16.398438 C 128.566406 16.625 128.941406 16.726562 129.417969 16.710938 C 129.902344 16.710938 130.253906 16.617188 130.480469 16.421875 C 130.714844 16.226562 130.832031 16 130.832031 15.734375 C 130.832031 15.484375 130.730469 15.296875 130.519531 15.171875 C 130.363281 15.078125 130.003906 14.953125 129.4375 14.796875 C 128.65625 14.617188 128.113281 14.457031 127.8125 14.316406 C 127.503906 14.179688 127.277344 13.992188 127.125 13.753906 C 126.96875 13.503906 126.894531 13.226562 126.894531 12.921875 C 126.878906 12.644531 126.9375 12.390625 127.0625 12.148438 C 127.1875 11.914062 127.359375 11.707031 127.582031 11.523438 C 127.75 11.414062 127.96875 11.316406 128.25 11.234375 C 128.542969 11.148438 128.84375 11.109375 129.167969 11.109375 C 129.652344 11.097656 130.074219 11.160156 130.4375 11.296875 C 130.8125 11.4375 131.089844 11.625 131.269531 11.859375 C 131.449219 12.082031 131.582031 12.394531 131.667969 12.796875 L 130.625 12.960938 C 130.582031 12.644531 130.441406 12.394531 130.207031 12.210938 C 129.96875 12.035156 129.652344 11.953125 129.25 11.960938 C 128.761719 11.960938 128.417969 12.046875 128.207031 12.210938 C 128 12.367188 127.902344 12.554688 127.917969 12.773438 C 127.917969 12.914062 127.957031 13.035156 128.042969 13.128906 C 128.125 13.253906 128.261719 13.351562 128.457031 13.421875 C 128.550781 13.460938 128.859375 13.546875 129.375 13.671875 C 130.125 13.867188 130.644531 14.023438 130.9375 14.148438 C 131.238281 14.265625 131.480469 14.441406 131.644531 14.691406 C 131.824219 14.929688 131.917969 15.226562 131.917969 15.585938 C 131.917969 15.953125 131.8125 16.289062 131.605469 16.609375 C 131.40625 16.914062 131.113281 17.160156 130.730469 17.335938 C 130.355469 17.503906 129.917969 17.585938 129.417969 17.585938 C 128.609375 17.597656 127.988281 17.441406 127.5625 17.109375 C 127.144531 16.773438 126.875 16.285156 126.75 15.628906 Z M 126.75 15.628906 "/>
<path style="fill-rule:nonzero;fill:rgb(40.000001%,74.901962%,100%);fill-opacity:1;stroke-width:1;stroke-linecap:round;stroke-linejoin:round;stroke:rgb(0%,0%,0%);stroke-opacity:1;stroke-miterlimit:10;" d="M 472.520508 551.550781 C 477.257812 556.188477 477.336914 563.785156 472.699219 568.519531 C 468.061523 573.256836 460.464844 573.335938 455.730469 568.698242 C 450.996094 564.063477 450.914062 556.463867 455.551758 551.729492 C 460.186523 546.995117 467.786133 546.913086 472.520508 551.550781 " transform="matrix(1.333333,0,0,1.333333,-500,-698.666667)"/>
<path style="fill-rule:nonzero;fill:rgb(69.803923%,85.09804%,100%);fill-opacity:1;stroke-width:1;stroke-linecap:round;stroke-linejoin:round;stroke:rgb(0%,0%,0%);stroke-opacity:1;stroke-miterlimit:10;" d="M 440.484375 595.516602 C 445.171875 600.198242 445.171875 607.800781 440.484375 612.485352 C 435.799805 617.172852 428.200195 617.172852 423.515625 612.485352 C 418.828125 607.800781 418.828125 600.198242 423.515625 595.516602 C 428.200195 590.829102 435.799805 590.829102 440.484375 595.516602 " transform="matrix(1.333333,0,0,1.333333,-500,-698.666667)"/>
<path style="fill-rule:nonzero;fill:rgb(69.803923%,85.09804%,100%);fill-opacity:1;stroke-width:1;stroke-linecap:round;stroke-linejoin:round;stroke:rgb(0%,0%,0%);stroke-opacity:1;stroke-miterlimit:10;" d="M 396.483398 595.516602 C 401.170898 600.198242 401.170898 607.800781 396.483398 612.485352 C 391.801758 617.172852 384.199219 617.172852 379.514648 612.485352 C 374.827148 607.800781 374.827148 600.198242 379.514648 595.516602 C 384.199219 590.829102 391.801758 590.829102 396.483398 595.516602 " transform="matrix(1.333333,0,0,1.333333,-500,-698.666667)"/>
<path style="fill-rule:nonzero;fill:rgb(69.803923%,85.09804%,100%);fill-opacity:1;stroke-width:1;stroke-linecap:round;stroke-linejoin:round;stroke:rgb(0%,0%,0%);stroke-opacity:1;stroke-miterlimit:10;" d="M 504.483398 595.516602 C 509.170898 600.198242 509.170898 607.800781 504.483398 612.485352 C 499.801758 617.172852 492.199219 617.172852 487.514648 612.485352 C 482.827148 607.800781 482.827148 600.198242 487.514648 595.516602 C 492.199219 590.829102 499.801758 590.829102 504.483398 595.516602 " transform="matrix(1.333333,0,0,1.333333,-500,-698.666667)"/>
<path style="fill-rule:nonzero;fill:rgb(69.803923%,85.09804%,100%);fill-opacity:1;stroke-width:1;stroke-linecap:round;stroke-linejoin:round;stroke:rgb(0%,0%,0%);stroke-opacity:1;stroke-miterlimit:10;" d="M 548.484375 595.516602 C 553.171875 600.198242 553.171875 607.800781 548.484375 612.485352 C 543.799805 617.172852 536.200195 617.172852 531.515625 612.485352 C 526.828125 607.800781 526.828125 600.198242 531.515625 595.516602 C 536.200195 590.829102 543.799805 590.829102 548.484375 595.516602 " transform="matrix(1.333333,0,0,1.333333,-500,-698.666667)"/>
<path style="fill:none;stroke-width:1;stroke-linecap:round;stroke-linejoin:round;stroke:rgb(0%,0%,0%);stroke-opacity:1;stroke-miterlimit:10;" d="M 439.089844 594.31543 L 453.550781 574.569336 " transform="matrix(1.333333,0,0,1.333333,-500,-698.666667)"/>
<path style="fill:none;stroke-width:1;stroke-linecap:butt;stroke-linejoin:miter;stroke:rgb(0%,0%,0%);stroke-opacity:1;stroke-miterlimit:10;" d="M 455.915039 571.34082 L 453.550781 574.569336 M 452.34082 573.68457 L 455.915039 571.34082 L 454.760742 575.457031 " transform="matrix(1.333333,0,0,1.333333,-500,-698.666667)"/>
<path style="fill:none;stroke-width:1;stroke-linecap:round;stroke-linejoin:round;stroke:rgb(0%,0%,0%);stroke-opacity:1;stroke-miterlimit:10;" d="M 398.399414 598.006836 L 448.614258 569.067383 " transform="matrix(1.333333,0,0,1.333333,-500,-698.666667)"/>
<path style="fill:none;stroke-width:1;stroke-linecap:butt;stroke-linejoin:miter;stroke:rgb(0%,0%,0%);stroke-opacity:1;stroke-miterlimit:10;" d="M 452.077148 567.066406 L 448.614258 569.067383 M 447.864258 567.766602 L 452.077148 567.066406 L 449.364258 570.362305 " transform="matrix(1.333333,0,0,1.333333,-500,-698.666667)"/>
<path style="fill:none;stroke-width:1;stroke-linecap:round;stroke-linejoin:round;stroke:rgb(0%,0%,0%);stroke-opacity:1;stroke-miterlimit:10;" d="M 488.944336 594.289062 L 474.647461 574.610352 " transform="matrix(1.333333,0,0,1.333333,-500,-698.666667)"/>
<path style="fill:none;stroke-width:1;stroke-linecap:butt;stroke-linejoin:miter;stroke:rgb(0%,0%,0%);stroke-opacity:1;stroke-miterlimit:10;" d="M 472.297852 571.370117 L 474.647461 574.610352 M 473.43457 575.492188 L 472.297852 571.370117 L 475.860352 573.725586 " transform="matrix(1.333333,0,0,1.333333,-500,-698.666667)"/>
<path style="fill:none;stroke-width:1;stroke-linecap:round;stroke-linejoin:round;stroke:rgb(0%,0%,0%);stroke-opacity:1;stroke-miterlimit:10;" d="M 529.608398 597.992188 L 479.625 569.084961 " transform="matrix(1.333333,0,0,1.333333,-500,-698.666667)"/>
<path style="fill:none;stroke-width:1;stroke-linecap:butt;stroke-linejoin:miter;stroke:rgb(0%,0%,0%);stroke-opacity:1;stroke-miterlimit:10;" d="M 476.15918 567.086914 L 479.625 569.084961 M 478.87207 570.385742 L 476.15918 567.086914 L 480.375 567.790039 " transform="matrix(1.333333,0,0,1.333333,-500,-698.666667)"/>
<path style=" stroke:none;fill-rule:nonzero;fill:rgb(0%,0%,0%);fill-opacity:1;" d="M 11.429688 144.015625 L 11.574219 144.933594 C 11.269531 145 11.003906 145.035156 10.785156 145.035156 C 10.394531 145.035156 10.097656 144.972656 9.886719 144.847656 C 9.679688 144.722656 9.523438 144.566406 9.429688 144.371094 C 9.347656 144.175781 9.304688 143.765625 9.304688 143.140625 L 9.304688 139.558594 L 8.535156 139.558594 L 8.535156 138.722656 L 9.304688 138.722656 L 9.304688 137.183594 L 10.367188 136.558594 L 10.367188 138.722656 L 11.429688 138.722656 L 11.429688 139.558594 L 10.367188 139.558594 L 10.367188 143.183594 C 10.367188 143.488281 10.378906 143.683594 10.410156 143.765625 C 10.449219 143.847656 10.511719 143.921875 10.597656 143.972656 C 10.679688 144.03125 10.792969 144.058594 10.949219 144.058594 C 11.074219 144.058594 11.230469 144.046875 11.429688 144.015625 Z M 11.429688 144.015625 "/>
<path style=" stroke:none;fill-rule:nonzero;fill:rgb(0%,0%,0%);fill-opacity:1;" d="M 12.449219 144.953125 L 12.449219 136.371094 L 13.511719 136.371094 L 13.511719 139.453125 C 13.996094 138.886719 14.617188 138.597656 15.367188 138.597656 C 15.824219 138.597656 16.222656 138.691406 16.554688 138.871094 C 16.898438 139.050781 17.144531 139.300781 17.285156 139.621094 C 17.433594 139.941406 17.511719 140.40625 17.511719 141.015625 L 17.511719 144.953125 L 16.472656 144.953125 L 16.472656 141.015625 C 16.472656 140.488281 16.351562 140.109375 16.117188 139.871094 C 15.894531 139.621094 15.574219 139.496094 15.160156 139.496094 C 14.835938 139.496094 14.539062 139.578125 14.261719 139.746094 C 13.980469 139.902344 13.789062 140.113281 13.679688 140.390625 C 13.566406 140.671875 13.511719 141.058594 13.511719 141.558594 L 13.511719 144.953125 Z M 12.449219 144.953125 "/>
<path style=" stroke:none;fill-rule:nonzero;fill:rgb(0%,0%,0%);fill-opacity:1;" d="M 23.371094 142.953125 L 24.476562 143.078125 C 24.292969 143.71875 23.964844 144.21875 23.496094 144.578125 C 23.039062 144.925781 22.445312 145.097656 21.726562 145.097656 C 20.820312 145.097656 20.101562 144.824219 19.558594 144.265625 C 19.027344 143.699219 18.765625 142.90625 18.765625 141.890625 C 18.765625 140.847656 19.039062 140.046875 19.578125 139.472656 C 20.121094 138.890625 20.820312 138.597656 21.683594 138.597656 C 22.515625 138.597656 23.1875 138.886719 23.703125 139.453125 C 24.230469 140.011719 24.496094 140.800781 24.496094 141.828125 C 24.496094 141.902344 24.496094 141.996094 24.496094 142.121094 L 19.851562 142.121094 C 19.890625 142.800781 20.085938 143.324219 20.433594 143.683594 C 20.777344 144.046875 21.214844 144.222656 21.746094 144.222656 C 22.132812 144.222656 22.460938 144.128906 22.726562 143.933594 C 23 143.722656 23.214844 143.402344 23.371094 142.953125 Z M 19.914062 141.246094 L 23.390625 141.246094 C 23.351562 140.71875 23.214844 140.324219 22.996094 140.058594 C 22.664062 139.65625 22.226562 139.453125 21.683594 139.453125 C 21.195312 139.453125 20.789062 139.621094 20.453125 139.953125 C 20.132812 140.277344 19.953125 140.703125 19.914062 141.246094 Z M 19.914062 141.246094 "/>
<path style=" stroke:none;fill-rule:nonzero;fill:rgb(0%,0%,0%);fill-opacity:1;" d="M 63.683594 144.953125 L 63.683594 138.722656 L 64.621094 138.722656 L 64.621094 139.597656 C 64.8125 139.296875 65.066406 139.050781 65.390625 138.871094 C 65.722656 138.691406 66.097656 138.597656 66.515625 138.597656 C 66.972656 138.597656 67.347656 138.699219 67.640625 138.890625 C 67.933594 139.074219 68.140625 139.339844 68.265625 139.683594 C 68.765625 138.964844 69.402344 138.597656 70.183594 138.597656 C 70.808594 138.597656 71.285156 138.777344 71.621094 139.121094 C 71.953125 139.453125 72.121094 139.972656 72.121094 140.683594 L 72.121094 144.953125 L 71.058594 144.953125 L 71.058594 141.035156 C 71.058594 140.609375 71.019531 140.300781 70.953125 140.121094 C 70.894531 139.941406 70.777344 139.796875 70.597656 139.683594 C 70.417969 139.558594 70.203125 139.496094 69.953125 139.496094 C 69.519531 139.496094 69.160156 139.640625 68.871094 139.933594 C 68.578125 140.222656 68.433594 140.691406 68.433594 141.328125 L 68.433594 144.953125 L 67.371094 144.953125 L 67.371094 140.910156 C 67.371094 140.441406 67.285156 140.089844 67.121094 139.847656 C 66.953125 139.613281 66.671875 139.496094 66.285156 139.496094 C 65.980469 139.496094 65.703125 139.578125 65.453125 139.746094 C 65.203125 139.902344 65.019531 140.128906 64.910156 140.433594 C 64.796875 140.722656 64.746094 141.15625 64.746094 141.722656 L 64.746094 144.953125 Z M 63.683594 144.953125 "/>
<path style=" stroke:none;fill-rule:nonzero;fill:rgb(0%,0%,0%);fill-opacity:1;" d="M 77.742188 144.183594 C 77.351562 144.515625 76.976562 144.753906 76.617188 144.890625 C 76.25 145.027344 75.867188 145.097656 75.449219 145.097656 C 74.765625 145.097656 74.242188 144.933594 73.867188 144.597656 C 73.5 144.265625 73.324219 143.839844 73.324219 143.308594 C 73.324219 143.003906 73.390625 142.722656 73.53125 142.472656 C 73.667969 142.222656 73.851562 142.027344 74.074219 141.871094 C 74.292969 141.71875 74.542969 141.597656 74.824219 141.515625 C 75.03125 141.472656 75.34375 141.425781 75.761719 141.371094 C 76.621094 141.277344 77.25 141.152344 77.65625 140.996094 C 77.65625 140.859375 77.65625 140.765625 77.65625 140.722656 C 77.65625 140.296875 77.558594 139.996094 77.367188 139.828125 C 77.085938 139.578125 76.683594 139.453125 76.15625 139.453125 C 75.65625 139.453125 75.289062 139.546875 75.054688 139.722656 C 74.8125 139.890625 74.640625 140.199219 74.53125 140.640625 L 73.511719 140.515625 C 73.59375 140.074219 73.742188 139.71875 73.949219 139.453125 C 74.167969 139.175781 74.480469 138.96875 74.886719 138.828125 C 75.304688 138.675781 75.773438 138.597656 76.304688 138.597656 C 76.84375 138.597656 77.273438 138.660156 77.59375 138.785156 C 77.929688 138.910156 78.167969 139.074219 78.324219 139.265625 C 78.492188 139.449219 78.601562 139.683594 78.65625 139.972656 C 78.699219 140.15625 78.71875 140.472656 78.71875 140.933594 L 78.71875 142.347656 C 78.71875 143.324219 78.742188 143.941406 78.78125 144.203125 C 78.824219 144.46875 78.914062 144.71875 79.054688 144.953125 L 77.949219 144.953125 C 77.835938 144.734375 77.765625 144.472656 77.742188 144.183594 Z M 77.65625 141.828125 C 77.265625 141.984375 76.6875 142.113281 75.929688 142.222656 C 75.496094 142.296875 75.1875 142.371094 75.011719 142.453125 C 74.828125 142.527344 74.6875 142.636719 74.59375 142.785156 C 74.496094 142.941406 74.449219 143.109375 74.449219 143.285156 C 74.449219 143.566406 74.554688 143.800781 74.761719 143.996094 C 74.96875 144.175781 75.28125 144.265625 75.699219 144.265625 C 76.101562 144.265625 76.460938 144.175781 76.78125 143.996094 C 77.101562 143.816406 77.335938 143.574219 77.492188 143.265625 C 77.601562 143.03125 77.65625 142.683594 77.65625 142.222656 Z M 77.65625 141.828125 "/>
<path style=" stroke:none;fill-rule:nonzero;fill:rgb(0%,0%,0%);fill-opacity:1;" d="M 80.351562 144.953125 L 80.351562 138.722656 L 81.3125 138.722656 L 81.3125 139.621094 C 81.753906 138.941406 82.414062 138.597656 83.289062 138.597656 C 83.664062 138.597656 84.003906 138.671875 84.3125 138.808594 C 84.628906 138.933594 84.863281 139.109375 85.019531 139.328125 C 85.171875 139.535156 85.28125 139.796875 85.351562 140.097656 C 85.394531 140.296875 85.414062 140.636719 85.414062 141.121094 L 85.414062 144.953125 L 84.351562 144.953125 L 84.351562 141.160156 C 84.351562 140.734375 84.3125 140.410156 84.226562 140.203125 C 84.144531 139.996094 84 139.828125 83.789062 139.703125 C 83.582031 139.566406 83.335938 139.496094 83.0625 139.496094 C 82.613281 139.496094 82.226562 139.640625 81.894531 139.933594 C 81.570312 140.214844 81.414062 140.753906 81.414062 141.558594 L 81.414062 144.953125 Z M 80.351562 144.953125 "/>
<path style=" stroke:none;fill-rule:nonzero;fill:rgb(0%,0%,0%);fill-opacity:1;" d="M 153.734375 144.953125 L 153.734375 136.371094 L 154.796875 136.371094 L 154.796875 139.453125 C 155.28125 138.886719 155.902344 138.597656 156.652344 138.597656 C 157.109375 138.597656 157.507812 138.691406 157.839844 138.871094 C 158.183594 139.050781 158.429688 139.300781 158.570312 139.621094 C 158.71875 139.941406 158.796875 140.40625 158.796875 141.015625 L 158.796875 144.953125 L 157.757812 144.953125 L 157.757812 141.015625 C 157.757812 140.488281 157.636719 140.109375 157.402344 139.871094 C 157.179688 139.621094 156.859375 139.496094 156.445312 139.496094 C 156.121094 139.496094 155.824219 139.578125 155.546875 139.746094 C 155.265625 139.902344 155.074219 140.113281 154.964844 140.390625 C 154.851562 140.671875 154.796875 141.058594 154.796875 141.558594 L 154.796875 144.953125 Z M 153.734375 144.953125 "/>
<path style=" stroke:none;fill-rule:nonzero;fill:rgb(0%,0%,0%);fill-opacity:1;" d="M 160.410156 137.578125 L 160.410156 136.371094 L 161.472656 136.371094 L 161.472656 137.578125 Z M 160.410156 144.953125 L 160.410156 138.722656 L 161.472656 138.722656 L 161.472656 144.953125 Z M 160.410156 144.953125 "/>
<path style=" stroke:none;fill-rule:nonzero;fill:rgb(0%,0%,0%);fill-opacity:1;" d="M 162.660156 143.097656 L 163.703125 142.933594 C 163.753906 143.347656 163.914062 143.671875 164.179688 143.890625 C 164.457031 144.113281 164.832031 144.222656 165.304688 144.222656 C 165.789062 144.222656 166.148438 144.128906 166.390625 143.933594 C 166.625 143.738281 166.742188 143.511719 166.742188 143.246094 C 166.742188 142.996094 166.640625 142.808594 166.429688 142.683594 C 166.273438 142.589844 165.914062 142.464844 165.347656 142.308594 C 164.566406 142.113281 164.023438 141.949219 163.722656 141.808594 C 163.429688 141.671875 163.207031 141.472656 163.054688 141.222656 C 162.898438 140.972656 162.828125 140.699219 162.828125 140.390625 C 162.828125 140.113281 162.890625 139.859375 163.015625 139.621094 C 163.140625 139.386719 163.3125 139.183594 163.535156 139.015625 C 163.703125 138.90625 163.921875 138.808594 164.203125 138.722656 C 164.492188 138.640625 164.796875 138.597656 165.117188 138.597656 C 165.601562 138.597656 166.023438 138.671875 166.390625 138.808594 C 166.765625 138.949219 167.039062 139.136719 167.222656 139.371094 C 167.398438 139.609375 167.523438 139.925781 167.597656 140.328125 L 166.554688 140.472656 C 166.515625 140.15625 166.375 139.90625 166.140625 139.722656 C 165.914062 139.546875 165.601562 139.453125 165.203125 139.453125 C 164.710938 139.453125 164.367188 139.535156 164.160156 139.703125 C 163.953125 139.859375 163.847656 140.046875 163.847656 140.265625 C 163.847656 140.40625 163.890625 140.527344 163.972656 140.621094 C 164.054688 140.746094 164.191406 140.84375 164.390625 140.910156 C 164.484375 140.953125 164.789062 141.046875 165.304688 141.183594 C 166.054688 141.378906 166.578125 141.535156 166.867188 141.660156 C 167.171875 141.785156 167.410156 141.972656 167.578125 142.222656 C 167.742188 142.464844 167.828125 142.761719 167.828125 143.121094 C 167.828125 143.484375 167.722656 143.816406 167.515625 144.121094 C 167.304688 144.425781 167.003906 144.671875 166.617188 144.847656 C 166.242188 145.015625 165.804688 145.097656 165.304688 145.097656 C 164.5 145.097656 163.878906 144.933594 163.453125 144.597656 C 163.035156 144.253906 162.769531 143.753906 162.660156 143.097656 Z M 162.660156 143.097656 "/>
<path style=" stroke:none;fill-rule:nonzero;fill:rgb(0%,0%,0%);fill-opacity:1;" d="M 211.367188 143.097656 L 212.410156 142.933594 C 212.460938 143.347656 212.621094 143.671875 212.886719 143.890625 C 213.164062 144.113281 213.539062 144.222656 214.011719 144.222656 C 214.496094 144.222656 214.855469 144.128906 215.097656 143.933594 C 215.332031 143.738281 215.449219 143.511719 215.449219 143.246094 C 215.449219 142.996094 215.347656 142.808594 215.136719 142.683594 C 214.980469 142.589844 214.621094 142.464844 214.054688 142.308594 C 213.273438 142.113281 212.730469 141.949219 212.429688 141.808594 C 212.136719 141.671875 211.914062 141.472656 211.761719 141.222656 C 211.605469 140.972656 211.535156 140.699219 211.535156 140.390625 C 211.535156 140.113281 211.597656 139.859375 211.722656 139.621094 C 211.847656 139.386719 212.019531 139.183594 212.242188 139.015625 C 212.410156 138.90625 212.628906 138.808594 212.910156 138.722656 C 213.199219 138.640625 213.503906 138.597656 213.824219 138.597656 C 214.308594 138.597656 214.730469 138.671875 215.097656 138.808594 C 215.472656 138.949219 215.746094 139.136719 215.929688 139.371094 C 216.105469 139.609375 216.230469 139.925781 216.304688 140.328125 L 215.261719 140.472656 C 215.222656 140.15625 215.082031 139.90625 214.847656 139.722656 C 214.621094 139.546875 214.308594 139.453125 213.910156 139.453125 C 213.417969 139.453125 213.074219 139.535156 212.867188 139.703125 C 212.660156 139.859375 212.554688 140.046875 212.554688 140.265625 C 212.554688 140.40625 212.597656 140.527344 212.679688 140.621094 C 212.761719 140.746094 212.898438 140.84375 213.097656 140.910156 C 213.191406 140.953125 213.496094 141.046875 214.011719 141.183594 C 214.761719 141.378906 215.285156 141.535156 215.574219 141.660156 C 215.878906 141.785156 216.117188 141.972656 216.285156 142.222656 C 216.449219 142.464844 216.535156 142.761719 216.535156 143.121094 C 216.535156 143.484375 216.429688 143.816406 216.222656 144.121094 C 216.011719 144.425781 215.710938 144.671875 215.324219 144.847656 C 214.949219 145.015625 214.511719 145.097656 214.011719 145.097656 C 213.207031 145.097656 212.585938 144.933594 212.160156 144.597656 C 211.742188 144.253906 211.476562 143.753906 211.367188 143.097656 Z M 211.367188 143.097656 "/>
<path style=" stroke:none;fill-rule:nonzero;fill:rgb(0%,0%,0%);fill-opacity:1;" d="M 217.386719 141.847656 C 217.386719 140.699219 217.707031 139.84375 218.347656 139.285156 C 218.886719 138.828125 219.539062 138.597656 220.304688 138.597656 C 221.164062 138.597656 221.867188 138.878906 222.410156 139.433594 C 222.949219 139.988281 223.222656 140.761719 223.222656 141.746094 C 223.222656 142.550781 223.097656 143.183594 222.847656 143.640625 C 222.605469 144.097656 222.261719 144.464844 221.804688 144.722656 C 221.347656 144.972656 220.847656 145.097656 220.304688 145.097656 C 219.429688 145.097656 218.722656 144.824219 218.179688 144.265625 C 217.648438 143.699219 217.386719 142.890625 217.386719 141.847656 Z M 218.472656 141.847656 C 218.472656 142.640625 218.644531 143.238281 218.992188 143.640625 C 219.335938 144.03125 219.773438 144.222656 220.304688 144.222656 C 220.832031 144.222656 221.269531 144.03125 221.617188 143.640625 C 221.960938 143.238281 222.136719 142.628906 222.136719 141.808594 C 222.136719 141.046875 221.960938 140.464844 221.617188 140.058594 C 221.269531 139.65625 220.832031 139.453125 220.304688 139.453125 C 219.773438 139.453125 219.335938 139.65625 218.992188 140.058594 C 218.644531 140.449219 218.472656 141.046875 218.472656 141.847656 Z M 218.472656 141.847656 "/>
<path style=" stroke:none;fill-rule:nonzero;fill:rgb(0%,0%,0%);fill-opacity:1;" d="M 224.457031 144.953125 L 224.457031 138.722656 L 225.417969 138.722656 L 225.417969 139.621094 C 225.859375 138.941406 226.519531 138.597656 227.394531 138.597656 C 227.769531 138.597656 228.109375 138.671875 228.417969 138.808594 C 228.734375 138.933594 228.96875 139.109375 229.125 139.328125 C 229.277344 139.535156 229.386719 139.796875 229.457031 140.097656 C 229.5 140.296875 229.519531 140.636719 229.519531 141.121094 L 229.519531 144.953125 L 228.457031 144.953125 L 228.457031 141.160156 C 228.457031 140.734375 228.417969 140.410156 228.332031 140.203125 C 228.25 139.996094 228.105469 139.828125 227.894531 139.703125 C 227.6875 139.566406 227.441406 139.496094 227.167969 139.496094 C 226.71875 139.496094 226.332031 139.640625 226 139.933594 C 225.675781 140.214844 225.519531 140.753906 225.519531 141.558594 L 225.519531 144.953125 Z M 224.457031 144.953125 "/>
</g>
</svg>
