<?xml version="1.0" encoding="UTF-8"?>
<svg xmlns="http://www.w3.org/2000/svg" xmlns:xlink="http://www.w3.org/1999/xlink" width="520" height="265.333333" viewBox="0 0 520 265.333333" version="1.1">
<g id="surface1">
<path style="fill-rule:nonzero;fill:rgb(40.000001%,74.901962%,100%);fill-opacity:1;stroke-width:1;stroke-linecap:round;stroke-linejoin:round;stroke:rgb(0%,0%,0%);stroke-opacity:1;stroke-miterlimit:10;" d="M 75.313477 116.186523 C 81.5625 122.432617 81.5625 132.566406 75.313477 138.8125 C 69.067383 145.061523 58.933594 145.061523 52.6875 138.8125 C 46.438477 132.566406 46.438477 122.432617 52.6875 116.186523 C 58.933594 109.9375 69.067383 109.9375 75.313477 116.186523 " transform="matrix(1.333333,0,0,1.333333,-32,2.666667)"/>
<path style="fill-rule:nonzero;fill:rgb(40.000001%,74.901962%,100%);fill-opacity:1;stroke-width:1;stroke-linecap:round;stroke-linejoin:round;stroke:rgb(0%,0%,0%);stroke-opacity:1;stroke-miterlimit:10;" d="M 181.813477 116.186523 C 188.0625 122.432617 188.0625 132.566406 181.813477 138.8125 C 175.567383 145.061523 165.433594 145.061523 159.1875 138.8125 C 152.938477 132.566406 152.938477 122.432617 159.1875 116.186523 C 165.433594 109.9375 175.567383 109.9375 181.813477 116.186523 " transform="matrix(1.333333,0,0,1.333333,-32,2.666667)"/>
<path style="fill-rule:nonzero;fill:rgb(40.000001%,74.901962%,100%);fill-opacity:1;stroke-width:1;stroke-linecap:round;stroke-linejoin:round;stroke:rgb(0%,0%,0%);stroke-opacity:1;stroke-miterlimit:10;" d="M 128.8125 72.188477 C 135.061523 78.43457 135.061523 88.56543 128.8125 94.811523 C 122.566406 101.063477 112.432617 101.063477 106.186523 94.811523 C 99.9375 88.56543 99.9375 78.43457 106.186523 72.188477 C 112.432617 65.936523 122.566406 65.936523 128.8125 72.188477 " transform="matrix(1.333333,0,0,1.333333,-32,2.666667)"/>
<path style="fill-rule:nonzero;fill:rgb(69.803923%,85.09804%,100%);fill-opacity:1;stroke-width:1;stroke-linecap:round;stroke-linejoin:round;stroke:rgb(0%,0%,0%);stroke-opacity:1;stroke-miterlimit:10;" d="M 159.313477 168.686523 C 165.5625 174.932617 165.5625 185.066406 159.313477 191.3125 C 153.067383 197.561523 142.933594 197.561523 136.6875 191.3125 C 130.438477 185.066406 130.438477 174.932617 136.6875 168.686523 C 142.933594 162.4375 153.067383 162.4375 159.313477 168.686523 " transform="matrix(1.333333,0,0,1.333333,-32,2.666667)"/>
<path style=" stroke:none;fill-rule:nonzero;fill:rgb(0%,0%,0%);fill-opacity:1;" d="M 159.988281 245.179688 L 159.34375 238.953125 L 160.363281 238.953125 L 160.632812 241.742188 L 160.757812 243.328125 C 160.757812 243.441406 160.765625 243.675781 160.78125 244.035156 C 160.90625 243.632812 161 243.328125 161.070312 243.117188 C 161.15625 242.910156 161.285156 242.609375 161.46875 242.203125 L 162.96875 238.953125 L 164.113281 238.953125 L 164.320312 242.078125 C 164.347656 242.550781 164.367188 243.175781 164.382812 243.953125 C 164.578125 243.441406 164.890625 242.71875 165.320312 241.785156 L 166.675781 238.953125 L 167.71875 238.953125 L 164.695312 245.179688 L 163.59375 245.179688 L 163.34375 241.535156 C 163.328125 241.300781 163.320312 240.859375 163.320312 240.203125 C 163.15625 240.617188 162.957031 241.070312 162.738281 241.554688 L 161.09375 245.179688 Z M 159.988281 245.179688 "/>
<path style=" stroke:none;fill-rule:nonzero;fill:rgb(0%,0%,0%);fill-opacity:1;" d="M 167.59375 247.429688 L 168.382812 247.328125 C 168.4375 247.800781 168.570312 248.140625 168.78125 248.347656 C 168.988281 248.546875 169.261719 248.640625 169.613281 248.640625 C 170.011719 248.640625 170.363281 248.492188 170.65625 248.203125 C 170.957031 247.910156 171.113281 247.578125 171.113281 247.203125 C 171.113281 246.867188 170.996094 246.597656 170.78125 246.390625 C 170.554688 246.171875 170.257812 246.054688 169.882812 246.054688 C 169.84375 246.054688 169.746094 246.066406 169.613281 246.078125 L 169.757812 245.390625 C 169.84375 245.40625 169.914062 245.410156 169.988281 245.410156 C 170.457031 245.410156 170.820312 245.300781 171.070312 245.078125 C 171.320312 244.84375 171.445312 244.554688 171.445312 244.222656 C 171.445312 243.921875 171.34375 243.660156 171.132812 243.453125 C 170.925781 243.242188 170.675781 243.140625 170.382812 243.140625 C 170.074219 243.140625 169.804688 243.253906 169.570312 243.472656 C 169.332031 243.679688 169.1875 243.984375 169.132812 244.367188 L 168.320312 244.203125 C 168.445312 243.648438 168.695312 243.222656 169.070312 242.929688 C 169.457031 242.628906 169.910156 242.472656 170.425781 242.472656 C 170.976562 242.472656 171.425781 242.640625 171.757812 242.972656 C 172.101562 243.304688 172.28125 243.710938 172.28125 244.179688 C 172.28125 244.546875 172.179688 244.859375 171.988281 245.117188 C 171.804688 245.382812 171.535156 245.597656 171.175781 245.765625 C 171.425781 245.921875 171.613281 246.109375 171.738281 246.328125 C 171.871094 246.550781 171.945312 246.800781 171.945312 247.078125 C 171.945312 247.675781 171.722656 248.195312 171.28125 248.640625 C 170.832031 249.070312 170.300781 249.285156 169.675781 249.285156 C 169.0625 249.285156 168.570312 249.117188 168.195312 248.785156 C 167.832031 248.453125 167.632812 248.003906 167.59375 247.429688 Z M 167.59375 247.429688 "/>
<path style="fill-rule:nonzero;fill:rgb(69.803923%,85.09804%,100%);fill-opacity:1;stroke-width:1;stroke-linecap:round;stroke-linejoin:round;stroke:rgb(0%,0%,0%);stroke-opacity:1;stroke-miterlimit:10;" d="M 52.3125 168.686523 C 58.561523 174.932617 58.561523 185.066406 52.3125 191.3125 C 46.066406 197.561523 35.932617 197.561523 29.686523 191.3125 C 23.4375 185.066406 23.4375 174.932617 29.686523 168.686523 C 35.932617 162.4375 46.066406 162.4375 52.3125 168.686523 " transform="matrix(1.333333,0,0,1.333333,-32,2.666667)"/>
<path style=" stroke:none;fill-rule:nonzero;fill:rgb(0%,0%,0%);fill-opacity:1;" d="M 17.320312 245.179688 L 16.675781 238.953125 L 17.695312 238.953125 L 17.96875 241.742188 L 18.09375 243.328125 C 18.09375 243.441406 18.097656 243.675781 18.113281 244.035156 C 18.238281 243.632812 18.332031 243.328125 18.40625 243.117188 C 18.488281 242.910156 18.617188 242.609375 18.800781 242.203125 L 20.300781 238.953125 L 21.445312 238.953125 L 21.65625 242.078125 C 21.679688 242.550781 21.703125 243.175781 21.71875 243.953125 C 21.910156 243.441406 22.222656 242.71875 22.65625 241.785156 L 24.007812 238.953125 L 25.050781 238.953125 L 22.03125 245.179688 L 20.925781 245.179688 L 20.675781 241.535156 C 20.660156 241.300781 20.65625 240.859375 20.65625 240.203125 C 20.488281 240.617188 20.289062 241.070312 20.070312 241.554688 L 18.425781 245.179688 Z M 17.320312 245.179688 "/>
<path style=" stroke:none;fill-rule:nonzero;fill:rgb(0%,0%,0%);fill-opacity:1;" d="M 26.65625 249.179688 L 27.71875 244.140625 C 27.257812 244.503906 26.613281 244.785156 25.78125 244.992188 L 25.945312 244.242188 C 26.347656 244.078125 26.746094 243.863281 27.15625 243.597656 C 27.554688 243.335938 27.851562 243.109375 28.050781 242.910156 C 28.175781 242.785156 28.289062 242.640625 28.40625 242.472656 L 28.882812 242.472656 L 27.488281 249.179688 Z M 26.65625 249.179688 "/>
<path style="fill-rule:nonzero;fill:rgb(69.803923%,85.09804%,100%);fill-opacity:1;stroke-width:1;stroke-linecap:round;stroke-linejoin:round;stroke:rgb(0%,0%,0%);stroke-opacity:1;stroke-miterlimit:10;" d="M 97.813477 168.686523 C 104.0625 174.932617 104.0625 185.066406 97.813477 191.3125 C 91.567383 197.561523 81.433594 197.561523 75.1875 191.3125 C 68.938477 185.066406 68.938477 174.932617 75.1875 168.686523 C 81.433594 162.4375 91.567383 162.4375 97.813477 168.686523 " transform="matrix(1.333333,0,0,1.333333,-32,2.666667)"/>
<path style=" stroke:none;fill-rule:nonzero;fill:rgb(0%,0%,0%);fill-opacity:1;" d="M 77.988281 245.179688 L 77.34375 238.953125 L 78.363281 238.953125 L 78.632812 241.742188 L 78.757812 243.328125 C 78.757812 243.441406 78.765625 243.675781 78.78125 244.035156 C 78.90625 243.632812 79 243.328125 79.070312 243.117188 C 79.15625 242.910156 79.285156 242.609375 79.46875 242.203125 L 80.96875 238.953125 L 82.113281 238.953125 L 82.320312 242.078125 C 82.347656 242.550781 82.367188 243.175781 82.382812 243.953125 C 82.578125 243.441406 82.890625 242.71875 83.320312 241.785156 L 84.675781 238.953125 L 85.71875 238.953125 L 82.695312 245.179688 L 81.59375 245.179688 L 81.34375 241.535156 C 81.328125 241.300781 81.320312 240.859375 81.320312 240.203125 C 81.15625 240.617188 80.957031 241.070312 80.738281 241.554688 L 79.09375 245.179688 Z M 77.988281 245.179688 "/>
<path style=" stroke:none;fill-rule:nonzero;fill:rgb(0%,0%,0%);fill-opacity:1;" d="M 85.613281 249.179688 C 85.695312 248.78125 85.8125 248.445312 85.964844 248.179688 C 86.117188 247.921875 86.320312 247.671875 86.570312 247.429688 C 86.820312 247.179688 87.300781 246.773438 88.007812 246.203125 C 88.4375 245.859375 88.738281 245.597656 88.902344 245.429688 C 89.121094 245.195312 89.285156 244.96875 89.382812 244.742188 C 89.449219 244.59375 89.488281 244.425781 89.488281 244.242188 C 89.488281 243.941406 89.371094 243.679688 89.152344 243.472656 C 88.945312 243.253906 88.679688 243.140625 88.363281 243.140625 C 88.054688 243.140625 87.785156 243.253906 87.550781 243.472656 C 87.3125 243.679688 87.144531 244.03125 87.050781 244.515625 L 86.238281 244.390625 C 86.320312 243.796875 86.550781 243.328125 86.925781 242.992188 C 87.3125 242.648438 87.789062 242.472656 88.363281 242.472656 C 88.738281 242.472656 89.074219 242.554688 89.382812 242.722656 C 89.6875 242.878906 89.914062 243.097656 90.070312 243.390625 C 90.238281 243.671875 90.320312 243.960938 90.320312 244.265625 C 90.320312 244.710938 90.160156 245.132812 89.839844 245.535156 C 89.644531 245.800781 89.074219 246.304688 88.132812 247.054688 C 87.714844 247.378906 87.410156 247.640625 87.214844 247.847656 C 87.019531 248.054688 86.871094 248.253906 86.777344 248.429688 L 89.757812 248.429688 L 89.589844 249.179688 Z M 85.613281 249.179688 "/>
<path style="fill-rule:nonzero;fill:rgb(69.803923%,85.09804%,100%);fill-opacity:1;stroke-width:1;stroke-linecap:round;stroke-linejoin:round;stroke:rgb(0%,0%,0%);stroke-opacity:1;stroke-miterlimit:10;" d="M 205.3125 168.686523 C 211.561523 174.932617 211.561523 185.066406 205.3125 191.3125 C 199.066406 197.561523 188.932617 197.561523 182.686523 191.3125 C 176.4375 185.066406 176.4375 174.932617 182.686523 168.686523 C 188.932617 162.4375 199.066406 162.4375 205.3125 168.686523 " transform="matrix(1.333333,0,0,1.333333,-32,2.666667)"/>
<path style=" stroke:none;fill-rule:nonzero;fill:rgb(0%,0%,0%);fill-opacity:1;" d="M 221.320312 245.179688 L 220.675781 238.953125 L 221.695312 238.953125 L 221.96875 241.742188 L 222.09375 243.328125 C 222.09375 243.441406 222.097656 243.675781 222.113281 244.035156 C 222.238281 243.632812 222.332031 243.328125 222.40625 243.117188 C 222.488281 242.910156 222.617188 242.609375 222.800781 242.203125 L 224.300781 238.953125 L 225.445312 238.953125 L 225.65625 242.078125 C 225.679688 242.550781 225.703125 243.175781 225.71875 243.953125 C 225.910156 243.441406 226.222656 242.71875 226.65625 241.785156 L 228.007812 238.953125 L 229.050781 238.953125 L 226.03125 245.179688 L 224.925781 245.179688 L 224.675781 241.535156 C 224.660156 241.300781 224.65625 240.859375 224.65625 240.203125 C 224.488281 240.617188 224.289062 241.070312 224.070312 241.554688 L 222.425781 245.179688 Z M 221.320312 245.179688 "/>
<path style=" stroke:none;fill-rule:nonzero;fill:rgb(0%,0%,0%);fill-opacity:1;" d="M 231.195312 249.179688 L 231.550781 247.472656 L 228.820312 247.472656 L 229.007812 246.660156 L 232.738281 242.492188 L 233.425781 242.492188 L 232.53125 246.742188 L 233.46875 246.742188 L 233.320312 247.472656 L 232.382812 247.472656 L 232.007812 249.179688 Z M 231.695312 246.742188 L 232.28125 243.953125 L 229.800781 246.742188 Z M 231.695312 246.742188 "/>
<path style="fill-rule:nonzero;fill:rgb(69.803923%,85.09804%,100%);fill-opacity:1;stroke-width:1;stroke-linecap:round;stroke-linejoin:round;stroke:rgb(0%,0%,0%);stroke-opacity:1;stroke-miterlimit:10;" d="M 408.811523 168.686523 C 415.063477 174.932617 415.063477 185.066406 408.811523 191.3125 C 402.56543 197.561523 392.43457 197.561523 386.188477 191.3125 C 379.936523 185.066406 379.936523 174.932617 386.188477 168.686523 C 392.43457 162.4375 402.56543 162.4375 408.811523 168.686523 " transform="matrix(1.333333,0,0,1.333333,-32,2.666667)"/>
<path style=" stroke:none;fill-rule:nonzero;fill:rgb(0%,0%,0%);fill-opacity:1;" d="M 489.714844 245.179688 L 489.066406 238.953125 L 490.089844 238.953125 L 490.359375 241.742188 L 490.484375 243.328125 C 490.484375 243.441406 490.488281 243.675781 490.503906 244.035156 C 490.628906 243.632812 490.722656 243.328125 490.796875 243.117188 C 490.878906 242.910156 491.011719 242.609375 491.191406 242.203125 L 492.691406 238.953125 L 493.839844 238.953125 L 494.046875 242.078125 C 494.074219 242.550781 494.09375 243.175781 494.109375 243.953125 C 494.300781 243.441406 494.613281 242.71875 495.046875 241.785156 L 496.402344 238.953125 L 497.441406 238.953125 L 494.421875 245.179688 L 493.316406 245.179688 L 493.066406 241.535156 C 493.050781 241.300781 493.046875 240.859375 493.046875 240.203125 C 492.878906 240.617188 492.683594 241.070312 492.464844 241.554688 L 490.816406 245.179688 Z M 489.714844 245.179688 "/>
<path style=" stroke:none;fill-rule:nonzero;fill:rgb(0%,0%,0%);fill-opacity:1;" d="M 497.648438 251.140625 L 497.648438 242.390625 L 498.359375 242.390625 L 498.359375 251.140625 Z M 497.648438 251.140625 "/>
<path style=" stroke:none;fill-rule:nonzero;fill:rgb(0%,0%,0%);fill-opacity:1;" d="M 501.65625 249.179688 L 500.386719 242.492188 L 501.242188 242.492188 L 502.011719 246.472656 C 502.148438 247.210938 502.242188 247.796875 502.28125 248.222656 C 502.574219 247.65625 502.804688 247.203125 502.96875 246.867188 L 505.367188 242.492188 L 506.28125 242.492188 L 502.617188 249.179688 Z M 501.65625 249.179688 "/>
<path style=" stroke:none;fill-rule:nonzero;fill:rgb(0%,0%,0%);fill-opacity:1;" d="M 506.300781 251.140625 L 506.300781 242.390625 L 507.007812 242.390625 L 507.007812 251.140625 Z M 506.300781 251.140625 "/>
<path style="fill-rule:nonzero;fill:rgb(40.000001%,74.901962%,100%);fill-opacity:1;stroke-width:1;stroke-linecap:round;stroke-linejoin:round;stroke:rgb(0%,0%,0%);stroke-opacity:1;stroke-miterlimit:10;" d="M 233.8125 21.686523 C 240.061523 27.932617 240.061523 38.066406 233.8125 44.3125 C 227.566406 50.561523 217.432617 50.561523 211.186523 44.3125 C 204.9375 38.066406 204.9375 27.932617 211.186523 21.686523 C 217.432617 15.4375 227.566406 15.4375 233.8125 21.686523 " transform="matrix(1.333333,0,0,1.333333,-32,2.666667)"/>
<path style="fill-rule:nonzero;fill:rgb(40.000001%,74.901962%,100%);fill-opacity:1;stroke-width:1;stroke-linecap:round;stroke-linejoin:round;stroke:rgb(0%,0%,0%);stroke-opacity:1;stroke-miterlimit:10;" d="M 384.811523 116.186523 C 391.063477 122.432617 391.063477 132.566406 384.811523 138.8125 C 378.56543 145.061523 368.43457 145.061523 362.188477 138.8125 C 355.936523 132.566406 355.936523 122.432617 362.188477 116.186523 C 368.43457 109.9375 378.56543 109.9375 384.811523 116.186523 " transform="matrix(1.333333,0,0,1.333333,-32,2.666667)"/>
<path style="fill-rule:nonzero;fill:rgb(40.000001%,74.901962%,100%);fill-opacity:1;stroke-width:1;stroke-linecap:round;stroke-linejoin:round;stroke:rgb(0%,0%,0%);stroke-opacity:1;stroke-miterlimit:10;" d="M 331.813477 72.188477 C 338.0625 78.43457 338.0625 88.56543 331.813477 94.811523 C 325.567383 101.063477 315.433594 101.063477 309.1875 94.811523 C 302.938477 88.56543 302.938477 78.43457 309.1875 72.188477 C 315.433594 65.936523 325.567383 65.936523 331.813477 72.188477 " transform="matrix(1.333333,0,0,1.333333,-32,2.666667)"/>
<path style="fill:none;stroke-width:2;stroke-linecap:round;stroke-linejoin:round;stroke:rgb(0%,0%,0%);stroke-opacity:1;stroke-miterlimit:10;" d="M 131.920898 76.5625 L 208.078125 39.938477 " transform="matrix(1.333333,0,0,1.333333,-32,2.666667)"/>
<path style="fill:none;stroke-width:2;stroke-linecap:round;stroke-linejoin:round;stroke:rgb(0%,0%,0%);stroke-opacity:1;stroke-miterlimit:10;" d="M 129.811523 93.72168 L 158.188477 117.282227 " transform="matrix(1.333333,0,0,1.333333,-32,2.666667)"/>
<path style="fill:none;stroke-width:2;stroke-linecap:round;stroke-linejoin:round;stroke:rgb(0%,0%,0%);stroke-opacity:1;stroke-miterlimit:10;" d="M 164.194336 142.210938 L 154.303711 165.288086 " transform="matrix(1.333333,0,0,1.333333,-32,2.666667)"/>
<path style="fill:none;stroke-width:1;stroke-linecap:round;stroke-linejoin:round;stroke:rgb(0%,0%,0%);stroke-opacity:1;stroke-miterlimit:10;" d="M 236.727539 40.331055 L 306.272461 76.166992 " transform="matrix(1.333333,0,0,1.333333,-32,2.666667)"/>
<path style="fill:none;stroke-width:1;stroke-linecap:round;stroke-linejoin:round;stroke:rgb(0%,0%,0%);stroke-opacity:1;stroke-miterlimit:10;" d="M 332.8125 93.72168 L 361.186523 117.282227 " transform="matrix(1.333333,0,0,1.333333,-32,2.666667)"/>
<path style="fill:none;stroke-width:1;stroke-linecap:round;stroke-linejoin:round;stroke:rgb(0%,0%,0%);stroke-opacity:1;stroke-miterlimit:10;" d="M 380.15332 142.055664 L 390.84668 165.446289 " transform="matrix(1.333333,0,0,1.333333,-32,2.666667)"/>
<path style="fill:none;stroke-width:1;stroke-linecap:round;stroke-linejoin:round;stroke:rgb(0%,0%,0%);stroke-opacity:1;stroke-miterlimit:10;" d="M 105.140625 93.663086 L 76.359375 117.334961 " transform="matrix(1.333333,0,0,1.333333,-32,2.666667)"/>
<path style="fill:none;stroke-width:1;stroke-linecap:round;stroke-linejoin:round;stroke:rgb(0%,0%,0%);stroke-opacity:1;stroke-miterlimit:10;" d="M 57.577148 142.161133 L 47.422852 165.34082 " transform="matrix(1.333333,0,0,1.333333,-32,2.666667)"/>
<path style="fill:none;stroke-width:1;stroke-linecap:round;stroke-linejoin:round;stroke:rgb(0%,0%,0%);stroke-opacity:1;stroke-miterlimit:10;" d="M 70.303711 142.210938 L 80.194336 165.288086 " transform="matrix(1.333333,0,0,1.333333,-32,2.666667)"/>
<path style="fill:none;stroke-width:1;stroke-linecap:round;stroke-linejoin:round;stroke:rgb(0%,0%,0%);stroke-opacity:1;stroke-miterlimit:10;" d="M 177.038086 142.108398 L 187.461914 165.390625 " transform="matrix(1.333333,0,0,1.333333,-32,2.666667)"/>
<path style="fill:none;stroke-width:1;stroke-linecap:round;stroke-linejoin:round;stroke:rgb(0%,0%,0%);stroke-opacity:1;stroke-miterlimit:10;" d="M 308.296875 93.847656 L 279.492188 118.27832 " transform="matrix(1.333333,0,0,1.333333,-32,2.666667)"/>
<path style="fill:none;stroke-width:1;stroke-linecap:round;stroke-linejoin:round;stroke:rgb(0%,0%,0%);stroke-opacity:1;stroke-miterlimit:10;" d="M 367.464844 142.319336 L 357.500977 166.782227 " transform="matrix(1.333333,0,0,1.333333,-32,2.666667)"/>
<path style=" stroke:none;fill-rule:nonzero;fill:rgb(0%,0%,0%);fill-opacity:1;" d="M 355.1875 215.34375 L 355.1875 218.886719 L 358.75 218.886719 L 358.75 215.34375 Z M 344.542969 215.34375 L 344.542969 218.886719 L 348.082031 218.886719 L 348.082031 215.34375 Z M 333.875 215.34375 L 333.875 218.886719 L 337.4375 218.886719 L 337.4375 215.34375 Z M 333.875 215.34375 "/>
<path style=" stroke:none;fill-rule:nonzero;fill:rgb(0%,0%,0%);fill-opacity:1;" d="M 194.796875 17.847656 L 196.109375 11.617188 L 197.066406 11.617188 L 196.839844 12.703125 C 197.253906 12.285156 197.640625 11.984375 198.003906 11.785156 C 198.363281 11.59375 198.734375 11.492188 199.109375 11.492188 C 199.621094 11.492188 200.015625 11.632812 200.296875 11.910156 C 200.589844 12.175781 200.734375 12.535156 200.734375 12.992188 C 200.734375 13.21875 200.683594 13.578125 200.589844 14.078125 L 199.796875 17.847656 L 198.734375 17.847656 L 199.566406 13.910156 C 199.636719 13.523438 199.671875 13.238281 199.671875 13.054688 C 199.671875 12.847656 199.597656 12.679688 199.464844 12.554688 C 199.324219 12.421875 199.113281 12.347656 198.839844 12.347656 C 198.296875 12.347656 197.808594 12.550781 197.378906 12.953125 C 196.964844 13.34375 196.65625 14.007812 196.464844 14.953125 L 195.859375 17.847656 Z M 194.796875 17.847656 "/>
<path style=" stroke:none;fill-rule:nonzero;fill:rgb(0%,0%,0%);fill-opacity:1;" d="M 203.886719 20.367188 C 203.304688 19.628906 202.808594 18.773438 202.40625 17.804688 C 202 16.820312 201.804688 15.800781 201.804688 14.742188 C 201.804688 13.816406 201.953125 12.921875 202.261719 12.054688 C 202.605469 11.070312 203.148438 10.09375 203.886719 9.117188 L 204.636719 9.117188 C 204.164062 9.925781 203.851562 10.503906 203.699219 10.847656 C 203.460938 11.390625 203.273438 11.953125 203.136719 12.535156 C 202.96875 13.273438 202.886719 14.007812 202.886719 14.742188 C 202.886719 16.617188 203.46875 18.492188 204.636719 20.367188 Z M 203.886719 20.367188 "/>
<path style=" stroke:none;fill-rule:nonzero;fill:rgb(0%,0%,0%);fill-opacity:1;" d="M 206.65625 17.847656 L 206.007812 11.617188 L 207.03125 11.617188 L 207.300781 14.410156 L 207.425781 15.992188 C 207.425781 16.109375 207.429688 16.34375 207.445312 16.703125 C 207.570312 16.300781 207.664062 15.992188 207.738281 15.785156 C 207.820312 15.578125 207.949219 15.273438 208.132812 14.867188 L 209.632812 11.617188 L 210.78125 11.617188 L 210.988281 14.742188 C 211.011719 15.21875 211.035156 15.84375 211.050781 16.617188 C 211.242188 16.109375 211.554688 15.382812 211.988281 14.453125 L 213.34375 11.617188 L 214.382812 11.617188 L 211.363281 17.847656 L 210.257812 17.847656 L 210.007812 14.203125 C 209.992188 13.96875 209.988281 13.523438 209.988281 12.867188 C 209.820312 13.285156 209.621094 13.738281 209.40625 14.222656 L 207.757812 17.847656 Z M 206.65625 17.847656 "/>
<path style=" stroke:none;fill-rule:nonzero;fill:rgb(0%,0%,0%);fill-opacity:1;" d="M 214.257812 18.765625 L 215.050781 18.660156 C 215.101562 19.132812 215.238281 19.472656 215.445312 19.679688 C 215.652344 19.878906 215.929688 19.972656 216.277344 19.972656 C 216.679688 19.972656 217.027344 19.828125 217.320312 19.535156 C 217.621094 19.242188 217.777344 18.910156 217.777344 18.535156 C 217.777344 18.203125 217.664062 17.929688 217.445312 17.722656 C 217.222656 17.503906 216.925781 17.390625 216.550781 17.390625 C 216.507812 17.390625 216.414062 17.398438 216.277344 17.410156 L 216.425781 16.722656 C 216.507812 16.738281 216.582031 16.742188 216.652344 16.742188 C 217.121094 16.742188 217.488281 16.632812 217.738281 16.410156 C 217.988281 16.175781 218.113281 15.890625 218.113281 15.554688 C 218.113281 15.253906 218.007812 14.992188 217.800781 14.785156 C 217.589844 14.578125 217.339844 14.472656 217.050781 14.472656 C 216.742188 14.472656 216.472656 14.585938 216.238281 14.804688 C 215.996094 15.015625 215.851562 15.316406 215.800781 15.703125 L 214.988281 15.535156 C 215.113281 14.984375 215.363281 14.554688 215.738281 14.265625 C 216.121094 13.960938 216.574219 13.804688 217.089844 13.804688 C 217.644531 13.804688 218.089844 13.972656 218.425781 14.304688 C 218.769531 14.640625 218.945312 15.046875 218.945312 15.515625 C 218.945312 15.878906 218.847656 16.191406 218.652344 16.453125 C 218.472656 16.71875 218.199219 16.929688 217.839844 17.097656 C 218.089844 17.253906 218.277344 17.441406 218.402344 17.660156 C 218.539062 17.882812 218.613281 18.132812 218.613281 18.410156 C 218.613281 19.007812 218.386719 19.53125 217.945312 19.972656 C 217.496094 20.40625 216.964844 20.617188 216.339844 20.617188 C 215.726562 20.617188 215.238281 20.453125 214.863281 20.117188 C 214.496094 19.785156 214.300781 19.335938 214.257812 18.765625 Z M 214.257812 18.765625 "/>
<path style=" stroke:none;fill-rule:nonzero;fill:rgb(0%,0%,0%);fill-opacity:1;" d="M 219.992188 17.847656 L 219.992188 16.640625 L 221.199219 16.640625 L 221.199219 17.847656 C 221.199219 18.289062 221.117188 18.644531 220.949219 18.910156 C 220.792969 19.1875 220.554688 19.398438 220.21875 19.554688 L 219.929688 19.097656 C 220.144531 19 220.308594 18.851562 220.40625 18.660156 C 220.515625 18.476562 220.578125 18.207031 220.59375 17.847656 Z M 219.992188 17.847656 "/>
<path style=" stroke:none;fill-rule:nonzero;fill:rgb(0%,0%,0%);fill-opacity:1;" d="M 230.074219 17.847656 L 229.011719 17.847656 L 229.011719 11.117188 C 228.761719 11.367188 228.429688 11.617188 228.011719 11.867188 C 227.59375 12.109375 227.226562 12.28125 226.90625 12.390625 L 226.90625 11.367188 C 227.492188 11.109375 228 10.78125 228.449219 10.390625 C 228.890625 9.988281 229.203125 9.597656 229.386719 9.222656 L 230.074219 9.222656 Z M 230.074219 17.847656 "/>
<path style=" stroke:none;fill-rule:nonzero;fill:rgb(0%,0%,0%);fill-opacity:1;" d="M 233.742188 20.367188 L 232.992188 20.367188 C 234.160156 18.492188 234.742188 16.617188 234.742188 14.742188 C 234.742188 14.007812 234.660156 13.28125 234.492188 12.554688 C 234.351562 11.972656 234.164062 11.410156 233.929688 10.867188 C 233.773438 10.523438 233.460938 9.941406 232.992188 9.117188 L 233.742188 9.117188 C 234.476562 10.09375 235.019531 11.070312 235.367188 12.054688 C 235.671875 12.921875 235.828125 13.816406 235.828125 14.742188 C 235.828125 15.800781 235.625 16.820312 235.222656 17.804688 C 234.816406 18.773438 234.328125 19.628906 233.742188 20.367188 Z M 233.742188 20.367188 "/>
<path style=" stroke:none;fill-rule:nonzero;fill:rgb(0%,0%,0%);fill-opacity:1;" d="M 62.796875 83.847656 L 64.109375 77.617188 L 65.066406 77.617188 L 64.839844 78.703125 C 65.253906 78.285156 65.640625 77.984375 66.003906 77.785156 C 66.363281 77.59375 66.734375 77.492188 67.109375 77.492188 C 67.621094 77.492188 68.015625 77.632812 68.296875 77.910156 C 68.589844 78.175781 68.734375 78.535156 68.734375 78.992188 C 68.734375 79.21875 68.683594 79.578125 68.589844 80.078125 L 67.796875 83.847656 L 66.734375 83.847656 L 67.566406 79.910156 C 67.636719 79.523438 67.671875 79.238281 67.671875 79.054688 C 67.671875 78.847656 67.597656 78.679688 67.464844 78.554688 C 67.324219 78.421875 67.113281 78.347656 66.839844 78.347656 C 66.296875 78.347656 65.808594 78.550781 65.378906 78.953125 C 64.964844 79.34375 64.65625 80.007812 64.464844 80.953125 L 63.859375 83.847656 Z M 62.796875 83.847656 "/>
<path style=" stroke:none;fill-rule:nonzero;fill:rgb(0%,0%,0%);fill-opacity:1;" d="M 71.886719 86.367188 C 71.304688 85.628906 70.808594 84.773438 70.40625 83.804688 C 70 82.820312 69.804688 81.800781 69.804688 80.742188 C 69.804688 79.816406 69.953125 78.921875 70.261719 78.054688 C 70.605469 77.070312 71.148438 76.09375 71.886719 75.117188 L 72.636719 75.117188 C 72.164062 75.925781 71.851562 76.503906 71.699219 76.847656 C 71.460938 77.390625 71.273438 77.953125 71.136719 78.535156 C 70.96875 79.273438 70.886719 80.007812 70.886719 80.742188 C 70.886719 82.617188 71.46875 84.492188 72.636719 86.367188 Z M 71.886719 86.367188 "/>
<path style=" stroke:none;fill-rule:nonzero;fill:rgb(0%,0%,0%);fill-opacity:1;" d="M 74.652344 83.847656 L 74.007812 77.617188 L 75.027344 77.617188 L 75.300781 80.410156 L 75.425781 81.992188 C 75.425781 82.109375 75.429688 82.34375 75.445312 82.703125 C 75.570312 82.300781 75.664062 81.992188 75.738281 81.785156 C 75.820312 81.578125 75.949219 81.273438 76.132812 80.867188 L 77.632812 77.617188 L 78.777344 77.617188 L 78.988281 80.742188 C 79.011719 81.21875 79.035156 81.84375 79.050781 82.617188 C 79.242188 82.109375 79.554688 81.382812 79.988281 80.453125 L 81.339844 77.617188 L 82.382812 77.617188 L 79.363281 83.847656 L 78.257812 83.847656 L 78.007812 80.203125 C 77.992188 79.96875 77.988281 79.523438 77.988281 78.867188 C 77.820312 79.285156 77.621094 79.738281 77.402344 80.222656 L 75.757812 83.847656 Z M 74.652344 83.847656 "/>
<path style=" stroke:none;fill-rule:nonzero;fill:rgb(0%,0%,0%);fill-opacity:1;" d="M 82.257812 84.765625 L 83.050781 84.660156 C 83.101562 85.132812 83.238281 85.472656 83.445312 85.679688 C 83.652344 85.878906 83.929688 85.972656 84.277344 85.972656 C 84.679688 85.972656 85.027344 85.828125 85.320312 85.535156 C 85.621094 85.242188 85.777344 84.910156 85.777344 84.535156 C 85.777344 84.203125 85.664062 83.929688 85.445312 83.722656 C 85.222656 83.503906 84.925781 83.390625 84.550781 83.390625 C 84.507812 83.390625 84.414062 83.398438 84.277344 83.410156 L 84.425781 82.722656 C 84.507812 82.738281 84.582031 82.742188 84.652344 82.742188 C 85.121094 82.742188 85.488281 82.632812 85.738281 82.410156 C 85.988281 82.175781 86.113281 81.890625 86.113281 81.554688 C 86.113281 81.253906 86.007812 80.992188 85.800781 80.785156 C 85.589844 80.578125 85.339844 80.472656 85.050781 80.472656 C 84.742188 80.472656 84.472656 80.585938 84.238281 80.804688 C 83.996094 81.015625 83.851562 81.316406 83.800781 81.703125 L 82.988281 81.535156 C 83.113281 80.984375 83.363281 80.554688 83.738281 80.265625 C 84.121094 79.960938 84.574219 79.804688 85.089844 79.804688 C 85.644531 79.804688 86.089844 79.972656 86.425781 80.304688 C 86.769531 80.640625 86.945312 81.046875 86.945312 81.515625 C 86.945312 81.878906 86.847656 82.191406 86.652344 82.453125 C 86.472656 82.71875 86.199219 82.929688 85.839844 83.097656 C 86.089844 83.253906 86.277344 83.441406 86.402344 83.660156 C 86.539062 83.882812 86.613281 84.132812 86.613281 84.410156 C 86.613281 85.007812 86.386719 85.53125 85.945312 85.972656 C 85.496094 86.40625 84.964844 86.617188 84.339844 86.617188 C 83.726562 86.617188 83.238281 86.453125 82.863281 86.117188 C 82.496094 85.785156 82.300781 85.335938 82.257812 84.765625 Z M 82.257812 84.765625 "/>
<path style=" stroke:none;fill-rule:nonzero;fill:rgb(0%,0%,0%);fill-opacity:1;" d="M 87.992188 83.847656 L 87.992188 82.640625 L 89.199219 82.640625 L 89.199219 83.847656 C 89.199219 84.289062 89.117188 84.644531 88.949219 84.910156 C 88.792969 85.1875 88.554688 85.398438 88.21875 85.554688 L 87.929688 85.097656 C 88.144531 85 88.308594 84.851562 88.40625 84.660156 C 88.515625 84.476562 88.578125 84.207031 88.59375 83.847656 Z M 87.992188 83.847656 "/>
<path style=" stroke:none;fill-rule:nonzero;fill:rgb(0%,0%,0%);fill-opacity:1;" d="M 99.636719 82.828125 L 99.636719 83.847656 L 93.949219 83.847656 C 93.949219 83.597656 93.992188 83.359375 94.074219 83.117188 C 94.226562 82.734375 94.460938 82.347656 94.78125 81.972656 C 95.101562 81.597656 95.558594 81.171875 96.15625 80.679688 C 97.085938 79.90625 97.710938 79.296875 98.03125 78.847656 C 98.367188 78.40625 98.53125 77.984375 98.53125 77.578125 C 98.53125 77.160156 98.375 76.816406 98.074219 76.535156 C 97.78125 76.242188 97.398438 76.097656 96.929688 76.097656 C 96.414062 76.097656 96 76.253906 95.699219 76.554688 C 95.390625 76.863281 95.242188 77.285156 95.242188 77.828125 L 94.15625 77.703125 C 94.226562 76.898438 94.5 76.285156 94.992188 75.867188 C 95.476562 75.441406 96.125 75.222656 96.949219 75.222656 C 97.765625 75.222656 98.414062 75.453125 98.886719 75.910156 C 99.371094 76.367188 99.617188 76.929688 99.617188 77.597656 C 99.617188 77.945312 99.542969 78.285156 99.40625 78.617188 C 99.265625 78.953125 99.03125 79.304688 98.699219 79.679688 C 98.375 80.046875 97.84375 80.546875 97.09375 81.179688 C 96.453125 81.710938 96.042969 82.070312 95.867188 82.265625 C 95.683594 82.460938 95.539062 82.648438 95.429688 82.828125 Z M 99.636719 82.828125 "/>
<path style=" stroke:none;fill-rule:nonzero;fill:rgb(0%,0%,0%);fill-opacity:1;" d="M 101.742188 86.367188 L 100.992188 86.367188 C 102.160156 84.492188 102.742188 82.617188 102.742188 80.742188 C 102.742188 80.007812 102.660156 79.28125 102.492188 78.554688 C 102.351562 77.972656 102.164062 77.410156 101.929688 76.867188 C 101.773438 76.523438 101.460938 75.941406 100.992188 75.117188 L 101.742188 75.117188 C 102.476562 76.09375 103.019531 77.070312 103.367188 78.054688 C 103.671875 78.921875 103.828125 79.816406 103.828125 80.742188 C 103.828125 81.800781 103.625 82.820312 103.222656 83.804688 C 102.816406 84.773438 102.328125 85.628906 101.742188 86.367188 Z M 101.742188 86.367188 "/>
<path style=" stroke:none;fill-rule:nonzero;fill:rgb(0%,0%,0%);fill-opacity:1;" d="M 212.796875 144.515625 L 214.109375 138.285156 L 215.066406 138.285156 L 214.839844 139.367188 C 215.253906 138.953125 215.640625 138.648438 216.003906 138.453125 C 216.363281 138.257812 216.734375 138.160156 217.109375 138.160156 C 217.621094 138.160156 218.015625 138.300781 218.296875 138.578125 C 218.589844 138.84375 218.734375 139.203125 218.734375 139.660156 C 218.734375 139.882812 218.683594 140.242188 218.589844 140.742188 L 217.796875 144.515625 L 216.734375 144.515625 L 217.566406 140.578125 C 217.636719 140.191406 217.671875 139.90625 217.671875 139.722656 C 217.671875 139.515625 217.597656 139.347656 217.464844 139.222656 C 217.324219 139.085938 217.113281 139.015625 216.839844 139.015625 C 216.296875 139.015625 215.808594 139.21875 215.378906 139.617188 C 214.964844 140.007812 214.65625 140.675781 214.464844 141.617188 L 213.859375 144.515625 Z M 212.796875 144.515625 "/>
<path style=" stroke:none;fill-rule:nonzero;fill:rgb(0%,0%,0%);fill-opacity:1;" d="M 221.886719 147.035156 C 221.304688 146.296875 220.808594 145.441406 220.40625 144.472656 C 220 143.488281 219.804688 142.46875 219.804688 141.410156 C 219.804688 140.484375 219.953125 139.585938 220.261719 138.722656 C 220.605469 137.738281 221.148438 136.757812 221.886719 135.785156 L 222.636719 135.785156 C 222.164062 136.59375 221.851562 137.171875 221.699219 137.515625 C 221.460938 138.054688 221.273438 138.617188 221.136719 139.203125 C 220.96875 139.941406 220.886719 140.675781 220.886719 141.410156 C 220.886719 143.285156 221.46875 145.160156 222.636719 147.035156 Z M 221.886719 147.035156 "/>
<path style=" stroke:none;fill-rule:nonzero;fill:rgb(0%,0%,0%);fill-opacity:1;" d="M 224.65625 144.515625 L 224.007812 138.285156 L 225.03125 138.285156 L 225.300781 141.078125 L 225.425781 142.660156 C 225.425781 142.773438 225.429688 143.007812 225.445312 143.367188 C 225.570312 142.96875 225.664062 142.660156 225.738281 142.453125 C 225.820312 142.242188 225.949219 141.941406 226.132812 141.535156 L 227.632812 138.285156 L 228.78125 138.285156 L 228.988281 141.410156 C 229.011719 141.882812 229.035156 142.507812 229.050781 143.285156 C 229.242188 142.773438 229.554688 142.050781 229.988281 141.117188 L 231.34375 138.285156 L 232.382812 138.285156 L 229.363281 144.515625 L 228.257812 144.515625 L 228.007812 140.867188 C 227.992188 140.632812 227.988281 140.191406 227.988281 139.535156 C 227.820312 139.953125 227.621094 140.40625 227.40625 140.890625 L 225.757812 144.515625 Z M 224.65625 144.515625 "/>
<path style=" stroke:none;fill-rule:nonzero;fill:rgb(0%,0%,0%);fill-opacity:1;" d="M 232.257812 145.429688 L 233.050781 145.328125 C 233.101562 145.800781 233.238281 146.140625 233.445312 146.347656 C 233.652344 146.546875 233.929688 146.640625 234.277344 146.640625 C 234.679688 146.640625 235.027344 146.492188 235.320312 146.203125 C 235.621094 145.910156 235.777344 145.578125 235.777344 145.203125 C 235.777344 144.867188 235.664062 144.597656 235.445312 144.390625 C 235.222656 144.171875 234.925781 144.054688 234.550781 144.054688 C 234.507812 144.054688 234.414062 144.066406 234.277344 144.078125 L 234.425781 143.390625 C 234.507812 143.40625 234.582031 143.410156 234.652344 143.410156 C 235.121094 143.410156 235.488281 143.300781 235.738281 143.078125 C 235.988281 142.84375 236.113281 142.554688 236.113281 142.222656 C 236.113281 141.921875 236.007812 141.660156 235.800781 141.453125 C 235.589844 141.242188 235.339844 141.140625 235.050781 141.140625 C 234.742188 141.140625 234.472656 141.253906 234.238281 141.472656 C 233.996094 141.679688 233.851562 141.984375 233.800781 142.367188 L 232.988281 142.203125 C 233.113281 141.648438 233.363281 141.222656 233.738281 140.929688 C 234.121094 140.628906 234.574219 140.472656 235.089844 140.472656 C 235.644531 140.472656 236.089844 140.640625 236.425781 140.972656 C 236.769531 141.304688 236.945312 141.710938 236.945312 142.179688 C 236.945312 142.546875 236.847656 142.859375 236.652344 143.117188 C 236.472656 143.382812 236.199219 143.597656 235.839844 143.765625 C 236.089844 143.921875 236.277344 144.109375 236.402344 144.328125 C 236.539062 144.550781 236.613281 144.800781 236.613281 145.078125 C 236.613281 145.675781 236.386719 146.195312 235.945312 146.640625 C 235.496094 147.070312 234.964844 147.285156 234.339844 147.285156 C 233.726562 147.285156 233.238281 147.117188 232.863281 146.785156 C 232.496094 146.453125 232.300781 146.003906 232.257812 145.429688 Z M 232.257812 145.429688 "/>
<path style=" stroke:none;fill-rule:nonzero;fill:rgb(0%,0%,0%);fill-opacity:1;" d="M 237.992188 144.515625 L 237.992188 143.304688 L 239.199219 143.304688 L 239.199219 144.515625 C 239.199219 144.957031 239.117188 145.3125 238.949219 145.578125 C 238.792969 145.851562 238.554688 146.066406 238.21875 146.222656 L 237.929688 145.765625 C 238.144531 145.664062 238.308594 145.519531 238.40625 145.328125 C 238.515625 145.144531 238.578125 144.875 238.59375 144.515625 Z M 237.992188 144.515625 "/>
<path style=" stroke:none;fill-rule:nonzero;fill:rgb(0%,0%,0%);fill-opacity:1;" d="M 244.09375 142.242188 L 245.15625 142.097656 C 245.28125 142.695312 245.480469 143.128906 245.761719 143.390625 C 246.054688 143.65625 246.414062 143.785156 246.84375 143.785156 C 247.328125 143.785156 247.742188 143.617188 248.074219 143.285156 C 248.417969 142.941406 248.59375 142.507812 248.59375 141.992188 C 248.59375 141.507812 248.433594 141.113281 248.117188 140.804688 C 247.808594 140.488281 247.414062 140.328125 246.929688 140.328125 C 246.71875 140.328125 246.46875 140.367188 246.179688 140.453125 L 246.304688 139.515625 C 246.371094 139.53125 246.429688 139.535156 246.46875 139.535156 C 246.914062 139.535156 247.3125 139.421875 247.679688 139.179688 C 248.039062 138.945312 248.21875 138.585938 248.21875 138.097656 C 248.21875 137.710938 248.085938 137.390625 247.824219 137.140625 C 247.558594 136.890625 247.21875 136.765625 246.804688 136.765625 C 246.398438 136.765625 246.058594 136.898438 245.78125 137.160156 C 245.515625 137.410156 245.34375 137.796875 245.261719 138.304688 L 244.199219 138.117188 C 244.335938 137.410156 244.625 136.863281 245.074219 136.472656 C 245.53125 136.085938 246.101562 135.890625 246.78125 135.890625 C 247.25 135.890625 247.683594 135.992188 248.074219 136.203125 C 248.476562 136.398438 248.78125 136.671875 248.992188 137.015625 C 249.199219 137.363281 249.304688 137.734375 249.304688 138.117188 C 249.304688 138.492188 249.199219 138.835938 248.992188 139.140625 C 248.792969 139.445312 248.5 139.691406 248.117188 139.867188 C 248.625 139.984375 249.023438 140.222656 249.304688 140.597656 C 249.578125 140.960938 249.71875 141.421875 249.71875 141.972656 C 249.71875 142.722656 249.4375 143.363281 248.886719 143.890625 C 248.34375 144.40625 247.65625 144.660156 246.824219 144.660156 C 246.074219 144.660156 245.449219 144.441406 244.949219 143.992188 C 244.449219 143.550781 244.164062 142.96875 244.09375 142.242188 Z M 244.09375 142.242188 "/>
<path style=" stroke:none;fill-rule:nonzero;fill:rgb(0%,0%,0%);fill-opacity:1;" d="M 251.742188 147.035156 L 250.992188 147.035156 C 252.160156 145.160156 252.742188 143.285156 252.742188 141.410156 C 252.742188 140.675781 252.660156 139.945312 252.492188 139.222656 C 252.351562 138.640625 252.164062 138.078125 251.929688 137.535156 C 251.773438 137.191406 251.460938 136.609375 250.992188 135.785156 L 251.742188 135.785156 C 252.476562 136.757812 253.019531 137.738281 253.367188 138.722656 C 253.671875 139.585938 253.828125 140.484375 253.828125 141.410156 C 253.828125 142.46875 253.625 143.488281 253.222656 144.472656 C 252.816406 145.441406 252.328125 146.296875 251.742188 147.035156 Z M 251.742188 147.035156 "/>
</g>
</svg>
