<?xml version="1.0" encoding="UTF-8"?>
<svg xmlns="http://www.w3.org/2000/svg" xmlns:xlink="http://www.w3.org/1999/xlink" width="237.333333" height="156" viewBox="0 0 237.333333 156" version="1.1">
<g id="surface1">
<path style=" stroke:none;fill-rule:nonzero;fill:rgb(0%,0%,0%);fill-opacity:1;" d="M 105.429688 145.332031 L 105.429688 136.75 L 106.472656 136.75 L 106.472656 145.332031 Z M 105.429688 145.332031 "/>
<path style=" stroke:none;fill-rule:nonzero;fill:rgb(0%,0%,0%);fill-opacity:1;" d="M 107.722656 142.230469 C 107.722656 141.078125 108.039062 140.222656 108.679688 139.667969 C 109.222656 139.207031 109.875 138.980469 110.640625 138.980469 C 111.5 138.980469 112.203125 139.261719 112.742188 139.8125 C 113.285156 140.371094 113.554688 141.140625 113.554688 142.125 C 113.554688 142.933594 113.429688 143.5625 113.179688 144.019531 C 112.941406 144.480469 112.597656 144.84375 112.140625 145.105469 C 111.679688 145.355469 111.179688 145.480469 110.640625 145.480469 C 109.765625 145.480469 109.054688 145.203125 108.515625 144.644531 C 107.984375 144.078125 107.722656 143.269531 107.722656 142.230469 Z M 108.804688 142.230469 C 108.804688 143.019531 108.976562 143.621094 109.328125 144.019531 C 109.671875 144.410156 110.109375 144.605469 110.640625 144.605469 C 111.164062 144.605469 111.601562 144.410156 111.953125 144.019531 C 112.296875 143.621094 112.472656 143.011719 112.472656 142.1875 C 112.472656 141.425781 112.296875 140.84375 111.953125 140.4375 C 111.601562 140.035156 111.164062 139.832031 110.640625 139.832031 C 110.109375 139.832031 109.671875 140.035156 109.328125 140.4375 C 108.976562 140.828125 108.804688 141.425781 108.804688 142.230469 Z M 108.804688 142.230469 "/>
<path style=" stroke:none;fill-rule:nonzero;fill:rgb(0%,0%,0%);fill-opacity:1;" d="M 116.523438 145.332031 L 114.148438 139.105469 L 115.273438 139.105469 L 116.605469 142.832031 C 116.742188 143.238281 116.875 143.65625 117 144.082031 C 117.09375 143.765625 117.230469 143.375 117.398438 142.917969 L 118.773438 139.105469 L 119.855469 139.105469 L 117.5 145.332031 Z M 116.523438 145.332031 "/>
<path style=" stroke:none;fill-rule:nonzero;fill:rgb(0%,0%,0%);fill-opacity:1;" d="M 125.042969 143.332031 L 126.148438 143.457031 C 125.964844 144.097656 125.636719 144.597656 125.167969 144.957031 C 124.710938 145.308594 124.117188 145.480469 123.398438 145.480469 C 122.492188 145.480469 121.773438 145.203125 121.230469 144.644531 C 120.699219 144.078125 120.4375 143.285156 120.4375 142.269531 C 120.4375 141.230469 120.710938 140.425781 121.25 139.855469 C 121.792969 139.269531 122.492188 138.980469 123.355469 138.980469 C 124.1875 138.980469 124.859375 139.265625 125.375 139.832031 C 125.902344 140.390625 126.167969 141.183594 126.167969 142.207031 C 126.167969 142.28125 126.167969 142.375 126.167969 142.5 L 121.523438 142.5 C 121.5625 143.183594 121.757812 143.703125 122.105469 144.0625 C 122.449219 144.425781 122.886719 144.605469 123.417969 144.605469 C 123.804688 144.605469 124.132812 144.511719 124.398438 144.3125 C 124.671875 144.105469 124.886719 143.78125 125.042969 143.332031 Z M 121.585938 141.625 L 125.0625 141.625 C 125.023438 141.097656 124.886719 140.703125 124.667969 140.4375 C 124.335938 140.035156 123.898438 139.832031 123.355469 139.832031 C 122.867188 139.832031 122.460938 140 122.125 140.332031 C 121.804688 140.65625 121.625 141.082031 121.585938 141.625 Z M 121.585938 141.625 "/>
<path style=" stroke:none;fill-rule:nonzero;fill:rgb(0%,0%,0%);fill-opacity:1;" d="M 127.050781 143.480469 L 128.089844 143.3125 C 128.144531 143.730469 128.304688 144.050781 128.570312 144.269531 C 128.847656 144.496094 129.222656 144.605469 129.695312 144.605469 C 130.179688 144.605469 130.539062 144.511719 130.777344 144.3125 C 131.011719 144.121094 131.132812 143.890625 131.132812 143.625 C 131.132812 143.375 131.027344 143.1875 130.820312 143.0625 C 130.664062 142.96875 130.304688 142.84375 129.738281 142.6875 C 128.957031 142.496094 128.414062 142.328125 128.113281 142.1875 C 127.820312 142.050781 127.597656 141.855469 127.445312 141.605469 C 127.289062 141.355469 127.214844 141.078125 127.214844 140.769531 C 127.214844 140.496094 127.277344 140.238281 127.402344 140 C 127.527344 139.765625 127.699219 139.5625 127.925781 139.394531 C 128.089844 139.285156 128.308594 139.1875 128.589844 139.105469 C 128.882812 139.019531 129.183594 138.980469 129.507812 138.980469 C 129.992188 138.980469 130.414062 139.050781 130.777344 139.1875 C 131.152344 139.328125 131.429688 139.515625 131.613281 139.75 C 131.789062 139.988281 131.914062 140.308594 131.988281 140.707031 L 130.945312 140.855469 C 130.902344 140.535156 130.761719 140.285156 130.527344 140.105469 C 130.304688 139.925781 129.992188 139.832031 129.589844 139.832031 C 129.101562 139.832031 128.757812 139.917969 128.550781 140.082031 C 128.339844 140.238281 128.238281 140.425781 128.238281 140.644531 C 128.238281 140.785156 128.277344 140.90625 128.363281 141 C 128.445312 141.125 128.582031 141.222656 128.777344 141.292969 C 128.871094 141.332031 129.179688 141.425781 129.695312 141.5625 C 130.445312 141.761719 130.964844 141.917969 131.257812 142.042969 C 131.558594 142.167969 131.800781 142.355469 131.964844 142.605469 C 132.132812 142.84375 132.214844 143.140625 132.214844 143.5 C 132.214844 143.863281 132.113281 144.199219 131.902344 144.5 C 131.695312 144.808594 131.394531 145.050781 131.007812 145.230469 C 130.632812 145.394531 130.195312 145.480469 129.695312 145.480469 C 128.886719 145.480469 128.269531 145.3125 127.839844 144.980469 C 127.425781 144.636719 127.160156 144.136719 127.050781 143.480469 Z M 127.050781 143.480469 "/>
<path style="fill-rule:nonzero;fill:rgb(40.000001%,74.901962%,100%);fill-opacity:1;stroke-width:1;stroke-linecap:round;stroke-linejoin:round;stroke:rgb(0%,0%,0%);stroke-opacity:1;stroke-miterlimit:10;" d="M 472.485352 639.516602 C 477.172852 644.198242 477.172852 651.800781 472.485352 656.485352 C 467.800781 661.172852 460.198242 661.172852 455.516602 656.485352 C 450.829102 651.800781 450.829102 644.198242 455.516602 639.516602 C 460.198242 634.829102 467.800781 634.829102 472.485352 639.516602 " transform="matrix(1.333333,0,0,1.333333,-500,-757.333333)"/>
<path style="fill-rule:nonzero;fill:rgb(69.803923%,85.09804%,100%);fill-opacity:1;stroke-width:1;stroke-linecap:round;stroke-linejoin:round;stroke:rgb(0%,0%,0%);stroke-opacity:1;stroke-miterlimit:10;" d="M 440.484375 595.515625 C 445.171875 600.200195 445.171875 607.799805 440.484375 612.484375 C 435.799805 617.171875 428.200195 617.171875 423.515625 612.484375 C 418.828125 607.799805 418.828125 600.200195 423.515625 595.515625 C 428.200195 590.828125 435.799805 590.828125 440.484375 595.515625 " transform="matrix(1.333333,0,0,1.333333,-500,-757.333333)"/>
<path style="fill-rule:nonzero;fill:rgb(69.803923%,85.09804%,100%);fill-opacity:1;stroke-width:1;stroke-linecap:round;stroke-linejoin:round;stroke:rgb(0%,0%,0%);stroke-opacity:1;stroke-miterlimit:10;" d="M 396.483398 595.515625 C 401.170898 600.200195 401.170898 607.799805 396.483398 612.484375 C 391.801758 617.171875 384.199219 617.171875 379.514648 612.484375 C 374.827148 607.799805 374.827148 600.200195 379.514648 595.515625 C 384.199219 590.828125 391.801758 590.828125 396.483398 595.515625 " transform="matrix(1.333333,0,0,1.333333,-500,-757.333333)"/>
<path style="fill-rule:nonzero;fill:rgb(69.803923%,85.09804%,100%);fill-opacity:1;stroke-width:1;stroke-linecap:round;stroke-linejoin:round;stroke:rgb(0%,0%,0%);stroke-opacity:1;stroke-miterlimit:10;" d="M 504.483398 595.515625 C 509.170898 600.200195 509.170898 607.799805 504.483398 612.484375 C 499.801758 617.171875 492.199219 617.171875 487.514648 612.484375 C 482.827148 607.799805 482.827148 600.200195 487.514648 595.515625 C 492.199219 590.828125 499.801758 590.828125 504.483398 595.515625 " transform="matrix(1.333333,0,0,1.333333,-500,-757.333333)"/>
<path style="fill-rule:nonzero;fill:rgb(69.803923%,85.09804%,100%);fill-opacity:1;stroke-width:1;stroke-linecap:round;stroke-linejoin:round;stroke:rgb(0%,0%,0%);stroke-opacity:1;stroke-miterlimit:10;" d="M 548.484375 595.515625 C 553.171875 600.200195 553.171875 607.799805 548.484375 612.484375 C 543.799805 617.171875 536.200195 617.171875 531.515625 612.484375 C 526.828125 607.799805 526.828125 600.200195 531.515625 595.515625 C 536.200195 590.828125 543.799805 590.828125 548.484375 595.515625 " transform="matrix(1.333333,0,0,1.333333,-500,-757.333333)"/>
<path style="fill:none;stroke-width:1;stroke-linecap:round;stroke-linejoin:round;stroke:rgb(0%,0%,0%);stroke-opacity:1;stroke-miterlimit:10;" d="M 456.94043 638.291992 L 442.532227 618.475586 " transform="matrix(1.333333,0,0,1.333333,-500,-757.333333)"/>
<path style="fill:none;stroke-width:1;stroke-linecap:butt;stroke-linejoin:miter;stroke:rgb(0%,0%,0%);stroke-opacity:1;stroke-miterlimit:10;" d="M 440.176758 615.241211 L 442.532227 618.475586 M 441.316406 619.360352 L 440.176758 615.241211 L 443.742188 617.59375 " transform="matrix(1.333333,0,0,1.333333,-500,-757.333333)"/>
<path style="fill:none;stroke-width:1;stroke-linecap:round;stroke-linejoin:round;stroke:rgb(0%,0%,0%);stroke-opacity:1;stroke-miterlimit:10;" d="M 453.612305 641.983398 L 403.491211 612.967773 " transform="matrix(1.333333,0,0,1.333333,-500,-757.333333)"/>
<path style="fill:none;stroke-width:1;stroke-linecap:butt;stroke-linejoin:miter;stroke:rgb(0%,0%,0%);stroke-opacity:1;stroke-miterlimit:10;" d="M 400.03125 610.963867 L 403.491211 612.967773 M 402.741211 614.268555 L 400.03125 610.963867 L 404.24707 611.672852 " transform="matrix(1.333333,0,0,1.333333,-500,-757.333333)"/>
<path style="fill:none;stroke-width:1;stroke-linecap:round;stroke-linejoin:round;stroke:rgb(0%,0%,0%);stroke-opacity:1;stroke-miterlimit:10;" d="M 471.058594 638.291992 L 485.469727 618.475586 " transform="matrix(1.333333,0,0,1.333333,-500,-757.333333)"/>
<path style="fill:none;stroke-width:1;stroke-linecap:butt;stroke-linejoin:miter;stroke:rgb(0%,0%,0%);stroke-opacity:1;stroke-miterlimit:10;" d="M 487.825195 615.241211 L 485.469727 618.475586 M 484.256836 617.59375 L 487.825195 615.241211 L 486.682617 619.360352 " transform="matrix(1.333333,0,0,1.333333,-500,-757.333333)"/>
<path style="fill:none;stroke-width:1;stroke-linecap:round;stroke-linejoin:round;stroke:rgb(0%,0%,0%);stroke-opacity:1;stroke-miterlimit:10;" d="M 474.386719 641.983398 L 524.507812 612.967773 " transform="matrix(1.333333,0,0,1.333333,-500,-757.333333)"/>
<path style="fill:none;stroke-width:1;stroke-linecap:butt;stroke-linejoin:miter;stroke:rgb(0%,0%,0%);stroke-opacity:1;stroke-miterlimit:10;" d="M 527.967773 610.963867 L 524.507812 612.967773 M 523.754883 611.672852 L 527.967773 610.963867 L 525.257812 614.268555 " transform="matrix(1.333333,0,0,1.333333,-500,-757.333333)"/>
<path style=" stroke:none;fill-rule:nonzero;fill:rgb(0%,0%,0%);fill-opacity:1;" d="M 11.429688 16.394531 L 11.574219 17.3125 C 11.269531 17.378906 11.003906 17.417969 10.785156 17.417969 C 10.394531 17.417969 10.097656 17.355469 9.886719 17.230469 C 9.679688 17.105469 9.523438 16.949219 9.429688 16.75 C 9.347656 16.558594 9.304688 16.144531 9.304688 15.519531 L 9.304688 11.9375 L 8.535156 11.9375 L 8.535156 11.105469 L 9.304688 11.105469 L 9.304688 9.5625 L 10.367188 8.9375 L 10.367188 11.105469 L 11.429688 11.105469 L 11.429688 11.9375 L 10.367188 11.9375 L 10.367188 15.5625 C 10.367188 15.871094 10.378906 16.0625 10.410156 16.144531 C 10.449219 16.230469 10.511719 16.300781 10.597656 16.355469 C 10.679688 16.410156 10.792969 16.4375 10.949219 16.4375 C 11.074219 16.4375 11.230469 16.425781 11.429688 16.394531 Z M 11.429688 16.394531 "/>
<path style=" stroke:none;fill-rule:nonzero;fill:rgb(0%,0%,0%);fill-opacity:1;" d="M 12.449219 17.332031 L 12.449219 8.75 L 13.511719 8.75 L 13.511719 11.832031 C 13.996094 11.265625 14.617188 10.980469 15.367188 10.980469 C 15.824219 10.980469 16.222656 11.074219 16.554688 11.25 C 16.898438 11.433594 17.144531 11.683594 17.285156 12 C 17.433594 12.324219 17.511719 12.785156 17.511719 13.394531 L 17.511719 17.332031 L 16.472656 17.332031 L 16.472656 13.394531 C 16.472656 12.871094 16.351562 12.488281 16.117188 12.25 C 15.894531 12 15.574219 11.875 15.160156 11.875 C 14.835938 11.875 14.539062 11.957031 14.261719 12.125 C 13.980469 12.28125 13.789062 12.496094 13.679688 12.769531 C 13.566406 13.050781 13.511719 13.4375 13.511719 13.9375 L 13.511719 17.332031 Z M 12.449219 17.332031 "/>
<path style=" stroke:none;fill-rule:nonzero;fill:rgb(0%,0%,0%);fill-opacity:1;" d="M 23.371094 15.332031 L 24.476562 15.457031 C 24.292969 16.097656 23.964844 16.597656 23.496094 16.957031 C 23.039062 17.308594 22.445312 17.480469 21.726562 17.480469 C 20.820312 17.480469 20.101562 17.203125 19.558594 16.644531 C 19.027344 16.078125 18.765625 15.285156 18.765625 14.269531 C 18.765625 13.230469 19.039062 12.425781 19.578125 11.855469 C 20.121094 11.269531 20.820312 10.980469 21.683594 10.980469 C 22.515625 10.980469 23.1875 11.265625 23.703125 11.832031 C 24.230469 12.390625 24.496094 13.183594 24.496094 14.207031 C 24.496094 14.28125 24.496094 14.375 24.496094 14.5 L 19.851562 14.5 C 19.890625 15.183594 20.085938 15.703125 20.433594 16.0625 C 20.777344 16.425781 21.214844 16.605469 21.746094 16.605469 C 22.132812 16.605469 22.460938 16.511719 22.726562 16.3125 C 23 16.105469 23.214844 15.78125 23.371094 15.332031 Z M 19.914062 13.625 L 23.390625 13.625 C 23.351562 13.097656 23.214844 12.703125 22.996094 12.4375 C 22.664062 12.035156 22.226562 11.832031 21.683594 11.832031 C 21.195312 11.832031 20.789062 12 20.453125 12.332031 C 20.132812 12.65625 19.953125 13.082031 19.914062 13.625 Z M 19.914062 13.625 "/>
<path style=" stroke:none;fill-rule:nonzero;fill:rgb(0%,0%,0%);fill-opacity:1;" d="M 63.683594 17.332031 L 63.683594 11.105469 L 64.621094 11.105469 L 64.621094 11.980469 C 64.8125 11.675781 65.066406 11.433594 65.390625 11.25 C 65.722656 11.074219 66.097656 10.980469 66.515625 10.980469 C 66.972656 10.980469 67.347656 11.078125 67.640625 11.269531 C 67.933594 11.453125 68.140625 11.71875 68.265625 12.0625 C 68.765625 11.34375 69.402344 10.980469 70.183594 10.980469 C 70.808594 10.980469 71.285156 11.15625 71.621094 11.5 C 71.953125 11.832031 72.121094 12.355469 72.121094 13.0625 L 72.121094 17.332031 L 71.058594 17.332031 L 71.058594 13.417969 C 71.058594 12.988281 71.019531 12.683594 70.953125 12.5 C 70.894531 12.324219 70.777344 12.175781 70.597656 12.0625 C 70.417969 11.9375 70.203125 11.875 69.953125 11.875 C 69.519531 11.875 69.160156 12.019531 68.871094 12.3125 C 68.578125 12.605469 68.433594 13.074219 68.433594 13.707031 L 68.433594 17.332031 L 67.371094 17.332031 L 67.371094 13.292969 C 67.371094 12.824219 67.285156 12.46875 67.121094 12.230469 C 66.953125 11.996094 66.671875 11.875 66.285156 11.875 C 65.980469 11.875 65.703125 11.957031 65.453125 12.125 C 65.203125 12.28125 65.019531 12.511719 64.910156 12.8125 C 64.796875 13.105469 64.746094 13.535156 64.746094 14.105469 L 64.746094 17.332031 Z M 63.683594 17.332031 "/>
<path style=" stroke:none;fill-rule:nonzero;fill:rgb(0%,0%,0%);fill-opacity:1;" d="M 77.742188 16.5625 C 77.351562 16.894531 76.976562 17.136719 76.617188 17.269531 C 76.25 17.40625 75.867188 17.480469 75.449219 17.480469 C 74.765625 17.480469 74.242188 17.3125 73.867188 16.980469 C 73.5 16.644531 73.324219 16.21875 73.324219 15.6875 C 73.324219 15.386719 73.390625 15.105469 73.53125 14.855469 C 73.667969 14.605469 73.851562 14.40625 74.074219 14.25 C 74.292969 14.097656 74.542969 13.980469 74.824219 13.894531 C 75.03125 13.855469 75.34375 13.808594 75.761719 13.75 C 76.621094 13.65625 77.25 13.53125 77.65625 13.375 C 77.65625 13.238281 77.65625 13.144531 77.65625 13.105469 C 77.65625 12.675781 77.558594 12.375 77.367188 12.207031 C 77.085938 11.957031 76.683594 11.832031 76.15625 11.832031 C 75.65625 11.832031 75.289062 11.925781 75.054688 12.105469 C 74.8125 12.269531 74.640625 12.578125 74.53125 13.019531 L 73.511719 12.894531 C 73.59375 12.453125 73.742188 12.097656 73.949219 11.832031 C 74.167969 11.558594 74.480469 11.347656 74.886719 11.207031 C 75.304688 11.058594 75.773438 10.980469 76.304688 10.980469 C 76.84375 10.980469 77.273438 11.042969 77.59375 11.167969 C 77.929688 11.292969 78.167969 11.453125 78.324219 11.644531 C 78.492188 11.828125 78.601562 12.0625 78.65625 12.355469 C 78.699219 12.535156 78.71875 12.855469 78.71875 13.3125 L 78.71875 14.730469 C 78.71875 15.703125 78.742188 16.324219 78.78125 16.582031 C 78.824219 16.847656 78.914062 17.097656 79.054688 17.332031 L 77.949219 17.332031 C 77.835938 17.113281 77.765625 16.855469 77.742188 16.5625 Z M 77.65625 14.207031 C 77.265625 14.363281 76.6875 14.496094 75.929688 14.605469 C 75.496094 14.675781 75.1875 14.75 75.011719 14.832031 C 74.828125 14.90625 74.6875 15.015625 74.59375 15.167969 C 74.496094 15.324219 74.449219 15.488281 74.449219 15.667969 C 74.449219 15.949219 74.554688 16.183594 74.761719 16.375 C 74.96875 16.558594 75.28125 16.644531 75.699219 16.644531 C 76.101562 16.644531 76.460938 16.558594 76.78125 16.375 C 77.101562 16.199219 77.335938 15.953125 77.492188 15.644531 C 77.601562 15.410156 77.65625 15.0625 77.65625 14.605469 Z M 77.65625 14.207031 "/>
<path style=" stroke:none;fill-rule:nonzero;fill:rgb(0%,0%,0%);fill-opacity:1;" d="M 80.351562 17.332031 L 80.351562 11.105469 L 81.3125 11.105469 L 81.3125 12 C 81.753906 11.324219 82.414062 10.980469 83.289062 10.980469 C 83.664062 10.980469 84.003906 11.050781 84.3125 11.1875 C 84.628906 11.3125 84.863281 11.488281 85.019531 11.707031 C 85.171875 11.917969 85.28125 12.175781 85.351562 12.480469 C 85.394531 12.675781 85.414062 13.015625 85.414062 13.5 L 85.414062 17.332031 L 84.351562 17.332031 L 84.351562 13.542969 C 84.351562 13.113281 84.3125 12.792969 84.226562 12.582031 C 84.144531 12.375 84 12.207031 83.789062 12.082031 C 83.582031 11.949219 83.335938 11.875 83.0625 11.875 C 82.613281 11.875 82.226562 12.019531 81.894531 12.3125 C 81.570312 12.59375 81.414062 13.136719 81.414062 13.9375 L 81.414062 17.332031 Z M 80.351562 17.332031 "/>
<path style=" stroke:none;fill-rule:nonzero;fill:rgb(0%,0%,0%);fill-opacity:1;" d="M 153.734375 17.332031 L 153.734375 8.75 L 154.796875 8.75 L 154.796875 11.832031 C 155.28125 11.265625 155.902344 10.980469 156.652344 10.980469 C 157.109375 10.980469 157.507812 11.074219 157.839844 11.25 C 158.183594 11.433594 158.429688 11.683594 158.570312 12 C 158.71875 12.324219 158.796875 12.785156 158.796875 13.394531 L 158.796875 17.332031 L 157.757812 17.332031 L 157.757812 13.394531 C 157.757812 12.871094 157.636719 12.488281 157.402344 12.25 C 157.179688 12 156.859375 11.875 156.445312 11.875 C 156.121094 11.875 155.824219 11.957031 155.546875 12.125 C 155.265625 12.28125 155.074219 12.496094 154.964844 12.769531 C 154.851562 13.050781 154.796875 13.4375 154.796875 13.9375 L 154.796875 17.332031 Z M 153.734375 17.332031 "/>
<path style=" stroke:none;fill-rule:nonzero;fill:rgb(0%,0%,0%);fill-opacity:1;" d="M 160.410156 9.957031 L 160.410156 8.75 L 161.472656 8.75 L 161.472656 9.957031 Z M 160.410156 17.332031 L 160.410156 11.105469 L 161.472656 11.105469 L 161.472656 17.332031 Z M 160.410156 17.332031 "/>
<path style=" stroke:none;fill-rule:nonzero;fill:rgb(0%,0%,0%);fill-opacity:1;" d="M 162.660156 15.480469 L 163.703125 15.3125 C 163.753906 15.730469 163.914062 16.050781 164.179688 16.269531 C 164.457031 16.496094 164.832031 16.605469 165.304688 16.605469 C 165.789062 16.605469 166.148438 16.511719 166.390625 16.3125 C 166.625 16.121094 166.742188 15.890625 166.742188 15.625 C 166.742188 15.375 166.640625 15.1875 166.429688 15.0625 C 166.273438 14.96875 165.914062 14.84375 165.347656 14.6875 C 164.566406 14.496094 164.023438 14.328125 163.722656 14.1875 C 163.429688 14.050781 163.207031 13.855469 163.054688 13.605469 C 162.898438 13.355469 162.828125 13.078125 162.828125 12.769531 C 162.828125 12.496094 162.890625 12.238281 163.015625 12 C 163.140625 11.765625 163.3125 11.5625 163.535156 11.394531 C 163.703125 11.285156 163.921875 11.1875 164.203125 11.105469 C 164.492188 11.019531 164.796875 10.980469 165.117188 10.980469 C 165.601562 10.980469 166.023438 11.050781 166.390625 11.1875 C 166.765625 11.328125 167.039062 11.515625 167.222656 11.75 C 167.398438 11.988281 167.523438 12.308594 167.597656 12.707031 L 166.554688 12.855469 C 166.515625 12.535156 166.375 12.285156 166.140625 12.105469 C 165.914062 11.925781 165.601562 11.832031 165.203125 11.832031 C 164.710938 11.832031 164.367188 11.917969 164.160156 12.082031 C 163.953125 12.238281 163.847656 12.425781 163.847656 12.644531 C 163.847656 12.785156 163.890625 12.90625 163.972656 13 C 164.054688 13.125 164.191406 13.222656 164.390625 13.292969 C 164.484375 13.332031 164.789062 13.425781 165.304688 13.5625 C 166.054688 13.761719 166.578125 13.917969 166.867188 14.042969 C 167.171875 14.167969 167.410156 14.355469 167.578125 14.605469 C 167.742188 14.84375 167.828125 15.140625 167.828125 15.5 C 167.828125 15.863281 167.722656 16.199219 167.515625 16.5 C 167.304688 16.808594 167.003906 17.050781 166.617188 17.230469 C 166.242188 17.394531 165.804688 17.480469 165.304688 17.480469 C 164.5 17.480469 163.878906 17.3125 163.453125 16.980469 C 163.035156 16.636719 162.769531 16.136719 162.660156 15.480469 Z M 162.660156 15.480469 "/>
<path style=" stroke:none;fill-rule:nonzero;fill:rgb(0%,0%,0%);fill-opacity:1;" d="M 211.367188 15.480469 L 212.410156 15.3125 C 212.460938 15.730469 212.621094 16.050781 212.886719 16.269531 C 213.164062 16.496094 213.539062 16.605469 214.011719 16.605469 C 214.496094 16.605469 214.855469 16.511719 215.097656 16.3125 C 215.332031 16.121094 215.449219 15.890625 215.449219 15.625 C 215.449219 15.375 215.347656 15.1875 215.136719 15.0625 C 214.980469 14.96875 214.621094 14.84375 214.054688 14.6875 C 213.273438 14.496094 212.730469 14.328125 212.429688 14.1875 C 212.136719 14.050781 211.914062 13.855469 211.761719 13.605469 C 211.605469 13.355469 211.535156 13.078125 211.535156 12.769531 C 211.535156 12.496094 211.597656 12.238281 211.722656 12 C 211.847656 11.765625 212.019531 11.5625 212.242188 11.394531 C 212.410156 11.285156 212.628906 11.1875 212.910156 11.105469 C 213.199219 11.019531 213.503906 10.980469 213.824219 10.980469 C 214.308594 10.980469 214.730469 11.050781 215.097656 11.1875 C 215.472656 11.328125 215.746094 11.515625 215.929688 11.75 C 216.105469 11.988281 216.230469 12.308594 216.304688 12.707031 L 215.261719 12.855469 C 215.222656 12.535156 215.082031 12.285156 214.847656 12.105469 C 214.621094 11.925781 214.308594 11.832031 213.910156 11.832031 C 213.417969 11.832031 213.074219 11.917969 212.867188 12.082031 C 212.660156 12.238281 212.554688 12.425781 212.554688 12.644531 C 212.554688 12.785156 212.597656 12.90625 212.679688 13 C 212.761719 13.125 212.898438 13.222656 213.097656 13.292969 C 213.191406 13.332031 213.496094 13.425781 214.011719 13.5625 C 214.761719 13.761719 215.285156 13.917969 215.574219 14.042969 C 215.878906 14.167969 216.117188 14.355469 216.285156 14.605469 C 216.449219 14.84375 216.535156 15.140625 216.535156 15.5 C 216.535156 15.863281 216.429688 16.199219 216.222656 16.5 C 216.011719 16.808594 215.710938 17.050781 215.324219 17.230469 C 214.949219 17.394531 214.511719 17.480469 214.011719 17.480469 C 213.207031 17.480469 212.585938 17.3125 212.160156 16.980469 C 211.742188 16.636719 211.476562 16.136719 211.367188 15.480469 Z M 211.367188 15.480469 "/>
<path style=" stroke:none;fill-rule:nonzero;fill:rgb(0%,0%,0%);fill-opacity:1;" d="M 217.386719 14.230469 C 217.386719 13.078125 217.707031 12.222656 218.347656 11.667969 C 218.886719 11.207031 219.539062 10.980469 220.304688 10.980469 C 221.164062 10.980469 221.867188 11.261719 222.410156 11.8125 C 222.949219 12.371094 223.222656 13.140625 223.222656 14.125 C 223.222656 14.933594 223.097656 15.5625 222.847656 16.019531 C 222.605469 16.480469 222.261719 16.84375 221.804688 17.105469 C 221.347656 17.355469 220.847656 17.480469 220.304688 17.480469 C 219.429688 17.480469 218.722656 17.203125 218.179688 16.644531 C 217.648438 16.078125 217.386719 15.269531 217.386719 14.230469 Z M 218.472656 14.230469 C 218.472656 15.019531 218.644531 15.621094 218.992188 16.019531 C 219.335938 16.410156 219.773438 16.605469 220.304688 16.605469 C 220.832031 16.605469 221.269531 16.410156 221.617188 16.019531 C 221.960938 15.621094 222.136719 15.011719 222.136719 14.1875 C 222.136719 13.425781 221.960938 12.84375 221.617188 12.4375 C 221.269531 12.035156 220.832031 11.832031 220.304688 11.832031 C 219.773438 11.832031 219.335938 12.035156 218.992188 12.4375 C 218.644531 12.828125 218.472656 13.425781 218.472656 14.230469 Z M 218.472656 14.230469 "/>
<path style=" stroke:none;fill-rule:nonzero;fill:rgb(0%,0%,0%);fill-opacity:1;" d="M 224.457031 17.332031 L 224.457031 11.105469 L 225.417969 11.105469 L 225.417969 12 C 225.859375 11.324219 226.519531 10.980469 227.394531 10.980469 C 227.769531 10.980469 228.109375 11.050781 228.417969 11.1875 C 228.734375 11.3125 228.96875 11.488281 229.125 11.707031 C 229.277344 11.917969 229.386719 12.175781 229.457031 12.480469 C 229.5 12.675781 229.519531 13.015625 229.519531 13.5 L 229.519531 17.332031 L 228.457031 17.332031 L 228.457031 13.542969 C 228.457031 13.113281 228.417969 12.792969 228.332031 12.582031 C 228.25 12.375 228.105469 12.207031 227.894531 12.082031 C 227.6875 11.949219 227.441406 11.875 227.167969 11.875 C 226.71875 11.875 226.332031 12.019531 226 12.3125 C 225.675781 12.59375 225.519531 13.136719 225.519531 13.9375 L 225.519531 17.332031 Z M 224.457031 17.332031 "/>
</g>
</svg>
