<?xml version="1.0" encoding="UTF-8"?>
<svg xmlns="http://www.w3.org/2000/svg" xmlns:xlink="http://www.w3.org/1999/xlink" width="528" height="110.666667" viewBox="0 0 528 110.666667" version="1.1">
<g id="surface1">
<path style="fill-rule:nonzero;fill:rgb(69.803923%,85.09804%,100%);fill-opacity:1;stroke-width:1;stroke-linecap:round;stroke-linejoin:round;stroke:rgb(0%,0%,0%);stroke-opacity:1;stroke-miterlimit:10;" d="M 216.717773 -24.499023 L 237.717773 -24.499023 L 237.717773 -3.499023 L 216.717773 -3.499023 Z M 216.717773 -24.499023 " transform="matrix(1.333333,0,0,1.333333,-4,69.333333)"/>
<path style=" stroke:none;fill-rule:nonzero;fill:rgb(0%,0%,0%);fill-opacity:1;" d="M 294 51.417969 L 294 50.355469 L 297.25 50.355469 L 297.25 51.417969 Z M 294 51.417969 "/>
<path style=" stroke:none;fill-rule:nonzero;fill:rgb(0%,0%,0%);fill-opacity:1;" d="M 298.121094 51.730469 L 299.183594 51.582031 C 299.308594 52.183594 299.507812 52.613281 299.789062 52.875 C 300.078125 53.140625 300.4375 53.269531 300.871094 53.269531 C 301.355469 53.269531 301.765625 53.105469 302.101562 52.769531 C 302.445312 52.425781 302.621094 51.996094 302.621094 51.480469 C 302.621094 50.996094 302.460938 50.597656 302.140625 50.292969 C 301.835938 49.972656 301.4375 49.8125 300.953125 49.8125 C 300.746094 49.8125 300.496094 49.855469 300.203125 49.9375 L 300.328125 49 C 300.398438 49.015625 300.453125 49.019531 300.496094 49.019531 C 300.9375 49.019531 301.339844 48.90625 301.703125 48.667969 C 302.0625 48.433594 302.246094 48.074219 302.246094 47.582031 C 302.246094 47.199219 302.109375 46.875 301.851562 46.625 C 301.585938 46.375 301.246094 46.25 300.828125 46.25 C 300.421875 46.25 300.085938 46.386719 299.808594 46.644531 C 299.542969 46.894531 299.371094 47.28125 299.289062 47.792969 L 298.226562 47.605469 C 298.359375 46.894531 298.652344 46.347656 299.101562 45.957031 C 299.558594 45.574219 300.125 45.375 300.808594 45.375 C 301.277344 45.375 301.710938 45.480469 302.101562 45.6875 C 302.5 45.886719 302.808594 46.15625 303.015625 46.5 C 303.226562 46.847656 303.328125 47.21875 303.328125 47.605469 C 303.328125 47.980469 303.226562 48.324219 303.015625 48.625 C 302.820312 48.933594 302.527344 49.175781 302.140625 49.355469 C 302.652344 49.46875 303.046875 49.707031 303.328125 50.082031 C 303.605469 50.449219 303.746094 50.90625 303.746094 51.457031 C 303.746094 52.207031 303.464844 52.847656 302.914062 53.375 C 302.371094 53.890625 301.683594 54.144531 300.851562 54.144531 C 300.101562 54.144531 299.476562 53.925781 298.976562 53.480469 C 298.476562 53.035156 298.1875 52.453125 298.121094 51.730469 Z M 298.121094 51.730469 "/>
<path style="fill-rule:nonzero;fill:rgb(69.803923%,85.09804%,100%);fill-opacity:1;stroke-width:1;stroke-linecap:round;stroke-linejoin:round;stroke:rgb(0%,0%,0%);stroke-opacity:1;stroke-miterlimit:10;" d="M 195.717773 -24.499023 L 216.717773 -24.499023 L 216.717773 -3.499023 L 195.717773 -3.499023 Z M 195.717773 -24.499023 " transform="matrix(1.333333,0,0,1.333333,-4,69.333333)"/>
<path style=" stroke:none;fill-rule:nonzero;fill:rgb(0%,0%,0%);fill-opacity:1;" d="M 266 51.417969 L 266 50.355469 L 269.25 50.355469 L 269.25 51.417969 Z M 266 51.417969 "/>
<path style=" stroke:none;fill-rule:nonzero;fill:rgb(0%,0%,0%);fill-opacity:1;" d="M 274.101562 54 L 273.039062 54 L 273.039062 47.269531 C 272.789062 47.519531 272.453125 47.769531 272.039062 48.019531 C 271.621094 48.261719 271.25 48.433594 270.933594 48.542969 L 270.933594 47.519531 C 271.515625 47.261719 272.027344 46.933594 272.476562 46.542969 C 272.917969 46.140625 273.230469 45.75 273.414062 45.375 L 274.101562 45.375 Z M 274.101562 54 "/>
<path style="fill-rule:nonzero;fill:rgb(69.803923%,85.09804%,100%);fill-opacity:1;stroke-width:1;stroke-linecap:round;stroke-linejoin:round;stroke:rgb(0%,0%,0%);stroke-opacity:1;stroke-miterlimit:10;" d="M 14.000977 -24.499023 L 35.000977 -24.499023 L 35.000977 -3.499023 L 14.000977 -3.499023 Z M 14.000977 -24.499023 " transform="matrix(1.333333,0,0,1.333333,-4,69.333333)"/>
<path style=" stroke:none;fill-rule:nonzero;fill:rgb(0%,0%,0%);fill-opacity:1;" d="M 31.371094 52.980469 L 31.371094 54 L 25.683594 54 C 25.683594 53.75 25.726562 53.511719 25.808594 53.269531 C 25.960938 52.886719 26.195312 52.5 26.515625 52.125 C 26.835938 51.75 27.292969 51.324219 27.890625 50.832031 C 28.820312 50.058594 29.445312 49.449219 29.765625 49 C 30.101562 48.558594 30.265625 48.136719 30.265625 47.730469 C 30.265625 47.3125 30.109375 46.96875 29.808594 46.6875 C 29.515625 46.394531 29.132812 46.25 28.664062 46.25 C 28.148438 46.25 27.734375 46.40625 27.433594 46.707031 C 27.125 47.015625 26.976562 47.4375 26.976562 47.980469 L 25.890625 47.855469 C 25.960938 47.050781 26.234375 46.4375 26.726562 46.019531 C 27.210938 45.59375 27.859375 45.375 28.683594 45.375 C 29.5 45.375 30.148438 45.605469 30.621094 46.0625 C 31.105469 46.519531 31.351562 47.082031 31.351562 47.75 C 31.351562 48.097656 31.277344 48.4375 31.140625 48.769531 C 31 49.105469 30.765625 49.457031 30.433594 49.832031 C 30.109375 50.199219 29.578125 50.699219 28.828125 51.332031 C 28.1875 51.863281 27.777344 52.222656 27.601562 52.417969 C 27.417969 52.613281 27.273438 52.800781 27.164062 52.980469 Z M 31.371094 52.980469 "/>
<path style="fill-rule:nonzero;fill:rgb(69.803923%,85.09804%,100%);fill-opacity:1;stroke-width:1;stroke-linecap:round;stroke-linejoin:round;stroke:rgb(0%,0%,0%);stroke-opacity:1;stroke-miterlimit:10;" d="M 35.000977 -24.499023 L 56.000977 -24.499023 L 56.000977 -3.499023 L 35.000977 -3.499023 Z M 35.000977 -24.499023 " transform="matrix(1.333333,0,0,1.333333,-4,69.333333)"/>
<path style=" stroke:none;fill-rule:nonzero;fill:rgb(0%,0%,0%);fill-opacity:1;" d="M 53.828125 51.730469 L 54.890625 51.582031 C 55.015625 52.183594 55.214844 52.613281 55.496094 52.875 C 55.789062 53.140625 56.148438 53.269531 56.578125 53.269531 C 57.0625 53.269531 57.476562 53.105469 57.808594 52.769531 C 58.152344 52.425781 58.328125 51.996094 58.328125 51.480469 C 58.328125 50.996094 58.167969 50.597656 57.851562 50.292969 C 57.542969 49.972656 57.148438 49.8125 56.664062 49.8125 C 56.453125 49.8125 56.203125 49.855469 55.914062 49.9375 L 56.039062 49 C 56.105469 49.015625 56.164062 49.019531 56.203125 49.019531 C 56.648438 49.019531 57.046875 48.90625 57.414062 48.667969 C 57.773438 48.433594 57.953125 48.074219 57.953125 47.582031 C 57.953125 47.199219 57.820312 46.875 57.558594 46.625 C 57.292969 46.375 56.953125 46.25 56.539062 46.25 C 56.132812 46.25 55.792969 46.386719 55.515625 46.644531 C 55.25 46.894531 55.078125 47.28125 54.996094 47.792969 L 53.933594 47.605469 C 54.070312 46.894531 54.359375 46.347656 54.808594 45.957031 C 55.265625 45.574219 55.835938 45.375 56.515625 45.375 C 56.984375 45.375 57.417969 45.480469 57.808594 45.6875 C 58.210938 45.886719 58.515625 46.15625 58.726562 46.5 C 58.933594 46.847656 59.039062 47.21875 59.039062 47.605469 C 59.039062 47.980469 58.933594 48.324219 58.726562 48.625 C 58.527344 48.933594 58.234375 49.175781 57.851562 49.355469 C 58.359375 49.46875 58.757812 49.707031 59.039062 50.082031 C 59.3125 50.449219 59.453125 50.90625 59.453125 51.457031 C 59.453125 52.207031 59.171875 52.847656 58.621094 53.375 C 58.078125 53.890625 57.390625 54.144531 56.558594 54.144531 C 55.808594 54.144531 55.183594 53.925781 54.683594 53.480469 C 54.183594 53.035156 53.898438 52.453125 53.828125 51.730469 Z M 53.828125 51.730469 "/>
<path style="fill-rule:nonzero;fill:rgb(100%,100%,100%);fill-opacity:1;stroke-width:1;stroke-linecap:round;stroke-linejoin:round;stroke:rgb(0%,0%,0%);stroke-opacity:1;stroke-miterlimit:10;" d="M 56.000977 -24.499023 L 77.000977 -24.499023 L 77.000977 -3.499023 L 56.000977 -3.499023 Z M 56.000977 -24.499023 " transform="matrix(1.333333,0,0,1.333333,-4,69.333333)"/>
<path style=" stroke:none;fill-rule:nonzero;fill:rgb(0%,0%,0%);fill-opacity:1;" d="M 85.203125 54 L 85.203125 51.9375 L 81.476562 51.9375 L 81.476562 50.980469 L 85.390625 45.417969 L 86.265625 45.417969 L 86.265625 50.980469 L 87.433594 50.980469 L 87.433594 51.9375 L 86.265625 51.9375 L 86.265625 54 Z M 85.203125 50.980469 L 85.203125 47.105469 L 82.515625 50.980469 Z M 85.203125 50.980469 "/>
<path style="fill-rule:nonzero;fill:rgb(100%,100%,100%);fill-opacity:1;stroke-width:1;stroke-linecap:round;stroke-linejoin:round;stroke:rgb(0%,0%,0%);stroke-opacity:1;stroke-miterlimit:10;" d="M 77.000977 -24.499023 L 98.000977 -24.499023 L 98.000977 -3.499023 L 77.000977 -3.499023 Z M 77.000977 -24.499023 " transform="matrix(1.333333,0,0,1.333333,-4,69.333333)"/>
<path style=" stroke:none;fill-rule:nonzero;fill:rgb(0%,0%,0%);fill-opacity:1;" d="M 109.828125 51.75 L 110.933594 51.644531 C 111.015625 52.1875 111.203125 52.597656 111.496094 52.875 C 111.796875 53.140625 112.164062 53.269531 112.578125 53.269531 C 113.089844 53.269531 113.523438 53.082031 113.871094 52.707031 C 114.230469 52.324219 114.414062 51.8125 114.414062 51.1875 C 114.414062 50.578125 114.234375 50.097656 113.890625 49.75 C 113.558594 49.40625 113.121094 49.230469 112.578125 49.230469 C 112.230469 49.230469 111.917969 49.3125 111.640625 49.480469 C 111.375 49.636719 111.164062 49.828125 110.996094 50.0625 L 110.015625 49.9375 L 110.851562 45.519531 L 115.121094 45.519531 L 115.121094 46.542969 L 111.683594 46.542969 L 111.226562 48.832031 C 111.734375 48.488281 112.277344 48.3125 112.851562 48.3125 C 113.601562 48.3125 114.230469 48.574219 114.746094 49.082031 C 115.257812 49.597656 115.515625 50.265625 115.515625 51.082031 C 115.515625 51.863281 115.292969 52.535156 114.851562 53.105469 C 114.292969 53.800781 113.539062 54.144531 112.578125 54.144531 C 111.796875 54.144531 111.164062 53.933594 110.664062 53.5 C 110.171875 53.058594 109.898438 52.472656 109.828125 51.75 Z M 109.828125 51.75 "/>
<path style="fill-rule:nonzero;fill:rgb(100%,100%,100%);fill-opacity:1;stroke-width:1;stroke-linecap:round;stroke-linejoin:round;stroke:rgb(0%,0%,0%);stroke-opacity:1;stroke-miterlimit:10;" d="M 140.000977 -24.499023 L 161.000977 -24.499023 L 161.000977 -3.499023 L 140.000977 -3.499023 Z M 140.000977 -24.499023 " transform="matrix(1.333333,0,0,1.333333,-4,69.333333)"/>
<path style=" stroke:none;fill-rule:nonzero;fill:rgb(0%,0%,0%);fill-opacity:1;" d="M 195.453125 49.332031 C 195.007812 49.183594 194.683594 48.957031 194.476562 48.667969 C 194.265625 48.363281 194.164062 48 194.164062 47.582031 C 194.164062 46.957031 194.382812 46.4375 194.828125 46.019531 C 195.289062 45.59375 195.882812 45.375 196.621094 45.375 C 197.371094 45.375 197.976562 45.597656 198.433594 46.042969 C 198.890625 46.472656 199.121094 47 199.121094 47.625 C 199.121094 48.015625 199.015625 48.363281 198.808594 48.667969 C 198.601562 48.957031 198.277344 49.183594 197.851562 49.332031 C 198.375 49.515625 198.777344 49.800781 199.058594 50.1875 C 199.335938 50.5625 199.476562 51.015625 199.476562 51.542969 C 199.476562 52.28125 199.210938 52.894531 198.683594 53.394531 C 198.167969 53.894531 197.484375 54.144531 196.640625 54.144531 C 195.792969 54.144531 195.105469 53.894531 194.578125 53.394531 C 194.0625 52.894531 193.808594 52.269531 193.808594 51.519531 C 193.808594 50.96875 193.945312 50.5 194.226562 50.125 C 194.515625 49.738281 194.921875 49.472656 195.453125 49.332031 Z M 195.246094 47.5625 C 195.246094 47.96875 195.371094 48.300781 195.621094 48.5625 C 195.882812 48.8125 196.226562 48.9375 196.640625 48.9375 C 197.058594 48.9375 197.390625 48.8125 197.640625 48.5625 C 197.902344 48.300781 198.039062 47.980469 198.039062 47.605469 C 198.039062 47.230469 197.902344 46.910156 197.640625 46.644531 C 197.375 46.386719 197.042969 46.25 196.640625 46.25 C 196.234375 46.25 195.902344 46.386719 195.640625 46.644531 C 195.375 46.894531 195.246094 47.203125 195.246094 47.5625 Z M 194.890625 51.519531 C 194.890625 51.828125 194.960938 52.121094 195.101562 52.394531 C 195.25 52.675781 195.464844 52.890625 195.746094 53.042969 C 196.023438 53.199219 196.328125 53.269531 196.664062 53.269531 C 197.164062 53.269531 197.570312 53.113281 197.890625 52.792969 C 198.226562 52.472656 198.390625 52.0625 198.390625 51.5625 C 198.390625 51.050781 198.226562 50.625 197.890625 50.292969 C 197.558594 49.957031 197.132812 49.792969 196.621094 49.792969 C 196.121094 49.792969 195.703125 49.957031 195.371094 50.292969 C 195.046875 50.625 194.890625 51.035156 194.890625 51.519531 Z M 194.890625 51.519531 "/>
<path style="fill-rule:nonzero;fill:rgb(100%,100%,100%);fill-opacity:1;stroke-width:1;stroke-linecap:round;stroke-linejoin:round;stroke:rgb(0%,0%,0%);stroke-opacity:1;stroke-miterlimit:10;" d="M 98.000977 -24.499023 L 119.000977 -24.499023 L 119.000977 -3.499023 L 98.000977 -3.499023 Z M 98.000977 -24.499023 " transform="matrix(1.333333,0,0,1.333333,-4,69.333333)"/>
<path style=" stroke:none;fill-rule:nonzero;fill:rgb(0%,0%,0%);fill-opacity:1;" d="M 143.308594 47.519531 L 142.246094 47.605469 C 142.164062 47.1875 142.027344 46.886719 141.851562 46.6875 C 141.570312 46.394531 141.226562 46.25 140.808594 46.25 C 140.460938 46.25 140.164062 46.34375 139.914062 46.519531 C 139.578125 46.769531 139.3125 47.125 139.121094 47.582031 C 138.9375 48.042969 138.839844 48.703125 138.828125 49.5625 C 139.078125 49.1875 139.382812 48.910156 139.746094 48.730469 C 140.121094 48.535156 140.507812 48.4375 140.914062 48.4375 C 141.621094 48.4375 142.214844 48.699219 142.703125 49.207031 C 143.203125 49.722656 143.453125 50.390625 143.453125 51.207031 C 143.453125 51.75 143.335938 52.261719 143.101562 52.730469 C 142.859375 53.1875 142.542969 53.542969 142.140625 53.792969 C 141.734375 54.027344 141.277344 54.144531 140.765625 54.144531 C 139.890625 54.144531 139.171875 53.828125 138.621094 53.1875 C 138.0625 52.535156 137.789062 51.46875 137.789062 49.980469 C 137.789062 48.328125 138.089844 47.121094 138.703125 46.355469 C 139.230469 45.703125 139.953125 45.375 140.871094 45.375 C 141.539062 45.375 142.085938 45.574219 142.515625 45.957031 C 142.945312 46.332031 143.210938 46.855469 143.308594 47.519531 Z M 138.996094 51.207031 C 138.996094 51.582031 139.070312 51.9375 139.226562 52.269531 C 139.375 52.59375 139.589844 52.84375 139.871094 53.019531 C 140.148438 53.1875 140.4375 53.269531 140.746094 53.269531 C 141.1875 53.269531 141.570312 53.097656 141.890625 52.75 C 142.210938 52.390625 142.371094 51.894531 142.371094 51.269531 C 142.371094 50.675781 142.210938 50.207031 141.890625 49.875 C 141.585938 49.53125 141.1875 49.355469 140.703125 49.355469 C 140.230469 49.355469 139.828125 49.53125 139.496094 49.875 C 139.164062 50.207031 138.996094 50.65625 138.996094 51.207031 Z M 138.996094 51.207031 "/>
<path style="fill-rule:nonzero;fill:rgb(100%,100%,100%);fill-opacity:1;stroke-width:1;stroke-linecap:round;stroke-linejoin:round;stroke:rgb(0%,0%,0%);stroke-opacity:1;stroke-miterlimit:10;" d="M 119.000977 -24.499023 L 140.000977 -24.499023 L 140.000977 -3.499023 L 119.000977 -3.499023 Z M 119.000977 -24.499023 " transform="matrix(1.333333,0,0,1.333333,-4,69.333333)"/>
<path style=" stroke:none;fill-rule:nonzero;fill:rgb(0%,0%,0%);fill-opacity:1;" d="M 165.890625 46.542969 L 165.890625 45.519531 L 171.453125 45.519531 L 171.453125 46.332031 C 170.914062 46.917969 170.371094 47.699219 169.828125 48.667969 C 169.289062 49.625 168.871094 50.621094 168.578125 51.644531 C 168.371094 52.355469 168.234375 53.140625 168.183594 54 L 167.101562 54 C 167.109375 53.324219 167.246094 52.511719 167.496094 51.5625 C 167.746094 50.605469 168.105469 49.683594 168.578125 48.792969 C 169.0625 47.90625 169.570312 47.15625 170.101562 46.542969 Z M 165.890625 46.542969 "/>
<path style=" stroke:none;fill-rule:nonzero;fill:rgb(0%,0%,0%);fill-opacity:1;" d="M 223.417969 73.3125 L 223.957031 71.644531 C 225.191406 72.078125 226.09375 72.453125 226.667969 72.769531 C 226.511719 71.371094 226.4375 70.394531 226.4375 69.855469 L 228.125 69.855469 C 228.09375 70.636719 228.003906 71.605469 227.855469 72.769531 C 228.65625 72.371094 229.582031 71.996094 230.625 71.644531 L 231.167969 73.3125 C 230.167969 73.636719 229.191406 73.847656 228.25 73.957031 C 228.71875 74.375 229.394531 75.113281 230.269531 76.167969 L 228.855469 77.167969 C 228.394531 76.558594 227.859375 75.71875 227.25 74.644531 C 226.667969 75.761719 226.15625 76.597656 225.730469 77.167969 L 224.332031 76.167969 C 225.25 75.058594 225.902344 74.324219 226.292969 73.957031 C 225.277344 73.765625 224.316406 73.550781 223.417969 73.3125 Z M 223.417969 73.3125 "/>
<path style=" stroke:none;fill-rule:nonzero;fill:rgb(0%,0%,0%);fill-opacity:1;" d="M 342.980469 70.5625 L 331.625 70.5625 L 331.625 68.605469 L 342.980469 68.605469 Z M 342.980469 75.769531 L 331.625 75.769531 L 331.625 73.8125 L 342.980469 73.8125 Z M 342.980469 75.769531 "/>
<path style="fill-rule:nonzero;fill:rgb(100%,100%,100%);fill-opacity:1;stroke-width:1;stroke-linecap:round;stroke-linejoin:round;stroke:rgb(0%,0%,0%);stroke-opacity:1;stroke-miterlimit:10;" d="M 135 -7.500977 L 156 -7.500977 L 156 13.499023 L 135 13.499023 Z M 135 -7.500977 " transform="matrix(1.333333,0,0,1.333333,-4,69.333333)"/>
<path style=" stroke:none;fill-rule:nonzero;fill:rgb(0%,0%,0%);fill-opacity:1;" d="M 187.226562 69.207031 L 187.226562 68.1875 L 192.789062 68.1875 L 192.789062 69 C 192.246094 69.582031 191.703125 70.363281 191.164062 71.332031 C 190.621094 72.292969 190.203125 73.285156 189.914062 74.3125 C 189.703125 75.019531 189.570312 75.808594 189.515625 76.667969 L 188.433594 76.667969 C 188.445312 75.988281 188.578125 75.175781 188.828125 74.230469 C 189.078125 73.269531 189.4375 72.347656 189.914062 71.457031 C 190.398438 70.574219 190.902344 69.824219 191.433594 69.207031 Z M 187.226562 69.207031 "/>
<path style="fill-rule:nonzero;fill:rgb(100%,100%,100%);fill-opacity:1;stroke-width:1;stroke-linecap:round;stroke-linejoin:round;stroke:rgb(0%,0%,0%);stroke-opacity:1;stroke-miterlimit:10;" d="M 51 -7.500977 L 72 -7.500977 L 72 13.499023 L 51 13.499023 Z M 51 -7.500977 " transform="matrix(1.333333,0,0,1.333333,-4,69.333333)"/>
<path style=" stroke:none;fill-rule:nonzero;fill:rgb(0%,0%,0%);fill-opacity:1;" d="M 75.164062 74.394531 L 76.226562 74.25 C 76.351562 74.847656 76.546875 75.28125 76.828125 75.542969 C 77.121094 75.808594 77.480469 75.9375 77.914062 75.9375 C 78.398438 75.9375 78.808594 75.769531 79.140625 75.4375 C 79.484375 75.09375 79.664062 74.660156 79.664062 74.144531 C 79.664062 73.660156 79.5 73.265625 79.183594 72.957031 C 78.875 72.640625 78.480469 72.480469 77.996094 72.480469 C 77.789062 72.480469 77.539062 72.519531 77.246094 72.605469 L 77.371094 71.667969 C 77.4375 71.683594 77.496094 71.6875 77.539062 71.6875 C 77.980469 71.6875 78.382812 71.574219 78.746094 71.332031 C 79.105469 71.097656 79.289062 70.738281 79.289062 70.25 C 79.289062 69.863281 79.152344 69.542969 78.890625 69.292969 C 78.625 69.042969 78.289062 68.917969 77.871094 68.917969 C 77.464844 68.917969 77.125 69.050781 76.851562 69.3125 C 76.585938 69.5625 76.414062 69.949219 76.328125 70.457031 L 75.265625 70.269531 C 75.402344 69.5625 75.695312 69.015625 76.140625 68.625 C 76.601562 68.238281 77.167969 68.042969 77.851562 68.042969 C 78.320312 68.042969 78.75 68.144531 79.140625 68.355469 C 79.542969 68.550781 79.851562 68.824219 80.058594 69.167969 C 80.265625 69.515625 80.371094 69.886719 80.371094 70.269531 C 80.371094 70.644531 80.265625 70.988281 80.058594 71.292969 C 79.859375 71.597656 79.570312 71.84375 79.183594 72.019531 C 79.695312 72.136719 80.089844 72.375 80.371094 72.75 C 80.648438 73.113281 80.789062 73.574219 80.789062 74.125 C 80.789062 74.875 80.507812 75.515625 79.953125 76.042969 C 79.414062 76.558594 78.726562 76.8125 77.890625 76.8125 C 77.140625 76.8125 76.515625 76.59375 76.015625 76.144531 C 75.515625 75.703125 75.230469 75.121094 75.164062 74.394531 Z M 75.164062 74.394531 "/>
<path style="fill-rule:nonzero;fill:rgb(100%,100%,100%);fill-opacity:1;stroke-width:1;stroke-linecap:round;stroke-linejoin:round;stroke:rgb(0%,0%,0%);stroke-opacity:1;stroke-miterlimit:10;" d="M 114 -7.500977 L 135 -7.500977 L 135 13.499023 L 114 13.499023 Z M 114 -7.500977 " transform="matrix(1.333333,0,0,1.333333,-4,69.333333)"/>
<path style=" stroke:none;fill-rule:nonzero;fill:rgb(0%,0%,0%);fill-opacity:1;" d="M 164.640625 70.1875 L 163.578125 70.269531 C 163.496094 69.855469 163.359375 69.550781 163.183594 69.355469 C 162.902344 69.0625 162.558594 68.917969 162.140625 68.917969 C 161.792969 68.917969 161.496094 69.011719 161.246094 69.1875 C 160.914062 69.4375 160.648438 69.792969 160.453125 70.25 C 160.273438 70.707031 160.171875 71.371094 160.164062 72.230469 C 160.414062 71.855469 160.714844 71.578125 161.078125 71.394531 C 161.453125 71.203125 161.839844 71.105469 162.246094 71.105469 C 162.953125 71.105469 163.546875 71.363281 164.039062 71.875 C 164.539062 72.390625 164.789062 73.058594 164.789062 73.875 C 164.789062 74.417969 164.667969 74.925781 164.433594 75.394531 C 164.195312 75.855469 163.875 76.207031 163.476562 76.457031 C 163.070312 76.691406 162.609375 76.8125 162.101562 76.8125 C 161.226562 76.8125 160.507812 76.496094 159.953125 75.855469 C 159.398438 75.203125 159.121094 74.136719 159.121094 72.644531 C 159.121094 70.996094 159.421875 69.785156 160.039062 69.019531 C 160.5625 68.371094 161.289062 68.042969 162.203125 68.042969 C 162.871094 68.042969 163.417969 68.238281 163.851562 68.625 C 164.277344 69 164.542969 69.519531 164.640625 70.1875 Z M 160.328125 73.875 C 160.328125 74.25 160.402344 74.605469 160.558594 74.9375 C 160.710938 75.261719 160.921875 75.511719 161.203125 75.6875 C 161.480469 75.855469 161.773438 75.9375 162.078125 75.9375 C 162.523438 75.9375 162.902344 75.765625 163.226562 75.417969 C 163.542969 75.058594 163.703125 74.5625 163.703125 73.9375 C 163.703125 73.34375 163.542969 72.875 163.226562 72.542969 C 162.917969 72.199219 162.523438 72.019531 162.039062 72.019531 C 161.5625 72.019531 161.164062 72.199219 160.828125 72.542969 C 160.496094 72.875 160.328125 73.324219 160.328125 73.875 Z M 160.328125 73.875 "/>
<path style="fill-rule:nonzero;fill:rgb(69.803923%,85.09804%,100%);fill-opacity:1;stroke-width:1;stroke-linecap:round;stroke-linejoin:round;stroke:rgb(0%,0%,0%);stroke-opacity:1;stroke-miterlimit:10;" d="M 30 -7.500977 L 51 -7.500977 L 51 13.499023 L 30 13.499023 Z M 30 -7.500977 " transform="matrix(1.333333,0,0,1.333333,-4,69.333333)"/>
<path style=" stroke:none;fill-rule:nonzero;fill:rgb(0%,0%,0%);fill-opacity:1;" d="M 52.703125 75.644531 L 52.703125 76.667969 L 47.015625 76.667969 C 47.015625 76.417969 47.058594 76.175781 47.140625 75.9375 C 47.292969 75.550781 47.527344 75.167969 47.851562 74.792969 C 48.167969 74.417969 48.625 73.988281 49.226562 73.5 C 50.152344 72.722656 50.777344 72.113281 51.101562 71.667969 C 51.433594 71.222656 51.601562 70.800781 51.601562 70.394531 C 51.601562 69.980469 51.445312 69.636719 51.140625 69.355469 C 50.851562 69.0625 50.464844 68.917969 49.996094 68.917969 C 49.480469 68.917969 49.070312 69.074219 48.765625 69.375 C 48.460938 69.683594 48.308594 70.105469 48.308594 70.644531 L 47.226562 70.519531 C 47.292969 69.71875 47.570312 69.105469 48.058594 68.6875 C 48.542969 68.261719 49.195312 68.042969 50.015625 68.042969 C 50.835938 68.042969 51.480469 68.269531 51.953125 68.730469 C 52.4375 69.1875 52.683594 69.75 52.683594 70.417969 C 52.683594 70.765625 52.609375 71.105469 52.476562 71.4375 C 52.335938 71.769531 52.101562 72.125 51.765625 72.5 C 51.445312 72.863281 50.914062 73.363281 50.164062 74 C 49.523438 74.53125 49.109375 74.890625 48.933594 75.082031 C 48.75 75.28125 48.605469 75.46875 48.496094 75.644531 Z M 52.703125 75.644531 "/>
<path style="fill-rule:nonzero;fill:rgb(100%,100%,100%);fill-opacity:1;stroke-width:1;stroke-linecap:round;stroke-linejoin:round;stroke:rgb(0%,0%,0%);stroke-opacity:1;stroke-miterlimit:10;" d="M 93 -7.500977 L 114 -7.500977 L 114 13.499023 L 93 13.499023 Z M 93 -7.500977 " transform="matrix(1.333333,0,0,1.333333,-4,69.333333)"/>
<path style=" stroke:none;fill-rule:nonzero;fill:rgb(0%,0%,0%);fill-opacity:1;" d="M 131.164062 74.417969 L 132.265625 74.3125 C 132.351562 74.855469 132.539062 75.265625 132.828125 75.542969 C 133.132812 75.808594 133.496094 75.9375 133.914062 75.9375 C 134.421875 75.9375 134.855469 75.75 135.203125 75.375 C 135.5625 74.988281 135.746094 74.480469 135.746094 73.855469 C 135.746094 73.246094 135.570312 72.765625 135.226562 72.417969 C 134.890625 72.074219 134.453125 71.894531 133.914062 71.894531 C 133.5625 71.894531 133.25 71.980469 132.976562 72.144531 C 132.710938 72.300781 132.496094 72.496094 132.328125 72.730469 L 131.351562 72.605469 L 132.183594 68.1875 L 136.453125 68.1875 L 136.453125 69.207031 L 133.015625 69.207031 L 132.558594 71.5 C 133.070312 71.15625 133.609375 70.980469 134.183594 70.980469 C 134.933594 70.980469 135.5625 71.238281 136.078125 71.75 C 136.589844 72.265625 136.851562 72.933594 136.851562 73.75 C 136.851562 74.53125 136.625 75.203125 136.183594 75.769531 C 135.625 76.46875 134.871094 76.8125 133.914062 76.8125 C 133.132812 76.8125 132.496094 76.597656 131.996094 76.167969 C 131.507812 75.722656 131.230469 75.140625 131.164062 74.417969 Z M 131.164062 74.417969 "/>
<path style="fill-rule:nonzero;fill:rgb(69.803923%,85.09804%,100%);fill-opacity:1;stroke-width:1;stroke-linecap:round;stroke-linejoin:round;stroke:rgb(0%,0%,0%);stroke-opacity:1;stroke-miterlimit:10;" d="M 9 -7.500977 L 30 -7.500977 L 30 13.499023 L 9 13.499023 Z M 9 -7.500977 " transform="matrix(1.333333,0,0,1.333333,-4,69.333333)"/>
<path style=" stroke:none;fill-rule:nonzero;fill:rgb(0%,0%,0%);fill-opacity:1;" d="M 23.140625 76.667969 L 22.078125 76.667969 L 22.078125 69.9375 C 21.828125 70.1875 21.496094 70.4375 21.078125 70.6875 C 20.664062 70.925781 20.292969 71.097656 19.976562 71.207031 L 19.976562 70.1875 C 20.558594 69.925781 21.070312 69.597656 21.515625 69.207031 C 21.960938 68.808594 22.273438 68.417969 22.453125 68.042969 L 23.140625 68.042969 Z M 23.140625 76.667969 "/>
<path style="fill-rule:nonzero;fill:rgb(100%,100%,100%);fill-opacity:1;stroke-width:1;stroke-linecap:round;stroke-linejoin:round;stroke:rgb(0%,0%,0%);stroke-opacity:1;stroke-miterlimit:10;" d="M 72 -7.500977 L 93 -7.500977 L 93 13.499023 L 72 13.499023 Z M 72 -7.500977 " transform="matrix(1.333333,0,0,1.333333,-4,69.333333)"/>
<path style=" stroke:none;fill-rule:nonzero;fill:rgb(0%,0%,0%);fill-opacity:1;" d="M 106.539062 76.667969 L 106.539062 74.605469 L 102.808594 74.605469 L 102.808594 73.644531 L 106.726562 68.082031 L 107.601562 68.082031 L 107.601562 73.644531 L 108.765625 73.644531 L 108.765625 74.605469 L 107.601562 74.605469 L 107.601562 76.667969 Z M 106.539062 73.644531 L 106.539062 69.769531 L 103.851562 73.644531 Z M 106.539062 73.644531 "/>
<path style="fill-rule:nonzero;fill:rgb(69.803923%,85.09804%,100%);fill-opacity:1;stroke-width:1;stroke-linecap:round;stroke-linejoin:round;stroke:rgb(0%,0%,0%);stroke-opacity:1;stroke-miterlimit:10;" d="M 211.21875 -7.500977 L 232.21875 -7.500977 L 232.21875 13.499023 L 211.21875 13.499023 Z M 211.21875 -7.500977 " transform="matrix(1.333333,0,0,1.333333,-4,69.333333)"/>
<path style=" stroke:none;fill-rule:nonzero;fill:rgb(0%,0%,0%);fill-opacity:1;" d="M 292.164062 76.667969 L 292.164062 74.605469 L 288.433594 74.605469 L 288.433594 73.644531 L 292.351562 68.082031 L 293.226562 68.082031 L 293.226562 73.644531 L 294.394531 73.644531 L 294.394531 74.605469 L 293.226562 74.605469 L 293.226562 76.667969 Z M 292.164062 73.644531 L 292.164062 69.769531 L 289.476562 73.644531 Z M 292.164062 73.644531 "/>
<path style="fill-rule:nonzero;fill:rgb(69.803923%,85.09804%,100%);fill-opacity:1;stroke-width:1;stroke-linecap:round;stroke-linejoin:round;stroke:rgb(0%,0%,0%);stroke-opacity:1;stroke-miterlimit:10;" d="M 190.21875 -7.500977 L 211.21875 -7.500977 L 211.21875 13.499023 L 190.21875 13.499023 Z M 190.21875 -7.500977 " transform="matrix(1.333333,0,0,1.333333,-4,69.333333)"/>
<path style=" stroke:none;fill-rule:nonzero;fill:rgb(0%,0%,0%);fill-opacity:1;" d="M 260.789062 74.394531 L 261.851562 74.25 C 261.976562 74.847656 262.175781 75.28125 262.457031 75.542969 C 262.746094 75.808594 263.105469 75.9375 263.539062 75.9375 C 264.023438 75.9375 264.433594 75.769531 264.769531 75.4375 C 265.113281 75.09375 265.289062 74.660156 265.289062 74.144531 C 265.289062 73.660156 265.128906 73.265625 264.808594 72.957031 C 264.503906 72.640625 264.105469 72.480469 263.621094 72.480469 C 263.414062 72.480469 263.164062 72.519531 262.871094 72.605469 L 262.996094 71.667969 C 263.066406 71.683594 263.121094 71.6875 263.164062 71.6875 C 263.605469 71.6875 264.007812 71.574219 264.371094 71.332031 C 264.730469 71.097656 264.914062 70.738281 264.914062 70.25 C 264.914062 69.863281 264.777344 69.542969 264.519531 69.292969 C 264.253906 69.042969 263.914062 68.917969 263.496094 68.917969 C 263.089844 68.917969 262.753906 69.050781 262.476562 69.3125 C 262.210938 69.5625 262.039062 69.949219 261.957031 70.457031 L 260.894531 70.269531 C 261.027344 69.5625 261.320312 69.015625 261.769531 68.625 C 262.226562 68.238281 262.792969 68.042969 263.476562 68.042969 C 263.945312 68.042969 264.378906 68.144531 264.769531 68.355469 C 265.167969 68.550781 265.476562 68.824219 265.683594 69.167969 C 265.894531 69.515625 265.996094 69.886719 265.996094 70.269531 C 265.996094 70.644531 265.894531 70.988281 265.683594 71.292969 C 265.488281 71.597656 265.195312 71.84375 264.808594 72.019531 C 265.320312 72.136719 265.714844 72.375 265.996094 72.75 C 266.273438 73.113281 266.414062 73.574219 266.414062 74.125 C 266.414062 74.875 266.132812 75.515625 265.582031 76.042969 C 265.039062 76.558594 264.351562 76.8125 263.519531 76.8125 C 262.769531 76.8125 262.144531 76.59375 261.644531 76.144531 C 261.144531 75.703125 260.855469 75.121094 260.789062 74.394531 Z M 260.789062 74.394531 "/>
<path style="fill-rule:nonzero;fill:rgb(100%,100%,100%);fill-opacity:1;stroke-width:1;stroke-linecap:round;stroke-linejoin:round;stroke:rgb(0%,0%,0%);stroke-opacity:1;stroke-miterlimit:10;" d="M 377.4375 -7.500977 L 398.4375 -7.500977 L 398.4375 13.499023 L 377.4375 13.499023 Z M 377.4375 -7.500977 " transform="matrix(1.333333,0,0,1.333333,-4,69.333333)"/>
<path style=" stroke:none;fill-rule:nonzero;fill:rgb(0%,0%,0%);fill-opacity:1;" d="M 507.078125 74.394531 L 508.140625 74.25 C 508.265625 74.847656 508.464844 75.28125 508.746094 75.542969 C 509.039062 75.808594 509.398438 75.9375 509.828125 75.9375 C 510.3125 75.9375 510.726562 75.769531 511.058594 75.4375 C 511.402344 75.09375 511.578125 74.660156 511.578125 74.144531 C 511.578125 73.660156 511.417969 73.265625 511.101562 72.957031 C 510.792969 72.640625 510.398438 72.480469 509.914062 72.480469 C 509.703125 72.480469 509.453125 72.519531 509.164062 72.605469 L 509.289062 71.667969 C 509.355469 71.683594 509.414062 71.6875 509.453125 71.6875 C 509.898438 71.6875 510.296875 71.574219 510.664062 71.332031 C 511.023438 71.097656 511.203125 70.738281 511.203125 70.25 C 511.203125 69.863281 511.070312 69.542969 510.808594 69.292969 C 510.542969 69.042969 510.203125 68.917969 509.789062 68.917969 C 509.382812 68.917969 509.042969 69.050781 508.765625 69.3125 C 508.5 69.5625 508.328125 69.949219 508.246094 70.457031 L 507.183594 70.269531 C 507.320312 69.5625 507.609375 69.015625 508.058594 68.625 C 508.515625 68.238281 509.085938 68.042969 509.765625 68.042969 C 510.234375 68.042969 510.667969 68.144531 511.058594 68.355469 C 511.460938 68.550781 511.765625 68.824219 511.976562 69.167969 C 512.183594 69.515625 512.289062 69.886719 512.289062 70.269531 C 512.289062 70.644531 512.183594 70.988281 511.976562 71.292969 C 511.777344 71.597656 511.484375 71.84375 511.101562 72.019531 C 511.609375 72.136719 512.007812 72.375 512.289062 72.75 C 512.5625 73.113281 512.703125 73.574219 512.703125 74.125 C 512.703125 74.875 512.421875 75.515625 511.871094 76.042969 C 511.328125 76.558594 510.640625 76.8125 509.808594 76.8125 C 509.058594 76.8125 508.433594 76.59375 507.933594 76.144531 C 507.433594 75.703125 507.148438 75.121094 507.078125 74.394531 Z M 507.078125 74.394531 "/>
<path style=" stroke:none;fill-rule:nonzero;fill:rgb(0%,0%,0%);fill-opacity:1;" d="M 519.292969 75.644531 L 519.292969 76.667969 L 513.605469 76.667969 C 513.605469 76.417969 513.648438 76.175781 513.730469 75.9375 C 513.882812 75.550781 514.117188 75.167969 514.441406 74.792969 C 514.757812 74.417969 515.214844 73.988281 515.816406 73.5 C 516.742188 72.722656 517.367188 72.113281 517.691406 71.667969 C 518.023438 71.222656 518.191406 70.800781 518.191406 70.394531 C 518.191406 69.980469 518.035156 69.636719 517.730469 69.355469 C 517.441406 69.0625 517.054688 68.917969 516.585938 68.917969 C 516.070312 68.917969 515.660156 69.074219 515.355469 69.375 C 515.050781 69.683594 514.898438 70.105469 514.898438 70.644531 L 513.816406 70.519531 C 513.882812 69.71875 514.160156 69.105469 514.648438 68.6875 C 515.132812 68.261719 515.785156 68.042969 516.605469 68.042969 C 517.425781 68.042969 518.070312 68.269531 518.542969 68.730469 C 519.027344 69.1875 519.273438 69.75 519.273438 70.417969 C 519.273438 70.765625 519.199219 71.105469 519.066406 71.4375 C 518.925781 71.769531 518.691406 72.125 518.355469 72.5 C 518.035156 72.863281 517.503906 73.363281 516.753906 74 C 516.113281 74.53125 515.699219 74.890625 515.523438 75.082031 C 515.339844 75.28125 515.195312 75.46875 515.085938 75.644531 Z M 519.292969 75.644531 "/>
<path style="fill-rule:nonzero;fill:rgb(69.803923%,85.09804%,100%);fill-opacity:1;stroke-width:1;stroke-linecap:round;stroke-linejoin:round;stroke:rgb(0%,0%,0%);stroke-opacity:1;stroke-miterlimit:10;" d="M 272.4375 -7.500977 L 293.4375 -7.500977 L 293.4375 13.499023 L 272.4375 13.499023 Z M 272.4375 -7.500977 " transform="matrix(1.333333,0,0,1.333333,-4,69.333333)"/>
<path style=" stroke:none;fill-rule:nonzero;fill:rgb(0%,0%,0%);fill-opacity:1;" d="M 375.957031 75.644531 L 375.957031 76.667969 L 370.269531 76.667969 C 370.269531 76.417969 370.3125 76.175781 370.394531 75.9375 C 370.546875 75.550781 370.78125 75.167969 371.101562 74.792969 C 371.421875 74.417969 371.878906 73.988281 372.476562 73.5 C 373.40625 72.722656 374.03125 72.113281 374.351562 71.667969 C 374.6875 71.222656 374.851562 70.800781 374.851562 70.394531 C 374.851562 69.980469 374.695312 69.636719 374.394531 69.355469 C 374.101562 69.0625 373.71875 68.917969 373.25 68.917969 C 372.734375 68.917969 372.320312 69.074219 372.019531 69.375 C 371.710938 69.683594 371.5625 70.105469 371.5625 70.644531 L 370.476562 70.519531 C 370.546875 69.71875 370.820312 69.105469 371.3125 68.6875 C 371.796875 68.261719 372.445312 68.042969 373.269531 68.042969 C 374.085938 68.042969 374.734375 68.269531 375.207031 68.730469 C 375.691406 69.1875 375.9375 69.75 375.9375 70.417969 C 375.9375 70.765625 375.863281 71.105469 375.726562 71.4375 C 375.585938 71.769531 375.351562 72.125 375.019531 72.5 C 374.695312 72.863281 374.164062 73.363281 373.414062 74 C 372.773438 74.53125 372.363281 74.890625 372.1875 75.082031 C 372.003906 75.28125 371.859375 75.46875 371.75 75.644531 Z M 375.957031 75.644531 "/>
<path style="fill-rule:nonzero;fill:rgb(100%,100%,100%);fill-opacity:1;stroke-width:1;stroke-linecap:round;stroke-linejoin:round;stroke:rgb(0%,0%,0%);stroke-opacity:1;stroke-miterlimit:10;" d="M 293.4375 -7.500977 L 314.4375 -7.500977 L 314.4375 13.499023 L 293.4375 13.499023 Z M 293.4375 -7.500977 " transform="matrix(1.333333,0,0,1.333333,-4,69.333333)"/>
<path style=" stroke:none;fill-rule:nonzero;fill:rgb(0%,0%,0%);fill-opacity:1;" d="M 400.039062 72 C 399.59375 71.847656 399.269531 71.625 399.0625 71.332031 C 398.851562 71.03125 398.75 70.667969 398.75 70.25 C 398.75 69.625 398.96875 69.105469 399.414062 68.6875 C 399.875 68.261719 400.46875 68.042969 401.207031 68.042969 C 401.957031 68.042969 402.5625 68.265625 403.019531 68.707031 C 403.476562 69.140625 403.707031 69.667969 403.707031 70.292969 C 403.707031 70.683594 403.601562 71.03125 403.394531 71.332031 C 403.1875 71.625 402.863281 71.847656 402.4375 72 C 402.960938 72.183594 403.363281 72.46875 403.644531 72.855469 C 403.921875 73.230469 404.0625 73.683594 404.0625 74.207031 C 404.0625 74.949219 403.796875 75.5625 403.269531 76.0625 C 402.753906 76.5625 402.070312 76.8125 401.226562 76.8125 C 400.378906 76.8125 399.691406 76.5625 399.164062 76.0625 C 398.648438 75.5625 398.394531 74.9375 398.394531 74.1875 C 398.394531 73.636719 398.53125 73.167969 398.8125 72.792969 C 399.101562 72.40625 399.507812 72.140625 400.039062 72 Z M 399.832031 70.230469 C 399.832031 70.636719 399.957031 70.96875 400.207031 71.230469 C 400.46875 71.480469 400.8125 71.605469 401.226562 71.605469 C 401.644531 71.605469 401.976562 71.480469 402.226562 71.230469 C 402.488281 70.96875 402.625 70.644531 402.625 70.269531 C 402.625 69.894531 402.488281 69.578125 402.226562 69.3125 C 401.960938 69.050781 401.628906 68.917969 401.226562 68.917969 C 400.820312 68.917969 400.488281 69.050781 400.226562 69.3125 C 399.960938 69.5625 399.832031 69.871094 399.832031 70.230469 Z M 399.476562 74.1875 C 399.476562 74.496094 399.546875 74.785156 399.6875 75.0625 C 399.835938 75.34375 400.050781 75.558594 400.332031 75.707031 C 400.609375 75.863281 400.914062 75.9375 401.25 75.9375 C 401.75 75.9375 402.15625 75.78125 402.476562 75.457031 C 402.8125 75.140625 402.976562 74.730469 402.976562 74.230469 C 402.976562 73.71875 402.8125 73.292969 402.476562 72.957031 C 402.144531 72.625 401.71875 72.457031 401.207031 72.457031 C 400.707031 72.457031 400.289062 72.625 399.957031 72.957031 C 399.632812 73.292969 399.476562 73.703125 399.476562 74.1875 Z M 399.476562 74.1875 "/>
<path style="fill-rule:nonzero;fill:rgb(100%,100%,100%);fill-opacity:1;stroke-width:1;stroke-linecap:round;stroke-linejoin:round;stroke:rgb(0%,0%,0%);stroke-opacity:1;stroke-miterlimit:10;" d="M 314.4375 -7.500977 L 335.4375 -7.500977 L 335.4375 13.499023 L 314.4375 13.499023 Z M 314.4375 -7.500977 " transform="matrix(1.333333,0,0,1.333333,-4,69.333333)"/>
<path style=" stroke:none;fill-rule:nonzero;fill:rgb(0%,0%,0%);fill-opacity:1;" d="M 427.058594 76.667969 L 425.996094 76.667969 L 425.996094 69.9375 C 425.746094 70.1875 425.414062 70.4375 424.996094 70.6875 C 424.578125 70.925781 424.210938 71.097656 423.890625 71.207031 L 423.890625 70.1875 C 424.476562 69.925781 424.984375 69.597656 425.433594 69.207031 C 425.875 68.808594 426.1875 68.417969 426.371094 68.042969 L 427.058594 68.042969 Z M 427.058594 76.667969 "/>
<path style=" stroke:none;fill-rule:nonzero;fill:rgb(0%,0%,0%);fill-opacity:1;" d="M 433.128906 76.667969 L 433.128906 74.605469 L 429.398438 74.605469 L 429.398438 73.644531 L 433.316406 68.082031 L 434.191406 68.082031 L 434.191406 73.644531 L 435.355469 73.644531 L 435.355469 74.605469 L 434.191406 74.605469 L 434.191406 76.667969 Z M 433.128906 73.644531 L 433.128906 69.769531 L 430.441406 73.644531 Z M 433.128906 73.644531 "/>
<path style="fill-rule:nonzero;fill:rgb(100%,100%,100%);fill-opacity:1;stroke-width:1;stroke-linecap:round;stroke-linejoin:round;stroke:rgb(0%,0%,0%);stroke-opacity:1;stroke-miterlimit:10;" d="M 335.4375 -7.500977 L 356.4375 -7.500977 L 356.4375 13.499023 L 335.4375 13.499023 Z M 335.4375 -7.500977 " transform="matrix(1.333333,0,0,1.333333,-4,69.333333)"/>
<path style=" stroke:none;fill-rule:nonzero;fill:rgb(0%,0%,0%);fill-opacity:1;" d="M 456.621094 75.644531 L 456.621094 76.667969 L 450.933594 76.667969 C 450.933594 76.417969 450.976562 76.175781 451.058594 75.9375 C 451.210938 75.550781 451.445312 75.167969 451.765625 74.792969 C 452.085938 74.417969 452.542969 73.988281 453.140625 73.5 C 454.070312 72.722656 454.695312 72.113281 455.015625 71.667969 C 455.351562 71.222656 455.515625 70.800781 455.515625 70.394531 C 455.515625 69.980469 455.359375 69.636719 455.058594 69.355469 C 454.765625 69.0625 454.382812 68.917969 453.914062 68.917969 C 453.398438 68.917969 452.984375 69.074219 452.683594 69.375 C 452.375 69.683594 452.226562 70.105469 452.226562 70.644531 L 451.140625 70.519531 C 451.210938 69.71875 451.484375 69.105469 451.976562 68.6875 C 452.460938 68.261719 453.109375 68.042969 453.933594 68.042969 C 454.75 68.042969 455.398438 68.269531 455.871094 68.730469 C 456.355469 69.1875 456.601562 69.75 456.601562 70.417969 C 456.601562 70.765625 456.527344 71.105469 456.390625 71.4375 C 456.25 71.769531 456.015625 72.125 455.683594 72.5 C 455.359375 72.863281 454.828125 73.363281 454.078125 74 C 453.4375 74.53125 453.027344 74.890625 452.851562 75.082031 C 452.667969 75.28125 452.523438 75.46875 452.414062 75.644531 Z M 456.621094 75.644531 "/>
<path style=" stroke:none;fill-rule:nonzero;fill:rgb(0%,0%,0%);fill-opacity:1;" d="M 457.753906 72.4375 C 457.753906 71.425781 457.855469 70.605469 458.066406 69.980469 C 458.273438 69.355469 458.574219 68.875 458.980469 68.542969 C 459.398438 68.207031 459.917969 68.042969 460.542969 68.042969 C 461.011719 68.042969 461.425781 68.140625 461.773438 68.332031 C 462.117188 68.515625 462.402344 68.78125 462.628906 69.125 C 462.847656 69.472656 463.023438 69.894531 463.148438 70.394531 C 463.285156 70.894531 463.355469 71.578125 463.355469 72.4375 C 463.355469 73.4375 463.253906 74.25 463.042969 74.875 C 462.835938 75.488281 462.523438 75.96875 462.105469 76.3125 C 461.699219 76.644531 461.179688 76.8125 460.542969 76.8125 C 459.722656 76.8125 459.074219 76.515625 458.605469 75.917969 C 458.035156 75.207031 457.753906 74.050781 457.753906 72.4375 Z M 458.835938 72.4375 C 458.835938 73.84375 458.992188 74.78125 459.316406 75.25 C 459.648438 75.707031 460.054688 75.9375 460.542969 75.9375 C 461.027344 75.9375 461.441406 75.707031 461.773438 75.25 C 462.105469 74.78125 462.273438 73.84375 462.273438 72.4375 C 462.273438 71.019531 462.105469 70.082031 461.773438 69.625 C 461.441406 69.15625 461.027344 68.917969 460.542969 68.917969 C 460.054688 68.917969 459.667969 69.121094 459.378906 69.519531 C 459.011719 70.050781 458.835938 71.019531 458.835938 72.4375 Z M 458.835938 72.4375 "/>
<path style="fill-rule:nonzero;fill:rgb(100%,100%,100%);fill-opacity:1;stroke-width:1;stroke-linecap:round;stroke-linejoin:round;stroke:rgb(0%,0%,0%);stroke-opacity:1;stroke-miterlimit:10;" d="M 356.4375 -7.500977 L 377.4375 -7.500977 L 377.4375 13.499023 L 356.4375 13.499023 Z M 356.4375 -7.500977 " transform="matrix(1.333333,0,0,1.333333,-4,69.333333)"/>
<path style=" stroke:none;fill-rule:nonzero;fill:rgb(0%,0%,0%);fill-opacity:1;" d="M 484.621094 75.644531 L 484.621094 76.667969 L 478.933594 76.667969 C 478.933594 76.417969 478.976562 76.175781 479.058594 75.9375 C 479.210938 75.550781 479.445312 75.167969 479.765625 74.792969 C 480.085938 74.417969 480.542969 73.988281 481.140625 73.5 C 482.070312 72.722656 482.695312 72.113281 483.015625 71.667969 C 483.351562 71.222656 483.515625 70.800781 483.515625 70.394531 C 483.515625 69.980469 483.359375 69.636719 483.058594 69.355469 C 482.765625 69.0625 482.382812 68.917969 481.914062 68.917969 C 481.398438 68.917969 480.984375 69.074219 480.683594 69.375 C 480.375 69.683594 480.226562 70.105469 480.226562 70.644531 L 479.140625 70.519531 C 479.210938 69.71875 479.484375 69.105469 479.976562 68.6875 C 480.460938 68.261719 481.109375 68.042969 481.933594 68.042969 C 482.75 68.042969 483.398438 68.269531 483.871094 68.730469 C 484.355469 69.1875 484.601562 69.75 484.601562 70.417969 C 484.601562 70.765625 484.527344 71.105469 484.390625 71.4375 C 484.25 71.769531 484.015625 72.125 483.683594 72.5 C 483.359375 72.863281 482.828125 73.363281 482.078125 74 C 481.4375 74.53125 481.027344 74.890625 480.851562 75.082031 C 480.667969 75.28125 480.523438 75.46875 480.414062 75.644531 Z M 484.621094 75.644531 "/>
<path style=" stroke:none;fill-rule:nonzero;fill:rgb(0%,0%,0%);fill-opacity:1;" d="M 491.230469 70.1875 L 490.167969 70.269531 C 490.085938 69.855469 489.949219 69.550781 489.773438 69.355469 C 489.492188 69.0625 489.148438 68.917969 488.730469 68.917969 C 488.382812 68.917969 488.085938 69.011719 487.835938 69.1875 C 487.503906 69.4375 487.238281 69.792969 487.042969 70.25 C 486.863281 70.707031 486.761719 71.371094 486.753906 72.230469 C 487.003906 71.855469 487.304688 71.578125 487.667969 71.394531 C 488.042969 71.203125 488.429688 71.105469 488.835938 71.105469 C 489.542969 71.105469 490.136719 71.363281 490.628906 71.875 C 491.128906 72.390625 491.378906 73.058594 491.378906 73.875 C 491.378906 74.417969 491.257812 74.925781 491.023438 75.394531 C 490.785156 75.855469 490.464844 76.207031 490.066406 76.457031 C 489.660156 76.691406 489.199219 76.8125 488.691406 76.8125 C 487.816406 76.8125 487.097656 76.496094 486.542969 75.855469 C 485.988281 75.203125 485.710938 74.136719 485.710938 72.644531 C 485.710938 70.996094 486.011719 69.785156 486.628906 69.019531 C 487.152344 68.371094 487.878906 68.042969 488.792969 68.042969 C 489.460938 68.042969 490.007812 68.238281 490.441406 68.625 C 490.867188 69 491.132812 69.519531 491.230469 70.1875 Z M 486.917969 73.875 C 486.917969 74.25 486.992188 74.605469 487.148438 74.9375 C 487.300781 75.261719 487.511719 75.511719 487.792969 75.6875 C 488.070312 75.855469 488.363281 75.9375 488.667969 75.9375 C 489.113281 75.9375 489.492188 75.765625 489.816406 75.417969 C 490.132812 75.058594 490.292969 74.5625 490.292969 73.9375 C 490.292969 73.34375 490.132812 72.875 489.816406 72.542969 C 489.507812 72.199219 489.113281 72.019531 488.628906 72.019531 C 488.152344 72.019531 487.753906 72.199219 487.417969 72.542969 C 487.085938 72.875 486.917969 73.324219 486.917969 73.875 Z M 486.917969 73.875 "/>
<path style="fill-rule:nonzero;fill:rgb(69.803923%,85.09804%,100%);fill-opacity:1;stroke-width:1;stroke-linecap:round;stroke-linejoin:round;stroke:rgb(0%,0%,0%);stroke-opacity:1;stroke-miterlimit:10;" d="M 3.500977 9.5 L 24.500977 9.5 L 24.500977 30.5 L 3.500977 30.5 Z M 3.500977 9.5 " transform="matrix(1.333333,0,0,1.333333,-4,69.333333)"/>
<path style=" stroke:none;fill-rule:nonzero;fill:rgb(0%,0%,0%);fill-opacity:1;" d="M 11.828125 95.105469 C 11.828125 94.09375 11.933594 93.269531 12.140625 92.644531 C 12.351562 92.019531 12.652344 91.542969 13.058594 91.207031 C 13.476562 90.875 13.996094 90.707031 14.621094 90.707031 C 15.089844 90.707031 15.5 90.808594 15.851562 91 C 16.195312 91.183594 16.480469 91.449219 16.703125 91.792969 C 16.921875 92.140625 17.101562 92.5625 17.226562 93.0625 C 17.359375 93.5625 17.433594 94.246094 17.433594 95.105469 C 17.433594 96.105469 17.328125 96.917969 17.121094 97.542969 C 16.914062 98.15625 16.601562 98.636719 16.183594 98.980469 C 15.777344 99.3125 15.257812 99.480469 14.621094 99.480469 C 13.796875 99.480469 13.152344 99.183594 12.683594 98.582031 C 12.109375 97.875 11.828125 96.71875 11.828125 95.105469 Z M 12.914062 95.105469 C 12.914062 96.511719 13.070312 97.449219 13.390625 97.917969 C 13.726562 98.375 14.132812 98.605469 14.621094 98.605469 C 15.105469 98.605469 15.515625 98.375 15.851562 97.917969 C 16.183594 97.449219 16.351562 96.511719 16.351562 95.105469 C 16.351562 93.6875 16.183594 92.75 15.851562 92.292969 C 15.515625 91.824219 15.105469 91.582031 14.621094 91.582031 C 14.132812 91.582031 13.746094 91.785156 13.453125 92.1875 C 13.089844 92.71875 12.914062 93.6875 12.914062 95.105469 Z M 12.914062 95.105469 "/>
<path style="fill-rule:nonzero;fill:rgb(69.803923%,85.09804%,100%);fill-opacity:1;stroke-width:1;stroke-linecap:round;stroke-linejoin:round;stroke:rgb(0%,0%,0%);stroke-opacity:1;stroke-miterlimit:10;" d="M 24.500977 9.5 L 45.500977 9.5 L 45.500977 30.5 L 24.500977 30.5 Z M 24.500977 9.5 " transform="matrix(1.333333,0,0,1.333333,-4,69.333333)"/>
<path style=" stroke:none;fill-rule:nonzero;fill:rgb(0%,0%,0%);fill-opacity:1;" d="M 43.808594 99.332031 L 42.746094 99.332031 L 42.746094 92.605469 C 42.496094 92.855469 42.164062 93.105469 41.746094 93.355469 C 41.328125 93.59375 40.960938 93.765625 40.640625 93.875 L 40.640625 92.855469 C 41.226562 92.59375 41.734375 92.265625 42.183594 91.875 C 42.625 91.472656 42.9375 91.082031 43.121094 90.707031 L 43.808594 90.707031 Z M 43.808594 99.332031 "/>
<path style="fill-rule:nonzero;fill:rgb(100%,100%,100%);fill-opacity:1;stroke-width:1;stroke-linecap:round;stroke-linejoin:round;stroke:rgb(0%,0%,0%);stroke-opacity:1;stroke-miterlimit:10;" d="M 45.500977 9.5 L 66.500977 9.5 L 66.500977 30.5 L 45.500977 30.5 Z M 45.500977 9.5 " transform="matrix(1.333333,0,0,1.333333,-4,69.333333)"/>
<path style=" stroke:none;fill-rule:nonzero;fill:rgb(0%,0%,0%);fill-opacity:1;" d="M 73.371094 98.3125 L 73.371094 99.332031 L 67.683594 99.332031 C 67.683594 99.082031 67.726562 98.84375 67.808594 98.605469 C 67.960938 98.21875 68.195312 97.832031 68.515625 97.457031 C 68.835938 97.082031 69.292969 96.65625 69.890625 96.167969 C 70.820312 95.390625 71.445312 94.78125 71.765625 94.332031 C 72.101562 93.890625 72.265625 93.46875 72.265625 93.0625 C 72.265625 92.644531 72.109375 92.300781 71.808594 92.019531 C 71.515625 91.730469 71.132812 91.582031 70.664062 91.582031 C 70.148438 91.582031 69.734375 91.738281 69.433594 92.042969 C 69.125 92.347656 68.976562 92.769531 68.976562 93.3125 L 67.890625 93.1875 C 67.960938 92.386719 68.234375 91.769531 68.726562 91.355469 C 69.210938 90.925781 69.859375 90.707031 70.683594 90.707031 C 71.5 90.707031 72.148438 90.9375 72.621094 91.394531 C 73.105469 91.855469 73.351562 92.417969 73.351562 93.082031 C 73.351562 93.433594 73.277344 93.769531 73.140625 94.105469 C 73 94.4375 72.765625 94.792969 72.433594 95.167969 C 72.109375 95.53125 71.578125 96.03125 70.828125 96.667969 C 70.1875 97.199219 69.777344 97.558594 69.601562 97.75 C 69.417969 97.949219 69.273438 98.136719 69.164062 98.3125 Z M 73.371094 98.3125 "/>
<path style="fill-rule:nonzero;fill:rgb(100%,100%,100%);fill-opacity:1;stroke-width:1;stroke-linecap:round;stroke-linejoin:round;stroke:rgb(0%,0%,0%);stroke-opacity:1;stroke-miterlimit:10;" d="M 66.500977 9.5 L 87.500977 9.5 L 87.500977 30.5 L 66.500977 30.5 Z M 66.500977 9.5 " transform="matrix(1.333333,0,0,1.333333,-4,69.333333)"/>
<path style=" stroke:none;fill-rule:nonzero;fill:rgb(0%,0%,0%);fill-opacity:1;" d="M 95.828125 97.0625 L 96.890625 96.917969 C 97.015625 97.515625 97.214844 97.949219 97.496094 98.207031 C 97.789062 98.472656 98.148438 98.605469 98.578125 98.605469 C 99.0625 98.605469 99.476562 98.4375 99.808594 98.105469 C 100.152344 97.761719 100.328125 97.328125 100.328125 96.8125 C 100.328125 96.328125 100.167969 95.933594 99.851562 95.625 C 99.542969 95.308594 99.148438 95.144531 98.664062 95.144531 C 98.453125 95.144531 98.203125 95.1875 97.914062 95.269531 L 98.039062 94.332031 C 98.105469 94.347656 98.164062 94.355469 98.203125 94.355469 C 98.648438 94.355469 99.046875 94.238281 99.414062 94 C 99.773438 93.765625 99.953125 93.40625 99.953125 92.917969 C 99.953125 92.53125 99.820312 92.207031 99.558594 91.957031 C 99.292969 91.707031 98.953125 91.582031 98.539062 91.582031 C 98.132812 91.582031 97.792969 91.71875 97.515625 91.980469 C 97.25 92.230469 97.078125 92.613281 96.996094 93.125 L 95.933594 92.9375 C 96.070312 92.230469 96.359375 91.683594 96.808594 91.292969 C 97.265625 90.90625 97.835938 90.707031 98.515625 90.707031 C 98.984375 90.707031 99.417969 90.8125 99.808594 91.019531 C 100.210938 91.21875 100.515625 91.488281 100.726562 91.832031 C 100.933594 92.183594 101.039062 92.550781 101.039062 92.9375 C 101.039062 93.3125 100.933594 93.65625 100.726562 93.957031 C 100.527344 94.265625 100.234375 94.511719 99.851562 94.6875 C 100.359375 94.800781 100.757812 95.042969 101.039062 95.417969 C 101.3125 95.78125 101.453125 96.238281 101.453125 96.792969 C 101.453125 97.542969 101.171875 98.183594 100.621094 98.707031 C 100.078125 99.222656 99.390625 99.480469 98.558594 99.480469 C 97.808594 99.480469 97.183594 99.261719 96.683594 98.8125 C 96.183594 98.371094 95.898438 97.785156 95.828125 97.0625 Z M 95.828125 97.0625 "/>
<path style="fill-rule:nonzero;fill:rgb(100%,100%,100%);fill-opacity:1;stroke-width:1;stroke-linecap:round;stroke-linejoin:round;stroke:rgb(0%,0%,0%);stroke-opacity:1;stroke-miterlimit:10;" d="M 108.500977 9.5 L 129.500977 9.5 L 129.500977 30.5 L 108.500977 30.5 Z M 108.500977 9.5 " transform="matrix(1.333333,0,0,1.333333,-4,69.333333)"/>
<path style=" stroke:none;fill-rule:nonzero;fill:rgb(0%,0%,0%);fill-opacity:1;" d="M 151.828125 97.082031 L 152.933594 96.980469 C 153.015625 97.519531 153.203125 97.933594 153.496094 98.207031 C 153.796875 98.472656 154.164062 98.605469 154.578125 98.605469 C 155.089844 98.605469 155.523438 98.417969 155.871094 98.042969 C 156.230469 97.65625 156.414062 97.144531 156.414062 96.519531 C 156.414062 95.910156 156.234375 95.433594 155.890625 95.082031 C 155.558594 94.738281 155.121094 94.5625 154.578125 94.5625 C 154.230469 94.5625 153.917969 94.644531 153.640625 94.8125 C 153.375 94.96875 153.164062 95.160156 152.996094 95.394531 L 152.015625 95.269531 L 152.851562 90.855469 L 157.121094 90.855469 L 157.121094 91.875 L 153.683594 91.875 L 153.226562 94.167969 C 153.734375 93.824219 154.277344 93.644531 154.851562 93.644531 C 155.601562 93.644531 156.230469 93.90625 156.746094 94.417969 C 157.257812 94.933594 157.515625 95.597656 157.515625 96.417969 C 157.515625 97.199219 157.292969 97.871094 156.851562 98.4375 C 156.292969 99.136719 155.539062 99.480469 154.578125 99.480469 C 153.796875 99.480469 153.164062 99.265625 152.664062 98.832031 C 152.171875 98.390625 151.898438 97.808594 151.828125 97.082031 Z M 151.828125 97.082031 "/>
<path style="fill-rule:nonzero;fill:rgb(100%,100%,100%);fill-opacity:1;stroke-width:1;stroke-linecap:round;stroke-linejoin:round;stroke:rgb(0%,0%,0%);stroke-opacity:1;stroke-miterlimit:10;" d="M 129.500977 9.5 L 150.500977 9.5 L 150.500977 30.5 L 129.500977 30.5 Z M 129.500977 9.5 " transform="matrix(1.333333,0,0,1.333333,-4,69.333333)"/>
<path style=" stroke:none;fill-rule:nonzero;fill:rgb(0%,0%,0%);fill-opacity:1;" d="M 185.308594 92.855469 L 184.246094 92.9375 C 184.164062 92.519531 184.027344 92.21875 183.851562 92.019531 C 183.570312 91.730469 183.226562 91.582031 182.808594 91.582031 C 182.460938 91.582031 182.164062 91.675781 181.914062 91.855469 C 181.578125 92.105469 181.3125 92.457031 181.121094 92.917969 C 180.9375 93.375 180.839844 94.035156 180.828125 94.894531 C 181.078125 94.519531 181.382812 94.246094 181.746094 94.0625 C 182.121094 93.871094 182.507812 93.769531 182.914062 93.769531 C 183.621094 93.769531 184.214844 94.03125 184.703125 94.542969 C 185.203125 95.058594 185.453125 95.722656 185.453125 96.542969 C 185.453125 97.082031 185.335938 97.59375 185.101562 98.0625 C 184.859375 98.519531 184.542969 98.875 184.140625 99.125 C 183.734375 99.359375 183.277344 99.480469 182.765625 99.480469 C 181.890625 99.480469 181.171875 99.160156 180.621094 98.519531 C 180.0625 97.871094 179.789062 96.800781 179.789062 95.3125 C 179.789062 93.660156 180.089844 92.453125 180.703125 91.6875 C 181.230469 91.035156 181.953125 90.707031 182.871094 90.707031 C 183.539062 90.707031 184.085938 90.90625 184.515625 91.292969 C 184.945312 91.667969 185.210938 92.1875 185.308594 92.855469 Z M 180.996094 96.542969 C 180.996094 96.917969 181.070312 97.269531 181.226562 97.605469 C 181.375 97.925781 181.589844 98.175781 181.871094 98.355469 C 182.148438 98.519531 182.4375 98.605469 182.746094 98.605469 C 183.1875 98.605469 183.570312 98.433594 183.890625 98.082031 C 184.210938 97.722656 184.371094 97.230469 184.371094 96.605469 C 184.371094 96.011719 184.210938 95.542969 183.890625 95.207031 C 183.585938 94.863281 183.1875 94.6875 182.703125 94.6875 C 182.230469 94.6875 181.828125 94.863281 181.496094 95.207031 C 181.164062 95.542969 180.996094 95.988281 180.996094 96.542969 Z M 180.996094 96.542969 "/>
<path style="fill-rule:nonzero;fill:rgb(100%,100%,100%);fill-opacity:1;stroke-width:1;stroke-linecap:round;stroke-linejoin:round;stroke:rgb(0%,0%,0%);stroke-opacity:1;stroke-miterlimit:10;" d="M 87.500977 9.5 L 108.500977 9.5 L 108.500977 30.5 L 87.500977 30.5 Z M 87.500977 9.5 " transform="matrix(1.333333,0,0,1.333333,-4,69.333333)"/>
<path style=" stroke:none;fill-rule:nonzero;fill:rgb(0%,0%,0%);fill-opacity:1;" d="M 127.203125 99.332031 L 127.203125 97.269531 L 123.476562 97.269531 L 123.476562 96.3125 L 127.390625 90.75 L 128.265625 90.75 L 128.265625 96.3125 L 129.433594 96.3125 L 129.433594 97.269531 L 128.265625 97.269531 L 128.265625 99.332031 Z M 127.203125 96.3125 L 127.203125 92.4375 L 124.515625 96.3125 Z M 127.203125 96.3125 "/>
<path style="fill-rule:nonzero;fill:rgb(69.803923%,85.09804%,100%);fill-opacity:1;stroke-width:1;stroke-linecap:round;stroke-linejoin:round;stroke:rgb(0%,0%,0%);stroke-opacity:1;stroke-miterlimit:10;" d="M 206.217773 9.5 L 227.217773 9.5 L 227.217773 30.5 L 206.217773 30.5 Z M 206.217773 9.5 " transform="matrix(1.333333,0,0,1.333333,-4,69.333333)"/>
<path style=" stroke:none;fill-rule:nonzero;fill:rgb(0%,0%,0%);fill-opacity:1;" d="M 287.664062 98.3125 L 287.664062 99.332031 L 281.976562 99.332031 C 281.976562 99.082031 282.019531 98.84375 282.101562 98.605469 C 282.253906 98.21875 282.488281 97.832031 282.808594 97.457031 C 283.128906 97.082031 283.585938 96.65625 284.183594 96.167969 C 285.113281 95.390625 285.738281 94.78125 286.058594 94.332031 C 286.394531 93.890625 286.558594 93.46875 286.558594 93.0625 C 286.558594 92.644531 286.402344 92.300781 286.101562 92.019531 C 285.808594 91.730469 285.425781 91.582031 284.957031 91.582031 C 284.441406 91.582031 284.027344 91.738281 283.726562 92.042969 C 283.417969 92.347656 283.269531 92.769531 283.269531 93.3125 L 282.183594 93.1875 C 282.253906 92.386719 282.527344 91.769531 283.019531 91.355469 C 283.503906 90.925781 284.152344 90.707031 284.976562 90.707031 C 285.792969 90.707031 286.441406 90.9375 286.914062 91.394531 C 287.398438 91.855469 287.644531 92.417969 287.644531 93.082031 C 287.644531 93.433594 287.570312 93.769531 287.433594 94.105469 C 287.292969 94.4375 287.058594 94.792969 286.726562 95.167969 C 286.402344 95.53125 285.871094 96.03125 285.121094 96.667969 C 284.480469 97.199219 284.070312 97.558594 283.894531 97.75 C 283.710938 97.949219 283.566406 98.136719 283.457031 98.3125 Z M 287.664062 98.3125 "/>
<path style="fill-rule:nonzero;fill:rgb(69.803923%,85.09804%,100%);fill-opacity:1;stroke-width:1;stroke-linecap:round;stroke-linejoin:round;stroke:rgb(0%,0%,0%);stroke-opacity:1;stroke-miterlimit:10;" d="M 185.217773 9.5 L 206.217773 9.5 L 206.217773 30.5 L 185.217773 30.5 Z M 185.217773 9.5 " transform="matrix(1.333333,0,0,1.333333,-4,69.333333)"/>
<path style=" stroke:none;fill-rule:nonzero;fill:rgb(0%,0%,0%);fill-opacity:1;" d="M 258.101562 99.332031 L 257.039062 99.332031 L 257.039062 92.605469 C 256.789062 92.855469 256.457031 93.105469 256.039062 93.355469 C 255.621094 93.59375 255.253906 93.765625 254.933594 93.875 L 254.933594 92.855469 C 255.519531 92.59375 256.027344 92.265625 256.476562 91.875 C 256.917969 91.472656 257.230469 91.082031 257.414062 90.707031 L 258.101562 90.707031 Z M 258.101562 99.332031 "/>
<path style=" stroke:none;fill-rule:nonzero;fill:rgb(0%,0%,0%);fill-opacity:1;" d="M 93.78125 17.332031 L 93.78125 8.75 L 94.90625 8.75 L 94.90625 17.332031 Z M 93.78125 17.332031 "/>
<path style=" stroke:none;fill-rule:nonzero;fill:rgb(0%,0%,0%);fill-opacity:1;" d="M 96.78125 17.332031 L 96.78125 11.105469 L 97.738281 11.105469 L 97.738281 12 C 98.179688 11.324219 98.84375 10.980469 99.71875 10.980469 C 100.09375 10.980469 100.429688 11.050781 100.738281 11.1875 C 101.054688 11.3125 101.289062 11.488281 101.445312 11.707031 C 101.597656 11.917969 101.707031 12.175781 101.78125 12.480469 C 101.820312 12.675781 101.84375 13.015625 101.84375 13.5 L 101.84375 17.332031 L 100.78125 17.332031 L 100.78125 13.542969 C 100.78125 13.113281 100.738281 12.792969 100.65625 12.582031 C 100.570312 12.375 100.425781 12.207031 100.21875 12.082031 C 100.007812 11.949219 99.765625 11.875 99.488281 11.875 C 99.039062 11.875 98.65625 12.019531 98.320312 12.3125 C 98 12.59375 97.84375 13.136719 97.84375 13.9375 L 97.84375 17.332031 Z M 96.78125 17.332031 "/>
<path style=" stroke:none;fill-rule:nonzero;fill:rgb(0%,0%,0%);fill-opacity:1;" d="M 103.449219 19.707031 L 103.449219 11.105469 L 104.410156 11.105469 L 104.410156 11.917969 C 104.628906 11.597656 104.878906 11.363281 105.160156 11.207031 C 105.449219 11.058594 105.804688 10.980469 106.222656 10.980469 C 106.746094 10.980469 107.210938 11.121094 107.617188 11.394531 C 108.019531 11.660156 108.324219 12.042969 108.535156 12.542969 C 108.742188 13.042969 108.847656 13.582031 108.847656 14.167969 C 108.847656 14.808594 108.726562 15.386719 108.492188 15.894531 C 108.269531 16.410156 107.941406 16.808594 107.511719 17.082031 C 107.082031 17.34375 106.621094 17.480469 106.136719 17.480469 C 105.789062 17.480469 105.476562 17.402344 105.199219 17.25 C 104.917969 17.097656 104.691406 16.910156 104.511719 16.6875 L 104.511719 19.707031 Z M 104.410156 14.25 C 104.410156 15.058594 104.566406 15.65625 104.886719 16.042969 C 105.222656 16.417969 105.617188 16.605469 106.074219 16.605469 C 106.535156 16.605469 106.929688 16.410156 107.261719 16.019531 C 107.605469 15.621094 107.785156 15 107.785156 14.167969 C 107.785156 13.375 107.617188 12.785156 107.285156 12.394531 C 106.960938 11.996094 106.574219 11.792969 106.117188 11.792969 C 105.667969 11.792969 105.273438 12.011719 104.929688 12.4375 C 104.582031 12.855469 104.410156 13.457031 104.410156 14.25 Z M 104.410156 14.25 "/>
<path style=" stroke:none;fill-rule:nonzero;fill:rgb(0%,0%,0%);fill-opacity:1;" d="M 114.203125 17.332031 L 114.203125 16.417969 C 113.714844 17.125 113.058594 17.480469 112.222656 17.480469 C 111.859375 17.480469 111.519531 17.40625 111.203125 17.269531 C 110.878906 17.121094 110.640625 16.9375 110.472656 16.730469 C 110.316406 16.519531 110.214844 16.265625 110.160156 15.957031 C 110.121094 15.75 110.097656 15.417969 110.097656 14.957031 L 110.097656 11.105469 L 111.140625 11.105469 L 111.140625 14.5625 C 111.140625 15.121094 111.167969 15.488281 111.222656 15.667969 C 111.277344 15.949219 111.410156 16.167969 111.621094 16.332031 C 111.839844 16.488281 112.109375 16.5625 112.433594 16.5625 C 112.75 16.5625 113.046875 16.488281 113.328125 16.332031 C 113.605469 16.167969 113.796875 15.949219 113.910156 15.667969 C 114.019531 15.390625 114.078125 14.980469 114.078125 14.4375 L 114.078125 11.105469 L 115.140625 11.105469 L 115.140625 17.332031 Z M 114.203125 17.332031 "/>
<path style=" stroke:none;fill-rule:nonzero;fill:rgb(0%,0%,0%);fill-opacity:1;" d="M 119.101562 16.394531 L 119.246094 17.3125 C 118.941406 17.378906 118.675781 17.417969 118.457031 17.417969 C 118.066406 17.417969 117.769531 17.355469 117.558594 17.230469 C 117.351562 17.105469 117.195312 16.949219 117.101562 16.75 C 117.019531 16.558594 116.976562 16.144531 116.976562 15.519531 L 116.976562 11.9375 L 116.207031 11.9375 L 116.207031 11.105469 L 116.976562 11.105469 L 116.976562 9.5625 L 118.039062 8.9375 L 118.039062 11.105469 L 119.101562 11.105469 L 119.101562 11.9375 L 118.039062 11.9375 L 118.039062 15.5625 C 118.039062 15.871094 118.050781 16.0625 118.082031 16.144531 C 118.121094 16.230469 118.183594 16.300781 118.269531 16.355469 C 118.351562 16.410156 118.464844 16.4375 118.621094 16.4375 C 118.746094 16.4375 118.902344 16.425781 119.101562 16.394531 Z M 119.101562 16.394531 "/>
<path style=" stroke:none;fill-rule:nonzero;fill:rgb(0%,0%,0%);fill-opacity:1;" d="M 425.824219 13.144531 C 425.824219 11.730469 426.203125 10.621094 426.96875 9.8125 C 427.730469 8.996094 428.71875 8.582031 429.929688 8.582031 C 430.71875 8.582031 431.433594 8.78125 432.074219 9.167969 C 432.710938 9.542969 433.199219 10.074219 433.53125 10.75 C 433.867188 11.433594 434.03125 12.199219 434.03125 13.042969 C 434.03125 13.917969 433.855469 14.703125 433.511719 15.394531 C 433.164062 16.078125 432.664062 16.597656 432.011719 16.957031 C 431.371094 17.308594 430.679688 17.480469 429.929688 17.480469 C 429.121094 17.480469 428.398438 17.285156 427.761719 16.894531 C 427.121094 16.511719 426.636719 15.972656 426.304688 15.292969 C 425.980469 14.613281 425.824219 13.894531 425.824219 13.144531 Z M 426.992188 13.167969 C 426.992188 14.207031 427.265625 15.03125 427.824219 15.625 C 428.375 16.207031 429.078125 16.5 429.929688 16.5 C 430.773438 16.5 431.476562 16.203125 432.03125 15.605469 C 432.585938 15.011719 432.867188 14.15625 432.867188 13.042969 C 432.867188 12.347656 432.746094 11.746094 432.511719 11.230469 C 432.273438 10.703125 431.929688 10.292969 431.46875 10 C 431.011719 9.707031 430.5 9.5625 429.949219 9.5625 C 429.140625 9.5625 428.449219 9.84375 427.867188 10.394531 C 427.28125 10.953125 426.992188 11.875 426.992188 13.167969 Z M 426.992188 13.167969 "/>
<path style=" stroke:none;fill-rule:nonzero;fill:rgb(0%,0%,0%);fill-opacity:1;" d="M 439.449219 17.332031 L 439.449219 16.417969 C 438.960938 17.125 438.304688 17.480469 437.46875 17.480469 C 437.105469 17.480469 436.765625 17.40625 436.449219 17.269531 C 436.125 17.121094 435.886719 16.9375 435.71875 16.730469 C 435.5625 16.519531 435.460938 16.265625 435.40625 15.957031 C 435.367188 15.75 435.34375 15.417969 435.34375 14.957031 L 435.34375 11.105469 L 436.386719 11.105469 L 436.386719 14.5625 C 436.386719 15.121094 436.414062 15.488281 436.46875 15.667969 C 436.523438 15.949219 436.65625 16.167969 436.867188 16.332031 C 437.085938 16.488281 437.355469 16.5625 437.679688 16.5625 C 437.996094 16.5625 438.292969 16.488281 438.574219 16.332031 C 438.851562 16.167969 439.042969 15.949219 439.15625 15.667969 C 439.265625 15.390625 439.324219 14.980469 439.324219 14.4375 L 439.324219 11.105469 L 440.386719 11.105469 L 440.386719 17.332031 Z M 439.449219 17.332031 "/>
<path style=" stroke:none;fill-rule:nonzero;fill:rgb(0%,0%,0%);fill-opacity:1;" d="M 444.347656 16.394531 L 444.492188 17.3125 C 444.1875 17.378906 443.921875 17.417969 443.703125 17.417969 C 443.3125 17.417969 443.015625 17.355469 442.804688 17.230469 C 442.597656 17.105469 442.441406 16.949219 442.347656 16.75 C 442.265625 16.558594 442.222656 16.144531 442.222656 15.519531 L 442.222656 11.9375 L 441.453125 11.9375 L 441.453125 11.105469 L 442.222656 11.105469 L 442.222656 9.5625 L 443.285156 8.9375 L 443.285156 11.105469 L 444.347656 11.105469 L 444.347656 11.9375 L 443.285156 11.9375 L 443.285156 15.5625 C 443.285156 15.871094 443.296875 16.0625 443.328125 16.144531 C 443.367188 16.230469 443.429688 16.300781 443.515625 16.355469 C 443.597656 16.410156 443.710938 16.4375 443.867188 16.4375 C 443.992188 16.4375 444.152344 16.425781 444.347656 16.394531 Z M 444.347656 16.394531 "/>
<path style=" stroke:none;fill-rule:nonzero;fill:rgb(0%,0%,0%);fill-opacity:1;" d="M 445.371094 19.707031 L 445.371094 11.105469 L 446.328125 11.105469 L 446.328125 11.917969 C 446.546875 11.597656 446.796875 11.363281 447.078125 11.207031 C 447.371094 11.058594 447.722656 10.980469 448.140625 10.980469 C 448.667969 10.980469 449.128906 11.121094 449.535156 11.394531 C 449.9375 11.660156 450.246094 12.042969 450.453125 12.542969 C 450.660156 13.042969 450.765625 13.582031 450.765625 14.167969 C 450.765625 14.808594 450.644531 15.386719 450.410156 15.894531 C 450.1875 16.410156 449.859375 16.808594 449.433594 17.082031 C 449 17.34375 448.542969 17.480469 448.058594 17.480469 C 447.707031 17.480469 447.394531 17.402344 447.121094 17.25 C 446.839844 17.097656 446.609375 16.910156 446.433594 16.6875 L 446.433594 19.707031 Z M 446.328125 14.25 C 446.328125 15.058594 446.484375 15.65625 446.808594 16.042969 C 447.140625 16.417969 447.535156 16.605469 447.996094 16.605469 C 448.453125 16.605469 448.847656 16.410156 449.183594 16.019531 C 449.527344 15.621094 449.703125 15 449.703125 14.167969 C 449.703125 13.375 449.535156 12.785156 449.203125 12.394531 C 448.878906 11.996094 448.496094 11.792969 448.035156 11.792969 C 447.589844 11.792969 447.191406 12.011719 446.847656 12.4375 C 446.5 12.855469 446.328125 13.457031 446.328125 14.25 Z M 446.328125 14.25 "/>
<path style=" stroke:none;fill-rule:nonzero;fill:rgb(0%,0%,0%);fill-opacity:1;" d="M 456.121094 17.332031 L 456.121094 16.417969 C 455.632812 17.125 454.976562 17.480469 454.144531 17.480469 C 453.777344 17.480469 453.441406 17.40625 453.121094 17.269531 C 452.800781 17.121094 452.558594 16.9375 452.394531 16.730469 C 452.238281 16.519531 452.132812 16.265625 452.082031 15.957031 C 452.039062 15.75 452.019531 15.417969 452.019531 14.957031 L 452.019531 11.105469 L 453.058594 11.105469 L 453.058594 14.5625 C 453.058594 15.121094 453.085938 15.488281 453.144531 15.667969 C 453.195312 15.949219 453.332031 16.167969 453.539062 16.332031 C 453.757812 16.488281 454.027344 16.5625 454.351562 16.5625 C 454.667969 16.5625 454.964844 16.488281 455.246094 16.332031 C 455.523438 16.167969 455.714844 15.949219 455.832031 15.667969 C 455.941406 15.390625 455.996094 14.980469 455.996094 14.4375 L 455.996094 11.105469 L 457.058594 11.105469 L 457.058594 17.332031 Z M 456.121094 17.332031 "/>
<path style=" stroke:none;fill-rule:nonzero;fill:rgb(0%,0%,0%);fill-opacity:1;" d="M 461.019531 16.394531 L 461.167969 17.3125 C 460.859375 17.378906 460.59375 17.417969 460.375 17.417969 C 459.984375 17.417969 459.6875 17.355469 459.480469 17.230469 C 459.269531 17.105469 459.113281 16.949219 459.019531 16.75 C 458.9375 16.558594 458.894531 16.144531 458.894531 15.519531 L 458.894531 11.9375 L 458.125 11.9375 L 458.125 11.105469 L 458.894531 11.105469 L 458.894531 9.5625 L 459.957031 8.9375 L 459.957031 11.105469 L 461.019531 11.105469 L 461.019531 11.9375 L 459.957031 11.9375 L 459.957031 15.5625 C 459.957031 15.871094 459.96875 16.0625 460 16.144531 C 460.042969 16.230469 460.105469 16.300781 460.1875 16.355469 C 460.269531 16.410156 460.386719 16.4375 460.542969 16.4375 C 460.667969 16.4375 460.824219 16.425781 461.019531 16.394531 Z M 461.019531 16.394531 "/>
<path style=" stroke:none;fill-rule:nonzero;fill:rgb(0%,0%,0%);fill-opacity:1;" d="M 261.15625 17.332031 L 261.15625 8.75 L 262.304688 8.75 L 262.304688 13 L 266.574219 8.75 L 268.09375 8.75 L 264.511719 12.230469 L 268.261719 17.332031 L 266.761719 17.332031 L 263.699219 12.980469 L 262.304688 14.355469 L 262.304688 17.332031 Z M 261.15625 17.332031 "/>
<path style=" stroke:none;fill-rule:nonzero;fill:rgb(0%,0%,0%);fill-opacity:1;" d="M 273.328125 15.332031 L 274.433594 15.457031 C 274.25 16.097656 273.921875 16.597656 273.453125 16.957031 C 272.996094 17.308594 272.402344 17.480469 271.683594 17.480469 C 270.777344 17.480469 270.058594 17.203125 269.515625 16.644531 C 268.984375 16.078125 268.722656 15.285156 268.722656 14.269531 C 268.722656 13.230469 268.996094 12.425781 269.535156 11.855469 C 270.078125 11.269531 270.777344 10.980469 271.640625 10.980469 C 272.472656 10.980469 273.144531 11.265625 273.660156 11.832031 C 274.1875 12.390625 274.453125 13.183594 274.453125 14.207031 C 274.453125 14.28125 274.453125 14.375 274.453125 14.5 L 269.808594 14.5 C 269.847656 15.183594 270.042969 15.703125 270.390625 16.0625 C 270.734375 16.425781 271.171875 16.605469 271.703125 16.605469 C 272.089844 16.605469 272.417969 16.511719 272.683594 16.3125 C 272.957031 16.105469 273.171875 15.78125 273.328125 15.332031 Z M 269.871094 13.625 L 273.347656 13.625 C 273.308594 13.097656 273.171875 12.703125 272.953125 12.4375 C 272.621094 12.035156 272.183594 11.832031 271.640625 11.832031 C 271.152344 11.832031 270.746094 12 270.410156 12.332031 C 270.089844 12.65625 269.910156 13.082031 269.871094 13.625 Z M 269.871094 13.625 "/>
<path style=" stroke:none;fill-rule:nonzero;fill:rgb(0%,0%,0%);fill-opacity:1;" d="M 275.730469 17.332031 L 275.730469 11.105469 L 276.691406 11.105469 L 276.691406 12.0625 C 276.925781 11.621094 277.148438 11.328125 277.355469 11.1875 C 277.566406 11.050781 277.792969 10.980469 278.042969 10.980469 C 278.386719 10.980469 278.753906 11.09375 279.128906 11.3125 L 278.753906 12.292969 C 278.503906 12.140625 278.242188 12.0625 277.980469 12.0625 C 277.757812 12.0625 277.550781 12.136719 277.355469 12.269531 C 277.175781 12.410156 277.042969 12.605469 276.960938 12.855469 C 276.847656 13.230469 276.792969 13.640625 276.792969 14.082031 L 276.792969 17.332031 Z M 275.730469 17.332031 "/>
<path style=" stroke:none;fill-rule:nonzero;fill:rgb(0%,0%,0%);fill-opacity:1;" d="M 279.75 17.332031 L 279.75 11.105469 L 280.707031 11.105469 L 280.707031 12 C 281.148438 11.324219 281.8125 10.980469 282.6875 10.980469 C 283.0625 10.980469 283.398438 11.050781 283.707031 11.1875 C 284.023438 11.3125 284.257812 11.488281 284.414062 11.707031 C 284.566406 11.917969 284.675781 12.175781 284.75 12.480469 C 284.789062 12.675781 284.8125 13.015625 284.8125 13.5 L 284.8125 17.332031 L 283.75 17.332031 L 283.75 13.542969 C 283.75 13.113281 283.707031 12.792969 283.625 12.582031 C 283.539062 12.375 283.394531 12.207031 283.1875 12.082031 C 282.976562 11.949219 282.734375 11.875 282.457031 11.875 C 282.007812 11.875 281.625 12.019531 281.289062 12.3125 C 280.96875 12.59375 280.8125 13.136719 280.8125 13.9375 L 280.8125 17.332031 Z M 279.75 17.332031 "/>
<path style=" stroke:none;fill-rule:nonzero;fill:rgb(0%,0%,0%);fill-opacity:1;" d="M 290.671875 15.332031 L 291.777344 15.457031 C 291.59375 16.097656 291.265625 16.597656 290.796875 16.957031 C 290.339844 17.308594 289.746094 17.480469 289.027344 17.480469 C 288.121094 17.480469 287.402344 17.203125 286.859375 16.644531 C 286.328125 16.078125 286.070312 15.285156 286.070312 14.269531 C 286.070312 13.230469 286.339844 12.425781 286.882812 11.855469 C 287.421875 11.269531 288.121094 10.980469 288.984375 10.980469 C 289.820312 10.980469 290.492188 11.265625 291.007812 11.832031 C 291.53125 12.390625 291.796875 13.183594 291.796875 14.207031 C 291.796875 14.28125 291.796875 14.375 291.796875 14.5 L 287.152344 14.5 C 287.195312 15.183594 287.386719 15.703125 287.734375 16.0625 C 288.078125 16.425781 288.515625 16.605469 289.046875 16.605469 C 289.433594 16.605469 289.761719 16.511719 290.027344 16.3125 C 290.304688 16.105469 290.515625 15.78125 290.671875 15.332031 Z M 287.214844 13.625 L 290.695312 13.625 C 290.652344 13.097656 290.515625 12.703125 290.296875 12.4375 C 289.964844 12.035156 289.527344 11.832031 288.984375 11.832031 C 288.496094 11.832031 288.089844 12 287.757812 12.332031 C 287.433594 12.65625 287.257812 13.082031 287.214844 13.625 Z M 287.214844 13.625 "/>
<path style=" stroke:none;fill-rule:nonzero;fill:rgb(0%,0%,0%);fill-opacity:1;" d="M 293.078125 17.332031 L 293.078125 8.75 L 294.117188 8.75 L 294.117188 17.332031 Z M 293.078125 17.332031 "/>
</g>
</svg>
