<?xml version="1.0" encoding="UTF-8"?>
<svg xmlns="http://www.w3.org/2000/svg" xmlns:xlink="http://www.w3.org/1999/xlink" width="525.333333" height="80" viewBox="0 0 525.333333 80" version="1.1">
<g id="surface1">
<path style=" stroke:none;fill-rule:nonzero;fill:rgb(0%,0%,0%);fill-opacity:1;" d="M 216.308594 51.628906 L 216.851562 49.964844 C 218.085938 50.394531 218.988281 50.769531 219.558594 51.089844 C 219.402344 49.6875 219.332031 48.714844 219.332031 48.171875 L 221.019531 48.171875 C 220.988281 48.953125 220.898438 49.921875 220.746094 51.089844 C 221.550781 50.6875 222.476562 50.3125 223.519531 49.964844 L 224.058594 51.628906 C 223.058594 51.953125 222.085938 52.167969 221.144531 52.277344 C 221.613281 52.691406 222.289062 53.433594 223.164062 54.484375 L 221.746094 55.484375 C 221.289062 54.875 220.753906 54.035156 220.144531 52.964844 C 219.558594 54.078125 219.050781 54.917969 218.621094 55.484375 L 217.226562 54.484375 C 218.144531 53.375 218.792969 52.640625 219.183594 52.277344 C 218.167969 52.082031 217.210938 51.871094 216.308594 51.628906 Z M 216.308594 51.628906 "/>
<path style=" stroke:none;fill-rule:nonzero;fill:rgb(0%,0%,0%);fill-opacity:1;" d="M 332.019531 48.878906 L 320.667969 48.878906 L 320.667969 46.921875 L 332.019531 46.921875 Z M 332.019531 54.089844 L 320.667969 54.089844 L 320.667969 52.128906 L 332.019531 52.128906 Z M 332.019531 54.089844 "/>
<path style="fill-rule:nonzero;fill:rgb(69.803923%,85.09804%,100%);fill-opacity:1;stroke-width:1;stroke-linecap:round;stroke-linejoin:round;stroke:rgb(0%,0%,0%);stroke-opacity:1;stroke-miterlimit:10;" d="M -49.760742 93.239258 L -28.760742 93.239258 L -28.760742 114.239258 L -49.760742 114.239258 Z M -49.760742 93.239258 " transform="matrix(1.333333,0,0,1.333333,68,-86.666667)"/>
<path style=" stroke:none;fill-rule:nonzero;fill:rgb(0%,0%,0%);fill-opacity:1;" d="M 12.8125 50.753906 C 12.8125 49.746094 12.917969 48.921875 13.125 48.296875 C 13.335938 47.671875 13.636719 47.191406 14.042969 46.859375 C 14.460938 46.527344 14.980469 46.359375 15.605469 46.359375 C 16.074219 46.359375 16.484375 46.457031 16.835938 46.652344 C 17.179688 46.832031 17.464844 47.097656 17.6875 47.441406 C 17.90625 47.792969 18.085938 48.214844 18.210938 48.714844 C 18.34375 49.214844 18.417969 49.894531 18.417969 50.753906 C 18.417969 51.753906 18.3125 52.566406 18.105469 53.191406 C 17.898438 53.808594 17.585938 54.285156 17.167969 54.628906 C 16.761719 54.964844 16.242188 55.128906 15.605469 55.128906 C 14.78125 55.128906 14.136719 54.832031 13.667969 54.234375 C 13.09375 53.527344 12.8125 52.371094 12.8125 50.753906 Z M 13.898438 50.753906 C 13.898438 52.160156 14.054688 53.097656 14.375 53.566406 C 14.710938 54.027344 15.117188 54.253906 15.605469 54.253906 C 16.089844 54.253906 16.5 54.027344 16.835938 53.566406 C 17.167969 53.097656 17.335938 52.160156 17.335938 50.753906 C 17.335938 49.339844 17.167969 48.402344 16.835938 47.941406 C 16.5 47.472656 16.089844 47.234375 15.605469 47.234375 C 15.117188 47.234375 14.730469 47.4375 14.4375 47.839844 C 14.074219 48.371094 13.898438 49.339844 13.898438 50.753906 Z M 13.898438 50.753906 "/>
<path style="fill-rule:nonzero;fill:rgb(69.803923%,85.09804%,100%);fill-opacity:1;stroke-width:1;stroke-linecap:round;stroke-linejoin:round;stroke:rgb(0%,0%,0%);stroke-opacity:1;stroke-miterlimit:10;" d="M -28.760742 93.239258 L -7.760742 93.239258 L -7.760742 114.239258 L -28.760742 114.239258 Z M -28.760742 93.239258 " transform="matrix(1.333333,0,0,1.333333,68,-86.666667)"/>
<path style=" stroke:none;fill-rule:nonzero;fill:rgb(0%,0%,0%);fill-opacity:1;" d="M 44.792969 54.984375 L 43.730469 54.984375 L 43.730469 48.253906 C 43.480469 48.503906 43.148438 48.753906 42.730469 49.003906 C 42.3125 49.246094 41.945312 49.417969 41.625 49.527344 L 41.625 48.503906 C 42.210938 48.246094 42.71875 47.917969 43.167969 47.527344 C 43.609375 47.125 43.921875 46.734375 44.105469 46.359375 L 44.792969 46.359375 Z M 44.792969 54.984375 "/>
<path style="fill-rule:nonzero;fill:rgb(100%,100%,100%);fill-opacity:1;stroke-width:1;stroke-linecap:round;stroke-linejoin:round;stroke:rgb(0%,0%,0%);stroke-opacity:1;stroke-miterlimit:10;" d="M -7.760742 93.239258 L 13.239258 93.239258 L 13.239258 114.239258 L -7.760742 114.239258 Z M -7.760742 93.239258 " transform="matrix(1.333333,0,0,1.333333,68,-86.666667)"/>
<path style=" stroke:none;fill-rule:nonzero;fill:rgb(0%,0%,0%);fill-opacity:1;" d="M 74.355469 53.964844 L 74.355469 54.984375 L 68.667969 54.984375 C 68.667969 54.734375 68.710938 54.496094 68.792969 54.253906 C 68.945312 53.871094 69.179688 53.484375 69.5 53.109375 C 69.820312 52.734375 70.277344 52.308594 70.875 51.816406 C 71.804688 51.042969 72.429688 50.433594 72.75 49.984375 C 73.085938 49.542969 73.25 49.121094 73.25 48.714844 C 73.25 48.296875 73.09375 47.953125 72.792969 47.671875 C 72.5 47.378906 72.117188 47.234375 71.648438 47.234375 C 71.132812 47.234375 70.71875 47.390625 70.417969 47.691406 C 70.109375 48 69.960938 48.421875 69.960938 48.964844 L 68.875 48.839844 C 68.945312 48.035156 69.21875 47.421875 69.710938 47.003906 C 70.195312 46.578125 70.84375 46.359375 71.667969 46.359375 C 72.484375 46.359375 73.132812 46.589844 73.605469 47.046875 C 74.089844 47.503906 74.335938 48.066406 74.335938 48.734375 C 74.335938 49.082031 74.261719 49.421875 74.125 49.753906 C 73.984375 50.089844 73.75 50.441406 73.417969 50.816406 C 73.09375 51.183594 72.5625 51.683594 71.8125 52.316406 C 71.171875 52.847656 70.761719 53.207031 70.585938 53.402344 C 70.402344 53.597656 70.257812 53.785156 70.148438 53.964844 Z M 74.355469 53.964844 "/>
<path style="fill-rule:nonzero;fill:rgb(100%,100%,100%);fill-opacity:1;stroke-width:1;stroke-linecap:round;stroke-linejoin:round;stroke:rgb(0%,0%,0%);stroke-opacity:1;stroke-miterlimit:10;" d="M 13.239258 93.239258 L 34.239258 93.239258 L 34.239258 114.239258 L 13.239258 114.239258 Z M 13.239258 93.239258 " transform="matrix(1.333333,0,0,1.333333,68,-86.666667)"/>
<path style=" stroke:none;fill-rule:nonzero;fill:rgb(0%,0%,0%);fill-opacity:1;" d="M 96.8125 52.714844 L 97.875 52.566406 C 98 53.167969 98.199219 53.597656 98.480469 53.859375 C 98.773438 54.125 99.132812 54.253906 99.5625 54.253906 C 100.046875 54.253906 100.460938 54.089844 100.792969 53.753906 C 101.136719 53.410156 101.3125 52.980469 101.3125 52.464844 C 101.3125 51.980469 101.152344 51.582031 100.835938 51.277344 C 100.527344 50.957031 100.132812 50.796875 99.648438 50.796875 C 99.4375 50.796875 99.1875 50.839844 98.898438 50.921875 L 99.023438 49.984375 C 99.089844 50 99.148438 50.003906 99.1875 50.003906 C 99.632812 50.003906 100.03125 49.890625 100.398438 49.652344 C 100.757812 49.417969 100.9375 49.058594 100.9375 48.566406 C 100.9375 48.183594 100.804688 47.859375 100.542969 47.609375 C 100.277344 47.359375 99.9375 47.234375 99.523438 47.234375 C 99.117188 47.234375 98.777344 47.371094 98.5 47.628906 C 98.234375 47.878906 98.0625 48.265625 97.980469 48.777344 L 96.917969 48.589844 C 97.054688 47.878906 97.34375 47.332031 97.792969 46.941406 C 98.25 46.558594 98.820312 46.359375 99.5 46.359375 C 99.96875 46.359375 100.402344 46.464844 100.792969 46.671875 C 101.195312 46.871094 101.5 47.140625 101.710938 47.484375 C 101.917969 47.832031 102.023438 48.203125 102.023438 48.589844 C 102.023438 48.964844 101.917969 49.308594 101.710938 49.609375 C 101.511719 49.917969 101.21875 50.160156 100.835938 50.339844 C 101.34375 50.453125 101.742188 50.691406 102.023438 51.066406 C 102.296875 51.433594 102.4375 51.890625 102.4375 52.441406 C 102.4375 53.191406 102.15625 53.832031 101.605469 54.359375 C 101.0625 54.875 100.375 55.128906 99.542969 55.128906 C 98.792969 55.128906 98.167969 54.910156 97.667969 54.464844 C 97.167969 54.019531 96.882812 53.4375 96.8125 52.714844 Z M 96.8125 52.714844 "/>
<path style="fill-rule:nonzero;fill:rgb(100%,100%,100%);fill-opacity:1;stroke-width:1;stroke-linecap:round;stroke-linejoin:round;stroke:rgb(0%,0%,0%);stroke-opacity:1;stroke-miterlimit:10;" d="M 55.239258 93.239258 L 76.239258 93.239258 L 76.239258 114.239258 L 55.239258 114.239258 Z M 55.239258 93.239258 " transform="matrix(1.333333,0,0,1.333333,68,-86.666667)"/>
<path style=" stroke:none;fill-rule:nonzero;fill:rgb(0%,0%,0%);fill-opacity:1;" d="M 152.8125 52.734375 L 153.917969 52.628906 C 154 53.171875 154.1875 53.582031 154.480469 53.859375 C 154.78125 54.125 155.148438 54.253906 155.5625 54.253906 C 156.074219 54.253906 156.507812 54.066406 156.855469 53.691406 C 157.214844 53.308594 157.398438 52.796875 157.398438 52.171875 C 157.398438 51.5625 157.21875 51.082031 156.875 50.734375 C 156.542969 50.390625 156.105469 50.214844 155.5625 50.214844 C 155.214844 50.214844 154.902344 50.296875 154.625 50.464844 C 154.359375 50.621094 154.148438 50.8125 153.980469 51.046875 L 153 50.921875 L 153.835938 46.503906 L 158.105469 46.503906 L 158.105469 47.527344 L 154.667969 47.527344 L 154.210938 49.816406 C 154.71875 49.472656 155.261719 49.296875 155.835938 49.296875 C 156.585938 49.296875 157.214844 49.558594 157.730469 50.066406 C 158.242188 50.582031 158.5 51.25 158.5 52.066406 C 158.5 52.847656 158.277344 53.519531 157.835938 54.089844 C 157.277344 54.785156 156.523438 55.128906 155.5625 55.128906 C 154.78125 55.128906 154.148438 54.917969 153.648438 54.484375 C 153.15625 54.042969 152.882812 53.457031 152.8125 52.734375 Z M 152.8125 52.734375 "/>
<path style="fill-rule:nonzero;fill:rgb(100%,100%,100%);fill-opacity:1;stroke-width:1;stroke-linecap:round;stroke-linejoin:round;stroke:rgb(0%,0%,0%);stroke-opacity:1;stroke-miterlimit:10;" d="M 76.239258 93.239258 L 97.239258 93.239258 L 97.239258 114.239258 L 76.239258 114.239258 Z M 76.239258 93.239258 " transform="matrix(1.333333,0,0,1.333333,68,-86.666667)"/>
<path style=" stroke:none;fill-rule:nonzero;fill:rgb(0%,0%,0%);fill-opacity:1;" d="M 186.292969 48.503906 L 185.230469 48.589844 C 185.148438 48.171875 185.011719 47.871094 184.835938 47.671875 C 184.554688 47.378906 184.210938 47.234375 183.792969 47.234375 C 183.445312 47.234375 183.148438 47.328125 182.898438 47.503906 C 182.5625 47.753906 182.296875 48.109375 182.105469 48.566406 C 181.921875 49.027344 181.824219 49.6875 181.8125 50.546875 C 182.0625 50.171875 182.367188 49.894531 182.730469 49.714844 C 183.105469 49.519531 183.492188 49.421875 183.898438 49.421875 C 184.605469 49.421875 185.199219 49.683594 185.6875 50.191406 C 186.1875 50.707031 186.4375 51.375 186.4375 52.191406 C 186.4375 52.734375 186.320312 53.246094 186.085938 53.714844 C 185.84375 54.171875 185.527344 54.527344 185.125 54.777344 C 184.71875 55.011719 184.261719 55.128906 183.75 55.128906 C 182.875 55.128906 182.15625 54.8125 181.605469 54.171875 C 181.046875 53.519531 180.773438 52.453125 180.773438 50.964844 C 180.773438 49.3125 181.074219 48.105469 181.6875 47.339844 C 182.214844 46.6875 182.9375 46.359375 183.855469 46.359375 C 184.523438 46.359375 185.070312 46.558594 185.5 46.941406 C 185.929688 47.316406 186.195312 47.839844 186.292969 48.503906 Z M 181.980469 52.191406 C 181.980469 52.566406 182.054688 52.921875 182.210938 53.253906 C 182.359375 53.578125 182.574219 53.828125 182.855469 54.003906 C 183.132812 54.171875 183.421875 54.253906 183.730469 54.253906 C 184.171875 54.253906 184.554688 54.082031 184.875 53.734375 C 185.195312 53.375 185.355469 52.878906 185.355469 52.253906 C 185.355469 51.660156 185.195312 51.191406 184.875 50.859375 C 184.570312 50.515625 184.171875 50.339844 183.6875 50.339844 C 183.214844 50.339844 182.8125 50.515625 182.480469 50.859375 C 182.148438 51.191406 181.980469 51.640625 181.980469 52.191406 Z M 181.980469 52.191406 "/>
<path style="fill-rule:nonzero;fill:rgb(100%,100%,100%);fill-opacity:1;stroke-width:1;stroke-linecap:round;stroke-linejoin:round;stroke:rgb(0%,0%,0%);stroke-opacity:1;stroke-miterlimit:10;" d="M 34.239258 93.239258 L 55.239258 93.239258 L 55.239258 114.239258 L 34.239258 114.239258 Z M 34.239258 93.239258 " transform="matrix(1.333333,0,0,1.333333,68,-86.666667)"/>
<path style=" stroke:none;fill-rule:nonzero;fill:rgb(0%,0%,0%);fill-opacity:1;" d="M 128.1875 54.984375 L 128.1875 52.921875 L 124.460938 52.921875 L 124.460938 51.964844 L 128.375 46.402344 L 129.25 46.402344 L 129.25 51.964844 L 130.417969 51.964844 L 130.417969 52.921875 L 129.25 52.921875 L 129.25 54.984375 Z M 128.1875 51.964844 L 128.1875 48.089844 L 125.5 51.964844 Z M 128.1875 51.964844 "/>
<path style="fill-rule:nonzero;fill:rgb(69.803923%,85.09804%,100%);fill-opacity:1;stroke-width:1;stroke-linecap:round;stroke-linejoin:round;stroke:rgb(0%,0%,0%);stroke-opacity:1;stroke-miterlimit:10;" d="M 151.324219 93.239258 L 172.324219 93.239258 L 172.324219 114.239258 L 151.324219 114.239258 Z M 151.324219 93.239258 " transform="matrix(1.333333,0,0,1.333333,68,-86.666667)"/>
<path style=" stroke:none;fill-rule:nonzero;fill:rgb(0%,0%,0%);fill-opacity:1;" d="M 286.46875 53.964844 L 286.46875 54.984375 L 280.78125 54.984375 C 280.78125 54.734375 280.824219 54.496094 280.90625 54.253906 C 281.058594 53.871094 281.292969 53.484375 281.613281 53.109375 C 281.933594 52.734375 282.390625 52.308594 282.988281 51.816406 C 283.917969 51.042969 284.542969 50.433594 284.863281 49.984375 C 285.199219 49.542969 285.363281 49.121094 285.363281 48.714844 C 285.363281 48.296875 285.207031 47.953125 284.90625 47.671875 C 284.613281 47.378906 284.230469 47.234375 283.761719 47.234375 C 283.246094 47.234375 282.832031 47.390625 282.53125 47.691406 C 282.222656 48 282.074219 48.421875 282.074219 48.964844 L 280.988281 48.839844 C 281.058594 48.035156 281.332031 47.421875 281.824219 47.003906 C 282.308594 46.578125 282.957031 46.359375 283.78125 46.359375 C 284.597656 46.359375 285.246094 46.589844 285.71875 47.046875 C 286.203125 47.503906 286.449219 48.066406 286.449219 48.734375 C 286.449219 49.082031 286.375 49.421875 286.238281 49.753906 C 286.097656 50.089844 285.863281 50.441406 285.53125 50.816406 C 285.207031 51.183594 284.675781 51.683594 283.925781 52.316406 C 283.285156 52.847656 282.875 53.207031 282.699219 53.402344 C 282.515625 53.597656 282.371094 53.785156 282.261719 53.964844 Z M 286.46875 53.964844 "/>
<path style="fill-rule:nonzero;fill:rgb(69.803923%,85.09804%,100%);fill-opacity:1;stroke-width:1;stroke-linecap:round;stroke-linejoin:round;stroke:rgb(0%,0%,0%);stroke-opacity:1;stroke-miterlimit:10;" d="M 130.324219 93.239258 L 151.324219 93.239258 L 151.324219 114.239258 L 130.324219 114.239258 Z M 130.324219 93.239258 " transform="matrix(1.333333,0,0,1.333333,68,-86.666667)"/>
<path style=" stroke:none;fill-rule:nonzero;fill:rgb(0%,0%,0%);fill-opacity:1;" d="M 256.90625 54.984375 L 255.84375 54.984375 L 255.84375 48.253906 C 255.59375 48.503906 255.261719 48.753906 254.84375 49.003906 C 254.425781 49.246094 254.058594 49.417969 253.738281 49.527344 L 253.738281 48.503906 C 254.324219 48.246094 254.832031 47.917969 255.28125 47.527344 C 255.722656 47.125 256.035156 46.734375 256.21875 46.359375 L 256.90625 46.359375 Z M 256.90625 54.984375 "/>
<path style="fill-rule:nonzero;fill:rgb(100%,100%,100%);fill-opacity:1;stroke-width:1;stroke-linecap:round;stroke-linejoin:round;stroke:rgb(0%,0%,0%);stroke-opacity:1;stroke-miterlimit:10;" d="M 320.674805 93.239258 L 341.674805 93.239258 L 341.674805 114.239258 L 320.674805 114.239258 Z M 320.674805 93.239258 " transform="matrix(1.333333,0,0,1.333333,68,-86.666667)"/>
<path style=" stroke:none;fill-rule:nonzero;fill:rgb(0%,0%,0%);fill-opacity:1;" d="M 507.375 54.984375 L 506.3125 54.984375 L 506.3125 48.253906 C 506.0625 48.503906 505.730469 48.753906 505.3125 49.003906 C 504.894531 49.246094 504.527344 49.417969 504.207031 49.527344 L 504.207031 48.503906 C 504.792969 48.246094 505.300781 47.917969 505.75 47.527344 C 506.191406 47.125 506.503906 46.734375 506.6875 46.359375 L 507.375 46.359375 Z M 507.375 54.984375 "/>
<path style=" stroke:none;fill-rule:nonzero;fill:rgb(0%,0%,0%);fill-opacity:1;" d="M 510.132812 47.527344 L 510.132812 46.503906 L 515.695312 46.503906 L 515.695312 47.316406 C 515.152344 47.902344 514.613281 48.683594 514.070312 49.652344 C 513.527344 50.609375 513.113281 51.605469 512.820312 52.628906 C 512.613281 53.339844 512.476562 54.125 512.425781 54.984375 L 511.339844 54.984375 C 511.351562 54.308594 511.488281 53.496094 511.738281 52.546875 C 511.988281 51.589844 512.347656 50.667969 512.820312 49.777344 C 513.304688 48.890625 513.808594 48.140625 514.339844 47.527344 Z M 510.132812 47.527344 "/>
<path style="fill-rule:nonzero;fill:rgb(69.803923%,85.09804%,100%);fill-opacity:1;stroke-width:1;stroke-linecap:round;stroke-linejoin:round;stroke:rgb(0%,0%,0%);stroke-opacity:1;stroke-miterlimit:10;" d="M 215.674805 93.239258 L 236.674805 93.239258 L 236.674805 114.239258 L 215.674805 114.239258 Z M 215.674805 93.239258 " transform="matrix(1.333333,0,0,1.333333,68,-86.666667)"/>
<path style=" stroke:none;fill-rule:nonzero;fill:rgb(0%,0%,0%);fill-opacity:1;" d="M 372.273438 53.964844 L 372.273438 54.984375 L 366.585938 54.984375 C 366.585938 54.734375 366.628906 54.496094 366.710938 54.253906 C 366.863281 53.871094 367.097656 53.484375 367.421875 53.109375 C 367.738281 52.734375 368.195312 52.308594 368.796875 51.816406 C 369.722656 51.042969 370.347656 50.433594 370.671875 49.984375 C 371.003906 49.542969 371.171875 49.121094 371.171875 48.714844 C 371.171875 48.296875 371.015625 47.953125 370.710938 47.671875 C 370.421875 47.378906 370.035156 47.234375 369.566406 47.234375 C 369.050781 47.234375 368.640625 47.390625 368.335938 47.691406 C 368.03125 48 367.878906 48.421875 367.878906 48.964844 L 366.796875 48.839844 C 366.863281 48.035156 367.140625 47.421875 367.628906 47.003906 C 368.113281 46.578125 368.765625 46.359375 369.585938 46.359375 C 370.40625 46.359375 371.050781 46.589844 371.523438 47.046875 C 372.007812 47.503906 372.253906 48.066406 372.253906 48.734375 C 372.253906 49.082031 372.179688 49.421875 372.046875 49.753906 C 371.90625 50.089844 371.671875 50.441406 371.335938 50.816406 C 371.015625 51.183594 370.484375 51.683594 369.734375 52.316406 C 369.09375 52.847656 368.679688 53.207031 368.503906 53.402344 C 368.320312 53.597656 368.175781 53.785156 368.066406 53.964844 Z M 372.273438 53.964844 "/>
<path style="fill-rule:nonzero;fill:rgb(100%,100%,100%);fill-opacity:1;stroke-width:1;stroke-linecap:round;stroke-linejoin:round;stroke:rgb(0%,0%,0%);stroke-opacity:1;stroke-miterlimit:10;" d="M 236.674805 93.239258 L 257.674805 93.239258 L 257.674805 114.239258 L 236.674805 114.239258 Z M 236.674805 93.239258 " transform="matrix(1.333333,0,0,1.333333,68,-86.666667)"/>
<path style=" stroke:none;fill-rule:nonzero;fill:rgb(0%,0%,0%);fill-opacity:1;" d="M 394.734375 52.734375 L 395.835938 52.628906 C 395.921875 53.171875 396.109375 53.582031 396.398438 53.859375 C 396.703125 54.125 397.066406 54.253906 397.484375 54.253906 C 397.992188 54.253906 398.425781 54.066406 398.773438 53.691406 C 399.132812 53.308594 399.316406 52.796875 399.316406 52.171875 C 399.316406 51.5625 399.140625 51.082031 398.796875 50.734375 C 398.460938 50.390625 398.023438 50.214844 397.484375 50.214844 C 397.132812 50.214844 396.820312 50.296875 396.546875 50.464844 C 396.28125 50.621094 396.066406 50.8125 395.898438 51.046875 L 394.921875 50.921875 L 395.753906 46.503906 L 400.023438 46.503906 L 400.023438 47.527344 L 396.585938 47.527344 L 396.128906 49.816406 C 396.640625 49.472656 397.179688 49.296875 397.753906 49.296875 C 398.503906 49.296875 399.132812 49.558594 399.648438 50.066406 C 400.160156 50.582031 400.421875 51.25 400.421875 52.066406 C 400.421875 52.847656 400.195312 53.519531 399.753906 54.089844 C 399.195312 54.785156 398.441406 55.128906 397.484375 55.128906 C 396.703125 55.128906 396.066406 54.917969 395.566406 54.484375 C 395.078125 54.042969 394.800781 53.457031 394.734375 52.734375 Z M 394.734375 52.734375 "/>
<path style="fill-rule:nonzero;fill:rgb(100%,100%,100%);fill-opacity:1;stroke-width:1;stroke-linecap:round;stroke-linejoin:round;stroke:rgb(0%,0%,0%);stroke-opacity:1;stroke-miterlimit:10;" d="M 257.674805 93.239258 L 278.674805 93.239258 L 278.674805 114.239258 L 257.674805 114.239258 Z M 257.674805 93.239258 " transform="matrix(1.333333,0,0,1.333333,68,-86.666667)"/>
<path style=" stroke:none;fill-rule:nonzero;fill:rgb(0%,0%,0%);fill-opacity:1;" d="M 424.359375 50.316406 C 423.910156 50.167969 423.585938 49.941406 423.378906 49.652344 C 423.171875 49.347656 423.066406 48.984375 423.066406 48.566406 C 423.066406 47.941406 423.285156 47.421875 423.734375 47.003906 C 424.191406 46.578125 424.785156 46.359375 425.523438 46.359375 C 426.273438 46.359375 426.878906 46.582031 427.335938 47.027344 C 427.796875 47.457031 428.023438 47.984375 428.023438 48.609375 C 428.023438 49 427.921875 49.347656 427.710938 49.652344 C 427.503906 49.941406 427.179688 50.167969 426.753906 50.316406 C 427.28125 50.5 427.679688 50.785156 427.960938 51.171875 C 428.238281 51.546875 428.378906 52 428.378906 52.527344 C 428.378906 53.265625 428.113281 53.878906 427.585938 54.378906 C 427.070312 54.878906 426.390625 55.128906 425.546875 55.128906 C 424.695312 55.128906 424.007812 54.878906 423.484375 54.378906 C 422.96875 53.878906 422.710938 53.253906 422.710938 52.503906 C 422.710938 51.953125 422.847656 51.484375 423.128906 51.109375 C 423.421875 50.722656 423.828125 50.457031 424.359375 50.316406 Z M 424.148438 48.546875 C 424.148438 48.953125 424.273438 49.285156 424.523438 49.546875 C 424.785156 49.796875 425.128906 49.921875 425.546875 49.921875 C 425.960938 49.921875 426.296875 49.796875 426.546875 49.546875 C 426.804688 49.285156 426.941406 48.964844 426.941406 48.589844 C 426.941406 48.214844 426.804688 47.894531 426.546875 47.628906 C 426.28125 47.371094 425.945312 47.234375 425.546875 47.234375 C 425.140625 47.234375 424.804688 47.371094 424.546875 47.628906 C 424.28125 47.878906 424.148438 48.1875 424.148438 48.546875 Z M 423.796875 52.503906 C 423.796875 52.8125 423.863281 53.105469 424.003906 53.378906 C 424.15625 53.660156 424.367188 53.875 424.648438 54.027344 C 424.925781 54.183594 425.234375 54.253906 425.566406 54.253906 C 426.066406 54.253906 426.472656 54.097656 426.796875 53.777344 C 427.128906 53.457031 427.296875 53.046875 427.296875 52.546875 C 427.296875 52.035156 427.128906 51.609375 426.796875 51.277344 C 426.460938 50.941406 426.035156 50.777344 425.523438 50.777344 C 425.023438 50.777344 424.609375 50.941406 424.273438 51.277344 C 423.953125 51.609375 423.796875 52.019531 423.796875 52.503906 Z M 423.796875 52.503906 "/>
<path style="fill-rule:nonzero;fill:rgb(100%,100%,100%);fill-opacity:1;stroke-width:1;stroke-linecap:round;stroke-linejoin:round;stroke:rgb(0%,0%,0%);stroke-opacity:1;stroke-miterlimit:10;" d="M 278.674805 93.239258 L 299.674805 93.239258 L 299.674805 114.239258 L 278.674805 114.239258 Z M 278.674805 93.239258 " transform="matrix(1.333333,0,0,1.333333,68,-86.666667)"/>
<path style=" stroke:none;fill-rule:nonzero;fill:rgb(0%,0%,0%);fill-opacity:1;" d="M 451.820312 54.984375 L 450.757812 54.984375 L 450.757812 48.253906 C 450.507812 48.503906 450.175781 48.753906 449.757812 49.003906 C 449.339844 49.246094 448.972656 49.417969 448.652344 49.527344 L 448.652344 48.503906 C 449.238281 48.246094 449.746094 47.917969 450.195312 47.527344 C 450.636719 47.125 450.949219 46.734375 451.132812 46.359375 L 451.820312 46.359375 Z M 451.820312 54.984375 "/>
<path style=" stroke:none;fill-rule:nonzero;fill:rgb(0%,0%,0%);fill-opacity:1;" d="M 457.601562 54.984375 L 456.539062 54.984375 L 456.539062 48.253906 C 456.289062 48.503906 455.957031 48.753906 455.539062 49.003906 C 455.125 49.246094 454.753906 49.417969 454.4375 49.527344 L 454.4375 48.503906 C 455.019531 48.246094 455.53125 47.917969 455.976562 47.527344 C 456.421875 47.125 456.734375 46.734375 456.914062 46.359375 L 457.601562 46.359375 Z M 457.601562 54.984375 "/>
<path style="fill-rule:nonzero;fill:rgb(100%,100%,100%);fill-opacity:1;stroke-width:1;stroke-linecap:round;stroke-linejoin:round;stroke:rgb(0%,0%,0%);stroke-opacity:1;stroke-miterlimit:10;" d="M 299.674805 93.239258 L 320.674805 93.239258 L 320.674805 114.239258 L 299.674805 114.239258 Z M 299.674805 93.239258 " transform="matrix(1.333333,0,0,1.333333,68,-86.666667)"/>
<path style=" stroke:none;fill-rule:nonzero;fill:rgb(0%,0%,0%);fill-opacity:1;" d="M 479.375 54.984375 L 478.3125 54.984375 L 478.3125 48.253906 C 478.0625 48.503906 477.730469 48.753906 477.3125 49.003906 C 476.894531 49.246094 476.527344 49.417969 476.207031 49.527344 L 476.207031 48.503906 C 476.792969 48.246094 477.300781 47.917969 477.75 47.527344 C 478.191406 47.125 478.503906 46.734375 478.6875 46.359375 L 479.375 46.359375 Z M 479.375 54.984375 "/>
<path style=" stroke:none;fill-rule:nonzero;fill:rgb(0%,0%,0%);fill-opacity:1;" d="M 485.445312 54.984375 L 485.445312 52.921875 L 481.714844 52.921875 L 481.714844 51.964844 L 485.632812 46.402344 L 486.507812 46.402344 L 486.507812 51.964844 L 487.675781 51.964844 L 487.675781 52.921875 L 486.507812 52.921875 L 486.507812 54.984375 Z M 485.445312 51.964844 L 485.445312 48.089844 L 482.757812 51.964844 Z M 485.445312 51.964844 "/>
<path style=" stroke:none;fill-rule:nonzero;fill:rgb(0%,0%,0%);fill-opacity:1;" d="M 84.445312 17.332031 L 84.445312 8.75 L 85.570312 8.75 L 85.570312 17.332031 Z M 84.445312 17.332031 "/>
<path style=" stroke:none;fill-rule:nonzero;fill:rgb(0%,0%,0%);fill-opacity:1;" d="M 87.445312 17.332031 L 87.445312 11.105469 L 88.40625 11.105469 L 88.40625 12 C 88.847656 11.324219 89.507812 10.980469 90.382812 10.980469 C 90.757812 10.980469 91.097656 11.050781 91.40625 11.1875 C 91.722656 11.3125 91.957031 11.488281 92.113281 11.707031 C 92.265625 11.917969 92.375 12.175781 92.445312 12.480469 C 92.488281 12.675781 92.507812 13.015625 92.507812 13.5 L 92.507812 17.332031 L 91.445312 17.332031 L 91.445312 13.542969 C 91.445312 13.113281 91.40625 12.792969 91.320312 12.582031 C 91.238281 12.375 91.09375 12.207031 90.882812 12.082031 C 90.675781 11.949219 90.429688 11.875 90.15625 11.875 C 89.707031 11.875 89.320312 12.019531 88.988281 12.3125 C 88.664062 12.59375 88.507812 13.136719 88.507812 13.9375 L 88.507812 17.332031 Z M 87.445312 17.332031 "/>
<path style=" stroke:none;fill-rule:nonzero;fill:rgb(0%,0%,0%);fill-opacity:1;" d="M 94.117188 19.707031 L 94.117188 11.105469 L 95.074219 11.105469 L 95.074219 11.917969 C 95.292969 11.597656 95.542969 11.363281 95.824219 11.207031 C 96.117188 11.058594 96.472656 10.980469 96.886719 10.980469 C 97.414062 10.980469 97.878906 11.121094 98.285156 11.394531 C 98.683594 11.660156 98.992188 12.042969 99.199219 12.542969 C 99.410156 13.042969 99.511719 13.582031 99.511719 14.167969 C 99.511719 14.808594 99.394531 15.386719 99.160156 15.894531 C 98.933594 16.410156 98.605469 16.808594 98.179688 17.082031 C 97.746094 17.34375 97.289062 17.480469 96.804688 17.480469 C 96.457031 17.480469 96.144531 17.402344 95.867188 17.25 C 95.585938 17.097656 95.355469 16.910156 95.179688 16.6875 L 95.179688 19.707031 Z M 95.074219 14.25 C 95.074219 15.058594 95.230469 15.65625 95.554688 16.042969 C 95.886719 16.417969 96.285156 16.605469 96.742188 16.605469 C 97.199219 16.605469 97.597656 16.410156 97.929688 16.019531 C 98.273438 15.621094 98.449219 15 98.449219 14.167969 C 98.449219 13.375 98.285156 12.785156 97.949219 12.394531 C 97.628906 11.996094 97.242188 11.792969 96.785156 11.792969 C 96.335938 11.792969 95.941406 12.011719 95.597656 12.4375 C 95.246094 12.855469 95.074219 13.457031 95.074219 14.25 Z M 95.074219 14.25 "/>
<path style=" stroke:none;fill-rule:nonzero;fill:rgb(0%,0%,0%);fill-opacity:1;" d="M 104.871094 17.332031 L 104.871094 16.417969 C 104.378906 17.125 103.722656 17.480469 102.890625 17.480469 C 102.527344 17.480469 102.1875 17.40625 101.871094 17.269531 C 101.546875 17.121094 101.308594 16.9375 101.140625 16.730469 C 100.984375 16.519531 100.878906 16.265625 100.828125 15.957031 C 100.785156 15.75 100.765625 15.417969 100.765625 14.957031 L 100.765625 11.105469 L 101.808594 11.105469 L 101.808594 14.5625 C 101.808594 15.121094 101.832031 15.488281 101.890625 15.667969 C 101.941406 15.949219 102.078125 16.167969 102.285156 16.332031 C 102.503906 16.488281 102.777344 16.5625 103.097656 16.5625 C 103.417969 16.5625 103.714844 16.488281 103.996094 16.332031 C 104.269531 16.167969 104.464844 15.949219 104.578125 15.667969 C 104.6875 15.390625 104.746094 14.980469 104.746094 14.4375 L 104.746094 11.105469 L 105.808594 11.105469 L 105.808594 17.332031 Z M 104.871094 17.332031 "/>
<path style=" stroke:none;fill-rule:nonzero;fill:rgb(0%,0%,0%);fill-opacity:1;" d="M 109.769531 16.394531 L 109.914062 17.3125 C 109.605469 17.378906 109.339844 17.417969 109.121094 17.417969 C 108.730469 17.417969 108.433594 17.355469 108.226562 17.230469 C 108.019531 17.105469 107.863281 16.949219 107.769531 16.75 C 107.683594 16.558594 107.644531 16.144531 107.644531 15.519531 L 107.644531 11.9375 L 106.871094 11.9375 L 106.871094 11.105469 L 107.644531 11.105469 L 107.644531 9.5625 L 108.707031 8.9375 L 108.707031 11.105469 L 109.769531 11.105469 L 109.769531 11.9375 L 108.707031 11.9375 L 108.707031 15.5625 C 108.707031 15.871094 108.714844 16.0625 108.746094 16.144531 C 108.789062 16.230469 108.851562 16.300781 108.933594 16.355469 C 109.019531 16.410156 109.132812 16.4375 109.289062 16.4375 C 109.414062 16.4375 109.570312 16.425781 109.769531 16.394531 Z M 109.769531 16.394531 "/>
<path style=" stroke:none;fill-rule:nonzero;fill:rgb(0%,0%,0%);fill-opacity:1;" d="M 422.140625 13.144531 C 422.140625 11.730469 422.523438 10.621094 423.289062 9.8125 C 424.046875 8.996094 425.039062 8.582031 426.246094 8.582031 C 427.039062 8.582031 427.75 8.78125 428.390625 9.167969 C 429.027344 9.542969 429.515625 10.074219 429.851562 10.75 C 430.183594 11.433594 430.351562 12.199219 430.351562 13.042969 C 430.351562 13.917969 430.171875 14.703125 429.828125 15.394531 C 429.480469 16.078125 428.980469 16.597656 428.328125 16.957031 C 427.6875 17.308594 426.996094 17.480469 426.246094 17.480469 C 425.4375 17.480469 424.714844 17.285156 424.078125 16.894531 C 423.4375 16.511719 422.953125 15.972656 422.621094 15.292969 C 422.296875 14.613281 422.140625 13.894531 422.140625 13.144531 Z M 423.308594 13.167969 C 423.308594 14.207031 423.585938 15.03125 424.140625 15.625 C 424.695312 16.207031 425.398438 16.5 426.246094 16.5 C 427.089844 16.5 427.792969 16.203125 428.351562 15.605469 C 428.902344 15.011719 429.183594 14.15625 429.183594 13.042969 C 429.183594 12.347656 429.0625 11.746094 428.828125 11.230469 C 428.589844 10.703125 428.246094 10.292969 427.789062 10 C 427.328125 9.707031 426.820312 9.5625 426.265625 9.5625 C 425.460938 9.5625 424.765625 9.84375 424.183594 10.394531 C 423.601562 10.953125 423.308594 11.875 423.308594 13.167969 Z M 423.308594 13.167969 "/>
<path style=" stroke:none;fill-rule:nonzero;fill:rgb(0%,0%,0%);fill-opacity:1;" d="M 435.765625 17.332031 L 435.765625 16.417969 C 435.277344 17.125 434.621094 17.480469 433.789062 17.480469 C 433.421875 17.480469 433.085938 17.40625 432.765625 17.269531 C 432.445312 17.121094 432.203125 16.9375 432.039062 16.730469 C 431.882812 16.519531 431.777344 16.265625 431.726562 15.957031 C 431.683594 15.75 431.664062 15.417969 431.664062 14.957031 L 431.664062 11.105469 L 432.703125 11.105469 L 432.703125 14.5625 C 432.703125 15.121094 432.730469 15.488281 432.789062 15.667969 C 432.839844 15.949219 432.976562 16.167969 433.183594 16.332031 C 433.402344 16.488281 433.671875 16.5625 433.996094 16.5625 C 434.3125 16.5625 434.609375 16.488281 434.890625 16.332031 C 435.167969 16.167969 435.359375 15.949219 435.476562 15.667969 C 435.585938 15.390625 435.640625 14.980469 435.640625 14.4375 L 435.640625 11.105469 L 436.703125 11.105469 L 436.703125 17.332031 Z M 435.765625 17.332031 "/>
<path style=" stroke:none;fill-rule:nonzero;fill:rgb(0%,0%,0%);fill-opacity:1;" d="M 440.664062 16.394531 L 440.8125 17.3125 C 440.503906 17.378906 440.238281 17.417969 440.019531 17.417969 C 439.628906 17.417969 439.332031 17.355469 439.125 17.230469 C 438.914062 17.105469 438.757812 16.949219 438.664062 16.75 C 438.582031 16.558594 438.539062 16.144531 438.539062 15.519531 L 438.539062 11.9375 L 437.769531 11.9375 L 437.769531 11.105469 L 438.539062 11.105469 L 438.539062 9.5625 L 439.601562 8.9375 L 439.601562 11.105469 L 440.664062 11.105469 L 440.664062 11.9375 L 439.601562 11.9375 L 439.601562 15.5625 C 439.601562 15.871094 439.613281 16.0625 439.644531 16.144531 C 439.6875 16.230469 439.75 16.300781 439.832031 16.355469 C 439.914062 16.410156 440.03125 16.4375 440.1875 16.4375 C 440.3125 16.4375 440.46875 16.425781 440.664062 16.394531 Z M 440.664062 16.394531 "/>
<path style=" stroke:none;fill-rule:nonzero;fill:rgb(0%,0%,0%);fill-opacity:1;" d="M 441.6875 19.707031 L 441.6875 11.105469 L 442.644531 11.105469 L 442.644531 11.917969 C 442.863281 11.597656 443.113281 11.363281 443.394531 11.207031 C 443.6875 11.058594 444.039062 10.980469 444.457031 10.980469 C 444.984375 10.980469 445.445312 11.121094 445.851562 11.394531 C 446.253906 11.660156 446.5625 12.042969 446.769531 12.542969 C 446.976562 13.042969 447.082031 13.582031 447.082031 14.167969 C 447.082031 14.808594 446.960938 15.386719 446.726562 15.894531 C 446.503906 16.410156 446.175781 16.808594 445.75 17.082031 C 445.316406 17.34375 444.859375 17.480469 444.375 17.480469 C 444.023438 17.480469 443.710938 17.402344 443.4375 17.25 C 443.15625 17.097656 442.925781 16.910156 442.75 16.6875 L 442.75 19.707031 Z M 442.644531 14.25 C 442.644531 15.058594 442.800781 15.65625 443.125 16.042969 C 443.457031 16.417969 443.851562 16.605469 444.3125 16.605469 C 444.769531 16.605469 445.164062 16.410156 445.5 16.019531 C 445.84375 15.621094 446.019531 15 446.019531 14.167969 C 446.019531 13.375 445.851562 12.785156 445.519531 12.394531 C 445.195312 11.996094 444.8125 11.792969 444.351562 11.792969 C 443.90625 11.792969 443.507812 12.011719 443.164062 12.4375 C 442.816406 12.855469 442.644531 13.457031 442.644531 14.25 Z M 442.644531 14.25 "/>
<path style=" stroke:none;fill-rule:nonzero;fill:rgb(0%,0%,0%);fill-opacity:1;" d="M 452.4375 17.332031 L 452.4375 16.417969 C 451.949219 17.125 451.292969 17.480469 450.460938 17.480469 C 450.09375 17.480469 449.757812 17.40625 449.4375 17.269531 C 449.117188 17.121094 448.875 16.9375 448.710938 16.730469 C 448.554688 16.519531 448.449219 16.265625 448.398438 15.957031 C 448.355469 15.75 448.335938 15.417969 448.335938 14.957031 L 448.335938 11.105469 L 449.375 11.105469 L 449.375 14.5625 C 449.375 15.121094 449.402344 15.488281 449.460938 15.667969 C 449.511719 15.949219 449.648438 16.167969 449.855469 16.332031 C 450.074219 16.488281 450.34375 16.5625 450.667969 16.5625 C 450.984375 16.5625 451.28125 16.488281 451.5625 16.332031 C 451.839844 16.167969 452.03125 15.949219 452.148438 15.667969 C 452.257812 15.390625 452.3125 14.980469 452.3125 14.4375 L 452.3125 11.105469 L 453.375 11.105469 L 453.375 17.332031 Z M 452.4375 17.332031 "/>
<path style=" stroke:none;fill-rule:nonzero;fill:rgb(0%,0%,0%);fill-opacity:1;" d="M 457.339844 16.394531 L 457.484375 17.3125 C 457.175781 17.378906 456.910156 17.417969 456.691406 17.417969 C 456.300781 17.417969 456.003906 17.355469 455.796875 17.230469 C 455.589844 17.105469 455.433594 16.949219 455.339844 16.75 C 455.253906 16.558594 455.214844 16.144531 455.214844 15.519531 L 455.214844 11.9375 L 454.441406 11.9375 L 454.441406 11.105469 L 455.214844 11.105469 L 455.214844 9.5625 L 456.277344 8.9375 L 456.277344 11.105469 L 457.339844 11.105469 L 457.339844 11.9375 L 456.277344 11.9375 L 456.277344 15.5625 C 456.277344 15.871094 456.285156 16.0625 456.316406 16.144531 C 456.359375 16.230469 456.421875 16.300781 456.503906 16.355469 C 456.589844 16.410156 456.703125 16.4375 456.859375 16.4375 C 456.984375 16.4375 457.140625 16.425781 457.339844 16.394531 Z M 457.339844 16.394531 "/>
<path style=" stroke:none;fill-rule:nonzero;fill:rgb(0%,0%,0%);fill-opacity:1;" d="M 253.292969 17.332031 L 253.292969 8.75 L 254.441406 8.75 L 254.441406 13 L 258.710938 8.75 L 260.230469 8.75 L 256.648438 12.230469 L 260.398438 17.332031 L 258.898438 17.332031 L 255.835938 12.980469 L 254.441406 14.355469 L 254.441406 17.332031 Z M 253.292969 17.332031 "/>
<path style=" stroke:none;fill-rule:nonzero;fill:rgb(0%,0%,0%);fill-opacity:1;" d="M 265.464844 15.332031 L 266.570312 15.457031 C 266.386719 16.097656 266.058594 16.597656 265.589844 16.957031 C 265.132812 17.308594 264.539062 17.480469 263.820312 17.480469 C 262.914062 17.480469 262.195312 17.203125 261.652344 16.644531 C 261.121094 16.078125 260.863281 15.285156 260.863281 14.269531 C 260.863281 13.230469 261.132812 12.425781 261.675781 11.855469 C 262.214844 11.269531 262.914062 10.980469 263.777344 10.980469 C 264.613281 10.980469 265.285156 11.265625 265.800781 11.832031 C 266.324219 12.390625 266.589844 13.183594 266.589844 14.207031 C 266.589844 14.28125 266.589844 14.375 266.589844 14.5 L 261.945312 14.5 C 261.988281 15.183594 262.179688 15.703125 262.527344 16.0625 C 262.871094 16.425781 263.308594 16.605469 263.839844 16.605469 C 264.226562 16.605469 264.554688 16.511719 264.820312 16.3125 C 265.097656 16.105469 265.308594 15.78125 265.464844 15.332031 Z M 262.007812 13.625 L 265.488281 13.625 C 265.445312 13.097656 265.308594 12.703125 265.089844 12.4375 C 264.757812 12.035156 264.320312 11.832031 263.777344 11.832031 C 263.289062 11.832031 262.882812 12 262.550781 12.332031 C 262.226562 12.65625 262.050781 13.082031 262.007812 13.625 Z M 262.007812 13.625 "/>
<path style=" stroke:none;fill-rule:nonzero;fill:rgb(0%,0%,0%);fill-opacity:1;" d="M 267.867188 17.332031 L 267.867188 11.105469 L 268.828125 11.105469 L 268.828125 12.0625 C 269.0625 11.621094 269.285156 11.328125 269.492188 11.1875 C 269.703125 11.050781 269.929688 10.980469 270.179688 10.980469 C 270.523438 10.980469 270.890625 11.09375 271.265625 11.3125 L 270.890625 12.292969 C 270.640625 12.140625 270.378906 12.0625 270.117188 12.0625 C 269.894531 12.0625 269.6875 12.136719 269.492188 12.269531 C 269.3125 12.410156 269.179688 12.605469 269.097656 12.855469 C 268.984375 13.230469 268.929688 13.640625 268.929688 14.082031 L 268.929688 17.332031 Z M 267.867188 17.332031 "/>
<path style=" stroke:none;fill-rule:nonzero;fill:rgb(0%,0%,0%);fill-opacity:1;" d="M 271.886719 17.332031 L 271.886719 11.105469 L 272.84375 11.105469 L 272.84375 12 C 273.285156 11.324219 273.949219 10.980469 274.824219 10.980469 C 275.199219 10.980469 275.535156 11.050781 275.84375 11.1875 C 276.160156 11.3125 276.394531 11.488281 276.550781 11.707031 C 276.703125 11.917969 276.8125 12.175781 276.886719 12.480469 C 276.925781 12.675781 276.949219 13.015625 276.949219 13.5 L 276.949219 17.332031 L 275.886719 17.332031 L 275.886719 13.542969 C 275.886719 13.113281 275.84375 12.792969 275.761719 12.582031 C 275.675781 12.375 275.53125 12.207031 275.324219 12.082031 C 275.113281 11.949219 274.871094 11.875 274.59375 11.875 C 274.144531 11.875 273.761719 12.019531 273.425781 12.3125 C 273.105469 12.59375 272.949219 13.136719 272.949219 13.9375 L 272.949219 17.332031 Z M 271.886719 17.332031 "/>
<path style=" stroke:none;fill-rule:nonzero;fill:rgb(0%,0%,0%);fill-opacity:1;" d="M 282.808594 15.332031 L 283.914062 15.457031 C 283.730469 16.097656 283.402344 16.597656 282.933594 16.957031 C 282.476562 17.308594 281.882812 17.480469 281.164062 17.480469 C 280.257812 17.480469 279.539062 17.203125 278.996094 16.644531 C 278.464844 16.078125 278.207031 15.285156 278.207031 14.269531 C 278.207031 13.230469 278.476562 12.425781 279.019531 11.855469 C 279.558594 11.269531 280.257812 10.980469 281.121094 10.980469 C 281.957031 10.980469 282.628906 11.265625 283.144531 11.832031 C 283.667969 12.390625 283.933594 13.183594 283.933594 14.207031 C 283.933594 14.28125 283.933594 14.375 283.933594 14.5 L 279.289062 14.5 C 279.332031 15.183594 279.523438 15.703125 279.871094 16.0625 C 280.214844 16.425781 280.652344 16.605469 281.183594 16.605469 C 281.570312 16.605469 281.898438 16.511719 282.164062 16.3125 C 282.441406 16.105469 282.652344 15.78125 282.808594 15.332031 Z M 279.351562 13.625 L 282.832031 13.625 C 282.789062 13.097656 282.652344 12.703125 282.433594 12.4375 C 282.101562 12.035156 281.664062 11.832031 281.121094 11.832031 C 280.632812 11.832031 280.226562 12 279.894531 12.332031 C 279.570312 12.65625 279.394531 13.082031 279.351562 13.625 Z M 279.351562 13.625 "/>
<path style=" stroke:none;fill-rule:nonzero;fill:rgb(0%,0%,0%);fill-opacity:1;" d="M 285.214844 17.332031 L 285.214844 8.75 L 286.253906 8.75 L 286.253906 17.332031 Z M 285.214844 17.332031 "/>
</g>
</svg>
