<?xml version="1.0" encoding="UTF-8"?>
<svg xmlns="http://www.w3.org/2000/svg" xmlns:xlink="http://www.w3.org/1999/xlink" width="525.333333" height="121.333333" viewBox="0 0 525.333333 121.333333" version="1.1">
<g id="surface1">
<path style="fill-rule:nonzero;fill:rgb(69.803923%,85.09804%,100%);fill-opacity:1;stroke-width:1;stroke-linecap:round;stroke-linejoin:round;stroke:rgb(0%,0%,0%);stroke-opacity:1;stroke-miterlimit:10;" d="M 211.249023 72 L 232.249023 72 L 232.249023 93 L 211.249023 93 Z M 211.249023 72 " transform="matrix(1.333333,0,0,1.333333,-5.333333,-60)"/>
<path style=" stroke:none;fill-rule:nonzero;fill:rgb(0%,0%,0%);fill-opacity:1;" d="M 285.375 50.75 L 285.375 49.6875 L 288.625 49.6875 L 288.625 50.75 Z M 285.375 50.75 "/>
<path style=" stroke:none;fill-rule:nonzero;fill:rgb(0%,0%,0%);fill-opacity:1;" d="M 289.496094 51.0625 L 290.558594 50.917969 C 290.683594 51.515625 290.878906 51.949219 291.160156 52.207031 C 291.453125 52.472656 291.8125 52.605469 292.246094 52.605469 C 292.730469 52.605469 293.140625 52.4375 293.472656 52.105469 C 293.816406 51.761719 293.996094 51.328125 293.996094 50.8125 C 293.996094 50.328125 293.832031 49.933594 293.515625 49.625 C 293.207031 49.308594 292.8125 49.144531 292.328125 49.144531 C 292.121094 49.144531 291.871094 49.1875 291.578125 49.269531 L 291.703125 48.332031 C 291.769531 48.347656 291.828125 48.355469 291.871094 48.355469 C 292.3125 48.355469 292.714844 48.238281 293.078125 48 C 293.4375 47.765625 293.621094 47.40625 293.621094 46.917969 C 293.621094 46.53125 293.484375 46.207031 293.222656 45.957031 C 292.957031 45.707031 292.621094 45.582031 292.203125 45.582031 C 291.796875 45.582031 291.457031 45.71875 291.183594 45.980469 C 290.917969 46.230469 290.746094 46.613281 290.660156 47.125 L 289.597656 46.9375 C 289.734375 46.230469 290.027344 45.683594 290.472656 45.292969 C 290.933594 44.90625 291.5 44.707031 292.183594 44.707031 C 292.652344 44.707031 293.082031 44.8125 293.472656 45.019531 C 293.875 45.21875 294.183594 45.488281 294.390625 45.832031 C 294.597656 46.183594 294.703125 46.550781 294.703125 46.9375 C 294.703125 47.3125 294.597656 47.65625 294.390625 47.957031 C 294.191406 48.265625 293.902344 48.511719 293.515625 48.6875 C 294.027344 48.800781 294.421875 49.042969 294.703125 49.417969 C 294.980469 49.78125 295.121094 50.238281 295.121094 50.792969 C 295.121094 51.542969 294.839844 52.183594 294.285156 52.707031 C 293.746094 53.222656 293.058594 53.480469 292.222656 53.480469 C 291.472656 53.480469 290.847656 53.261719 290.347656 52.8125 C 289.847656 52.371094 289.5625 51.785156 289.496094 51.0625 Z M 289.496094 51.0625 "/>
<path style="fill-rule:nonzero;fill:rgb(69.803923%,85.09804%,100%);fill-opacity:1;stroke-width:1;stroke-linecap:round;stroke-linejoin:round;stroke:rgb(0%,0%,0%);stroke-opacity:1;stroke-miterlimit:10;" d="M 190.249023 72 L 211.249023 72 L 211.249023 93 L 190.249023 93 Z M 190.249023 72 " transform="matrix(1.333333,0,0,1.333333,-5.333333,-60)"/>
<path style=" stroke:none;fill-rule:nonzero;fill:rgb(0%,0%,0%);fill-opacity:1;" d="M 257.375 50.75 L 257.375 49.6875 L 260.625 49.6875 L 260.625 50.75 Z M 257.375 50.75 "/>
<path style=" stroke:none;fill-rule:nonzero;fill:rgb(0%,0%,0%);fill-opacity:1;" d="M 265.472656 53.332031 L 264.410156 53.332031 L 264.410156 46.605469 C 264.160156 46.855469 263.828125 47.105469 263.410156 47.355469 C 262.996094 47.59375 262.625 47.765625 262.308594 47.875 L 262.308594 46.855469 C 262.890625 46.59375 263.402344 46.265625 263.847656 45.875 C 264.292969 45.472656 264.605469 45.082031 264.785156 44.707031 L 265.472656 44.707031 Z M 265.472656 53.332031 "/>
<path style="fill-rule:nonzero;fill:rgb(69.803923%,85.09804%,100%);fill-opacity:1;stroke-width:1;stroke-linecap:round;stroke-linejoin:round;stroke:rgb(0%,0%,0%);stroke-opacity:1;stroke-miterlimit:10;" d="M 4.500977 72 L 25.500977 72 L 25.500977 93 L 4.500977 93 Z M 4.500977 72 " transform="matrix(1.333333,0,0,1.333333,-5.333333,-60)"/>
<path style=" stroke:none;fill-rule:nonzero;fill:rgb(0%,0%,0%);fill-opacity:1;" d="M 17.371094 52.3125 L 17.371094 53.332031 L 11.683594 53.332031 C 11.683594 53.082031 11.726562 52.84375 11.808594 52.605469 C 11.960938 52.21875 12.195312 51.832031 12.515625 51.457031 C 12.835938 51.082031 13.292969 50.65625 13.890625 50.167969 C 14.820312 49.390625 15.445312 48.78125 15.765625 48.332031 C 16.101562 47.890625 16.265625 47.46875 16.265625 47.0625 C 16.265625 46.644531 16.109375 46.300781 15.808594 46.019531 C 15.515625 45.730469 15.132812 45.582031 14.664062 45.582031 C 14.148438 45.582031 13.734375 45.738281 13.433594 46.042969 C 13.125 46.347656 12.976562 46.769531 12.976562 47.3125 L 11.890625 47.1875 C 11.960938 46.386719 12.234375 45.769531 12.726562 45.355469 C 13.210938 44.925781 13.859375 44.707031 14.683594 44.707031 C 15.5 44.707031 16.148438 44.9375 16.621094 45.394531 C 17.105469 45.855469 17.351562 46.417969 17.351562 47.082031 C 17.351562 47.433594 17.277344 47.769531 17.140625 48.105469 C 17 48.4375 16.765625 48.792969 16.433594 49.167969 C 16.109375 49.53125 15.578125 50.03125 14.828125 50.667969 C 14.1875 51.199219 13.777344 51.558594 13.601562 51.75 C 13.417969 51.949219 13.273438 52.136719 13.164062 52.3125 Z M 17.371094 52.3125 "/>
<path style="fill-rule:nonzero;fill:rgb(69.803923%,85.09804%,100%);fill-opacity:1;stroke-width:1;stroke-linecap:round;stroke-linejoin:round;stroke:rgb(0%,0%,0%);stroke-opacity:1;stroke-miterlimit:10;" d="M 25.500977 72 L 46.500977 72 L 46.500977 93 L 25.500977 93 Z M 25.500977 72 " transform="matrix(1.333333,0,0,1.333333,-5.333333,-60)"/>
<path style=" stroke:none;fill-rule:nonzero;fill:rgb(0%,0%,0%);fill-opacity:1;" d="M 39.828125 51.0625 L 40.890625 50.917969 C 41.015625 51.515625 41.214844 51.949219 41.496094 52.207031 C 41.789062 52.472656 42.148438 52.605469 42.578125 52.605469 C 43.0625 52.605469 43.476562 52.4375 43.808594 52.105469 C 44.152344 51.761719 44.328125 51.328125 44.328125 50.8125 C 44.328125 50.328125 44.167969 49.933594 43.851562 49.625 C 43.542969 49.308594 43.148438 49.144531 42.664062 49.144531 C 42.453125 49.144531 42.203125 49.1875 41.914062 49.269531 L 42.039062 48.332031 C 42.105469 48.347656 42.164062 48.355469 42.203125 48.355469 C 42.648438 48.355469 43.046875 48.238281 43.414062 48 C 43.773438 47.765625 43.953125 47.40625 43.953125 46.917969 C 43.953125 46.53125 43.820312 46.207031 43.558594 45.957031 C 43.292969 45.707031 42.953125 45.582031 42.539062 45.582031 C 42.132812 45.582031 41.792969 45.71875 41.515625 45.980469 C 41.25 46.230469 41.078125 46.613281 40.996094 47.125 L 39.933594 46.9375 C 40.070312 46.230469 40.359375 45.683594 40.808594 45.292969 C 41.265625 44.90625 41.835938 44.707031 42.515625 44.707031 C 42.984375 44.707031 43.417969 44.8125 43.808594 45.019531 C 44.210938 45.21875 44.515625 45.488281 44.726562 45.832031 C 44.933594 46.183594 45.039062 46.550781 45.039062 46.9375 C 45.039062 47.3125 44.933594 47.65625 44.726562 47.957031 C 44.527344 48.265625 44.234375 48.511719 43.851562 48.6875 C 44.359375 48.800781 44.757812 49.042969 45.039062 49.417969 C 45.3125 49.78125 45.453125 50.238281 45.453125 50.792969 C 45.453125 51.542969 45.171875 52.183594 44.621094 52.707031 C 44.078125 53.222656 43.390625 53.480469 42.558594 53.480469 C 41.808594 53.480469 41.183594 53.261719 40.683594 52.8125 C 40.183594 52.371094 39.898438 51.785156 39.828125 51.0625 Z M 39.828125 51.0625 "/>
<path style="fill-rule:nonzero;fill:rgb(100%,100%,100%);fill-opacity:1;stroke-width:1;stroke-linecap:round;stroke-linejoin:round;stroke:rgb(0%,0%,0%);stroke-opacity:1;stroke-miterlimit:10;" d="M 46.500977 72 L 67.500977 72 L 67.500977 93 L 46.500977 93 Z M 46.500977 72 " transform="matrix(1.333333,0,0,1.333333,-5.333333,-60)"/>
<path style=" stroke:none;fill-rule:nonzero;fill:rgb(0%,0%,0%);fill-opacity:1;" d="M 71.203125 53.332031 L 71.203125 51.269531 L 67.476562 51.269531 L 67.476562 50.3125 L 71.390625 44.75 L 72.265625 44.75 L 72.265625 50.3125 L 73.433594 50.3125 L 73.433594 51.269531 L 72.265625 51.269531 L 72.265625 53.332031 Z M 71.203125 50.3125 L 71.203125 46.4375 L 68.515625 50.3125 Z M 71.203125 50.3125 "/>
<path style="fill-rule:nonzero;fill:rgb(100%,100%,100%);fill-opacity:1;stroke-width:1;stroke-linecap:round;stroke-linejoin:round;stroke:rgb(0%,0%,0%);stroke-opacity:1;stroke-miterlimit:10;" d="M 67.500977 72 L 88.500977 72 L 88.500977 93 L 67.500977 93 Z M 67.500977 72 " transform="matrix(1.333333,0,0,1.333333,-5.333333,-60)"/>
<path style=" stroke:none;fill-rule:nonzero;fill:rgb(0%,0%,0%);fill-opacity:1;" d="M 95.828125 51.082031 L 96.933594 50.980469 C 97.015625 51.519531 97.203125 51.933594 97.496094 52.207031 C 97.796875 52.472656 98.164062 52.605469 98.578125 52.605469 C 99.089844 52.605469 99.523438 52.417969 99.871094 52.042969 C 100.230469 51.65625 100.414062 51.144531 100.414062 50.519531 C 100.414062 49.910156 100.234375 49.433594 99.890625 49.082031 C 99.558594 48.738281 99.121094 48.5625 98.578125 48.5625 C 98.230469 48.5625 97.917969 48.644531 97.640625 48.8125 C 97.375 48.96875 97.164062 49.160156 96.996094 49.394531 L 96.015625 49.269531 L 96.851562 44.855469 L 101.121094 44.855469 L 101.121094 45.875 L 97.683594 45.875 L 97.226562 48.167969 C 97.734375 47.824219 98.277344 47.644531 98.851562 47.644531 C 99.601562 47.644531 100.230469 47.90625 100.746094 48.417969 C 101.257812 48.933594 101.515625 49.597656 101.515625 50.417969 C 101.515625 51.199219 101.292969 51.871094 100.851562 52.4375 C 100.292969 53.136719 99.539062 53.480469 98.578125 53.480469 C 97.796875 53.480469 97.164062 53.265625 96.664062 52.832031 C 96.171875 52.390625 95.898438 51.808594 95.828125 51.082031 Z M 95.828125 51.082031 "/>
<path style="fill-rule:nonzero;fill:rgb(100%,100%,100%);fill-opacity:1;stroke-width:1;stroke-linecap:round;stroke-linejoin:round;stroke:rgb(0%,0%,0%);stroke-opacity:1;stroke-miterlimit:10;" d="M 130.500977 72 L 151.500977 72 L 151.500977 93 L 130.500977 93 Z M 130.500977 72 " transform="matrix(1.333333,0,0,1.333333,-5.333333,-60)"/>
<path style=" stroke:none;fill-rule:nonzero;fill:rgb(0%,0%,0%);fill-opacity:1;" d="M 181.453125 48.667969 C 181.007812 48.515625 180.683594 48.292969 180.476562 48 C 180.265625 47.699219 180.164062 47.332031 180.164062 46.917969 C 180.164062 46.292969 180.382812 45.769531 180.828125 45.355469 C 181.289062 44.925781 181.882812 44.707031 182.621094 44.707031 C 183.371094 44.707031 183.976562 44.933594 184.433594 45.375 C 184.890625 45.808594 185.121094 46.332031 185.121094 46.957031 C 185.121094 47.347656 185.015625 47.699219 184.808594 48 C 184.601562 48.292969 184.277344 48.515625 183.851562 48.667969 C 184.375 48.847656 184.777344 49.136719 185.058594 49.519531 C 185.335938 49.894531 185.476562 50.347656 185.476562 50.875 C 185.476562 51.613281 185.210938 52.230469 184.683594 52.730469 C 184.167969 53.230469 183.484375 53.480469 182.640625 53.480469 C 181.792969 53.480469 181.105469 53.230469 180.578125 52.730469 C 180.0625 52.230469 179.808594 51.605469 179.808594 50.855469 C 179.808594 50.300781 179.945312 49.832031 180.226562 49.457031 C 180.515625 49.074219 180.921875 48.808594 181.453125 48.667969 Z M 181.246094 46.894531 C 181.246094 47.300781 181.371094 47.636719 181.621094 47.894531 C 181.882812 48.144531 182.226562 48.269531 182.640625 48.269531 C 183.058594 48.269531 183.390625 48.144531 183.640625 47.894531 C 183.902344 47.636719 184.039062 47.3125 184.039062 46.9375 C 184.039062 46.5625 183.902344 46.246094 183.640625 45.980469 C 183.375 45.71875 183.042969 45.582031 182.640625 45.582031 C 182.234375 45.582031 181.902344 45.71875 181.640625 45.980469 C 181.375 46.230469 181.246094 46.535156 181.246094 46.894531 Z M 180.890625 50.855469 C 180.890625 51.160156 180.960938 51.453125 181.101562 51.730469 C 181.25 52.011719 181.464844 52.222656 181.746094 52.375 C 182.023438 52.53125 182.328125 52.605469 182.664062 52.605469 C 183.164062 52.605469 183.570312 52.449219 183.890625 52.125 C 184.226562 51.808594 184.390625 51.394531 184.390625 50.894531 C 184.390625 50.386719 184.226562 49.957031 183.890625 49.625 C 183.558594 49.292969 183.132812 49.125 182.621094 49.125 C 182.121094 49.125 181.703125 49.292969 181.371094 49.625 C 181.046875 49.957031 180.890625 50.371094 180.890625 50.855469 Z M 180.890625 50.855469 "/>
<path style="fill-rule:nonzero;fill:rgb(100%,100%,100%);fill-opacity:1;stroke-width:1;stroke-linecap:round;stroke-linejoin:round;stroke:rgb(0%,0%,0%);stroke-opacity:1;stroke-miterlimit:10;" d="M 88.500977 72 L 109.500977 72 L 109.500977 93 L 88.500977 93 Z M 88.500977 72 " transform="matrix(1.333333,0,0,1.333333,-5.333333,-60)"/>
<path style=" stroke:none;fill-rule:nonzero;fill:rgb(0%,0%,0%);fill-opacity:1;" d="M 129.308594 46.855469 L 128.246094 46.9375 C 128.164062 46.519531 128.027344 46.21875 127.851562 46.019531 C 127.570312 45.730469 127.226562 45.582031 126.808594 45.582031 C 126.460938 45.582031 126.164062 45.675781 125.914062 45.855469 C 125.578125 46.105469 125.3125 46.457031 125.121094 46.917969 C 124.9375 47.375 124.839844 48.035156 124.828125 48.894531 C 125.078125 48.519531 125.382812 48.246094 125.746094 48.0625 C 126.121094 47.871094 126.507812 47.769531 126.914062 47.769531 C 127.621094 47.769531 128.214844 48.03125 128.703125 48.542969 C 129.203125 49.058594 129.453125 49.722656 129.453125 50.542969 C 129.453125 51.082031 129.335938 51.59375 129.101562 52.0625 C 128.859375 52.519531 128.542969 52.875 128.140625 53.125 C 127.734375 53.359375 127.277344 53.480469 126.765625 53.480469 C 125.890625 53.480469 125.171875 53.160156 124.621094 52.519531 C 124.0625 51.871094 123.789062 50.800781 123.789062 49.3125 C 123.789062 47.660156 124.089844 46.453125 124.703125 45.6875 C 125.230469 45.035156 125.953125 44.707031 126.871094 44.707031 C 127.539062 44.707031 128.085938 44.90625 128.515625 45.292969 C 128.945312 45.667969 129.210938 46.1875 129.308594 46.855469 Z M 124.996094 50.542969 C 124.996094 50.917969 125.070312 51.269531 125.226562 51.605469 C 125.375 51.925781 125.589844 52.175781 125.871094 52.355469 C 126.148438 52.519531 126.4375 52.605469 126.746094 52.605469 C 127.1875 52.605469 127.570312 52.433594 127.890625 52.082031 C 128.210938 51.722656 128.371094 51.230469 128.371094 50.605469 C 128.371094 50.011719 128.210938 49.542969 127.890625 49.207031 C 127.585938 48.863281 127.1875 48.6875 126.703125 48.6875 C 126.230469 48.6875 125.828125 48.863281 125.496094 49.207031 C 125.164062 49.542969 124.996094 49.988281 124.996094 50.542969 Z M 124.996094 50.542969 "/>
<path style="fill-rule:nonzero;fill:rgb(100%,100%,100%);fill-opacity:1;stroke-width:1;stroke-linecap:round;stroke-linejoin:round;stroke:rgb(0%,0%,0%);stroke-opacity:1;stroke-miterlimit:10;" d="M 109.500977 72 L 130.500977 72 L 130.500977 93 L 109.500977 93 Z M 109.500977 72 " transform="matrix(1.333333,0,0,1.333333,-5.333333,-60)"/>
<path style=" stroke:none;fill-rule:nonzero;fill:rgb(0%,0%,0%);fill-opacity:1;" d="M 151.890625 45.875 L 151.890625 44.855469 L 157.453125 44.855469 L 157.453125 45.667969 C 156.914062 46.25 156.371094 47.03125 155.828125 48 C 155.289062 48.957031 154.871094 49.953125 154.578125 50.980469 C 154.371094 51.6875 154.234375 52.472656 154.183594 53.332031 L 153.101562 53.332031 C 153.109375 52.65625 153.246094 51.84375 153.496094 50.894531 C 153.746094 49.9375 154.105469 49.015625 154.578125 48.125 C 155.0625 47.238281 155.570312 46.488281 156.101562 45.875 Z M 151.890625 45.875 "/>
<path style=" stroke:none;fill-rule:nonzero;fill:rgb(0%,0%,0%);fill-opacity:1;" d="M 219.101562 75.3125 L 219.644531 73.644531 C 220.878906 74.078125 221.78125 74.453125 222.351562 74.769531 C 222.195312 73.371094 222.125 72.394531 222.125 71.855469 L 223.8125 71.855469 C 223.78125 72.636719 223.691406 73.605469 223.539062 74.769531 C 224.34375 74.371094 225.269531 73.996094 226.3125 73.644531 L 226.851562 75.3125 C 225.851562 75.636719 224.878906 75.847656 223.9375 75.957031 C 224.40625 76.375 225.082031 77.113281 225.957031 78.167969 L 224.539062 79.167969 C 224.082031 78.558594 223.546875 77.71875 222.9375 76.644531 C 222.351562 77.761719 221.84375 78.597656 221.414062 79.167969 L 220.019531 78.167969 C 220.9375 77.058594 221.585938 76.324219 221.976562 75.957031 C 220.960938 75.765625 220.003906 75.550781 219.101562 75.3125 Z M 219.101562 75.3125 "/>
<path style=" stroke:none;fill-rule:nonzero;fill:rgb(0%,0%,0%);fill-opacity:1;" d="M 335.519531 75.230469 L 324.167969 75.230469 L 324.167969 73.269531 L 335.519531 73.269531 Z M 335.519531 80.4375 L 324.167969 80.4375 L 324.167969 78.480469 L 335.519531 78.480469 Z M 335.519531 80.4375 "/>
<path style="fill-rule:nonzero;fill:rgb(100%,100%,100%);fill-opacity:1;stroke-width:1;stroke-linecap:round;stroke-linejoin:round;stroke:rgb(0%,0%,0%);stroke-opacity:1;stroke-miterlimit:10;" d="M 130.500977 93 L 151.500977 93 L 151.500977 114 L 130.500977 114 Z M 130.500977 93 " transform="matrix(1.333333,0,0,1.333333,-5.333333,-60)"/>
<path style=" stroke:none;fill-rule:nonzero;fill:rgb(0%,0%,0%);fill-opacity:1;" d="M 179.890625 73.875 L 179.890625 72.855469 L 185.453125 72.855469 L 185.453125 73.667969 C 184.914062 74.25 184.371094 75.03125 183.828125 76 C 183.289062 76.957031 182.871094 77.953125 182.578125 78.980469 C 182.371094 79.6875 182.234375 80.472656 182.183594 81.332031 L 181.101562 81.332031 C 181.109375 80.65625 181.246094 79.84375 181.496094 78.894531 C 181.746094 77.9375 182.105469 77.015625 182.578125 76.125 C 183.0625 75.238281 183.570312 74.488281 184.101562 73.875 Z M 179.890625 73.875 "/>
<path style="fill-rule:nonzero;fill:rgb(100%,100%,100%);fill-opacity:1;stroke-width:1;stroke-linecap:round;stroke-linejoin:round;stroke:rgb(0%,0%,0%);stroke-opacity:1;stroke-miterlimit:10;" d="M 46.500977 93 L 67.500977 93 L 67.500977 114 L 46.500977 114 Z M 46.500977 93 " transform="matrix(1.333333,0,0,1.333333,-5.333333,-60)"/>
<path style=" stroke:none;fill-rule:nonzero;fill:rgb(0%,0%,0%);fill-opacity:1;" d="M 67.828125 79.0625 L 68.890625 78.917969 C 69.015625 79.515625 69.214844 79.949219 69.496094 80.207031 C 69.789062 80.472656 70.148438 80.605469 70.578125 80.605469 C 71.0625 80.605469 71.476562 80.4375 71.808594 80.105469 C 72.152344 79.761719 72.328125 79.328125 72.328125 78.8125 C 72.328125 78.328125 72.167969 77.933594 71.851562 77.625 C 71.542969 77.308594 71.148438 77.144531 70.664062 77.144531 C 70.453125 77.144531 70.203125 77.1875 69.914062 77.269531 L 70.039062 76.332031 C 70.105469 76.347656 70.164062 76.355469 70.203125 76.355469 C 70.648438 76.355469 71.046875 76.238281 71.414062 76 C 71.773438 75.765625 71.953125 75.40625 71.953125 74.917969 C 71.953125 74.53125 71.820312 74.207031 71.558594 73.957031 C 71.292969 73.707031 70.953125 73.582031 70.539062 73.582031 C 70.132812 73.582031 69.792969 73.71875 69.515625 73.980469 C 69.25 74.230469 69.078125 74.613281 68.996094 75.125 L 67.933594 74.9375 C 68.070312 74.230469 68.359375 73.683594 68.808594 73.292969 C 69.265625 72.90625 69.835938 72.707031 70.515625 72.707031 C 70.984375 72.707031 71.417969 72.8125 71.808594 73.019531 C 72.210938 73.21875 72.515625 73.488281 72.726562 73.832031 C 72.933594 74.183594 73.039062 74.550781 73.039062 74.9375 C 73.039062 75.3125 72.933594 75.65625 72.726562 75.957031 C 72.527344 76.265625 72.234375 76.511719 71.851562 76.6875 C 72.359375 76.800781 72.757812 77.042969 73.039062 77.417969 C 73.3125 77.78125 73.453125 78.238281 73.453125 78.792969 C 73.453125 79.542969 73.171875 80.183594 72.621094 80.707031 C 72.078125 81.222656 71.390625 81.480469 70.558594 81.480469 C 69.808594 81.480469 69.183594 81.261719 68.683594 80.8125 C 68.183594 80.371094 67.898438 79.785156 67.828125 79.0625 Z M 67.828125 79.0625 "/>
<path style="fill-rule:nonzero;fill:rgb(100%,100%,100%);fill-opacity:1;stroke-width:1;stroke-linecap:round;stroke-linejoin:round;stroke:rgb(0%,0%,0%);stroke-opacity:1;stroke-miterlimit:10;" d="M 109.500977 93 L 130.500977 93 L 130.500977 114 L 109.500977 114 Z M 109.500977 93 " transform="matrix(1.333333,0,0,1.333333,-5.333333,-60)"/>
<path style=" stroke:none;fill-rule:nonzero;fill:rgb(0%,0%,0%);fill-opacity:1;" d="M 157.308594 74.855469 L 156.246094 74.9375 C 156.164062 74.519531 156.027344 74.21875 155.851562 74.019531 C 155.570312 73.730469 155.226562 73.582031 154.808594 73.582031 C 154.460938 73.582031 154.164062 73.675781 153.914062 73.855469 C 153.578125 74.105469 153.3125 74.457031 153.121094 74.917969 C 152.9375 75.375 152.839844 76.035156 152.828125 76.894531 C 153.078125 76.519531 153.382812 76.246094 153.746094 76.0625 C 154.121094 75.871094 154.507812 75.769531 154.914062 75.769531 C 155.621094 75.769531 156.214844 76.03125 156.703125 76.542969 C 157.203125 77.058594 157.453125 77.722656 157.453125 78.542969 C 157.453125 79.082031 157.335938 79.59375 157.101562 80.0625 C 156.859375 80.519531 156.542969 80.875 156.140625 81.125 C 155.734375 81.359375 155.277344 81.480469 154.765625 81.480469 C 153.890625 81.480469 153.171875 81.160156 152.621094 80.519531 C 152.0625 79.871094 151.789062 78.800781 151.789062 77.3125 C 151.789062 75.660156 152.089844 74.453125 152.703125 73.6875 C 153.230469 73.035156 153.953125 72.707031 154.871094 72.707031 C 155.539062 72.707031 156.085938 72.90625 156.515625 73.292969 C 156.945312 73.667969 157.210938 74.1875 157.308594 74.855469 Z M 152.996094 78.542969 C 152.996094 78.917969 153.070312 79.269531 153.226562 79.605469 C 153.375 79.925781 153.589844 80.175781 153.871094 80.355469 C 154.148438 80.519531 154.4375 80.605469 154.746094 80.605469 C 155.1875 80.605469 155.570312 80.433594 155.890625 80.082031 C 156.210938 79.722656 156.371094 79.230469 156.371094 78.605469 C 156.371094 78.011719 156.210938 77.542969 155.890625 77.207031 C 155.585938 76.863281 155.1875 76.6875 154.703125 76.6875 C 154.230469 76.6875 153.828125 76.863281 153.496094 77.207031 C 153.164062 77.542969 152.996094 77.988281 152.996094 78.542969 Z M 152.996094 78.542969 "/>
<path style="fill-rule:nonzero;fill:rgb(69.803923%,85.09804%,100%);fill-opacity:1;stroke-width:1;stroke-linecap:round;stroke-linejoin:round;stroke:rgb(0%,0%,0%);stroke-opacity:1;stroke-miterlimit:10;" d="M 25.500977 93 L 46.500977 93 L 46.500977 114 L 25.500977 114 Z M 25.500977 93 " transform="matrix(1.333333,0,0,1.333333,-5.333333,-60)"/>
<path style=" stroke:none;fill-rule:nonzero;fill:rgb(0%,0%,0%);fill-opacity:1;" d="M 45.371094 80.3125 L 45.371094 81.332031 L 39.683594 81.332031 C 39.683594 81.082031 39.726562 80.84375 39.808594 80.605469 C 39.960938 80.21875 40.195312 79.832031 40.515625 79.457031 C 40.835938 79.082031 41.292969 78.65625 41.890625 78.167969 C 42.820312 77.390625 43.445312 76.78125 43.765625 76.332031 C 44.101562 75.890625 44.265625 75.46875 44.265625 75.0625 C 44.265625 74.644531 44.109375 74.300781 43.808594 74.019531 C 43.515625 73.730469 43.132812 73.582031 42.664062 73.582031 C 42.148438 73.582031 41.734375 73.738281 41.433594 74.042969 C 41.125 74.347656 40.976562 74.769531 40.976562 75.3125 L 39.890625 75.1875 C 39.960938 74.386719 40.234375 73.769531 40.726562 73.355469 C 41.210938 72.925781 41.859375 72.707031 42.683594 72.707031 C 43.5 72.707031 44.148438 72.9375 44.621094 73.394531 C 45.105469 73.855469 45.351562 74.417969 45.351562 75.082031 C 45.351562 75.433594 45.277344 75.769531 45.140625 76.105469 C 45 76.4375 44.765625 76.792969 44.433594 77.167969 C 44.109375 77.53125 43.578125 78.03125 42.828125 78.667969 C 42.1875 79.199219 41.777344 79.558594 41.601562 79.75 C 41.417969 79.949219 41.273438 80.136719 41.164062 80.3125 Z M 45.371094 80.3125 "/>
<path style="fill-rule:nonzero;fill:rgb(100%,100%,100%);fill-opacity:1;stroke-width:1;stroke-linecap:round;stroke-linejoin:round;stroke:rgb(0%,0%,0%);stroke-opacity:1;stroke-miterlimit:10;" d="M 88.500977 93 L 109.500977 93 L 109.500977 114 L 88.500977 114 Z M 88.500977 93 " transform="matrix(1.333333,0,0,1.333333,-5.333333,-60)"/>
<path style=" stroke:none;fill-rule:nonzero;fill:rgb(0%,0%,0%);fill-opacity:1;" d="M 123.828125 79.082031 L 124.933594 78.980469 C 125.015625 79.519531 125.203125 79.933594 125.496094 80.207031 C 125.796875 80.472656 126.164062 80.605469 126.578125 80.605469 C 127.089844 80.605469 127.523438 80.417969 127.871094 80.042969 C 128.230469 79.65625 128.414062 79.144531 128.414062 78.519531 C 128.414062 77.910156 128.234375 77.433594 127.890625 77.082031 C 127.558594 76.738281 127.121094 76.5625 126.578125 76.5625 C 126.230469 76.5625 125.917969 76.644531 125.640625 76.8125 C 125.375 76.96875 125.164062 77.160156 124.996094 77.394531 L 124.015625 77.269531 L 124.851562 72.855469 L 129.121094 72.855469 L 129.121094 73.875 L 125.683594 73.875 L 125.226562 76.167969 C 125.734375 75.824219 126.277344 75.644531 126.851562 75.644531 C 127.601562 75.644531 128.230469 75.90625 128.746094 76.417969 C 129.257812 76.933594 129.515625 77.597656 129.515625 78.417969 C 129.515625 79.199219 129.292969 79.871094 128.851562 80.4375 C 128.292969 81.136719 127.539062 81.480469 126.578125 81.480469 C 125.796875 81.480469 125.164062 81.265625 124.664062 80.832031 C 124.171875 80.390625 123.898438 79.808594 123.828125 79.082031 Z M 123.828125 79.082031 "/>
<path style="fill-rule:nonzero;fill:rgb(69.803923%,85.09804%,100%);fill-opacity:1;stroke-width:1;stroke-linecap:round;stroke-linejoin:round;stroke:rgb(0%,0%,0%);stroke-opacity:1;stroke-miterlimit:10;" d="M 4.500977 93 L 25.500977 93 L 25.500977 114 L 4.500977 114 Z M 4.500977 93 " transform="matrix(1.333333,0,0,1.333333,-5.333333,-60)"/>
<path style=" stroke:none;fill-rule:nonzero;fill:rgb(0%,0%,0%);fill-opacity:1;" d="M 15.808594 81.332031 L 14.746094 81.332031 L 14.746094 74.605469 C 14.496094 74.855469 14.164062 75.105469 13.746094 75.355469 C 13.328125 75.59375 12.960938 75.765625 12.640625 75.875 L 12.640625 74.855469 C 13.226562 74.59375 13.734375 74.265625 14.183594 73.875 C 14.625 73.472656 14.9375 73.082031 15.121094 72.707031 L 15.808594 72.707031 Z M 15.808594 81.332031 "/>
<path style="fill-rule:nonzero;fill:rgb(100%,100%,100%);fill-opacity:1;stroke-width:1;stroke-linecap:round;stroke-linejoin:round;stroke:rgb(0%,0%,0%);stroke-opacity:1;stroke-miterlimit:10;" d="M 67.500977 93 L 88.500977 93 L 88.500977 114 L 67.500977 114 Z M 67.500977 93 " transform="matrix(1.333333,0,0,1.333333,-5.333333,-60)"/>
<path style=" stroke:none;fill-rule:nonzero;fill:rgb(0%,0%,0%);fill-opacity:1;" d="M 99.203125 81.332031 L 99.203125 79.269531 L 95.476562 79.269531 L 95.476562 78.3125 L 99.390625 72.75 L 100.265625 72.75 L 100.265625 78.3125 L 101.433594 78.3125 L 101.433594 79.269531 L 100.265625 79.269531 L 100.265625 81.332031 Z M 99.203125 78.3125 L 99.203125 74.4375 L 96.515625 78.3125 Z M 99.203125 78.3125 "/>
<path style="fill-rule:nonzero;fill:rgb(69.803923%,85.09804%,100%);fill-opacity:1;stroke-width:1;stroke-linecap:round;stroke-linejoin:round;stroke:rgb(0%,0%,0%);stroke-opacity:1;stroke-miterlimit:10;" d="M 211.249023 93 L 232.249023 93 L 232.249023 114 L 211.249023 114 Z M 211.249023 93 " transform="matrix(1.333333,0,0,1.333333,-5.333333,-60)"/>
<path style=" stroke:none;fill-rule:nonzero;fill:rgb(0%,0%,0%);fill-opacity:1;" d="M 290.871094 81.332031 L 290.871094 79.269531 L 287.140625 79.269531 L 287.140625 78.3125 L 291.058594 72.75 L 291.933594 72.75 L 291.933594 78.3125 L 293.101562 78.3125 L 293.101562 79.269531 L 291.933594 79.269531 L 291.933594 81.332031 Z M 290.871094 78.3125 L 290.871094 74.4375 L 288.183594 78.3125 Z M 290.871094 78.3125 "/>
<path style="fill-rule:nonzero;fill:rgb(69.803923%,85.09804%,100%);fill-opacity:1;stroke-width:1;stroke-linecap:round;stroke-linejoin:round;stroke:rgb(0%,0%,0%);stroke-opacity:1;stroke-miterlimit:10;" d="M 190.249023 93 L 211.249023 93 L 211.249023 114 L 190.249023 114 Z M 190.249023 93 " transform="matrix(1.333333,0,0,1.333333,-5.333333,-60)"/>
<path style=" stroke:none;fill-rule:nonzero;fill:rgb(0%,0%,0%);fill-opacity:1;" d="M 259.496094 79.0625 L 260.558594 78.917969 C 260.683594 79.515625 260.882812 79.949219 261.164062 80.207031 C 261.453125 80.472656 261.8125 80.605469 262.246094 80.605469 C 262.730469 80.605469 263.140625 80.4375 263.476562 80.105469 C 263.820312 79.761719 263.996094 79.328125 263.996094 78.8125 C 263.996094 78.328125 263.835938 77.933594 263.515625 77.625 C 263.210938 77.308594 262.8125 77.144531 262.328125 77.144531 C 262.121094 77.144531 261.871094 77.1875 261.578125 77.269531 L 261.703125 76.332031 C 261.773438 76.347656 261.828125 76.355469 261.871094 76.355469 C 262.3125 76.355469 262.714844 76.238281 263.078125 76 C 263.4375 75.765625 263.621094 75.40625 263.621094 74.917969 C 263.621094 74.53125 263.484375 74.207031 263.226562 73.957031 C 262.960938 73.707031 262.621094 73.582031 262.203125 73.582031 C 261.796875 73.582031 261.460938 73.71875 261.183594 73.980469 C 260.917969 74.230469 260.746094 74.613281 260.664062 75.125 L 259.601562 74.9375 C 259.734375 74.230469 260.027344 73.683594 260.476562 73.292969 C 260.933594 72.90625 261.5 72.707031 262.183594 72.707031 C 262.652344 72.707031 263.085938 72.8125 263.476562 73.019531 C 263.875 73.21875 264.183594 73.488281 264.390625 73.832031 C 264.601562 74.183594 264.703125 74.550781 264.703125 74.9375 C 264.703125 75.3125 264.601562 75.65625 264.390625 75.957031 C 264.195312 76.265625 263.902344 76.511719 263.515625 76.6875 C 264.027344 76.800781 264.421875 77.042969 264.703125 77.417969 C 264.980469 77.78125 265.121094 78.238281 265.121094 78.792969 C 265.121094 79.542969 264.839844 80.183594 264.289062 80.707031 C 263.746094 81.222656 263.058594 81.480469 262.226562 81.480469 C 261.476562 81.480469 260.851562 81.261719 260.351562 80.8125 C 259.851562 80.371094 259.5625 79.785156 259.496094 79.0625 Z M 259.496094 79.0625 "/>
<path style="fill-rule:nonzero;fill:rgb(100%,100%,100%);fill-opacity:1;stroke-width:1;stroke-linecap:round;stroke-linejoin:round;stroke:rgb(0%,0%,0%);stroke-opacity:1;stroke-miterlimit:10;" d="M 376 93 L 397 93 L 397 114 L 376 114 Z M 376 93 " transform="matrix(1.333333,0,0,1.333333,-5.333333,-60)"/>
<path style=" stroke:none;fill-rule:nonzero;fill:rgb(0%,0%,0%);fill-opacity:1;" d="M 503.824219 79.0625 L 504.886719 78.917969 C 505.011719 79.515625 505.210938 79.949219 505.492188 80.207031 C 505.785156 80.472656 506.144531 80.605469 506.574219 80.605469 C 507.058594 80.605469 507.472656 80.4375 507.804688 80.105469 C 508.148438 79.761719 508.324219 79.328125 508.324219 78.8125 C 508.324219 78.328125 508.164062 77.933594 507.847656 77.625 C 507.539062 77.308594 507.144531 77.144531 506.660156 77.144531 C 506.449219 77.144531 506.199219 77.1875 505.910156 77.269531 L 506.035156 76.332031 C 506.101562 76.347656 506.160156 76.355469 506.199219 76.355469 C 506.644531 76.355469 507.042969 76.238281 507.410156 76 C 507.769531 75.765625 507.949219 75.40625 507.949219 74.917969 C 507.949219 74.53125 507.816406 74.207031 507.554688 73.957031 C 507.289062 73.707031 506.949219 73.582031 506.535156 73.582031 C 506.128906 73.582031 505.789062 73.71875 505.511719 73.980469 C 505.246094 74.230469 505.074219 74.613281 504.992188 75.125 L 503.929688 74.9375 C 504.066406 74.230469 504.355469 73.683594 504.804688 73.292969 C 505.261719 72.90625 505.832031 72.707031 506.511719 72.707031 C 506.980469 72.707031 507.414062 72.8125 507.804688 73.019531 C 508.207031 73.21875 508.511719 73.488281 508.722656 73.832031 C 508.929688 74.183594 509.035156 74.550781 509.035156 74.9375 C 509.035156 75.3125 508.929688 75.65625 508.722656 75.957031 C 508.523438 76.265625 508.230469 76.511719 507.847656 76.6875 C 508.355469 76.800781 508.753906 77.042969 509.035156 77.417969 C 509.308594 77.78125 509.449219 78.238281 509.449219 78.792969 C 509.449219 79.542969 509.167969 80.183594 508.617188 80.707031 C 508.074219 81.222656 507.386719 81.480469 506.554688 81.480469 C 505.804688 81.480469 505.179688 81.261719 504.679688 80.8125 C 504.179688 80.371094 503.894531 79.785156 503.824219 79.0625 Z M 503.824219 79.0625 "/>
<path style=" stroke:none;fill-rule:nonzero;fill:rgb(0%,0%,0%);fill-opacity:1;" d="M 516.042969 80.3125 L 516.042969 81.332031 L 510.355469 81.332031 C 510.355469 81.082031 510.394531 80.84375 510.480469 80.605469 C 510.628906 80.21875 510.863281 79.832031 511.1875 79.457031 C 511.503906 79.082031 511.964844 78.65625 512.5625 78.167969 C 513.488281 77.390625 514.113281 76.78125 514.4375 76.332031 C 514.769531 75.890625 514.9375 75.46875 514.9375 75.0625 C 514.9375 74.644531 514.78125 74.300781 514.480469 74.019531 C 514.1875 73.730469 513.800781 73.582031 513.332031 73.582031 C 512.816406 73.582031 512.40625 73.738281 512.105469 74.042969 C 511.796875 74.347656 511.644531 74.769531 511.644531 75.3125 L 510.5625 75.1875 C 510.628906 74.386719 510.90625 73.769531 511.394531 73.355469 C 511.878906 72.925781 512.53125 72.707031 513.355469 72.707031 C 514.171875 72.707031 514.816406 72.9375 515.292969 73.394531 C 515.777344 73.855469 516.019531 74.417969 516.019531 75.082031 C 516.019531 75.433594 515.949219 75.769531 515.8125 76.105469 C 515.671875 76.4375 515.4375 76.792969 515.105469 77.167969 C 514.78125 77.53125 514.25 78.03125 513.5 78.667969 C 512.859375 79.199219 512.449219 79.558594 512.269531 79.75 C 512.089844 79.949219 511.941406 80.136719 511.832031 80.3125 Z M 516.042969 80.3125 "/>
<path style="fill-rule:nonzero;fill:rgb(69.803923%,85.09804%,100%);fill-opacity:1;stroke-width:1;stroke-linecap:round;stroke-linejoin:round;stroke:rgb(0%,0%,0%);stroke-opacity:1;stroke-miterlimit:10;" d="M 271 93 L 292 93 L 292 114 L 271 114 Z M 271 93 " transform="matrix(1.333333,0,0,1.333333,-5.333333,-60)"/>
<path style=" stroke:none;fill-rule:nonzero;fill:rgb(0%,0%,0%);fill-opacity:1;" d="M 372.703125 80.3125 L 372.703125 81.332031 L 367.015625 81.332031 C 367.015625 81.082031 367.058594 80.84375 367.140625 80.605469 C 367.292969 80.21875 367.527344 79.832031 367.851562 79.457031 C 368.167969 79.082031 368.625 78.65625 369.226562 78.167969 C 370.152344 77.390625 370.777344 76.78125 371.101562 76.332031 C 371.433594 75.890625 371.601562 75.46875 371.601562 75.0625 C 371.601562 74.644531 371.445312 74.300781 371.140625 74.019531 C 370.851562 73.730469 370.464844 73.582031 369.996094 73.582031 C 369.480469 73.582031 369.070312 73.738281 368.765625 74.042969 C 368.460938 74.347656 368.308594 74.769531 368.308594 75.3125 L 367.226562 75.1875 C 367.292969 74.386719 367.570312 73.769531 368.058594 73.355469 C 368.542969 72.925781 369.195312 72.707031 370.015625 72.707031 C 370.835938 72.707031 371.480469 72.9375 371.953125 73.394531 C 372.4375 73.855469 372.683594 74.417969 372.683594 75.082031 C 372.683594 75.433594 372.609375 75.769531 372.476562 76.105469 C 372.335938 76.4375 372.101562 76.792969 371.765625 77.167969 C 371.445312 77.53125 370.914062 78.03125 370.164062 78.667969 C 369.523438 79.199219 369.109375 79.558594 368.933594 79.75 C 368.75 79.949219 368.605469 80.136719 368.496094 80.3125 Z M 372.703125 80.3125 "/>
<path style="fill-rule:nonzero;fill:rgb(100%,100%,100%);fill-opacity:1;stroke-width:1;stroke-linecap:round;stroke-linejoin:round;stroke:rgb(0%,0%,0%);stroke-opacity:1;stroke-miterlimit:10;" d="M 292 93 L 313 93 L 313 114 L 292 114 Z M 292 93 " transform="matrix(1.333333,0,0,1.333333,-5.333333,-60)"/>
<path style=" stroke:none;fill-rule:nonzero;fill:rgb(0%,0%,0%);fill-opacity:1;" d="M 396.789062 76.667969 C 396.339844 76.515625 396.015625 76.292969 395.808594 76 C 395.601562 75.699219 395.496094 75.332031 395.496094 74.917969 C 395.496094 74.292969 395.714844 73.769531 396.164062 73.355469 C 396.621094 72.925781 397.214844 72.707031 397.953125 72.707031 C 398.703125 72.707031 399.308594 72.933594 399.765625 73.375 C 400.226562 73.808594 400.453125 74.332031 400.453125 74.957031 C 400.453125 75.347656 400.351562 75.699219 400.140625 76 C 399.933594 76.292969 399.609375 76.515625 399.183594 76.667969 C 399.710938 76.847656 400.109375 77.136719 400.390625 77.519531 C 400.667969 77.894531 400.808594 78.347656 400.808594 78.875 C 400.808594 79.613281 400.542969 80.230469 400.015625 80.730469 C 399.5 81.230469 398.820312 81.480469 397.976562 81.480469 C 397.125 81.480469 396.4375 81.230469 395.914062 80.730469 C 395.398438 80.230469 395.140625 79.605469 395.140625 78.855469 C 395.140625 78.300781 395.277344 77.832031 395.558594 77.457031 C 395.851562 77.074219 396.257812 76.808594 396.789062 76.667969 Z M 396.578125 74.894531 C 396.578125 75.300781 396.703125 75.636719 396.953125 75.894531 C 397.214844 76.144531 397.558594 76.269531 397.976562 76.269531 C 398.390625 76.269531 398.726562 76.144531 398.976562 75.894531 C 399.234375 75.636719 399.371094 75.3125 399.371094 74.9375 C 399.371094 74.5625 399.234375 74.246094 398.976562 73.980469 C 398.710938 73.71875 398.375 73.582031 397.976562 73.582031 C 397.570312 73.582031 397.234375 73.71875 396.976562 73.980469 C 396.710938 74.230469 396.578125 74.535156 396.578125 74.894531 Z M 396.226562 78.855469 C 396.226562 79.160156 396.292969 79.453125 396.433594 79.730469 C 396.585938 80.011719 396.796875 80.222656 397.078125 80.375 C 397.355469 80.53125 397.664062 80.605469 397.996094 80.605469 C 398.496094 80.605469 398.902344 80.449219 399.226562 80.125 C 399.558594 79.808594 399.726562 79.394531 399.726562 78.894531 C 399.726562 78.386719 399.558594 77.957031 399.226562 77.625 C 398.890625 77.292969 398.464844 77.125 397.953125 77.125 C 397.453125 77.125 397.039062 77.292969 396.703125 77.625 C 396.382812 77.957031 396.226562 78.371094 396.226562 78.855469 Z M 396.226562 78.855469 "/>
<path style="fill-rule:nonzero;fill:rgb(100%,100%,100%);fill-opacity:1;stroke-width:1;stroke-linecap:round;stroke-linejoin:round;stroke:rgb(0%,0%,0%);stroke-opacity:1;stroke-miterlimit:10;" d="M 313 93 L 334 93 L 334 114 L 313 114 Z M 313 93 " transform="matrix(1.333333,0,0,1.333333,-5.333333,-60)"/>
<path style=" stroke:none;fill-rule:nonzero;fill:rgb(0%,0%,0%);fill-opacity:1;" d="M 423.804688 81.332031 L 422.742188 81.332031 L 422.742188 74.605469 C 422.492188 74.855469 422.160156 75.105469 421.742188 75.355469 C 421.324219 75.59375 420.957031 75.765625 420.636719 75.875 L 420.636719 74.855469 C 421.222656 74.59375 421.730469 74.265625 422.179688 73.875 C 422.621094 73.472656 422.933594 73.082031 423.117188 72.707031 L 423.804688 72.707031 Z M 423.804688 81.332031 "/>
<path style=" stroke:none;fill-rule:nonzero;fill:rgb(0%,0%,0%);fill-opacity:1;" d="M 429.875 81.332031 L 429.875 79.269531 L 426.144531 79.269531 L 426.144531 78.3125 L 430.0625 72.75 L 430.9375 72.75 L 430.9375 78.3125 L 432.105469 78.3125 L 432.105469 79.269531 L 430.9375 79.269531 L 430.9375 81.332031 Z M 429.875 78.3125 L 429.875 74.4375 L 427.1875 78.3125 Z M 429.875 78.3125 "/>
<path style="fill-rule:nonzero;fill:rgb(100%,100%,100%);fill-opacity:1;stroke-width:1;stroke-linecap:round;stroke-linejoin:round;stroke:rgb(0%,0%,0%);stroke-opacity:1;stroke-miterlimit:10;" d="M 334 93 L 355 93 L 355 114 L 334 114 Z M 334 93 " transform="matrix(1.333333,0,0,1.333333,-5.333333,-60)"/>
<path style=" stroke:none;fill-rule:nonzero;fill:rgb(0%,0%,0%);fill-opacity:1;" d="M 453.367188 80.3125 L 453.367188 81.332031 L 447.679688 81.332031 C 447.679688 81.082031 447.722656 80.84375 447.804688 80.605469 C 447.957031 80.21875 448.191406 79.832031 448.511719 79.457031 C 448.832031 79.082031 449.289062 78.65625 449.886719 78.167969 C 450.816406 77.390625 451.441406 76.78125 451.761719 76.332031 C 452.097656 75.890625 452.261719 75.46875 452.261719 75.0625 C 452.261719 74.644531 452.105469 74.300781 451.804688 74.019531 C 451.511719 73.730469 451.128906 73.582031 450.660156 73.582031 C 450.144531 73.582031 449.730469 73.738281 449.429688 74.042969 C 449.121094 74.347656 448.972656 74.769531 448.972656 75.3125 L 447.886719 75.1875 C 447.957031 74.386719 448.230469 73.769531 448.722656 73.355469 C 449.207031 72.925781 449.855469 72.707031 450.679688 72.707031 C 451.496094 72.707031 452.144531 72.9375 452.617188 73.394531 C 453.101562 73.855469 453.347656 74.417969 453.347656 75.082031 C 453.347656 75.433594 453.273438 75.769531 453.136719 76.105469 C 452.996094 76.4375 452.761719 76.792969 452.429688 77.167969 C 452.105469 77.53125 451.574219 78.03125 450.824219 78.667969 C 450.183594 79.199219 449.773438 79.558594 449.597656 79.75 C 449.414062 79.949219 449.269531 80.136719 449.160156 80.3125 Z M 453.367188 80.3125 "/>
<path style=" stroke:none;fill-rule:nonzero;fill:rgb(0%,0%,0%);fill-opacity:1;" d="M 454.5 77.105469 C 454.5 76.09375 454.605469 75.269531 454.8125 74.644531 C 455.019531 74.019531 455.324219 73.542969 455.730469 73.207031 C 456.144531 72.875 456.667969 72.707031 457.292969 72.707031 C 457.761719 72.707031 458.171875 72.808594 458.519531 73 C 458.863281 73.183594 459.152344 73.449219 459.375 73.792969 C 459.59375 74.140625 459.769531 74.5625 459.894531 75.0625 C 460.03125 75.5625 460.105469 76.246094 460.105469 77.105469 C 460.105469 78.105469 460 78.917969 459.792969 79.542969 C 459.582031 80.15625 459.269531 80.636719 458.855469 80.980469 C 458.449219 81.3125 457.925781 81.480469 457.292969 81.480469 C 456.46875 81.480469 455.824219 81.183594 455.355469 80.582031 C 454.78125 79.875 454.5 78.71875 454.5 77.105469 Z M 455.582031 77.105469 C 455.582031 78.511719 455.738281 79.449219 456.0625 79.917969 C 456.394531 80.375 456.800781 80.605469 457.292969 80.605469 C 457.777344 80.605469 458.1875 80.375 458.519531 79.917969 C 458.855469 79.449219 459.019531 78.511719 459.019531 77.105469 C 459.019531 75.6875 458.855469 74.75 458.519531 74.292969 C 458.1875 73.824219 457.777344 73.582031 457.292969 73.582031 C 456.800781 73.582031 456.417969 73.785156 456.125 74.1875 C 455.761719 74.71875 455.582031 75.6875 455.582031 77.105469 Z M 455.582031 77.105469 "/>
<path style="fill-rule:nonzero;fill:rgb(100%,100%,100%);fill-opacity:1;stroke-width:1;stroke-linecap:round;stroke-linejoin:round;stroke:rgb(0%,0%,0%);stroke-opacity:1;stroke-miterlimit:10;" d="M 355 93 L 376 93 L 376 114 L 355 114 Z M 355 93 " transform="matrix(1.333333,0,0,1.333333,-5.333333,-60)"/>
<path style=" stroke:none;fill-rule:nonzero;fill:rgb(0%,0%,0%);fill-opacity:1;" d="M 481.367188 80.3125 L 481.367188 81.332031 L 475.679688 81.332031 C 475.679688 81.082031 475.722656 80.84375 475.804688 80.605469 C 475.957031 80.21875 476.191406 79.832031 476.511719 79.457031 C 476.832031 79.082031 477.289062 78.65625 477.886719 78.167969 C 478.816406 77.390625 479.441406 76.78125 479.761719 76.332031 C 480.097656 75.890625 480.261719 75.46875 480.261719 75.0625 C 480.261719 74.644531 480.105469 74.300781 479.804688 74.019531 C 479.511719 73.730469 479.128906 73.582031 478.660156 73.582031 C 478.144531 73.582031 477.730469 73.738281 477.429688 74.042969 C 477.121094 74.347656 476.972656 74.769531 476.972656 75.3125 L 475.886719 75.1875 C 475.957031 74.386719 476.230469 73.769531 476.722656 73.355469 C 477.207031 72.925781 477.855469 72.707031 478.679688 72.707031 C 479.496094 72.707031 480.144531 72.9375 480.617188 73.394531 C 481.101562 73.855469 481.347656 74.417969 481.347656 75.082031 C 481.347656 75.433594 481.273438 75.769531 481.136719 76.105469 C 480.996094 76.4375 480.761719 76.792969 480.429688 77.167969 C 480.105469 77.53125 479.574219 78.03125 478.824219 78.667969 C 478.183594 79.199219 477.773438 79.558594 477.597656 79.75 C 477.414062 79.949219 477.269531 80.136719 477.160156 80.3125 Z M 481.367188 80.3125 "/>
<path style=" stroke:none;fill-rule:nonzero;fill:rgb(0%,0%,0%);fill-opacity:1;" d="M 487.980469 74.855469 L 486.917969 74.9375 C 486.832031 74.519531 486.699219 74.21875 486.519531 74.019531 C 486.238281 73.730469 485.894531 73.582031 485.480469 73.582031 C 485.128906 73.582031 484.832031 73.675781 484.582031 73.855469 C 484.25 74.105469 483.984375 74.457031 483.792969 74.917969 C 483.609375 75.375 483.511719 76.035156 483.5 76.894531 C 483.75 76.519531 484.050781 76.246094 484.417969 76.0625 C 484.792969 75.871094 485.175781 75.769531 485.582031 75.769531 C 486.292969 75.769531 486.886719 76.03125 487.375 76.542969 C 487.875 77.058594 488.125 77.722656 488.125 78.542969 C 488.125 79.082031 488.003906 79.59375 487.769531 80.0625 C 487.53125 80.519531 487.214844 80.875 486.8125 81.125 C 486.40625 81.359375 485.949219 81.480469 485.4375 81.480469 C 484.5625 81.480469 483.84375 81.160156 483.292969 80.519531 C 482.734375 79.871094 482.457031 78.800781 482.457031 77.3125 C 482.457031 75.660156 482.761719 74.453125 483.375 73.6875 C 483.902344 73.035156 484.625 72.707031 485.542969 72.707031 C 486.207031 72.707031 486.753906 72.90625 487.1875 73.292969 C 487.613281 73.667969 487.878906 74.1875 487.980469 74.855469 Z M 483.667969 78.542969 C 483.667969 78.917969 483.738281 79.269531 483.894531 79.605469 C 484.046875 79.925781 484.261719 80.175781 484.542969 80.355469 C 484.816406 80.519531 485.109375 80.605469 485.417969 80.605469 C 485.859375 80.605469 486.238281 80.433594 486.5625 80.082031 C 486.878906 79.722656 487.042969 79.230469 487.042969 78.605469 C 487.042969 78.011719 486.878906 77.542969 486.5625 77.207031 C 486.253906 76.863281 485.859375 76.6875 485.375 76.6875 C 484.902344 76.6875 484.5 76.863281 484.167969 77.207031 C 483.832031 77.542969 483.667969 77.988281 483.667969 78.542969 Z M 483.667969 78.542969 "/>
<path style="fill-rule:nonzero;fill:rgb(69.803923%,85.09804%,100%);fill-opacity:1;stroke-width:1;stroke-linecap:round;stroke-linejoin:round;stroke:rgb(0%,0%,0%);stroke-opacity:1;stroke-miterlimit:10;" d="M 4.500977 114 L 25.500977 114 L 25.500977 135 L 4.500977 135 Z M 4.500977 114 " transform="matrix(1.333333,0,0,1.333333,-5.333333,-60)"/>
<path style=" stroke:none;fill-rule:nonzero;fill:rgb(0%,0%,0%);fill-opacity:1;" d="M 11.828125 105.105469 C 11.828125 104.09375 11.933594 103.269531 12.140625 102.644531 C 12.351562 102.019531 12.652344 101.542969 13.058594 101.207031 C 13.476562 100.875 13.996094 100.707031 14.621094 100.707031 C 15.089844 100.707031 15.5 100.808594 15.851562 101 C 16.195312 101.183594 16.480469 101.449219 16.703125 101.792969 C 16.921875 102.140625 17.101562 102.5625 17.226562 103.0625 C 17.359375 103.5625 17.433594 104.246094 17.433594 105.105469 C 17.433594 106.105469 17.328125 106.917969 17.121094 107.542969 C 16.914062 108.15625 16.601562 108.636719 16.183594 108.980469 C 15.777344 109.3125 15.257812 109.480469 14.621094 109.480469 C 13.796875 109.480469 13.152344 109.183594 12.683594 108.582031 C 12.109375 107.875 11.828125 106.71875 11.828125 105.105469 Z M 12.914062 105.105469 C 12.914062 106.511719 13.070312 107.449219 13.390625 107.917969 C 13.726562 108.375 14.132812 108.605469 14.621094 108.605469 C 15.105469 108.605469 15.515625 108.375 15.851562 107.917969 C 16.183594 107.449219 16.351562 106.511719 16.351562 105.105469 C 16.351562 103.6875 16.183594 102.75 15.851562 102.292969 C 15.515625 101.824219 15.105469 101.582031 14.621094 101.582031 C 14.132812 101.582031 13.746094 101.785156 13.453125 102.1875 C 13.089844 102.71875 12.914062 103.6875 12.914062 105.105469 Z M 12.914062 105.105469 "/>
<path style="fill-rule:nonzero;fill:rgb(69.803923%,85.09804%,100%);fill-opacity:1;stroke-width:1;stroke-linecap:round;stroke-linejoin:round;stroke:rgb(0%,0%,0%);stroke-opacity:1;stroke-miterlimit:10;" d="M 25.500977 114 L 46.500977 114 L 46.500977 135 L 25.500977 135 Z M 25.500977 114 " transform="matrix(1.333333,0,0,1.333333,-5.333333,-60)"/>
<path style=" stroke:none;fill-rule:nonzero;fill:rgb(0%,0%,0%);fill-opacity:1;" d="M 43.808594 109.332031 L 42.746094 109.332031 L 42.746094 102.605469 C 42.496094 102.855469 42.164062 103.105469 41.746094 103.355469 C 41.328125 103.59375 40.960938 103.765625 40.640625 103.875 L 40.640625 102.855469 C 41.226562 102.59375 41.734375 102.265625 42.183594 101.875 C 42.625 101.472656 42.9375 101.082031 43.121094 100.707031 L 43.808594 100.707031 Z M 43.808594 109.332031 "/>
<path style="fill-rule:nonzero;fill:rgb(100%,100%,100%);fill-opacity:1;stroke-width:1;stroke-linecap:round;stroke-linejoin:round;stroke:rgb(0%,0%,0%);stroke-opacity:1;stroke-miterlimit:10;" d="M 46.500977 114 L 67.500977 114 L 67.500977 135 L 46.500977 135 Z M 46.500977 114 " transform="matrix(1.333333,0,0,1.333333,-5.333333,-60)"/>
<path style=" stroke:none;fill-rule:nonzero;fill:rgb(0%,0%,0%);fill-opacity:1;" d="M 73.371094 108.3125 L 73.371094 109.332031 L 67.683594 109.332031 C 67.683594 109.082031 67.726562 108.84375 67.808594 108.605469 C 67.960938 108.21875 68.195312 107.832031 68.515625 107.457031 C 68.835938 107.082031 69.292969 106.65625 69.890625 106.167969 C 70.820312 105.390625 71.445312 104.78125 71.765625 104.332031 C 72.101562 103.890625 72.265625 103.46875 72.265625 103.0625 C 72.265625 102.644531 72.109375 102.300781 71.808594 102.019531 C 71.515625 101.730469 71.132812 101.582031 70.664062 101.582031 C 70.148438 101.582031 69.734375 101.738281 69.433594 102.042969 C 69.125 102.347656 68.976562 102.769531 68.976562 103.3125 L 67.890625 103.1875 C 67.960938 102.386719 68.234375 101.769531 68.726562 101.355469 C 69.210938 100.925781 69.859375 100.707031 70.683594 100.707031 C 71.5 100.707031 72.148438 100.9375 72.621094 101.394531 C 73.105469 101.855469 73.351562 102.417969 73.351562 103.082031 C 73.351562 103.433594 73.277344 103.769531 73.140625 104.105469 C 73 104.4375 72.765625 104.792969 72.433594 105.167969 C 72.109375 105.53125 71.578125 106.03125 70.828125 106.667969 C 70.1875 107.199219 69.777344 107.558594 69.601562 107.75 C 69.417969 107.949219 69.273438 108.136719 69.164062 108.3125 Z M 73.371094 108.3125 "/>
<path style="fill-rule:nonzero;fill:rgb(100%,100%,100%);fill-opacity:1;stroke-width:1;stroke-linecap:round;stroke-linejoin:round;stroke:rgb(0%,0%,0%);stroke-opacity:1;stroke-miterlimit:10;" d="M 67.500977 114 L 88.500977 114 L 88.500977 135 L 67.500977 135 Z M 67.500977 114 " transform="matrix(1.333333,0,0,1.333333,-5.333333,-60)"/>
<path style=" stroke:none;fill-rule:nonzero;fill:rgb(0%,0%,0%);fill-opacity:1;" d="M 95.828125 107.0625 L 96.890625 106.917969 C 97.015625 107.515625 97.214844 107.949219 97.496094 108.207031 C 97.789062 108.472656 98.148438 108.605469 98.578125 108.605469 C 99.0625 108.605469 99.476562 108.4375 99.808594 108.105469 C 100.152344 107.761719 100.328125 107.328125 100.328125 106.8125 C 100.328125 106.328125 100.167969 105.933594 99.851562 105.625 C 99.542969 105.308594 99.148438 105.144531 98.664062 105.144531 C 98.453125 105.144531 98.203125 105.1875 97.914062 105.269531 L 98.039062 104.332031 C 98.105469 104.347656 98.164062 104.355469 98.203125 104.355469 C 98.648438 104.355469 99.046875 104.238281 99.414062 104 C 99.773438 103.765625 99.953125 103.40625 99.953125 102.917969 C 99.953125 102.53125 99.820312 102.207031 99.558594 101.957031 C 99.292969 101.707031 98.953125 101.582031 98.539062 101.582031 C 98.132812 101.582031 97.792969 101.71875 97.515625 101.980469 C 97.25 102.230469 97.078125 102.613281 96.996094 103.125 L 95.933594 102.9375 C 96.070312 102.230469 96.359375 101.683594 96.808594 101.292969 C 97.265625 100.90625 97.835938 100.707031 98.515625 100.707031 C 98.984375 100.707031 99.417969 100.8125 99.808594 101.019531 C 100.210938 101.21875 100.515625 101.488281 100.726562 101.832031 C 100.933594 102.183594 101.039062 102.550781 101.039062 102.9375 C 101.039062 103.3125 100.933594 103.65625 100.726562 103.957031 C 100.527344 104.265625 100.234375 104.511719 99.851562 104.6875 C 100.359375 104.800781 100.757812 105.042969 101.039062 105.417969 C 101.3125 105.78125 101.453125 106.238281 101.453125 106.792969 C 101.453125 107.542969 101.171875 108.183594 100.621094 108.707031 C 100.078125 109.222656 99.390625 109.480469 98.558594 109.480469 C 97.808594 109.480469 97.183594 109.261719 96.683594 108.8125 C 96.183594 108.371094 95.898438 107.785156 95.828125 107.0625 Z M 95.828125 107.0625 "/>
<path style="fill-rule:nonzero;fill:rgb(100%,100%,100%);fill-opacity:1;stroke-width:1;stroke-linecap:round;stroke-linejoin:round;stroke:rgb(0%,0%,0%);stroke-opacity:1;stroke-miterlimit:10;" d="M 109.500977 114 L 130.500977 114 L 130.500977 135 L 109.500977 135 Z M 109.500977 114 " transform="matrix(1.333333,0,0,1.333333,-5.333333,-60)"/>
<path style=" stroke:none;fill-rule:nonzero;fill:rgb(0%,0%,0%);fill-opacity:1;" d="M 151.828125 107.082031 L 152.933594 106.980469 C 153.015625 107.519531 153.203125 107.933594 153.496094 108.207031 C 153.796875 108.472656 154.164062 108.605469 154.578125 108.605469 C 155.089844 108.605469 155.523438 108.417969 155.871094 108.042969 C 156.230469 107.65625 156.414062 107.144531 156.414062 106.519531 C 156.414062 105.910156 156.234375 105.433594 155.890625 105.082031 C 155.558594 104.738281 155.121094 104.5625 154.578125 104.5625 C 154.230469 104.5625 153.917969 104.644531 153.640625 104.8125 C 153.375 104.96875 153.164062 105.160156 152.996094 105.394531 L 152.015625 105.269531 L 152.851562 100.855469 L 157.121094 100.855469 L 157.121094 101.875 L 153.683594 101.875 L 153.226562 104.167969 C 153.734375 103.824219 154.277344 103.644531 154.851562 103.644531 C 155.601562 103.644531 156.230469 103.90625 156.746094 104.417969 C 157.257812 104.933594 157.515625 105.597656 157.515625 106.417969 C 157.515625 107.199219 157.292969 107.871094 156.851562 108.4375 C 156.292969 109.136719 155.539062 109.480469 154.578125 109.480469 C 153.796875 109.480469 153.164062 109.265625 152.664062 108.832031 C 152.171875 108.390625 151.898438 107.808594 151.828125 107.082031 Z M 151.828125 107.082031 "/>
<path style="fill-rule:nonzero;fill:rgb(100%,100%,100%);fill-opacity:1;stroke-width:1;stroke-linecap:round;stroke-linejoin:round;stroke:rgb(0%,0%,0%);stroke-opacity:1;stroke-miterlimit:10;" d="M 130.500977 114 L 151.500977 114 L 151.500977 135 L 130.500977 135 Z M 130.500977 114 " transform="matrix(1.333333,0,0,1.333333,-5.333333,-60)"/>
<path style=" stroke:none;fill-rule:nonzero;fill:rgb(0%,0%,0%);fill-opacity:1;" d="M 185.308594 102.855469 L 184.246094 102.9375 C 184.164062 102.519531 184.027344 102.21875 183.851562 102.019531 C 183.570312 101.730469 183.226562 101.582031 182.808594 101.582031 C 182.460938 101.582031 182.164062 101.675781 181.914062 101.855469 C 181.578125 102.105469 181.3125 102.457031 181.121094 102.917969 C 180.9375 103.375 180.839844 104.035156 180.828125 104.894531 C 181.078125 104.519531 181.382812 104.246094 181.746094 104.0625 C 182.121094 103.871094 182.507812 103.769531 182.914062 103.769531 C 183.621094 103.769531 184.214844 104.03125 184.703125 104.542969 C 185.203125 105.058594 185.453125 105.722656 185.453125 106.542969 C 185.453125 107.082031 185.335938 107.59375 185.101562 108.0625 C 184.859375 108.519531 184.542969 108.875 184.140625 109.125 C 183.734375 109.359375 183.277344 109.480469 182.765625 109.480469 C 181.890625 109.480469 181.171875 109.160156 180.621094 108.519531 C 180.0625 107.871094 179.789062 106.800781 179.789062 105.3125 C 179.789062 103.660156 180.089844 102.453125 180.703125 101.6875 C 181.230469 101.035156 181.953125 100.707031 182.871094 100.707031 C 183.539062 100.707031 184.085938 100.90625 184.515625 101.292969 C 184.945312 101.667969 185.210938 102.1875 185.308594 102.855469 Z M 180.996094 106.542969 C 180.996094 106.917969 181.070312 107.269531 181.226562 107.605469 C 181.375 107.925781 181.589844 108.175781 181.871094 108.355469 C 182.148438 108.519531 182.4375 108.605469 182.746094 108.605469 C 183.1875 108.605469 183.570312 108.433594 183.890625 108.082031 C 184.210938 107.722656 184.371094 107.230469 184.371094 106.605469 C 184.371094 106.011719 184.210938 105.542969 183.890625 105.207031 C 183.585938 104.863281 183.1875 104.6875 182.703125 104.6875 C 182.230469 104.6875 181.828125 104.863281 181.496094 105.207031 C 181.164062 105.542969 180.996094 105.988281 180.996094 106.542969 Z M 180.996094 106.542969 "/>
<path style="fill-rule:nonzero;fill:rgb(100%,100%,100%);fill-opacity:1;stroke-width:1;stroke-linecap:round;stroke-linejoin:round;stroke:rgb(0%,0%,0%);stroke-opacity:1;stroke-miterlimit:10;" d="M 88.500977 114 L 109.500977 114 L 109.500977 135 L 88.500977 135 Z M 88.500977 114 " transform="matrix(1.333333,0,0,1.333333,-5.333333,-60)"/>
<path style=" stroke:none;fill-rule:nonzero;fill:rgb(0%,0%,0%);fill-opacity:1;" d="M 127.203125 109.332031 L 127.203125 107.269531 L 123.476562 107.269531 L 123.476562 106.3125 L 127.390625 100.75 L 128.265625 100.75 L 128.265625 106.3125 L 129.433594 106.3125 L 129.433594 107.269531 L 128.265625 107.269531 L 128.265625 109.332031 Z M 127.203125 106.3125 L 127.203125 102.4375 L 124.515625 106.3125 Z M 127.203125 106.3125 "/>
<path style="fill-rule:nonzero;fill:rgb(69.803923%,85.09804%,100%);fill-opacity:1;stroke-width:1;stroke-linecap:round;stroke-linejoin:round;stroke:rgb(0%,0%,0%);stroke-opacity:1;stroke-miterlimit:10;" d="M 211.249023 114 L 232.249023 114 L 232.249023 135 L 211.249023 135 Z M 211.249023 114 " transform="matrix(1.333333,0,0,1.333333,-5.333333,-60)"/>
<path style=" stroke:none;fill-rule:nonzero;fill:rgb(0%,0%,0%);fill-opacity:1;" d="M 293.039062 108.3125 L 293.039062 109.332031 L 287.351562 109.332031 C 287.351562 109.082031 287.390625 108.84375 287.476562 108.605469 C 287.625 108.21875 287.859375 107.832031 288.183594 107.457031 C 288.5 107.082031 288.960938 106.65625 289.558594 106.167969 C 290.484375 105.390625 291.109375 104.78125 291.433594 104.332031 C 291.765625 103.890625 291.933594 103.46875 291.933594 103.0625 C 291.933594 102.644531 291.777344 102.300781 291.476562 102.019531 C 291.183594 101.730469 290.796875 101.582031 290.328125 101.582031 C 289.8125 101.582031 289.402344 101.738281 289.101562 102.042969 C 288.792969 102.347656 288.640625 102.769531 288.640625 103.3125 L 287.558594 103.1875 C 287.625 102.386719 287.902344 101.769531 288.390625 101.355469 C 288.875 100.925781 289.527344 100.707031 290.351562 100.707031 C 291.167969 100.707031 291.8125 100.9375 292.289062 101.394531 C 292.773438 101.855469 293.015625 102.417969 293.015625 103.082031 C 293.015625 103.433594 292.945312 103.769531 292.808594 104.105469 C 292.667969 104.4375 292.433594 104.792969 292.101562 105.167969 C 291.777344 105.53125 291.246094 106.03125 290.496094 106.667969 C 289.855469 107.199219 289.445312 107.558594 289.265625 107.75 C 289.085938 107.949219 288.9375 108.136719 288.828125 108.3125 Z M 293.039062 108.3125 "/>
<path style="fill-rule:nonzero;fill:rgb(69.803923%,85.09804%,100%);fill-opacity:1;stroke-width:1;stroke-linecap:round;stroke-linejoin:round;stroke:rgb(0%,0%,0%);stroke-opacity:1;stroke-miterlimit:10;" d="M 190.249023 114 L 211.249023 114 L 211.249023 135 L 190.249023 135 Z M 190.249023 114 " transform="matrix(1.333333,0,0,1.333333,-5.333333,-60)"/>
<path style=" stroke:none;fill-rule:nonzero;fill:rgb(0%,0%,0%);fill-opacity:1;" d="M 263.476562 109.332031 L 262.414062 109.332031 L 262.414062 102.605469 C 262.164062 102.855469 261.828125 103.105469 261.414062 103.355469 C 260.996094 103.59375 260.625 103.765625 260.308594 103.875 L 260.308594 102.855469 C 260.890625 102.59375 261.402344 102.265625 261.851562 101.875 C 262.292969 101.472656 262.605469 101.082031 262.789062 100.707031 L 263.476562 100.707031 Z M 263.476562 109.332031 "/>
<path style=" stroke:none;fill-rule:nonzero;fill:rgb(0%,0%,0%);fill-opacity:1;" d="M 86.445312 17.332031 L 86.445312 8.75 L 87.570312 8.75 L 87.570312 17.332031 Z M 86.445312 17.332031 "/>
<path style=" stroke:none;fill-rule:nonzero;fill:rgb(0%,0%,0%);fill-opacity:1;" d="M 89.445312 17.332031 L 89.445312 11.105469 L 90.40625 11.105469 L 90.40625 12 C 90.847656 11.324219 91.507812 10.980469 92.382812 10.980469 C 92.757812 10.980469 93.097656 11.050781 93.40625 11.1875 C 93.722656 11.3125 93.957031 11.488281 94.113281 11.707031 C 94.265625 11.917969 94.375 12.175781 94.445312 12.480469 C 94.488281 12.675781 94.507812 13.015625 94.507812 13.5 L 94.507812 17.332031 L 93.445312 17.332031 L 93.445312 13.542969 C 93.445312 13.113281 93.40625 12.792969 93.320312 12.582031 C 93.238281 12.375 93.09375 12.207031 92.882812 12.082031 C 92.675781 11.949219 92.429688 11.875 92.15625 11.875 C 91.707031 11.875 91.320312 12.019531 90.988281 12.3125 C 90.664062 12.59375 90.507812 13.136719 90.507812 13.9375 L 90.507812 17.332031 Z M 89.445312 17.332031 "/>
<path style=" stroke:none;fill-rule:nonzero;fill:rgb(0%,0%,0%);fill-opacity:1;" d="M 96.117188 19.707031 L 96.117188 11.105469 L 97.074219 11.105469 L 97.074219 11.917969 C 97.292969 11.597656 97.542969 11.363281 97.824219 11.207031 C 98.117188 11.058594 98.472656 10.980469 98.886719 10.980469 C 99.414062 10.980469 99.878906 11.121094 100.285156 11.394531 C 100.683594 11.660156 100.992188 12.042969 101.199219 12.542969 C 101.410156 13.042969 101.511719 13.582031 101.511719 14.167969 C 101.511719 14.808594 101.394531 15.386719 101.160156 15.894531 C 100.933594 16.410156 100.605469 16.808594 100.179688 17.082031 C 99.746094 17.34375 99.289062 17.480469 98.804688 17.480469 C 98.457031 17.480469 98.144531 17.402344 97.867188 17.25 C 97.585938 17.097656 97.355469 16.910156 97.179688 16.6875 L 97.179688 19.707031 Z M 97.074219 14.25 C 97.074219 15.058594 97.230469 15.65625 97.554688 16.042969 C 97.886719 16.417969 98.285156 16.605469 98.742188 16.605469 C 99.199219 16.605469 99.597656 16.410156 99.929688 16.019531 C 100.273438 15.621094 100.449219 15 100.449219 14.167969 C 100.449219 13.375 100.285156 12.785156 99.949219 12.394531 C 99.628906 11.996094 99.242188 11.792969 98.785156 11.792969 C 98.335938 11.792969 97.941406 12.011719 97.597656 12.4375 C 97.246094 12.855469 97.074219 13.457031 97.074219 14.25 Z M 97.074219 14.25 "/>
<path style=" stroke:none;fill-rule:nonzero;fill:rgb(0%,0%,0%);fill-opacity:1;" d="M 106.871094 17.332031 L 106.871094 16.417969 C 106.378906 17.125 105.722656 17.480469 104.890625 17.480469 C 104.527344 17.480469 104.1875 17.40625 103.871094 17.269531 C 103.546875 17.121094 103.308594 16.9375 103.140625 16.730469 C 102.984375 16.519531 102.878906 16.265625 102.828125 15.957031 C 102.785156 15.75 102.765625 15.417969 102.765625 14.957031 L 102.765625 11.105469 L 103.808594 11.105469 L 103.808594 14.5625 C 103.808594 15.121094 103.832031 15.488281 103.890625 15.667969 C 103.941406 15.949219 104.078125 16.167969 104.285156 16.332031 C 104.503906 16.488281 104.777344 16.5625 105.097656 16.5625 C 105.417969 16.5625 105.714844 16.488281 105.996094 16.332031 C 106.269531 16.167969 106.464844 15.949219 106.578125 15.667969 C 106.6875 15.390625 106.746094 14.980469 106.746094 14.4375 L 106.746094 11.105469 L 107.808594 11.105469 L 107.808594 17.332031 Z M 106.871094 17.332031 "/>
<path style=" stroke:none;fill-rule:nonzero;fill:rgb(0%,0%,0%);fill-opacity:1;" d="M 111.769531 16.394531 L 111.914062 17.3125 C 111.605469 17.378906 111.339844 17.417969 111.121094 17.417969 C 110.730469 17.417969 110.433594 17.355469 110.226562 17.230469 C 110.019531 17.105469 109.863281 16.949219 109.769531 16.75 C 109.683594 16.558594 109.644531 16.144531 109.644531 15.519531 L 109.644531 11.9375 L 108.871094 11.9375 L 108.871094 11.105469 L 109.644531 11.105469 L 109.644531 9.5625 L 110.707031 8.9375 L 110.707031 11.105469 L 111.769531 11.105469 L 111.769531 11.9375 L 110.707031 11.9375 L 110.707031 15.5625 C 110.707031 15.871094 110.714844 16.0625 110.746094 16.144531 C 110.789062 16.230469 110.851562 16.300781 110.933594 16.355469 C 111.019531 16.410156 111.132812 16.4375 111.289062 16.4375 C 111.414062 16.4375 111.570312 16.425781 111.769531 16.394531 Z M 111.769531 16.394531 "/>
<path style=" stroke:none;fill-rule:nonzero;fill:rgb(0%,0%,0%);fill-opacity:1;" d="M 422.570312 13.144531 C 422.570312 11.730469 422.953125 10.621094 423.71875 9.8125 C 424.476562 8.996094 425.46875 8.582031 426.675781 8.582031 C 427.46875 8.582031 428.179688 8.78125 428.820312 9.167969 C 429.457031 9.542969 429.945312 10.074219 430.28125 10.75 C 430.613281 11.433594 430.78125 12.199219 430.78125 13.042969 C 430.78125 13.917969 430.601562 14.703125 430.257812 15.394531 C 429.910156 16.078125 429.410156 16.597656 428.757812 16.957031 C 428.117188 17.308594 427.425781 17.480469 426.675781 17.480469 C 425.867188 17.480469 425.144531 17.285156 424.507812 16.894531 C 423.867188 16.511719 423.382812 15.972656 423.050781 15.292969 C 422.726562 14.613281 422.570312 13.894531 422.570312 13.144531 Z M 423.738281 13.167969 C 423.738281 14.207031 424.015625 15.03125 424.570312 15.625 C 425.125 16.207031 425.828125 16.5 426.675781 16.5 C 427.519531 16.5 428.222656 16.203125 428.78125 15.605469 C 429.332031 15.011719 429.613281 14.15625 429.613281 13.042969 C 429.613281 12.347656 429.492188 11.746094 429.257812 11.230469 C 429.019531 10.703125 428.675781 10.292969 428.21875 10 C 427.757812 9.707031 427.25 9.5625 426.695312 9.5625 C 425.890625 9.5625 425.195312 9.84375 424.613281 10.394531 C 424.03125 10.953125 423.738281 11.875 423.738281 13.167969 Z M 423.738281 13.167969 "/>
<path style=" stroke:none;fill-rule:nonzero;fill:rgb(0%,0%,0%);fill-opacity:1;" d="M 436.195312 17.332031 L 436.195312 16.417969 C 435.707031 17.125 435.050781 17.480469 434.21875 17.480469 C 433.851562 17.480469 433.515625 17.40625 433.195312 17.269531 C 432.875 17.121094 432.632812 16.9375 432.46875 16.730469 C 432.3125 16.519531 432.207031 16.265625 432.15625 15.957031 C 432.113281 15.75 432.09375 15.417969 432.09375 14.957031 L 432.09375 11.105469 L 433.132812 11.105469 L 433.132812 14.5625 C 433.132812 15.121094 433.160156 15.488281 433.21875 15.667969 C 433.269531 15.949219 433.40625 16.167969 433.613281 16.332031 C 433.832031 16.488281 434.101562 16.5625 434.425781 16.5625 C 434.742188 16.5625 435.039062 16.488281 435.320312 16.332031 C 435.597656 16.167969 435.789062 15.949219 435.90625 15.667969 C 436.015625 15.390625 436.070312 14.980469 436.070312 14.4375 L 436.070312 11.105469 L 437.132812 11.105469 L 437.132812 17.332031 Z M 436.195312 17.332031 "/>
<path style=" stroke:none;fill-rule:nonzero;fill:rgb(0%,0%,0%);fill-opacity:1;" d="M 441.09375 16.394531 L 441.242188 17.3125 C 440.933594 17.378906 440.667969 17.417969 440.449219 17.417969 C 440.058594 17.417969 439.761719 17.355469 439.554688 17.230469 C 439.34375 17.105469 439.1875 16.949219 439.09375 16.75 C 439.011719 16.558594 438.96875 16.144531 438.96875 15.519531 L 438.96875 11.9375 L 438.199219 11.9375 L 438.199219 11.105469 L 438.96875 11.105469 L 438.96875 9.5625 L 440.03125 8.9375 L 440.03125 11.105469 L 441.09375 11.105469 L 441.09375 11.9375 L 440.03125 11.9375 L 440.03125 15.5625 C 440.03125 15.871094 440.042969 16.0625 440.074219 16.144531 C 440.117188 16.230469 440.179688 16.300781 440.261719 16.355469 C 440.34375 16.410156 440.460938 16.4375 440.617188 16.4375 C 440.742188 16.4375 440.898438 16.425781 441.09375 16.394531 Z M 441.09375 16.394531 "/>
<path style=" stroke:none;fill-rule:nonzero;fill:rgb(0%,0%,0%);fill-opacity:1;" d="M 442.117188 19.707031 L 442.117188 11.105469 L 443.074219 11.105469 L 443.074219 11.917969 C 443.292969 11.597656 443.542969 11.363281 443.824219 11.207031 C 444.117188 11.058594 444.472656 10.980469 444.886719 10.980469 C 445.414062 10.980469 445.878906 11.121094 446.285156 11.394531 C 446.683594 11.660156 446.992188 12.042969 447.199219 12.542969 C 447.410156 13.042969 447.511719 13.582031 447.511719 14.167969 C 447.511719 14.808594 447.394531 15.386719 447.160156 15.894531 C 446.933594 16.410156 446.605469 16.808594 446.179688 17.082031 C 445.746094 17.34375 445.289062 17.480469 444.804688 17.480469 C 444.457031 17.480469 444.144531 17.402344 443.867188 17.25 C 443.585938 17.097656 443.355469 16.910156 443.179688 16.6875 L 443.179688 19.707031 Z M 443.074219 14.25 C 443.074219 15.058594 443.230469 15.65625 443.554688 16.042969 C 443.886719 16.417969 444.285156 16.605469 444.742188 16.605469 C 445.199219 16.605469 445.597656 16.410156 445.929688 16.019531 C 446.273438 15.621094 446.449219 15 446.449219 14.167969 C 446.449219 13.375 446.285156 12.785156 445.949219 12.394531 C 445.628906 11.996094 445.242188 11.792969 444.785156 11.792969 C 444.335938 11.792969 443.941406 12.011719 443.597656 12.4375 C 443.246094 12.855469 443.074219 13.457031 443.074219 14.25 Z M 443.074219 14.25 "/>
<path style=" stroke:none;fill-rule:nonzero;fill:rgb(0%,0%,0%);fill-opacity:1;" d="M 452.871094 17.332031 L 452.871094 16.417969 C 452.378906 17.125 451.722656 17.480469 450.890625 17.480469 C 450.527344 17.480469 450.1875 17.40625 449.871094 17.269531 C 449.546875 17.121094 449.308594 16.9375 449.140625 16.730469 C 448.984375 16.519531 448.878906 16.265625 448.828125 15.957031 C 448.785156 15.75 448.765625 15.417969 448.765625 14.957031 L 448.765625 11.105469 L 449.808594 11.105469 L 449.808594 14.5625 C 449.808594 15.121094 449.832031 15.488281 449.890625 15.667969 C 449.941406 15.949219 450.078125 16.167969 450.285156 16.332031 C 450.503906 16.488281 450.777344 16.5625 451.097656 16.5625 C 451.417969 16.5625 451.714844 16.488281 451.996094 16.332031 C 452.269531 16.167969 452.464844 15.949219 452.578125 15.667969 C 452.6875 15.390625 452.746094 14.980469 452.746094 14.4375 L 452.746094 11.105469 L 453.808594 11.105469 L 453.808594 17.332031 Z M 452.871094 17.332031 "/>
<path style=" stroke:none;fill-rule:nonzero;fill:rgb(0%,0%,0%);fill-opacity:1;" d="M 457.769531 16.394531 L 457.914062 17.3125 C 457.605469 17.378906 457.339844 17.417969 457.121094 17.417969 C 456.730469 17.417969 456.433594 17.355469 456.226562 17.230469 C 456.019531 17.105469 455.863281 16.949219 455.769531 16.75 C 455.683594 16.558594 455.644531 16.144531 455.644531 15.519531 L 455.644531 11.9375 L 454.871094 11.9375 L 454.871094 11.105469 L 455.644531 11.105469 L 455.644531 9.5625 L 456.707031 8.9375 L 456.707031 11.105469 L 457.769531 11.105469 L 457.769531 11.9375 L 456.707031 11.9375 L 456.707031 15.5625 C 456.707031 15.871094 456.714844 16.0625 456.746094 16.144531 C 456.789062 16.230469 456.851562 16.300781 456.933594 16.355469 C 457.019531 16.410156 457.132812 16.4375 457.289062 16.4375 C 457.414062 16.4375 457.570312 16.425781 457.769531 16.394531 Z M 457.769531 16.394531 "/>
<path style=" stroke:none;fill-rule:nonzero;fill:rgb(0%,0%,0%);fill-opacity:1;" d="M 259.863281 17.332031 L 259.863281 8.75 L 261.011719 8.75 L 261.011719 13 L 265.28125 8.75 L 266.800781 8.75 L 263.21875 12.230469 L 266.96875 17.332031 L 265.46875 17.332031 L 262.40625 12.980469 L 261.011719 14.355469 L 261.011719 17.332031 Z M 259.863281 17.332031 "/>
<path style=" stroke:none;fill-rule:nonzero;fill:rgb(0%,0%,0%);fill-opacity:1;" d="M 272.035156 15.332031 L 273.140625 15.457031 C 272.957031 16.097656 272.628906 16.597656 272.160156 16.957031 C 271.703125 17.308594 271.109375 17.480469 270.390625 17.480469 C 269.484375 17.480469 268.765625 17.203125 268.222656 16.644531 C 267.691406 16.078125 267.429688 15.285156 267.429688 14.269531 C 267.429688 13.230469 267.703125 12.425781 268.242188 11.855469 C 268.785156 11.269531 269.484375 10.980469 270.347656 10.980469 C 271.179688 10.980469 271.851562 11.265625 272.367188 11.832031 C 272.894531 12.390625 273.160156 13.183594 273.160156 14.207031 C 273.160156 14.28125 273.160156 14.375 273.160156 14.5 L 268.515625 14.5 C 268.554688 15.183594 268.75 15.703125 269.097656 16.0625 C 269.441406 16.425781 269.878906 16.605469 270.410156 16.605469 C 270.796875 16.605469 271.125 16.511719 271.390625 16.3125 C 271.664062 16.105469 271.878906 15.78125 272.035156 15.332031 Z M 268.578125 13.625 L 272.054688 13.625 C 272.015625 13.097656 271.878906 12.703125 271.660156 12.4375 C 271.328125 12.035156 270.890625 11.832031 270.347656 11.832031 C 269.859375 11.832031 269.453125 12 269.117188 12.332031 C 268.796875 12.65625 268.617188 13.082031 268.578125 13.625 Z M 268.578125 13.625 "/>
<path style=" stroke:none;fill-rule:nonzero;fill:rgb(0%,0%,0%);fill-opacity:1;" d="M 274.4375 17.332031 L 274.4375 11.105469 L 275.398438 11.105469 L 275.398438 12.0625 C 275.632812 11.621094 275.855469 11.328125 276.0625 11.1875 C 276.273438 11.050781 276.5 10.980469 276.75 10.980469 C 277.09375 10.980469 277.460938 11.09375 277.835938 11.3125 L 277.460938 12.292969 C 277.210938 12.140625 276.949219 12.0625 276.6875 12.0625 C 276.464844 12.0625 276.257812 12.136719 276.0625 12.269531 C 275.882812 12.410156 275.75 12.605469 275.667969 12.855469 C 275.554688 13.230469 275.5 13.640625 275.5 14.082031 L 275.5 17.332031 Z M 274.4375 17.332031 "/>
<path style=" stroke:none;fill-rule:nonzero;fill:rgb(0%,0%,0%);fill-opacity:1;" d="M 278.457031 17.332031 L 278.457031 11.105469 L 279.414062 11.105469 L 279.414062 12 C 279.855469 11.324219 280.519531 10.980469 281.394531 10.980469 C 281.769531 10.980469 282.105469 11.050781 282.414062 11.1875 C 282.730469 11.3125 282.964844 11.488281 283.121094 11.707031 C 283.273438 11.917969 283.382812 12.175781 283.457031 12.480469 C 283.496094 12.675781 283.519531 13.015625 283.519531 13.5 L 283.519531 17.332031 L 282.457031 17.332031 L 282.457031 13.542969 C 282.457031 13.113281 282.414062 12.792969 282.332031 12.582031 C 282.246094 12.375 282.101562 12.207031 281.894531 12.082031 C 281.683594 11.949219 281.441406 11.875 281.164062 11.875 C 280.714844 11.875 280.332031 12.019531 279.996094 12.3125 C 279.675781 12.59375 279.519531 13.136719 279.519531 13.9375 L 279.519531 17.332031 Z M 278.457031 17.332031 "/>
<path style=" stroke:none;fill-rule:nonzero;fill:rgb(0%,0%,0%);fill-opacity:1;" d="M 289.378906 15.332031 L 290.484375 15.457031 C 290.300781 16.097656 289.972656 16.597656 289.503906 16.957031 C 289.046875 17.308594 288.453125 17.480469 287.734375 17.480469 C 286.828125 17.480469 286.109375 17.203125 285.566406 16.644531 C 285.035156 16.078125 284.777344 15.285156 284.777344 14.269531 C 284.777344 13.230469 285.046875 12.425781 285.589844 11.855469 C 286.128906 11.269531 286.828125 10.980469 287.691406 10.980469 C 288.527344 10.980469 289.199219 11.265625 289.714844 11.832031 C 290.238281 12.390625 290.503906 13.183594 290.503906 14.207031 C 290.503906 14.28125 290.503906 14.375 290.503906 14.5 L 285.859375 14.5 C 285.902344 15.183594 286.09375 15.703125 286.441406 16.0625 C 286.785156 16.425781 287.222656 16.605469 287.753906 16.605469 C 288.140625 16.605469 288.46875 16.511719 288.734375 16.3125 C 289.011719 16.105469 289.222656 15.78125 289.378906 15.332031 Z M 285.921875 13.625 L 289.402344 13.625 C 289.359375 13.097656 289.222656 12.703125 289.003906 12.4375 C 288.671875 12.035156 288.234375 11.832031 287.691406 11.832031 C 287.203125 11.832031 286.796875 12 286.464844 12.332031 C 286.140625 12.65625 285.964844 13.082031 285.921875 13.625 Z M 285.921875 13.625 "/>
<path style=" stroke:none;fill-rule:nonzero;fill:rgb(0%,0%,0%);fill-opacity:1;" d="M 291.785156 17.332031 L 291.785156 8.75 L 292.824219 8.75 L 292.824219 17.332031 Z M 291.785156 17.332031 "/>
</g>
</svg>
