<?xml version="1.0" encoding="UTF-8"?>
<svg xmlns="http://www.w3.org/2000/svg" xmlns:xlink="http://www.w3.org/1999/xlink" width="197.333333" height="116" viewBox="0 0 197.333333 116" version="1.1">
<g id="surface1">
<path style="fill:none;stroke-width:1;stroke-linecap:round;stroke-linejoin:round;stroke:rgb(0%,0%,0%);stroke-opacity:1;stroke-miterlimit:10;" d="M 129.910156 254.700195 L 150.464844 254.700195 L 150.464844 270.801758 L 129.910156 270.801758 Z M 129.910156 254.700195 " transform="matrix(1.333333,0,0,1.333333,-110.666667,-246.666667)"/>
<path style=" stroke:none;fill-rule:nonzero;fill:rgb(0%,0%,0%);fill-opacity:1;" d="M 68.410156 103.242188 C 68.410156 102.230469 68.515625 101.40625 68.722656 100.78125 C 68.929688 100.15625 69.234375 99.679688 69.640625 99.34375 C 70.054688 99.011719 70.578125 98.84375 71.203125 98.84375 C 71.671875 98.84375 72.082031 98.945312 72.429688 99.136719 C 72.773438 99.320312 73.0625 99.585938 73.285156 99.929688 C 73.503906 100.277344 73.679688 100.699219 73.804688 101.199219 C 73.941406 101.699219 74.015625 102.382812 74.015625 103.242188 C 74.015625 104.242188 73.910156 105.054688 73.703125 105.679688 C 73.492188 106.292969 73.179688 106.773438 72.765625 107.117188 C 72.359375 107.449219 71.835938 107.617188 71.203125 107.617188 C 70.378906 107.617188 69.734375 107.320312 69.265625 106.71875 C 68.691406 106.011719 68.410156 104.855469 68.410156 103.242188 Z M 69.492188 103.242188 C 69.492188 104.648438 69.648438 105.585938 69.972656 106.054688 C 70.304688 106.511719 70.710938 106.742188 71.203125 106.742188 C 71.6875 106.742188 72.097656 106.511719 72.429688 106.054688 C 72.765625 105.585938 72.929688 104.648438 72.929688 103.242188 C 72.929688 101.824219 72.765625 100.886719 72.429688 100.429688 C 72.097656 99.960938 71.6875 99.71875 71.203125 99.71875 C 70.710938 99.71875 70.328125 99.921875 70.035156 100.324219 C 69.671875 100.855469 69.492188 101.824219 69.492188 103.242188 Z M 69.492188 103.242188 "/>
<path style=" stroke:none;fill-rule:nonzero;fill:rgb(0%,0%,0%);fill-opacity:1;" d="M 75.667969 107.46875 L 75.667969 106.261719 L 76.875 106.261719 L 76.875 107.46875 Z M 75.667969 107.46875 "/>
<path style=" stroke:none;fill-rule:nonzero;fill:rgb(0%,0%,0%);fill-opacity:1;" d="M 82.402344 107.46875 L 81.339844 107.46875 L 81.339844 100.742188 C 81.089844 100.992188 80.757812 101.242188 80.339844 101.492188 C 79.921875 101.730469 79.554688 101.902344 79.234375 102.011719 L 79.234375 100.992188 C 79.820312 100.730469 80.328125 100.402344 80.777344 100.011719 C 81.21875 99.609375 81.53125 99.21875 81.714844 98.84375 L 82.402344 98.84375 Z M 82.402344 107.46875 "/>
<path style="fill:none;stroke-width:1;stroke-linecap:round;stroke-linejoin:round;stroke:rgb(0%,0%,0%);stroke-opacity:1;stroke-miterlimit:10;" d="M 129.910156 238.601562 L 150.464844 238.601562 L 150.464844 254.700195 L 129.910156 254.700195 Z M 129.910156 238.601562 " transform="matrix(1.333333,0,0,1.333333,-110.666667,-246.666667)"/>
<path style=" stroke:none;fill-rule:nonzero;fill:rgb(0%,0%,0%);fill-opacity:1;" d="M 68.410156 81.773438 C 68.410156 80.765625 68.515625 79.941406 68.722656 79.316406 C 68.929688 78.691406 69.234375 78.210938 69.640625 77.878906 C 70.054688 77.546875 70.578125 77.378906 71.203125 77.378906 C 71.671875 77.378906 72.082031 77.476562 72.429688 77.671875 C 72.773438 77.851562 73.0625 78.117188 73.285156 78.460938 C 73.503906 78.8125 73.679688 79.234375 73.804688 79.734375 C 73.941406 80.234375 74.015625 80.914062 74.015625 81.773438 C 74.015625 82.773438 73.910156 83.585938 73.703125 84.210938 C 73.492188 84.828125 73.179688 85.304688 72.765625 85.648438 C 72.359375 85.984375 71.835938 86.148438 71.203125 86.148438 C 70.378906 86.148438 69.734375 85.851562 69.265625 85.253906 C 68.691406 84.546875 68.410156 83.390625 68.410156 81.773438 Z M 69.492188 81.773438 C 69.492188 83.179688 69.648438 84.117188 69.972656 84.585938 C 70.304688 85.046875 70.710938 85.273438 71.203125 85.273438 C 71.6875 85.273438 72.097656 85.046875 72.429688 84.585938 C 72.765625 84.117188 72.929688 83.179688 72.929688 81.773438 C 72.929688 80.359375 72.765625 79.421875 72.429688 78.960938 C 72.097656 78.492188 71.6875 78.253906 71.203125 78.253906 C 70.710938 78.253906 70.328125 78.457031 70.035156 78.859375 C 69.671875 79.390625 69.492188 80.359375 69.492188 81.773438 Z M 69.492188 81.773438 "/>
<path style=" stroke:none;fill-rule:nonzero;fill:rgb(0%,0%,0%);fill-opacity:1;" d="M 75.667969 86.003906 L 75.667969 84.796875 L 76.875 84.796875 L 76.875 86.003906 Z M 75.667969 86.003906 "/>
<path style=" stroke:none;fill-rule:nonzero;fill:rgb(0%,0%,0%);fill-opacity:1;" d="M 83.964844 84.984375 L 83.964844 86.003906 L 78.277344 86.003906 C 78.277344 85.753906 78.320312 85.515625 78.402344 85.273438 C 78.554688 84.890625 78.789062 84.503906 79.109375 84.128906 C 79.429688 83.753906 79.886719 83.328125 80.484375 82.835938 C 81.414062 82.0625 82.039062 81.453125 82.359375 81.003906 C 82.695312 80.5625 82.859375 80.140625 82.859375 79.734375 C 82.859375 79.316406 82.703125 78.972656 82.402344 78.691406 C 82.109375 78.398438 81.726562 78.253906 81.257812 78.253906 C 80.742188 78.253906 80.328125 78.410156 80.027344 78.710938 C 79.71875 79.019531 79.570312 79.441406 79.570312 79.984375 L 78.484375 79.859375 C 78.554688 79.054688 78.828125 78.441406 79.320312 78.023438 C 79.804688 77.597656 80.453125 77.378906 81.277344 77.378906 C 82.09375 77.378906 82.742188 77.609375 83.214844 78.066406 C 83.699219 78.523438 83.945312 79.085938 83.945312 79.753906 C 83.945312 80.101562 83.871094 80.441406 83.734375 80.773438 C 83.59375 81.109375 83.359375 81.460938 83.027344 81.835938 C 82.703125 82.203125 82.171875 82.703125 81.421875 83.335938 C 80.78125 83.867188 80.371094 84.226562 80.195312 84.421875 C 80.011719 84.617188 79.867188 84.804688 79.757812 84.984375 Z M 83.964844 84.984375 "/>
<path style="fill:none;stroke-width:1;stroke-linecap:round;stroke-linejoin:round;stroke:rgb(0%,0%,0%);stroke-opacity:1;stroke-miterlimit:10;" d="M 129.910156 222.5 L 150.464844 222.5 L 150.464844 238.601562 L 129.910156 238.601562 Z M 129.910156 222.5 " transform="matrix(1.333333,0,0,1.333333,-110.666667,-246.666667)"/>
<path style=" stroke:none;fill-rule:nonzero;fill:rgb(0%,0%,0%);fill-opacity:1;" d="M 68.410156 60.308594 C 68.410156 59.296875 68.515625 58.472656 68.722656 57.847656 C 68.929688 57.222656 69.234375 56.746094 69.640625 56.410156 C 70.054688 56.078125 70.578125 55.910156 71.203125 55.910156 C 71.671875 55.910156 72.082031 56.011719 72.429688 56.203125 C 72.773438 56.386719 73.0625 56.652344 73.285156 56.996094 C 73.503906 57.34375 73.679688 57.765625 73.804688 58.265625 C 73.941406 58.765625 74.015625 59.449219 74.015625 60.308594 C 74.015625 61.308594 73.910156 62.121094 73.703125 62.746094 C 73.492188 63.359375 73.179688 63.839844 72.765625 64.183594 C 72.359375 64.515625 71.835938 64.683594 71.203125 64.683594 C 70.378906 64.683594 69.734375 64.386719 69.265625 63.785156 C 68.691406 63.078125 68.410156 61.921875 68.410156 60.308594 Z M 69.492188 60.308594 C 69.492188 61.714844 69.648438 62.652344 69.972656 63.121094 C 70.304688 63.578125 70.710938 63.808594 71.203125 63.808594 C 71.6875 63.808594 72.097656 63.578125 72.429688 63.121094 C 72.765625 62.652344 72.929688 61.714844 72.929688 60.308594 C 72.929688 58.890625 72.765625 57.953125 72.429688 57.496094 C 72.097656 57.027344 71.6875 56.785156 71.203125 56.785156 C 70.710938 56.785156 70.328125 56.988281 70.035156 57.390625 C 69.671875 57.921875 69.492188 58.890625 69.492188 60.308594 Z M 69.492188 60.308594 "/>
<path style=" stroke:none;fill-rule:nonzero;fill:rgb(0%,0%,0%);fill-opacity:1;" d="M 75.667969 64.535156 L 75.667969 63.328125 L 76.875 63.328125 L 76.875 64.535156 Z M 75.667969 64.535156 "/>
<path style=" stroke:none;fill-rule:nonzero;fill:rgb(0%,0%,0%);fill-opacity:1;" d="M 83.964844 63.515625 L 83.964844 64.535156 L 78.277344 64.535156 C 78.277344 64.285156 78.320312 64.046875 78.402344 63.808594 C 78.554688 63.421875 78.789062 63.035156 79.109375 62.660156 C 79.429688 62.285156 79.886719 61.859375 80.484375 61.371094 C 81.414062 60.59375 82.039062 59.984375 82.359375 59.535156 C 82.695312 59.09375 82.859375 58.671875 82.859375 58.265625 C 82.859375 57.847656 82.703125 57.503906 82.402344 57.222656 C 82.109375 56.933594 81.726562 56.785156 81.257812 56.785156 C 80.742188 56.785156 80.328125 56.941406 80.027344 57.246094 C 79.71875 57.550781 79.570312 57.972656 79.570312 58.515625 L 78.484375 58.390625 C 78.554688 57.589844 78.828125 56.972656 79.320312 56.558594 C 79.804688 56.128906 80.453125 55.910156 81.277344 55.910156 C 82.09375 55.910156 82.742188 56.140625 83.214844 56.597656 C 83.699219 57.058594 83.945312 57.621094 83.945312 58.285156 C 83.945312 58.636719 83.871094 58.972656 83.734375 59.308594 C 83.59375 59.640625 83.359375 59.996094 83.027344 60.371094 C 82.703125 60.734375 82.171875 61.234375 81.421875 61.871094 C 80.78125 62.402344 80.371094 62.761719 80.195312 62.953125 C 80.011719 63.152344 79.867188 63.339844 79.757812 63.515625 Z M 83.964844 63.515625 "/>
<path style="fill-rule:nonzero;fill:rgb(69.803923%,85.09804%,100%);fill-opacity:1;stroke-width:1;stroke-linecap:round;stroke-linejoin:round;stroke:rgb(0%,0%,0%);stroke-opacity:1;stroke-miterlimit:10;" d="M 129.910156 206.398438 L 150.464844 206.398438 L 150.464844 222.5 L 129.910156 222.5 Z M 129.910156 206.398438 " transform="matrix(1.333333,0,0,1.333333,-110.666667,-246.666667)"/>
<path style=" stroke:none;fill-rule:nonzero;fill:rgb(0%,0%,0%);fill-opacity:1;" d="M 68.410156 38.839844 C 68.410156 37.832031 68.515625 37.007812 68.722656 36.382812 C 68.929688 35.757812 69.234375 35.277344 69.640625 34.945312 C 70.054688 34.613281 70.578125 34.445312 71.203125 34.445312 C 71.671875 34.445312 72.082031 34.542969 72.429688 34.738281 C 72.773438 34.917969 73.0625 35.183594 73.285156 35.527344 C 73.503906 35.878906 73.679688 36.300781 73.804688 36.800781 C 73.941406 37.300781 74.015625 37.980469 74.015625 38.839844 C 74.015625 39.839844 73.910156 40.652344 73.703125 41.277344 C 73.492188 41.894531 73.179688 42.371094 72.765625 42.714844 C 72.359375 43.050781 71.835938 43.214844 71.203125 43.214844 C 70.378906 43.214844 69.734375 42.917969 69.265625 42.320312 C 68.691406 41.613281 68.410156 40.457031 68.410156 38.839844 Z M 69.492188 38.839844 C 69.492188 40.246094 69.648438 41.183594 69.972656 41.652344 C 70.304688 42.113281 70.710938 42.339844 71.203125 42.339844 C 71.6875 42.339844 72.097656 42.113281 72.429688 41.652344 C 72.765625 41.183594 72.929688 40.246094 72.929688 38.839844 C 72.929688 37.425781 72.765625 36.488281 72.429688 36.027344 C 72.097656 35.558594 71.6875 35.320312 71.203125 35.320312 C 70.710938 35.320312 70.328125 35.523438 70.035156 35.925781 C 69.671875 36.457031 69.492188 37.425781 69.492188 38.839844 Z M 69.492188 38.839844 "/>
<path style=" stroke:none;fill-rule:nonzero;fill:rgb(0%,0%,0%);fill-opacity:1;" d="M 75.667969 43.070312 L 75.667969 41.863281 L 76.875 41.863281 L 76.875 43.070312 Z M 75.667969 43.070312 "/>
<path style=" stroke:none;fill-rule:nonzero;fill:rgb(0%,0%,0%);fill-opacity:1;" d="M 78.421875 40.820312 L 79.527344 40.714844 C 79.609375 41.257812 79.796875 41.667969 80.089844 41.945312 C 80.390625 42.210938 80.757812 42.339844 81.171875 42.339844 C 81.683594 42.339844 82.117188 42.152344 82.464844 41.777344 C 82.824219 41.394531 83.007812 40.882812 83.007812 40.257812 C 83.007812 39.648438 82.828125 39.167969 82.484375 38.820312 C 82.152344 38.476562 81.714844 38.300781 81.171875 38.300781 C 80.824219 38.300781 80.511719 38.382812 80.234375 38.550781 C 79.96875 38.707031 79.757812 38.898438 79.589844 39.132812 L 78.609375 39.007812 L 79.445312 34.589844 L 83.714844 34.589844 L 83.714844 35.613281 L 80.277344 35.613281 L 79.820312 37.902344 C 80.328125 37.558594 80.871094 37.382812 81.445312 37.382812 C 82.195312 37.382812 82.824219 37.644531 83.339844 38.152344 C 83.851562 38.667969 84.109375 39.335938 84.109375 40.152344 C 84.109375 40.933594 83.886719 41.605469 83.445312 42.175781 C 82.886719 42.871094 82.132812 43.214844 81.171875 43.214844 C 80.390625 43.214844 79.757812 43.003906 79.257812 42.570312 C 78.765625 42.128906 78.492188 41.542969 78.421875 40.820312 Z M 78.421875 40.820312 "/>
<path style=" stroke:none;fill-rule:nonzero;fill:rgb(0%,0%,0%);fill-opacity:1;" d="M 10.984375 18.335938 L 10.984375 10.753906 L 8.171875 10.753906 L 8.171875 9.753906 L 14.964844 9.753906 L 14.964844 10.753906 L 12.132812 10.753906 L 12.132812 18.335938 Z M 10.984375 18.335938 "/>
<path style=" stroke:none;fill-rule:nonzero;fill:rgb(0%,0%,0%);fill-opacity:1;" d="M 15.558594 10.960938 L 15.558594 9.753906 L 16.621094 9.753906 L 16.621094 10.960938 Z M 15.558594 18.335938 L 15.558594 12.109375 L 16.621094 12.109375 L 16.621094 18.335938 Z M 15.558594 18.335938 "/>
<path style=" stroke:none;fill-rule:nonzero;fill:rgb(0%,0%,0%);fill-opacity:1;" d="M 18.222656 18.335938 L 18.222656 12.109375 L 19.160156 12.109375 L 19.160156 12.984375 C 19.355469 12.679688 19.609375 12.4375 19.933594 12.253906 C 20.265625 12.078125 20.640625 11.984375 21.058594 11.984375 C 21.515625 11.984375 21.890625 12.082031 22.183594 12.273438 C 22.472656 12.457031 22.683594 12.722656 22.808594 13.066406 C 23.308594 12.347656 23.941406 11.984375 24.722656 11.984375 C 25.347656 11.984375 25.828125 12.160156 26.160156 12.503906 C 26.496094 12.835938 26.660156 13.359375 26.660156 14.066406 L 26.660156 18.335938 L 25.597656 18.335938 L 25.597656 14.421875 C 25.597656 13.992188 25.5625 13.6875 25.496094 13.503906 C 25.4375 13.328125 25.316406 13.179688 25.140625 13.066406 C 24.957031 12.941406 24.746094 12.878906 24.496094 12.878906 C 24.0625 12.878906 23.703125 13.023438 23.410156 13.316406 C 23.121094 13.609375 22.972656 14.078125 22.972656 14.710938 L 22.972656 18.335938 L 21.910156 18.335938 L 21.910156 14.296875 C 21.910156 13.828125 21.828125 13.472656 21.660156 13.234375 C 21.496094 13 21.214844 12.878906 20.828125 12.878906 C 20.519531 12.878906 20.246094 12.960938 19.996094 13.128906 C 19.746094 13.285156 19.5625 13.515625 19.453125 13.816406 C 19.339844 14.109375 19.285156 14.539062 19.285156 15.109375 L 19.285156 18.335938 Z M 18.222656 18.335938 "/>
<path style=" stroke:none;fill-rule:nonzero;fill:rgb(0%,0%,0%);fill-opacity:1;" d="M 32.46875 16.335938 L 33.574219 16.460938 C 33.390625 17.101562 33.0625 17.601562 32.59375 17.960938 C 32.136719 18.3125 31.542969 18.484375 30.824219 18.484375 C 29.917969 18.484375 29.199219 18.207031 28.65625 17.648438 C 28.125 17.082031 27.867188 16.289062 27.867188 15.273438 C 27.867188 14.234375 28.136719 13.429688 28.679688 12.859375 C 29.21875 12.273438 29.917969 11.984375 30.78125 11.984375 C 31.617188 11.984375 32.289062 12.269531 32.804688 12.835938 C 33.328125 13.394531 33.59375 14.1875 33.59375 15.210938 C 33.59375 15.285156 33.59375 15.378906 33.59375 15.503906 L 28.949219 15.503906 C 28.992188 16.1875 29.183594 16.707031 29.53125 17.066406 C 29.875 17.429688 30.3125 17.609375 30.84375 17.609375 C 31.230469 17.609375 31.558594 17.515625 31.824219 17.316406 C 32.101562 17.109375 32.3125 16.785156 32.46875 16.335938 Z M 29.011719 14.628906 L 32.492188 14.628906 C 32.449219 14.101562 32.3125 13.707031 32.09375 13.441406 C 31.761719 13.039062 31.324219 12.835938 30.78125 12.835938 C 30.292969 12.835938 29.886719 13.003906 29.554688 13.335938 C 29.230469 13.660156 29.054688 14.085938 29.011719 14.628906 Z M 29.011719 14.628906 "/>
<path style=" stroke:none;fill-rule:nonzero;fill:rgb(0%,0%,0%);fill-opacity:1;" d="M 37.8125 16.484375 L 38.851562 16.316406 C 38.90625 16.734375 39.066406 17.054688 39.332031 17.273438 C 39.609375 17.5 39.984375 17.609375 40.457031 17.609375 C 40.941406 17.609375 41.300781 17.515625 41.539062 17.316406 C 41.773438 17.125 41.894531 16.894531 41.894531 16.628906 C 41.894531 16.378906 41.789062 16.191406 41.582031 16.066406 C 41.425781 15.972656 41.066406 15.847656 40.5 15.691406 C 39.71875 15.5 39.175781 15.332031 38.875 15.191406 C 38.582031 15.054688 38.359375 14.859375 38.207031 14.609375 C 38.050781 14.359375 37.976562 14.082031 37.976562 13.773438 C 37.976562 13.5 38.039062 13.242188 38.164062 13.003906 C 38.289062 12.769531 38.460938 12.566406 38.6875 12.398438 C 38.851562 12.289062 39.070312 12.191406 39.351562 12.109375 C 39.644531 12.023438 39.945312 11.984375 40.269531 11.984375 C 40.753906 11.984375 41.175781 12.054688 41.539062 12.191406 C 41.914062 12.332031 42.191406 12.519531 42.375 12.753906 C 42.550781 12.992188 42.675781 13.3125 42.75 13.710938 L 41.707031 13.859375 C 41.664062 13.539062 41.523438 13.289062 41.289062 13.109375 C 41.066406 12.929688 40.753906 12.835938 40.351562 12.835938 C 39.863281 12.835938 39.519531 12.921875 39.3125 13.085938 C 39.101562 13.242188 39 13.429688 39 13.648438 C 39 13.789062 39.039062 13.910156 39.125 14.003906 C 39.207031 14.128906 39.34375 14.226562 39.539062 14.296875 C 39.632812 14.335938 39.941406 14.429688 40.457031 14.566406 C 41.207031 14.765625 41.726562 14.921875 42.019531 15.046875 C 42.320312 15.171875 42.5625 15.359375 42.726562 15.609375 C 42.894531 15.847656 42.976562 16.144531 42.976562 16.503906 C 42.976562 16.867188 42.875 17.203125 42.664062 17.503906 C 42.457031 17.8125 42.15625 18.054688 41.769531 18.234375 C 41.394531 18.398438 40.957031 18.484375 40.457031 18.484375 C 39.648438 18.484375 39.03125 18.316406 38.601562 17.984375 C 38.1875 17.640625 37.921875 17.140625 37.8125 16.484375 Z M 37.8125 16.484375 "/>
<path style=" stroke:none;fill-rule:nonzero;fill:rgb(0%,0%,0%);fill-opacity:1;" d="M 46.539062 17.398438 L 46.6875 18.316406 C 46.378906 18.382812 46.113281 18.421875 45.894531 18.421875 C 45.503906 18.421875 45.207031 18.359375 45 18.234375 C 44.789062 18.109375 44.632812 17.953125 44.539062 17.753906 C 44.457031 17.5625 44.414062 17.148438 44.414062 16.523438 L 44.414062 12.941406 L 43.644531 12.941406 L 43.644531 12.109375 L 44.414062 12.109375 L 44.414062 10.566406 L 45.476562 9.941406 L 45.476562 12.109375 L 46.539062 12.109375 L 46.539062 12.941406 L 45.476562 12.941406 L 45.476562 16.566406 C 45.476562 16.875 45.488281 17.066406 45.519531 17.148438 C 45.5625 17.234375 45.625 17.304688 45.707031 17.359375 C 45.789062 17.414062 45.90625 17.441406 46.0625 17.441406 C 46.1875 17.441406 46.34375 17.429688 46.539062 17.398438 Z M 46.539062 17.398438 "/>
<path style=" stroke:none;fill-rule:nonzero;fill:rgb(0%,0%,0%);fill-opacity:1;" d="M 51.8125 16.335938 L 52.917969 16.460938 C 52.734375 17.101562 52.40625 17.601562 51.9375 17.960938 C 51.480469 18.3125 50.886719 18.484375 50.167969 18.484375 C 49.261719 18.484375 48.542969 18.207031 48 17.648438 C 47.46875 17.082031 47.207031 16.289062 47.207031 15.273438 C 47.207031 14.234375 47.480469 13.429688 48.019531 12.859375 C 48.5625 12.273438 49.261719 11.984375 50.125 11.984375 C 50.957031 11.984375 51.628906 12.269531 52.144531 12.835938 C 52.671875 13.394531 52.9375 14.1875 52.9375 15.210938 C 52.9375 15.285156 52.9375 15.378906 52.9375 15.503906 L 48.292969 15.503906 C 48.332031 16.1875 48.527344 16.707031 48.875 17.066406 C 49.21875 17.429688 49.65625 17.609375 50.1875 17.609375 C 50.574219 17.609375 50.902344 17.515625 51.167969 17.316406 C 51.441406 17.109375 51.65625 16.785156 51.8125 16.335938 Z M 48.355469 14.628906 L 51.832031 14.628906 C 51.792969 14.101562 51.65625 13.707031 51.4375 13.441406 C 51.105469 13.039062 50.667969 12.835938 50.125 12.835938 C 49.636719 12.835938 49.230469 13.003906 48.894531 13.335938 C 48.574219 13.660156 48.394531 14.085938 48.355469 14.628906 Z M 48.355469 14.628906 "/>
<path style=" stroke:none;fill-rule:nonzero;fill:rgb(0%,0%,0%);fill-opacity:1;" d="M 54.234375 20.710938 L 54.234375 12.109375 L 55.195312 12.109375 L 55.195312 12.921875 C 55.414062 12.601562 55.664062 12.367188 55.945312 12.210938 C 56.234375 12.0625 56.589844 11.984375 57.007812 11.984375 C 57.53125 11.984375 57.996094 12.125 58.402344 12.398438 C 58.804688 12.664062 59.109375 13.046875 59.320312 13.546875 C 59.527344 14.046875 59.632812 14.585938 59.632812 15.171875 C 59.632812 15.8125 59.511719 16.390625 59.277344 16.898438 C 59.054688 17.414062 58.726562 17.8125 58.296875 18.085938 C 57.867188 18.347656 57.40625 18.484375 56.921875 18.484375 C 56.574219 18.484375 56.261719 18.40625 55.984375 18.253906 C 55.703125 18.101562 55.476562 17.914062 55.296875 17.691406 L 55.296875 20.710938 Z M 55.195312 15.253906 C 55.195312 16.0625 55.351562 16.660156 55.671875 17.046875 C 56.007812 17.421875 56.402344 17.609375 56.859375 17.609375 C 57.320312 17.609375 57.714844 17.414062 58.046875 17.023438 C 58.390625 16.625 58.570312 16.003906 58.570312 15.171875 C 58.570312 14.378906 58.402344 13.789062 58.070312 13.398438 C 57.746094 13 57.359375 12.796875 56.902344 12.796875 C 56.453125 12.796875 56.058594 13.015625 55.714844 13.441406 C 55.367188 13.859375 55.195312 14.460938 55.195312 15.253906 Z M 55.195312 15.253906 "/>
<path style=" stroke:none;fill-rule:nonzero;fill:rgb(0%,0%,0%);fill-opacity:1;" d="M 77.394531 18 L 76.332031 18 L 76.332031 11.269531 C 76.082031 11.519531 75.746094 11.769531 75.332031 12.019531 C 74.914062 12.261719 74.542969 12.433594 74.226562 12.542969 L 74.226562 11.519531 C 74.808594 11.261719 75.320312 10.933594 75.769531 10.542969 C 76.210938 10.140625 76.523438 9.75 76.707031 9.375 L 77.394531 9.375 Z M 77.394531 18 "/>
<path style="fill:none;stroke-width:1;stroke-linecap:round;stroke-linejoin:round;stroke:rgb(0%,0%,0%);stroke-opacity:1;stroke-miterlimit:10;" d="M 156.508789 254.700195 L 177.063477 254.700195 L 177.063477 270.801758 L 156.508789 270.801758 Z M 156.508789 254.700195 " transform="matrix(1.333333,0,0,1.333333,-110.666667,-246.666667)"/>
<path style=" stroke:none;fill-rule:nonzero;fill:rgb(0%,0%,0%);fill-opacity:1;" d="M 103.875 103.242188 C 103.875 102.230469 103.980469 101.40625 104.1875 100.78125 C 104.394531 100.15625 104.699219 99.679688 105.105469 99.34375 C 105.519531 99.011719 106.042969 98.84375 106.667969 98.84375 C 107.136719 98.84375 107.546875 98.945312 107.894531 99.136719 C 108.238281 99.320312 108.527344 99.585938 108.75 99.929688 C 108.96875 100.277344 109.144531 100.699219 109.269531 101.199219 C 109.40625 101.699219 109.480469 102.382812 109.480469 103.242188 C 109.480469 104.242188 109.375 105.054688 109.167969 105.679688 C 108.957031 106.292969 108.644531 106.773438 108.230469 107.117188 C 107.824219 107.449219 107.300781 107.617188 106.667969 107.617188 C 105.84375 107.617188 105.199219 107.320312 104.730469 106.71875 C 104.15625 106.011719 103.875 104.855469 103.875 103.242188 Z M 104.957031 103.242188 C 104.957031 104.648438 105.113281 105.585938 105.4375 106.054688 C 105.769531 106.511719 106.175781 106.742188 106.667969 106.742188 C 107.152344 106.742188 107.5625 106.511719 107.894531 106.054688 C 108.230469 105.585938 108.394531 104.648438 108.394531 103.242188 C 108.394531 101.824219 108.230469 100.886719 107.894531 100.429688 C 107.5625 99.960938 107.152344 99.71875 106.667969 99.71875 C 106.175781 99.71875 105.792969 99.921875 105.5 100.324219 C 105.136719 100.855469 104.957031 101.824219 104.957031 103.242188 Z M 104.957031 103.242188 "/>
<path style=" stroke:none;fill-rule:nonzero;fill:rgb(0%,0%,0%);fill-opacity:1;" d="M 111.132812 107.46875 L 111.132812 106.261719 L 112.339844 106.261719 L 112.339844 107.46875 Z M 111.132812 107.46875 "/>
<path style=" stroke:none;fill-rule:nonzero;fill:rgb(0%,0%,0%);fill-opacity:1;" d="M 119.429688 106.449219 L 119.429688 107.46875 L 113.742188 107.46875 C 113.742188 107.21875 113.78125 106.980469 113.867188 106.742188 C 114.015625 106.355469 114.25 105.96875 114.574219 105.59375 C 114.890625 105.21875 115.351562 104.792969 115.949219 104.304688 C 116.875 103.527344 117.5 102.917969 117.824219 102.46875 C 118.15625 102.027344 118.324219 101.605469 118.324219 101.199219 C 118.324219 100.78125 118.167969 100.4375 117.867188 100.15625 C 117.574219 99.867188 117.1875 99.71875 116.71875 99.71875 C 116.203125 99.71875 115.792969 99.875 115.492188 100.179688 C 115.183594 100.484375 115.03125 100.90625 115.03125 101.449219 L 113.949219 101.324219 C 114.015625 100.523438 114.292969 99.90625 114.78125 99.492188 C 115.265625 99.0625 115.917969 98.84375 116.742188 98.84375 C 117.558594 98.84375 118.203125 99.074219 118.679688 99.53125 C 119.164062 99.992188 119.40625 100.554688 119.40625 101.21875 C 119.40625 101.570312 119.335938 101.90625 119.199219 102.242188 C 119.058594 102.574219 118.824219 102.929688 118.492188 103.304688 C 118.167969 103.667969 117.636719 104.167969 116.886719 104.804688 C 116.246094 105.335938 115.835938 105.695312 115.65625 105.886719 C 115.476562 106.085938 115.328125 106.273438 115.21875 106.449219 Z M 119.429688 106.449219 "/>
<path style="fill:none;stroke-width:1;stroke-linecap:round;stroke-linejoin:round;stroke:rgb(0%,0%,0%);stroke-opacity:1;stroke-miterlimit:10;" d="M 156.508789 206.398438 L 177.063477 206.398438 L 177.063477 222.5 L 156.508789 222.5 Z M 156.508789 206.398438 " transform="matrix(1.333333,0,0,1.333333,-110.666667,-246.666667)"/>
<path style=" stroke:none;fill-rule:nonzero;fill:rgb(0%,0%,0%);fill-opacity:1;" d="M 103.875 38.839844 C 103.875 37.832031 103.980469 37.007812 104.1875 36.382812 C 104.394531 35.757812 104.699219 35.277344 105.105469 34.945312 C 105.519531 34.613281 106.042969 34.445312 106.667969 34.445312 C 107.136719 34.445312 107.546875 34.542969 107.894531 34.738281 C 108.238281 34.917969 108.527344 35.183594 108.75 35.527344 C 108.96875 35.878906 109.144531 36.300781 109.269531 36.800781 C 109.40625 37.300781 109.480469 37.980469 109.480469 38.839844 C 109.480469 39.839844 109.375 40.652344 109.167969 41.277344 C 108.957031 41.894531 108.644531 42.371094 108.230469 42.714844 C 107.824219 43.050781 107.300781 43.214844 106.667969 43.214844 C 105.84375 43.214844 105.199219 42.917969 104.730469 42.320312 C 104.15625 41.613281 103.875 40.457031 103.875 38.839844 Z M 104.957031 38.839844 C 104.957031 40.246094 105.113281 41.183594 105.4375 41.652344 C 105.769531 42.113281 106.175781 42.339844 106.667969 42.339844 C 107.152344 42.339844 107.5625 42.113281 107.894531 41.652344 C 108.230469 41.183594 108.394531 40.246094 108.394531 38.839844 C 108.394531 37.425781 108.230469 36.488281 107.894531 36.027344 C 107.5625 35.558594 107.152344 35.320312 106.667969 35.320312 C 106.175781 35.320312 105.792969 35.523438 105.5 35.925781 C 105.136719 36.457031 104.957031 37.425781 104.957031 38.839844 Z M 104.957031 38.839844 "/>
<path style=" stroke:none;fill-rule:nonzero;fill:rgb(0%,0%,0%);fill-opacity:1;" d="M 111.132812 43.070312 L 111.132812 41.863281 L 112.339844 41.863281 L 112.339844 43.070312 Z M 111.132812 43.070312 "/>
<path style=" stroke:none;fill-rule:nonzero;fill:rgb(0%,0%,0%);fill-opacity:1;" d="M 117.867188 43.070312 L 116.804688 43.070312 L 116.804688 36.339844 C 116.554688 36.589844 116.21875 36.839844 115.804688 37.089844 C 115.386719 37.332031 115.015625 37.503906 114.699219 37.613281 L 114.699219 36.589844 C 115.28125 36.332031 115.792969 36.003906 116.242188 35.613281 C 116.683594 35.210938 116.996094 34.820312 117.179688 34.445312 L 117.867188 34.445312 Z M 117.867188 43.070312 "/>
<path style="fill:none;stroke-width:1;stroke-linecap:round;stroke-linejoin:round;stroke:rgb(0%,0%,0%);stroke-opacity:1;stroke-miterlimit:10;" d="M 156.508789 222.5 L 177.063477 222.5 L 177.063477 238.601562 L 156.508789 238.601562 Z M 156.508789 222.5 " transform="matrix(1.333333,0,0,1.333333,-110.666667,-246.666667)"/>
<path style=" stroke:none;fill-rule:nonzero;fill:rgb(0%,0%,0%);fill-opacity:1;" d="M 103.875 60.308594 C 103.875 59.296875 103.980469 58.472656 104.1875 57.847656 C 104.394531 57.222656 104.699219 56.746094 105.105469 56.410156 C 105.519531 56.078125 106.042969 55.910156 106.667969 55.910156 C 107.136719 55.910156 107.546875 56.011719 107.894531 56.203125 C 108.238281 56.386719 108.527344 56.652344 108.75 56.996094 C 108.96875 57.34375 109.144531 57.765625 109.269531 58.265625 C 109.40625 58.765625 109.480469 59.449219 109.480469 60.308594 C 109.480469 61.308594 109.375 62.121094 109.167969 62.746094 C 108.957031 63.359375 108.644531 63.839844 108.230469 64.183594 C 107.824219 64.515625 107.300781 64.683594 106.667969 64.683594 C 105.84375 64.683594 105.199219 64.386719 104.730469 63.785156 C 104.15625 63.078125 103.875 61.921875 103.875 60.308594 Z M 104.957031 60.308594 C 104.957031 61.714844 105.113281 62.652344 105.4375 63.121094 C 105.769531 63.578125 106.175781 63.808594 106.667969 63.808594 C 107.152344 63.808594 107.5625 63.578125 107.894531 63.121094 C 108.230469 62.652344 108.394531 61.714844 108.394531 60.308594 C 108.394531 58.890625 108.230469 57.953125 107.894531 57.496094 C 107.5625 57.027344 107.152344 56.785156 106.667969 56.785156 C 106.175781 56.785156 105.792969 56.988281 105.5 57.390625 C 105.136719 57.921875 104.957031 58.890625 104.957031 60.308594 Z M 104.957031 60.308594 "/>
<path style=" stroke:none;fill-rule:nonzero;fill:rgb(0%,0%,0%);fill-opacity:1;" d="M 111.132812 64.535156 L 111.132812 63.328125 L 112.339844 63.328125 L 112.339844 64.535156 Z M 111.132812 64.535156 "/>
<path style=" stroke:none;fill-rule:nonzero;fill:rgb(0%,0%,0%);fill-opacity:1;" d="M 117.261719 64.535156 L 117.261719 62.472656 L 113.53125 62.472656 L 113.53125 61.515625 L 117.449219 55.953125 L 118.324219 55.953125 L 118.324219 61.515625 L 119.492188 61.515625 L 119.492188 62.472656 L 118.324219 62.472656 L 118.324219 64.535156 Z M 117.261719 61.515625 L 117.261719 57.640625 L 114.574219 61.515625 Z M 117.261719 61.515625 "/>
<path style="fill-rule:nonzero;fill:rgb(69.803923%,85.09804%,100%);fill-opacity:1;stroke-width:1;stroke-linecap:round;stroke-linejoin:round;stroke:rgb(0%,0%,0%);stroke-opacity:1;stroke-miterlimit:10;" d="M 156.508789 238.601562 L 177.063477 238.601562 L 177.063477 254.700195 L 156.508789 254.700195 Z M 156.508789 238.601562 " transform="matrix(1.333333,0,0,1.333333,-110.666667,-246.666667)"/>
<path style=" stroke:none;fill-rule:nonzero;fill:rgb(0%,0%,0%);fill-opacity:1;" d="M 103.875 81.773438 C 103.875 80.765625 103.980469 79.941406 104.1875 79.316406 C 104.394531 78.691406 104.699219 78.210938 105.105469 77.878906 C 105.519531 77.546875 106.042969 77.378906 106.667969 77.378906 C 107.136719 77.378906 107.546875 77.476562 107.894531 77.671875 C 108.238281 77.851562 108.527344 78.117188 108.75 78.460938 C 108.96875 78.8125 109.144531 79.234375 109.269531 79.734375 C 109.40625 80.234375 109.480469 80.914062 109.480469 81.773438 C 109.480469 82.773438 109.375 83.585938 109.167969 84.210938 C 108.957031 84.828125 108.644531 85.304688 108.230469 85.648438 C 107.824219 85.984375 107.300781 86.148438 106.667969 86.148438 C 105.84375 86.148438 105.199219 85.851562 104.730469 85.253906 C 104.15625 84.546875 103.875 83.390625 103.875 81.773438 Z M 104.957031 81.773438 C 104.957031 83.179688 105.113281 84.117188 105.4375 84.585938 C 105.769531 85.046875 106.175781 85.273438 106.667969 85.273438 C 107.152344 85.273438 107.5625 85.046875 107.894531 84.585938 C 108.230469 84.117188 108.394531 83.179688 108.394531 81.773438 C 108.394531 80.359375 108.230469 79.421875 107.894531 78.960938 C 107.5625 78.492188 107.152344 78.253906 106.667969 78.253906 C 106.175781 78.253906 105.792969 78.457031 105.5 78.859375 C 105.136719 79.390625 104.957031 80.359375 104.957031 81.773438 Z M 104.957031 81.773438 "/>
<path style=" stroke:none;fill-rule:nonzero;fill:rgb(0%,0%,0%);fill-opacity:1;" d="M 111.132812 86.003906 L 111.132812 84.796875 L 112.339844 84.796875 L 112.339844 86.003906 Z M 111.132812 86.003906 "/>
<path style=" stroke:none;fill-rule:nonzero;fill:rgb(0%,0%,0%);fill-opacity:1;" d="M 113.886719 83.734375 L 114.949219 83.585938 C 115.074219 84.1875 115.273438 84.617188 115.554688 84.878906 C 115.84375 85.144531 116.203125 85.273438 116.636719 85.273438 C 117.121094 85.273438 117.53125 85.109375 117.867188 84.773438 C 118.210938 84.429688 118.386719 84 118.386719 83.484375 C 118.386719 83 118.226562 82.601562 117.90625 82.296875 C 117.601562 81.976562 117.203125 81.816406 116.71875 81.816406 C 116.511719 81.816406 116.261719 81.859375 115.96875 81.941406 L 116.09375 81.003906 C 116.164062 81.019531 116.21875 81.023438 116.261719 81.023438 C 116.703125 81.023438 117.105469 80.910156 117.46875 80.671875 C 117.828125 80.4375 118.011719 80.078125 118.011719 79.585938 C 118.011719 79.203125 117.875 78.878906 117.617188 78.628906 C 117.351562 78.378906 117.011719 78.253906 116.59375 78.253906 C 116.1875 78.253906 115.851562 78.390625 115.574219 78.648438 C 115.308594 78.898438 115.136719 79.285156 115.054688 79.796875 L 113.992188 79.609375 C 114.125 78.898438 114.417969 78.351562 114.867188 77.960938 C 115.324219 77.578125 115.890625 77.378906 116.574219 77.378906 C 117.042969 77.378906 117.476562 77.484375 117.867188 77.691406 C 118.265625 77.890625 118.574219 78.160156 118.78125 78.503906 C 118.992188 78.851562 119.09375 79.222656 119.09375 79.609375 C 119.09375 79.984375 118.992188 80.328125 118.78125 80.628906 C 118.585938 80.9375 118.292969 81.179688 117.90625 81.359375 C 118.417969 81.472656 118.8125 81.710938 119.09375 82.085938 C 119.371094 82.453125 119.511719 82.910156 119.511719 83.460938 C 119.511719 84.210938 119.230469 84.851562 118.679688 85.378906 C 118.136719 85.894531 117.449219 86.148438 116.617188 86.148438 C 115.867188 86.148438 115.242188 85.929688 114.742188 85.484375 C 114.242188 85.039062 113.953125 84.457031 113.886719 83.734375 Z M 113.886719 83.734375 "/>
<path style=" stroke:none;fill-rule:nonzero;fill:rgb(0%,0%,0%);fill-opacity:1;" d="M 114.421875 16.847656 L 114.421875 17.867188 L 108.734375 17.867188 C 108.734375 17.617188 108.773438 17.378906 108.859375 17.136719 C 109.007812 16.753906 109.242188 16.367188 109.566406 15.992188 C 109.882812 15.617188 110.34375 15.191406 110.941406 14.699219 C 111.867188 13.925781 112.492188 13.316406 112.816406 12.867188 C 113.148438 12.425781 113.316406 12.003906 113.316406 11.597656 C 113.316406 11.179688 113.160156 10.835938 112.859375 10.554688 C 112.566406 10.261719 112.179688 10.117188 111.710938 10.117188 C 111.195312 10.117188 110.785156 10.273438 110.484375 10.574219 C 110.175781 10.882812 110.023438 11.304688 110.023438 11.847656 L 108.941406 11.722656 C 109.007812 10.917969 109.285156 10.304688 109.773438 9.886719 C 110.257812 9.460938 110.910156 9.242188 111.734375 9.242188 C 112.550781 9.242188 113.195312 9.472656 113.671875 9.929688 C 114.15625 10.386719 114.398438 10.949219 114.398438 11.617188 C 114.398438 11.964844 114.328125 12.304688 114.191406 12.636719 C 114.050781 12.972656 113.816406 13.324219 113.484375 13.699219 C 113.160156 14.066406 112.628906 14.566406 111.878906 15.199219 C 111.238281 15.730469 110.828125 16.089844 110.648438 16.285156 C 110.46875 16.480469 110.320312 16.667969 110.210938 16.847656 Z M 114.421875 16.847656 "/>
<path style="fill:none;stroke-width:1;stroke-linecap:round;stroke-linejoin:round;stroke:rgb(0%,0%,0%);stroke-opacity:1;stroke-miterlimit:10;" d="M 183.198242 254.788086 L 203.75293 254.788086 L 203.75293 270.889648 L 183.198242 270.889648 Z M 183.198242 254.788086 " transform="matrix(1.333333,0,0,1.333333,-110.666667,-246.666667)"/>
<path style=" stroke:none;fill-rule:nonzero;fill:rgb(0%,0%,0%);fill-opacity:1;" d="M 139.460938 103.363281 C 139.460938 102.351562 139.5625 101.527344 139.773438 100.902344 C 139.980469 100.277344 140.28125 99.800781 140.6875 99.464844 C 141.105469 99.132812 141.625 98.964844 142.25 98.964844 C 142.71875 98.964844 143.132812 99.066406 143.480469 99.257812 C 143.824219 99.441406 144.109375 99.707031 144.335938 100.050781 C 144.554688 100.398438 144.730469 100.820312 144.855469 101.320312 C 144.992188 101.820312 145.0625 102.503906 145.0625 103.363281 C 145.0625 104.363281 144.960938 105.175781 144.75 105.800781 C 144.542969 106.414062 144.230469 106.894531 143.8125 107.238281 C 143.40625 107.570312 142.886719 107.738281 142.25 107.738281 C 141.429688 107.738281 140.78125 107.441406 140.3125 106.839844 C 139.742188 106.132812 139.460938 104.976562 139.460938 103.363281 Z M 140.542969 103.363281 C 140.542969 104.769531 140.699219 105.707031 141.023438 106.175781 C 141.355469 106.632812 141.761719 106.863281 142.25 106.863281 C 142.734375 106.863281 143.148438 106.632812 143.480469 106.175781 C 143.8125 105.707031 143.980469 104.769531 143.980469 103.363281 C 143.980469 101.945312 143.8125 101.007812 143.480469 100.550781 C 143.148438 100.082031 142.734375 99.839844 142.25 99.839844 C 141.761719 99.839844 141.375 100.042969 141.085938 100.445312 C 140.71875 100.976562 140.542969 101.945312 140.542969 103.363281 Z M 140.542969 103.363281 "/>
<path style=" stroke:none;fill-rule:nonzero;fill:rgb(0%,0%,0%);fill-opacity:1;" d="M 146.71875 107.589844 L 146.71875 106.382812 L 147.925781 106.382812 L 147.925781 107.589844 Z M 146.71875 107.589844 "/>
<path style=" stroke:none;fill-rule:nonzero;fill:rgb(0%,0%,0%);fill-opacity:1;" d="M 153.453125 107.589844 L 152.390625 107.589844 L 152.390625 100.863281 C 152.140625 101.113281 151.804688 101.363281 151.390625 101.613281 C 150.972656 101.851562 150.601562 102.023438 150.285156 102.132812 L 150.285156 101.113281 C 150.867188 100.851562 151.378906 100.523438 151.828125 100.132812 C 152.269531 99.730469 152.582031 99.339844 152.765625 98.964844 L 153.453125 98.964844 Z M 153.453125 107.589844 "/>
<path style="fill:none;stroke-width:1;stroke-linecap:round;stroke-linejoin:round;stroke:rgb(0%,0%,0%);stroke-opacity:1;stroke-miterlimit:10;" d="M 183.198242 238.692383 L 203.75293 238.692383 L 203.75293 254.788086 L 183.198242 254.788086 Z M 183.198242 238.692383 " transform="matrix(1.333333,0,0,1.333333,-110.666667,-246.666667)"/>
<path style=" stroke:none;fill-rule:nonzero;fill:rgb(0%,0%,0%);fill-opacity:1;" d="M 139.460938 81.894531 C 139.460938 80.886719 139.5625 80.0625 139.773438 79.4375 C 139.980469 78.8125 140.28125 78.332031 140.6875 78 C 141.105469 77.667969 141.625 77.5 142.25 77.5 C 142.71875 77.5 143.132812 77.597656 143.480469 77.792969 C 143.824219 77.972656 144.109375 78.238281 144.335938 78.582031 C 144.554688 78.933594 144.730469 79.355469 144.855469 79.855469 C 144.992188 80.355469 145.0625 81.035156 145.0625 81.894531 C 145.0625 82.894531 144.960938 83.707031 144.75 84.332031 C 144.542969 84.949219 144.230469 85.425781 143.8125 85.769531 C 143.40625 86.105469 142.886719 86.269531 142.25 86.269531 C 141.429688 86.269531 140.78125 85.972656 140.3125 85.375 C 139.742188 84.667969 139.460938 83.511719 139.460938 81.894531 Z M 140.542969 81.894531 C 140.542969 83.300781 140.699219 84.238281 141.023438 84.707031 C 141.355469 85.167969 141.761719 85.394531 142.25 85.394531 C 142.734375 85.394531 143.148438 85.167969 143.480469 84.707031 C 143.8125 84.238281 143.980469 83.300781 143.980469 81.894531 C 143.980469 80.480469 143.8125 79.542969 143.480469 79.082031 C 143.148438 78.613281 142.734375 78.375 142.25 78.375 C 141.761719 78.375 141.375 78.578125 141.085938 78.980469 C 140.71875 79.511719 140.542969 80.480469 140.542969 81.894531 Z M 140.542969 81.894531 "/>
<path style=" stroke:none;fill-rule:nonzero;fill:rgb(0%,0%,0%);fill-opacity:1;" d="M 146.71875 86.125 L 146.71875 84.917969 L 147.925781 84.917969 L 147.925781 86.125 Z M 146.71875 86.125 "/>
<path style=" stroke:none;fill-rule:nonzero;fill:rgb(0%,0%,0%);fill-opacity:1;" d="M 155.015625 85.105469 L 155.015625 86.125 L 149.328125 86.125 C 149.328125 85.875 149.367188 85.636719 149.453125 85.394531 C 149.601562 85.011719 149.835938 84.625 150.160156 84.25 C 150.476562 83.875 150.9375 83.449219 151.535156 82.957031 C 152.460938 82.183594 153.085938 81.574219 153.410156 81.125 C 153.742188 80.683594 153.910156 80.261719 153.910156 79.855469 C 153.910156 79.4375 153.753906 79.09375 153.453125 78.8125 C 153.160156 78.519531 152.773438 78.375 152.304688 78.375 C 151.789062 78.375 151.378906 78.53125 151.078125 78.832031 C 150.769531 79.140625 150.617188 79.5625 150.617188 80.105469 L 149.535156 79.980469 C 149.601562 79.175781 149.878906 78.5625 150.367188 78.144531 C 150.851562 77.71875 151.503906 77.5 152.328125 77.5 C 153.144531 77.5 153.789062 77.730469 154.265625 78.1875 C 154.75 78.644531 154.992188 79.207031 154.992188 79.875 C 154.992188 80.222656 154.921875 80.5625 154.785156 80.894531 C 154.644531 81.230469 154.410156 81.582031 154.078125 81.957031 C 153.753906 82.324219 153.222656 82.824219 152.472656 83.457031 C 151.832031 83.988281 151.421875 84.347656 151.242188 84.542969 C 151.0625 84.738281 150.914062 84.925781 150.804688 85.105469 Z M 155.015625 85.105469 "/>
<path style="fill-rule:nonzero;fill:rgb(69.803923%,85.09804%,100%);fill-opacity:1;stroke-width:1;stroke-linecap:round;stroke-linejoin:round;stroke:rgb(0%,0%,0%);stroke-opacity:1;stroke-miterlimit:10;" d="M 183.198242 222.59082 L 203.75293 222.59082 L 203.75293 238.692383 L 183.198242 238.692383 Z M 183.198242 222.59082 " transform="matrix(1.333333,0,0,1.333333,-110.666667,-246.666667)"/>
<path style=" stroke:none;fill-rule:nonzero;fill:rgb(0%,0%,0%);fill-opacity:1;" d="M 139.460938 60.429688 C 139.460938 59.417969 139.5625 58.597656 139.773438 57.972656 C 139.980469 57.347656 140.28125 56.867188 140.6875 56.535156 C 141.105469 56.199219 141.625 56.035156 142.25 56.035156 C 142.71875 56.035156 143.132812 56.132812 143.480469 56.324219 C 143.824219 56.507812 144.109375 56.773438 144.335938 57.117188 C 144.554688 57.464844 144.730469 57.886719 144.855469 58.386719 C 144.992188 58.886719 145.0625 59.570312 145.0625 60.429688 C 145.0625 61.429688 144.960938 62.242188 144.75 62.867188 C 144.542969 63.480469 144.230469 63.960938 143.8125 64.304688 C 143.40625 64.636719 142.886719 64.804688 142.25 64.804688 C 141.429688 64.804688 140.78125 64.507812 140.3125 63.910156 C 139.742188 63.199219 139.460938 62.042969 139.460938 60.429688 Z M 140.542969 60.429688 C 140.542969 61.835938 140.699219 62.773438 141.023438 63.242188 C 141.355469 63.699219 141.761719 63.929688 142.25 63.929688 C 142.734375 63.929688 143.148438 63.699219 143.480469 63.242188 C 143.8125 62.773438 143.980469 61.835938 143.980469 60.429688 C 143.980469 59.011719 143.8125 58.074219 143.480469 57.617188 C 143.148438 57.148438 142.734375 56.910156 142.25 56.910156 C 141.761719 56.910156 141.375 57.113281 141.085938 57.511719 C 140.71875 58.042969 140.542969 59.011719 140.542969 60.429688 Z M 140.542969 60.429688 "/>
<path style=" stroke:none;fill-rule:nonzero;fill:rgb(0%,0%,0%);fill-opacity:1;" d="M 146.71875 64.660156 L 146.71875 63.449219 L 147.925781 63.449219 L 147.925781 64.660156 Z M 146.71875 64.660156 "/>
<path style=" stroke:none;fill-rule:nonzero;fill:rgb(0%,0%,0%);fill-opacity:1;" d="M 154.953125 58.179688 L 153.890625 58.261719 C 153.804688 57.847656 153.671875 57.542969 153.492188 57.347656 C 153.210938 57.054688 152.867188 56.910156 152.453125 56.910156 C 152.101562 56.910156 151.804688 57.003906 151.554688 57.179688 C 151.222656 57.429688 150.957031 57.785156 150.765625 58.242188 C 150.582031 58.699219 150.484375 59.363281 150.472656 60.222656 C 150.722656 59.847656 151.023438 59.570312 151.390625 59.386719 C 151.765625 59.195312 152.148438 59.097656 152.554688 59.097656 C 153.265625 59.097656 153.859375 59.355469 154.347656 59.867188 C 154.847656 60.382812 155.097656 61.050781 155.097656 61.867188 C 155.097656 62.410156 154.976562 62.917969 154.742188 63.386719 C 154.503906 63.847656 154.1875 64.199219 153.785156 64.449219 C 153.378906 64.683594 152.921875 64.804688 152.410156 64.804688 C 151.535156 64.804688 150.816406 64.488281 150.265625 63.847656 C 149.707031 63.195312 149.429688 62.128906 149.429688 60.636719 C 149.429688 58.988281 149.734375 57.777344 150.347656 57.011719 C 150.875 56.363281 151.597656 56.035156 152.515625 56.035156 C 153.179688 56.035156 153.726562 56.230469 154.160156 56.617188 C 154.585938 56.992188 154.851562 57.511719 154.953125 58.179688 Z M 150.640625 61.867188 C 150.640625 62.242188 150.710938 62.597656 150.867188 62.929688 C 151.019531 63.253906 151.234375 63.503906 151.515625 63.679688 C 151.789062 63.847656 152.082031 63.929688 152.390625 63.929688 C 152.832031 63.929688 153.210938 63.757812 153.535156 63.410156 C 153.851562 63.050781 154.015625 62.554688 154.015625 61.929688 C 154.015625 61.335938 153.851562 60.867188 153.535156 60.535156 C 153.226562 60.191406 152.832031 60.011719 152.347656 60.011719 C 151.875 60.011719 151.472656 60.191406 151.140625 60.535156 C 150.804688 60.867188 150.640625 61.316406 150.640625 61.867188 Z M 150.640625 61.867188 "/>
<path style="fill:none;stroke-width:1;stroke-linecap:round;stroke-linejoin:round;stroke:rgb(0%,0%,0%);stroke-opacity:1;stroke-miterlimit:10;" d="M 183.198242 206.492188 L 203.75293 206.492188 L 203.75293 222.59082 L 183.198242 222.59082 Z M 183.198242 206.492188 " transform="matrix(1.333333,0,0,1.333333,-110.666667,-246.666667)"/>
<path style=" stroke:none;fill-rule:nonzero;fill:rgb(0%,0%,0%);fill-opacity:1;" d="M 139.460938 38.960938 C 139.460938 37.953125 139.5625 37.128906 139.773438 36.503906 C 139.980469 35.878906 140.28125 35.398438 140.6875 35.066406 C 141.105469 34.734375 141.625 34.566406 142.25 34.566406 C 142.71875 34.566406 143.132812 34.664062 143.480469 34.859375 C 143.824219 35.039062 144.109375 35.304688 144.335938 35.648438 C 144.554688 36 144.730469 36.421875 144.855469 36.921875 C 144.992188 37.421875 145.0625 38.101562 145.0625 38.960938 C 145.0625 39.960938 144.960938 40.773438 144.75 41.398438 C 144.542969 42.015625 144.230469 42.492188 143.8125 42.835938 C 143.40625 43.171875 142.886719 43.335938 142.25 43.335938 C 141.429688 43.335938 140.78125 43.039062 140.3125 42.441406 C 139.742188 41.734375 139.460938 40.578125 139.460938 38.960938 Z M 140.542969 38.960938 C 140.542969 40.367188 140.699219 41.304688 141.023438 41.773438 C 141.355469 42.234375 141.761719 42.460938 142.25 42.460938 C 142.734375 42.460938 143.148438 42.234375 143.480469 41.773438 C 143.8125 41.304688 143.980469 40.367188 143.980469 38.960938 C 143.980469 37.546875 143.8125 36.609375 143.480469 36.148438 C 143.148438 35.679688 142.734375 35.441406 142.25 35.441406 C 141.761719 35.441406 141.375 35.644531 141.085938 36.046875 C 140.71875 36.578125 140.542969 37.546875 140.542969 38.960938 Z M 140.542969 38.960938 "/>
<path style=" stroke:none;fill-rule:nonzero;fill:rgb(0%,0%,0%);fill-opacity:1;" d="M 146.71875 43.191406 L 146.71875 41.984375 L 147.925781 41.984375 L 147.925781 43.191406 Z M 146.71875 43.191406 "/>
<path style=" stroke:none;fill-rule:nonzero;fill:rgb(0%,0%,0%);fill-opacity:1;" d="M 153.453125 43.191406 L 152.390625 43.191406 L 152.390625 36.460938 C 152.140625 36.710938 151.804688 36.960938 151.390625 37.210938 C 150.972656 37.453125 150.601562 37.625 150.285156 37.734375 L 150.285156 36.710938 C 150.867188 36.453125 151.378906 36.125 151.828125 35.734375 C 152.269531 35.332031 152.582031 34.941406 152.765625 34.566406 L 153.453125 34.566406 Z M 153.453125 43.191406 "/>
<path style=" stroke:none;fill-rule:nonzero;fill:rgb(0%,0%,0%);fill-opacity:1;" d="M 144.34375 15.71875 L 145.40625 15.570312 C 145.53125 16.171875 145.726562 16.601562 146.007812 16.863281 C 146.300781 17.128906 146.660156 17.257812 147.09375 17.257812 C 147.578125 17.257812 147.988281 17.09375 148.320312 16.757812 C 148.664062 16.414062 148.84375 15.984375 148.84375 15.46875 C 148.84375 14.984375 148.679688 14.585938 148.363281 14.28125 C 148.054688 13.960938 147.660156 13.800781 147.175781 13.800781 C 146.96875 13.800781 146.71875 13.84375 146.425781 13.925781 L 146.550781 12.988281 C 146.617188 13.003906 146.675781 13.007812 146.71875 13.007812 C 147.160156 13.007812 147.5625 12.894531 147.925781 12.65625 C 148.285156 12.421875 148.46875 12.0625 148.46875 11.570312 C 148.46875 11.1875 148.332031 10.863281 148.070312 10.613281 C 147.804688 10.363281 147.46875 10.238281 147.050781 10.238281 C 146.644531 10.238281 146.304688 10.375 146.03125 10.632812 C 145.765625 10.882812 145.59375 11.269531 145.507812 11.78125 L 144.445312 11.59375 C 144.582031 10.882812 144.875 10.335938 145.320312 9.945312 C 145.78125 9.5625 146.347656 9.363281 147.03125 9.363281 C 147.5 9.363281 147.929688 9.46875 148.320312 9.675781 C 148.722656 9.875 149.03125 10.144531 149.238281 10.488281 C 149.445312 10.835938 149.550781 11.207031 149.550781 11.59375 C 149.550781 11.96875 149.445312 12.3125 149.238281 12.613281 C 149.039062 12.921875 148.75 13.164062 148.363281 13.34375 C 148.875 13.457031 149.269531 13.695312 149.550781 14.070312 C 149.828125 14.4375 149.96875 14.894531 149.96875 15.445312 C 149.96875 16.195312 149.6875 16.835938 149.132812 17.363281 C 148.59375 17.878906 147.90625 18.132812 147.070312 18.132812 C 146.320312 18.132812 145.695312 17.914062 145.195312 17.46875 C 144.695312 17.023438 144.410156 16.441406 144.34375 15.71875 Z M 144.34375 15.71875 "/>
<path style="fill-rule:nonzero;fill:rgb(69.803923%,85.09804%,100%);fill-opacity:1;stroke-width:1;stroke-linecap:round;stroke-linejoin:round;stroke:rgb(0%,0%,0%);stroke-opacity:1;stroke-miterlimit:10;" d="M 209.887695 254.881836 L 230.442383 254.881836 L 230.442383 270.980469 L 209.887695 270.980469 Z M 209.887695 254.881836 " transform="matrix(1.333333,0,0,1.333333,-110.666667,-246.666667)"/>
<path style=" stroke:none;fill-rule:nonzero;fill:rgb(0%,0%,0%);fill-opacity:1;" d="M 175.046875 103.484375 C 175.046875 102.472656 175.148438 101.648438 175.359375 101.023438 C 175.566406 100.398438 175.867188 99.921875 176.273438 99.585938 C 176.691406 99.253906 177.210938 99.085938 177.835938 99.085938 C 178.304688 99.085938 178.71875 99.1875 179.066406 99.378906 C 179.410156 99.5625 179.695312 99.828125 179.921875 100.171875 C 180.140625 100.519531 180.316406 100.941406 180.441406 101.441406 C 180.578125 101.941406 180.648438 102.625 180.648438 103.484375 C 180.648438 104.484375 180.546875 105.296875 180.335938 105.921875 C 180.128906 106.535156 179.816406 107.015625 179.398438 107.359375 C 178.992188 107.691406 178.472656 107.859375 177.835938 107.859375 C 177.015625 107.859375 176.367188 107.5625 175.898438 106.960938 C 175.328125 106.253906 175.046875 105.097656 175.046875 103.484375 Z M 176.128906 103.484375 C 176.128906 104.890625 176.285156 105.828125 176.609375 106.296875 C 176.941406 106.753906 177.347656 106.984375 177.835938 106.984375 C 178.320312 106.984375 178.734375 106.753906 179.066406 106.296875 C 179.398438 105.828125 179.566406 104.890625 179.566406 103.484375 C 179.566406 102.066406 179.398438 101.128906 179.066406 100.671875 C 178.734375 100.203125 178.320312 99.960938 177.835938 99.960938 C 177.347656 99.960938 176.960938 100.164062 176.671875 100.566406 C 176.304688 101.097656 176.128906 102.066406 176.128906 103.484375 Z M 176.128906 103.484375 "/>
<path style=" stroke:none;fill-rule:nonzero;fill:rgb(0%,0%,0%);fill-opacity:1;" d="M 182.304688 107.710938 L 182.304688 106.503906 L 183.511719 106.503906 L 183.511719 107.710938 Z M 182.304688 107.710938 "/>
<path style=" stroke:none;fill-rule:nonzero;fill:rgb(0%,0%,0%);fill-opacity:1;" d="M 190.539062 101.234375 L 189.476562 101.316406 C 189.390625 100.898438 189.257812 100.597656 189.078125 100.398438 C 188.796875 100.109375 188.453125 99.960938 188.039062 99.960938 C 187.6875 99.960938 187.390625 100.054688 187.140625 100.234375 C 186.808594 100.484375 186.542969 100.835938 186.351562 101.296875 C 186.167969 101.753906 186.070312 102.414062 186.058594 103.273438 C 186.308594 102.898438 186.609375 102.625 186.976562 102.441406 C 187.351562 102.25 187.734375 102.148438 188.140625 102.148438 C 188.851562 102.148438 189.445312 102.410156 189.933594 102.921875 C 190.433594 103.4375 190.683594 104.101562 190.683594 104.921875 C 190.683594 105.460938 190.5625 105.972656 190.328125 106.441406 C 190.089844 106.898438 189.773438 107.253906 189.371094 107.503906 C 188.964844 107.738281 188.507812 107.859375 187.996094 107.859375 C 187.121094 107.859375 186.402344 107.539062 185.851562 106.898438 C 185.292969 106.25 185.015625 105.179688 185.015625 103.691406 C 185.015625 102.039062 185.320312 100.832031 185.933594 100.066406 C 186.460938 99.414062 187.183594 99.085938 188.101562 99.085938 C 188.765625 99.085938 189.3125 99.285156 189.746094 99.671875 C 190.171875 100.046875 190.4375 100.566406 190.539062 101.234375 Z M 186.226562 104.921875 C 186.226562 105.296875 186.296875 105.648438 186.453125 105.984375 C 186.605469 106.304688 186.820312 106.554688 187.101562 106.734375 C 187.375 106.898438 187.667969 106.984375 187.976562 106.984375 C 188.417969 106.984375 188.796875 106.8125 189.121094 106.460938 C 189.4375 106.101562 189.601562 105.609375 189.601562 104.984375 C 189.601562 104.390625 189.4375 103.921875 189.121094 103.585938 C 188.8125 103.242188 188.417969 103.066406 187.933594 103.066406 C 187.460938 103.066406 187.058594 103.242188 186.726562 103.585938 C 186.390625 103.921875 186.226562 104.367188 186.226562 104.921875 Z M 186.226562 104.921875 "/>
<path style="fill:none;stroke-width:1;stroke-linecap:round;stroke-linejoin:round;stroke:rgb(0%,0%,0%);stroke-opacity:1;stroke-miterlimit:10;" d="M 209.887695 238.780273 L 230.442383 238.780273 L 230.442383 254.881836 L 209.887695 254.881836 Z M 209.887695 238.780273 " transform="matrix(1.333333,0,0,1.333333,-110.666667,-246.666667)"/>
<path style=" stroke:none;fill-rule:nonzero;fill:rgb(0%,0%,0%);fill-opacity:1;" d="M 175.046875 82.015625 C 175.046875 81.007812 175.148438 80.183594 175.359375 79.558594 C 175.566406 78.933594 175.867188 78.453125 176.273438 78.121094 C 176.691406 77.789062 177.210938 77.621094 177.835938 77.621094 C 178.304688 77.621094 178.71875 77.71875 179.066406 77.914062 C 179.410156 78.09375 179.695312 78.359375 179.921875 78.703125 C 180.140625 79.054688 180.316406 79.476562 180.441406 79.976562 C 180.578125 80.476562 180.648438 81.15625 180.648438 82.015625 C 180.648438 83.015625 180.546875 83.828125 180.335938 84.453125 C 180.128906 85.070312 179.816406 85.546875 179.398438 85.890625 C 178.992188 86.226562 178.472656 86.390625 177.835938 86.390625 C 177.015625 86.390625 176.367188 86.09375 175.898438 85.496094 C 175.328125 84.789062 175.046875 83.632812 175.046875 82.015625 Z M 176.128906 82.015625 C 176.128906 83.421875 176.285156 84.359375 176.609375 84.828125 C 176.941406 85.289062 177.347656 85.515625 177.835938 85.515625 C 178.320312 85.515625 178.734375 85.289062 179.066406 84.828125 C 179.398438 84.359375 179.566406 83.421875 179.566406 82.015625 C 179.566406 80.601562 179.398438 79.664062 179.066406 79.203125 C 178.734375 78.734375 178.320312 78.496094 177.835938 78.496094 C 177.347656 78.496094 176.960938 78.699219 176.671875 79.101562 C 176.304688 79.632812 176.128906 80.601562 176.128906 82.015625 Z M 176.128906 82.015625 "/>
<path style=" stroke:none;fill-rule:nonzero;fill:rgb(0%,0%,0%);fill-opacity:1;" d="M 182.304688 86.246094 L 182.304688 85.039062 L 183.511719 85.039062 L 183.511719 86.246094 Z M 182.304688 86.246094 "/>
<path style=" stroke:none;fill-rule:nonzero;fill:rgb(0%,0%,0%);fill-opacity:1;" d="M 189.039062 86.246094 L 187.976562 86.246094 L 187.976562 79.515625 C 187.726562 79.765625 187.390625 80.015625 186.976562 80.265625 C 186.558594 80.507812 186.1875 80.679688 185.871094 80.789062 L 185.871094 79.765625 C 186.453125 79.507812 186.964844 79.179688 187.414062 78.789062 C 187.855469 78.386719 188.167969 77.996094 188.351562 77.621094 L 189.039062 77.621094 Z M 189.039062 86.246094 "/>
<path style="fill:none;stroke-width:1;stroke-linecap:round;stroke-linejoin:round;stroke:rgb(0%,0%,0%);stroke-opacity:1;stroke-miterlimit:10;" d="M 209.887695 222.68457 L 230.442383 222.68457 L 230.442383 238.780273 L 209.887695 238.780273 Z M 209.887695 222.68457 " transform="matrix(1.333333,0,0,1.333333,-110.666667,-246.666667)"/>
<path style=" stroke:none;fill-rule:nonzero;fill:rgb(0%,0%,0%);fill-opacity:1;" d="M 175.046875 60.550781 C 175.046875 59.539062 175.148438 58.71875 175.359375 58.09375 C 175.566406 57.46875 175.867188 56.988281 176.273438 56.65625 C 176.691406 56.320312 177.210938 56.15625 177.835938 56.15625 C 178.304688 56.15625 178.71875 56.253906 179.066406 56.445312 C 179.410156 56.628906 179.695312 56.894531 179.921875 57.238281 C 180.140625 57.585938 180.316406 58.007812 180.441406 58.507812 C 180.578125 59.007812 180.648438 59.691406 180.648438 60.550781 C 180.648438 61.550781 180.546875 62.363281 180.335938 62.988281 C 180.128906 63.601562 179.816406 64.082031 179.398438 64.425781 C 178.992188 64.757812 178.472656 64.925781 177.835938 64.925781 C 177.015625 64.925781 176.367188 64.628906 175.898438 64.03125 C 175.328125 63.320312 175.046875 62.164062 175.046875 60.550781 Z M 176.128906 60.550781 C 176.128906 61.957031 176.285156 62.894531 176.609375 63.363281 C 176.941406 63.820312 177.347656 64.050781 177.835938 64.050781 C 178.320312 64.050781 178.734375 63.820312 179.066406 63.363281 C 179.398438 62.894531 179.566406 61.957031 179.566406 60.550781 C 179.566406 59.132812 179.398438 58.195312 179.066406 57.738281 C 178.734375 57.269531 178.320312 57.03125 177.835938 57.03125 C 177.347656 57.03125 176.960938 57.234375 176.671875 57.632812 C 176.304688 58.164062 176.128906 59.132812 176.128906 60.550781 Z M 176.128906 60.550781 "/>
<path style=" stroke:none;fill-rule:nonzero;fill:rgb(0%,0%,0%);fill-opacity:1;" d="M 182.304688 64.78125 L 182.304688 63.570312 L 183.511719 63.570312 L 183.511719 64.78125 Z M 182.304688 64.78125 "/>
<path style=" stroke:none;fill-rule:nonzero;fill:rgb(0%,0%,0%);fill-opacity:1;" d="M 190.601562 63.757812 L 190.601562 64.78125 L 184.914062 64.78125 C 184.914062 64.53125 184.953125 64.289062 185.039062 64.050781 C 185.1875 63.664062 185.421875 63.28125 185.746094 62.90625 C 186.0625 62.53125 186.523438 62.101562 187.121094 61.613281 C 188.046875 60.835938 188.671875 60.226562 188.996094 59.78125 C 189.328125 59.335938 189.496094 58.914062 189.496094 58.507812 C 189.496094 58.09375 189.339844 57.75 189.039062 57.46875 C 188.746094 57.175781 188.359375 57.03125 187.890625 57.03125 C 187.375 57.03125 186.964844 57.1875 186.664062 57.488281 C 186.355469 57.796875 186.203125 58.21875 186.203125 58.757812 L 185.121094 58.632812 C 185.1875 57.832031 185.464844 57.21875 185.953125 56.800781 C 186.4375 56.375 187.089844 56.15625 187.914062 56.15625 C 188.730469 56.15625 189.375 56.382812 189.851562 56.84375 C 190.335938 57.300781 190.578125 57.863281 190.578125 58.53125 C 190.578125 58.878906 190.507812 59.21875 190.371094 59.550781 C 190.230469 59.882812 189.996094 60.238281 189.664062 60.613281 C 189.339844 60.976562 188.808594 61.476562 188.058594 62.113281 C 187.417969 62.644531 187.007812 63.003906 186.828125 63.195312 C 186.648438 63.394531 186.5 63.582031 186.390625 63.757812 Z M 190.601562 63.757812 "/>
<path style="fill:none;stroke-width:1;stroke-linecap:round;stroke-linejoin:round;stroke:rgb(0%,0%,0%);stroke-opacity:1;stroke-miterlimit:10;" d="M 209.887695 206.583008 L 230.442383 206.583008 L 230.442383 222.68457 L 209.887695 222.68457 Z M 209.887695 206.583008 " transform="matrix(1.333333,0,0,1.333333,-110.666667,-246.666667)"/>
<path style=" stroke:none;fill-rule:nonzero;fill:rgb(0%,0%,0%);fill-opacity:1;" d="M 175.046875 39.082031 C 175.046875 38.074219 175.148438 37.25 175.359375 36.625 C 175.566406 36 175.867188 35.519531 176.273438 35.1875 C 176.691406 34.855469 177.210938 34.6875 177.835938 34.6875 C 178.304688 34.6875 178.71875 34.785156 179.066406 34.980469 C 179.410156 35.160156 179.695312 35.425781 179.921875 35.769531 C 180.140625 36.121094 180.316406 36.542969 180.441406 37.042969 C 180.578125 37.542969 180.648438 38.222656 180.648438 39.082031 C 180.648438 40.082031 180.546875 40.894531 180.335938 41.519531 C 180.128906 42.136719 179.816406 42.613281 179.398438 42.957031 C 178.992188 43.292969 178.472656 43.457031 177.835938 43.457031 C 177.015625 43.457031 176.367188 43.160156 175.898438 42.5625 C 175.328125 41.855469 175.046875 40.699219 175.046875 39.082031 Z M 176.128906 39.082031 C 176.128906 40.488281 176.285156 41.425781 176.609375 41.894531 C 176.941406 42.355469 177.347656 42.582031 177.835938 42.582031 C 178.320312 42.582031 178.734375 42.355469 179.066406 41.894531 C 179.398438 41.425781 179.566406 40.488281 179.566406 39.082031 C 179.566406 37.667969 179.398438 36.730469 179.066406 36.269531 C 178.734375 35.800781 178.320312 35.5625 177.835938 35.5625 C 177.347656 35.5625 176.960938 35.765625 176.671875 36.167969 C 176.304688 36.699219 176.128906 37.667969 176.128906 39.082031 Z M 176.128906 39.082031 "/>
<path style=" stroke:none;fill-rule:nonzero;fill:rgb(0%,0%,0%);fill-opacity:1;" d="M 182.304688 43.3125 L 182.304688 42.105469 L 183.511719 42.105469 L 183.511719 43.3125 Z M 182.304688 43.3125 "/>
<path style=" stroke:none;fill-rule:nonzero;fill:rgb(0%,0%,0%);fill-opacity:1;" d="M 189.039062 43.3125 L 187.976562 43.3125 L 187.976562 36.582031 C 187.726562 36.832031 187.390625 37.082031 186.976562 37.332031 C 186.558594 37.574219 186.1875 37.746094 185.871094 37.855469 L 185.871094 36.832031 C 186.453125 36.574219 186.964844 36.246094 187.414062 35.855469 C 187.855469 35.453125 188.167969 35.0625 188.351562 34.6875 L 189.039062 34.6875 Z M 189.039062 43.3125 "/>
<path style=" stroke:none;fill-rule:nonzero;fill:rgb(0%,0%,0%);fill-opacity:1;" d="M 183.425781 18.109375 L 183.425781 16.046875 L 179.695312 16.046875 L 179.695312 15.089844 L 183.613281 9.527344 L 184.488281 9.527344 L 184.488281 15.089844 L 185.652344 15.089844 L 185.652344 16.046875 L 184.488281 16.046875 L 184.488281 18.109375 Z M 183.425781 15.089844 L 183.425781 11.214844 L 180.738281 15.089844 Z M 183.425781 15.089844 "/>
<path style=" stroke:none;fill-rule:nonzero;fill:rgb(0%,0%,0%);fill-opacity:1;" d="M 23.53125 102.144531 L 17.46875 104.855469 L 17.46875 105.605469 L 23.53125 108.3125 L 23.53125 107.417969 L 18.59375 105.230469 L 23.53125 103.042969 Z M 23.53125 102.144531 "/>
<path style=" stroke:none;fill-rule:nonzero;fill:rgb(0%,0%,0%);fill-opacity:1;" d="M 27.414062 101.957031 C 26.519531 101.957031 25.8125 102.292969 25.289062 102.9375 C 24.769531 103.542969 24.5 104.3125 24.5 105.230469 C 24.5 106.230469 24.769531 107.019531 25.332031 107.625 C 25.851562 108.207031 26.582031 108.5 27.457031 108.5 C 28.269531 108.5 28.914062 108.269531 29.4375 107.8125 C 29.851562 107.417969 30.144531 106.9375 30.269531 106.332031 L 29.3125 106.332031 C 29.164062 106.769531 28.957031 107.105469 28.6875 107.3125 C 28.375 107.5625 27.957031 107.6875 27.457031 107.6875 C 26.875 107.6875 26.394531 107.5 26.0625 107.125 C 25.726562 106.730469 25.5625 106.1875 25.5 105.5 L 30.394531 105.5 C 30.375 104.417969 30.144531 103.5625 29.6875 102.980469 C 29.164062 102.292969 28.414062 101.957031 27.414062 101.957031 Z M 27.457031 102.769531 C 28.625 102.769531 29.289062 103.417969 29.394531 104.75 L 25.519531 104.75 C 25.582031 104.144531 25.769531 103.667969 26.125 103.3125 C 26.457031 102.9375 26.894531 102.769531 27.457031 102.769531 Z M 27.457031 102.769531 "/>
<path style=" stroke:none;fill-rule:nonzero;fill:rgb(0%,0%,0%);fill-opacity:1;" d="M 34.304688 101.957031 C 33.367188 101.957031 32.636719 102.269531 32.074219 102.917969 C 31.554688 103.542969 31.285156 104.292969 31.285156 105.230469 C 31.285156 106.167969 31.554688 106.9375 32.074219 107.519531 C 32.636719 108.1875 33.367188 108.5 34.304688 108.5 C 35.222656 108.5 35.972656 108.1875 36.535156 107.519531 C 37.054688 106.9375 37.304688 106.167969 37.304688 105.230469 C 37.304688 104.292969 37.054688 103.542969 36.511719 102.917969 C 35.972656 102.269531 35.222656 101.957031 34.304688 101.957031 Z M 34.304688 102.769531 C 34.949219 102.769531 35.472656 103.019531 35.847656 103.519531 C 36.179688 103.980469 36.347656 104.542969 36.347656 105.230469 C 36.347656 105.917969 36.179688 106.480469 35.847656 106.9375 C 35.472656 107.4375 34.949219 107.6875 34.304688 107.6875 C 33.636719 107.6875 33.117188 107.4375 32.761719 106.9375 C 32.429688 106.480469 32.261719 105.917969 32.261719 105.230469 C 32.261719 104.542969 32.429688 103.980469 32.761719 103.519531 C 33.117188 103.019531 33.636719 102.769531 34.304688 102.769531 Z M 34.304688 102.769531 "/>
<path style=" stroke:none;fill-rule:nonzero;fill:rgb(0%,0%,0%);fill-opacity:1;" d="M 40.753906 101.957031 C 40.066406 101.957031 39.484375 102.125 39.046875 102.4375 C 38.585938 102.75 38.359375 103.144531 38.359375 103.6875 C 38.359375 104.207031 38.585938 104.605469 39.066406 104.894531 C 39.359375 105.082031 39.859375 105.269531 40.609375 105.4375 C 41.273438 105.605469 41.710938 105.75 41.921875 105.832031 C 42.296875 106.019531 42.503906 106.292969 42.503906 106.644531 C 42.503906 107.332031 41.941406 107.6875 40.835938 107.6875 C 40.316406 107.6875 39.921875 107.605469 39.648438 107.417969 C 39.378906 107.1875 39.210938 106.855469 39.128906 106.355469 L 38.191406 106.355469 C 38.335938 107.792969 39.234375 108.5 40.859375 108.5 C 42.609375 108.5 43.484375 107.855469 43.484375 106.582031 C 43.484375 106.042969 43.234375 105.625 42.753906 105.3125 C 42.421875 105.105469 41.898438 104.917969 41.148438 104.730469 C 40.523438 104.5625 40.085938 104.4375 39.859375 104.332031 C 39.503906 104.144531 39.335938 103.917969 39.335938 103.644531 C 39.335938 103.375 39.460938 103.167969 39.734375 103 C 39.984375 102.832031 40.316406 102.769531 40.753906 102.769531 C 41.234375 102.769531 41.628906 102.855469 41.878906 103.0625 C 42.128906 103.230469 42.273438 103.5 42.359375 103.894531 L 43.296875 103.894531 C 43.128906 102.605469 42.296875 101.957031 40.753906 101.957031 Z M 40.753906 101.957031 "/>
<path style=" stroke:none;fill-rule:nonzero;fill:rgb(0%,0%,0%);fill-opacity:1;" d="M 44.480469 102.144531 L 44.480469 103.042969 L 49.417969 105.230469 L 44.480469 107.417969 L 44.480469 108.3125 L 50.542969 105.605469 L 50.542969 104.855469 Z M 44.480469 102.144531 "/>
<path style=" stroke:none;fill-rule:nonzero;fill:rgb(0%,0%,0%);fill-opacity:1;" d="M 36.730469 82.984375 L 37.855469 83.273438 C 37.613281 84.207031 37.1875 84.921875 36.5625 85.421875 C 35.949219 85.910156 35.191406 86.148438 34.292969 86.148438 C 33.375 86.148438 32.625 85.960938 32.042969 85.585938 C 31.457031 85.210938 31.011719 84.671875 30.707031 83.960938 C 30.417969 83.242188 30.269531 82.472656 30.269531 81.648438 C 30.269531 80.75 30.4375 79.960938 30.769531 79.296875 C 31.113281 78.628906 31.605469 78.128906 32.230469 77.796875 C 32.863281 77.453125 33.5625 77.273438 34.3125 77.273438 C 35.171875 77.273438 35.894531 77.5 36.480469 77.941406 C 37.074219 78.375 37.484375 78.984375 37.707031 79.773438 L 36.582031 80.023438 C 36.386719 79.398438 36.105469 78.953125 35.730469 78.671875 C 35.355469 78.378906 34.875 78.234375 34.292969 78.234375 C 33.636719 78.234375 33.089844 78.394531 32.644531 78.710938 C 32.199219 79.035156 31.886719 79.460938 31.707031 80.003906 C 31.527344 80.535156 31.4375 81.078125 31.4375 81.628906 C 31.4375 82.367188 31.542969 83.015625 31.75 83.566406 C 31.96875 84.109375 32.300781 84.515625 32.75 84.773438 C 33.191406 85.039062 33.675781 85.171875 34.207031 85.171875 C 34.84375 85.171875 35.378906 84.992188 35.8125 84.628906 C 36.253906 84.253906 36.5625 83.707031 36.730469 82.984375 Z M 36.730469 82.984375 "/>
<path style=" stroke:none;fill-rule:nonzero;fill:rgb(0%,0%,0%);fill-opacity:1;" d="M 30.871094 64.535156 L 30.871094 55.953125 L 34.101562 55.953125 C 34.753906 55.953125 35.273438 56.046875 35.664062 56.222656 C 36.066406 56.390625 36.378906 56.65625 36.601562 57.015625 C 36.835938 57.378906 36.957031 57.753906 36.957031 58.140625 C 36.957031 58.515625 36.851562 58.863281 36.644531 59.183594 C 36.445312 59.503906 36.148438 59.765625 35.746094 59.972656 C 36.257812 60.128906 36.652344 60.386719 36.933594 60.746094 C 37.226562 61.109375 37.371094 61.535156 37.371094 62.035156 C 37.371094 62.441406 37.277344 62.816406 37.101562 63.160156 C 36.933594 63.511719 36.726562 63.78125 36.476562 63.972656 C 36.226562 64.15625 35.914062 64.296875 35.539062 64.390625 C 35.164062 64.488281 34.695312 64.535156 34.144531 64.535156 Z M 32.019531 59.558594 L 33.871094 59.558594 C 34.371094 59.558594 34.730469 59.527344 34.957031 59.453125 C 35.246094 59.371094 35.460938 59.234375 35.601562 59.035156 C 35.753906 58.828125 35.832031 58.578125 35.832031 58.285156 C 35.832031 57.996094 35.757812 57.746094 35.621094 57.535156 C 35.480469 57.316406 35.289062 57.160156 35.039062 57.078125 C 34.789062 56.996094 34.351562 56.953125 33.726562 56.953125 L 32.019531 56.953125 Z M 32.019531 63.515625 L 34.144531 63.515625 C 34.519531 63.515625 34.777344 63.503906 34.933594 63.472656 C 35.183594 63.433594 35.398438 63.359375 35.582031 63.246094 C 35.757812 63.136719 35.902344 62.972656 36.019531 62.765625 C 36.128906 62.558594 36.183594 62.316406 36.183594 62.035156 C 36.183594 61.71875 36.101562 61.441406 35.933594 61.203125 C 35.769531 60.96875 35.539062 60.808594 35.246094 60.722656 C 34.957031 60.628906 34.539062 60.578125 33.996094 60.578125 L 32.019531 60.578125 Z M 32.019531 63.515625 "/>
<path style=" stroke:none;fill-rule:nonzero;fill:rgb(0%,0%,0%);fill-opacity:1;" d="M 29.976562 43.070312 L 33.289062 34.488281 L 34.496094 34.488281 L 38.019531 43.070312 L 36.726562 43.070312 L 35.726562 40.464844 L 32.121094 40.464844 L 31.183594 43.070312 Z M 32.457031 39.550781 L 35.371094 39.550781 L 34.476562 37.152344 C 34.195312 36.433594 33.996094 35.839844 33.871094 35.382812 C 33.757812 35.941406 33.601562 36.488281 33.394531 37.027344 Z M 32.457031 39.550781 "/>
</g>
</svg>
