<?xml version="1.0" encoding="UTF-8"?>
<svg xmlns="http://www.w3.org/2000/svg" xmlns:xlink="http://www.w3.org/1999/xlink" width="470.666667" height="144" viewBox="0 0 470.666667 144" version="1.1">
<g id="surface1">
<path style=" stroke:none;fill-rule:nonzero;fill:rgb(12.941177%,30.980393%,51.764709%);fill-opacity:0.25098;" d="M 168 138.667969 L 301.332031 138.667969 L 301.332031 5.332031 L 168 5.332031 Z M 168 138.667969 "/>
<path style="fill:none;stroke-width:1;stroke-linecap:round;stroke-linejoin:round;stroke:rgb(0%,0%,0%);stroke-opacity:1;stroke-miterlimit:10;" d="M 25 144.999023 L 124.999023 144.999023 L 124.999023 245.000977 L 25 245.000977 Z M 25 144.999023 " transform="matrix(1.333333,0,0,1.333333,134.666667,-188)"/>
<path style=" stroke:none;fill-rule:nonzero;fill:rgb(12.941177%,30.980393%,51.764709%);fill-opacity:0.25098;" d="M 334.667969 138.667969 L 468 138.667969 L 468 5.332031 L 334.667969 5.332031 Z M 334.667969 138.667969 "/>
<path style="fill:none;stroke-width:1;stroke-linecap:round;stroke-linejoin:round;stroke:rgb(0%,0%,0%);stroke-opacity:1;stroke-miterlimit:10;" d="M 150.000977 144.999023 L 250 144.999023 L 250 245.000977 L 150.000977 245.000977 Z M 150.000977 144.999023 " transform="matrix(1.333333,0,0,1.333333,134.666667,-188)"/>
<path style=" stroke:none;fill-rule:nonzero;fill:rgb(12.941177%,30.980393%,51.764709%);fill-opacity:0.25098;" d="M 168 18.667969 L 301.332031 18.667969 L 301.332031 5.332031 L 168 5.332031 Z M 168 18.667969 "/>
<path style="fill:none;stroke-width:1;stroke-linecap:round;stroke-linejoin:round;stroke:rgb(0%,0%,0%);stroke-opacity:1;stroke-miterlimit:10;" d="M 25 144.999023 L 124.999023 144.999023 L 124.999023 155.000977 L 25 155.000977 Z M 25 144.999023 " transform="matrix(1.333333,0,0,1.333333,134.666667,-188)"/>
<path style=" stroke:none;fill-rule:nonzero;fill:rgb(12.941177%,30.980393%,51.764709%);fill-opacity:0.25098;" d="M 168 138.667969 L 301.332031 138.667969 L 301.332031 125.332031 L 168 125.332031 Z M 168 138.667969 "/>
<path style="fill:none;stroke-width:1;stroke-linecap:round;stroke-linejoin:round;stroke:rgb(0%,0%,0%);stroke-opacity:1;stroke-miterlimit:10;" d="M 25 234.999023 L 124.999023 234.999023 L 124.999023 245.000977 L 25 245.000977 Z M 25 234.999023 " transform="matrix(1.333333,0,0,1.333333,134.666667,-188)"/>
<path style=" stroke:none;fill-rule:nonzero;fill:rgb(12.941177%,30.980393%,51.764709%);fill-opacity:0.25098;" d="M 168 138.667969 L 181.332031 138.667969 L 181.332031 5.332031 L 168 5.332031 Z M 168 138.667969 "/>
<path style="fill:none;stroke-width:1;stroke-linecap:round;stroke-linejoin:round;stroke:rgb(0%,0%,0%);stroke-opacity:1;stroke-miterlimit:10;" d="M 25 144.999023 L 34.999023 144.999023 L 34.999023 245.000977 L 25 245.000977 Z M 25 144.999023 " transform="matrix(1.333333,0,0,1.333333,134.666667,-188)"/>
<path style=" stroke:none;fill-rule:nonzero;fill:rgb(12.941177%,30.980393%,51.764709%);fill-opacity:0.25098;" d="M 288 138.667969 L 301.332031 138.667969 L 301.332031 5.332031 L 288 5.332031 Z M 288 138.667969 "/>
<path style="fill:none;stroke-width:1;stroke-linecap:round;stroke-linejoin:round;stroke:rgb(0%,0%,0%);stroke-opacity:1;stroke-miterlimit:10;" d="M 115 144.999023 L 124.999023 144.999023 L 124.999023 245.000977 L 115 245.000977 Z M 115 144.999023 " transform="matrix(1.333333,0,0,1.333333,134.666667,-188)"/>
<path style=" stroke:none;fill-rule:nonzero;fill:rgb(12.941177%,30.980393%,51.764709%);fill-opacity:0.25098;" d="M 334.667969 18.667969 L 468 18.667969 L 468 5.332031 L 334.667969 5.332031 Z M 334.667969 18.667969 "/>
<path style="fill:none;stroke-width:1;stroke-linecap:round;stroke-linejoin:round;stroke:rgb(0%,0%,0%);stroke-opacity:1;stroke-miterlimit:10;" d="M 150.000977 144.999023 L 250 144.999023 L 250 155.000977 L 150.000977 155.000977 Z M 150.000977 144.999023 " transform="matrix(1.333333,0,0,1.333333,134.666667,-188)"/>
<path style=" stroke:none;fill-rule:nonzero;fill:rgb(12.941177%,30.980393%,51.764709%);fill-opacity:0.25098;" d="M 334.667969 138.667969 L 468 138.667969 L 468 125.332031 L 334.667969 125.332031 Z M 334.667969 138.667969 "/>
<path style="fill:none;stroke-width:1;stroke-linecap:round;stroke-linejoin:round;stroke:rgb(0%,0%,0%);stroke-opacity:1;stroke-miterlimit:10;" d="M 150.000977 234.999023 L 250 234.999023 L 250 245.000977 L 150.000977 245.000977 Z M 150.000977 234.999023 " transform="matrix(1.333333,0,0,1.333333,134.666667,-188)"/>
<path style=" stroke:none;fill-rule:nonzero;fill:rgb(12.941177%,30.980393%,51.764709%);fill-opacity:0.25098;" d="M 334.667969 138.667969 L 348 138.667969 L 348 5.332031 L 334.667969 5.332031 Z M 334.667969 138.667969 "/>
<path style="fill:none;stroke-width:1;stroke-linecap:round;stroke-linejoin:round;stroke:rgb(0%,0%,0%);stroke-opacity:1;stroke-miterlimit:10;" d="M 150.000977 144.999023 L 160 144.999023 L 160 245.000977 L 150.000977 245.000977 Z M 150.000977 144.999023 " transform="matrix(1.333333,0,0,1.333333,134.666667,-188)"/>
<path style=" stroke:none;fill-rule:nonzero;fill:rgb(12.941177%,30.980393%,51.764709%);fill-opacity:0.25098;" d="M 454.667969 138.667969 L 468 138.667969 L 468 5.332031 L 454.667969 5.332031 Z M 454.667969 138.667969 "/>
<path style="fill:none;stroke-width:1;stroke-linecap:round;stroke-linejoin:round;stroke:rgb(0%,0%,0%);stroke-opacity:1;stroke-miterlimit:10;" d="M 240.000977 144.999023 L 250 144.999023 L 250 245.000977 L 240.000977 245.000977 Z M 240.000977 144.999023 " transform="matrix(1.333333,0,0,1.333333,134.666667,-188)"/>
<path style=" stroke:none;fill-rule:nonzero;fill:rgb(12.941177%,30.980393%,51.764709%);fill-opacity:0.25098;" d="M 334.667969 138.667969 L 361.332031 138.667969 L 361.332031 5.332031 L 334.667969 5.332031 Z M 334.667969 138.667969 "/>
<path style="fill:none;stroke-width:1;stroke-linecap:round;stroke-linejoin:round;stroke:rgb(0%,0%,0%);stroke-opacity:1;stroke-miterlimit:10;" d="M 150.000977 144.999023 L 169.999023 144.999023 L 169.999023 245.000977 L 150.000977 245.000977 Z M 150.000977 144.999023 " transform="matrix(1.333333,0,0,1.333333,134.666667,-188)"/>
<path style=" stroke:none;fill-rule:nonzero;fill:rgb(12.941177%,30.980393%,51.764709%);fill-opacity:0.25098;" d="M 441.332031 138.667969 L 468 138.667969 L 468 5.332031 L 441.332031 5.332031 Z M 441.332031 138.667969 "/>
<path style="fill:none;stroke-width:1;stroke-linecap:round;stroke-linejoin:round;stroke:rgb(0%,0%,0%);stroke-opacity:1;stroke-miterlimit:10;" d="M 229.999023 144.999023 L 250 144.999023 L 250 245.000977 L 229.999023 245.000977 Z M 229.999023 144.999023 " transform="matrix(1.333333,0,0,1.333333,134.666667,-188)"/>
<path style=" stroke:none;fill-rule:nonzero;fill:rgb(12.941177%,30.980393%,51.764709%);fill-opacity:0.25098;" d="M 334.667969 32 L 468 32 L 468 5.332031 L 334.667969 5.332031 Z M 334.667969 32 "/>
<path style="fill:none;stroke-width:1;stroke-linecap:round;stroke-linejoin:round;stroke:rgb(0%,0%,0%);stroke-opacity:1;stroke-miterlimit:10;" d="M 150.000977 144.999023 L 250 144.999023 L 250 165 L 150.000977 165 Z M 150.000977 144.999023 " transform="matrix(1.333333,0,0,1.333333,134.666667,-188)"/>
<path style=" stroke:none;fill-rule:nonzero;fill:rgb(12.941177%,30.980393%,51.764709%);fill-opacity:0.25098;" d="M 334.667969 138.667969 L 468 138.667969 L 468 112 L 334.667969 112 Z M 334.667969 138.667969 "/>
<path style="fill:none;stroke-width:1;stroke-linecap:round;stroke-linejoin:round;stroke:rgb(0%,0%,0%);stroke-opacity:1;stroke-miterlimit:10;" d="M 150.000977 225 L 250 225 L 250 245.000977 L 150.000977 245.000977 Z M 150.000977 225 " transform="matrix(1.333333,0,0,1.333333,134.666667,-188)"/>
<path style=" stroke:none;fill-rule:nonzero;fill:rgb(0%,0%,0%);fill-opacity:1;" d="M 295.3125 16 L 295.3125 9.375 L 294.707031 9.375 C 294.667969 9.625 294.582031 9.832031 294.457031 10 C 294.34375 10.167969 294.207031 10.300781 294.042969 10.394531 C 293.875 10.480469 293.675781 10.542969 293.457031 10.582031 C 293.25 10.613281 293.03125 10.625 292.8125 10.625 L 292.8125 11.25 L 294.519531 11.25 L 294.519531 16 Z M 295.3125 16 "/>
<path style=" stroke:none;fill-rule:nonzero;fill:rgb(0%,0%,0%);fill-opacity:1;" d="M 175.3125 16 L 175.3125 9.375 L 174.707031 9.375 C 174.667969 9.625 174.582031 9.832031 174.457031 10 C 174.34375 10.167969 174.207031 10.300781 174.042969 10.394531 C 173.875 10.480469 173.675781 10.542969 173.457031 10.582031 C 173.25 10.613281 173.03125 10.625 172.8125 10.625 L 172.8125 11.25 L 174.519531 11.25 L 174.519531 16 Z M 175.3125 16 "/>
<path style=" stroke:none;fill-rule:nonzero;fill:rgb(0%,0%,0%);fill-opacity:1;" d="M 175.3125 134.667969 L 175.3125 128.042969 L 174.707031 128.042969 C 174.667969 128.292969 174.582031 128.5 174.457031 128.667969 C 174.34375 128.832031 174.207031 128.96875 174.042969 129.0625 C 173.875 129.144531 173.675781 129.207031 173.457031 129.25 C 173.25 129.28125 173.03125 129.292969 172.8125 129.292969 L 172.8125 129.917969 L 174.519531 129.917969 L 174.519531 134.667969 Z M 175.3125 134.667969 "/>
<path style=" stroke:none;fill-rule:nonzero;fill:rgb(0%,0%,0%);fill-opacity:1;" d="M 295.3125 134.667969 L 295.3125 128.042969 L 294.707031 128.042969 C 294.667969 128.292969 294.582031 128.5 294.457031 128.667969 C 294.34375 128.832031 294.207031 128.96875 294.042969 129.0625 C 293.875 129.144531 293.675781 129.207031 293.457031 129.25 C 293.25 129.28125 293.03125 129.292969 292.8125 129.292969 L 292.8125 129.917969 L 294.519531 129.917969 L 294.519531 134.667969 Z M 295.3125 134.667969 "/>
<path style=" stroke:none;fill-rule:nonzero;fill:rgb(0%,0%,0%);fill-opacity:1;" d="M 292.417969 71.597656 L 293.207031 71.597656 C 293.191406 71.390625 293.207031 71.191406 293.25 70.996094 C 293.300781 70.800781 293.378906 70.628906 293.480469 70.472656 C 293.589844 70.324219 293.730469 70.199219 293.894531 70.097656 C 294.0625 70.003906 294.261719 69.953125 294.5 69.953125 C 294.667969 69.953125 294.824219 69.984375 294.980469 70.035156 C 295.144531 70.09375 295.28125 70.175781 295.394531 70.285156 C 295.503906 70.386719 295.59375 70.511719 295.667969 70.660156 C 295.734375 70.800781 295.769531 70.964844 295.769531 71.140625 C 295.769531 71.378906 295.734375 71.589844 295.667969 71.765625 C 295.59375 71.933594 295.488281 72.09375 295.355469 72.246094 C 295.214844 72.386719 295.03125 72.53125 294.8125 72.683594 C 294.605469 72.839844 294.359375 72.996094 294.082031 73.160156 C 293.84375 73.300781 293.625 73.449219 293.417969 73.597656 C 293.207031 73.753906 293.019531 73.933594 292.855469 74.140625 C 292.6875 74.347656 292.546875 74.59375 292.4375 74.871094 C 292.324219 75.152344 292.253906 75.484375 292.230469 75.871094 L 296.542969 75.871094 L 296.542969 75.160156 L 293.144531 75.160156 C 293.1875 74.96875 293.261719 74.796875 293.375 74.640625 C 293.5 74.472656 293.644531 74.324219 293.8125 74.183594 C 293.988281 74.046875 294.175781 73.921875 294.375 73.808594 C 294.582031 73.683594 294.792969 73.558594 295 73.433594 C 295.207031 73.296875 295.40625 73.15625 295.605469 73.015625 C 295.796875 72.878906 295.964844 72.71875 296.105469 72.535156 C 296.253906 72.359375 296.375 72.15625 296.457031 71.933594 C 296.550781 71.714844 296.605469 71.453125 296.605469 71.160156 C 296.605469 70.84375 296.546875 70.566406 296.4375 70.328125 C 296.339844 70.09375 296.191406 69.902344 296 69.746094 C 295.816406 69.578125 295.59375 69.453125 295.332031 69.371094 C 295.082031 69.285156 294.816406 69.246094 294.542969 69.246094 C 294.191406 69.246094 293.878906 69.308594 293.605469 69.433594 C 293.324219 69.546875 293.09375 69.703125 292.917969 69.910156 C 292.734375 70.121094 292.59375 70.371094 292.5 70.660156 C 292.417969 70.953125 292.386719 71.265625 292.417969 71.597656 Z M 292.417969 71.597656 "/>
<path style=" stroke:none;fill-rule:nonzero;fill:rgb(0%,0%,0%);fill-opacity:1;" d="M 172.417969 71.597656 L 173.207031 71.597656 C 173.191406 71.390625 173.207031 71.191406 173.25 70.996094 C 173.300781 70.800781 173.378906 70.628906 173.480469 70.472656 C 173.589844 70.324219 173.730469 70.199219 173.894531 70.097656 C 174.0625 70.003906 174.261719 69.953125 174.5 69.953125 C 174.667969 69.953125 174.824219 69.984375 174.980469 70.035156 C 175.144531 70.09375 175.28125 70.175781 175.394531 70.285156 C 175.503906 70.386719 175.59375 70.511719 175.667969 70.660156 C 175.734375 70.800781 175.769531 70.964844 175.769531 71.140625 C 175.769531 71.378906 175.734375 71.589844 175.667969 71.765625 C 175.59375 71.933594 175.488281 72.09375 175.355469 72.246094 C 175.214844 72.386719 175.03125 72.53125 174.8125 72.683594 C 174.605469 72.839844 174.359375 72.996094 174.082031 73.160156 C 173.84375 73.300781 173.625 73.449219 173.417969 73.597656 C 173.207031 73.753906 173.019531 73.933594 172.855469 74.140625 C 172.6875 74.347656 172.546875 74.59375 172.4375 74.871094 C 172.324219 75.152344 172.253906 75.484375 172.230469 75.871094 L 176.542969 75.871094 L 176.542969 75.160156 L 173.144531 75.160156 C 173.1875 74.96875 173.261719 74.796875 173.375 74.640625 C 173.5 74.472656 173.644531 74.324219 173.8125 74.183594 C 173.988281 74.046875 174.175781 73.921875 174.375 73.808594 C 174.582031 73.683594 174.792969 73.558594 175 73.433594 C 175.207031 73.296875 175.40625 73.15625 175.605469 73.015625 C 175.796875 72.878906 175.964844 72.71875 176.105469 72.535156 C 176.253906 72.359375 176.375 72.15625 176.457031 71.933594 C 176.550781 71.714844 176.605469 71.453125 176.605469 71.160156 C 176.605469 70.84375 176.546875 70.566406 176.4375 70.328125 C 176.339844 70.09375 176.191406 69.902344 176 69.746094 C 175.816406 69.578125 175.59375 69.453125 175.332031 69.371094 C 175.082031 69.285156 174.816406 69.246094 174.542969 69.246094 C 174.191406 69.246094 173.878906 69.308594 173.605469 69.433594 C 173.324219 69.546875 173.09375 69.703125 172.917969 69.910156 C 172.734375 70.121094 172.59375 70.371094 172.5 70.660156 C 172.417969 70.953125 172.386719 71.265625 172.417969 71.597656 Z M 172.417969 71.597656 "/>
<path style=" stroke:none;fill-rule:nonzero;fill:rgb(0%,0%,0%);fill-opacity:1;" d="M 231.15625 130.394531 L 231.945312 130.394531 C 231.929688 130.1875 231.945312 129.988281 231.988281 129.792969 C 232.039062 129.597656 232.117188 129.425781 232.21875 129.269531 C 232.328125 129.121094 232.46875 128.996094 232.632812 128.894531 C 232.800781 128.800781 233 128.75 233.238281 128.75 C 233.40625 128.75 233.5625 128.78125 233.71875 128.832031 C 233.882812 128.890625 234.019531 128.972656 234.132812 129.082031 C 234.242188 129.183594 234.332031 129.308594 234.40625 129.457031 C 234.472656 129.597656 234.507812 129.761719 234.507812 129.9375 C 234.507812 130.175781 234.472656 130.386719 234.40625 130.5625 C 234.332031 130.730469 234.226562 130.890625 234.09375 131.042969 C 233.953125 131.183594 233.769531 131.328125 233.550781 131.480469 C 233.34375 131.636719 233.097656 131.792969 232.820312 131.957031 C 232.582031 132.097656 232.363281 132.246094 232.15625 132.394531 C 231.945312 132.550781 231.757812 132.730469 231.59375 132.9375 C 231.425781 133.144531 231.285156 133.390625 231.175781 133.667969 C 231.0625 133.949219 230.992188 134.28125 230.96875 134.667969 L 235.28125 134.667969 L 235.28125 133.957031 L 231.882812 133.957031 C 231.925781 133.765625 232 133.59375 232.113281 133.4375 C 232.238281 133.269531 232.382812 133.121094 232.550781 132.980469 C 232.726562 132.84375 232.914062 132.71875 233.113281 132.605469 C 233.320312 132.480469 233.53125 132.355469 233.738281 132.230469 C 233.945312 132.09375 234.144531 131.953125 234.34375 131.8125 C 234.535156 131.675781 234.703125 131.515625 234.84375 131.332031 C 234.992188 131.15625 235.113281 130.953125 235.195312 130.730469 C 235.289062 130.511719 235.34375 130.25 235.34375 129.957031 C 235.34375 129.640625 235.285156 129.363281 235.175781 129.125 C 235.078125 128.890625 234.929688 128.699219 234.738281 128.542969 C 234.554688 128.375 234.332031 128.25 234.070312 128.167969 C 233.820312 128.082031 233.554688 128.042969 233.28125 128.042969 C 232.929688 128.042969 232.617188 128.105469 232.34375 128.230469 C 232.0625 128.34375 231.832031 128.5 231.65625 128.707031 C 231.472656 128.917969 231.332031 129.167969 231.238281 129.457031 C 231.15625 129.75 231.125 130.0625 231.15625 130.394531 Z M 231.15625 130.394531 "/>
<path style=" stroke:none;fill-rule:nonzero;fill:rgb(0%,0%,0%);fill-opacity:1;" d="M 231.15625 11.730469 L 231.945312 11.730469 C 231.929688 11.519531 231.945312 11.324219 231.988281 11.125 C 232.039062 10.933594 232.117188 10.761719 232.21875 10.605469 C 232.328125 10.453125 232.46875 10.328125 232.632812 10.230469 C 232.800781 10.136719 233 10.082031 233.238281 10.082031 C 233.40625 10.082031 233.5625 10.113281 233.71875 10.167969 C 233.882812 10.222656 234.019531 10.308594 234.132812 10.417969 C 234.242188 10.515625 234.332031 10.640625 234.40625 10.792969 C 234.472656 10.933594 234.507812 11.09375 234.507812 11.269531 C 234.507812 11.511719 234.472656 11.71875 234.40625 11.894531 C 234.332031 12.0625 234.226562 12.222656 234.09375 12.375 C 233.953125 12.515625 233.769531 12.660156 233.550781 12.8125 C 233.34375 12.96875 233.097656 13.125 232.820312 13.292969 C 232.582031 13.433594 232.363281 13.578125 232.15625 13.730469 C 231.945312 13.886719 231.757812 14.0625 231.59375 14.269531 C 231.425781 14.480469 231.285156 14.722656 231.175781 15 C 231.0625 15.28125 230.992188 15.613281 230.96875 16 L 235.28125 16 L 235.28125 15.292969 L 231.882812 15.292969 C 231.925781 15.097656 232 14.925781 232.113281 14.769531 C 232.238281 14.605469 232.382812 14.453125 232.550781 14.3125 C 232.726562 14.175781 232.914062 14.050781 233.113281 13.9375 C 233.320312 13.8125 233.53125 13.6875 233.738281 13.5625 C 233.945312 13.425781 234.144531 13.285156 234.34375 13.144531 C 234.535156 13.011719 234.703125 12.847656 234.84375 12.667969 C 234.992188 12.488281 235.113281 12.285156 235.195312 12.0625 C 235.289062 11.84375 235.34375 11.582031 235.34375 11.292969 C 235.34375 10.972656 235.285156 10.699219 235.175781 10.457031 C 235.078125 10.222656 234.929688 10.03125 234.738281 9.875 C 234.554688 9.707031 234.332031 9.582031 234.070312 9.5 C 233.820312 9.417969 233.554688 9.375 233.28125 9.375 C 232.929688 9.375 232.617188 9.4375 232.34375 9.5625 C 232.0625 9.675781 231.832031 9.832031 231.65625 10.042969 C 231.472656 10.25 231.332031 10.5 231.238281 10.792969 C 231.15625 11.082031 231.125 11.394531 231.15625 11.730469 Z M 231.15625 11.730469 "/>
<path style=" stroke:none;fill-rule:nonzero;fill:rgb(0%,0%,0%);fill-opacity:1;" d="M 233.90625 73.621094 L 231.675781 73.621094 L 233.882812 70.390625 L 233.90625 70.390625 Z M 234.65625 73.621094 L 234.65625 69.246094 L 234.007812 69.246094 L 231.007812 73.558594 L 231.007812 74.328125 L 233.90625 74.328125 L 233.90625 75.871094 L 234.65625 75.871094 L 234.65625 74.328125 L 235.550781 74.328125 L 235.550781 73.621094 Z M 234.65625 73.621094 "/>
<path style=" stroke:none;fill-rule:nonzero;fill:rgb(0%,0%,0%);fill-opacity:1;" d="M 461.980469 16 L 461.980469 9.375 L 461.375 9.375 C 461.332031 9.625 461.25 9.832031 461.125 10 C 461.011719 10.167969 460.875 10.300781 460.707031 10.394531 C 460.542969 10.480469 460.34375 10.542969 460.125 10.582031 C 459.917969 10.613281 459.699219 10.625 459.480469 10.625 L 459.480469 11.25 L 461.1875 11.25 L 461.1875 16 Z M 461.980469 16 "/>
<path style=" stroke:none;fill-rule:nonzero;fill:rgb(0%,0%,0%);fill-opacity:1;" d="M 341.980469 16 L 341.980469 9.375 L 341.375 9.375 C 341.332031 9.625 341.25 9.832031 341.125 10 C 341.011719 10.167969 340.875 10.300781 340.707031 10.394531 C 340.542969 10.480469 340.34375 10.542969 340.125 10.582031 C 339.917969 10.613281 339.699219 10.625 339.480469 10.625 L 339.480469 11.25 L 341.1875 11.25 L 341.1875 16 Z M 341.980469 16 "/>
<path style=" stroke:none;fill-rule:nonzero;fill:rgb(0%,0%,0%);fill-opacity:1;" d="M 341.980469 134.667969 L 341.980469 128.042969 L 341.375 128.042969 C 341.332031 128.292969 341.25 128.5 341.125 128.667969 C 341.011719 128.832031 340.875 128.96875 340.707031 129.0625 C 340.542969 129.144531 340.34375 129.207031 340.125 129.25 C 339.917969 129.28125 339.699219 129.292969 339.480469 129.292969 L 339.480469 129.917969 L 341.1875 129.917969 L 341.1875 134.667969 Z M 341.980469 134.667969 "/>
<path style=" stroke:none;fill-rule:nonzero;fill:rgb(0%,0%,0%);fill-opacity:1;" d="M 461.980469 134.667969 L 461.980469 128.042969 L 461.375 128.042969 C 461.332031 128.292969 461.25 128.5 461.125 128.667969 C 461.011719 128.832031 460.875 128.96875 460.707031 129.0625 C 460.542969 129.144531 460.34375 129.207031 460.125 129.25 C 459.917969 129.28125 459.699219 129.292969 459.480469 129.292969 L 459.480469 129.917969 L 461.1875 129.917969 L 461.1875 134.667969 Z M 461.980469 134.667969 "/>
<path style=" stroke:none;fill-rule:nonzero;fill:rgb(0%,0%,0%);fill-opacity:1;" d="M 460.707031 72.097656 L 460.707031 72.765625 C 460.84375 72.738281 461.003906 72.722656 461.1875 72.722656 C 461.378906 72.722656 461.5625 72.753906 461.730469 72.808594 C 461.894531 72.863281 462.042969 72.949219 462.167969 73.058594 C 462.292969 73.171875 462.386719 73.308594 462.457031 73.472656 C 462.542969 73.628906 462.582031 73.800781 462.582031 73.996094 C 462.582031 74.203125 462.542969 74.390625 462.457031 74.558594 C 462.386719 74.714844 462.28125 74.84375 462.144531 74.953125 C 462.019531 75.050781 461.863281 75.136719 461.6875 75.203125 C 461.519531 75.261719 461.339844 75.285156 461.144531 75.285156 C 460.6875 75.285156 460.339844 75.15625 460.105469 74.890625 C 459.863281 74.613281 459.75 74.261719 459.75 73.828125 L 458.9375 73.828125 C 458.9375 74.175781 458.984375 74.484375 459.082031 74.746094 C 459.191406 75.011719 459.34375 75.234375 459.542969 75.410156 C 459.734375 75.59375 459.964844 75.734375 460.230469 75.828125 C 460.503906 75.921875 460.8125 75.972656 461.144531 75.972656 C 461.464844 75.972656 461.753906 75.933594 462.019531 75.847656 C 462.296875 75.765625 462.542969 75.640625 462.75 75.472656 C 462.957031 75.308594 463.113281 75.097656 463.230469 74.847656 C 463.355469 74.589844 463.417969 74.296875 463.417969 73.972656 C 463.417969 73.574219 463.316406 73.222656 463.125 72.933594 C 462.925781 72.640625 462.628906 72.453125 462.230469 72.371094 L 462.230469 72.347656 C 462.488281 72.222656 462.707031 72.050781 462.875 71.828125 C 463.050781 71.59375 463.144531 71.324219 463.144531 71.015625 C 463.144531 70.722656 463.089844 70.46875 462.980469 70.246094 C 462.878906 70.011719 462.738281 69.824219 462.5625 69.683594 C 462.378906 69.546875 462.167969 69.441406 461.917969 69.371094 C 461.675781 69.285156 461.417969 69.246094 461.125 69.246094 C 460.800781 69.246094 460.511719 69.300781 460.25 69.410156 C 460 69.527344 459.792969 69.671875 459.625 69.847656 C 459.457031 70.03125 459.324219 70.253906 459.230469 70.515625 C 459.144531 70.78125 459.09375 71.074219 459.082031 71.390625 L 459.875 71.390625 C 459.875 71.199219 459.894531 71.015625 459.9375 70.847656 C 459.988281 70.671875 460.066406 70.515625 460.167969 70.390625 C 460.277344 70.253906 460.40625 70.152344 460.5625 70.078125 C 460.730469 69.996094 460.917969 69.953125 461.125 69.953125 C 461.457031 69.953125 461.734375 70.046875 461.957031 70.222656 C 462.191406 70.40625 462.3125 70.671875 462.3125 71.015625 C 462.3125 71.199219 462.277344 71.359375 462.207031 71.496094 C 462.136719 71.621094 462.042969 71.734375 461.917969 71.828125 C 461.800781 71.910156 461.671875 71.984375 461.519531 72.035156 C 461.363281 72.078125 461.207031 72.097656 461.042969 72.097656 L 460.875 72.097656 C 460.84375 72.097656 460.816406 72.097656 460.792969 72.097656 C 460.761719 72.097656 460.734375 72.097656 460.707031 72.097656 Z M 460.707031 72.097656 "/>
<path style=" stroke:none;fill-rule:nonzero;fill:rgb(0%,0%,0%);fill-opacity:1;" d="M 340.707031 72.097656 L 340.707031 72.765625 C 340.84375 72.738281 341.003906 72.722656 341.1875 72.722656 C 341.378906 72.722656 341.5625 72.753906 341.730469 72.808594 C 341.894531 72.863281 342.042969 72.949219 342.167969 73.058594 C 342.292969 73.171875 342.386719 73.308594 342.457031 73.472656 C 342.542969 73.628906 342.582031 73.800781 342.582031 73.996094 C 342.582031 74.203125 342.542969 74.390625 342.457031 74.558594 C 342.386719 74.714844 342.28125 74.84375 342.144531 74.953125 C 342.019531 75.050781 341.863281 75.136719 341.6875 75.203125 C 341.519531 75.261719 341.339844 75.285156 341.144531 75.285156 C 340.6875 75.285156 340.339844 75.15625 340.105469 74.890625 C 339.863281 74.613281 339.75 74.261719 339.75 73.828125 L 338.9375 73.828125 C 338.9375 74.175781 338.984375 74.484375 339.082031 74.746094 C 339.191406 75.011719 339.34375 75.234375 339.542969 75.410156 C 339.734375 75.59375 339.964844 75.734375 340.230469 75.828125 C 340.503906 75.921875 340.8125 75.972656 341.144531 75.972656 C 341.464844 75.972656 341.753906 75.933594 342.019531 75.847656 C 342.296875 75.765625 342.542969 75.640625 342.75 75.472656 C 342.957031 75.308594 343.113281 75.097656 343.230469 74.847656 C 343.355469 74.589844 343.417969 74.296875 343.417969 73.972656 C 343.417969 73.574219 343.316406 73.222656 343.125 72.933594 C 342.925781 72.640625 342.628906 72.453125 342.230469 72.371094 L 342.230469 72.347656 C 342.488281 72.222656 342.707031 72.050781 342.875 71.828125 C 343.050781 71.59375 343.144531 71.324219 343.144531 71.015625 C 343.144531 70.722656 343.089844 70.46875 342.980469 70.246094 C 342.878906 70.011719 342.738281 69.824219 342.5625 69.683594 C 342.378906 69.546875 342.167969 69.441406 341.917969 69.371094 C 341.675781 69.285156 341.417969 69.246094 341.125 69.246094 C 340.800781 69.246094 340.511719 69.300781 340.25 69.410156 C 340 69.527344 339.792969 69.671875 339.625 69.847656 C 339.457031 70.03125 339.324219 70.253906 339.230469 70.515625 C 339.144531 70.78125 339.09375 71.074219 339.082031 71.390625 L 339.875 71.390625 C 339.875 71.199219 339.894531 71.015625 339.9375 70.847656 C 339.988281 70.671875 340.066406 70.515625 340.167969 70.390625 C 340.277344 70.253906 340.40625 70.152344 340.5625 70.078125 C 340.730469 69.996094 340.917969 69.953125 341.125 69.953125 C 341.457031 69.953125 341.734375 70.046875 341.957031 70.222656 C 342.191406 70.40625 342.3125 70.671875 342.3125 71.015625 C 342.3125 71.199219 342.277344 71.359375 342.207031 71.496094 C 342.136719 71.621094 342.042969 71.734375 341.917969 71.828125 C 341.800781 71.910156 341.671875 71.984375 341.519531 72.035156 C 341.363281 72.078125 341.207031 72.097656 341.042969 72.097656 L 340.875 72.097656 C 340.84375 72.097656 340.816406 72.097656 340.792969 72.097656 C 340.761719 72.097656 340.734375 72.097656 340.707031 72.097656 Z M 340.707031 72.097656 "/>
<path style=" stroke:none;fill-rule:nonzero;fill:rgb(0%,0%,0%);fill-opacity:1;" d="M 399.445312 130.894531 L 399.445312 131.5625 C 399.582031 131.535156 399.742188 131.519531 399.925781 131.519531 C 400.117188 131.519531 400.300781 131.550781 400.46875 131.605469 C 400.632812 131.660156 400.78125 131.746094 400.90625 131.855469 C 401.03125 131.96875 401.125 132.105469 401.195312 132.269531 C 401.28125 132.425781 401.320312 132.597656 401.320312 132.792969 C 401.320312 133 401.28125 133.1875 401.195312 133.355469 C 401.125 133.511719 401.019531 133.640625 400.882812 133.75 C 400.757812 133.847656 400.601562 133.933594 400.425781 134 C 400.257812 134.058594 400.078125 134.082031 399.882812 134.082031 C 399.425781 134.082031 399.078125 133.953125 398.84375 133.6875 C 398.601562 133.410156 398.488281 133.058594 398.488281 132.625 L 397.675781 132.625 C 397.675781 132.972656 397.722656 133.28125 397.820312 133.542969 C 397.929688 133.808594 398.082031 134.03125 398.28125 134.207031 C 398.472656 134.390625 398.703125 134.53125 398.96875 134.625 C 399.242188 134.71875 399.550781 134.769531 399.882812 134.769531 C 400.203125 134.769531 400.492188 134.730469 400.757812 134.644531 C 401.035156 134.5625 401.28125 134.4375 401.488281 134.269531 C 401.695312 134.105469 401.851562 133.894531 401.96875 133.644531 C 402.09375 133.386719 402.15625 133.09375 402.15625 132.769531 C 402.15625 132.371094 402.054688 132.019531 401.863281 131.730469 C 401.664062 131.4375 401.367188 131.25 400.96875 131.167969 L 400.96875 131.144531 C 401.226562 131.019531 401.445312 130.847656 401.613281 130.625 C 401.789062 130.390625 401.882812 130.121094 401.882812 129.8125 C 401.882812 129.519531 401.828125 129.265625 401.71875 129.042969 C 401.617188 128.808594 401.476562 128.621094 401.300781 128.480469 C 401.117188 128.34375 400.90625 128.238281 400.65625 128.167969 C 400.414062 128.082031 400.15625 128.042969 399.863281 128.042969 C 399.539062 128.042969 399.25 128.097656 398.988281 128.207031 C 398.738281 128.324219 398.53125 128.46875 398.363281 128.644531 C 398.195312 128.828125 398.0625 129.050781 397.96875 129.3125 C 397.882812 129.578125 397.832031 129.871094 397.820312 130.1875 L 398.613281 130.1875 C 398.613281 129.996094 398.632812 129.8125 398.675781 129.644531 C 398.726562 129.46875 398.804688 129.3125 398.90625 129.1875 C 399.015625 129.050781 399.144531 128.949219 399.300781 128.875 C 399.46875 128.792969 399.65625 128.75 399.863281 128.75 C 400.195312 128.75 400.472656 128.84375 400.695312 129.019531 C 400.929688 129.203125 401.050781 129.46875 401.050781 129.8125 C 401.050781 129.996094 401.015625 130.15625 400.945312 130.292969 C 400.875 130.417969 400.78125 130.53125 400.65625 130.625 C 400.539062 130.707031 400.410156 130.78125 400.257812 130.832031 C 400.101562 130.875 399.945312 130.894531 399.78125 130.894531 L 399.613281 130.894531 C 399.582031 130.894531 399.554688 130.894531 399.53125 130.894531 C 399.5 130.894531 399.472656 130.894531 399.445312 130.894531 Z M 399.445312 130.894531 "/>
<path style=" stroke:none;fill-rule:nonzero;fill:rgb(0%,0%,0%);fill-opacity:1;" d="M 399.445312 12.230469 L 399.445312 12.894531 C 399.582031 12.871094 399.742188 12.855469 399.925781 12.855469 C 400.117188 12.855469 400.300781 12.886719 400.46875 12.9375 C 400.632812 12.996094 400.78125 13.078125 400.90625 13.1875 C 401.03125 13.300781 401.125 13.4375 401.195312 13.605469 C 401.28125 13.761719 401.320312 13.933594 401.320312 14.125 C 401.320312 14.332031 401.28125 14.519531 401.195312 14.6875 C 401.125 14.84375 401.019531 14.972656 400.882812 15.082031 C 400.757812 15.183594 400.601562 15.265625 400.425781 15.332031 C 400.257812 15.390625 400.078125 15.417969 399.882812 15.417969 C 399.425781 15.417969 399.078125 15.285156 398.84375 15.019531 C 398.601562 14.746094 398.488281 14.390625 398.488281 13.957031 L 397.675781 13.957031 C 397.675781 14.308594 397.722656 14.613281 397.820312 14.875 C 397.929688 15.140625 398.082031 15.363281 398.28125 15.542969 C 398.472656 15.722656 398.703125 15.863281 398.96875 15.957031 C 399.242188 16.050781 399.550781 16.105469 399.882812 16.105469 C 400.203125 16.105469 400.492188 16.0625 400.757812 15.980469 C 401.035156 15.894531 401.28125 15.769531 401.488281 15.605469 C 401.695312 15.4375 401.851562 15.230469 401.96875 14.980469 C 402.09375 14.71875 402.15625 14.425781 402.15625 14.105469 C 402.15625 13.703125 402.054688 13.355469 401.863281 13.0625 C 401.664062 12.769531 401.367188 12.582031 400.96875 12.5 L 400.96875 12.480469 C 401.226562 12.355469 401.445312 12.183594 401.613281 11.957031 C 401.789062 11.722656 401.882812 11.453125 401.882812 11.144531 C 401.882812 10.855469 401.828125 10.597656 401.71875 10.375 C 401.617188 10.140625 401.476562 9.953125 401.300781 9.8125 C 401.117188 9.675781 400.90625 9.574219 400.65625 9.5 C 400.414062 9.417969 400.15625 9.375 399.863281 9.375 C 399.539062 9.375 399.25 9.433594 398.988281 9.542969 C 398.738281 9.65625 398.53125 9.800781 398.363281 9.980469 C 398.195312 10.160156 398.0625 10.386719 397.96875 10.644531 C 397.882812 10.910156 397.832031 11.203125 397.820312 11.519531 L 398.613281 11.519531 C 398.613281 11.328125 398.632812 11.144531 398.675781 10.980469 C 398.726562 10.800781 398.804688 10.644531 398.90625 10.519531 C 399.015625 10.386719 399.144531 10.28125 399.300781 10.207031 C 399.46875 10.125 399.65625 10.082031 399.863281 10.082031 C 400.195312 10.082031 400.472656 10.175781 400.695312 10.355469 C 400.929688 10.535156 401.050781 10.800781 401.050781 11.144531 C 401.050781 11.328125 401.015625 11.488281 400.945312 11.625 C 400.875 11.75 400.78125 11.863281 400.65625 11.957031 C 400.539062 12.042969 400.410156 12.113281 400.257812 12.167969 C 400.101562 12.207031 399.945312 12.230469 399.78125 12.230469 L 399.613281 12.230469 C 399.582031 12.230469 399.554688 12.230469 399.53125 12.230469 C 399.5 12.230469 399.472656 12.230469 399.445312 12.230469 Z M 399.445312 12.230469 "/>
<path style=" stroke:none;fill-rule:nonzero;fill:rgb(0%,0%,0%);fill-opacity:1;" d="M 398.65625 74.265625 L 397.863281 74.265625 C 397.914062 74.847656 398.125 75.28125 398.488281 75.558594 C 398.847656 75.839844 399.304688 75.972656 399.863281 75.972656 C 400.664062 75.972656 401.25 75.671875 401.613281 75.058594 C 401.972656 74.449219 402.15625 73.566406 402.15625 72.410156 C 402.15625 71.785156 402.09375 71.277344 401.96875 70.871094 C 401.851562 70.453125 401.695312 70.128906 401.488281 69.890625 C 401.28125 69.65625 401.035156 69.488281 400.757812 69.390625 C 400.492188 69.296875 400.207031 69.246094 399.90625 69.246094 C 399.582031 69.246094 399.285156 69.300781 399.007812 69.410156 C 398.742188 69.527344 398.515625 69.675781 398.320312 69.871094 C 398.125 70.050781 397.972656 70.277344 397.863281 70.535156 C 397.765625 70.800781 397.71875 71.09375 397.71875 71.410156 C 397.71875 71.734375 397.757812 72.03125 397.84375 72.308594 C 397.9375 72.589844 398.078125 72.824219 398.257812 73.015625 C 398.4375 73.199219 398.65625 73.34375 398.90625 73.453125 C 399.164062 73.566406 399.472656 73.621094 399.820312 73.621094 C 400.140625 73.621094 400.429688 73.535156 400.695312 73.371094 C 400.972656 73.203125 401.1875 72.984375 401.34375 72.703125 L 401.363281 72.722656 C 401.332031 73.589844 401.195312 74.234375 400.945312 74.660156 C 400.707031 75.078125 400.347656 75.285156 399.863281 75.285156 C 399.539062 75.285156 399.265625 75.203125 399.03125 75.035156 C 398.804688 74.859375 398.679688 74.597656 398.65625 74.265625 Z M 401.21875 71.472656 C 401.21875 71.65625 401.179688 71.839844 401.113281 72.015625 C 401.054688 72.199219 400.96875 72.359375 400.84375 72.496094 C 400.726562 72.621094 400.59375 72.722656 400.425781 72.808594 C 400.257812 72.878906 400.070312 72.910156 399.863281 72.910156 C 399.664062 72.910156 399.492188 72.878906 399.34375 72.808594 C 399.1875 72.722656 399.050781 72.621094 398.925781 72.496094 C 398.8125 72.359375 398.722656 72.203125 398.65625 72.035156 C 398.597656 71.871094 398.570312 71.699219 398.570312 71.515625 C 398.570312 71.308594 398.59375 71.113281 398.632812 70.933594 C 398.675781 70.753906 398.742188 70.59375 398.84375 70.453125 C 398.953125 70.300781 399.09375 70.183594 399.257812 70.097656 C 399.425781 70.003906 399.625 69.953125 399.863281 69.953125 C 400.082031 69.953125 400.28125 69.996094 400.445312 70.078125 C 400.613281 70.160156 400.75 70.277344 400.863281 70.410156 C 400.988281 70.550781 401.078125 70.714844 401.132812 70.890625 C 401.1875 71.074219 401.21875 71.265625 401.21875 71.472656 Z M 401.21875 71.472656 "/>
<path style=" stroke:none;fill-rule:nonzero;fill:rgb(0%,0%,0%);fill-opacity:1;" d="M 352.417969 11.730469 L 353.207031 11.730469 C 353.191406 11.519531 353.207031 11.324219 353.25 11.125 C 353.300781 10.933594 353.378906 10.761719 353.480469 10.605469 C 353.589844 10.453125 353.730469 10.328125 353.894531 10.230469 C 354.0625 10.136719 354.261719 10.082031 354.5 10.082031 C 354.667969 10.082031 354.824219 10.113281 354.980469 10.167969 C 355.144531 10.222656 355.28125 10.308594 355.394531 10.417969 C 355.503906 10.515625 355.59375 10.640625 355.667969 10.792969 C 355.734375 10.933594 355.769531 11.09375 355.769531 11.269531 C 355.769531 11.511719 355.734375 11.71875 355.667969 11.894531 C 355.59375 12.0625 355.488281 12.222656 355.355469 12.375 C 355.214844 12.515625 355.03125 12.660156 354.8125 12.8125 C 354.605469 12.96875 354.359375 13.125 354.082031 13.292969 C 353.84375 13.433594 353.625 13.578125 353.417969 13.730469 C 353.207031 13.886719 353.019531 14.0625 352.855469 14.269531 C 352.6875 14.480469 352.546875 14.722656 352.4375 15 C 352.324219 15.28125 352.253906 15.613281 352.230469 16 L 356.542969 16 L 356.542969 15.292969 L 353.144531 15.292969 C 353.1875 15.097656 353.261719 14.925781 353.375 14.769531 C 353.5 14.605469 353.644531 14.453125 353.8125 14.3125 C 353.988281 14.175781 354.175781 14.050781 354.375 13.9375 C 354.582031 13.8125 354.792969 13.6875 355 13.5625 C 355.207031 13.425781 355.40625 13.285156 355.605469 13.144531 C 355.796875 13.011719 355.964844 12.847656 356.105469 12.667969 C 356.253906 12.488281 356.375 12.285156 356.457031 12.0625 C 356.550781 11.84375 356.605469 11.582031 356.605469 11.292969 C 356.605469 10.972656 356.546875 10.699219 356.4375 10.457031 C 356.339844 10.222656 356.191406 10.03125 356 9.875 C 355.816406 9.707031 355.59375 9.582031 355.332031 9.5 C 355.082031 9.417969 354.816406 9.375 354.542969 9.375 C 354.191406 9.375 353.878906 9.4375 353.605469 9.5625 C 353.324219 9.675781 353.09375 9.832031 352.917969 10.042969 C 352.734375 10.25 352.59375 10.5 352.5 10.792969 C 352.417969 11.082031 352.386719 11.394531 352.417969 11.730469 Z M 352.417969 11.730469 "/>
<path style=" stroke:none;fill-rule:nonzero;fill:rgb(0%,0%,0%);fill-opacity:1;" d="M 339.082031 25.0625 L 339.875 25.0625 C 339.859375 24.855469 339.875 24.65625 339.917969 24.457031 C 339.96875 24.265625 340.046875 24.09375 340.144531 23.9375 C 340.253906 23.785156 340.394531 23.660156 340.5625 23.5625 C 340.730469 23.46875 340.925781 23.417969 341.167969 23.417969 C 341.332031 23.417969 341.488281 23.449219 341.644531 23.5 C 341.8125 23.558594 341.949219 23.640625 342.0625 23.75 C 342.171875 23.847656 342.261719 23.972656 342.332031 24.125 C 342.402344 24.265625 342.4375 24.425781 342.4375 24.605469 C 342.4375 24.84375 342.402344 25.050781 342.332031 25.230469 C 342.261719 25.394531 342.15625 25.558594 342.019531 25.707031 C 341.878906 25.847656 341.699219 25.996094 341.480469 26.144531 C 341.269531 26.300781 341.027344 26.457031 340.75 26.625 C 340.511719 26.765625 340.292969 26.910156 340.082031 27.0625 C 339.875 27.21875 339.6875 27.394531 339.519531 27.605469 C 339.355469 27.8125 339.214844 28.058594 339.105469 28.332031 C 338.988281 28.613281 338.921875 28.949219 338.894531 29.332031 L 343.207031 29.332031 L 343.207031 28.625 L 339.8125 28.625 C 339.855469 28.433594 339.925781 28.261719 340.042969 28.105469 C 340.167969 27.9375 340.3125 27.785156 340.480469 27.644531 C 340.65625 27.511719 340.84375 27.386719 341.042969 27.269531 C 341.25 27.144531 341.457031 27.019531 341.667969 26.894531 C 341.875 26.761719 342.074219 26.621094 342.269531 26.480469 C 342.464844 26.34375 342.628906 26.183594 342.769531 26 C 342.921875 25.824219 343.042969 25.621094 343.125 25.394531 C 343.21875 25.175781 343.269531 24.917969 343.269531 24.625 C 343.269531 24.308594 343.214844 24.03125 343.105469 23.792969 C 343.003906 23.558594 342.859375 23.363281 342.667969 23.207031 C 342.484375 23.042969 342.261719 22.917969 342 22.832031 C 341.75 22.75 341.484375 22.707031 341.207031 22.707031 C 340.859375 22.707031 340.546875 22.769531 340.269531 22.894531 C 339.988281 23.011719 339.761719 23.167969 339.582031 23.375 C 339.402344 23.582031 339.261719 23.832031 339.167969 24.125 C 339.082031 24.417969 339.050781 24.730469 339.082031 25.0625 Z M 339.082031 25.0625 "/>
<path style=" stroke:none;fill-rule:nonzero;fill:rgb(0%,0%,0%);fill-opacity:1;" d="M 355.167969 27.082031 L 352.9375 27.082031 L 355.144531 23.855469 L 355.167969 23.855469 Z M 355.917969 27.082031 L 355.917969 22.707031 L 355.269531 22.707031 L 352.269531 27.019531 L 352.269531 27.792969 L 355.167969 27.792969 L 355.167969 29.332031 L 355.917969 29.332031 L 355.917969 27.792969 L 356.8125 27.792969 L 356.8125 27.082031 Z M 355.917969 27.082031 "/>
<path style=" stroke:none;fill-rule:nonzero;fill:rgb(0%,0%,0%);fill-opacity:1;" d="M 339.082031 117.0625 L 339.875 117.0625 C 339.859375 116.855469 339.875 116.65625 339.917969 116.457031 C 339.96875 116.265625 340.046875 116.09375 340.144531 115.9375 C 340.253906 115.785156 340.394531 115.660156 340.5625 115.5625 C 340.730469 115.46875 340.925781 115.417969 341.167969 115.417969 C 341.332031 115.417969 341.488281 115.449219 341.644531 115.5 C 341.8125 115.558594 341.949219 115.640625 342.0625 115.75 C 342.171875 115.847656 342.261719 115.972656 342.332031 116.125 C 342.402344 116.265625 342.4375 116.425781 342.4375 116.605469 C 342.4375 116.84375 342.402344 117.050781 342.332031 117.230469 C 342.261719 117.394531 342.15625 117.558594 342.019531 117.707031 C 341.878906 117.847656 341.699219 117.996094 341.480469 118.144531 C 341.269531 118.300781 341.027344 118.457031 340.75 118.625 C 340.511719 118.765625 340.292969 118.910156 340.082031 119.0625 C 339.875 119.21875 339.6875 119.394531 339.519531 119.605469 C 339.355469 119.8125 339.214844 120.058594 339.105469 120.332031 C 338.988281 120.613281 338.921875 120.949219 338.894531 121.332031 L 343.207031 121.332031 L 343.207031 120.625 L 339.8125 120.625 C 339.855469 120.433594 339.925781 120.261719 340.042969 120.105469 C 340.167969 119.9375 340.3125 119.785156 340.480469 119.644531 C 340.65625 119.511719 340.84375 119.386719 341.042969 119.269531 C 341.25 119.144531 341.457031 119.019531 341.667969 118.894531 C 341.875 118.761719 342.074219 118.621094 342.269531 118.480469 C 342.464844 118.34375 342.628906 118.183594 342.769531 118 C 342.921875 117.824219 343.042969 117.621094 343.125 117.394531 C 343.21875 117.175781 343.269531 116.917969 343.269531 116.625 C 343.269531 116.308594 343.214844 116.03125 343.105469 115.792969 C 343.003906 115.558594 342.859375 115.363281 342.667969 115.207031 C 342.484375 115.042969 342.261719 114.917969 342 114.832031 C 341.75 114.75 341.484375 114.707031 341.207031 114.707031 C 340.859375 114.707031 340.546875 114.769531 340.269531 114.894531 C 339.988281 115.011719 339.761719 115.167969 339.582031 115.375 C 339.402344 115.582031 339.261719 115.832031 339.167969 116.125 C 339.082031 116.417969 339.050781 116.730469 339.082031 117.0625 Z M 339.082031 117.0625 "/>
<path style=" stroke:none;fill-rule:nonzero;fill:rgb(0%,0%,0%);fill-opacity:1;" d="M 355.167969 119.082031 L 352.9375 119.082031 L 355.144531 115.855469 L 355.167969 115.855469 Z M 355.917969 119.082031 L 355.917969 114.707031 L 355.269531 114.707031 L 352.269531 119.019531 L 352.269531 119.792969 L 355.167969 119.792969 L 355.167969 121.332031 L 355.917969 121.332031 L 355.917969 119.792969 L 356.8125 119.792969 L 356.8125 119.082031 Z M 355.917969 119.082031 "/>
<path style=" stroke:none;fill-rule:nonzero;fill:rgb(0%,0%,0%);fill-opacity:1;" d="M 352.417969 130.394531 L 353.207031 130.394531 C 353.191406 130.1875 353.207031 129.988281 353.25 129.792969 C 353.300781 129.597656 353.378906 129.425781 353.480469 129.269531 C 353.589844 129.121094 353.730469 128.996094 353.894531 128.894531 C 354.0625 128.800781 354.261719 128.75 354.5 128.75 C 354.667969 128.75 354.824219 128.78125 354.980469 128.832031 C 355.144531 128.890625 355.28125 128.972656 355.394531 129.082031 C 355.503906 129.183594 355.59375 129.308594 355.667969 129.457031 C 355.734375 129.597656 355.769531 129.761719 355.769531 129.9375 C 355.769531 130.175781 355.734375 130.386719 355.667969 130.5625 C 355.59375 130.730469 355.488281 130.890625 355.355469 131.042969 C 355.214844 131.183594 355.03125 131.328125 354.8125 131.480469 C 354.605469 131.636719 354.359375 131.792969 354.082031 131.957031 C 353.84375 132.097656 353.625 132.246094 353.417969 132.394531 C 353.207031 132.550781 353.019531 132.730469 352.855469 132.9375 C 352.6875 133.144531 352.546875 133.390625 352.4375 133.667969 C 352.324219 133.949219 352.253906 134.28125 352.230469 134.667969 L 356.542969 134.667969 L 356.542969 133.957031 L 353.144531 133.957031 C 353.1875 133.765625 353.261719 133.59375 353.375 133.4375 C 353.5 133.269531 353.644531 133.121094 353.8125 132.980469 C 353.988281 132.84375 354.175781 132.71875 354.375 132.605469 C 354.582031 132.480469 354.792969 132.355469 355 132.230469 C 355.207031 132.09375 355.40625 131.953125 355.605469 131.8125 C 355.796875 131.675781 355.964844 131.515625 356.105469 131.332031 C 356.253906 131.15625 356.375 130.953125 356.457031 130.730469 C 356.550781 130.511719 356.605469 130.25 356.605469 129.957031 C 356.605469 129.640625 356.546875 129.363281 356.4375 129.125 C 356.339844 128.890625 356.191406 128.699219 356 128.542969 C 355.816406 128.375 355.59375 128.25 355.332031 128.167969 C 355.082031 128.082031 354.816406 128.042969 354.542969 128.042969 C 354.191406 128.042969 353.878906 128.105469 353.605469 128.230469 C 353.324219 128.34375 353.09375 128.5 352.917969 128.707031 C 352.734375 128.917969 352.59375 129.167969 352.5 129.457031 C 352.417969 129.75 352.386719 130.0625 352.417969 130.394531 Z M 352.417969 130.394531 "/>
<path style=" stroke:none;fill-rule:nonzero;fill:rgb(0%,0%,0%);fill-opacity:1;" d="M 445.75 130.394531 L 446.542969 130.394531 C 446.527344 130.1875 446.542969 129.988281 446.582031 129.792969 C 446.636719 129.597656 446.714844 129.425781 446.8125 129.269531 C 446.921875 129.121094 447.0625 128.996094 447.230469 128.894531 C 447.394531 128.800781 447.59375 128.75 447.832031 128.75 C 448 128.75 448.15625 128.78125 448.3125 128.832031 C 448.480469 128.890625 448.613281 128.972656 448.730469 129.082031 C 448.839844 129.183594 448.925781 129.308594 449 129.457031 C 449.066406 129.597656 449.105469 129.761719 449.105469 129.9375 C 449.105469 130.175781 449.066406 130.386719 449 130.5625 C 448.925781 130.730469 448.824219 130.890625 448.6875 131.042969 C 448.546875 131.183594 448.363281 131.328125 448.144531 131.480469 C 447.9375 131.636719 447.691406 131.792969 447.417969 131.957031 C 447.175781 132.097656 446.957031 132.246094 446.75 132.394531 C 446.542969 132.550781 446.355469 132.730469 446.1875 132.9375 C 446.019531 133.144531 445.878906 133.390625 445.769531 133.667969 C 445.65625 133.949219 445.589844 134.28125 445.5625 134.667969 L 449.875 134.667969 L 449.875 133.957031 L 446.480469 133.957031 C 446.519531 133.765625 446.59375 133.59375 446.707031 133.4375 C 446.832031 133.269531 446.980469 133.121094 447.144531 132.980469 C 447.324219 132.84375 447.511719 132.71875 447.707031 132.605469 C 447.917969 132.480469 448.125 132.355469 448.332031 132.230469 C 448.542969 132.09375 448.738281 131.953125 448.9375 131.8125 C 449.128906 131.675781 449.296875 131.515625 449.4375 131.332031 C 449.589844 131.15625 449.707031 130.953125 449.792969 130.730469 C 449.886719 130.511719 449.9375 130.25 449.9375 129.957031 C 449.9375 129.640625 449.878906 129.363281 449.769531 129.125 C 449.671875 128.890625 449.527344 128.699219 449.332031 128.542969 C 449.152344 128.375 448.925781 128.25 448.667969 128.167969 C 448.417969 128.082031 448.152344 128.042969 447.875 128.042969 C 447.527344 128.042969 447.214844 128.105469 446.9375 128.230469 C 446.65625 128.34375 446.425781 128.5 446.25 128.707031 C 446.066406 128.917969 445.925781 129.167969 445.832031 129.457031 C 445.75 129.75 445.71875 130.0625 445.75 130.394531 Z M 445.75 130.394531 "/>
<path style=" stroke:none;fill-rule:nonzero;fill:rgb(0%,0%,0%);fill-opacity:1;" d="M 445.75 11.730469 L 446.542969 11.730469 C 446.527344 11.519531 446.542969 11.324219 446.582031 11.125 C 446.636719 10.933594 446.714844 10.761719 446.8125 10.605469 C 446.921875 10.453125 447.0625 10.328125 447.230469 10.230469 C 447.394531 10.136719 447.59375 10.082031 447.832031 10.082031 C 448 10.082031 448.15625 10.113281 448.3125 10.167969 C 448.480469 10.222656 448.613281 10.308594 448.730469 10.417969 C 448.839844 10.515625 448.925781 10.640625 449 10.792969 C 449.066406 10.933594 449.105469 11.09375 449.105469 11.269531 C 449.105469 11.511719 449.066406 11.71875 449 11.894531 C 448.925781 12.0625 448.824219 12.222656 448.6875 12.375 C 448.546875 12.515625 448.363281 12.660156 448.144531 12.8125 C 447.9375 12.96875 447.691406 13.125 447.417969 13.292969 C 447.175781 13.433594 446.957031 13.578125 446.75 13.730469 C 446.542969 13.886719 446.355469 14.0625 446.1875 14.269531 C 446.019531 14.480469 445.878906 14.722656 445.769531 15 C 445.65625 15.28125 445.589844 15.613281 445.5625 16 L 449.875 16 L 449.875 15.292969 L 446.480469 15.292969 C 446.519531 15.097656 446.59375 14.925781 446.707031 14.769531 C 446.832031 14.605469 446.980469 14.453125 447.144531 14.3125 C 447.324219 14.175781 447.511719 14.050781 447.707031 13.9375 C 447.917969 13.8125 448.125 13.6875 448.332031 13.5625 C 448.542969 13.425781 448.738281 13.285156 448.9375 13.144531 C 449.128906 13.011719 449.296875 12.847656 449.4375 12.667969 C 449.589844 12.488281 449.707031 12.285156 449.792969 12.0625 C 449.886719 11.84375 449.9375 11.582031 449.9375 11.292969 C 449.9375 10.972656 449.878906 10.699219 449.769531 10.457031 C 449.671875 10.222656 449.527344 10.03125 449.332031 9.875 C 449.152344 9.707031 448.925781 9.582031 448.667969 9.5 C 448.417969 9.417969 448.152344 9.375 447.875 9.375 C 447.527344 9.375 447.214844 9.4375 446.9375 9.5625 C 446.65625 9.675781 446.425781 9.832031 446.25 10.042969 C 446.066406 10.25 445.925781 10.5 445.832031 10.792969 C 445.75 11.082031 445.71875 11.394531 445.75 11.730469 Z M 445.75 11.730469 "/>
<path style=" stroke:none;fill-rule:nonzero;fill:rgb(0%,0%,0%);fill-opacity:1;" d="M 459.082031 25.0625 L 459.875 25.0625 C 459.859375 24.855469 459.875 24.65625 459.917969 24.457031 C 459.96875 24.265625 460.046875 24.09375 460.144531 23.9375 C 460.253906 23.785156 460.394531 23.660156 460.5625 23.5625 C 460.730469 23.46875 460.925781 23.417969 461.167969 23.417969 C 461.332031 23.417969 461.488281 23.449219 461.644531 23.5 C 461.8125 23.558594 461.949219 23.640625 462.0625 23.75 C 462.171875 23.847656 462.261719 23.972656 462.332031 24.125 C 462.402344 24.265625 462.4375 24.425781 462.4375 24.605469 C 462.4375 24.84375 462.402344 25.050781 462.332031 25.230469 C 462.261719 25.394531 462.15625 25.558594 462.019531 25.707031 C 461.878906 25.847656 461.699219 25.996094 461.480469 26.144531 C 461.269531 26.300781 461.027344 26.457031 460.75 26.625 C 460.511719 26.765625 460.292969 26.910156 460.082031 27.0625 C 459.875 27.21875 459.6875 27.394531 459.519531 27.605469 C 459.355469 27.8125 459.214844 28.058594 459.105469 28.332031 C 458.988281 28.613281 458.921875 28.949219 458.894531 29.332031 L 463.207031 29.332031 L 463.207031 28.625 L 459.8125 28.625 C 459.855469 28.433594 459.925781 28.261719 460.042969 28.105469 C 460.167969 27.9375 460.3125 27.785156 460.480469 27.644531 C 460.65625 27.511719 460.84375 27.386719 461.042969 27.269531 C 461.25 27.144531 461.457031 27.019531 461.667969 26.894531 C 461.875 26.761719 462.074219 26.621094 462.269531 26.480469 C 462.464844 26.34375 462.628906 26.183594 462.769531 26 C 462.921875 25.824219 463.042969 25.621094 463.125 25.394531 C 463.21875 25.175781 463.269531 24.917969 463.269531 24.625 C 463.269531 24.308594 463.214844 24.03125 463.105469 23.792969 C 463.003906 23.558594 462.859375 23.363281 462.667969 23.207031 C 462.484375 23.042969 462.261719 22.917969 462 22.832031 C 461.75 22.75 461.484375 22.707031 461.207031 22.707031 C 460.859375 22.707031 460.546875 22.769531 460.269531 22.894531 C 459.988281 23.011719 459.761719 23.167969 459.582031 23.375 C 459.402344 23.582031 459.261719 23.832031 459.167969 24.125 C 459.082031 24.417969 459.050781 24.730469 459.082031 25.0625 Z M 459.082031 25.0625 "/>
<path style=" stroke:none;fill-rule:nonzero;fill:rgb(0%,0%,0%);fill-opacity:1;" d="M 459.082031 117.0625 L 459.875 117.0625 C 459.859375 116.855469 459.875 116.65625 459.917969 116.457031 C 459.96875 116.265625 460.046875 116.09375 460.144531 115.9375 C 460.253906 115.785156 460.394531 115.660156 460.5625 115.5625 C 460.730469 115.46875 460.925781 115.417969 461.167969 115.417969 C 461.332031 115.417969 461.488281 115.449219 461.644531 115.5 C 461.8125 115.558594 461.949219 115.640625 462.0625 115.75 C 462.171875 115.847656 462.261719 115.972656 462.332031 116.125 C 462.402344 116.265625 462.4375 116.425781 462.4375 116.605469 C 462.4375 116.84375 462.402344 117.050781 462.332031 117.230469 C 462.261719 117.394531 462.15625 117.558594 462.019531 117.707031 C 461.878906 117.847656 461.699219 117.996094 461.480469 118.144531 C 461.269531 118.300781 461.027344 118.457031 460.75 118.625 C 460.511719 118.765625 460.292969 118.910156 460.082031 119.0625 C 459.875 119.21875 459.6875 119.394531 459.519531 119.605469 C 459.355469 119.8125 459.214844 120.058594 459.105469 120.332031 C 458.988281 120.613281 458.921875 120.949219 458.894531 121.332031 L 463.207031 121.332031 L 463.207031 120.625 L 459.8125 120.625 C 459.855469 120.433594 459.925781 120.261719 460.042969 120.105469 C 460.167969 119.9375 460.3125 119.785156 460.480469 119.644531 C 460.65625 119.511719 460.84375 119.386719 461.042969 119.269531 C 461.25 119.144531 461.457031 119.019531 461.667969 118.894531 C 461.875 118.761719 462.074219 118.621094 462.269531 118.480469 C 462.464844 118.34375 462.628906 118.183594 462.769531 118 C 462.921875 117.824219 463.042969 117.621094 463.125 117.394531 C 463.21875 117.175781 463.269531 116.917969 463.269531 116.625 C 463.269531 116.308594 463.214844 116.03125 463.105469 115.792969 C 463.003906 115.558594 462.859375 115.363281 462.667969 115.207031 C 462.484375 115.042969 462.261719 114.917969 462 114.832031 C 461.75 114.75 461.484375 114.707031 461.207031 114.707031 C 460.859375 114.707031 460.546875 114.769531 460.269531 114.894531 C 459.988281 115.011719 459.761719 115.167969 459.582031 115.375 C 459.402344 115.582031 459.261719 115.832031 459.167969 116.125 C 459.082031 116.417969 459.050781 116.730469 459.082031 117.0625 Z M 459.082031 117.0625 "/>
<path style=" stroke:none;fill-rule:nonzero;fill:rgb(0%,0%,0%);fill-opacity:1;" d="M 448.5 119.082031 L 446.269531 119.082031 L 448.480469 115.855469 L 448.5 115.855469 Z M 449.25 119.082031 L 449.25 114.707031 L 448.605469 114.707031 L 445.605469 119.019531 L 445.605469 119.792969 L 448.5 119.792969 L 448.5 121.332031 L 449.25 121.332031 L 449.25 119.792969 L 450.144531 119.792969 L 450.144531 119.082031 Z M 449.25 119.082031 "/>
<path style=" stroke:none;fill-rule:nonzero;fill:rgb(0%,0%,0%);fill-opacity:1;" d="M 448.5 27.082031 L 446.269531 27.082031 L 448.480469 23.855469 L 448.5 23.855469 Z M 449.25 27.082031 L 449.25 22.707031 L 448.605469 22.707031 L 445.605469 27.019531 L 445.605469 27.792969 L 448.5 27.792969 L 448.5 29.332031 L 449.25 29.332031 L 449.25 27.792969 L 450.144531 27.792969 L 450.144531 27.082031 Z M 449.25 27.082031 "/>
<path style=" stroke:none;fill-rule:nonzero;fill:rgb(0%,0%,0%);fill-opacity:1;" d="M 401.257812 24.394531 L 402.070312 24.394531 C 402.015625 23.855469 401.820312 23.4375 401.488281 23.144531 C 401.164062 22.855469 400.738281 22.707031 400.195312 22.707031 C 399.722656 22.707031 399.328125 22.8125 399.007812 23.019531 C 398.703125 23.21875 398.453125 23.480469 398.257812 23.8125 C 398.078125 24.144531 397.945312 24.53125 397.863281 24.957031 C 397.789062 25.375 397.757812 25.8125 397.757812 26.269531 C 397.757812 26.621094 397.785156 26.980469 397.84375 27.355469 C 397.894531 27.71875 398 28.058594 398.15625 28.375 C 398.320312 28.683594 398.550781 28.9375 398.84375 29.144531 C 399.144531 29.339844 399.539062 29.4375 400.03125 29.4375 C 400.445312 29.4375 400.789062 29.363281 401.070312 29.230469 C 401.363281 29.09375 401.59375 28.917969 401.757812 28.707031 C 401.9375 28.488281 402.0625 28.246094 402.132812 27.980469 C 402.21875 27.71875 402.257812 27.46875 402.257812 27.230469 C 402.257812 26.925781 402.207031 26.640625 402.113281 26.375 C 402.015625 26.113281 401.875 25.886719 401.695312 25.6875 C 401.53125 25.496094 401.320312 25.347656 401.070312 25.25 C 400.820312 25.140625 400.535156 25.082031 400.21875 25.082031 C 399.851562 25.082031 399.535156 25.15625 399.257812 25.292969 C 398.976562 25.417969 398.75 25.636719 398.570312 25.9375 L 398.550781 25.917969 C 398.5625 25.667969 398.59375 25.394531 398.632812 25.105469 C 398.675781 24.8125 398.75 24.542969 398.863281 24.292969 C 398.972656 24.042969 399.132812 23.832031 399.34375 23.667969 C 399.550781 23.5 399.820312 23.417969 400.15625 23.417969 C 400.472656 23.417969 400.726562 23.511719 400.925781 23.6875 C 401.117188 23.871094 401.226562 24.105469 401.257812 24.394531 Z M 400.070312 25.769531 C 400.289062 25.769531 400.488281 25.8125 400.65625 25.894531 C 400.820312 25.980469 400.957031 26.09375 401.070312 26.230469 C 401.195312 26.355469 401.28125 26.515625 401.320312 26.707031 C 401.375 26.890625 401.40625 27.078125 401.40625 27.269531 C 401.40625 27.46875 401.375 27.65625 401.320312 27.832031 C 401.265625 28.015625 401.179688 28.175781 401.070312 28.3125 C 400.957031 28.453125 400.820312 28.5625 400.65625 28.644531 C 400.488281 28.71875 400.289062 28.75 400.070312 28.75 C 399.847656 28.75 399.65625 28.71875 399.488281 28.644531 C 399.320312 28.5625 399.175781 28.457031 399.050781 28.332031 C 398.9375 28.199219 398.847656 28.035156 398.78125 27.855469 C 398.722656 27.675781 398.695312 27.480469 398.695312 27.269531 C 398.695312 27.0625 398.722656 26.871094 398.78125 26.6875 C 398.847656 26.511719 398.9375 26.355469 399.050781 26.230469 C 399.175781 26.09375 399.320312 25.980469 399.488281 25.894531 C 399.65625 25.8125 399.847656 25.769531 400.070312 25.769531 Z M 400.070312 25.769531 "/>
<path style=" stroke:none;fill-rule:nonzero;fill:rgb(0%,0%,0%);fill-opacity:1;" d="M 355.855469 70.933594 L 356.667969 70.933594 C 356.609375 70.390625 356.417969 69.972656 356.082031 69.683594 C 355.761719 69.390625 355.332031 69.246094 354.792969 69.246094 C 354.316406 69.246094 353.921875 69.347656 353.605469 69.558594 C 353.296875 69.753906 353.046875 70.015625 352.855469 70.347656 C 352.671875 70.683594 352.542969 71.066406 352.457031 71.496094 C 352.386719 71.910156 352.355469 72.347656 352.355469 72.808594 C 352.355469 73.15625 352.378906 73.515625 352.4375 73.890625 C 352.488281 74.253906 352.59375 74.59375 352.75 74.910156 C 352.917969 75.21875 353.144531 75.472656 353.4375 75.683594 C 353.738281 75.875 354.136719 75.972656 354.625 75.972656 C 355.042969 75.972656 355.386719 75.902344 355.667969 75.765625 C 355.957031 75.628906 356.1875 75.453125 356.355469 75.246094 C 356.53125 75.027344 356.65625 74.78125 356.730469 74.515625 C 356.8125 74.253906 356.855469 74.003906 356.855469 73.765625 C 356.855469 73.464844 356.800781 73.175781 356.707031 72.910156 C 356.609375 72.652344 356.46875 72.421875 356.292969 72.222656 C 356.125 72.03125 355.917969 71.886719 355.667969 71.785156 C 355.417969 71.675781 355.128906 71.621094 354.8125 71.621094 C 354.449219 71.621094 354.128906 71.691406 353.855469 71.828125 C 353.574219 71.953125 353.34375 72.171875 353.167969 72.472656 L 353.144531 72.453125 C 353.15625 72.203125 353.1875 71.933594 353.230469 71.640625 C 353.269531 71.347656 353.34375 71.078125 353.457031 70.828125 C 353.566406 70.578125 353.730469 70.371094 353.9375 70.203125 C 354.144531 70.035156 354.417969 69.953125 354.75 69.953125 C 355.066406 69.953125 355.324219 70.046875 355.519531 70.222656 C 355.714844 70.40625 355.824219 70.640625 355.855469 70.933594 Z M 354.667969 72.308594 C 354.886719 72.308594 355.082031 72.347656 355.25 72.433594 C 355.417969 72.515625 355.550781 72.628906 355.667969 72.765625 C 355.792969 72.890625 355.875 73.050781 355.917969 73.246094 C 355.96875 73.425781 356 73.613281 356 73.808594 C 356 74.003906 355.96875 74.191406 355.917969 74.371094 C 355.859375 74.550781 355.777344 74.714844 355.667969 74.847656 C 355.550781 74.988281 355.417969 75.097656 355.25 75.183594 C 355.082031 75.253906 354.886719 75.285156 354.667969 75.285156 C 354.441406 75.285156 354.25 75.253906 354.082031 75.183594 C 353.917969 75.097656 353.769531 74.996094 353.644531 74.871094 C 353.53125 74.734375 353.441406 74.574219 353.375 74.390625 C 353.316406 74.214844 353.292969 74.015625 353.292969 73.808594 C 353.292969 73.597656 353.316406 73.40625 353.375 73.222656 C 353.441406 73.046875 353.53125 72.890625 353.644531 72.765625 C 353.769531 72.628906 353.917969 72.515625 354.082031 72.433594 C 354.25 72.347656 354.441406 72.308594 354.667969 72.308594 Z M 354.667969 72.308594 "/>
<path style=" stroke:none;fill-rule:nonzero;fill:rgb(0%,0%,0%);fill-opacity:1;" d="M 449.1875 70.933594 L 450 70.933594 C 449.941406 70.390625 449.75 69.972656 449.417969 69.683594 C 449.09375 69.390625 448.667969 69.246094 448.125 69.246094 C 447.652344 69.246094 447.253906 69.347656 446.9375 69.558594 C 446.628906 69.753906 446.378906 70.015625 446.1875 70.347656 C 446.003906 70.683594 445.875 71.066406 445.792969 71.496094 C 445.71875 71.910156 445.6875 72.347656 445.6875 72.808594 C 445.6875 73.15625 445.714844 73.515625 445.769531 73.890625 C 445.824219 74.253906 445.925781 74.59375 446.082031 74.910156 C 446.25 75.21875 446.480469 75.472656 446.769531 75.683594 C 447.074219 75.875 447.46875 75.972656 447.957031 75.972656 C 448.375 75.972656 448.71875 75.902344 449 75.765625 C 449.292969 75.628906 449.519531 75.453125 449.6875 75.246094 C 449.863281 75.027344 449.988281 74.78125 450.0625 74.515625 C 450.144531 74.253906 450.1875 74.003906 450.1875 73.765625 C 450.1875 73.464844 450.136719 73.175781 450.042969 72.910156 C 449.941406 72.652344 449.800781 72.421875 449.625 72.222656 C 449.457031 72.03125 449.25 71.886719 449 71.785156 C 448.75 71.675781 448.464844 71.621094 448.144531 71.621094 C 447.78125 71.621094 447.464844 71.691406 447.1875 71.828125 C 446.90625 71.953125 446.675781 72.171875 446.5 72.472656 L 446.480469 72.453125 C 446.488281 72.203125 446.519531 71.933594 446.5625 71.640625 C 446.605469 71.347656 446.675781 71.078125 446.792969 70.828125 C 446.902344 70.578125 447.0625 70.371094 447.269531 70.203125 C 447.480469 70.035156 447.75 69.953125 448.082031 69.953125 C 448.402344 69.953125 448.65625 70.046875 448.855469 70.222656 C 449.046875 70.40625 449.15625 70.640625 449.1875 70.933594 Z M 448 72.308594 C 448.21875 72.308594 448.417969 72.347656 448.582031 72.433594 C 448.75 72.515625 448.886719 72.628906 449 72.765625 C 449.125 72.890625 449.207031 73.050781 449.25 73.246094 C 449.300781 73.425781 449.332031 73.613281 449.332031 73.808594 C 449.332031 74.003906 449.300781 74.191406 449.25 74.371094 C 449.191406 74.550781 449.109375 74.714844 449 74.847656 C 448.886719 74.988281 448.75 75.097656 448.582031 75.183594 C 448.417969 75.253906 448.21875 75.285156 448 75.285156 C 447.777344 75.285156 447.582031 75.253906 447.417969 75.183594 C 447.25 75.097656 447.105469 74.996094 446.980469 74.871094 C 446.863281 74.734375 446.777344 74.574219 446.707031 74.390625 C 446.652344 74.214844 446.625 74.015625 446.625 73.808594 C 446.625 73.597656 446.652344 73.40625 446.707031 73.222656 C 446.777344 73.046875 446.863281 72.890625 446.980469 72.765625 C 447.105469 72.628906 447.25 72.515625 447.417969 72.433594 C 447.582031 72.347656 447.777344 72.308594 448 72.308594 Z M 448 72.308594 "/>
<path style=" stroke:none;fill-rule:nonzero;fill:rgb(0%,0%,0%);fill-opacity:1;" d="M 401.257812 116.394531 L 402.070312 116.394531 C 402.015625 115.855469 401.820312 115.4375 401.488281 115.144531 C 401.164062 114.855469 400.738281 114.707031 400.195312 114.707031 C 399.722656 114.707031 399.328125 114.8125 399.007812 115.019531 C 398.703125 115.21875 398.453125 115.480469 398.257812 115.8125 C 398.078125 116.144531 397.945312 116.53125 397.863281 116.957031 C 397.789062 117.375 397.757812 117.8125 397.757812 118.269531 C 397.757812 118.621094 397.785156 118.980469 397.84375 119.355469 C 397.894531 119.71875 398 120.058594 398.15625 120.375 C 398.320312 120.683594 398.550781 120.9375 398.84375 121.144531 C 399.144531 121.339844 399.539062 121.4375 400.03125 121.4375 C 400.445312 121.4375 400.789062 121.363281 401.070312 121.230469 C 401.363281 121.09375 401.59375 120.917969 401.757812 120.707031 C 401.9375 120.488281 402.0625 120.246094 402.132812 119.980469 C 402.21875 119.71875 402.257812 119.46875 402.257812 119.230469 C 402.257812 118.925781 402.207031 118.640625 402.113281 118.375 C 402.015625 118.113281 401.875 117.886719 401.695312 117.6875 C 401.53125 117.496094 401.320312 117.347656 401.070312 117.25 C 400.820312 117.140625 400.535156 117.082031 400.21875 117.082031 C 399.851562 117.082031 399.535156 117.15625 399.257812 117.292969 C 398.976562 117.417969 398.75 117.636719 398.570312 117.9375 L 398.550781 117.917969 C 398.5625 117.667969 398.59375 117.394531 398.632812 117.105469 C 398.675781 116.8125 398.75 116.542969 398.863281 116.292969 C 398.972656 116.042969 399.132812 115.832031 399.34375 115.667969 C 399.550781 115.5 399.820312 115.417969 400.15625 115.417969 C 400.472656 115.417969 400.726562 115.511719 400.925781 115.6875 C 401.117188 115.871094 401.226562 116.105469 401.257812 116.394531 Z M 400.070312 117.769531 C 400.289062 117.769531 400.488281 117.8125 400.65625 117.894531 C 400.820312 117.980469 400.957031 118.09375 401.070312 118.230469 C 401.195312 118.355469 401.28125 118.515625 401.320312 118.707031 C 401.375 118.890625 401.40625 119.078125 401.40625 119.269531 C 401.40625 119.46875 401.375 119.65625 401.320312 119.832031 C 401.265625 120.015625 401.179688 120.175781 401.070312 120.3125 C 400.957031 120.453125 400.820312 120.5625 400.65625 120.644531 C 400.488281 120.71875 400.289062 120.75 400.070312 120.75 C 399.847656 120.75 399.65625 120.71875 399.488281 120.644531 C 399.320312 120.5625 399.175781 120.457031 399.050781 120.332031 C 398.9375 120.199219 398.847656 120.035156 398.78125 119.855469 C 398.722656 119.675781 398.695312 119.480469 398.695312 119.269531 C 398.695312 119.0625 398.722656 118.871094 398.78125 118.6875 C 398.847656 118.511719 398.9375 118.355469 399.050781 118.230469 C 399.175781 118.09375 399.320312 117.980469 399.488281 117.894531 C 399.65625 117.8125 399.847656 117.769531 400.070312 117.769531 Z M 400.070312 117.769531 "/>
<path style=" stroke:none;fill-rule:nonzero;fill:rgb(12.941177%,30.980393%,51.764709%);fill-opacity:0.25098;" d="M 1.332031 138.667969 L 134.667969 138.667969 L 134.667969 5.332031 L 1.332031 5.332031 Z M 1.332031 138.667969 "/>
<path style="fill:none;stroke-width:1;stroke-linecap:round;stroke-linejoin:round;stroke:rgb(0%,0%,0%);stroke-opacity:1;stroke-miterlimit:10;" d="M -100.000977 144.999023 L 0.000976562 144.999023 L 0.000976562 245.000977 L -100.000977 245.000977 Z M -100.000977 144.999023 " transform="matrix(1.333333,0,0,1.333333,134.666667,-188)"/>
<path style=" stroke:none;fill-rule:nonzero;fill:rgb(0%,0%,0%);fill-opacity:1;" d="M 68.644531 75.871094 L 68.644531 69.246094 L 68.042969 69.246094 C 68 69.496094 67.917969 69.703125 67.792969 69.871094 C 67.675781 70.035156 67.542969 70.171875 67.375 70.265625 C 67.207031 70.347656 67.011719 70.410156 66.792969 70.453125 C 66.582031 70.484375 66.363281 70.496094 66.144531 70.496094 L 66.144531 71.121094 L 67.855469 71.121094 L 67.855469 75.871094 Z M 68.644531 75.871094 "/>
</g>
</svg>
