<?xml version="1.0" encoding="UTF-8"?>
<svg xmlns="http://www.w3.org/2000/svg" xmlns:xlink="http://www.w3.org/1999/xlink" width="360" height="134.666667" viewBox="0 0 360 134.666667" version="1.1">
<g id="surface1">
<path style="fill-rule:nonzero;fill:rgb(40.000001%,74.901962%,100%);fill-opacity:1;stroke-width:1;stroke-linecap:round;stroke-linejoin:round;stroke:rgb(0%,0%,0%);stroke-opacity:1;stroke-miterlimit:10;" d="M 62.999023 107.999023 L 80.999023 107.999023 L 80.999023 125.999023 L 62.999023 125.999023 Z M 62.999023 107.999023 " transform="matrix(1.333333,0,0,1.333333,-10.666667,-58.666667)"/>
<path style="fill-rule:nonzero;fill:rgb(100%,100%,100%);fill-opacity:1;stroke-width:1;stroke-linecap:round;stroke-linejoin:round;stroke:rgb(0%,0%,0%);stroke-opacity:1;stroke-miterlimit:10;" d="M 62.999023 71.999023 L 80.999023 71.999023 L 80.999023 89.999023 L 62.999023 89.999023 Z M 62.999023 71.999023 " transform="matrix(1.333333,0,0,1.333333,-10.666667,-58.666667)"/>
<path style="fill-rule:nonzero;fill:rgb(100%,100%,100%);fill-opacity:1;stroke-width:1;stroke-linecap:round;stroke-linejoin:round;stroke:rgb(0%,0%,0%);stroke-opacity:1;stroke-miterlimit:10;" d="M 62.999023 89.999023 L 80.999023 89.999023 L 80.999023 107.999023 L 62.999023 107.999023 Z M 62.999023 89.999023 " transform="matrix(1.333333,0,0,1.333333,-10.666667,-58.666667)"/>
<path style="fill-rule:nonzero;fill:rgb(100%,100%,100%);fill-opacity:1;stroke-width:1;stroke-linecap:round;stroke-linejoin:round;stroke:rgb(0%,0%,0%);stroke-opacity:1;stroke-miterlimit:10;" d="M 26.999023 107.999023 L 44.999023 107.999023 L 44.999023 125.999023 L 26.999023 125.999023 Z M 26.999023 107.999023 " transform="matrix(1.333333,0,0,1.333333,-10.666667,-58.666667)"/>
<path style="fill-rule:nonzero;fill:rgb(100%,100%,100%);fill-opacity:1;stroke-width:1;stroke-linecap:round;stroke-linejoin:round;stroke:rgb(0%,0%,0%);stroke-opacity:1;stroke-miterlimit:10;" d="M 44.999023 107.999023 L 62.999023 107.999023 L 62.999023 125.999023 L 44.999023 125.999023 Z M 44.999023 107.999023 " transform="matrix(1.333333,0,0,1.333333,-10.666667,-58.666667)"/>
<path style="fill-rule:nonzero;fill:rgb(69.803923%,85.09804%,100%);fill-opacity:1;stroke-width:1;stroke-linecap:round;stroke-linejoin:round;stroke:rgb(0%,0%,0%);stroke-opacity:1;stroke-miterlimit:10;" d="M 26.999023 71.999023 L 44.999023 71.999023 L 44.999023 89.999023 L 26.999023 89.999023 Z M 26.999023 71.999023 " transform="matrix(1.333333,0,0,1.333333,-10.666667,-58.666667)"/>
<path style="fill-rule:nonzero;fill:rgb(100%,100%,100%);fill-opacity:1;stroke-width:1;stroke-linecap:round;stroke-linejoin:round;stroke:rgb(0%,0%,0%);stroke-opacity:1;stroke-miterlimit:10;" d="M 26.999023 89.999023 L 44.999023 89.999023 L 44.999023 107.999023 L 26.999023 107.999023 Z M 26.999023 89.999023 " transform="matrix(1.333333,0,0,1.333333,-10.666667,-58.666667)"/>
<path style="fill-rule:nonzero;fill:rgb(100%,100%,100%);fill-opacity:1;stroke-width:1;stroke-linecap:round;stroke-linejoin:round;stroke:rgb(0%,0%,0%);stroke-opacity:1;stroke-miterlimit:10;" d="M 44.999023 71.999023 L 62.999023 71.999023 L 62.999023 89.999023 L 44.999023 89.999023 Z M 44.999023 71.999023 " transform="matrix(1.333333,0,0,1.333333,-10.666667,-58.666667)"/>
<path style="fill-rule:nonzero;fill:rgb(100%,100%,100%);fill-opacity:1;stroke-width:1;stroke-linecap:round;stroke-linejoin:round;stroke:rgb(0%,0%,0%);stroke-opacity:1;stroke-miterlimit:10;" d="M 44.999023 89.999023 L 62.999023 89.999023 L 62.999023 107.999023 L 44.999023 107.999023 Z M 44.999023 89.999023 " transform="matrix(1.333333,0,0,1.333333,-10.666667,-58.666667)"/>
<path style="fill-rule:nonzero;fill:rgb(40.000001%,74.901962%,100%);fill-opacity:1;stroke-width:1;stroke-linecap:round;stroke-linejoin:round;stroke:rgb(0%,0%,0%);stroke-opacity:1;stroke-miterlimit:10;" d="M 53.999023 116.999023 L 71.999023 116.999023 L 71.999023 134.999023 L 53.999023 134.999023 Z M 53.999023 116.999023 " transform="matrix(1.333333,0,0,1.333333,-10.666667,-58.666667)"/>
<path style="fill-rule:nonzero;fill:rgb(100%,100%,100%);fill-opacity:1;stroke-width:1;stroke-linecap:round;stroke-linejoin:round;stroke:rgb(0%,0%,0%);stroke-opacity:1;stroke-miterlimit:10;" d="M 53.999023 80.999023 L 71.999023 80.999023 L 71.999023 98.999023 L 53.999023 98.999023 Z M 53.999023 80.999023 " transform="matrix(1.333333,0,0,1.333333,-10.666667,-58.666667)"/>
<path style="fill-rule:nonzero;fill:rgb(100%,100%,100%);fill-opacity:1;stroke-width:1;stroke-linecap:round;stroke-linejoin:round;stroke:rgb(0%,0%,0%);stroke-opacity:1;stroke-miterlimit:10;" d="M 53.999023 98.999023 L 71.999023 98.999023 L 71.999023 116.999023 L 53.999023 116.999023 Z M 53.999023 98.999023 " transform="matrix(1.333333,0,0,1.333333,-10.666667,-58.666667)"/>
<path style="fill-rule:nonzero;fill:rgb(100%,100%,100%);fill-opacity:1;stroke-width:1;stroke-linecap:round;stroke-linejoin:round;stroke:rgb(0%,0%,0%);stroke-opacity:1;stroke-miterlimit:10;" d="M 17.999023 116.999023 L 35.999023 116.999023 L 35.999023 134.999023 L 17.999023 134.999023 Z M 17.999023 116.999023 " transform="matrix(1.333333,0,0,1.333333,-10.666667,-58.666667)"/>
<path style="fill-rule:nonzero;fill:rgb(100%,100%,100%);fill-opacity:1;stroke-width:1;stroke-linecap:round;stroke-linejoin:round;stroke:rgb(0%,0%,0%);stroke-opacity:1;stroke-miterlimit:10;" d="M 35.999023 116.999023 L 53.999023 116.999023 L 53.999023 134.999023 L 35.999023 134.999023 Z M 35.999023 116.999023 " transform="matrix(1.333333,0,0,1.333333,-10.666667,-58.666667)"/>
<path style="fill-rule:nonzero;fill:rgb(69.803923%,85.09804%,100%);fill-opacity:1;stroke-width:1;stroke-linecap:round;stroke-linejoin:round;stroke:rgb(0%,0%,0%);stroke-opacity:1;stroke-miterlimit:10;" d="M 17.999023 80.999023 L 35.999023 80.999023 L 35.999023 98.999023 L 17.999023 98.999023 Z M 17.999023 80.999023 " transform="matrix(1.333333,0,0,1.333333,-10.666667,-58.666667)"/>
<path style="fill-rule:nonzero;fill:rgb(100%,100%,100%);fill-opacity:1;stroke-width:1;stroke-linecap:round;stroke-linejoin:round;stroke:rgb(0%,0%,0%);stroke-opacity:1;stroke-miterlimit:10;" d="M 17.999023 98.999023 L 35.999023 98.999023 L 35.999023 116.999023 L 17.999023 116.999023 Z M 17.999023 98.999023 " transform="matrix(1.333333,0,0,1.333333,-10.666667,-58.666667)"/>
<path style="fill-rule:nonzero;fill:rgb(100%,100%,100%);fill-opacity:1;stroke-width:1;stroke-linecap:round;stroke-linejoin:round;stroke:rgb(0%,0%,0%);stroke-opacity:1;stroke-miterlimit:10;" d="M 35.999023 80.999023 L 53.999023 80.999023 L 53.999023 98.999023 L 35.999023 98.999023 Z M 35.999023 80.999023 " transform="matrix(1.333333,0,0,1.333333,-10.666667,-58.666667)"/>
<path style="fill-rule:nonzero;fill:rgb(100%,100%,100%);fill-opacity:1;stroke-width:1;stroke-linecap:round;stroke-linejoin:round;stroke:rgb(0%,0%,0%);stroke-opacity:1;stroke-miterlimit:10;" d="M 35.999023 98.999023 L 53.999023 98.999023 L 53.999023 116.999023 L 35.999023 116.999023 Z M 35.999023 98.999023 " transform="matrix(1.333333,0,0,1.333333,-10.666667,-58.666667)"/>
<path style=" stroke:none;fill-rule:nonzero;fill:rgb(0%,0%,0%);fill-opacity:1;" d="M 299.339844 13.144531 C 299.339844 11.730469 299.71875 10.621094 300.484375 9.8125 C 301.246094 8.996094 302.234375 8.582031 303.445312 8.582031 C 304.234375 8.582031 304.949219 8.78125 305.589844 9.167969 C 306.226562 9.542969 306.714844 10.074219 307.046875 10.75 C 307.382812 11.433594 307.546875 12.199219 307.546875 13.042969 C 307.546875 13.917969 307.371094 14.703125 307.027344 15.394531 C 306.679688 16.078125 306.179688 16.597656 305.527344 16.957031 C 304.886719 17.308594 304.195312 17.480469 303.445312 17.480469 C 302.636719 17.480469 301.914062 17.285156 301.277344 16.894531 C 300.636719 16.511719 300.152344 15.972656 299.820312 15.292969 C 299.496094 14.613281 299.339844 13.894531 299.339844 13.144531 Z M 300.507812 13.167969 C 300.507812 14.207031 300.78125 15.03125 301.339844 15.625 C 301.890625 16.207031 302.59375 16.5 303.445312 16.5 C 304.289062 16.5 304.992188 16.203125 305.546875 15.605469 C 306.101562 15.011719 306.382812 14.15625 306.382812 13.042969 C 306.382812 12.347656 306.261719 11.746094 306.027344 11.230469 C 305.789062 10.703125 305.445312 10.292969 304.984375 10 C 304.527344 9.707031 304.015625 9.5625 303.464844 9.5625 C 302.65625 9.5625 301.964844 9.84375 301.382812 10.394531 C 300.796875 10.953125 300.507812 11.875 300.507812 13.167969 Z M 300.507812 13.167969 "/>
<path style=" stroke:none;fill-rule:nonzero;fill:rgb(0%,0%,0%);fill-opacity:1;" d="M 312.964844 17.332031 L 312.964844 16.417969 C 312.476562 17.125 311.820312 17.480469 310.984375 17.480469 C 310.621094 17.480469 310.28125 17.40625 309.964844 17.269531 C 309.640625 17.121094 309.402344 16.9375 309.234375 16.730469 C 309.078125 16.519531 308.976562 16.265625 308.921875 15.957031 C 308.882812 15.75 308.859375 15.417969 308.859375 14.957031 L 308.859375 11.105469 L 309.902344 11.105469 L 309.902344 14.5625 C 309.902344 15.121094 309.929688 15.488281 309.984375 15.667969 C 310.039062 15.949219 310.171875 16.167969 310.382812 16.332031 C 310.601562 16.488281 310.871094 16.5625 311.195312 16.5625 C 311.511719 16.5625 311.808594 16.488281 312.089844 16.332031 C 312.367188 16.167969 312.558594 15.949219 312.671875 15.667969 C 312.78125 15.390625 312.839844 14.980469 312.839844 14.4375 L 312.839844 11.105469 L 313.902344 11.105469 L 313.902344 17.332031 Z M 312.964844 17.332031 "/>
<path style=" stroke:none;fill-rule:nonzero;fill:rgb(0%,0%,0%);fill-opacity:1;" d="M 317.863281 16.394531 L 318.007812 17.3125 C 317.703125 17.378906 317.4375 17.417969 317.21875 17.417969 C 316.828125 17.417969 316.53125 17.355469 316.320312 17.230469 C 316.113281 17.105469 315.957031 16.949219 315.863281 16.75 C 315.78125 16.558594 315.738281 16.144531 315.738281 15.519531 L 315.738281 11.9375 L 314.96875 11.9375 L 314.96875 11.105469 L 315.738281 11.105469 L 315.738281 9.5625 L 316.800781 8.9375 L 316.800781 11.105469 L 317.863281 11.105469 L 317.863281 11.9375 L 316.800781 11.9375 L 316.800781 15.5625 C 316.800781 15.871094 316.8125 16.0625 316.84375 16.144531 C 316.882812 16.230469 316.945312 16.300781 317.03125 16.355469 C 317.113281 16.410156 317.226562 16.4375 317.382812 16.4375 C 317.507812 16.4375 317.664062 16.425781 317.863281 16.394531 Z M 317.863281 16.394531 "/>
<path style=" stroke:none;fill-rule:nonzero;fill:rgb(0%,0%,0%);fill-opacity:1;" d="M 318.882812 19.707031 L 318.882812 11.105469 L 319.84375 11.105469 L 319.84375 11.917969 C 320.0625 11.597656 320.3125 11.363281 320.59375 11.207031 C 320.882812 11.058594 321.238281 10.980469 321.65625 10.980469 C 322.179688 10.980469 322.644531 11.121094 323.050781 11.394531 C 323.453125 11.660156 323.757812 12.042969 323.96875 12.542969 C 324.175781 13.042969 324.28125 13.582031 324.28125 14.167969 C 324.28125 14.808594 324.160156 15.386719 323.925781 15.894531 C 323.703125 16.410156 323.375 16.808594 322.945312 17.082031 C 322.515625 17.34375 322.054688 17.480469 321.570312 17.480469 C 321.222656 17.480469 320.910156 17.402344 320.632812 17.25 C 320.351562 17.097656 320.125 16.910156 319.945312 16.6875 L 319.945312 19.707031 Z M 319.84375 14.25 C 319.84375 15.058594 320 15.65625 320.320312 16.042969 C 320.65625 16.417969 321.050781 16.605469 321.507812 16.605469 C 321.96875 16.605469 322.363281 16.410156 322.695312 16.019531 C 323.039062 15.621094 323.21875 15 323.21875 14.167969 C 323.21875 13.375 323.050781 12.785156 322.71875 12.394531 C 322.394531 11.996094 322.007812 11.792969 321.550781 11.792969 C 321.101562 11.792969 320.707031 12.011719 320.363281 12.4375 C 320.015625 12.855469 319.84375 13.457031 319.84375 14.25 Z M 319.84375 14.25 "/>
<path style=" stroke:none;fill-rule:nonzero;fill:rgb(0%,0%,0%);fill-opacity:1;" d="M 329.636719 17.332031 L 329.636719 16.417969 C 329.148438 17.125 328.492188 17.480469 327.660156 17.480469 C 327.292969 17.480469 326.957031 17.40625 326.636719 17.269531 C 326.316406 17.121094 326.074219 16.9375 325.910156 16.730469 C 325.753906 16.519531 325.648438 16.265625 325.597656 15.957031 C 325.554688 15.75 325.535156 15.417969 325.535156 14.957031 L 325.535156 11.105469 L 326.574219 11.105469 L 326.574219 14.5625 C 326.574219 15.121094 326.601562 15.488281 326.660156 15.667969 C 326.710938 15.949219 326.847656 16.167969 327.054688 16.332031 C 327.273438 16.488281 327.542969 16.5625 327.867188 16.5625 C 328.183594 16.5625 328.480469 16.488281 328.761719 16.332031 C 329.039062 16.167969 329.230469 15.949219 329.347656 15.667969 C 329.457031 15.390625 329.511719 14.980469 329.511719 14.4375 L 329.511719 11.105469 L 330.574219 11.105469 L 330.574219 17.332031 Z M 329.636719 17.332031 "/>
<path style=" stroke:none;fill-rule:nonzero;fill:rgb(0%,0%,0%);fill-opacity:1;" d="M 334.535156 16.394531 L 334.683594 17.3125 C 334.375 17.378906 334.109375 17.417969 333.890625 17.417969 C 333.5 17.417969 333.203125 17.355469 332.996094 17.230469 C 332.785156 17.105469 332.628906 16.949219 332.535156 16.75 C 332.453125 16.558594 332.410156 16.144531 332.410156 15.519531 L 332.410156 11.9375 L 331.640625 11.9375 L 331.640625 11.105469 L 332.410156 11.105469 L 332.410156 9.5625 L 333.472656 8.9375 L 333.472656 11.105469 L 334.535156 11.105469 L 334.535156 11.9375 L 333.472656 11.9375 L 333.472656 15.5625 C 333.472656 15.871094 333.484375 16.0625 333.515625 16.144531 C 333.558594 16.230469 333.621094 16.300781 333.703125 16.355469 C 333.785156 16.410156 333.902344 16.4375 334.058594 16.4375 C 334.183594 16.4375 334.339844 16.425781 334.535156 16.394531 Z M 334.535156 16.394531 "/>
<path style=" stroke:none;fill-rule:nonzero;fill:rgb(0%,0%,0%);fill-opacity:1;" d="M 161.492188 17.332031 L 161.492188 8.75 L 162.636719 8.75 L 162.636719 13 L 166.90625 8.75 L 168.429688 8.75 L 164.84375 12.230469 L 168.59375 17.332031 L 167.09375 17.332031 L 164.03125 12.980469 L 162.636719 14.355469 L 162.636719 17.332031 Z M 161.492188 17.332031 "/>
<path style=" stroke:none;fill-rule:nonzero;fill:rgb(0%,0%,0%);fill-opacity:1;" d="M 173.660156 15.332031 L 174.765625 15.457031 C 174.582031 16.097656 174.253906 16.597656 173.785156 16.957031 C 173.328125 17.308594 172.734375 17.480469 172.015625 17.480469 C 171.109375 17.480469 170.390625 17.203125 169.847656 16.644531 C 169.316406 16.078125 169.058594 15.285156 169.058594 14.269531 C 169.058594 13.230469 169.328125 12.425781 169.871094 11.855469 C 170.410156 11.269531 171.109375 10.980469 171.972656 10.980469 C 172.808594 10.980469 173.480469 11.265625 173.996094 11.832031 C 174.519531 12.390625 174.785156 13.183594 174.785156 14.207031 C 174.785156 14.28125 174.785156 14.375 174.785156 14.5 L 170.140625 14.5 C 170.183594 15.183594 170.375 15.703125 170.722656 16.0625 C 171.066406 16.425781 171.503906 16.605469 172.035156 16.605469 C 172.421875 16.605469 172.75 16.511719 173.015625 16.3125 C 173.292969 16.105469 173.503906 15.78125 173.660156 15.332031 Z M 170.203125 13.625 L 173.683594 13.625 C 173.640625 13.097656 173.503906 12.703125 173.285156 12.4375 C 172.953125 12.035156 172.515625 11.832031 171.972656 11.832031 C 171.484375 11.832031 171.078125 12 170.746094 12.332031 C 170.421875 12.65625 170.246094 13.082031 170.203125 13.625 Z M 170.203125 13.625 "/>
<path style=" stroke:none;fill-rule:nonzero;fill:rgb(0%,0%,0%);fill-opacity:1;" d="M 176.066406 17.332031 L 176.066406 11.105469 L 177.023438 11.105469 L 177.023438 12.0625 C 177.257812 11.621094 177.480469 11.328125 177.691406 11.1875 C 177.898438 11.050781 178.128906 10.980469 178.378906 10.980469 C 178.722656 10.980469 179.085938 11.09375 179.460938 11.3125 L 179.085938 12.292969 C 178.835938 12.140625 178.574219 12.0625 178.316406 12.0625 C 178.089844 12.0625 177.882812 12.136719 177.691406 12.269531 C 177.507812 12.410156 177.378906 12.605469 177.292969 12.855469 C 177.179688 13.230469 177.128906 13.640625 177.128906 14.082031 L 177.128906 17.332031 Z M 176.066406 17.332031 "/>
<path style=" stroke:none;fill-rule:nonzero;fill:rgb(0%,0%,0%);fill-opacity:1;" d="M 180.082031 17.332031 L 180.082031 11.105469 L 181.039062 11.105469 L 181.039062 12 C 181.484375 11.324219 182.144531 10.980469 183.019531 10.980469 C 183.394531 10.980469 183.734375 11.050781 184.039062 11.1875 C 184.359375 11.3125 184.59375 11.488281 184.75 11.707031 C 184.898438 11.917969 185.007812 12.175781 185.082031 12.480469 C 185.125 12.675781 185.144531 13.015625 185.144531 13.5 L 185.144531 17.332031 L 184.082031 17.332031 L 184.082031 13.542969 C 184.082031 13.113281 184.039062 12.792969 183.957031 12.582031 C 183.875 12.375 183.726562 12.207031 183.519531 12.082031 C 183.3125 11.949219 183.066406 11.875 182.789062 11.875 C 182.34375 11.875 181.957031 12.019531 181.625 12.3125 C 181.300781 12.59375 181.144531 13.136719 181.144531 13.9375 L 181.144531 17.332031 Z M 180.082031 17.332031 "/>
<path style=" stroke:none;fill-rule:nonzero;fill:rgb(0%,0%,0%);fill-opacity:1;" d="M 191.007812 15.332031 L 192.109375 15.457031 C 191.929688 16.097656 191.601562 16.597656 191.132812 16.957031 C 190.671875 17.308594 190.078125 17.480469 189.359375 17.480469 C 188.453125 17.480469 187.734375 17.203125 187.195312 16.644531 C 186.664062 16.078125 186.402344 15.285156 186.402344 14.269531 C 186.402344 13.230469 186.671875 12.425781 187.214844 11.855469 C 187.757812 11.269531 188.453125 10.980469 189.320312 10.980469 C 190.152344 10.980469 190.824219 11.265625 191.339844 11.832031 C 191.867188 12.390625 192.132812 13.183594 192.132812 14.207031 C 192.132812 14.28125 192.132812 14.375 192.132812 14.5 L 187.484375 14.5 C 187.527344 15.183594 187.71875 15.703125 188.070312 16.0625 C 188.414062 16.425781 188.851562 16.605469 189.382812 16.605469 C 189.765625 16.605469 190.09375 16.511719 190.359375 16.3125 C 190.636719 16.105469 190.851562 15.78125 191.007812 15.332031 Z M 187.546875 13.625 L 191.027344 13.625 C 190.984375 13.097656 190.851562 12.703125 190.632812 12.4375 C 190.296875 12.035156 189.859375 11.832031 189.320312 11.832031 C 188.828125 11.832031 188.421875 12 188.089844 12.332031 C 187.765625 12.65625 187.589844 13.082031 187.546875 13.625 Z M 187.546875 13.625 "/>
<path style=" stroke:none;fill-rule:nonzero;fill:rgb(0%,0%,0%);fill-opacity:1;" d="M 193.410156 17.332031 L 193.410156 8.75 L 194.453125 8.75 L 194.453125 17.332031 Z M 193.410156 17.332031 "/>
<path style=" stroke:none;fill-rule:nonzero;fill:rgb(0%,0%,0%);fill-opacity:1;" d="M 42.445312 17.332031 L 42.445312 8.75 L 43.570312 8.75 L 43.570312 17.332031 Z M 42.445312 17.332031 "/>
<path style=" stroke:none;fill-rule:nonzero;fill:rgb(0%,0%,0%);fill-opacity:1;" d="M 45.445312 17.332031 L 45.445312 11.105469 L 46.40625 11.105469 L 46.40625 12 C 46.847656 11.324219 47.507812 10.980469 48.382812 10.980469 C 48.757812 10.980469 49.097656 11.050781 49.40625 11.1875 C 49.722656 11.3125 49.957031 11.488281 50.113281 11.707031 C 50.265625 11.917969 50.375 12.175781 50.445312 12.480469 C 50.488281 12.675781 50.507812 13.015625 50.507812 13.5 L 50.507812 17.332031 L 49.445312 17.332031 L 49.445312 13.542969 C 49.445312 13.113281 49.40625 12.792969 49.320312 12.582031 C 49.238281 12.375 49.09375 12.207031 48.882812 12.082031 C 48.675781 11.949219 48.429688 11.875 48.15625 11.875 C 47.707031 11.875 47.320312 12.019531 46.988281 12.3125 C 46.664062 12.59375 46.507812 13.136719 46.507812 13.9375 L 46.507812 17.332031 Z M 45.445312 17.332031 "/>
<path style=" stroke:none;fill-rule:nonzero;fill:rgb(0%,0%,0%);fill-opacity:1;" d="M 52.117188 19.707031 L 52.117188 11.105469 L 53.074219 11.105469 L 53.074219 11.917969 C 53.292969 11.597656 53.542969 11.363281 53.824219 11.207031 C 54.117188 11.058594 54.472656 10.980469 54.886719 10.980469 C 55.414062 10.980469 55.878906 11.121094 56.285156 11.394531 C 56.683594 11.660156 56.992188 12.042969 57.199219 12.542969 C 57.410156 13.042969 57.511719 13.582031 57.511719 14.167969 C 57.511719 14.808594 57.394531 15.386719 57.160156 15.894531 C 56.933594 16.410156 56.605469 16.808594 56.179688 17.082031 C 55.746094 17.34375 55.289062 17.480469 54.804688 17.480469 C 54.457031 17.480469 54.144531 17.402344 53.867188 17.25 C 53.585938 17.097656 53.355469 16.910156 53.179688 16.6875 L 53.179688 19.707031 Z M 53.074219 14.25 C 53.074219 15.058594 53.230469 15.65625 53.554688 16.042969 C 53.886719 16.417969 54.285156 16.605469 54.742188 16.605469 C 55.199219 16.605469 55.597656 16.410156 55.929688 16.019531 C 56.273438 15.621094 56.449219 15 56.449219 14.167969 C 56.449219 13.375 56.285156 12.785156 55.949219 12.394531 C 55.628906 11.996094 55.242188 11.792969 54.785156 11.792969 C 54.335938 11.792969 53.941406 12.011719 53.597656 12.4375 C 53.246094 12.855469 53.074219 13.457031 53.074219 14.25 Z M 53.074219 14.25 "/>
<path style=" stroke:none;fill-rule:nonzero;fill:rgb(0%,0%,0%);fill-opacity:1;" d="M 62.871094 17.332031 L 62.871094 16.417969 C 62.378906 17.125 61.722656 17.480469 60.890625 17.480469 C 60.527344 17.480469 60.1875 17.40625 59.871094 17.269531 C 59.546875 17.121094 59.308594 16.9375 59.140625 16.730469 C 58.984375 16.519531 58.878906 16.265625 58.828125 15.957031 C 58.785156 15.75 58.765625 15.417969 58.765625 14.957031 L 58.765625 11.105469 L 59.808594 11.105469 L 59.808594 14.5625 C 59.808594 15.121094 59.832031 15.488281 59.890625 15.667969 C 59.941406 15.949219 60.078125 16.167969 60.285156 16.332031 C 60.503906 16.488281 60.777344 16.5625 61.097656 16.5625 C 61.417969 16.5625 61.714844 16.488281 61.996094 16.332031 C 62.269531 16.167969 62.464844 15.949219 62.578125 15.667969 C 62.6875 15.390625 62.746094 14.980469 62.746094 14.4375 L 62.746094 11.105469 L 63.808594 11.105469 L 63.808594 17.332031 Z M 62.871094 17.332031 "/>
<path style=" stroke:none;fill-rule:nonzero;fill:rgb(0%,0%,0%);fill-opacity:1;" d="M 67.769531 16.394531 L 67.914062 17.3125 C 67.605469 17.378906 67.339844 17.417969 67.121094 17.417969 C 66.730469 17.417969 66.433594 17.355469 66.226562 17.230469 C 66.019531 17.105469 65.863281 16.949219 65.769531 16.75 C 65.683594 16.558594 65.644531 16.144531 65.644531 15.519531 L 65.644531 11.9375 L 64.871094 11.9375 L 64.871094 11.105469 L 65.644531 11.105469 L 65.644531 9.5625 L 66.707031 8.9375 L 66.707031 11.105469 L 67.769531 11.105469 L 67.769531 11.9375 L 66.707031 11.9375 L 66.707031 15.5625 C 66.707031 15.871094 66.714844 16.0625 66.746094 16.144531 C 66.789062 16.230469 66.851562 16.300781 66.933594 16.355469 C 67.019531 16.410156 67.132812 16.4375 67.289062 16.4375 C 67.414062 16.4375 67.570312 16.425781 67.769531 16.394531 Z M 67.769531 16.394531 "/>
<path style="fill-rule:nonzero;fill:rgb(40.000001%,74.901962%,100%);fill-opacity:1;stroke-width:1;stroke-linecap:round;stroke-linejoin:round;stroke:rgb(0%,0%,0%);stroke-opacity:1;stroke-miterlimit:10;" d="M 44.999023 125.999023 L 62.999023 125.999023 L 62.999023 143.999023 L 44.999023 143.999023 Z M 44.999023 125.999023 " transform="matrix(1.333333,0,0,1.333333,-10.666667,-58.666667)"/>
<path style="fill-rule:nonzero;fill:rgb(100%,100%,100%);fill-opacity:1;stroke-width:1;stroke-linecap:round;stroke-linejoin:round;stroke:rgb(0%,0%,0%);stroke-opacity:1;stroke-miterlimit:10;" d="M 44.999023 89.999023 L 62.999023 89.999023 L 62.999023 107.999023 L 44.999023 107.999023 Z M 44.999023 89.999023 " transform="matrix(1.333333,0,0,1.333333,-10.666667,-58.666667)"/>
<path style="fill-rule:nonzero;fill:rgb(100%,100%,100%);fill-opacity:1;stroke-width:1;stroke-linecap:round;stroke-linejoin:round;stroke:rgb(0%,0%,0%);stroke-opacity:1;stroke-miterlimit:10;" d="M 44.999023 107.999023 L 62.999023 107.999023 L 62.999023 125.999023 L 44.999023 125.999023 Z M 44.999023 107.999023 " transform="matrix(1.333333,0,0,1.333333,-10.666667,-58.666667)"/>
<path style="fill-rule:nonzero;fill:rgb(100%,100%,100%);fill-opacity:1;stroke-width:1;stroke-linecap:round;stroke-linejoin:round;stroke:rgb(0%,0%,0%);stroke-opacity:1;stroke-miterlimit:10;" d="M 8.999023 125.999023 L 26.999023 125.999023 L 26.999023 143.999023 L 8.999023 143.999023 Z M 8.999023 125.999023 " transform="matrix(1.333333,0,0,1.333333,-10.666667,-58.666667)"/>
<path style="fill-rule:nonzero;fill:rgb(100%,100%,100%);fill-opacity:1;stroke-width:1;stroke-linecap:round;stroke-linejoin:round;stroke:rgb(0%,0%,0%);stroke-opacity:1;stroke-miterlimit:10;" d="M 26.999023 125.999023 L 44.999023 125.999023 L 44.999023 143.999023 L 26.999023 143.999023 Z M 26.999023 125.999023 " transform="matrix(1.333333,0,0,1.333333,-10.666667,-58.666667)"/>
<path style="fill-rule:nonzero;fill:rgb(69.803923%,85.09804%,100%);fill-opacity:1;stroke-width:1;stroke-linecap:round;stroke-linejoin:round;stroke:rgb(0%,0%,0%);stroke-opacity:1;stroke-miterlimit:10;" d="M 8.999023 89.999023 L 26.999023 89.999023 L 26.999023 107.999023 L 8.999023 107.999023 Z M 8.999023 89.999023 " transform="matrix(1.333333,0,0,1.333333,-10.666667,-58.666667)"/>
<path style="fill-rule:nonzero;fill:rgb(100%,100%,100%);fill-opacity:1;stroke-width:1;stroke-linecap:round;stroke-linejoin:round;stroke:rgb(0%,0%,0%);stroke-opacity:1;stroke-miterlimit:10;" d="M 8.999023 107.999023 L 26.999023 107.999023 L 26.999023 125.999023 L 8.999023 125.999023 Z M 8.999023 107.999023 " transform="matrix(1.333333,0,0,1.333333,-10.666667,-58.666667)"/>
<path style="fill-rule:nonzero;fill:rgb(100%,100%,100%);fill-opacity:1;stroke-width:1;stroke-linecap:round;stroke-linejoin:round;stroke:rgb(0%,0%,0%);stroke-opacity:1;stroke-miterlimit:10;" d="M 26.999023 89.999023 L 44.999023 89.999023 L 44.999023 107.999023 L 26.999023 107.999023 Z M 26.999023 89.999023 " transform="matrix(1.333333,0,0,1.333333,-10.666667,-58.666667)"/>
<path style="fill-rule:nonzero;fill:rgb(100%,100%,100%);fill-opacity:1;stroke-width:1;stroke-linecap:round;stroke-linejoin:round;stroke:rgb(0%,0%,0%);stroke-opacity:1;stroke-miterlimit:10;" d="M 26.999023 107.999023 L 44.999023 107.999023 L 44.999023 125.999023 L 26.999023 125.999023 Z M 26.999023 107.999023 " transform="matrix(1.333333,0,0,1.333333,-10.666667,-58.666667)"/>
<path style=" stroke:none;fill-rule:nonzero;fill:rgb(0%,0%,0%);fill-opacity:1;" d="M 121.921875 83.429688 L 122.460938 81.761719 C 123.695312 82.195312 124.597656 82.570312 125.171875 82.886719 C 125.015625 81.484375 124.941406 80.511719 124.941406 79.96875 L 126.628906 79.96875 C 126.597656 80.75 126.507812 81.71875 126.359375 82.886719 C 127.160156 82.484375 128.085938 82.109375 129.128906 81.761719 L 129.671875 83.429688 C 128.671875 83.75 127.695312 83.964844 126.753906 84.074219 C 127.222656 84.492188 127.898438 85.230469 128.773438 86.28125 L 127.359375 87.28125 C 126.898438 86.671875 126.363281 85.835938 125.753906 84.761719 C 125.171875 85.875 124.660156 86.714844 124.234375 87.28125 L 122.835938 86.28125 C 123.753906 85.171875 124.40625 84.4375 124.796875 84.074219 C 123.78125 83.882812 122.820312 83.667969 121.921875 83.429688 Z M 121.921875 83.429688 "/>
<path style=" stroke:none;fill-rule:nonzero;fill:rgb(0%,0%,0%);fill-opacity:1;" d="M 243.757812 82.835938 L 232.40625 82.835938 L 232.40625 80.878906 L 243.757812 80.878906 Z M 243.757812 88.042969 L 232.40625 88.042969 L 232.40625 86.085938 L 243.757812 86.085938 Z M 243.757812 88.042969 "/>
<path style="fill-rule:nonzero;fill:rgb(69.803923%,85.09804%,100%);fill-opacity:1;stroke-width:1;stroke-linecap:round;stroke-linejoin:round;stroke:rgb(0%,0%,0%);stroke-opacity:1;stroke-miterlimit:10;" d="M 140.969727 71.999023 L 158.969727 71.999023 L 158.969727 89.999023 L 140.969727 89.999023 Z M 140.969727 71.999023 " transform="matrix(1.333333,0,0,1.333333,-10.666667,-58.666667)"/>
<path style="fill-rule:nonzero;fill:rgb(69.803923%,85.09804%,100%);fill-opacity:1;stroke-width:1;stroke-linecap:round;stroke-linejoin:round;stroke:rgb(0%,0%,0%);stroke-opacity:1;stroke-miterlimit:10;" d="M 131.969727 80.999023 L 149.969727 80.999023 L 149.969727 98.999023 L 131.969727 98.999023 Z M 131.969727 80.999023 " transform="matrix(1.333333,0,0,1.333333,-10.666667,-58.666667)"/>
<path style="fill-rule:nonzero;fill:rgb(69.803923%,85.09804%,100%);fill-opacity:1;stroke-width:1;stroke-linecap:round;stroke-linejoin:round;stroke:rgb(0%,0%,0%);stroke-opacity:1;stroke-miterlimit:10;" d="M 122.969727 89.999023 L 140.969727 89.999023 L 140.969727 107.999023 L 122.969727 107.999023 Z M 122.969727 89.999023 " transform="matrix(1.333333,0,0,1.333333,-10.666667,-58.666667)"/>
<path style="fill-rule:nonzero;fill:rgb(40.000001%,74.901962%,100%);fill-opacity:1;stroke-width:1;stroke-linecap:round;stroke-linejoin:round;stroke:rgb(0%,0%,0%);stroke-opacity:1;stroke-miterlimit:10;" d="M 140.969727 107.999023 L 158.969727 107.999023 L 158.969727 125.999023 L 140.969727 125.999023 Z M 140.969727 107.999023 " transform="matrix(1.333333,0,0,1.333333,-10.666667,-58.666667)"/>
<path style="fill-rule:nonzero;fill:rgb(40.000001%,74.901962%,100%);fill-opacity:1;stroke-width:1;stroke-linecap:round;stroke-linejoin:round;stroke:rgb(0%,0%,0%);stroke-opacity:1;stroke-miterlimit:10;" d="M 131.969727 116.999023 L 149.969727 116.999023 L 149.969727 134.999023 L 131.969727 134.999023 Z M 131.969727 116.999023 " transform="matrix(1.333333,0,0,1.333333,-10.666667,-58.666667)"/>
<path style="fill-rule:nonzero;fill:rgb(40.000001%,74.901962%,100%);fill-opacity:1;stroke-width:1;stroke-linecap:round;stroke-linejoin:round;stroke:rgb(0%,0%,0%);stroke-opacity:1;stroke-miterlimit:10;" d="M 122.969727 125.999023 L 140.969727 125.999023 L 140.969727 143.999023 L 122.969727 143.999023 Z M 122.969727 125.999023 " transform="matrix(1.333333,0,0,1.333333,-10.666667,-58.666667)"/>
<path style="fill-rule:nonzero;fill:rgb(40.000001%,74.901962%,100%);fill-opacity:1;stroke-width:1;stroke-linecap:round;stroke-linejoin:round;stroke:rgb(0%,0%,0%);stroke-opacity:1;stroke-miterlimit:10;" d="M 258.573242 113.363281 L 276.573242 113.363281 L 276.573242 131.363281 L 258.573242 131.363281 Z M 258.573242 113.363281 " transform="matrix(1.333333,0,0,1.333333,-10.666667,-58.666667)"/>
<path style="fill-rule:nonzero;fill:rgb(100%,100%,100%);fill-opacity:1;stroke-width:1;stroke-linecap:round;stroke-linejoin:round;stroke:rgb(0%,0%,0%);stroke-opacity:1;stroke-miterlimit:10;" d="M 258.573242 77.363281 L 276.573242 77.363281 L 276.573242 95.363281 L 258.573242 95.363281 Z M 258.573242 77.363281 " transform="matrix(1.333333,0,0,1.333333,-10.666667,-58.666667)"/>
<path style="fill-rule:nonzero;fill:rgb(100%,100%,100%);fill-opacity:1;stroke-width:1;stroke-linecap:round;stroke-linejoin:round;stroke:rgb(0%,0%,0%);stroke-opacity:1;stroke-miterlimit:10;" d="M 258.573242 95.363281 L 276.573242 95.363281 L 276.573242 113.363281 L 258.573242 113.363281 Z M 258.573242 95.363281 " transform="matrix(1.333333,0,0,1.333333,-10.666667,-58.666667)"/>
<path style="fill-rule:nonzero;fill:rgb(100%,100%,100%);fill-opacity:1;stroke-width:1;stroke-linecap:round;stroke-linejoin:round;stroke:rgb(0%,0%,0%);stroke-opacity:1;stroke-miterlimit:10;" d="M 222.573242 113.363281 L 240.573242 113.363281 L 240.573242 131.363281 L 222.573242 131.363281 Z M 222.573242 113.363281 " transform="matrix(1.333333,0,0,1.333333,-10.666667,-58.666667)"/>
<path style="fill-rule:nonzero;fill:rgb(100%,100%,100%);fill-opacity:1;stroke-width:1;stroke-linecap:round;stroke-linejoin:round;stroke:rgb(0%,0%,0%);stroke-opacity:1;stroke-miterlimit:10;" d="M 240.573242 113.363281 L 258.573242 113.363281 L 258.573242 131.363281 L 240.573242 131.363281 Z M 240.573242 113.363281 " transform="matrix(1.333333,0,0,1.333333,-10.666667,-58.666667)"/>
<path style="fill-rule:nonzero;fill:rgb(100%,100%,100%);fill-opacity:1;stroke-width:1;stroke-linecap:round;stroke-linejoin:round;stroke:rgb(0%,0%,0%);stroke-opacity:1;stroke-miterlimit:10;" d="M 222.573242 77.363281 L 240.573242 77.363281 L 240.573242 95.363281 L 222.573242 95.363281 Z M 222.573242 77.363281 " transform="matrix(1.333333,0,0,1.333333,-10.666667,-58.666667)"/>
<path style="fill-rule:nonzero;fill:rgb(100%,100%,100%);fill-opacity:1;stroke-width:1;stroke-linecap:round;stroke-linejoin:round;stroke:rgb(0%,0%,0%);stroke-opacity:1;stroke-miterlimit:10;" d="M 222.573242 95.363281 L 240.573242 95.363281 L 240.573242 113.363281 L 222.573242 113.363281 Z M 222.573242 95.363281 " transform="matrix(1.333333,0,0,1.333333,-10.666667,-58.666667)"/>
<path style="fill-rule:nonzero;fill:rgb(100%,100%,100%);fill-opacity:1;stroke-width:1;stroke-linecap:round;stroke-linejoin:round;stroke:rgb(0%,0%,0%);stroke-opacity:1;stroke-miterlimit:10;" d="M 240.573242 77.363281 L 258.573242 77.363281 L 258.573242 95.363281 L 240.573242 95.363281 Z M 240.573242 77.363281 " transform="matrix(1.333333,0,0,1.333333,-10.666667,-58.666667)"/>
<path style="fill-rule:nonzero;fill:rgb(100%,100%,100%);fill-opacity:1;stroke-width:1;stroke-linecap:round;stroke-linejoin:round;stroke:rgb(0%,0%,0%);stroke-opacity:1;stroke-miterlimit:10;" d="M 240.573242 95.363281 L 258.573242 95.363281 L 258.573242 113.363281 L 240.573242 113.363281 Z M 240.573242 95.363281 " transform="matrix(1.333333,0,0,1.333333,-10.666667,-58.666667)"/>
<path style="fill-rule:nonzero;fill:rgb(100%,100%,100%);fill-opacity:1;stroke-width:1;stroke-linecap:round;stroke-linejoin:round;stroke:rgb(0%,0%,0%);stroke-opacity:1;stroke-miterlimit:10;" d="M 249.573242 122.363281 L 267.573242 122.363281 L 267.573242 140.363281 L 249.573242 140.363281 Z M 249.573242 122.363281 " transform="matrix(1.333333,0,0,1.333333,-10.666667,-58.666667)"/>
<path style="fill-rule:nonzero;fill:rgb(100%,100%,100%);fill-opacity:1;stroke-width:1;stroke-linecap:round;stroke-linejoin:round;stroke:rgb(0%,0%,0%);stroke-opacity:1;stroke-miterlimit:10;" d="M 249.573242 86.363281 L 267.573242 86.363281 L 267.573242 104.363281 L 249.573242 104.363281 Z M 249.573242 86.363281 " transform="matrix(1.333333,0,0,1.333333,-10.666667,-58.666667)"/>
<path style="fill-rule:nonzero;fill:rgb(100%,100%,100%);fill-opacity:1;stroke-width:1;stroke-linecap:round;stroke-linejoin:round;stroke:rgb(0%,0%,0%);stroke-opacity:1;stroke-miterlimit:10;" d="M 249.573242 104.363281 L 267.573242 104.363281 L 267.573242 122.363281 L 249.573242 122.363281 Z M 249.573242 104.363281 " transform="matrix(1.333333,0,0,1.333333,-10.666667,-58.666667)"/>
<path style="fill-rule:nonzero;fill:rgb(100%,100%,100%);fill-opacity:1;stroke-width:1;stroke-linecap:round;stroke-linejoin:round;stroke:rgb(0%,0%,0%);stroke-opacity:1;stroke-miterlimit:10;" d="M 213.573242 122.363281 L 231.573242 122.363281 L 231.573242 140.363281 L 213.573242 140.363281 Z M 213.573242 122.363281 " transform="matrix(1.333333,0,0,1.333333,-10.666667,-58.666667)"/>
<path style="fill-rule:nonzero;fill:rgb(100%,100%,100%);fill-opacity:1;stroke-width:1;stroke-linecap:round;stroke-linejoin:round;stroke:rgb(0%,0%,0%);stroke-opacity:1;stroke-miterlimit:10;" d="M 231.573242 122.363281 L 249.573242 122.363281 L 249.573242 140.363281 L 231.573242 140.363281 Z M 231.573242 122.363281 " transform="matrix(1.333333,0,0,1.333333,-10.666667,-58.666667)"/>
<path style="fill-rule:nonzero;fill:rgb(69.803923%,85.09804%,100%);fill-opacity:1;stroke-width:1;stroke-linecap:round;stroke-linejoin:round;stroke:rgb(0%,0%,0%);stroke-opacity:1;stroke-miterlimit:10;" d="M 213.573242 86.363281 L 231.573242 86.363281 L 231.573242 104.363281 L 213.573242 104.363281 Z M 213.573242 86.363281 " transform="matrix(1.333333,0,0,1.333333,-10.666667,-58.666667)"/>
<path style="fill-rule:nonzero;fill:rgb(100%,100%,100%);fill-opacity:1;stroke-width:1;stroke-linecap:round;stroke-linejoin:round;stroke:rgb(0%,0%,0%);stroke-opacity:1;stroke-miterlimit:10;" d="M 213.573242 104.363281 L 231.573242 104.363281 L 231.573242 122.363281 L 213.573242 122.363281 Z M 213.573242 104.363281 " transform="matrix(1.333333,0,0,1.333333,-10.666667,-58.666667)"/>
<path style="fill-rule:nonzero;fill:rgb(100%,100%,100%);fill-opacity:1;stroke-width:1;stroke-linecap:round;stroke-linejoin:round;stroke:rgb(0%,0%,0%);stroke-opacity:1;stroke-miterlimit:10;" d="M 231.573242 86.363281 L 249.573242 86.363281 L 249.573242 104.363281 L 231.573242 104.363281 Z M 231.573242 86.363281 " transform="matrix(1.333333,0,0,1.333333,-10.666667,-58.666667)"/>
<path style="fill-rule:nonzero;fill:rgb(100%,100%,100%);fill-opacity:1;stroke-width:1;stroke-linecap:round;stroke-linejoin:round;stroke:rgb(0%,0%,0%);stroke-opacity:1;stroke-miterlimit:10;" d="M 231.573242 104.363281 L 249.573242 104.363281 L 249.573242 122.363281 L 231.573242 122.363281 Z M 231.573242 104.363281 " transform="matrix(1.333333,0,0,1.333333,-10.666667,-58.666667)"/>
</g>
</svg>
