<?xml version="1.0" encoding="UTF-8"?>
<svg xmlns="http://www.w3.org/2000/svg" xmlns:xlink="http://www.w3.org/1999/xlink" width="350.666667" height="117.333333" viewBox="0 0 350.666667 117.333333" version="1.1">
<g id="surface1">
<path style="fill-rule:nonzero;fill:rgb(69.803923%,85.09804%,100%);fill-opacity:1;stroke-width:1;stroke-linecap:round;stroke-linejoin:round;stroke:rgb(0%,0%,0%);stroke-opacity:1;stroke-miterlimit:10;" d="M 107.016602 77.733398 C 111.99707 82.713867 111.99707 90.785156 107.016602 95.765625 C 102.036133 100.746094 93.964844 100.746094 88.984375 95.765625 C 84.003906 90.785156 84.003906 82.713867 88.984375 77.733398 C 93.964844 72.75293 102.036133 72.75293 107.016602 77.733398 " transform="matrix(1.333333,0,0,1.333333,-9.333333,-16)"/>
<path style=" stroke:none;fill-rule:nonzero;fill:rgb(0%,0%,0%);fill-opacity:1;" d="M 119.585938 97.417969 C 119.417969 96.582031 119.273438 96.375 118.980469 96.375 C 118.691406 96.375 118.292969 96.457031 117.566406 96.730469 L 117.441406 96.769531 L 117.480469 96.957031 L 117.691406 96.894531 C 117.917969 96.832031 118.066406 96.8125 118.148438 96.8125 C 118.460938 96.8125 118.542969 96.917969 118.710938 97.625 L 119.042969 99.125 L 118.066406 100.519531 C 117.816406 100.875 117.585938 101.105469 117.441406 101.105469 C 117.378906 101.105469 117.253906 101.0625 117.128906 101 C 116.980469 100.917969 116.855469 100.855469 116.753906 100.855469 C 116.523438 100.855469 116.335938 101.0625 116.335938 101.292969 C 116.335938 101.605469 116.566406 101.792969 116.941406 101.792969 C 117.316406 101.792969 117.566406 101.6875 118.085938 100.980469 L 119.148438 99.5625 L 119.480469 100.980469 C 119.628906 101.582031 119.816406 101.792969 120.191406 101.792969 C 120.648438 101.792969 120.960938 101.519531 121.667969 100.4375 L 121.480469 100.3125 C 121.378906 100.4375 121.335938 100.519531 121.230469 100.667969 C 120.960938 101.019531 120.816406 101.144531 120.667969 101.144531 C 120.503906 101.144531 120.398438 100.980469 120.316406 100.644531 L 119.917969 99.042969 C 119.855469 98.75 119.816406 98.582031 119.816406 98.5 C 120.355469 97.582031 120.792969 97.042969 121.003906 97.042969 C 121.292969 97.042969 121.398438 97.25 121.628906 97.25 C 121.855469 97.25 122.023438 97.0625 122.023438 96.8125 C 122.023438 96.5625 121.835938 96.375 121.542969 96.375 C 121.023438 96.375 120.566406 96.8125 119.730469 98.082031 Z M 119.585938 97.417969 "/>
<path style=" stroke:none;fill-rule:nonzero;fill:rgb(0%,0%,0%);fill-opacity:1;" d="M 125.144531 105.667969 L 125.144531 105.542969 C 124.539062 105.542969 124.394531 105.394531 124.394531 105.0625 L 124.394531 100.292969 L 124.308594 100.25 L 122.894531 100.980469 L 122.894531 101.105469 L 123.101562 101.019531 C 123.246094 100.957031 123.371094 100.917969 123.457031 100.917969 C 123.621094 100.917969 123.707031 101.042969 123.707031 101.3125 L 123.707031 104.917969 C 123.707031 105.355469 123.539062 105.519531 122.933594 105.542969 L 122.933594 105.667969 Z M 125.144531 105.667969 "/>
<path style="fill-rule:nonzero;fill:rgb(69.803923%,85.09804%,100%);fill-opacity:1;stroke-width:1;stroke-linecap:round;stroke-linejoin:round;stroke:rgb(0%,0%,0%);stroke-opacity:1;stroke-miterlimit:10;" d="M 159.891602 77.733398 C 164.87207 82.713867 164.87207 90.785156 159.891602 95.765625 C 154.911133 100.746094 146.839844 100.746094 141.859375 95.765625 C 136.878906 90.785156 136.878906 82.713867 141.859375 77.733398 C 146.839844 72.75293 154.911133 72.75293 159.891602 77.733398 " transform="matrix(1.333333,0,0,1.333333,-9.333333,-16)"/>
<path style=" stroke:none;fill-rule:nonzero;fill:rgb(0%,0%,0%);fill-opacity:1;" d="M 190.085938 97.417969 C 189.917969 96.582031 189.773438 96.375 189.480469 96.375 C 189.191406 96.375 188.792969 96.457031 188.066406 96.730469 L 187.941406 96.769531 L 187.980469 96.957031 L 188.191406 96.894531 C 188.417969 96.832031 188.566406 96.8125 188.648438 96.8125 C 188.960938 96.8125 189.042969 96.917969 189.210938 97.625 L 189.542969 99.125 L 188.566406 100.519531 C 188.316406 100.875 188.085938 101.105469 187.941406 101.105469 C 187.878906 101.105469 187.753906 101.0625 187.628906 101 C 187.480469 100.917969 187.355469 100.855469 187.253906 100.855469 C 187.023438 100.855469 186.835938 101.0625 186.835938 101.292969 C 186.835938 101.605469 187.066406 101.792969 187.441406 101.792969 C 187.816406 101.792969 188.066406 101.6875 188.585938 100.980469 L 189.648438 99.5625 L 189.980469 100.980469 C 190.128906 101.582031 190.316406 101.792969 190.691406 101.792969 C 191.148438 101.792969 191.460938 101.519531 192.167969 100.4375 L 191.980469 100.3125 C 191.878906 100.4375 191.835938 100.519531 191.730469 100.667969 C 191.460938 101.019531 191.316406 101.144531 191.167969 101.144531 C 191.003906 101.144531 190.898438 100.980469 190.816406 100.644531 L 190.417969 99.042969 C 190.355469 98.75 190.316406 98.582031 190.316406 98.5 C 190.855469 97.582031 191.292969 97.042969 191.503906 97.042969 C 191.792969 97.042969 191.898438 97.25 192.128906 97.25 C 192.355469 97.25 192.523438 97.0625 192.523438 96.8125 C 192.523438 96.5625 192.335938 96.375 192.042969 96.375 C 191.523438 96.375 191.066406 96.8125 190.230469 98.082031 Z M 190.085938 97.417969 "/>
<path style=" stroke:none;fill-rule:nonzero;fill:rgb(0%,0%,0%);fill-opacity:1;" d="M 196.289062 104.5625 L 196.183594 104.519531 C 195.914062 104.980469 195.746094 105.0625 195.414062 105.0625 L 193.539062 105.0625 L 194.851562 103.644531 C 195.558594 102.894531 195.871094 102.292969 195.871094 101.667969 C 195.871094 100.875 195.308594 100.25 194.394531 100.25 C 193.414062 100.25 192.914062 100.917969 192.746094 101.855469 L 192.914062 101.894531 C 193.226562 101.105469 193.496094 100.855469 194.082031 100.855469 C 194.769531 100.855469 195.183594 101.25 195.183594 101.980469 C 195.183594 102.667969 194.914062 103.269531 194.144531 104.0625 L 192.726562 105.5625 L 192.726562 105.667969 L 195.851562 105.667969 Z M 196.289062 104.5625 "/>
<path style="fill-rule:nonzero;fill:rgb(40.000001%,74.901962%,100%);fill-opacity:1;stroke-width:1;stroke-linecap:round;stroke-linejoin:round;stroke:rgb(0%,0%,0%);stroke-opacity:1;stroke-miterlimit:10;" d="M 140.016602 16.734375 C 144.99707 21.714844 144.99707 29.786133 140.016602 34.766602 C 135.036133 39.74707 126.964844 39.74707 121.984375 34.766602 C 117.003906 29.786133 117.003906 21.714844 121.984375 16.734375 C 126.964844 11.753906 135.036133 11.753906 140.016602 16.734375 " transform="matrix(1.333333,0,0,1.333333,-9.333333,-16)"/>
<path style=" stroke:none;fill-rule:nonzero;fill:rgb(0%,0%,0%);fill-opacity:1;" d="M 165.957031 16.730469 C 165.957031 15.667969 165.230469 15.042969 164.25 15.042969 C 163.769531 15.042969 163.292969 15.144531 162.8125 15.394531 C 161.5625 16.082031 160.667969 17.457031 160.667969 18.792969 C 160.667969 19.832031 161.292969 20.457031 162.417969 20.457031 C 163.207031 20.457031 163.980469 20.167969 164.6875 19.480469 C 165.480469 18.6875 165.957031 17.625 165.957031 16.730469 Z M 164.9375 16.417969 C 164.9375 17.332031 164.605469 18.457031 164.0625 19.207031 C 163.582031 19.875 163.125 20.207031 162.605469 20.207031 C 162.042969 20.207031 161.667969 19.832031 161.667969 19.125 C 161.667969 18.167969 162 17.230469 162.5625 16.375 C 163.042969 15.667969 163.5625 15.292969 164.082031 15.292969 C 164.605469 15.292969 164.9375 15.6875 164.9375 16.417969 Z M 164.9375 16.417969 "/>
<path style=" stroke:none;fill-rule:nonzero;fill:rgb(0%,0%,0%);fill-opacity:1;" d="M 169.480469 24.332031 L 169.480469 24.207031 C 168.875 24.207031 168.730469 24.0625 168.730469 23.730469 L 168.730469 18.957031 L 168.644531 18.917969 L 167.230469 19.644531 L 167.230469 19.769531 L 167.4375 19.6875 C 167.582031 19.625 167.707031 19.582031 167.792969 19.582031 C 167.957031 19.582031 168.042969 19.707031 168.042969 19.980469 L 168.042969 23.582031 C 168.042969 24.019531 167.875 24.1875 167.269531 24.207031 L 167.269531 24.332031 Z M 169.480469 24.332031 "/>
<path style=" stroke:none;fill-rule:nonzero;fill:rgb(0%,0%,0%);fill-opacity:1;" d="M 13.109375 102 L 13.109375 93.417969 L 14.234375 93.417969 L 14.234375 102 Z M 13.109375 102 "/>
<path style=" stroke:none;fill-rule:nonzero;fill:rgb(0%,0%,0%);fill-opacity:1;" d="M 16.109375 102 L 16.109375 95.769531 L 17.066406 95.769531 L 17.066406 96.667969 C 17.507812 95.988281 18.171875 95.644531 19.046875 95.644531 C 19.421875 95.644531 19.757812 95.71875 20.066406 95.855469 C 20.382812 95.980469 20.617188 96.15625 20.773438 96.375 C 20.925781 96.582031 21.035156 96.84375 21.109375 97.144531 C 21.148438 97.34375 21.171875 97.683594 21.171875 98.167969 L 21.171875 102 L 20.109375 102 L 20.109375 98.207031 C 20.109375 97.78125 20.066406 97.457031 19.984375 97.25 C 19.898438 97.042969 19.753906 96.875 19.546875 96.75 C 19.335938 96.613281 19.09375 96.542969 18.816406 96.542969 C 18.367188 96.542969 17.984375 96.6875 17.648438 96.980469 C 17.328125 97.261719 17.171875 97.800781 17.171875 98.605469 L 17.171875 102 Z M 16.109375 102 "/>
<path style=" stroke:none;fill-rule:nonzero;fill:rgb(0%,0%,0%);fill-opacity:1;" d="M 22.78125 104.375 L 22.78125 95.769531 L 23.742188 95.769531 L 23.742188 96.582031 C 23.960938 96.265625 24.210938 96.03125 24.492188 95.875 C 24.78125 95.722656 25.136719 95.644531 25.554688 95.644531 C 26.078125 95.644531 26.542969 95.785156 26.949219 96.0625 C 27.351562 96.328125 27.65625 96.707031 27.867188 97.207031 C 28.074219 97.707031 28.179688 98.25 28.179688 98.832031 C 28.179688 99.472656 28.058594 100.050781 27.824219 100.5625 C 27.601562 101.078125 27.273438 101.472656 26.84375 101.75 C 26.414062 102.011719 25.953125 102.144531 25.46875 102.144531 C 25.121094 102.144531 24.808594 102.066406 24.53125 101.917969 C 24.25 101.765625 24.023438 101.578125 23.84375 101.355469 L 23.84375 104.375 Z M 23.742188 98.917969 C 23.742188 99.722656 23.898438 100.324219 24.21875 100.707031 C 24.554688 101.082031 24.949219 101.269531 25.40625 101.269531 C 25.867188 101.269531 26.261719 101.078125 26.59375 100.6875 C 26.9375 100.285156 27.117188 99.667969 27.117188 98.832031 C 27.117188 98.042969 26.949219 97.453125 26.617188 97.0625 C 26.292969 96.660156 25.90625 96.457031 25.449219 96.457031 C 25 96.457031 24.605469 96.675781 24.261719 97.105469 C 23.914062 97.519531 23.742188 98.125 23.742188 98.917969 Z M 23.742188 98.917969 "/>
<path style=" stroke:none;fill-rule:nonzero;fill:rgb(0%,0%,0%);fill-opacity:1;" d="M 33.539062 102 L 33.539062 101.082031 C 33.050781 101.792969 32.394531 102.144531 31.5625 102.144531 C 31.195312 102.144531 30.859375 102.074219 30.539062 101.9375 C 30.21875 101.785156 29.976562 101.605469 29.8125 101.394531 C 29.65625 101.1875 29.550781 100.933594 29.5 100.625 C 29.457031 100.417969 29.4375 100.082031 29.4375 99.625 L 29.4375 95.769531 L 30.476562 95.769531 L 30.476562 99.230469 C 30.476562 99.785156 30.503906 100.15625 30.5625 100.332031 C 30.613281 100.613281 30.75 100.832031 30.957031 101 C 31.175781 101.15625 31.445312 101.230469 31.769531 101.230469 C 32.085938 101.230469 32.382812 101.15625 32.664062 101 C 32.941406 100.832031 33.132812 100.613281 33.25 100.332031 C 33.359375 100.058594 33.414062 99.644531 33.414062 99.105469 L 33.414062 95.769531 L 34.476562 95.769531 L 34.476562 102 Z M 33.539062 102 "/>
<path style=" stroke:none;fill-rule:nonzero;fill:rgb(0%,0%,0%);fill-opacity:1;" d="M 38.445312 101.0625 L 38.589844 101.980469 C 38.28125 102.046875 38.015625 102.082031 37.796875 102.082031 C 37.40625 102.082031 37.109375 102.019531 36.902344 101.894531 C 36.695312 101.769531 36.539062 101.613281 36.445312 101.417969 C 36.359375 101.222656 36.320312 100.8125 36.320312 100.1875 L 36.320312 96.605469 L 35.546875 96.605469 L 35.546875 95.769531 L 36.320312 95.769531 L 36.320312 94.230469 L 37.382812 93.605469 L 37.382812 95.769531 L 38.445312 95.769531 L 38.445312 96.605469 L 37.382812 96.605469 L 37.382812 100.230469 C 37.382812 100.535156 37.390625 100.730469 37.421875 100.8125 C 37.464844 100.894531 37.527344 100.96875 37.609375 101.019531 C 37.695312 101.078125 37.808594 101.105469 37.964844 101.105469 C 38.089844 101.105469 38.246094 101.09375 38.445312 101.0625 Z M 38.445312 101.0625 "/>
<path style=" stroke:none;fill-rule:nonzero;fill:rgb(0%,0%,0%);fill-opacity:1;" d="M 42.777344 102 L 42.777344 93.417969 L 43.820312 93.417969 L 43.820312 102 Z M 42.777344 102 "/>
<path style=" stroke:none;fill-rule:nonzero;fill:rgb(0%,0%,0%);fill-opacity:1;" d="M 49.527344 101.230469 C 49.136719 101.5625 48.761719 101.800781 48.402344 101.9375 C 48.039062 102.074219 47.652344 102.144531 47.234375 102.144531 C 46.554688 102.144531 46.027344 101.980469 45.652344 101.644531 C 45.289062 101.3125 45.109375 100.886719 45.109375 100.355469 C 45.109375 100.050781 45.179688 99.769531 45.320312 99.519531 C 45.453125 99.269531 45.636719 99.074219 45.859375 98.917969 C 46.078125 98.765625 46.328125 98.644531 46.609375 98.5625 C 46.820312 98.519531 47.132812 98.472656 47.546875 98.417969 C 48.40625 98.324219 49.039062 98.199219 49.445312 98.042969 C 49.445312 97.90625 49.445312 97.8125 49.445312 97.769531 C 49.445312 97.34375 49.34375 97.042969 49.152344 96.875 C 48.871094 96.625 48.46875 96.5 47.945312 96.5 C 47.445312 96.5 47.074219 96.59375 46.839844 96.769531 C 46.601562 96.9375 46.429688 97.246094 46.320312 97.6875 L 45.296875 97.5625 C 45.382812 97.121094 45.527344 96.765625 45.734375 96.5 C 45.953125 96.222656 46.265625 96.015625 46.671875 95.875 C 47.089844 95.722656 47.558594 95.644531 48.089844 95.644531 C 48.632812 95.644531 49.058594 95.707031 49.382812 95.832031 C 49.714844 95.957031 49.953125 96.121094 50.109375 96.3125 C 50.277344 96.496094 50.386719 96.730469 50.445312 97.019531 C 50.484375 97.203125 50.507812 97.519531 50.507812 97.980469 L 50.507812 99.394531 C 50.507812 100.371094 50.527344 100.988281 50.570312 101.25 C 50.609375 101.515625 50.699219 101.765625 50.839844 102 L 49.734375 102 C 49.621094 101.78125 49.554688 101.519531 49.527344 101.230469 Z M 49.445312 98.875 C 49.054688 99.03125 48.476562 99.160156 47.714844 99.269531 C 47.28125 99.34375 46.976562 99.417969 46.796875 99.5 C 46.617188 99.574219 46.476562 99.683594 46.382812 99.832031 C 46.28125 99.988281 46.234375 100.15625 46.234375 100.332031 C 46.234375 100.613281 46.339844 100.847656 46.546875 101.042969 C 46.757812 101.222656 47.070312 101.3125 47.484375 101.3125 C 47.886719 101.3125 48.246094 101.222656 48.570312 101.042969 C 48.886719 100.863281 49.121094 100.621094 49.277344 100.3125 C 49.386719 100.078125 49.445312 99.730469 49.445312 99.269531 Z M 49.445312 98.875 "/>
<path style=" stroke:none;fill-rule:nonzero;fill:rgb(0%,0%,0%);fill-opacity:1;" d="M 52.097656 104.394531 L 51.972656 103.417969 C 52.207031 103.46875 52.410156 103.5 52.578125 103.5 C 52.8125 103.5 53 103.457031 53.140625 103.375 C 53.273438 103.300781 53.394531 103.199219 53.492188 103.0625 C 53.546875 102.949219 53.648438 102.6875 53.804688 102.269531 C 53.832031 102.214844 53.867188 102.128906 53.910156 102.019531 L 51.535156 95.769531 L 52.679688 95.769531 L 53.972656 99.375 C 54.140625 99.832031 54.289062 100.3125 54.429688 100.8125 C 54.539062 100.34375 54.679688 99.871094 54.847656 99.394531 L 56.179688 95.769531 L 57.242188 95.769531 L 54.867188 102.105469 C 54.617188 102.78125 54.421875 103.253906 54.285156 103.519531 C 54.085938 103.863281 53.875 104.113281 53.640625 104.269531 C 53.398438 104.4375 53.109375 104.519531 52.765625 104.519531 C 52.566406 104.519531 52.347656 104.480469 52.097656 104.394531 Z M 52.097656 104.394531 "/>
<path style=" stroke:none;fill-rule:nonzero;fill:rgb(0%,0%,0%);fill-opacity:1;" d="M 62.390625 100 L 63.492188 100.125 C 63.3125 100.765625 62.984375 101.265625 62.515625 101.625 C 62.054688 101.972656 61.460938 102.144531 60.742188 102.144531 C 59.835938 102.144531 59.117188 101.871094 58.578125 101.3125 C 58.046875 100.746094 57.785156 99.953125 57.785156 98.9375 C 57.785156 97.894531 58.054688 97.09375 58.597656 96.519531 C 59.140625 95.9375 59.835938 95.644531 60.703125 95.644531 C 61.535156 95.644531 62.207031 95.933594 62.722656 96.5 C 63.25 97.058594 63.515625 97.847656 63.515625 98.875 C 63.515625 98.949219 63.515625 99.042969 63.515625 99.167969 L 58.867188 99.167969 C 58.910156 99.847656 59.101562 100.371094 59.453125 100.730469 C 59.796875 101.09375 60.234375 101.269531 60.765625 101.269531 C 61.148438 101.269531 61.476562 101.175781 61.742188 100.980469 C 62.019531 100.769531 62.234375 100.449219 62.390625 100 Z M 58.929688 98.292969 L 62.410156 98.292969 C 62.367188 97.765625 62.234375 97.371094 62.015625 97.105469 C 61.679688 96.703125 61.242188 96.5 60.703125 96.5 C 60.210938 96.5 59.804688 96.667969 59.472656 97 C 59.148438 97.324219 58.972656 97.75 58.929688 98.292969 Z M 58.929688 98.292969 "/>
<path style=" stroke:none;fill-rule:nonzero;fill:rgb(0%,0%,0%);fill-opacity:1;" d="M 64.792969 102 L 64.792969 95.769531 L 65.75 95.769531 L 65.75 96.730469 C 65.984375 96.285156 66.210938 95.996094 66.417969 95.855469 C 66.625 95.71875 66.855469 95.644531 67.105469 95.644531 C 67.449219 95.644531 67.8125 95.761719 68.1875 95.980469 L 67.8125 96.957031 C 67.5625 96.808594 67.304688 96.730469 67.042969 96.730469 C 66.820312 96.730469 66.609375 96.800781 66.417969 96.9375 C 66.234375 97.078125 66.105469 97.269531 66.023438 97.519531 C 65.90625 97.894531 65.855469 98.308594 65.855469 98.75 L 65.855469 102 Z M 64.792969 102 "/>
<path style=" stroke:none;fill-rule:nonzero;fill:rgb(0%,0%,0%);fill-opacity:1;" d="M 7.898438 17.480469 C 7.898438 16.0625 8.28125 14.953125 9.046875 14.144531 C 9.804688 13.328125 10.796875 12.917969 12.003906 12.917969 C 12.796875 12.917969 13.507812 13.113281 14.148438 13.5 C 14.785156 13.875 15.273438 14.40625 15.609375 15.082031 C 15.941406 15.765625 16.109375 16.53125 16.109375 17.375 C 16.109375 18.25 15.929688 19.035156 15.585938 19.730469 C 15.238281 20.410156 14.738281 20.933594 14.085938 21.292969 C 13.445312 21.640625 12.753906 21.8125 12.003906 21.8125 C 11.195312 21.8125 10.472656 21.621094 9.835938 21.230469 C 9.195312 20.84375 8.710938 20.308594 8.378906 19.625 C 8.054688 18.949219 7.898438 18.230469 7.898438 17.480469 Z M 9.066406 17.5 C 9.066406 18.542969 9.34375 19.363281 9.898438 19.957031 C 10.453125 20.542969 11.15625 20.832031 12.003906 20.832031 C 12.847656 20.832031 13.550781 20.535156 14.109375 19.9375 C 14.660156 19.34375 14.941406 18.488281 14.941406 17.375 C 14.941406 16.683594 14.820312 16.078125 14.585938 15.5625 C 14.347656 15.035156 14.003906 14.625 13.546875 14.332031 C 13.085938 14.042969 12.578125 13.894531 12.023438 13.894531 C 11.21875 13.894531 10.523438 14.175781 9.941406 14.730469 C 9.359375 15.285156 9.066406 16.207031 9.066406 17.5 Z M 9.066406 17.5 "/>
<path style=" stroke:none;fill-rule:nonzero;fill:rgb(0%,0%,0%);fill-opacity:1;" d="M 21.523438 21.667969 L 21.523438 20.75 C 21.035156 21.457031 20.378906 21.8125 19.546875 21.8125 C 19.179688 21.8125 18.84375 21.738281 18.523438 21.605469 C 18.203125 21.453125 17.960938 21.269531 17.796875 21.0625 C 17.640625 20.855469 17.535156 20.597656 17.484375 20.292969 C 17.441406 20.082031 17.421875 19.75 17.421875 19.292969 L 17.421875 15.4375 L 18.460938 15.4375 L 18.460938 18.894531 C 18.460938 19.453125 18.488281 19.824219 18.546875 20 C 18.597656 20.28125 18.734375 20.5 18.941406 20.667969 C 19.160156 20.824219 19.429688 20.894531 19.753906 20.894531 C 20.070312 20.894531 20.367188 20.824219 20.648438 20.667969 C 20.925781 20.5 21.117188 20.28125 21.234375 20 C 21.34375 19.722656 21.398438 19.3125 21.398438 18.769531 L 21.398438 15.4375 L 22.460938 15.4375 L 22.460938 21.667969 Z M 21.523438 21.667969 "/>
<path style=" stroke:none;fill-rule:nonzero;fill:rgb(0%,0%,0%);fill-opacity:1;" d="M 26.429688 20.730469 L 26.574219 21.644531 C 26.265625 21.714844 26 21.75 25.78125 21.75 C 25.390625 21.75 25.09375 21.6875 24.886719 21.5625 C 24.679688 21.4375 24.523438 21.28125 24.429688 21.082031 C 24.34375 20.890625 24.304688 20.480469 24.304688 19.855469 L 24.304688 16.269531 L 23.53125 16.269531 L 23.53125 15.4375 L 24.304688 15.4375 L 24.304688 13.894531 L 25.367188 13.269531 L 25.367188 15.4375 L 26.429688 15.4375 L 26.429688 16.269531 L 25.367188 16.269531 L 25.367188 19.894531 C 25.367188 20.203125 25.375 20.394531 25.40625 20.480469 C 25.449219 20.5625 25.511719 20.636719 25.59375 20.6875 C 25.679688 20.746094 25.792969 20.769531 25.949219 20.769531 C 26.074219 20.769531 26.230469 20.761719 26.429688 20.730469 Z M 26.429688 20.730469 "/>
<path style=" stroke:none;fill-rule:nonzero;fill:rgb(0%,0%,0%);fill-opacity:1;" d="M 27.449219 24.042969 L 27.449219 15.4375 L 28.40625 15.4375 L 28.40625 16.25 C 28.625 15.933594 28.875 15.699219 29.15625 15.542969 C 29.449219 15.390625 29.804688 15.3125 30.21875 15.3125 C 30.746094 15.3125 31.210938 15.453125 31.617188 15.730469 C 32.015625 15.996094 32.324219 16.375 32.53125 16.875 C 32.742188 17.375 32.84375 17.917969 32.84375 18.5 C 32.84375 19.140625 32.726562 19.71875 32.492188 20.230469 C 32.265625 20.746094 31.9375 21.140625 31.511719 21.417969 C 31.078125 21.675781 30.621094 21.8125 30.136719 21.8125 C 29.789062 21.8125 29.476562 21.734375 29.199219 21.582031 C 28.917969 21.433594 28.6875 21.246094 28.511719 21.019531 L 28.511719 24.042969 Z M 28.40625 18.582031 C 28.40625 19.390625 28.5625 19.988281 28.886719 20.375 C 29.21875 20.75 29.617188 20.9375 30.074219 20.9375 C 30.53125 20.9375 30.929688 20.746094 31.261719 20.355469 C 31.605469 19.953125 31.78125 19.332031 31.78125 18.5 C 31.78125 17.707031 31.617188 17.121094 31.28125 16.730469 C 30.960938 16.328125 30.574219 16.125 30.117188 16.125 C 29.667969 16.125 29.273438 16.34375 28.929688 16.769531 C 28.578125 17.1875 28.40625 17.792969 28.40625 18.582031 Z M 28.40625 18.582031 "/>
<path style=" stroke:none;fill-rule:nonzero;fill:rgb(0%,0%,0%);fill-opacity:1;" d="M 38.207031 21.667969 L 38.207031 20.75 C 37.71875 21.457031 37.0625 21.8125 36.226562 21.8125 C 35.863281 21.8125 35.523438 21.738281 35.207031 21.605469 C 34.882812 21.453125 34.644531 21.269531 34.476562 21.0625 C 34.320312 20.855469 34.21875 20.597656 34.164062 20.292969 C 34.125 20.082031 34.101562 19.75 34.101562 19.292969 L 34.101562 15.4375 L 35.144531 15.4375 L 35.144531 18.894531 C 35.144531 19.453125 35.171875 19.824219 35.226562 20 C 35.28125 20.28125 35.414062 20.5 35.625 20.667969 C 35.84375 20.824219 36.113281 20.894531 36.4375 20.894531 C 36.753906 20.894531 37.050781 20.824219 37.332031 20.667969 C 37.609375 20.5 37.800781 20.28125 37.914062 20 C 38.023438 19.722656 38.082031 19.3125 38.082031 18.769531 L 38.082031 15.4375 L 39.144531 15.4375 L 39.144531 21.667969 Z M 38.207031 21.667969 "/>
<path style=" stroke:none;fill-rule:nonzero;fill:rgb(0%,0%,0%);fill-opacity:1;" d="M 43.109375 20.730469 L 43.257812 21.644531 C 42.949219 21.714844 42.683594 21.75 42.464844 21.75 C 42.074219 21.75 41.777344 21.6875 41.570312 21.5625 C 41.359375 21.4375 41.203125 21.28125 41.109375 21.082031 C 41.027344 20.890625 40.984375 20.480469 40.984375 19.855469 L 40.984375 16.269531 L 40.214844 16.269531 L 40.214844 15.4375 L 40.984375 15.4375 L 40.984375 13.894531 L 42.046875 13.269531 L 42.046875 15.4375 L 43.109375 15.4375 L 43.109375 16.269531 L 42.046875 16.269531 L 42.046875 19.894531 C 42.046875 20.203125 42.058594 20.394531 42.089844 20.480469 C 42.132812 20.5625 42.195312 20.636719 42.277344 20.6875 C 42.359375 20.746094 42.476562 20.769531 42.632812 20.769531 C 42.757812 20.769531 42.914062 20.761719 43.109375 20.730469 Z M 43.109375 20.730469 "/>
<path style=" stroke:none;fill-rule:nonzero;fill:rgb(0%,0%,0%);fill-opacity:1;" d="M 47.445312 21.667969 L 47.445312 13.082031 L 48.488281 13.082031 L 48.488281 21.667969 Z M 47.445312 21.667969 "/>
<path style=" stroke:none;fill-rule:nonzero;fill:rgb(0%,0%,0%);fill-opacity:1;" d="M 54.195312 20.894531 C 53.804688 21.230469 53.429688 21.46875 53.070312 21.605469 C 52.703125 21.738281 52.320312 21.8125 51.902344 21.8125 C 51.21875 21.8125 50.695312 21.644531 50.320312 21.3125 C 49.953125 20.980469 49.777344 20.550781 49.777344 20.019531 C 49.777344 19.71875 49.84375 19.4375 49.984375 19.1875 C 50.121094 18.9375 50.304688 18.738281 50.527344 18.582031 C 50.746094 18.433594 50.996094 18.3125 51.277344 18.230469 C 51.484375 18.1875 51.796875 18.140625 52.214844 18.082031 C 53.074219 17.988281 53.703125 17.863281 54.109375 17.707031 C 54.109375 17.574219 54.109375 17.480469 54.109375 17.4375 C 54.109375 17.011719 54.011719 16.707031 53.820312 16.542969 C 53.539062 16.292969 53.136719 16.167969 52.609375 16.167969 C 52.109375 16.167969 51.742188 16.261719 51.507812 16.4375 C 51.265625 16.605469 51.09375 16.910156 50.984375 17.355469 L 49.964844 17.230469 C 50.046875 16.785156 50.195312 16.433594 50.402344 16.167969 C 50.621094 15.890625 50.933594 15.683594 51.339844 15.542969 C 51.757812 15.390625 52.226562 15.3125 52.757812 15.3125 C 53.296875 15.3125 53.726562 15.375 54.046875 15.5 C 54.382812 15.625 54.621094 15.785156 54.777344 15.980469 C 54.945312 16.160156 55.054688 16.394531 55.109375 16.6875 C 55.152344 16.871094 55.171875 17.1875 55.171875 17.644531 L 55.171875 19.0625 C 55.171875 20.035156 55.195312 20.65625 55.234375 20.917969 C 55.277344 21.183594 55.367188 21.433594 55.507812 21.667969 L 54.402344 21.667969 C 54.289062 21.449219 54.21875 21.1875 54.195312 20.894531 Z M 54.109375 18.542969 C 53.71875 18.699219 53.140625 18.828125 52.382812 18.9375 C 51.949219 19.011719 51.640625 19.082031 51.464844 19.167969 C 51.28125 19.238281 51.140625 19.347656 51.046875 19.5 C 50.949219 19.65625 50.902344 19.824219 50.902344 20 C 50.902344 20.28125 51.007812 20.515625 51.214844 20.707031 C 51.421875 20.890625 51.734375 20.980469 52.152344 20.980469 C 52.554688 20.980469 52.914062 20.890625 53.234375 20.707031 C 53.554688 20.53125 53.789062 20.285156 53.945312 19.980469 C 54.054688 19.746094 54.109375 19.394531 54.109375 18.9375 Z M 54.109375 18.542969 "/>
<path style=" stroke:none;fill-rule:nonzero;fill:rgb(0%,0%,0%);fill-opacity:1;" d="M 56.765625 24.0625 L 56.640625 23.082031 C 56.875 23.136719 57.078125 23.167969 57.242188 23.167969 C 57.476562 23.167969 57.664062 23.125 57.804688 23.042969 C 57.941406 22.96875 58.0625 22.863281 58.160156 22.730469 C 58.210938 22.613281 58.316406 22.355469 58.472656 21.9375 C 58.5 21.878906 58.535156 21.796875 58.578125 21.6875 L 56.203125 15.4375 L 57.347656 15.4375 L 58.640625 19.042969 C 58.804688 19.5 58.957031 19.980469 59.097656 20.480469 C 59.207031 20.011719 59.347656 19.535156 59.515625 19.0625 L 60.847656 15.4375 L 61.910156 15.4375 L 59.535156 21.769531 C 59.285156 22.449219 59.085938 22.921875 58.953125 23.1875 C 58.753906 23.53125 58.539062 23.78125 58.304688 23.9375 C 58.066406 24.105469 57.773438 24.1875 57.429688 24.1875 C 57.234375 24.1875 57.015625 24.144531 56.765625 24.0625 Z M 56.765625 24.0625 "/>
<path style=" stroke:none;fill-rule:nonzero;fill:rgb(0%,0%,0%);fill-opacity:1;" d="M 67.054688 19.667969 L 68.160156 19.792969 C 67.976562 20.433594 67.648438 20.933594 67.179688 21.292969 C 66.722656 21.640625 66.128906 21.8125 65.410156 21.8125 C 64.503906 21.8125 63.785156 21.535156 63.242188 20.980469 C 62.710938 20.410156 62.453125 19.621094 62.453125 18.605469 C 62.453125 17.5625 62.722656 16.761719 63.265625 16.1875 C 63.804688 15.605469 64.503906 15.3125 65.367188 15.3125 C 66.203125 15.3125 66.875 15.597656 67.390625 16.167969 C 67.914062 16.722656 68.179688 17.515625 68.179688 18.542969 C 68.179688 18.613281 68.179688 18.707031 68.179688 18.832031 L 63.535156 18.832031 C 63.578125 19.515625 63.769531 20.035156 64.117188 20.394531 C 64.460938 20.761719 64.898438 20.9375 65.429688 20.9375 C 65.816406 20.9375 66.144531 20.84375 66.410156 20.644531 C 66.6875 20.4375 66.898438 20.113281 67.054688 19.667969 Z M 63.597656 17.957031 L 67.078125 17.957031 C 67.035156 17.433594 66.898438 17.035156 66.679688 16.769531 C 66.347656 16.371094 65.910156 16.167969 65.367188 16.167969 C 64.878906 16.167969 64.472656 16.332031 64.140625 16.667969 C 63.816406 16.988281 63.640625 17.417969 63.597656 17.957031 Z M 63.597656 17.957031 "/>
<path style=" stroke:none;fill-rule:nonzero;fill:rgb(0%,0%,0%);fill-opacity:1;" d="M 69.460938 21.667969 L 69.460938 15.4375 L 70.417969 15.4375 L 70.417969 16.394531 C 70.652344 15.953125 70.875 15.660156 71.085938 15.519531 C 71.292969 15.386719 71.523438 15.3125 71.773438 15.3125 C 72.117188 15.3125 72.480469 15.425781 72.855469 15.644531 L 72.480469 16.625 C 72.230469 16.472656 71.96875 16.394531 71.710938 16.394531 C 71.484375 16.394531 71.277344 16.46875 71.085938 16.605469 C 70.902344 16.746094 70.773438 16.9375 70.6875 17.1875 C 70.574219 17.5625 70.523438 17.972656 70.523438 18.417969 L 70.523438 21.667969 Z M 69.460938 21.667969 "/>
<path style="fill-rule:nonzero;fill:rgb(69.803923%,85.09804%,100%);fill-opacity:1;stroke-width:1;stroke-linecap:round;stroke-linejoin:round;stroke:rgb(0%,0%,0%);stroke-opacity:1;stroke-miterlimit:10;" d="M 212.766602 77.733398 C 217.74707 82.713867 217.74707 90.785156 212.766602 95.765625 C 207.786133 100.746094 199.714844 100.746094 194.734375 95.765625 C 189.753906 90.785156 189.753906 82.713867 194.734375 77.733398 C 199.714844 72.75293 207.786133 72.75293 212.766602 77.733398 " transform="matrix(1.333333,0,0,1.333333,-9.333333,-16)"/>
<path style=" stroke:none;fill-rule:nonzero;fill:rgb(0%,0%,0%);fill-opacity:1;" d="M 260.585938 97.417969 C 260.417969 96.582031 260.273438 96.375 259.980469 96.375 C 259.691406 96.375 259.292969 96.457031 258.566406 96.730469 L 258.441406 96.769531 L 258.480469 96.957031 L 258.691406 96.894531 C 258.917969 96.832031 259.066406 96.8125 259.148438 96.8125 C 259.460938 96.8125 259.542969 96.917969 259.710938 97.625 L 260.042969 99.125 L 259.066406 100.519531 C 258.816406 100.875 258.585938 101.105469 258.441406 101.105469 C 258.378906 101.105469 258.253906 101.0625 258.128906 101 C 257.980469 100.917969 257.855469 100.855469 257.753906 100.855469 C 257.523438 100.855469 257.335938 101.0625 257.335938 101.292969 C 257.335938 101.605469 257.566406 101.792969 257.941406 101.792969 C 258.316406 101.792969 258.566406 101.6875 259.085938 100.980469 L 260.148438 99.5625 L 260.480469 100.980469 C 260.628906 101.582031 260.816406 101.792969 261.191406 101.792969 C 261.648438 101.792969 261.960938 101.519531 262.667969 100.4375 L 262.480469 100.3125 C 262.378906 100.4375 262.335938 100.519531 262.230469 100.667969 C 261.960938 101.019531 261.816406 101.144531 261.667969 101.144531 C 261.503906 101.144531 261.398438 100.980469 261.316406 100.644531 L 260.917969 99.042969 C 260.855469 98.75 260.816406 98.582031 260.816406 98.5 C 261.355469 97.582031 261.792969 97.042969 262.003906 97.042969 C 262.292969 97.042969 262.398438 97.25 262.628906 97.25 C 262.855469 97.25 263.023438 97.0625 263.023438 96.8125 C 263.023438 96.5625 262.835938 96.375 262.542969 96.375 C 262.023438 96.375 261.566406 96.8125 260.730469 98.082031 Z M 260.585938 97.417969 "/>
<path style=" stroke:none;fill-rule:nonzero;fill:rgb(0%,0%,0%);fill-opacity:1;" d="M 263.476562 101.582031 C 263.808594 101 264.183594 100.730469 264.683594 100.730469 C 265.207031 100.730469 265.539062 101.019531 265.539062 101.5625 C 265.539062 102.042969 265.289062 102.394531 264.894531 102.625 C 264.726562 102.730469 264.519531 102.8125 264.226562 102.917969 L 264.226562 103.019531 C 264.683594 103.019531 264.851562 103.042969 265.039062 103.105469 C 265.582031 103.269531 265.871094 103.667969 265.871094 104.269531 C 265.871094 104.9375 265.414062 105.5 264.832031 105.5 C 264.601562 105.5 264.433594 105.457031 264.144531 105.25 C 263.914062 105.082031 263.789062 105.042969 263.644531 105.042969 C 263.476562 105.042969 263.332031 105.144531 263.332031 105.3125 C 263.332031 105.605469 263.644531 105.769531 264.226562 105.769531 C 264.933594 105.769531 265.683594 105.542969 266.082031 105.042969 C 266.308594 104.730469 266.457031 104.332031 266.457031 103.917969 C 266.457031 103.5 266.308594 103.125 266.101562 102.875 C 265.933594 102.707031 265.789062 102.605469 265.433594 102.457031 C 265.957031 102.144531 266.164062 101.730469 266.164062 101.355469 C 266.164062 100.707031 265.664062 100.25 264.933594 100.25 C 264.101562 100.25 263.582031 100.792969 263.351562 101.5625 Z M 263.476562 101.582031 "/>
<path style="fill-rule:nonzero;fill:rgb(69.803923%,85.09804%,100%);fill-opacity:1;stroke-width:1;stroke-linecap:round;stroke-linejoin:round;stroke:rgb(0%,0%,0%);stroke-opacity:1;stroke-miterlimit:10;" d="M 265.641602 76.983398 C 270.62207 81.963867 270.62207 90.035156 265.641602 95.015625 C 260.661133 99.996094 252.589844 99.996094 247.609375 95.015625 C 242.628906 90.035156 242.628906 81.963867 247.609375 76.983398 C 252.589844 72.00293 260.661133 72.00293 265.641602 76.983398 " transform="matrix(1.333333,0,0,1.333333,-9.333333,-16)"/>
<path style=" stroke:none;fill-rule:nonzero;fill:rgb(0%,0%,0%);fill-opacity:1;" d="M 331.085938 96.417969 C 330.917969 95.582031 330.773438 95.375 330.480469 95.375 C 330.191406 95.375 329.792969 95.457031 329.066406 95.730469 L 328.941406 95.769531 L 328.980469 95.957031 L 329.191406 95.894531 C 329.417969 95.832031 329.566406 95.8125 329.648438 95.8125 C 329.960938 95.8125 330.042969 95.917969 330.210938 96.625 L 330.542969 98.125 L 329.566406 99.519531 C 329.316406 99.875 329.085938 100.105469 328.941406 100.105469 C 328.878906 100.105469 328.753906 100.0625 328.628906 100 C 328.480469 99.917969 328.355469 99.855469 328.253906 99.855469 C 328.023438 99.855469 327.835938 100.0625 327.835938 100.292969 C 327.835938 100.605469 328.066406 100.792969 328.441406 100.792969 C 328.816406 100.792969 329.066406 100.6875 329.585938 99.980469 L 330.648438 98.5625 L 330.980469 99.980469 C 331.128906 100.582031 331.316406 100.792969 331.691406 100.792969 C 332.148438 100.792969 332.460938 100.519531 333.167969 99.4375 L 332.980469 99.3125 C 332.878906 99.4375 332.835938 99.519531 332.730469 99.667969 C 332.460938 100.019531 332.316406 100.144531 332.167969 100.144531 C 332.003906 100.144531 331.898438 99.980469 331.816406 99.644531 L 331.417969 98.042969 C 331.355469 97.75 331.316406 97.582031 331.316406 97.5 C 331.855469 96.582031 332.292969 96.042969 332.503906 96.042969 C 332.792969 96.042969 332.898438 96.25 333.128906 96.25 C 333.355469 96.25 333.523438 96.0625 333.523438 95.8125 C 333.523438 95.5625 333.335938 95.375 333.042969 95.375 C 332.523438 95.375 332.066406 95.8125 331.230469 97.082031 Z M 331.085938 96.417969 "/>
<path style=" stroke:none;fill-rule:nonzero;fill:rgb(0%,0%,0%);fill-opacity:1;" d="M 337.289062 103.332031 L 337.289062 102.8125 L 336.457031 102.8125 L 336.457031 99.25 L 336.101562 99.25 L 333.601562 102.8125 L 333.601562 103.332031 L 335.832031 103.332031 L 335.832031 104.667969 L 336.457031 104.667969 L 336.457031 103.332031 Z M 335.832031 102.8125 L 333.914062 102.8125 L 335.832031 100.082031 Z M 335.832031 102.8125 "/>
<path style="fill-rule:nonzero;fill:rgb(40.000001%,74.901962%,100%);fill-opacity:1;stroke-width:1;stroke-linecap:round;stroke-linejoin:round;stroke:rgb(0%,0%,0%);stroke-opacity:1;stroke-miterlimit:10;" d="M 231.264648 16.734375 C 236.245117 21.714844 236.245117 29.786133 231.264648 34.766602 C 226.28418 39.74707 218.21582 39.74707 213.235352 34.766602 C 208.254883 29.786133 208.254883 21.714844 213.235352 16.734375 C 218.21582 11.753906 226.28418 11.753906 231.264648 16.734375 " transform="matrix(1.333333,0,0,1.333333,-9.333333,-16)"/>
<path style=" stroke:none;fill-rule:nonzero;fill:rgb(0%,0%,0%);fill-opacity:1;" d="M 287.625 16.730469 C 287.625 15.667969 286.894531 15.042969 285.917969 15.042969 C 285.4375 15.042969 284.957031 15.144531 284.480469 15.394531 C 283.230469 16.082031 282.332031 17.457031 282.332031 18.792969 C 282.332031 19.832031 282.957031 20.457031 284.082031 20.457031 C 284.875 20.457031 285.644531 20.167969 286.355469 19.480469 C 287.144531 18.6875 287.625 17.625 287.625 16.730469 Z M 286.605469 16.417969 C 286.605469 17.332031 286.269531 18.457031 285.730469 19.207031 C 285.25 19.875 284.792969 20.207031 284.269531 20.207031 C 283.707031 20.207031 283.332031 19.832031 283.332031 19.125 C 283.332031 18.167969 283.667969 17.230469 284.230469 16.375 C 284.707031 15.667969 285.230469 15.292969 285.75 15.292969 C 286.269531 15.292969 286.605469 15.6875 286.605469 16.417969 Z M 286.605469 16.417969 "/>
<path style=" stroke:none;fill-rule:nonzero;fill:rgb(0%,0%,0%);fill-opacity:1;" d="M 288.480469 20.25 C 288.8125 19.667969 289.1875 19.394531 289.6875 19.394531 C 290.207031 19.394531 290.542969 19.6875 290.542969 20.230469 C 290.542969 20.707031 290.292969 21.0625 289.894531 21.292969 C 289.730469 21.394531 289.519531 21.480469 289.230469 21.582031 L 289.230469 21.6875 C 289.6875 21.6875 289.855469 21.707031 290.042969 21.769531 C 290.582031 21.9375 290.875 22.332031 290.875 22.9375 C 290.875 23.605469 290.417969 24.167969 289.832031 24.167969 C 289.605469 24.167969 289.4375 24.125 289.144531 23.917969 C 288.917969 23.75 288.792969 23.707031 288.644531 23.707031 C 288.480469 23.707031 288.332031 23.8125 288.332031 23.980469 C 288.332031 24.269531 288.644531 24.4375 289.230469 24.4375 C 289.9375 24.4375 290.6875 24.207031 291.082031 23.707031 C 291.3125 23.394531 291.457031 23 291.457031 22.582031 C 291.457031 22.167969 291.3125 21.792969 291.105469 21.542969 C 290.9375 21.375 290.792969 21.269531 290.4375 21.125 C 290.957031 20.8125 291.167969 20.394531 291.167969 20.019531 C 291.167969 19.375 290.667969 18.917969 289.9375 18.917969 C 289.105469 18.917969 288.582031 19.457031 288.355469 20.230469 Z M 288.480469 20.25 "/>
<path style="fill-rule:nonzero;fill:rgb(40.000001%,74.901962%,100%);fill-opacity:1;stroke-width:1;stroke-linecap:round;stroke-linejoin:round;stroke:rgb(0%,0%,0%);stroke-opacity:1;stroke-miterlimit:10;" d="M 185.640625 16.734375 C 190.621094 21.714844 190.621094 29.786133 185.640625 34.766602 C 180.660156 39.74707 172.588867 39.74707 167.608398 34.766602 C 162.62793 29.786133 162.62793 21.714844 167.608398 16.734375 C 172.588867 11.753906 180.660156 11.753906 185.640625 16.734375 " transform="matrix(1.333333,0,0,1.333333,-9.333333,-16)"/>
<path style=" stroke:none;fill-rule:nonzero;fill:rgb(0%,0%,0%);fill-opacity:1;" d="M 226.792969 16.730469 C 226.792969 15.667969 226.0625 15.042969 225.082031 15.042969 C 224.605469 15.042969 224.125 15.144531 223.644531 15.394531 C 222.394531 16.082031 221.5 17.457031 221.5 18.792969 C 221.5 19.832031 222.125 20.457031 223.25 20.457031 C 224.042969 20.457031 224.8125 20.167969 225.519531 19.480469 C 226.3125 18.6875 226.792969 17.625 226.792969 16.730469 Z M 225.769531 16.417969 C 225.769531 17.332031 225.4375 18.457031 224.894531 19.207031 C 224.417969 19.875 223.957031 20.207031 223.4375 20.207031 C 222.875 20.207031 222.5 19.832031 222.5 19.125 C 222.5 18.167969 222.832031 17.230469 223.394531 16.375 C 223.875 15.667969 224.394531 15.292969 224.917969 15.292969 C 225.4375 15.292969 225.769531 15.6875 225.769531 16.417969 Z M 225.769531 16.417969 "/>
<path style=" stroke:none;fill-rule:nonzero;fill:rgb(0%,0%,0%);fill-opacity:1;" d="M 230.957031 23.230469 L 230.855469 23.1875 C 230.582031 23.644531 230.417969 23.730469 230.082031 23.730469 L 228.207031 23.730469 L 229.519531 22.3125 C 230.230469 21.5625 230.542969 20.957031 230.542969 20.332031 C 230.542969 19.542969 229.980469 18.917969 229.0625 18.917969 C 228.082031 18.917969 227.582031 19.582031 227.417969 20.519531 L 227.582031 20.5625 C 227.894531 19.769531 228.167969 19.519531 228.75 19.519531 C 229.4375 19.519531 229.855469 19.917969 229.855469 20.644531 C 229.855469 21.332031 229.582031 21.9375 228.8125 22.730469 L 227.394531 24.230469 L 227.394531 24.332031 L 230.519531 24.332031 Z M 230.957031 23.230469 "/>
<path style="fill:none;stroke-width:1;stroke-linecap:round;stroke-linejoin:round;stroke:rgb(0%,0%,0%);stroke-opacity:1;stroke-miterlimit:10;" d="M 104.066406 75.530273 L 122.125 42.155273 " transform="matrix(1.333333,0,0,1.333333,-9.333333,-16)"/>
<path style="fill:none;stroke-width:1;stroke-linecap:butt;stroke-linejoin:miter;stroke:rgb(0%,0%,0%);stroke-opacity:1;stroke-miterlimit:10;" d="M 124.026367 38.636719 L 122.125 42.155273 M 120.803711 41.44043 L 124.026367 38.636719 L 123.446289 42.870117 " transform="matrix(1.333333,0,0,1.333333,-9.333333,-16)"/>
<path style="fill:none;stroke-width:1;stroke-linecap:round;stroke-linejoin:round;stroke:rgb(0%,0%,0%);stroke-opacity:1;stroke-miterlimit:10;" d="M 108.074219 78.93457 L 161.889648 37.183594 " transform="matrix(1.333333,0,0,1.333333,-9.333333,-16)"/>
<path style="fill:none;stroke-width:1;stroke-linecap:butt;stroke-linejoin:miter;stroke:rgb(0%,0%,0%);stroke-opacity:1;stroke-miterlimit:10;" d="M 165.050781 34.731445 L 161.889648 37.183594 M 160.969727 35.99707 L 165.050781 34.731445 L 162.80957 38.367188 " transform="matrix(1.333333,0,0,1.333333,-9.333333,-16)"/>
<path style="fill:none;stroke-width:1;stroke-linecap:round;stroke-linejoin:round;stroke:rgb(0%,0%,0%);stroke-opacity:1;stroke-miterlimit:10;" d="M 109.448242 81.128906 L 205.503906 33.969727 " transform="matrix(1.333333,0,0,1.333333,-9.333333,-16)"/>
<path style="fill:none;stroke-width:1;stroke-linecap:butt;stroke-linejoin:miter;stroke:rgb(0%,0%,0%);stroke-opacity:1;stroke-miterlimit:10;" d="M 209.098633 32.206055 L 205.503906 33.969727 M 204.844727 32.625 L 209.098633 32.206055 L 206.168945 35.317383 " transform="matrix(1.333333,0,0,1.333333,-9.333333,-16)"/>
<path style="fill:none;stroke-width:1;stroke-linecap:round;stroke-linejoin:round;stroke:rgb(0%,0%,0%);stroke-opacity:1;stroke-miterlimit:10;" d="M 146.924805 74.625 L 136.776367 43.485352 " transform="matrix(1.333333,0,0,1.333333,-9.333333,-16)"/>
<path style="fill:none;stroke-width:1;stroke-linecap:butt;stroke-linejoin:miter;stroke:rgb(0%,0%,0%);stroke-opacity:1;stroke-miterlimit:10;" d="M 135.540039 39.682617 L 136.776367 43.485352 M 135.352539 43.948242 L 135.540039 39.682617 L 138.203125 43.019531 " transform="matrix(1.333333,0,0,1.333333,-9.333333,-16)"/>
<path style="fill:none;stroke-width:1;stroke-linecap:round;stroke-linejoin:round;stroke:rgb(0%,0%,0%);stroke-opacity:1;stroke-miterlimit:10;" d="M 155.836914 75 L 169.37207 42.93457 " transform="matrix(1.333333,0,0,1.333333,-9.333333,-16)"/>
<path style="fill:none;stroke-width:1;stroke-linecap:butt;stroke-linejoin:miter;stroke:rgb(0%,0%,0%);stroke-opacity:1;stroke-miterlimit:10;" d="M 170.924805 39.249023 L 169.37207 42.93457 M 167.989258 42.351562 L 170.924805 39.249023 L 170.754883 43.520508 " transform="matrix(1.333333,0,0,1.333333,-9.333333,-16)"/>
<path style="fill:none;stroke-width:1;stroke-linecap:round;stroke-linejoin:round;stroke:rgb(0%,0%,0%);stroke-opacity:1;stroke-miterlimit:10;" d="M 160.56543 78.46582 L 208.070312 37.866211 " transform="matrix(1.333333,0,0,1.333333,-9.333333,-16)"/>
<path style="fill:none;stroke-width:1;stroke-linecap:butt;stroke-linejoin:miter;stroke:rgb(0%,0%,0%);stroke-opacity:1;stroke-miterlimit:10;" d="M 211.114258 35.270508 L 208.070312 37.866211 M 207.097656 36.726562 L 211.114258 35.270508 L 209.045898 39.008789 " transform="matrix(1.333333,0,0,1.333333,-9.333333,-16)"/>
<path style="fill:none;stroke-width:1;stroke-linecap:round;stroke-linejoin:round;stroke:rgb(0%,0%,0%);stroke-opacity:1;stroke-miterlimit:10;" d="M 193.981445 78.55957 L 145.292969 37.734375 " transform="matrix(1.333333,0,0,1.333333,-9.333333,-16)"/>
<path style="fill:none;stroke-width:1;stroke-linecap:butt;stroke-linejoin:miter;stroke:rgb(0%,0%,0%);stroke-opacity:1;stroke-miterlimit:10;" d="M 142.225586 35.165039 L 145.292969 37.734375 M 144.329102 38.882812 L 142.225586 35.165039 L 146.253906 36.583008 " transform="matrix(1.333333,0,0,1.333333,-9.333333,-16)"/>
<path style="fill:none;stroke-width:1;stroke-linecap:round;stroke-linejoin:round;stroke:rgb(0%,0%,0%);stroke-opacity:1;stroke-miterlimit:10;" d="M 198.566406 75.09668 L 184.202148 42.793945 " transform="matrix(1.333333,0,0,1.333333,-9.333333,-16)"/>
<path style="fill:none;stroke-width:1;stroke-linecap:butt;stroke-linejoin:miter;stroke:rgb(0%,0%,0%);stroke-opacity:1;stroke-miterlimit:10;" d="M 182.579102 39.140625 L 184.202148 42.793945 M 182.831055 43.40332 L 182.579102 39.140625 L 185.573242 42.18457 " transform="matrix(1.333333,0,0,1.333333,-9.333333,-16)"/>
<path style="fill:none;stroke-width:1;stroke-linecap:round;stroke-linejoin:round;stroke:rgb(0%,0%,0%);stroke-opacity:1;stroke-miterlimit:10;" d="M 207.449219 74.545898 L 216.835937 43.602539 " transform="matrix(1.333333,0,0,1.333333,-9.333333,-16)"/>
<path style="fill:none;stroke-width:1;stroke-linecap:butt;stroke-linejoin:miter;stroke:rgb(0%,0%,0%);stroke-opacity:1;stroke-miterlimit:10;" d="M 217.996094 39.773438 L 216.835937 43.602539 M 215.40332 43.163086 L 217.996094 39.773438 L 218.274414 44.036133 " transform="matrix(1.333333,0,0,1.333333,-9.333333,-16)"/>
<path style="fill:none;stroke-width:1;stroke-linecap:round;stroke-linejoin:round;stroke:rgb(0%,0%,0%);stroke-opacity:1;stroke-miterlimit:10;" d="M 245.125 80.484375 L 147.821289 33.817383 " transform="matrix(1.333333,0,0,1.333333,-9.333333,-16)"/>
<path style="fill:none;stroke-width:1;stroke-linecap:butt;stroke-linejoin:miter;stroke:rgb(0%,0%,0%);stroke-opacity:1;stroke-miterlimit:10;" d="M 144.211914 32.085938 L 147.821289 33.817383 M 147.170898 35.167969 L 144.211914 32.085938 L 148.46875 32.463867 " transform="matrix(1.333333,0,0,1.333333,-9.333333,-16)"/>
<path style="fill:none;stroke-width:1;stroke-linecap:round;stroke-linejoin:round;stroke:rgb(0%,0%,0%);stroke-opacity:1;stroke-miterlimit:10;" d="M 246.4375 78.328125 L 191.523437 36.972656 " transform="matrix(1.333333,0,0,1.333333,-9.333333,-16)"/>
<path style="fill:none;stroke-width:1;stroke-linecap:butt;stroke-linejoin:miter;stroke:rgb(0%,0%,0%);stroke-opacity:1;stroke-miterlimit:10;" d="M 188.327148 34.561523 L 191.523437 36.972656 M 190.621094 38.167969 L 188.327148 34.561523 L 192.425781 35.774414 " transform="matrix(1.333333,0,0,1.333333,-9.333333,-16)"/>
<path style="fill:none;stroke-width:1;stroke-linecap:round;stroke-linejoin:round;stroke:rgb(0%,0%,0%);stroke-opacity:1;stroke-miterlimit:10;" d="M 250.304687 74.920898 L 231.493164 41.953125 " transform="matrix(1.333333,0,0,1.333333,-9.333333,-16)"/>
<path style="fill:none;stroke-width:1;stroke-linecap:butt;stroke-linejoin:miter;stroke:rgb(0%,0%,0%);stroke-opacity:1;stroke-miterlimit:10;" d="M 229.512695 38.475586 L 231.493164 41.953125 M 230.192383 42.694336 L 229.512695 38.475586 L 232.796875 41.206055 " transform="matrix(1.333333,0,0,1.333333,-9.333333,-16)"/>
</g>
</svg>
