<?xml version="1.0" encoding="UTF-8"?>
<svg xmlns="http://www.w3.org/2000/svg" xmlns:xlink="http://www.w3.org/1999/xlink" width="229.333333" height="146.666667" viewBox="0 0 229.333333 146.666667" version="1.1">
<g id="surface1">
<path style="fill:none;stroke-width:1;stroke-linecap:round;stroke-linejoin:round;stroke:rgb(0%,0%,0%);stroke-opacity:1;stroke-miterlimit:10;" d="M 243 62.999023 L 333 62.999023 L 333 98.999023 L 243 98.999023 Z M 243 62.999023 " transform="matrix(1.333333,0,0,1.333333,-252,-82.666667)"/>
<path style="fill:none;stroke-width:1;stroke-linecap:round;stroke-linejoin:round;stroke:rgb(0%,0%,0%);stroke-opacity:1;stroke-miterlimit:10;" d="M 261 71.999023 L 351 71.999023 L 351 107.999023 L 261 107.999023 Z M 261 71.999023 " transform="matrix(1.333333,0,0,1.333333,-252,-82.666667)"/>
<path style="fill-rule:nonzero;fill:rgb(40.000001%,74.901962%,100%);fill-opacity:1;stroke-width:1;stroke-linecap:round;stroke-linejoin:round;stroke:rgb(0%,0%,0%);stroke-opacity:1;stroke-miterlimit:10;" d="M 261 98.999023 L 333 98.999023 L 333 71.999023 L 261 71.999023 Z M 261 98.999023 " transform="matrix(1.333333,0,0,1.333333,-252,-82.666667)"/>
<path style=" stroke:none;fill-rule:nonzero;fill:rgb(0%,0%,0%);fill-opacity:1;" d="M 114.109375 35.136719 L 114.109375 26.554688 L 115.234375 26.554688 L 115.234375 35.136719 Z M 114.109375 35.136719 "/>
<path style=" stroke:none;fill-rule:nonzero;fill:rgb(0%,0%,0%);fill-opacity:1;" d="M 117.109375 35.136719 L 117.109375 28.90625 L 118.066406 28.90625 L 118.066406 29.804688 C 118.507812 29.125 119.171875 28.78125 120.046875 28.78125 C 120.421875 28.78125 120.757812 28.855469 121.066406 28.992188 C 121.382812 29.117188 121.617188 29.292969 121.773438 29.511719 C 121.925781 29.71875 122.035156 29.980469 122.109375 30.28125 C 122.148438 30.480469 122.171875 30.820312 122.171875 31.304688 L 122.171875 35.136719 L 121.109375 35.136719 L 121.109375 31.34375 C 121.109375 30.917969 121.066406 30.59375 120.984375 30.386719 C 120.898438 30.179688 120.753906 30.011719 120.546875 29.886719 C 120.335938 29.75 120.09375 29.679688 119.816406 29.679688 C 119.367188 29.679688 118.984375 29.824219 118.648438 30.117188 C 118.328125 30.398438 118.171875 30.9375 118.171875 31.742188 L 118.171875 35.136719 Z M 117.109375 35.136719 "/>
<path style=" stroke:none;fill-rule:nonzero;fill:rgb(0%,0%,0%);fill-opacity:1;" d="M 126.09375 34.199219 L 126.242188 35.117188 C 125.933594 35.183594 125.667969 35.21875 125.449219 35.21875 C 125.058594 35.21875 124.761719 35.15625 124.554688 35.03125 C 124.34375 34.90625 124.1875 34.75 124.09375 34.554688 C 124.011719 34.359375 123.96875 33.949219 123.96875 33.324219 L 123.96875 29.742188 L 123.199219 29.742188 L 123.199219 28.90625 L 123.96875 28.90625 L 123.96875 27.367188 L 125.03125 26.742188 L 125.03125 28.90625 L 126.09375 28.90625 L 126.09375 29.742188 L 125.03125 29.742188 L 125.03125 33.367188 C 125.03125 33.671875 125.042969 33.867188 125.074219 33.949219 C 125.117188 34.03125 125.179688 34.105469 125.261719 34.15625 C 125.34375 34.214844 125.460938 34.242188 125.617188 34.242188 C 125.742188 34.242188 125.898438 34.230469 126.09375 34.199219 Z M 126.09375 34.199219 "/>
<path style=" stroke:none;fill-rule:nonzero;fill:rgb(0%,0%,0%);fill-opacity:1;" d="M 131.367188 33.136719 L 132.472656 33.261719 C 132.289062 33.902344 131.960938 34.402344 131.492188 34.761719 C 131.035156 35.109375 130.441406 35.28125 129.722656 35.28125 C 128.816406 35.28125 128.097656 35.007812 127.554688 34.449219 C 127.023438 33.882812 126.761719 33.089844 126.761719 32.074219 C 126.761719 31.03125 127.035156 30.230469 127.574219 29.65625 C 128.117188 29.074219 128.816406 28.78125 129.679688 28.78125 C 130.511719 28.78125 131.183594 29.070312 131.699219 29.636719 C 132.226562 30.195312 132.492188 30.984375 132.492188 32.011719 C 132.492188 32.085938 132.492188 32.179688 132.492188 32.304688 L 127.847656 32.304688 C 127.886719 32.984375 128.082031 33.507812 128.429688 33.867188 C 128.773438 34.230469 129.210938 34.40625 129.742188 34.40625 C 130.128906 34.40625 130.457031 34.3125 130.722656 34.117188 C 130.996094 33.90625 131.210938 33.585938 131.367188 33.136719 Z M 127.910156 31.429688 L 131.386719 31.429688 C 131.347656 30.902344 131.210938 30.507812 130.992188 30.242188 C 130.660156 29.839844 130.222656 29.636719 129.679688 29.636719 C 129.191406 29.636719 128.785156 29.804688 128.449219 30.136719 C 128.128906 30.460938 127.949219 30.886719 127.910156 31.429688 Z M 127.910156 31.429688 "/>
<path style=" stroke:none;fill-rule:nonzero;fill:rgb(0%,0%,0%);fill-opacity:1;" d="M 133.769531 35.136719 L 133.769531 28.90625 L 134.726562 28.90625 L 134.726562 29.867188 C 134.960938 29.421875 135.1875 29.132812 135.394531 28.992188 C 135.601562 28.855469 135.832031 28.78125 136.082031 28.78125 C 136.425781 28.78125 136.789062 28.898438 137.164062 29.117188 L 136.789062 30.09375 C 136.539062 29.945312 136.28125 29.867188 136.019531 29.867188 C 135.796875 29.867188 135.585938 29.9375 135.394531 30.074219 C 135.210938 30.214844 135.082031 30.40625 135 30.65625 C 134.882812 31.03125 134.832031 31.445312 134.832031 31.886719 L 134.832031 35.136719 Z M 133.769531 35.136719 "/>
<path style=" stroke:none;fill-rule:nonzero;fill:rgb(0%,0%,0%);fill-opacity:1;" d="M 137.371094 33.28125 L 138.410156 33.117188 C 138.464844 33.53125 138.625 33.855469 138.890625 34.074219 C 139.167969 34.296875 139.542969 34.40625 140.015625 34.40625 C 140.5 34.40625 140.859375 34.3125 141.097656 34.117188 C 141.332031 33.921875 141.453125 33.695312 141.453125 33.429688 C 141.453125 33.179688 141.347656 32.992188 141.140625 32.867188 C 140.984375 32.773438 140.625 32.648438 140.058594 32.492188 C 139.277344 32.296875 138.734375 32.132812 138.433594 31.992188 C 138.140625 31.855469 137.917969 31.65625 137.765625 31.40625 C 137.609375 31.15625 137.535156 30.882812 137.535156 30.574219 C 137.535156 30.296875 137.597656 30.042969 137.722656 29.804688 C 137.847656 29.570312 138.019531 29.367188 138.246094 29.199219 C 138.410156 29.089844 138.628906 28.992188 138.910156 28.90625 C 139.203125 28.824219 139.503906 28.78125 139.828125 28.78125 C 140.3125 28.78125 140.734375 28.855469 141.097656 28.992188 C 141.472656 29.132812 141.75 29.320312 141.933594 29.554688 C 142.109375 29.792969 142.234375 30.109375 142.308594 30.511719 L 141.265625 30.65625 C 141.222656 30.339844 141.082031 30.089844 140.847656 29.90625 C 140.625 29.730469 140.3125 29.636719 139.910156 29.636719 C 139.421875 29.636719 139.078125 29.71875 138.871094 29.886719 C 138.660156 30.042969 138.558594 30.230469 138.558594 30.449219 C 138.558594 30.589844 138.597656 30.710938 138.683594 30.804688 C 138.765625 30.929688 138.902344 31.027344 139.097656 31.09375 C 139.191406 31.136719 139.5 31.230469 140.015625 31.367188 C 140.765625 31.5625 141.285156 31.71875 141.578125 31.84375 C 141.878906 31.96875 142.121094 32.15625 142.285156 32.40625 C 142.453125 32.648438 142.535156 32.945312 142.535156 33.304688 C 142.535156 33.667969 142.433594 34 142.222656 34.304688 C 142.015625 34.609375 141.714844 34.855469 141.328125 35.03125 C 140.953125 35.199219 140.515625 35.28125 140.015625 35.28125 C 139.207031 35.28125 138.589844 35.117188 138.160156 34.78125 C 137.746094 34.4375 137.480469 33.9375 137.371094 33.28125 Z M 137.371094 33.28125 "/>
<path style=" stroke:none;fill-rule:nonzero;fill:rgb(0%,0%,0%);fill-opacity:1;" d="M 148.035156 33.136719 L 149.140625 33.261719 C 148.957031 33.902344 148.628906 34.402344 148.160156 34.761719 C 147.703125 35.109375 147.109375 35.28125 146.390625 35.28125 C 145.484375 35.28125 144.765625 35.007812 144.222656 34.449219 C 143.691406 33.882812 143.433594 33.089844 143.433594 32.074219 C 143.433594 31.03125 143.703125 30.230469 144.246094 29.65625 C 144.785156 29.074219 145.484375 28.78125 146.347656 28.78125 C 147.183594 28.78125 147.855469 29.070312 148.371094 29.636719 C 148.894531 30.195312 149.160156 30.984375 149.160156 32.011719 C 149.160156 32.085938 149.160156 32.179688 149.160156 32.304688 L 144.515625 32.304688 C 144.558594 32.984375 144.75 33.507812 145.097656 33.867188 C 145.441406 34.230469 145.878906 34.40625 146.410156 34.40625 C 146.796875 34.40625 147.125 34.3125 147.390625 34.117188 C 147.667969 33.90625 147.878906 33.585938 148.035156 33.136719 Z M 144.578125 31.429688 L 148.058594 31.429688 C 148.015625 30.902344 147.878906 30.507812 147.660156 30.242188 C 147.328125 29.839844 146.890625 29.636719 146.347656 29.636719 C 145.859375 29.636719 145.453125 29.804688 145.121094 30.136719 C 144.796875 30.460938 144.621094 30.886719 144.578125 31.429688 Z M 144.578125 31.429688 "/>
<path style=" stroke:none;fill-rule:nonzero;fill:rgb(0%,0%,0%);fill-opacity:1;" d="M 154.523438 32.867188 L 155.566406 32.992188 C 155.449219 33.714844 155.160156 34.277344 154.691406 34.679688 C 154.214844 35.085938 153.636719 35.28125 152.960938 35.28125 C 152.113281 35.28125 151.429688 35.007812 150.917969 34.449219 C 150.402344 33.898438 150.148438 33.09375 150.148438 32.054688 C 150.148438 31.375 150.257812 30.78125 150.480469 30.28125 C 150.699219 29.78125 151.035156 29.40625 151.480469 29.15625 C 151.941406 28.90625 152.441406 28.78125 152.980469 28.78125 C 153.648438 28.78125 154.195312 28.960938 154.628906 29.304688 C 155.054688 29.636719 155.335938 30.117188 155.460938 30.742188 L 154.441406 30.90625 C 154.339844 30.492188 154.167969 30.179688 153.917969 29.96875 C 153.667969 29.75 153.367188 29.636719 153.023438 29.636719 C 152.480469 29.636719 152.042969 29.835938 151.710938 30.21875 C 151.386719 30.59375 151.230469 31.195312 151.230469 32.011719 C 151.230469 32.859375 151.386719 33.46875 151.710938 33.84375 C 152.027344 34.21875 152.445312 34.40625 152.960938 34.40625 C 153.378906 34.40625 153.722656 34.28125 154.003906 34.03125 C 154.277344 33.78125 154.449219 33.398438 154.523438 32.867188 Z M 154.523438 32.867188 "/>
<path style=" stroke:none;fill-rule:nonzero;fill:rgb(0%,0%,0%);fill-opacity:1;" d="M 158.773438 34.199219 L 158.917969 35.117188 C 158.613281 35.183594 158.347656 35.21875 158.128906 35.21875 C 157.738281 35.21875 157.441406 35.15625 157.230469 35.03125 C 157.023438 34.90625 156.867188 34.75 156.773438 34.554688 C 156.691406 34.359375 156.648438 33.949219 156.648438 33.324219 L 156.648438 29.742188 L 155.878906 29.742188 L 155.878906 28.90625 L 156.648438 28.90625 L 156.648438 27.367188 L 157.710938 26.742188 L 157.710938 28.90625 L 158.773438 28.90625 L 158.773438 29.742188 L 157.710938 29.742188 L 157.710938 33.367188 C 157.710938 33.671875 157.722656 33.867188 157.753906 33.949219 C 157.792969 34.03125 157.855469 34.105469 157.941406 34.15625 C 158.023438 34.214844 158.136719 34.242188 158.292969 34.242188 C 158.417969 34.242188 158.574219 34.230469 158.773438 34.199219 Z M 158.773438 34.199219 "/>
<path style=" stroke:none;fill-rule:nonzero;fill:rgb(0%,0%,0%);fill-opacity:1;" d="M 159.796875 27.761719 L 159.796875 26.554688 L 160.859375 26.554688 L 160.859375 27.761719 Z M 159.796875 35.136719 L 159.796875 28.90625 L 160.859375 28.90625 L 160.859375 35.136719 Z M 159.796875 35.136719 "/>
<path style=" stroke:none;fill-rule:nonzero;fill:rgb(0%,0%,0%);fill-opacity:1;" d="M 162.066406 32.03125 C 162.066406 30.882812 162.382812 30.027344 163.023438 29.46875 C 163.566406 29.011719 164.214844 28.78125 164.980469 28.78125 C 165.839844 28.78125 166.542969 29.0625 167.085938 29.617188 C 167.628906 30.171875 167.898438 30.945312 167.898438 31.929688 C 167.898438 32.734375 167.773438 33.367188 167.523438 33.824219 C 167.285156 34.28125 166.941406 34.648438 166.480469 34.90625 C 166.023438 35.15625 165.523438 35.28125 164.980469 35.28125 C 164.105469 35.28125 163.398438 35.007812 162.855469 34.449219 C 162.324219 33.882812 162.066406 33.074219 162.066406 32.03125 Z M 163.148438 32.03125 C 163.148438 32.824219 163.320312 33.421875 163.667969 33.824219 C 164.011719 34.214844 164.449219 34.40625 164.980469 34.40625 C 165.507812 34.40625 165.945312 34.214844 166.292969 33.824219 C 166.636719 33.421875 166.816406 32.8125 166.816406 31.992188 C 166.816406 31.230469 166.636719 30.648438 166.292969 30.242188 C 165.945312 29.839844 165.507812 29.636719 164.980469 29.636719 C 164.449219 29.636719 164.011719 29.839844 163.667969 30.242188 C 163.320312 30.632812 163.148438 31.230469 163.148438 32.03125 Z M 163.148438 32.03125 "/>
<path style=" stroke:none;fill-rule:nonzero;fill:rgb(0%,0%,0%);fill-opacity:1;" d="M 169.136719 35.136719 L 169.136719 28.90625 L 170.09375 28.90625 L 170.09375 29.804688 C 170.535156 29.125 171.199219 28.78125 172.074219 28.78125 C 172.449219 28.78125 172.785156 28.855469 173.09375 28.992188 C 173.410156 29.117188 173.644531 29.292969 173.800781 29.511719 C 173.953125 29.71875 174.0625 29.980469 174.136719 30.28125 C 174.175781 30.480469 174.199219 30.820312 174.199219 31.304688 L 174.199219 35.136719 L 173.136719 35.136719 L 173.136719 31.34375 C 173.136719 30.917969 173.09375 30.59375 173.011719 30.386719 C 172.925781 30.179688 172.78125 30.011719 172.574219 29.886719 C 172.363281 29.75 172.121094 29.679688 171.84375 29.679688 C 171.394531 29.679688 171.011719 29.824219 170.675781 30.117188 C 170.355469 30.398438 170.199219 30.9375 170.199219 31.742188 L 170.199219 35.136719 Z M 169.136719 35.136719 "/>
<path style=" stroke:none;fill-rule:nonzero;fill:rgb(0%,0%,0%);fill-opacity:1;" d="M 11.488281 78.667969 L 11.488281 67.207031 L 12.988281 67.207031 L 12.988281 78.667969 Z M 11.488281 78.667969 "/>
<path style=" stroke:none;fill-rule:nonzero;fill:rgb(0%,0%,0%);fill-opacity:1;" d="M 14.976562 74.519531 C 14.976562 72.980469 15.398438 71.84375 16.246094 71.105469 C 16.957031 70.496094 17.820312 70.1875 18.851562 70.1875 C 19.988281 70.1875 20.917969 70.5625 21.644531 71.3125 C 22.378906 72.050781 22.746094 73.078125 22.746094 74.394531 C 22.746094 75.46875 22.585938 76.308594 22.269531 76.917969 C 21.945312 77.53125 21.476562 78.011719 20.851562 78.355469 C 20.238281 78.6875 19.570312 78.855469 18.851562 78.855469 C 17.695312 78.855469 16.757812 78.488281 16.039062 77.75 C 15.332031 77 14.976562 75.925781 14.976562 74.519531 Z M 16.414062 74.519531 C 16.414062 75.578125 16.644531 76.371094 17.101562 76.894531 C 17.570312 77.425781 18.152344 77.6875 18.851562 77.6875 C 19.558594 77.6875 20.144531 77.425781 20.601562 76.894531 C 21.058594 76.371094 21.289062 75.5625 21.289062 74.480469 C 21.289062 73.453125 21.050781 72.675781 20.582031 72.144531 C 20.121094 71.621094 19.542969 71.355469 18.851562 71.355469 C 18.152344 71.355469 17.570312 71.621094 17.101562 72.144531 C 16.644531 72.660156 16.414062 73.453125 16.414062 74.519531 Z M 16.414062 74.519531 "/>
<path style=" stroke:none;fill-rule:nonzero;fill:rgb(0%,0%,0%);fill-opacity:1;" d="M 32.082031 67.207031 L 33.605469 67.207031 L 33.605469 73.832031 C 33.605469 74.988281 33.46875 75.90625 33.207031 76.582031 C 32.941406 77.25 32.46875 77.800781 31.792969 78.230469 C 31.109375 78.644531 30.21875 78.855469 29.125 78.855469 C 28.050781 78.855469 27.171875 78.671875 26.480469 78.3125 C 25.796875 77.9375 25.3125 77.40625 25.019531 76.707031 C 24.730469 76 24.582031 75.042969 24.582031 73.832031 L 24.582031 67.207031 L 26.105469 67.207031 L 26.105469 73.8125 C 26.105469 74.8125 26.191406 75.550781 26.375 76.019531 C 26.566406 76.496094 26.886719 76.863281 27.332031 77.125 C 27.792969 77.375 28.34375 77.5 29 77.5 C 30.109375 77.5 30.902344 77.25 31.375 76.75 C 31.84375 76.238281 32.082031 75.261719 32.082031 73.8125 Z M 32.082031 67.207031 "/>
<path style=" stroke:none;fill-rule:nonzero;fill:rgb(0%,0%,0%);fill-opacity:1;" d="M 47.792969 71.9375 L 40.230469 71.9375 L 40.230469 70.625 L 47.792969 70.625 Z M 47.792969 75.417969 L 40.230469 75.417969 L 40.230469 74.105469 L 47.792969 74.105469 Z M 47.792969 75.417969 "/>
<path style="fill-rule:nonzero;fill:rgb(40.000001%,74.901962%,100%);fill-opacity:1;stroke-width:1;stroke-linecap:round;stroke-linejoin:round;stroke:rgb(0%,0%,0%);stroke-opacity:1;stroke-miterlimit:10;" d="M 261 161.999023 L 261 170.999023 L 351 170.999023 L 351 134.999023 L 333 134.999023 L 333 125.999023 L 243 125.999023 L 243 161.999023 Z M 261 161.999023 " transform="matrix(1.333333,0,0,1.333333,-252,-82.666667)"/>
<path style=" stroke:none;fill-rule:nonzero;fill:rgb(0%,0%,0%);fill-opacity:1;" d="M 134.886719 110.554688 L 136.03125 110.554688 L 136.03125 115.511719 C 136.03125 116.375 135.925781 117.0625 135.71875 117.574219 C 135.519531 118.074219 135.167969 118.484375 134.65625 118.804688 C 134.15625 119.125 133.488281 119.28125 132.65625 119.28125 C 131.847656 119.28125 131.1875 119.140625 130.675781 118.867188 C 130.175781 118.589844 129.8125 118.1875 129.59375 117.65625 C 129.371094 117.132812 129.261719 116.417969 129.261719 115.511719 L 129.261719 110.554688 L 130.40625 110.554688 L 130.40625 115.511719 C 130.40625 116.25 130.472656 116.796875 130.613281 117.15625 C 130.75 117.507812 130.988281 117.777344 131.324219 117.96875 C 131.65625 118.167969 132.074219 118.261719 132.574219 118.261719 C 133.40625 118.261719 133.996094 118.074219 134.34375 117.699219 C 134.703125 117.3125 134.886719 116.585938 134.886719 115.511719 Z M 134.886719 110.554688 "/>
<path style=" stroke:none;fill-rule:nonzero;fill:rgb(0%,0%,0%);fill-opacity:1;" d="M 137.78125 119.136719 L 137.78125 112.90625 L 138.738281 112.90625 L 138.738281 113.804688 C 139.183594 113.125 139.84375 112.78125 140.71875 112.78125 C 141.09375 112.78125 141.433594 112.855469 141.738281 112.992188 C 142.058594 113.117188 142.292969 113.292969 142.449219 113.511719 C 142.597656 113.71875 142.707031 113.980469 142.78125 114.28125 C 142.824219 114.480469 142.84375 114.820312 142.84375 115.304688 L 142.84375 119.136719 L 141.78125 119.136719 L 141.78125 115.34375 C 141.78125 114.917969 141.738281 114.59375 141.65625 114.386719 C 141.574219 114.179688 141.425781 114.011719 141.21875 113.886719 C 141.011719 113.75 140.765625 113.679688 140.488281 113.679688 C 140.042969 113.679688 139.65625 113.824219 139.324219 114.117188 C 139 114.398438 138.84375 114.9375 138.84375 115.742188 L 138.84375 119.136719 Z M 137.78125 119.136719 "/>
<path style=" stroke:none;fill-rule:nonzero;fill:rgb(0%,0%,0%);fill-opacity:1;" d="M 144.457031 111.761719 L 144.457031 110.554688 L 145.519531 110.554688 L 145.519531 111.761719 Z M 144.457031 119.136719 L 144.457031 112.90625 L 145.519531 112.90625 L 145.519531 119.136719 Z M 144.457031 119.136719 "/>
<path style=" stroke:none;fill-rule:nonzero;fill:rgb(0%,0%,0%);fill-opacity:1;" d="M 146.726562 116.03125 C 146.726562 114.882812 147.042969 114.027344 147.683594 113.46875 C 148.226562 113.011719 148.878906 112.78125 149.644531 112.78125 C 150.503906 112.78125 151.207031 113.0625 151.746094 113.617188 C 152.289062 114.171875 152.558594 114.945312 152.558594 115.929688 C 152.558594 116.734375 152.433594 117.367188 152.183594 117.824219 C 151.945312 118.28125 151.601562 118.648438 151.144531 118.90625 C 150.683594 119.15625 150.183594 119.28125 149.644531 119.28125 C 148.769531 119.28125 148.058594 119.007812 147.519531 118.449219 C 146.988281 117.882812 146.726562 117.074219 146.726562 116.03125 Z M 147.808594 116.03125 C 147.808594 116.824219 147.980469 117.421875 148.332031 117.824219 C 148.675781 118.214844 149.113281 118.40625 149.644531 118.40625 C 150.167969 118.40625 150.605469 118.214844 150.957031 117.824219 C 151.300781 117.421875 151.476562 116.8125 151.476562 115.992188 C 151.476562 115.230469 151.300781 114.648438 150.957031 114.242188 C 150.605469 113.839844 150.167969 113.636719 149.644531 113.636719 C 149.113281 113.636719 148.675781 113.839844 148.332031 114.242188 C 147.980469 114.632812 147.808594 115.230469 147.808594 116.03125 Z M 147.808594 116.03125 "/>
<path style=" stroke:none;fill-rule:nonzero;fill:rgb(0%,0%,0%);fill-opacity:1;" d="M 153.796875 119.136719 L 153.796875 112.90625 L 154.753906 112.90625 L 154.753906 113.804688 C 155.199219 113.125 155.859375 112.78125 156.734375 112.78125 C 157.109375 112.78125 157.449219 112.855469 157.753906 112.992188 C 158.074219 113.117188 158.308594 113.292969 158.464844 113.511719 C 158.613281 113.71875 158.722656 113.980469 158.796875 114.28125 C 158.839844 114.480469 158.859375 114.820312 158.859375 115.304688 L 158.859375 119.136719 L 157.796875 119.136719 L 157.796875 115.34375 C 157.796875 114.917969 157.753906 114.59375 157.671875 114.386719 C 157.589844 114.179688 157.441406 114.011719 157.234375 113.886719 C 157.027344 113.75 156.78125 113.679688 156.503906 113.679688 C 156.058594 113.679688 155.671875 113.824219 155.339844 114.117188 C 155.015625 114.398438 154.859375 114.9375 154.859375 115.742188 L 154.859375 119.136719 Z M 153.796875 119.136719 "/>
<path style="fill:none;stroke-width:1;stroke-linecap:round;stroke-linejoin:round;stroke:rgb(0%,0%,0%);stroke-opacity:1;stroke-miterlimit:10;" d="M 234 116.999023 L 360 116.999023 " transform="matrix(1.333333,0,0,1.333333,-252,-82.666667)"/>
</g>
</svg>
