<?xml version="1.0" encoding="UTF-8"?>
<svg xmlns="http://www.w3.org/2000/svg" xmlns:xlink="http://www.w3.org/1999/xlink" width="302.666667" height="98.666667" viewBox="0 0 302.666667 98.666667" version="1.1">
<g id="surface1">
<path style="fill:none;stroke-width:1;stroke-linecap:round;stroke-linejoin:round;stroke:rgb(0%,0%,0%);stroke-opacity:1;stroke-miterlimit:10;" d="M 53.999023 242.999023 L 71.999023 242.999023 L 71.999023 260.999023 L 53.999023 260.999023 Z M 53.999023 242.999023 " transform="matrix(1.333333,0,0,1.333333,-70.666667,-250.666667)"/>
<path style=" stroke:none;fill-rule:nonzero;fill:rgb(0%,0%,0%);fill-opacity:1;" d="M 11.140625 89.136719 L 10.078125 89.136719 L 10.078125 82.40625 C 9.828125 82.65625 9.492188 82.90625 9.078125 83.15625 C 8.660156 83.398438 8.289062 83.570312 7.972656 83.679688 L 7.972656 82.65625 C 8.554688 82.398438 9.066406 82.070312 9.515625 81.679688 C 9.957031 81.277344 10.269531 80.886719 10.453125 80.511719 L 11.140625 80.511719 Z M 11.140625 89.136719 "/>
<path style=" stroke:none;fill-rule:nonzero;fill:rgb(0%,0%,0%);fill-opacity:1;" d="M 19.375 88.117188 L 19.375 89.136719 L 13.6875 89.136719 C 13.6875 88.886719 13.730469 88.648438 13.8125 88.40625 C 13.964844 88.023438 14.199219 87.636719 14.519531 87.261719 C 14.839844 86.886719 15.296875 86.460938 15.894531 85.96875 C 16.824219 85.195312 17.449219 84.585938 17.769531 84.136719 C 18.105469 83.695312 18.269531 83.273438 18.269531 82.867188 C 18.269531 82.449219 18.113281 82.105469 17.8125 81.824219 C 17.519531 81.53125 17.136719 81.386719 16.667969 81.386719 C 16.152344 81.386719 15.738281 81.542969 15.4375 81.84375 C 15.128906 82.152344 14.980469 82.574219 14.980469 83.117188 L 13.894531 82.992188 C 13.964844 82.1875 14.238281 81.574219 14.730469 81.15625 C 15.214844 80.730469 15.863281 80.511719 16.6875 80.511719 C 17.503906 80.511719 18.152344 80.742188 18.625 81.199219 C 19.109375 81.65625 19.355469 82.21875 19.355469 82.886719 C 19.355469 83.234375 19.28125 83.574219 19.144531 83.90625 C 19.003906 84.242188 18.769531 84.59375 18.4375 84.96875 C 18.113281 85.335938 17.582031 85.835938 16.832031 86.46875 C 16.191406 87 15.78125 87.359375 15.605469 87.554688 C 15.421875 87.75 15.277344 87.9375 15.167969 88.117188 Z M 19.375 88.117188 "/>
<path style="fill:none;stroke-width:1;stroke-linecap:round;stroke-linejoin:round;stroke:rgb(0%,0%,0%);stroke-opacity:1;stroke-miterlimit:10;" d="M 107.999023 242.999023 L 125.999023 242.999023 L 125.999023 260.999023 L 107.999023 260.999023 Z M 107.999023 242.999023 " transform="matrix(1.333333,0,0,1.333333,-70.666667,-250.666667)"/>
<path style=" stroke:none;fill-rule:nonzero;fill:rgb(0%,0%,0%);fill-opacity:1;" d="M 83.136719 89.136719 L 82.074219 89.136719 L 82.074219 82.40625 C 81.824219 82.65625 81.492188 82.90625 81.074219 83.15625 C 80.660156 83.398438 80.289062 83.570312 79.972656 83.679688 L 79.972656 82.65625 C 80.554688 82.398438 81.066406 82.070312 81.511719 81.679688 C 81.957031 81.277344 82.269531 80.886719 82.449219 80.511719 L 83.136719 80.511719 Z M 83.136719 89.136719 "/>
<path style=" stroke:none;fill-rule:nonzero;fill:rgb(0%,0%,0%);fill-opacity:1;" d="M 85.832031 86.886719 L 86.9375 86.78125 C 87.019531 87.324219 87.207031 87.734375 87.5 88.011719 C 87.800781 88.277344 88.167969 88.40625 88.582031 88.40625 C 89.09375 88.40625 89.527344 88.21875 89.875 87.84375 C 90.234375 87.460938 90.417969 86.949219 90.417969 86.324219 C 90.417969 85.714844 90.238281 85.234375 89.894531 84.886719 C 89.5625 84.542969 89.125 84.367188 88.582031 84.367188 C 88.234375 84.367188 87.921875 84.449219 87.644531 84.617188 C 87.378906 84.773438 87.167969 84.964844 87 85.199219 L 86.019531 85.074219 L 86.855469 80.65625 L 91.125 80.65625 L 91.125 81.679688 L 87.6875 81.679688 L 87.230469 83.96875 C 87.738281 83.625 88.28125 83.449219 88.855469 83.449219 C 89.605469 83.449219 90.234375 83.710938 90.75 84.21875 C 91.261719 84.734375 91.519531 85.402344 91.519531 86.21875 C 91.519531 87 91.296875 87.671875 90.855469 88.242188 C 90.296875 88.9375 89.542969 89.28125 88.582031 89.28125 C 87.800781 89.28125 87.167969 89.070312 86.667969 88.636719 C 86.175781 88.195312 85.902344 87.609375 85.832031 86.886719 Z M 85.832031 86.886719 "/>
<path style="fill:none;stroke-width:1;stroke-linecap:round;stroke-linejoin:round;stroke:rgb(0%,0%,0%);stroke-opacity:1;stroke-miterlimit:10;" d="M 71.999023 242.999023 L 89.999023 242.999023 L 89.999023 260.999023 L 71.999023 260.999023 Z M 71.999023 242.999023 " transform="matrix(1.333333,0,0,1.333333,-70.666667,-250.666667)"/>
<path style=" stroke:none;fill-rule:nonzero;fill:rgb(0%,0%,0%);fill-opacity:1;" d="M 35.140625 89.136719 L 34.078125 89.136719 L 34.078125 82.40625 C 33.828125 82.65625 33.492188 82.90625 33.078125 83.15625 C 32.660156 83.398438 32.289062 83.570312 31.972656 83.679688 L 31.972656 82.65625 C 32.554688 82.398438 33.066406 82.070312 33.515625 81.679688 C 33.957031 81.277344 34.269531 80.886719 34.453125 80.511719 L 35.140625 80.511719 Z M 35.140625 89.136719 "/>
<path style=" stroke:none;fill-rule:nonzero;fill:rgb(0%,0%,0%);fill-opacity:1;" d="M 37.832031 86.867188 L 38.894531 86.71875 C 39.019531 87.320312 39.21875 87.75 39.5 88.011719 C 39.792969 88.277344 40.152344 88.40625 40.582031 88.40625 C 41.066406 88.40625 41.480469 88.242188 41.8125 87.90625 C 42.15625 87.5625 42.332031 87.132812 42.332031 86.617188 C 42.332031 86.132812 42.171875 85.734375 41.855469 85.429688 C 41.546875 85.109375 41.152344 84.949219 40.667969 84.949219 C 40.457031 84.949219 40.207031 84.992188 39.917969 85.074219 L 40.042969 84.136719 C 40.109375 84.152344 40.167969 84.15625 40.207031 84.15625 C 40.652344 84.15625 41.050781 84.042969 41.417969 83.804688 C 41.777344 83.570312 41.957031 83.210938 41.957031 82.71875 C 41.957031 82.335938 41.824219 82.011719 41.5625 81.761719 C 41.296875 81.511719 40.957031 81.386719 40.542969 81.386719 C 40.136719 81.386719 39.796875 81.523438 39.519531 81.78125 C 39.253906 82.03125 39.082031 82.417969 39 82.929688 L 37.9375 82.742188 C 38.074219 82.03125 38.363281 81.484375 38.8125 81.09375 C 39.269531 80.710938 39.839844 80.511719 40.519531 80.511719 C 40.988281 80.511719 41.421875 80.617188 41.8125 80.824219 C 42.214844 81.023438 42.519531 81.292969 42.730469 81.636719 C 42.9375 81.984375 43.042969 82.355469 43.042969 82.742188 C 43.042969 83.117188 42.9375 83.460938 42.730469 83.761719 C 42.53125 84.070312 42.238281 84.3125 41.855469 84.492188 C 42.363281 84.605469 42.761719 84.84375 43.042969 85.21875 C 43.316406 85.585938 43.457031 86.042969 43.457031 86.59375 C 43.457031 87.34375 43.175781 87.984375 42.625 88.511719 C 42.082031 89.027344 41.394531 89.28125 40.5625 89.28125 C 39.8125 89.28125 39.1875 89.0625 38.6875 88.617188 C 38.1875 88.171875 37.902344 87.589844 37.832031 86.867188 Z M 37.832031 86.867188 "/>
<path style="fill:none;stroke-width:1;stroke-linecap:round;stroke-linejoin:round;stroke:rgb(0%,0%,0%);stroke-opacity:1;stroke-miterlimit:10;" d="M 89.999023 242.999023 L 107.999023 242.999023 L 107.999023 260.999023 L 89.999023 260.999023 Z M 89.999023 242.999023 " transform="matrix(1.333333,0,0,1.333333,-70.666667,-250.666667)"/>
<path style=" stroke:none;fill-rule:nonzero;fill:rgb(0%,0%,0%);fill-opacity:1;" d="M 59.140625 89.136719 L 58.078125 89.136719 L 58.078125 82.40625 C 57.828125 82.65625 57.492188 82.90625 57.078125 83.15625 C 56.660156 83.398438 56.289062 83.570312 55.972656 83.679688 L 55.972656 82.65625 C 56.554688 82.398438 57.066406 82.070312 57.515625 81.679688 C 57.957031 81.277344 58.269531 80.886719 58.453125 80.511719 L 59.140625 80.511719 Z M 59.140625 89.136719 "/>
<path style=" stroke:none;fill-rule:nonzero;fill:rgb(0%,0%,0%);fill-opacity:1;" d="M 65.207031 89.136719 L 65.207031 87.074219 L 61.480469 87.074219 L 61.480469 86.117188 L 65.394531 80.554688 L 66.269531 80.554688 L 66.269531 86.117188 L 67.4375 86.117188 L 67.4375 87.074219 L 66.269531 87.074219 L 66.269531 89.136719 Z M 65.207031 86.117188 L 65.207031 82.242188 L 62.519531 86.117188 Z M 65.207031 86.117188 "/>
<path style="fill:none;stroke-width:1;stroke-linecap:round;stroke-linejoin:round;stroke:rgb(0%,0%,0%);stroke-opacity:1;stroke-miterlimit:10;" d="M 107.999023 224.999023 L 125.999023 224.999023 L 125.999023 242.999023 L 107.999023 242.999023 Z M 107.999023 224.999023 " transform="matrix(1.333333,0,0,1.333333,-70.666667,-250.666667)"/>
<path style=" stroke:none;fill-rule:nonzero;fill:rgb(0%,0%,0%);fill-opacity:1;" d="M 83.582031 65.136719 L 82.519531 65.136719 L 82.519531 58.40625 C 82.269531 58.65625 81.9375 58.90625 81.519531 59.15625 C 81.105469 59.398438 80.734375 59.570312 80.417969 59.679688 L 80.417969 58.65625 C 81 58.398438 81.511719 58.070312 81.957031 57.679688 C 82.402344 57.277344 82.714844 56.886719 82.894531 56.511719 L 83.582031 56.511719 Z M 83.582031 65.136719 "/>
<path style=" stroke:none;fill-rule:nonzero;fill:rgb(0%,0%,0%);fill-opacity:1;" d="M 89.367188 65.136719 L 88.304688 65.136719 L 88.304688 58.40625 C 88.054688 58.65625 87.722656 58.90625 87.304688 59.15625 C 86.886719 59.398438 86.519531 59.570312 86.199219 59.679688 L 86.199219 58.65625 C 86.785156 58.398438 87.292969 58.070312 87.742188 57.679688 C 88.183594 57.277344 88.496094 56.886719 88.679688 56.511719 L 89.367188 56.511719 Z M 89.367188 65.136719 "/>
<path style="fill:none;stroke-width:1;stroke-linecap:round;stroke-linejoin:round;stroke:rgb(0%,0%,0%);stroke-opacity:1;stroke-miterlimit:10;" d="M 107.999023 188.999023 L 125.999023 188.999023 L 125.999023 206.999023 L 107.999023 206.999023 Z M 107.999023 188.999023 " transform="matrix(1.333333,0,0,1.333333,-70.666667,-250.666667)"/>
<path style=" stroke:none;fill-rule:nonzero;fill:rgb(0%,0%,0%);fill-opacity:1;" d="M 82.496094 14.867188 L 83.558594 14.71875 C 83.683594 15.320312 83.882812 15.75 84.164062 16.011719 C 84.453125 16.277344 84.8125 16.40625 85.246094 16.40625 C 85.730469 16.40625 86.140625 16.242188 86.476562 15.90625 C 86.820312 15.5625 86.996094 15.132812 86.996094 14.617188 C 86.996094 14.132812 86.835938 13.734375 86.515625 13.429688 C 86.210938 13.109375 85.8125 12.949219 85.328125 12.949219 C 85.121094 12.949219 84.871094 12.992188 84.578125 13.074219 L 84.703125 12.136719 C 84.773438 12.152344 84.828125 12.15625 84.871094 12.15625 C 85.3125 12.15625 85.714844 12.042969 86.078125 11.804688 C 86.4375 11.570312 86.621094 11.210938 86.621094 10.71875 C 86.621094 10.335938 86.484375 10.011719 86.226562 9.761719 C 85.960938 9.511719 85.621094 9.386719 85.203125 9.386719 C 84.796875 9.386719 84.460938 9.523438 84.183594 9.78125 C 83.917969 10.03125 83.746094 10.417969 83.664062 10.929688 L 82.601562 10.742188 C 82.734375 10.03125 83.027344 9.484375 83.476562 9.09375 C 83.933594 8.710938 84.5 8.511719 85.183594 8.511719 C 85.652344 8.511719 86.085938 8.617188 86.476562 8.824219 C 86.875 9.023438 87.183594 9.292969 87.390625 9.636719 C 87.601562 9.984375 87.703125 10.355469 87.703125 10.742188 C 87.703125 11.117188 87.601562 11.460938 87.390625 11.761719 C 87.195312 12.070312 86.902344 12.3125 86.515625 12.492188 C 87.027344 12.605469 87.421875 12.84375 87.703125 13.21875 C 87.980469 13.585938 88.121094 14.042969 88.121094 14.59375 C 88.121094 15.34375 87.839844 15.984375 87.289062 16.511719 C 86.746094 17.027344 86.058594 17.28125 85.226562 17.28125 C 84.476562 17.28125 83.851562 17.0625 83.351562 16.617188 C 82.851562 16.171875 82.5625 15.589844 82.496094 14.867188 Z M 82.496094 14.867188 "/>
<path style="fill:none;stroke-width:1;stroke-linecap:round;stroke-linejoin:round;stroke:rgb(0%,0%,0%);stroke-opacity:1;stroke-miterlimit:10;" d="M 107.999023 206.999023 L 125.999023 206.999023 L 125.999023 224.999023 L 107.999023 224.999023 Z M 107.999023 206.999023 " transform="matrix(1.333333,0,0,1.333333,-70.666667,-250.666667)"/>
<path style=" stroke:none;fill-rule:nonzero;fill:rgb(0%,0%,0%);fill-opacity:1;" d="M 82.558594 33.679688 L 82.558594 32.65625 L 88.121094 32.65625 L 88.121094 33.46875 C 87.578125 34.054688 87.039062 34.835938 86.496094 35.804688 C 85.953125 36.761719 85.539062 37.757812 85.246094 38.78125 C 85.039062 39.492188 84.902344 40.277344 84.851562 41.136719 L 83.765625 41.136719 C 83.777344 40.460938 83.914062 39.648438 84.164062 38.699219 C 84.414062 37.742188 84.773438 36.820312 85.246094 35.929688 C 85.730469 35.042969 86.234375 34.292969 86.765625 33.679688 Z M 82.558594 33.679688 "/>
<path style="fill-rule:nonzero;fill:rgb(69.803923%,85.09804%,100%);fill-opacity:1;stroke-width:1;stroke-linecap:round;stroke-linejoin:round;stroke:rgb(0%,0%,0%);stroke-opacity:1;stroke-miterlimit:10;" d="M 71.999023 224.999023 L 89.999023 224.999023 L 89.999023 242.999023 L 71.999023 242.999023 Z M 71.999023 224.999023 " transform="matrix(1.333333,0,0,1.333333,-70.666667,-250.666667)"/>
<path style=" stroke:none;fill-rule:nonzero;fill:rgb(0%,0%,0%);fill-opacity:1;" d="M 34.664062 63.15625 L 35.664062 63.054688 C 35.746094 63.527344 35.902344 63.875 36.140625 64.09375 C 36.390625 64.304688 36.710938 64.40625 37.101562 64.40625 C 37.417969 64.40625 37.695312 64.339844 37.933594 64.199219 C 38.183594 64.046875 38.382812 63.84375 38.539062 63.59375 C 38.703125 63.34375 38.835938 63.011719 38.933594 62.59375 C 39.042969 62.179688 39.101562 61.75 39.101562 61.304688 C 39.101562 61.261719 39.089844 61.195312 39.078125 61.09375 C 38.871094 61.429688 38.585938 61.699219 38.226562 61.90625 C 37.859375 62.117188 37.464844 62.21875 37.039062 62.21875 C 36.328125 62.21875 35.726562 61.964844 35.226562 61.449219 C 34.734375 60.9375 34.496094 60.257812 34.496094 59.40625 C 34.496094 58.53125 34.75 57.835938 35.265625 57.304688 C 35.777344 56.777344 36.421875 56.511719 37.203125 56.511719 C 37.757812 56.511719 38.265625 56.667969 38.726562 56.96875 C 39.183594 57.261719 39.527344 57.6875 39.765625 58.242188 C 40.015625 58.796875 40.140625 59.605469 40.140625 60.65625 C 40.140625 61.757812 40.023438 62.632812 39.789062 63.28125 C 39.546875 63.9375 39.195312 64.4375 38.726562 64.78125 C 38.25 65.117188 37.695312 65.28125 37.058594 65.28125 C 36.390625 65.28125 35.839844 65.09375 35.414062 64.71875 C 34.996094 64.34375 34.746094 63.824219 34.664062 63.15625 Z M 38.976562 59.367188 C 38.976562 58.757812 38.808594 58.277344 38.476562 57.929688 C 38.152344 57.570312 37.773438 57.386719 37.328125 57.386719 C 36.855469 57.386719 36.445312 57.585938 36.101562 57.96875 C 35.75 58.34375 35.578125 58.839844 35.578125 59.449219 C 35.578125 59.992188 35.734375 60.4375 36.058594 60.78125 C 36.390625 61.117188 36.796875 61.28125 37.289062 61.28125 C 37.789062 61.28125 38.1875 61.117188 38.496094 60.78125 C 38.8125 60.4375 38.976562 59.964844 38.976562 59.367188 Z M 38.976562 59.367188 "/>
<path style="fill-rule:nonzero;fill:rgb(40.000001%,74.901962%,100%);fill-opacity:1;stroke-width:1;stroke-linecap:round;stroke-linejoin:round;stroke:rgb(0%,0%,0%);stroke-opacity:1;stroke-miterlimit:10;" d="M 71.999023 188.999023 L 89.999023 188.999023 L 89.999023 206.999023 L 71.999023 206.999023 Z M 71.999023 188.999023 " transform="matrix(1.333333,0,0,1.333333,-70.666667,-250.666667)"/>
<path style=" stroke:none;fill-rule:nonzero;fill:rgb(0%,0%,0%);fill-opacity:1;" d="M 38.476562 17.136719 L 37.414062 17.136719 L 37.414062 10.40625 C 37.164062 10.65625 36.828125 10.90625 36.414062 11.15625 C 35.996094 11.398438 35.625 11.570312 35.308594 11.679688 L 35.308594 10.65625 C 35.890625 10.398438 36.402344 10.070312 36.851562 9.679688 C 37.292969 9.277344 37.605469 8.886719 37.789062 8.511719 L 38.476562 8.511719 Z M 38.476562 17.136719 "/>
<path style="fill-rule:nonzero;fill:rgb(40.000001%,74.901962%,100%);fill-opacity:1;stroke-width:1;stroke-linecap:round;stroke-linejoin:round;stroke:rgb(0%,0%,0%);stroke-opacity:1;stroke-miterlimit:10;" d="M 71.999023 206.999023 L 89.999023 206.999023 L 89.999023 224.999023 L 71.999023 224.999023 Z M 71.999023 206.999023 " transform="matrix(1.333333,0,0,1.333333,-70.666667,-250.666667)"/>
<path style=" stroke:none;fill-rule:nonzero;fill:rgb(0%,0%,0%);fill-opacity:1;" d="M 34.496094 38.886719 L 35.601562 38.78125 C 35.683594 39.324219 35.871094 39.734375 36.164062 40.011719 C 36.464844 40.277344 36.828125 40.40625 37.246094 40.40625 C 37.757812 40.40625 38.1875 40.21875 38.539062 39.84375 C 38.898438 39.460938 39.078125 38.949219 39.078125 38.324219 C 39.078125 37.714844 38.902344 37.234375 38.558594 36.886719 C 38.226562 36.542969 37.789062 36.367188 37.246094 36.367188 C 36.898438 36.367188 36.585938 36.449219 36.308594 36.617188 C 36.042969 36.773438 35.828125 36.964844 35.664062 37.199219 L 34.683594 37.074219 L 35.515625 32.65625 L 39.789062 32.65625 L 39.789062 33.679688 L 36.351562 33.679688 L 35.890625 35.96875 C 36.402344 35.625 36.945312 35.449219 37.515625 35.449219 C 38.265625 35.449219 38.898438 35.710938 39.414062 36.21875 C 39.921875 36.734375 40.183594 37.402344 40.183594 38.21875 C 40.183594 39 39.960938 39.671875 39.515625 40.242188 C 38.960938 40.9375 38.203125 41.28125 37.246094 41.28125 C 36.464844 41.28125 35.828125 41.070312 35.328125 40.636719 C 34.839844 40.195312 34.5625 39.609375 34.496094 38.886719 Z M 34.496094 38.886719 "/>
<path style="fill-rule:nonzero;fill:rgb(69.803923%,85.09804%,100%);fill-opacity:1;stroke-width:1;stroke-linecap:round;stroke-linejoin:round;stroke:rgb(0%,0%,0%);stroke-opacity:1;stroke-miterlimit:10;" d="M 53.999023 224.999023 L 71.999023 224.999023 L 71.999023 242.999023 L 53.999023 242.999023 Z M 53.999023 224.999023 " transform="matrix(1.333333,0,0,1.333333,-70.666667,-250.666667)"/>
<path style=" stroke:none;fill-rule:nonzero;fill:rgb(0%,0%,0%);fill-opacity:1;" d="M 12.121094 60.46875 C 11.671875 60.320312 11.351562 60.09375 11.140625 59.804688 C 10.933594 59.5 10.828125 59.136719 10.828125 58.71875 C 10.828125 58.09375 11.046875 57.574219 11.496094 57.15625 C 11.953125 56.730469 12.546875 56.511719 13.289062 56.511719 C 14.039062 56.511719 14.640625 56.734375 15.101562 57.179688 C 15.558594 57.609375 15.789062 58.136719 15.789062 58.761719 C 15.789062 59.152344 15.683594 59.5 15.476562 59.804688 C 15.265625 60.09375 14.945312 60.320312 14.515625 60.46875 C 15.042969 60.652344 15.445312 60.9375 15.726562 61.324219 C 16 61.699219 16.140625 62.152344 16.140625 62.679688 C 16.140625 63.417969 15.875 64.03125 15.351562 64.53125 C 14.835938 65.03125 14.152344 65.28125 13.308594 65.28125 C 12.460938 65.28125 11.773438 65.03125 11.246094 64.53125 C 10.730469 64.03125 10.476562 63.40625 10.476562 62.65625 C 10.476562 62.105469 10.609375 61.636719 10.890625 61.261719 C 11.183594 60.875 11.589844 60.609375 12.121094 60.46875 Z M 11.914062 58.699219 C 11.914062 59.105469 12.039062 59.4375 12.289062 59.699219 C 12.546875 59.949219 12.890625 60.074219 13.308594 60.074219 C 13.726562 60.074219 14.058594 59.949219 14.308594 59.699219 C 14.570312 59.4375 14.703125 59.117188 14.703125 58.742188 C 14.703125 58.367188 14.570312 58.046875 14.308594 57.78125 C 14.042969 57.523438 13.710938 57.386719 13.308594 57.386719 C 12.902344 57.386719 12.570312 57.523438 12.308594 57.78125 C 12.042969 58.03125 11.914062 58.339844 11.914062 58.699219 Z M 11.558594 62.65625 C 11.558594 62.964844 11.625 63.257812 11.765625 63.53125 C 11.917969 63.8125 12.132812 64.027344 12.414062 64.179688 C 12.6875 64.335938 12.996094 64.40625 13.328125 64.40625 C 13.828125 64.40625 14.234375 64.25 14.558594 63.929688 C 14.890625 63.609375 15.058594 63.199219 15.058594 62.699219 C 15.058594 62.1875 14.890625 61.761719 14.558594 61.429688 C 14.226562 61.09375 13.796875 60.929688 13.289062 60.929688 C 12.789062 60.929688 12.371094 61.09375 12.039062 61.429688 C 11.714844 61.761719 11.558594 62.171875 11.558594 62.65625 Z M 11.558594 62.65625 "/>
<path style="fill-rule:nonzero;fill:rgb(69.803923%,85.09804%,100%);fill-opacity:1;stroke-width:1;stroke-linecap:round;stroke-linejoin:round;stroke:rgb(0%,0%,0%);stroke-opacity:1;stroke-miterlimit:10;" d="M 89.999023 206.999023 L 107.999023 206.999023 L 107.999023 224.999023 L 89.999023 224.999023 Z M 89.999023 206.999023 " transform="matrix(1.333333,0,0,1.333333,-70.666667,-250.666667)"/>
<path style=" stroke:none;fill-rule:nonzero;fill:rgb(0%,0%,0%);fill-opacity:1;" d="M 63.976562 34.65625 L 62.914062 34.742188 C 62.828125 34.324219 62.695312 34.023438 62.515625 33.824219 C 62.234375 33.53125 61.890625 33.386719 61.476562 33.386719 C 61.125 33.386719 60.828125 33.480469 60.578125 33.65625 C 60.246094 33.90625 59.980469 34.261719 59.789062 34.71875 C 59.605469 35.179688 59.507812 35.839844 59.496094 36.699219 C 59.746094 36.324219 60.046875 36.046875 60.414062 35.867188 C 60.789062 35.671875 61.171875 35.574219 61.578125 35.574219 C 62.289062 35.574219 62.882812 35.835938 63.371094 36.34375 C 63.871094 36.859375 64.121094 37.527344 64.121094 38.34375 C 64.121094 38.886719 64 39.398438 63.765625 39.867188 C 63.527344 40.324219 63.210938 40.679688 62.808594 40.929688 C 62.402344 41.164062 61.945312 41.28125 61.433594 41.28125 C 60.558594 41.28125 59.839844 40.964844 59.289062 40.324219 C 58.730469 39.671875 58.453125 38.605469 58.453125 37.117188 C 58.453125 35.464844 58.757812 34.257812 59.371094 33.492188 C 59.898438 32.839844 60.621094 32.511719 61.539062 32.511719 C 62.203125 32.511719 62.75 32.710938 63.183594 33.09375 C 63.609375 33.46875 63.875 33.992188 63.976562 34.65625 Z M 59.664062 38.34375 C 59.664062 38.71875 59.734375 39.074219 59.890625 39.40625 C 60.042969 39.730469 60.257812 39.980469 60.539062 40.15625 C 60.8125 40.324219 61.105469 40.40625 61.414062 40.40625 C 61.855469 40.40625 62.234375 40.234375 62.558594 39.886719 C 62.875 39.527344 63.039062 39.03125 63.039062 38.40625 C 63.039062 37.8125 62.875 37.34375 62.558594 37.011719 C 62.25 36.667969 61.855469 36.492188 61.371094 36.492188 C 60.898438 36.492188 60.496094 36.667969 60.164062 37.011719 C 59.828125 37.34375 59.664062 37.792969 59.664062 38.34375 Z M 59.664062 38.34375 "/>
<path style="fill-rule:nonzero;fill:rgb(40.000001%,74.901962%,100%);fill-opacity:1;stroke-width:1;stroke-linecap:round;stroke-linejoin:round;stroke:rgb(0%,0%,0%);stroke-opacity:1;stroke-miterlimit:10;" d="M 53.999023 206.999023 L 71.999023 206.999023 L 71.999023 224.999023 L 53.999023 224.999023 Z M 53.999023 206.999023 " transform="matrix(1.333333,0,0,1.333333,-70.666667,-250.666667)"/>
<path style=" stroke:none;fill-rule:nonzero;fill:rgb(0%,0%,0%);fill-opacity:1;" d="M 13.871094 41.136719 L 13.871094 39.074219 L 10.140625 39.074219 L 10.140625 38.117188 L 14.058594 32.554688 L 14.933594 32.554688 L 14.933594 38.117188 L 16.101562 38.117188 L 16.101562 39.074219 L 14.933594 39.074219 L 14.933594 41.136719 Z M 13.871094 38.117188 L 13.871094 34.242188 L 11.183594 38.117188 Z M 13.871094 38.117188 "/>
<path style="fill-rule:nonzero;fill:rgb(40.000001%,74.901962%,100%);fill-opacity:1;stroke-width:1;stroke-linecap:round;stroke-linejoin:round;stroke:rgb(0%,0%,0%);stroke-opacity:1;stroke-miterlimit:10;" d="M 89.999023 224.999023 L 107.999023 224.999023 L 107.999023 242.999023 L 89.999023 242.999023 Z M 89.999023 224.999023 " transform="matrix(1.333333,0,0,1.333333,-70.666667,-250.666667)"/>
<path style=" stroke:none;fill-rule:nonzero;fill:rgb(0%,0%,0%);fill-opacity:1;" d="M 59.140625 65.136719 L 58.078125 65.136719 L 58.078125 58.40625 C 57.828125 58.65625 57.492188 58.90625 57.078125 59.15625 C 56.660156 59.398438 56.289062 59.570312 55.972656 59.679688 L 55.972656 58.65625 C 56.554688 58.398438 57.066406 58.070312 57.515625 57.679688 C 57.957031 57.277344 58.269531 56.886719 58.453125 56.511719 L 59.140625 56.511719 Z M 59.140625 65.136719 "/>
<path style=" stroke:none;fill-rule:nonzero;fill:rgb(0%,0%,0%);fill-opacity:1;" d="M 61.832031 60.90625 C 61.832031 59.898438 61.9375 59.074219 62.144531 58.449219 C 62.355469 57.824219 62.65625 57.34375 63.0625 57.011719 C 63.480469 56.679688 64 56.511719 64.625 56.511719 C 65.09375 56.511719 65.503906 56.609375 65.855469 56.804688 C 66.199219 56.984375 66.484375 57.25 66.707031 57.59375 C 66.925781 57.945312 67.105469 58.367188 67.230469 58.867188 C 67.363281 59.367188 67.4375 60.046875 67.4375 60.90625 C 67.4375 61.90625 67.332031 62.71875 67.125 63.34375 C 66.917969 63.960938 66.605469 64.4375 66.1875 64.78125 C 65.78125 65.117188 65.261719 65.28125 64.625 65.28125 C 63.800781 65.28125 63.15625 64.984375 62.6875 64.386719 C 62.113281 63.679688 61.832031 62.523438 61.832031 60.90625 Z M 62.917969 60.90625 C 62.917969 62.3125 63.074219 63.25 63.394531 63.71875 C 63.730469 64.179688 64.136719 64.40625 64.625 64.40625 C 65.109375 64.40625 65.519531 64.179688 65.855469 63.71875 C 66.1875 63.25 66.355469 62.3125 66.355469 60.90625 C 66.355469 59.492188 66.1875 58.554688 65.855469 58.09375 C 65.519531 57.625 65.109375 57.386719 64.625 57.386719 C 64.136719 57.386719 63.75 57.589844 63.457031 57.992188 C 63.09375 58.523438 62.917969 59.492188 62.917969 60.90625 Z M 62.917969 60.90625 "/>
<path style="fill-rule:nonzero;fill:rgb(69.803923%,85.09804%,100%);fill-opacity:1;stroke-width:1;stroke-linecap:round;stroke-linejoin:round;stroke:rgb(0%,0%,0%);stroke-opacity:1;stroke-miterlimit:10;" d="M 89.999023 188.999023 L 107.999023 188.999023 L 107.999023 206.999023 L 89.999023 206.999023 Z M 89.999023 188.999023 " transform="matrix(1.333333,0,0,1.333333,-70.666667,-250.666667)"/>
<path style=" stroke:none;fill-rule:nonzero;fill:rgb(0%,0%,0%);fill-opacity:1;" d="M 64.039062 16.117188 L 64.039062 17.136719 L 58.351562 17.136719 C 58.351562 16.886719 58.390625 16.648438 58.476562 16.40625 C 58.625 16.023438 58.859375 15.636719 59.183594 15.261719 C 59.5 14.886719 59.960938 14.460938 60.558594 13.96875 C 61.484375 13.195312 62.109375 12.585938 62.433594 12.136719 C 62.765625 11.695312 62.933594 11.273438 62.933594 10.867188 C 62.933594 10.449219 62.777344 10.105469 62.476562 9.824219 C 62.183594 9.53125 61.796875 9.386719 61.328125 9.386719 C 60.8125 9.386719 60.402344 9.542969 60.101562 9.84375 C 59.792969 10.152344 59.640625 10.574219 59.640625 11.117188 L 58.558594 10.992188 C 58.625 10.1875 58.902344 9.574219 59.390625 9.15625 C 59.875 8.730469 60.527344 8.511719 61.351562 8.511719 C 62.167969 8.511719 62.8125 8.742188 63.289062 9.199219 C 63.773438 9.65625 64.015625 10.21875 64.015625 10.886719 C 64.015625 11.234375 63.945312 11.574219 63.808594 11.90625 C 63.667969 12.242188 63.433594 12.59375 63.101562 12.96875 C 62.777344 13.335938 62.246094 13.835938 61.496094 14.46875 C 60.855469 15 60.445312 15.359375 60.265625 15.554688 C 60.085938 15.75 59.9375 15.9375 59.828125 16.117188 Z M 64.039062 16.117188 "/>
<path style="fill-rule:nonzero;fill:rgb(40.000001%,74.901962%,100%);fill-opacity:1;stroke-width:1;stroke-linecap:round;stroke-linejoin:round;stroke:rgb(0%,0%,0%);stroke-opacity:1;stroke-miterlimit:10;" d="M 53.999023 188.999023 L 71.999023 188.999023 L 71.999023 206.999023 L 53.999023 206.999023 Z M 53.999023 188.999023 " transform="matrix(1.333333,0,0,1.333333,-70.666667,-250.666667)"/>
<path style=" stroke:none;fill-rule:nonzero;fill:rgb(0%,0%,0%);fill-opacity:1;" d="M 10.496094 12.90625 C 10.496094 11.898438 10.601562 11.074219 10.808594 10.449219 C 11.015625 9.824219 11.320312 9.34375 11.726562 9.011719 C 12.140625 8.679688 12.664062 8.511719 13.289062 8.511719 C 13.757812 8.511719 14.167969 8.609375 14.515625 8.804688 C 14.859375 8.984375 15.148438 9.25 15.371094 9.59375 C 15.589844 9.945312 15.765625 10.367188 15.890625 10.867188 C 16.027344 11.367188 16.101562 12.046875 16.101562 12.90625 C 16.101562 13.90625 15.996094 14.71875 15.789062 15.34375 C 15.578125 15.960938 15.265625 16.4375 14.851562 16.78125 C 14.445312 17.117188 13.921875 17.28125 13.289062 17.28125 C 12.464844 17.28125 11.820312 16.984375 11.351562 16.386719 C 10.777344 15.679688 10.496094 14.523438 10.496094 12.90625 Z M 11.578125 12.90625 C 11.578125 14.3125 11.734375 15.25 12.058594 15.71875 C 12.390625 16.179688 12.796875 16.40625 13.289062 16.40625 C 13.773438 16.40625 14.183594 16.179688 14.515625 15.71875 C 14.851562 15.25 15.015625 14.3125 15.015625 12.90625 C 15.015625 11.492188 14.851562 10.554688 14.515625 10.09375 C 14.183594 9.625 13.773438 9.386719 13.289062 9.386719 C 12.796875 9.386719 12.414062 9.589844 12.121094 9.992188 C 11.757812 10.523438 11.578125 11.492188 11.578125 12.90625 Z M 11.578125 12.90625 "/>
<path style="fill:none;stroke-width:2;stroke-linecap:round;stroke-linejoin:round;stroke:rgb(0%,0%,0%);stroke-opacity:1;stroke-miterlimit:10;" d="M 53.999023 188.999023 L 107.999023 188.999023 L 107.999023 242.999023 L 53.999023 242.999023 Z M 53.999023 188.999023 " transform="matrix(1.333333,0,0,1.333333,-70.666667,-250.666667)"/>
<path style="fill-rule:nonzero;fill:rgb(40.000001%,74.901962%,100%);fill-opacity:1;stroke-width:1;stroke-linecap:round;stroke-linejoin:round;stroke:rgb(0%,0%,0%);stroke-opacity:1;stroke-miterlimit:10;" d="M 260.999023 224.999023 L 278.999023 224.999023 L 278.999023 242.999023 L 260.999023 242.999023 Z M 260.999023 224.999023 " transform="matrix(1.333333,0,0,1.333333,-70.666667,-250.666667)"/>
<path style=" stroke:none;fill-rule:nonzero;fill:rgb(0%,0%,0%);fill-opacity:1;" d="M 287.136719 65.136719 L 286.074219 65.136719 L 286.074219 58.40625 C 285.824219 58.65625 285.492188 58.90625 285.074219 59.15625 C 284.660156 59.398438 284.289062 59.570312 283.972656 59.679688 L 283.972656 58.65625 C 284.554688 58.398438 285.066406 58.070312 285.511719 57.679688 C 285.957031 57.277344 286.269531 56.886719 286.449219 56.511719 L 287.136719 56.511719 Z M 287.136719 65.136719 "/>
<path style=" stroke:none;fill-rule:nonzero;fill:rgb(0%,0%,0%);fill-opacity:1;" d="M 289.832031 60.90625 C 289.832031 59.898438 289.9375 59.074219 290.144531 58.449219 C 290.355469 57.824219 290.65625 57.34375 291.0625 57.011719 C 291.480469 56.679688 292 56.511719 292.625 56.511719 C 293.09375 56.511719 293.503906 56.609375 293.855469 56.804688 C 294.199219 56.984375 294.484375 57.25 294.707031 57.59375 C 294.925781 57.945312 295.105469 58.367188 295.230469 58.867188 C 295.363281 59.367188 295.4375 60.046875 295.4375 60.90625 C 295.4375 61.90625 295.332031 62.71875 295.125 63.34375 C 294.917969 63.960938 294.605469 64.4375 294.1875 64.78125 C 293.78125 65.117188 293.261719 65.28125 292.625 65.28125 C 291.800781 65.28125 291.15625 64.984375 290.6875 64.386719 C 290.113281 63.679688 289.832031 62.523438 289.832031 60.90625 Z M 290.917969 60.90625 C 290.917969 62.3125 291.074219 63.25 291.394531 63.71875 C 291.730469 64.179688 292.136719 64.40625 292.625 64.40625 C 293.109375 64.40625 293.519531 64.179688 293.855469 63.71875 C 294.1875 63.25 294.355469 62.3125 294.355469 60.90625 C 294.355469 59.492188 294.1875 58.554688 293.855469 58.09375 C 293.519531 57.625 293.109375 57.386719 292.625 57.386719 C 292.136719 57.386719 291.75 57.589844 291.457031 57.992188 C 291.09375 58.523438 290.917969 59.492188 290.917969 60.90625 Z M 290.917969 60.90625 "/>
<path style="fill-rule:nonzero;fill:rgb(69.803923%,85.09804%,100%);fill-opacity:1;stroke-width:1;stroke-linecap:round;stroke-linejoin:round;stroke:rgb(0%,0%,0%);stroke-opacity:1;stroke-miterlimit:10;" d="M 242.999023 224.999023 L 260.999023 224.999023 L 260.999023 242.999023 L 242.999023 242.999023 Z M 242.999023 224.999023 " transform="matrix(1.333333,0,0,1.333333,-70.666667,-250.666667)"/>
<path style=" stroke:none;fill-rule:nonzero;fill:rgb(0%,0%,0%);fill-opacity:1;" d="M 262.664062 63.15625 L 263.664062 63.054688 C 263.746094 63.527344 263.902344 63.875 264.140625 64.09375 C 264.390625 64.304688 264.710938 64.40625 265.101562 64.40625 C 265.417969 64.40625 265.695312 64.339844 265.933594 64.199219 C 266.183594 64.046875 266.382812 63.84375 266.539062 63.59375 C 266.703125 63.34375 266.835938 63.011719 266.933594 62.59375 C 267.042969 62.179688 267.101562 61.75 267.101562 61.304688 C 267.101562 61.261719 267.089844 61.195312 267.078125 61.09375 C 266.871094 61.429688 266.585938 61.699219 266.226562 61.90625 C 265.859375 62.117188 265.464844 62.21875 265.039062 62.21875 C 264.328125 62.21875 263.726562 61.964844 263.226562 61.449219 C 262.734375 60.9375 262.496094 60.257812 262.496094 59.40625 C 262.496094 58.53125 262.75 57.835938 263.265625 57.304688 C 263.777344 56.777344 264.421875 56.511719 265.203125 56.511719 C 265.757812 56.511719 266.265625 56.667969 266.726562 56.96875 C 267.183594 57.261719 267.527344 57.6875 267.765625 58.242188 C 268.015625 58.796875 268.140625 59.605469 268.140625 60.65625 C 268.140625 61.757812 268.023438 62.632812 267.789062 63.28125 C 267.546875 63.9375 267.195312 64.4375 266.726562 64.78125 C 266.25 65.117188 265.695312 65.28125 265.058594 65.28125 C 264.390625 65.28125 263.839844 65.09375 263.414062 64.71875 C 262.996094 64.34375 262.746094 63.824219 262.664062 63.15625 Z M 266.976562 59.367188 C 266.976562 58.757812 266.808594 58.277344 266.476562 57.929688 C 266.152344 57.570312 265.773438 57.386719 265.328125 57.386719 C 264.855469 57.386719 264.445312 57.585938 264.101562 57.96875 C 263.75 58.34375 263.578125 58.839844 263.578125 59.449219 C 263.578125 59.992188 263.734375 60.4375 264.058594 60.78125 C 264.390625 61.117188 264.796875 61.28125 265.289062 61.28125 C 265.789062 61.28125 266.1875 61.117188 266.496094 60.78125 C 266.8125 60.4375 266.976562 59.964844 266.976562 59.367188 Z M 266.976562 59.367188 "/>
<path style="fill-rule:nonzero;fill:rgb(69.803923%,85.09804%,100%);fill-opacity:1;stroke-width:1;stroke-linecap:round;stroke-linejoin:round;stroke:rgb(0%,0%,0%);stroke-opacity:1;stroke-miterlimit:10;" d="M 260.999023 206.999023 L 278.999023 206.999023 L 278.999023 224.999023 L 260.999023 224.999023 Z M 260.999023 206.999023 " transform="matrix(1.333333,0,0,1.333333,-70.666667,-250.666667)"/>
<path style=" stroke:none;fill-rule:nonzero;fill:rgb(0%,0%,0%);fill-opacity:1;" d="M 291.976562 34.65625 L 290.914062 34.742188 C 290.828125 34.324219 290.695312 34.023438 290.515625 33.824219 C 290.234375 33.53125 289.890625 33.386719 289.476562 33.386719 C 289.125 33.386719 288.828125 33.480469 288.578125 33.65625 C 288.246094 33.90625 287.980469 34.261719 287.789062 34.71875 C 287.605469 35.179688 287.507812 35.839844 287.496094 36.699219 C 287.746094 36.324219 288.046875 36.046875 288.414062 35.867188 C 288.789062 35.671875 289.171875 35.574219 289.578125 35.574219 C 290.289062 35.574219 290.882812 35.835938 291.371094 36.34375 C 291.871094 36.859375 292.121094 37.527344 292.121094 38.34375 C 292.121094 38.886719 292 39.398438 291.765625 39.867188 C 291.527344 40.324219 291.210938 40.679688 290.808594 40.929688 C 290.402344 41.164062 289.945312 41.28125 289.433594 41.28125 C 288.558594 41.28125 287.839844 40.964844 287.289062 40.324219 C 286.730469 39.671875 286.453125 38.605469 286.453125 37.117188 C 286.453125 35.464844 286.757812 34.257812 287.371094 33.492188 C 287.898438 32.839844 288.621094 32.511719 289.539062 32.511719 C 290.203125 32.511719 290.75 32.710938 291.183594 33.09375 C 291.609375 33.46875 291.875 33.992188 291.976562 34.65625 Z M 287.664062 38.34375 C 287.664062 38.71875 287.734375 39.074219 287.890625 39.40625 C 288.042969 39.730469 288.257812 39.980469 288.539062 40.15625 C 288.8125 40.324219 289.105469 40.40625 289.414062 40.40625 C 289.855469 40.40625 290.234375 40.234375 290.558594 39.886719 C 290.875 39.527344 291.039062 39.03125 291.039062 38.40625 C 291.039062 37.8125 290.875 37.34375 290.558594 37.011719 C 290.25 36.667969 289.855469 36.492188 289.371094 36.492188 C 288.898438 36.492188 288.496094 36.667969 288.164062 37.011719 C 287.828125 37.34375 287.664062 37.792969 287.664062 38.34375 Z M 287.664062 38.34375 "/>
<path style="fill-rule:nonzero;fill:rgb(40.000001%,74.901962%,100%);fill-opacity:1;stroke-width:1;stroke-linecap:round;stroke-linejoin:round;stroke:rgb(0%,0%,0%);stroke-opacity:1;stroke-miterlimit:10;" d="M 242.999023 206.999023 L 260.999023 206.999023 L 260.999023 224.999023 L 242.999023 224.999023 Z M 242.999023 206.999023 " transform="matrix(1.333333,0,0,1.333333,-70.666667,-250.666667)"/>
<path style=" stroke:none;fill-rule:nonzero;fill:rgb(0%,0%,0%);fill-opacity:1;" d="M 262.496094 38.886719 L 263.601562 38.78125 C 263.683594 39.324219 263.871094 39.734375 264.164062 40.011719 C 264.464844 40.277344 264.828125 40.40625 265.246094 40.40625 C 265.757812 40.40625 266.1875 40.21875 266.539062 39.84375 C 266.898438 39.460938 267.078125 38.949219 267.078125 38.324219 C 267.078125 37.714844 266.902344 37.234375 266.558594 36.886719 C 266.226562 36.542969 265.789062 36.367188 265.246094 36.367188 C 264.898438 36.367188 264.585938 36.449219 264.308594 36.617188 C 264.042969 36.773438 263.828125 36.964844 263.664062 37.199219 L 262.683594 37.074219 L 263.515625 32.65625 L 267.789062 32.65625 L 267.789062 33.679688 L 264.351562 33.679688 L 263.890625 35.96875 C 264.402344 35.625 264.945312 35.449219 265.515625 35.449219 C 266.265625 35.449219 266.898438 35.710938 267.414062 36.21875 C 267.921875 36.734375 268.183594 37.402344 268.183594 38.21875 C 268.183594 39 267.960938 39.671875 267.515625 40.242188 C 266.960938 40.9375 266.203125 41.28125 265.246094 41.28125 C 264.464844 41.28125 263.828125 41.070312 263.328125 40.636719 C 262.839844 40.195312 262.5625 39.609375 262.496094 38.886719 Z M 262.496094 38.886719 "/>
<path style="fill:none;stroke-width:2;stroke-linecap:round;stroke-linejoin:round;stroke:rgb(0%,0%,0%);stroke-opacity:1;stroke-miterlimit:10;" d="M 242.999023 206.999023 L 278.999023 206.999023 L 278.999023 242.999023 L 242.999023 242.999023 Z M 242.999023 206.999023 " transform="matrix(1.333333,0,0,1.333333,-70.666667,-250.666667)"/>
<path style="fill:none;stroke-width:1;stroke-linecap:round;stroke-linejoin:round;stroke:rgb(0%,0%,0%);stroke-opacity:1;stroke-miterlimit:10;" d="M 152.999023 211.80957 L 215.999023 211.80957 L 215.999023 238.80957 L 152.999023 238.80957 Z M 152.999023 211.80957 " transform="matrix(1.333333,0,0,1.333333,-70.666667,-250.666667)"/>
<path style=" stroke:none;fill-rule:nonzero;fill:rgb(0%,0%,0%);fill-opacity:1;" d="M 157.363281 45.664062 L 157.363281 46.683594 L 151.675781 46.683594 C 151.675781 46.433594 151.71875 46.195312 151.800781 45.957031 C 151.953125 45.570312 152.1875 45.183594 152.507812 44.808594 C 152.828125 44.433594 153.285156 44.007812 153.882812 43.519531 C 154.8125 42.742188 155.4375 42.132812 155.757812 41.683594 C 156.09375 41.242188 156.257812 40.820312 156.257812 40.414062 C 156.257812 39.996094 156.101562 39.652344 155.800781 39.371094 C 155.507812 39.082031 155.125 38.933594 154.65625 38.933594 C 154.140625 38.933594 153.726562 39.089844 153.425781 39.394531 C 153.117188 39.699219 152.96875 40.121094 152.96875 40.664062 L 151.882812 40.539062 C 151.953125 39.738281 152.226562 39.121094 152.71875 38.707031 C 153.203125 38.277344 153.851562 38.058594 154.675781 38.058594 C 155.492188 38.058594 156.140625 38.289062 156.613281 38.746094 C 157.097656 39.207031 157.34375 39.769531 157.34375 40.433594 C 157.34375 40.785156 157.269531 41.121094 157.132812 41.457031 C 156.992188 41.789062 156.757812 42.144531 156.425781 42.519531 C 156.101562 42.882812 155.570312 43.382812 154.820312 44.019531 C 154.179688 44.550781 153.769531 44.910156 153.59375 45.101562 C 153.410156 45.300781 153.265625 45.488281 153.15625 45.664062 Z M 157.363281 45.664062 "/>
<path style=" stroke:none;fill-rule:nonzero;fill:rgb(0%,0%,0%);fill-opacity:1;" d="M 161.414062 46.683594 L 163.683594 43.457031 L 161.578125 40.457031 L 162.914062 40.457031 L 163.871094 41.914062 C 164.039062 42.195312 164.171875 42.429688 164.289062 42.621094 C 164.464844 42.363281 164.625 42.132812 164.765625 41.933594 L 165.808594 40.457031 L 167.078125 40.457031 L 164.933594 43.394531 L 167.246094 46.683594 L 165.953125 46.683594 L 164.664062 44.746094 L 164.328125 44.226562 L 162.703125 46.683594 Z M 161.414062 46.683594 "/>
<path style=" stroke:none;fill-rule:nonzero;fill:rgb(0%,0%,0%);fill-opacity:1;" d="M 176.703125 45.664062 L 176.703125 46.683594 L 171.015625 46.683594 C 171.015625 46.433594 171.058594 46.195312 171.140625 45.957031 C 171.292969 45.570312 171.527344 45.183594 171.851562 44.808594 C 172.167969 44.433594 172.625 44.007812 173.226562 43.519531 C 174.152344 42.742188 174.777344 42.132812 175.101562 41.683594 C 175.433594 41.242188 175.601562 40.820312 175.601562 40.414062 C 175.601562 39.996094 175.445312 39.652344 175.140625 39.371094 C 174.851562 39.082031 174.464844 38.933594 173.996094 38.933594 C 173.480469 38.933594 173.070312 39.089844 172.765625 39.394531 C 172.460938 39.699219 172.308594 40.121094 172.308594 40.664062 L 171.226562 40.539062 C 171.292969 39.738281 171.570312 39.121094 172.058594 38.707031 C 172.542969 38.277344 173.195312 38.058594 174.015625 38.058594 C 174.835938 38.058594 175.480469 38.289062 175.953125 38.746094 C 176.4375 39.207031 176.683594 39.769531 176.683594 40.433594 C 176.683594 40.785156 176.609375 41.121094 176.476562 41.457031 C 176.335938 41.789062 176.101562 42.144531 175.765625 42.519531 C 175.445312 42.882812 174.914062 43.382812 174.164062 44.019531 C 173.523438 44.550781 173.109375 44.910156 172.933594 45.101562 C 172.75 45.300781 172.605469 45.488281 172.496094 45.664062 Z M 176.703125 45.664062 "/>
<path style=" stroke:none;fill-rule:nonzero;fill:rgb(0%,0%,0%);fill-opacity:1;" d="M 181.609375 46.683594 L 181.609375 38.101562 L 185.421875 38.101562 C 186.179688 38.101562 186.765625 38.179688 187.171875 38.332031 C 187.570312 38.488281 187.890625 38.757812 188.128906 39.144531 C 188.363281 39.535156 188.484375 39.964844 188.484375 40.433594 C 188.484375 41.050781 188.28125 41.558594 187.878906 41.976562 C 187.488281 42.394531 186.882812 42.660156 186.066406 42.769531 C 186.359375 42.925781 186.585938 43.070312 186.753906 43.207031 C 187.085938 43.511719 187.398438 43.894531 187.691406 44.351562 L 189.191406 46.683594 L 187.753906 46.683594 L 186.609375 44.894531 C 186.285156 44.382812 186.015625 43.992188 185.796875 43.726562 C 185.585938 43.449219 185.390625 43.257812 185.210938 43.144531 C 185.046875 43.035156 184.878906 42.957031 184.710938 42.914062 C 184.570312 42.886719 184.359375 42.871094 184.066406 42.871094 L 182.753906 42.871094 L 182.753906 46.683594 Z M 182.753906 41.894531 L 185.191406 41.894531 C 185.71875 41.894531 186.128906 41.839844 186.421875 41.726562 C 186.710938 41.617188 186.929688 41.445312 187.085938 41.207031 C 187.238281 40.972656 187.316406 40.714844 187.316406 40.433594 C 187.316406 40.035156 187.160156 39.699219 186.859375 39.433594 C 186.566406 39.175781 186.097656 39.039062 185.460938 39.039062 L 182.753906 39.039062 Z M 182.753906 41.894531 "/>
<path style=" stroke:none;fill-rule:nonzero;fill:rgb(0%,0%,0%);fill-opacity:1;" d="M 189.734375 43.582031 C 189.734375 42.429688 190.050781 41.574219 190.691406 41.019531 C 191.234375 40.558594 191.882812 40.332031 192.648438 40.332031 C 193.507812 40.332031 194.210938 40.613281 194.753906 41.164062 C 195.296875 41.722656 195.566406 42.492188 195.566406 43.476562 C 195.566406 44.285156 195.441406 44.914062 195.191406 45.371094 C 194.953125 45.832031 194.609375 46.195312 194.148438 46.457031 C 193.691406 46.707031 193.191406 46.832031 192.648438 46.832031 C 191.773438 46.832031 191.066406 46.554688 190.523438 45.996094 C 189.992188 45.429688 189.734375 44.621094 189.734375 43.582031 Z M 190.816406 43.582031 C 190.816406 44.371094 190.988281 44.972656 191.335938 45.371094 C 191.679688 45.761719 192.117188 45.957031 192.648438 45.957031 C 193.175781 45.957031 193.613281 45.761719 193.960938 45.371094 C 194.304688 44.972656 194.484375 44.363281 194.484375 43.539062 C 194.484375 42.777344 194.304688 42.195312 193.960938 41.789062 C 193.613281 41.386719 193.175781 41.183594 192.648438 41.183594 C 192.117188 41.183594 191.679688 41.386719 191.335938 41.789062 C 190.988281 42.179688 190.816406 42.777344 190.816406 43.582031 Z M 190.816406 43.582031 "/>
<path style=" stroke:none;fill-rule:nonzero;fill:rgb(0%,0%,0%);fill-opacity:1;" d="M 197.136719 46.683594 L 197.136719 38.101562 L 198.261719 38.101562 L 198.261719 46.683594 Z M 197.136719 46.683594 "/>
<path style=" stroke:none;fill-rule:nonzero;fill:rgb(0%,0%,0%);fill-opacity:1;" d="M 156.234375 60.410156 L 156.234375 51.828125 L 159.484375 51.828125 C 160.050781 51.828125 160.488281 51.859375 160.796875 51.910156 C 161.214844 51.984375 161.558594 52.113281 161.839844 52.304688 C 162.128906 52.503906 162.359375 52.78125 162.527344 53.140625 C 162.703125 53.488281 162.796875 53.878906 162.796875 54.304688 C 162.796875 55.046875 162.558594 55.660156 162.089844 56.160156 C 161.628906 56.660156 160.796875 56.910156 159.589844 56.910156 L 157.378906 56.910156 L 157.378906 60.410156 Z M 157.378906 55.910156 L 159.609375 55.910156 C 160.328125 55.910156 160.84375 55.773438 161.152344 55.492188 C 161.46875 55.21875 161.628906 54.835938 161.628906 54.347656 C 161.628906 53.988281 161.535156 53.679688 161.359375 53.429688 C 161.175781 53.171875 160.933594 52.992188 160.628906 52.910156 C 160.449219 52.859375 160.09375 52.828125 159.566406 52.828125 L 157.378906 52.828125 Z M 157.378906 55.910156 "/>
<path style=" stroke:none;fill-rule:nonzero;fill:rgb(0%,0%,0%);fill-opacity:1;" d="M 163.71875 57.304688 C 163.71875 56.15625 164.035156 55.300781 164.675781 54.742188 C 165.21875 54.285156 165.867188 54.054688 166.632812 54.054688 C 167.492188 54.054688 168.195312 54.335938 168.738281 54.890625 C 169.28125 55.445312 169.550781 56.21875 169.550781 57.203125 C 169.550781 58.007812 169.425781 58.640625 169.175781 59.097656 C 168.9375 59.554688 168.59375 59.921875 168.132812 60.179688 C 167.675781 60.429688 167.175781 60.554688 166.632812 60.554688 C 165.757812 60.554688 165.050781 60.28125 164.507812 59.722656 C 163.976562 59.15625 163.71875 58.347656 163.71875 57.304688 Z M 164.800781 57.304688 C 164.800781 58.097656 164.972656 58.695312 165.320312 59.097656 C 165.664062 59.488281 166.101562 59.679688 166.632812 59.679688 C 167.160156 59.679688 167.597656 59.488281 167.945312 59.097656 C 168.289062 58.695312 168.46875 58.085938 168.46875 57.265625 C 168.46875 56.503906 168.289062 55.921875 167.945312 55.515625 C 167.597656 55.113281 167.160156 54.910156 166.632812 54.910156 C 166.101562 54.910156 165.664062 55.113281 165.320312 55.515625 C 164.972656 55.90625 164.800781 56.503906 164.800781 57.304688 Z M 164.800781 57.304688 "/>
<path style=" stroke:none;fill-rule:nonzero;fill:rgb(0%,0%,0%);fill-opacity:1;" d="M 170.390625 57.304688 C 170.390625 56.15625 170.710938 55.300781 171.351562 54.742188 C 171.890625 54.285156 172.542969 54.054688 173.308594 54.054688 C 174.167969 54.054688 174.871094 54.335938 175.414062 54.890625 C 175.953125 55.445312 176.226562 56.21875 176.226562 57.203125 C 176.226562 58.007812 176.101562 58.640625 175.851562 59.097656 C 175.609375 59.554688 175.265625 59.921875 174.808594 60.179688 C 174.351562 60.429688 173.851562 60.554688 173.308594 60.554688 C 172.433594 60.554688 171.726562 60.28125 171.183594 59.722656 C 170.652344 59.15625 170.390625 58.347656 170.390625 57.304688 Z M 171.476562 57.304688 C 171.476562 58.097656 171.648438 58.695312 171.996094 59.097656 C 172.339844 59.488281 172.777344 59.679688 173.308594 59.679688 C 173.835938 59.679688 174.273438 59.488281 174.621094 59.097656 C 174.964844 58.695312 175.140625 58.085938 175.140625 57.265625 C 175.140625 56.503906 174.964844 55.921875 174.621094 55.515625 C 174.273438 55.113281 173.835938 54.910156 173.308594 54.910156 C 172.777344 54.910156 172.339844 55.113281 171.996094 55.515625 C 171.648438 55.90625 171.476562 56.503906 171.476562 57.304688 Z M 171.476562 57.304688 "/>
<path style=" stroke:none;fill-rule:nonzero;fill:rgb(0%,0%,0%);fill-opacity:1;" d="M 177.441406 60.410156 L 177.441406 51.828125 L 178.484375 51.828125 L 178.484375 60.410156 Z M 177.441406 60.410156 "/>
<path style=" stroke:none;fill-rule:nonzero;fill:rgb(0%,0%,0%);fill-opacity:1;" d="M 180.128906 53.035156 L 180.128906 51.828125 L 181.191406 51.828125 L 181.191406 53.035156 Z M 180.128906 60.410156 L 180.128906 54.179688 L 181.191406 54.179688 L 181.191406 60.410156 Z M 180.128906 60.410156 "/>
<path style=" stroke:none;fill-rule:nonzero;fill:rgb(0%,0%,0%);fill-opacity:1;" d="M 182.796875 60.410156 L 182.796875 54.179688 L 183.753906 54.179688 L 183.753906 55.078125 C 184.195312 54.398438 184.859375 54.054688 185.734375 54.054688 C 186.109375 54.054688 186.445312 54.128906 186.753906 54.265625 C 187.070312 54.390625 187.304688 54.566406 187.460938 54.785156 C 187.613281 54.992188 187.722656 55.253906 187.796875 55.554688 C 187.835938 55.753906 187.859375 56.09375 187.859375 56.578125 L 187.859375 60.410156 L 186.796875 60.410156 L 186.796875 56.617188 C 186.796875 56.191406 186.753906 55.867188 186.671875 55.660156 C 186.585938 55.453125 186.441406 55.285156 186.234375 55.160156 C 186.023438 55.023438 185.78125 54.953125 185.503906 54.953125 C 185.054688 54.953125 184.671875 55.097656 184.335938 55.390625 C 184.015625 55.671875 183.859375 56.210938 183.859375 57.015625 L 183.859375 60.410156 Z M 182.796875 60.410156 "/>
<path style=" stroke:none;fill-rule:nonzero;fill:rgb(0%,0%,0%);fill-opacity:1;" d="M 189.28125 60.929688 L 190.304688 61.078125 C 190.34375 61.394531 190.460938 61.625 190.65625 61.765625 C 190.917969 61.957031 191.28125 62.054688 191.742188 62.054688 C 192.222656 62.054688 192.597656 61.957031 192.867188 61.765625 C 193.125 61.566406 193.308594 61.296875 193.40625 60.953125 C 193.460938 60.726562 193.480469 60.28125 193.46875 59.597656 C 193.011719 60.140625 192.4375 60.410156 191.761719 60.410156 C 190.894531 60.410156 190.230469 60.109375 189.761719 59.492188 C 189.304688 58.867188 189.074219 58.128906 189.074219 57.265625 C 189.074219 56.671875 189.179688 56.117188 189.386719 55.617188 C 189.605469 55.117188 189.917969 54.738281 190.324219 54.472656 C 190.722656 54.195312 191.203125 54.054688 191.761719 54.054688 C 192.496094 54.054688 193.097656 54.347656 193.574219 54.929688 L 193.574219 54.179688 L 194.554688 54.179688 L 194.554688 59.554688 C 194.554688 60.523438 194.449219 61.210938 194.242188 61.617188 C 194.042969 62.019531 193.730469 62.335938 193.304688 62.578125 C 192.886719 62.8125 192.367188 62.929688 191.742188 62.929688 C 190.992188 62.929688 190.386719 62.765625 189.929688 62.429688 C 189.480469 62.097656 189.265625 61.597656 189.28125 60.929688 Z M 190.15625 57.179688 C 190.15625 58.003906 190.3125 58.597656 190.636719 58.972656 C 190.953125 59.347656 191.355469 59.535156 191.84375 59.535156 C 192.328125 59.535156 192.742188 59.347656 193.074219 58.972656 C 193.40625 58.597656 193.574219 58.015625 193.574219 57.222656 C 193.574219 56.460938 193.394531 55.882812 193.054688 55.492188 C 192.71875 55.109375 192.3125 54.910156 191.84375 54.910156 C 191.371094 54.910156 190.96875 55.109375 190.636719 55.492188 C 190.3125 55.867188 190.15625 56.429688 190.15625 57.179688 Z M 190.15625 57.179688 "/>
</g>
</svg>
