<?xml version="1.0" encoding="UTF-8"?>
<svg xmlns="http://www.w3.org/2000/svg" xmlns:xlink="http://www.w3.org/1999/xlink" width="544" height="169.333333" viewBox="0 0 544 169.333333" version="1.1">
<g id="surface1">
<path style="fill-rule:nonzero;fill:rgb(40.000001%,74.901962%,100%);fill-opacity:1;stroke-width:1;stroke-linecap:round;stroke-linejoin:round;stroke:rgb(0%,0%,0%);stroke-opacity:1;stroke-miterlimit:10;" d="M 68 338.999023 L 134 338.999023 L 134 362.999023 L 68 362.999023 Z M 68 338.999023 " transform="matrix(1.333333,0,0,1.333333,13.333333,-450.666667)"/>
<path style=" stroke:none;fill-rule:nonzero;fill:rgb(0%,0%,0%);fill-opacity:1;" d="M 121.382812 18.03125 C 121.382812 16.882812 121.699219 16.027344 122.339844 15.46875 C 122.882812 15.011719 123.53125 14.78125 124.296875 14.78125 C 125.15625 14.78125 125.859375 15.0625 126.402344 15.617188 C 126.945312 16.171875 127.214844 16.945312 127.214844 17.929688 C 127.214844 18.734375 127.089844 19.367188 126.839844 19.824219 C 126.601562 20.28125 126.257812 20.648438 125.796875 20.90625 C 125.339844 21.15625 124.839844 21.28125 124.296875 21.28125 C 123.421875 21.28125 122.714844 21.007812 122.171875 20.449219 C 121.640625 19.882812 121.382812 19.074219 121.382812 18.03125 Z M 122.464844 18.03125 C 122.464844 18.824219 122.636719 19.421875 122.984375 19.824219 C 123.328125 20.214844 123.765625 20.40625 124.296875 20.40625 C 124.824219 20.40625 125.261719 20.214844 125.609375 19.824219 C 125.953125 19.421875 126.132812 18.8125 126.132812 17.992188 C 126.132812 17.230469 125.953125 16.648438 125.609375 16.242188 C 125.261719 15.839844 124.824219 15.636719 124.296875 15.636719 C 123.765625 15.636719 123.328125 15.839844 122.984375 16.242188 C 122.636719 16.632812 122.464844 17.230469 122.464844 18.03125 Z M 122.464844 18.03125 "/>
<path style=" stroke:none;fill-rule:nonzero;fill:rgb(0%,0%,0%);fill-opacity:1;" d="M 128.453125 21.136719 L 128.453125 14.90625 L 129.410156 14.90625 L 129.410156 15.804688 C 129.851562 15.125 130.515625 14.78125 131.390625 14.78125 C 131.765625 14.78125 132.101562 14.855469 132.410156 14.992188 C 132.726562 15.117188 132.960938 15.292969 133.117188 15.511719 C 133.269531 15.71875 133.378906 15.980469 133.453125 16.28125 C 133.492188 16.480469 133.515625 16.820312 133.515625 17.304688 L 133.515625 21.136719 L 132.453125 21.136719 L 132.453125 17.34375 C 132.453125 16.917969 132.410156 16.59375 132.328125 16.386719 C 132.242188 16.179688 132.097656 16.011719 131.890625 15.886719 C 131.679688 15.75 131.4375 15.679688 131.160156 15.679688 C 130.710938 15.679688 130.328125 15.824219 129.992188 16.117188 C 129.671875 16.398438 129.515625 16.9375 129.515625 17.742188 L 129.515625 21.136719 Z M 128.453125 21.136719 "/>
<path style=" stroke:none;fill-rule:nonzero;fill:rgb(0%,0%,0%);fill-opacity:1;" d="M 139.375 19.136719 L 140.480469 19.261719 C 140.296875 19.902344 139.96875 20.402344 139.5 20.761719 C 139.042969 21.109375 138.449219 21.28125 137.730469 21.28125 C 136.824219 21.28125 136.105469 21.007812 135.5625 20.449219 C 135.03125 19.882812 134.773438 19.089844 134.773438 18.074219 C 134.773438 17.03125 135.042969 16.230469 135.585938 15.65625 C 136.125 15.074219 136.824219 14.78125 137.6875 14.78125 C 138.523438 14.78125 139.195312 15.070312 139.710938 15.636719 C 140.234375 16.195312 140.5 16.984375 140.5 18.011719 C 140.5 18.085938 140.5 18.179688 140.5 18.304688 L 135.855469 18.304688 C 135.898438 18.984375 136.089844 19.507812 136.4375 19.867188 C 136.78125 20.230469 137.21875 20.40625 137.75 20.40625 C 138.136719 20.40625 138.464844 20.3125 138.730469 20.117188 C 139.007812 19.90625 139.21875 19.585938 139.375 19.136719 Z M 135.917969 17.429688 L 139.398438 17.429688 C 139.355469 16.902344 139.21875 16.507812 139 16.242188 C 138.667969 15.839844 138.230469 15.636719 137.6875 15.636719 C 137.199219 15.636719 136.792969 15.804688 136.460938 16.136719 C 136.136719 16.460938 135.960938 16.886719 135.917969 17.429688 Z M 135.917969 17.429688 "/>
<path style=" stroke:none;fill-rule:nonzero;fill:rgb(0%,0%,0%);fill-opacity:1;" d="M 141.382812 19.28125 L 142.425781 19.117188 C 142.476562 19.53125 142.640625 19.855469 142.90625 20.074219 C 143.179688 20.296875 143.554688 20.40625 144.03125 20.40625 C 144.515625 20.40625 144.875 20.3125 145.113281 20.117188 C 145.347656 19.921875 145.46875 19.695312 145.46875 19.429688 C 145.46875 19.179688 145.363281 18.992188 145.15625 18.867188 C 145 18.773438 144.640625 18.648438 144.070312 18.492188 C 143.289062 18.296875 142.75 18.132812 142.445312 17.992188 C 142.15625 17.855469 141.929688 17.65625 141.78125 17.40625 C 141.625 17.15625 141.550781 16.882812 141.550781 16.574219 C 141.550781 16.296875 141.613281 16.042969 141.738281 15.804688 C 141.863281 15.570312 142.035156 15.367188 142.257812 15.199219 C 142.425781 15.089844 142.644531 14.992188 142.925781 14.90625 C 143.21875 14.824219 143.519531 14.78125 143.84375 14.78125 C 144.328125 14.78125 144.75 14.855469 145.113281 14.992188 C 145.488281 15.132812 145.765625 15.320312 145.945312 15.554688 C 146.125 15.792969 146.25 16.109375 146.320312 16.511719 L 145.28125 16.65625 C 145.238281 16.339844 145.097656 16.089844 144.863281 15.90625 C 144.640625 15.730469 144.328125 15.636719 143.925781 15.636719 C 143.4375 15.636719 143.09375 15.71875 142.882812 15.886719 C 142.675781 16.042969 142.570312 16.230469 142.570312 16.449219 C 142.570312 16.589844 142.613281 16.710938 142.695312 16.804688 C 142.78125 16.929688 142.914062 17.027344 143.113281 17.09375 C 143.207031 17.136719 143.515625 17.230469 144.03125 17.367188 C 144.78125 17.5625 145.300781 17.71875 145.59375 17.84375 C 145.894531 17.96875 146.132812 18.15625 146.300781 18.40625 C 146.46875 18.648438 146.550781 18.945312 146.550781 19.304688 C 146.550781 19.667969 146.445312 20 146.238281 20.304688 C 146.03125 20.609375 145.726562 20.855469 145.34375 21.03125 C 144.96875 21.199219 144.53125 21.28125 144.03125 21.28125 C 143.222656 21.28125 142.601562 21.117188 142.175781 20.78125 C 141.757812 20.4375 141.492188 19.9375 141.382812 19.28125 Z M 141.382812 19.28125 "/>
<path style=" stroke:none;fill-rule:nonzero;fill:rgb(0%,0%,0%);fill-opacity:1;" d="M 149.820312 23.65625 C 149.238281 22.917969 148.742188 22.0625 148.34375 21.09375 C 147.9375 20.109375 147.738281 19.089844 147.738281 18.03125 C 147.738281 17.105469 147.890625 16.210938 148.195312 15.34375 C 148.539062 14.359375 149.082031 13.382812 149.820312 12.40625 L 150.570312 12.40625 C 150.097656 13.214844 149.785156 13.792969 149.632812 14.136719 C 149.394531 14.679688 149.207031 15.242188 149.070312 15.824219 C 148.90625 16.5625 148.820312 17.296875 148.820312 18.03125 C 148.820312 19.90625 149.40625 21.78125 150.570312 23.65625 Z M 149.820312 23.65625 "/>
<path style=" stroke:none;fill-rule:nonzero;fill:rgb(0%,0%,0%);fill-opacity:1;" d="M 155.484375 21.136719 L 154.421875 21.136719 L 154.421875 14.40625 C 154.171875 14.65625 153.835938 14.90625 153.421875 15.15625 C 153.003906 15.398438 152.632812 15.570312 152.316406 15.679688 L 152.316406 14.65625 C 152.898438 14.398438 153.410156 14.070312 153.859375 13.679688 C 154.300781 13.277344 154.613281 12.886719 154.796875 12.511719 L 155.484375 12.511719 Z M 155.484375 21.136719 "/>
<path style=" stroke:none;fill-rule:nonzero;fill:rgb(0%,0%,0%);fill-opacity:1;" d="M 158.742188 21.136719 L 158.742188 19.929688 L 159.949219 19.929688 L 159.949219 21.136719 C 159.949219 21.578125 159.867188 21.933594 159.699219 22.199219 C 159.542969 22.476562 159.304688 22.6875 158.96875 22.84375 L 158.679688 22.386719 C 158.898438 22.289062 159.058594 22.140625 159.15625 21.949219 C 159.265625 21.765625 159.328125 21.496094 159.34375 21.136719 Z M 158.742188 21.136719 "/>
<path style=" stroke:none;fill-rule:nonzero;fill:rgb(0%,0%,0%);fill-opacity:1;" d="M 170.386719 20.117188 L 170.386719 21.136719 L 164.699219 21.136719 C 164.699219 20.886719 164.742188 20.648438 164.824219 20.40625 C 164.976562 20.023438 165.210938 19.636719 165.535156 19.261719 C 165.851562 18.886719 166.308594 18.460938 166.910156 17.96875 C 167.835938 17.195312 168.460938 16.585938 168.785156 16.136719 C 169.117188 15.695312 169.285156 15.273438 169.285156 14.867188 C 169.285156 14.449219 169.128906 14.105469 168.824219 13.824219 C 168.535156 13.53125 168.148438 13.386719 167.679688 13.386719 C 167.164062 13.386719 166.753906 13.542969 166.449219 13.84375 C 166.144531 14.152344 165.992188 14.574219 165.992188 15.117188 L 164.910156 14.992188 C 164.976562 14.1875 165.253906 13.574219 165.742188 13.15625 C 166.226562 12.730469 166.878906 12.511719 167.699219 12.511719 C 168.519531 12.511719 169.164062 12.742188 169.636719 13.199219 C 170.121094 13.65625 170.367188 14.21875 170.367188 14.886719 C 170.367188 15.234375 170.292969 15.574219 170.160156 15.90625 C 170.019531 16.242188 169.785156 16.59375 169.449219 16.96875 C 169.128906 17.335938 168.597656 17.835938 167.847656 18.46875 C 167.207031 19 166.792969 19.359375 166.617188 19.554688 C 166.433594 19.75 166.289062 19.9375 166.179688 20.117188 Z M 170.386719 20.117188 "/>
<path style=" stroke:none;fill-rule:nonzero;fill:rgb(0%,0%,0%);fill-opacity:1;" d="M 172.5 23.65625 L 171.75 23.65625 C 172.917969 21.78125 173.5 19.90625 173.5 18.03125 C 173.5 17.296875 173.417969 16.570312 173.25 15.84375 C 173.109375 15.261719 172.921875 14.699219 172.6875 14.15625 C 172.53125 13.8125 172.21875 13.230469 171.75 12.40625 L 172.5 12.40625 C 173.234375 13.382812 173.777344 14.359375 174.125 15.34375 C 174.425781 16.210938 174.582031 17.105469 174.582031 18.03125 C 174.582031 19.089844 174.378906 20.109375 173.980469 21.09375 C 173.574219 22.0625 173.082031 22.917969 172.5 23.65625 Z M 172.5 23.65625 "/>
<path style="fill-rule:nonzero;fill:rgb(40.000001%,74.901962%,100%);fill-opacity:1;stroke-width:1;stroke-linecap:round;stroke-linejoin:round;stroke:rgb(0%,0%,0%);stroke-opacity:1;stroke-miterlimit:10;" d="M 247.425781 338.999023 L 278.999023 338.999023 L 278.999023 362.999023 L 247.425781 362.999023 Z M 247.425781 338.999023 " transform="matrix(1.333333,0,0,1.333333,13.333333,-450.666667)"/>
<path style=" stroke:none;fill-rule:nonzero;fill:rgb(0%,0%,0%);fill-opacity:1;" d="M 352.699219 21.136719 L 354.96875 17.90625 L 352.863281 14.90625 L 354.199219 14.90625 L 355.15625 16.367188 C 355.324219 16.648438 355.457031 16.882812 355.574219 17.074219 C 355.75 16.8125 355.910156 16.585938 356.050781 16.386719 L 357.09375 14.90625 L 358.363281 14.90625 L 356.21875 17.84375 L 358.53125 21.136719 L 357.238281 21.136719 L 355.949219 19.199219 L 355.613281 18.679688 L 353.988281 21.136719 Z M 352.699219 21.136719 "/>
<path style=" stroke:none;fill-rule:nonzero;fill:rgb(0%,0%,0%);fill-opacity:1;" d="M 362.324219 14.117188 L 362.59375 13.28125 C 363.21875 13.507812 363.667969 13.699219 363.949219 13.867188 C 363.875 13.15625 363.832031 12.671875 363.824219 12.40625 L 364.675781 12.40625 C 364.660156 12.78125 364.621094 13.261719 364.550781 13.84375 C 364.953125 13.652344 365.410156 13.464844 365.925781 13.28125 L 366.199219 14.117188 C 365.699219 14.28125 365.207031 14.398438 364.738281 14.449219 C 364.972656 14.65625 365.308594 15.027344 365.738281 15.554688 L 365.050781 16.054688 C 364.8125 15.75 364.542969 15.335938 364.238281 14.804688 C 363.949219 15.34375 363.6875 15.761719 363.46875 16.054688 L 362.78125 15.554688 C 363.238281 15 363.5625 14.632812 363.761719 14.449219 C 363.261719 14.355469 362.78125 14.242188 362.324219 14.117188 Z M 362.324219 14.117188 "/>
<path style=" stroke:none;fill-rule:nonzero;fill:rgb(0%,0%,0%);fill-opacity:1;" d="M 370.703125 23.53125 L 370.578125 22.554688 C 370.8125 22.605469 371.015625 22.636719 371.179688 22.636719 C 371.414062 22.636719 371.601562 22.59375 371.742188 22.511719 C 371.878906 22.4375 372 22.335938 372.097656 22.199219 C 372.148438 22.085938 372.253906 21.824219 372.410156 21.40625 C 372.4375 21.351562 372.472656 21.265625 372.515625 21.15625 L 370.140625 14.90625 L 371.285156 14.90625 L 372.578125 18.511719 C 372.742188 18.96875 372.894531 19.449219 373.035156 19.949219 C 373.144531 19.480469 373.285156 19.007812 373.453125 18.53125 L 374.785156 14.90625 L 375.847656 14.90625 L 373.472656 21.242188 C 373.222656 21.917969 373.023438 22.390625 372.890625 22.65625 C 372.691406 23 372.476562 23.25 372.242188 23.40625 C 372.003906 23.574219 371.710938 23.65625 371.367188 23.65625 C 371.171875 23.65625 370.953125 23.617188 370.703125 23.53125 Z M 370.703125 23.53125 "/>
<path style="fill-rule:nonzero;fill:rgb(40.000001%,74.901962%,100%);fill-opacity:1;stroke-width:1;stroke-linecap:round;stroke-linejoin:round;stroke:rgb(0%,0%,0%);stroke-opacity:1;stroke-miterlimit:10;" d="M 302.424805 338.999023 L 334.000977 338.999023 L 334.000977 362.999023 L 302.424805 362.999023 Z M 302.424805 338.999023 " transform="matrix(1.333333,0,0,1.333333,13.333333,-450.666667)"/>
<path style=" stroke:none;fill-rule:nonzero;fill:rgb(0%,0%,0%);fill-opacity:1;" d="M 423.917969 23.511719 L 423.917969 22.761719 L 430.917969 22.761719 L 430.917969 23.511719 Z M 423.917969 23.511719 "/>
<path style=" stroke:none;fill-rule:nonzero;fill:rgb(0%,0%,0%);fill-opacity:1;" d="M 437.113281 19.742188 L 437.113281 17.386719 L 434.78125 17.386719 L 434.78125 16.40625 L 437.113281 16.40625 L 437.113281 14.074219 L 438.113281 14.074219 L 438.113281 16.40625 L 440.445312 16.40625 L 440.445312 17.386719 L 438.113281 17.386719 L 438.113281 19.742188 Z M 437.113281 19.742188 "/>
<path style=" stroke:none;fill-rule:nonzero;fill:rgb(0%,0%,0%);fill-opacity:1;" d="M 450.496094 20.117188 L 450.496094 21.136719 L 444.808594 21.136719 C 444.808594 20.886719 444.851562 20.648438 444.933594 20.40625 C 445.085938 20.023438 445.320312 19.636719 445.640625 19.261719 C 445.960938 18.886719 446.417969 18.460938 447.015625 17.96875 C 447.945312 17.195312 448.570312 16.585938 448.890625 16.136719 C 449.226562 15.695312 449.390625 15.273438 449.390625 14.867188 C 449.390625 14.449219 449.234375 14.105469 448.933594 13.824219 C 448.640625 13.53125 448.257812 13.386719 447.789062 13.386719 C 447.273438 13.386719 446.859375 13.542969 446.558594 13.84375 C 446.25 14.152344 446.101562 14.574219 446.101562 15.117188 L 445.015625 14.992188 C 445.085938 14.1875 445.359375 13.574219 445.851562 13.15625 C 446.335938 12.730469 446.984375 12.511719 447.808594 12.511719 C 448.625 12.511719 449.273438 12.742188 449.746094 13.199219 C 450.230469 13.65625 450.476562 14.21875 450.476562 14.886719 C 450.476562 15.234375 450.402344 15.574219 450.265625 15.90625 C 450.125 16.242188 449.890625 16.59375 449.558594 16.96875 C 449.234375 17.335938 448.703125 17.835938 447.953125 18.46875 C 447.3125 19 446.902344 19.359375 446.726562 19.554688 C 446.542969 19.75 446.398438 19.9375 446.289062 20.117188 Z M 450.496094 20.117188 "/>
<path style="fill-rule:nonzero;fill:rgb(100%,100%,100%);fill-opacity:1;stroke-width:1;stroke-linecap:round;stroke-linejoin:round;stroke:rgb(0%,0%,0%);stroke-opacity:1;stroke-miterlimit:10;" d="M 134 338.999023 L 158 338.999023 L 158 362.999023 L 134 362.999023 Z M 134 338.999023 " transform="matrix(1.333333,0,0,1.333333,13.333333,-450.666667)"/>
<path style="fill-rule:nonzero;fill:rgb(100%,100%,100%);fill-opacity:1;stroke-width:1;stroke-linecap:round;stroke-linejoin:round;stroke:rgb(0%,0%,0%);stroke-opacity:1;stroke-miterlimit:10;" d="M 224 338.999023 L 248 338.999023 L 248 362.999023 L 224 362.999023 Z M 224 338.999023 " transform="matrix(1.333333,0,0,1.333333,13.333333,-450.666667)"/>
<path style="fill-rule:nonzero;fill:rgb(100%,100%,100%);fill-opacity:1;stroke-width:1;stroke-linecap:round;stroke-linejoin:round;stroke:rgb(0%,0%,0%);stroke-opacity:1;stroke-miterlimit:10;" d="M 278.999023 338.999023 L 302.999023 338.999023 L 302.999023 362.999023 L 278.999023 362.999023 Z M 278.999023 338.999023 " transform="matrix(1.333333,0,0,1.333333,13.333333,-450.666667)"/>
<path style="fill-rule:nonzero;fill:rgb(40.000001%,74.901962%,100%);fill-opacity:1;stroke-width:1;stroke-linecap:round;stroke-linejoin:round;stroke:rgb(0%,0%,0%);stroke-opacity:1;stroke-miterlimit:10;" d="M 357.426758 338.999023 L 397.000977 338.999023 L 397.000977 362.999023 L 357.426758 362.999023 Z M 357.426758 338.999023 " transform="matrix(1.333333,0,0,1.333333,13.333333,-450.666667)"/>
<path style=" stroke:none;fill-rule:nonzero;fill:rgb(0%,0%,0%);fill-opacity:1;" d="M 498.40625 23.511719 L 498.40625 14.90625 L 499.363281 14.90625 L 499.363281 15.71875 C 499.582031 15.402344 499.832031 15.167969 500.113281 15.011719 C 500.40625 14.859375 500.761719 14.78125 501.175781 14.78125 C 501.703125 14.78125 502.167969 14.921875 502.574219 15.199219 C 502.972656 15.464844 503.28125 15.84375 503.488281 16.34375 C 503.699219 16.84375 503.800781 17.386719 503.800781 17.96875 C 503.800781 18.609375 503.683594 19.1875 503.449219 19.699219 C 503.222656 20.214844 502.894531 20.609375 502.46875 20.886719 C 502.035156 21.148438 501.578125 21.28125 501.09375 21.28125 C 500.746094 21.28125 500.433594 21.203125 500.15625 21.054688 C 499.875 20.902344 499.644531 20.714844 499.46875 20.492188 L 499.46875 23.511719 Z M 499.363281 18.054688 C 499.363281 18.859375 499.519531 19.460938 499.84375 19.84375 C 500.175781 20.21875 500.574219 20.40625 501.03125 20.40625 C 501.488281 20.40625 501.886719 20.214844 502.21875 19.824219 C 502.5625 19.421875 502.738281 18.804688 502.738281 17.96875 C 502.738281 17.179688 502.574219 16.589844 502.238281 16.199219 C 501.917969 15.796875 501.53125 15.59375 501.074219 15.59375 C 500.625 15.59375 500.230469 15.8125 499.886719 16.242188 C 499.535156 16.65625 499.363281 17.261719 499.363281 18.054688 Z M 499.363281 18.054688 "/>
<path style=" stroke:none;fill-rule:nonzero;fill:rgb(0%,0%,0%);fill-opacity:1;" d="M 505.058594 21.136719 L 505.058594 14.90625 L 506.019531 14.90625 L 506.019531 15.867188 C 506.253906 15.421875 506.476562 15.132812 506.683594 14.992188 C 506.894531 14.855469 507.121094 14.78125 507.371094 14.78125 C 507.714844 14.78125 508.082031 14.898438 508.457031 15.117188 L 508.082031 16.09375 C 507.832031 15.945312 507.570312 15.867188 507.308594 15.867188 C 507.085938 15.867188 506.878906 15.9375 506.683594 16.074219 C 506.503906 16.214844 506.371094 16.40625 506.289062 16.65625 C 506.175781 17.03125 506.121094 17.445312 506.121094 17.886719 L 506.121094 21.136719 Z M 505.058594 21.136719 "/>
<path style=" stroke:none;fill-rule:nonzero;fill:rgb(0%,0%,0%);fill-opacity:1;" d="M 509.078125 13.761719 L 509.078125 12.554688 L 510.140625 12.554688 L 510.140625 13.761719 Z M 509.078125 21.136719 L 509.078125 14.90625 L 510.140625 14.90625 L 510.140625 21.136719 Z M 509.078125 21.136719 "/>
<path style=" stroke:none;fill-rule:nonzero;fill:rgb(0%,0%,0%);fill-opacity:1;" d="M 511.742188 21.136719 L 511.742188 14.90625 L 512.703125 14.90625 L 512.703125 15.804688 C 513.144531 15.125 513.804688 14.78125 514.679688 14.78125 C 515.054688 14.78125 515.394531 14.855469 515.703125 14.992188 C 516.019531 15.117188 516.253906 15.292969 516.410156 15.511719 C 516.5625 15.71875 516.671875 15.980469 516.742188 16.28125 C 516.785156 16.480469 516.804688 16.820312 516.804688 17.304688 L 516.804688 21.136719 L 515.742188 21.136719 L 515.742188 17.34375 C 515.742188 16.917969 515.703125 16.59375 515.617188 16.386719 C 515.535156 16.179688 515.390625 16.011719 515.179688 15.886719 C 514.972656 15.75 514.726562 15.679688 514.453125 15.679688 C 514.003906 15.679688 513.617188 15.824219 513.285156 16.117188 C 512.960938 16.398438 512.804688 16.9375 512.804688 17.742188 L 512.804688 21.136719 Z M 511.742188 21.136719 "/>
<path style=" stroke:none;fill-rule:nonzero;fill:rgb(0%,0%,0%);fill-opacity:1;" d="M 520.730469 20.199219 L 520.875 21.117188 C 520.570312 21.183594 520.304688 21.21875 520.085938 21.21875 C 519.695312 21.21875 519.398438 21.15625 519.1875 21.03125 C 518.980469 20.90625 518.824219 20.75 518.730469 20.554688 C 518.648438 20.359375 518.605469 19.949219 518.605469 19.324219 L 518.605469 15.742188 L 517.835938 15.742188 L 517.835938 14.90625 L 518.605469 14.90625 L 518.605469 13.367188 L 519.667969 12.742188 L 519.667969 14.90625 L 520.730469 14.90625 L 520.730469 15.742188 L 519.667969 15.742188 L 519.667969 19.367188 C 519.667969 19.671875 519.679688 19.867188 519.710938 19.949219 C 519.75 20.03125 519.8125 20.105469 519.898438 20.15625 C 519.980469 20.214844 520.09375 20.242188 520.25 20.242188 C 520.375 20.242188 520.53125 20.230469 520.730469 20.199219 Z M 520.730469 20.199219 "/>
<path style=" stroke:none;fill-rule:nonzero;fill:rgb(0%,0%,0%);fill-opacity:1;" d="M 523.773438 23.65625 C 523.1875 22.917969 522.695312 22.0625 522.292969 21.09375 C 521.886719 20.109375 521.6875 19.089844 521.6875 18.03125 C 521.6875 17.105469 521.839844 16.210938 522.148438 15.34375 C 522.492188 14.359375 523.03125 13.382812 523.773438 12.40625 L 524.523438 12.40625 C 524.046875 13.214844 523.734375 13.792969 523.585938 14.136719 C 523.34375 14.679688 523.15625 15.242188 523.023438 15.824219 C 522.855469 16.5625 522.773438 17.296875 522.773438 18.03125 C 522.773438 19.90625 523.355469 21.78125 524.523438 23.65625 Z M 523.773438 23.65625 "/>
<path style=" stroke:none;fill-rule:nonzero;fill:rgb(0%,0%,0%);fill-opacity:1;" d="M 525.183594 21.136719 L 525.183594 20.28125 L 529.144531 15.742188 C 528.695312 15.757812 528.300781 15.761719 527.957031 15.761719 L 525.433594 15.761719 L 525.433594 14.90625 L 530.519531 14.90625 L 530.519531 15.617188 L 527.144531 19.554688 L 526.496094 20.28125 C 526.964844 20.242188 527.414062 20.21875 527.832031 20.21875 L 530.707031 20.21875 L 530.707031 21.136719 Z M 525.183594 21.136719 "/>
<path style=" stroke:none;fill-rule:nonzero;fill:rgb(0%,0%,0%);fill-opacity:1;" d="M 532.433594 23.65625 L 531.683594 23.65625 C 532.851562 21.78125 533.433594 19.90625 533.433594 18.03125 C 533.433594 17.296875 533.351562 16.570312 533.183594 15.84375 C 533.042969 15.261719 532.855469 14.699219 532.621094 14.15625 C 532.464844 13.8125 532.152344 13.230469 531.683594 12.40625 L 532.433594 12.40625 C 533.167969 13.382812 533.710938 14.359375 534.058594 15.34375 C 534.363281 16.210938 534.519531 17.105469 534.519531 18.03125 C 534.519531 19.089844 534.316406 20.109375 533.914062 21.09375 C 533.507812 22.0625 533.019531 22.917969 532.433594 23.65625 Z M 532.433594 23.65625 "/>
<path style="fill-rule:nonzero;fill:rgb(100%,100%,100%);fill-opacity:1;stroke-width:1;stroke-linecap:round;stroke-linejoin:round;stroke:rgb(0%,0%,0%);stroke-opacity:1;stroke-miterlimit:10;" d="M 334.000977 338.999023 L 358.000977 338.999023 L 358.000977 362.999023 L 334.000977 362.999023 Z M 334.000977 338.999023 " transform="matrix(1.333333,0,0,1.333333,13.333333,-450.666667)"/>
<path style=" stroke:none;fill-rule:nonzero;fill:rgb(0%,0%,0%);fill-opacity:1;" d="M 203.878906 8.792969 L 202.597656 7.265625 L 198 11.113281 L 199.292969 12.644531 Z M 218 11.125 L 213.402344 7.265625 L 212.109375 8.792969 L 216.707031 12.652344 Z M 208 9.402344 C 203.03125 9.402344 199 13.433594 199 18.402344 C 199 23.375 203.019531 27.402344 208 27.402344 C 212.96875 27.402344 217 23.375 217 18.402344 C 217 13.433594 212.96875 9.402344 208 9.402344 Z M 208 25.402344 C 204.128906 25.402344 201 22.269531 201 18.402344 C 201 14.53125 204.128906 11.402344 208 11.402344 C 211.871094 11.402344 215 14.53125 215 18.402344 C 215 22.269531 211.871094 25.402344 208 25.402344 Z M 205 16.402344 L 208.628906 16.402344 L 205 20.605469 L 205 22.402344 L 211 22.402344 L 211 20.402344 L 207.371094 20.402344 L 211 16.203125 L 211 14.402344 L 205 14.402344 Z M 205 16.402344 "/>
<path style="fill-rule:nonzero;fill:rgb(100%,100%,100%);fill-opacity:1;stroke-width:1;stroke-linecap:round;stroke-linejoin:round;stroke:rgb(0%,0%,0%);stroke-opacity:1;stroke-miterlimit:10;" d="M 44 338.999023 L 68 338.999023 L 68 362.999023 L 44 362.999023 Z M 44 338.999023 " transform="matrix(1.333333,0,0,1.333333,13.333333,-450.666667)"/>
<path style=" stroke:none;fill-rule:nonzero;fill:rgb(0%,0%,0%);fill-opacity:1;" d="M 83.878906 8.792969 L 82.597656 7.265625 L 78 11.113281 L 79.292969 12.644531 Z M 98 11.125 L 93.402344 7.265625 L 92.109375 8.792969 L 96.707031 12.652344 Z M 88 9.402344 C 83.03125 9.402344 79 13.433594 79 18.402344 C 79 23.375 83.019531 27.402344 88 27.402344 C 92.96875 27.402344 97 23.375 97 18.402344 C 97 13.433594 92.96875 9.402344 88 9.402344 Z M 88 25.402344 C 84.128906 25.402344 81 22.269531 81 18.402344 C 81 14.53125 84.128906 11.402344 88 11.402344 C 91.871094 11.402344 95 14.53125 95 18.402344 C 95 22.269531 91.871094 25.402344 88 25.402344 Z M 85 16.402344 L 88.628906 16.402344 L 85 20.605469 L 85 22.402344 L 91 22.402344 L 91 20.402344 L 87.371094 20.402344 L 91 16.203125 L 91 14.402344 L 85 14.402344 Z M 85 16.402344 "/>
<path style=" stroke:none;fill-rule:nonzero;fill:rgb(0%,0%,0%);fill-opacity:1;" d="M 397.214844 8.792969 L 395.933594 7.265625 L 391.332031 11.113281 L 392.625 12.644531 Z M 411.332031 11.125 L 406.734375 7.265625 L 405.441406 8.792969 L 410.042969 12.652344 Z M 401.332031 9.402344 C 396.363281 9.402344 392.332031 13.433594 392.332031 18.402344 C 392.332031 23.375 396.355469 27.402344 401.332031 27.402344 C 406.300781 27.402344 410.332031 23.375 410.332031 18.402344 C 410.332031 13.433594 406.300781 9.402344 401.332031 9.402344 Z M 401.332031 25.402344 C 397.464844 25.402344 394.332031 22.269531 394.332031 18.402344 C 394.332031 14.53125 397.464844 11.402344 401.332031 11.402344 C 405.203125 11.402344 408.332031 14.53125 408.332031 18.402344 C 408.332031 22.269531 405.203125 25.402344 401.332031 25.402344 Z M 398.332031 16.402344 L 401.964844 16.402344 L 398.332031 20.605469 L 398.332031 22.402344 L 404.332031 22.402344 L 404.332031 20.402344 L 400.703125 20.402344 L 404.332031 16.203125 L 404.332031 14.402344 L 398.332031 14.402344 Z M 398.332031 16.402344 "/>
<path style=" stroke:none;fill-rule:nonzero;fill:rgb(0%,0%,0%);fill-opacity:1;" d="M 323.878906 8.792969 L 322.597656 7.265625 L 318 11.113281 L 319.292969 12.644531 Z M 338 11.125 L 333.402344 7.265625 L 332.109375 8.792969 L 336.707031 12.652344 Z M 328 9.402344 C 323.03125 9.402344 319 13.433594 319 18.402344 C 319 23.375 323.019531 27.402344 328 27.402344 C 332.96875 27.402344 337 23.375 337 18.402344 C 337 13.433594 332.96875 9.402344 328 9.402344 Z M 328 25.402344 C 324.128906 25.402344 321 22.269531 321 18.402344 C 321 14.53125 324.128906 11.402344 328 11.402344 C 331.871094 11.402344 335 14.53125 335 18.402344 C 335 22.269531 331.871094 25.402344 328 25.402344 Z M 325 16.402344 L 328.628906 16.402344 L 325 20.605469 L 325 22.402344 L 331 22.402344 L 331 20.402344 L 327.371094 20.402344 L 331 16.203125 L 331 14.402344 L 325 14.402344 Z M 325 16.402344 "/>
<path style=" stroke:none;fill-rule:nonzero;fill:rgb(0%,0%,0%);fill-opacity:1;" d="M 470.546875 8.792969 L 469.265625 7.265625 L 464.667969 11.113281 L 465.957031 12.644531 Z M 484.667969 11.125 L 480.066406 7.265625 L 478.777344 8.792969 L 483.375 12.652344 Z M 474.667969 9.402344 C 469.699219 9.402344 465.667969 13.433594 465.667969 18.402344 C 465.667969 23.375 469.6875 27.402344 474.667969 27.402344 C 479.636719 27.402344 483.667969 23.375 483.667969 18.402344 C 483.667969 13.433594 479.636719 9.402344 474.667969 9.402344 Z M 474.667969 25.402344 C 470.796875 25.402344 467.667969 22.269531 467.667969 18.402344 C 467.667969 14.53125 470.796875 11.402344 474.667969 11.402344 C 478.535156 11.402344 481.667969 14.53125 481.667969 18.402344 C 481.667969 22.269531 478.535156 25.402344 474.667969 25.402344 Z M 471.667969 16.402344 L 475.296875 16.402344 L 471.667969 20.605469 L 471.667969 22.402344 L 477.667969 22.402344 L 477.667969 20.402344 L 474.035156 20.402344 L 477.667969 16.203125 L 477.667969 14.402344 L 471.667969 14.402344 Z M 471.667969 16.402344 "/>
<path style=" stroke:none;fill-rule:nonzero;fill:rgb(0%,0%,0%);fill-opacity:1;" d="M 7.644531 90.273438 L 7.644531 81.691406 L 13.4375 81.691406 L 13.4375 82.691406 L 8.792969 82.691406 L 8.792969 85.359375 L 12.8125 85.359375 L 12.8125 86.378906 L 8.792969 86.378906 L 8.792969 90.273438 Z M 7.644531 90.273438 "/>
<path style=" stroke:none;fill-rule:nonzero;fill:rgb(0%,0%,0%);fill-opacity:1;" d="M 14.765625 90.273438 L 14.765625 84.046875 L 15.726562 84.046875 L 15.726562 85.003906 C 15.960938 84.5625 16.183594 84.269531 16.390625 84.128906 C 16.601562 83.992188 16.828125 83.921875 17.078125 83.921875 C 17.421875 83.921875 17.789062 84.035156 18.164062 84.253906 L 17.789062 85.234375 C 17.539062 85.082031 17.277344 85.003906 17.015625 85.003906 C 16.792969 85.003906 16.585938 85.078125 16.390625 85.210938 C 16.210938 85.351562 16.078125 85.546875 15.996094 85.796875 C 15.882812 86.171875 15.828125 86.582031 15.828125 87.023438 L 15.828125 90.273438 Z M 14.765625 90.273438 "/>
<path style=" stroke:none;fill-rule:nonzero;fill:rgb(0%,0%,0%);fill-opacity:1;" d="M 18.386719 87.171875 C 18.386719 86.019531 18.707031 85.164062 19.347656 84.609375 C 19.886719 84.148438 20.539062 83.921875 21.304688 83.921875 C 22.164062 83.921875 22.867188 84.203125 23.410156 84.753906 C 23.949219 85.3125 24.222656 86.082031 24.222656 87.066406 C 24.222656 87.875 24.097656 88.503906 23.847656 88.960938 C 23.605469 89.421875 23.261719 89.785156 22.804688 90.046875 C 22.347656 90.296875 21.847656 90.421875 21.304688 90.421875 C 20.429688 90.421875 19.722656 90.144531 19.179688 89.585938 C 18.648438 89.019531 18.386719 88.210938 18.386719 87.171875 Z M 19.472656 87.171875 C 19.472656 87.960938 19.644531 88.5625 19.992188 88.960938 C 20.335938 89.351562 20.773438 89.546875 21.304688 89.546875 C 21.832031 89.546875 22.269531 89.351562 22.617188 88.960938 C 22.960938 88.5625 23.136719 87.953125 23.136719 87.128906 C 23.136719 86.367188 22.960938 85.785156 22.617188 85.378906 C 22.269531 84.976562 21.832031 84.773438 21.304688 84.773438 C 20.773438 84.773438 20.335938 84.976562 19.992188 85.378906 C 19.644531 85.769531 19.472656 86.367188 19.472656 87.171875 Z M 19.472656 87.171875 "/>
<path style=" stroke:none;fill-rule:nonzero;fill:rgb(0%,0%,0%);fill-opacity:1;" d="M 25.457031 90.273438 L 25.457031 84.046875 L 26.417969 84.046875 L 26.417969 84.941406 C 26.859375 84.265625 27.519531 83.921875 28.394531 83.921875 C 28.769531 83.921875 29.109375 83.992188 29.417969 84.128906 C 29.734375 84.253906 29.96875 84.429688 30.125 84.648438 C 30.277344 84.859375 30.386719 85.117188 30.457031 85.421875 C 30.5 85.617188 30.519531 85.957031 30.519531 86.441406 L 30.519531 90.273438 L 29.457031 90.273438 L 29.457031 86.484375 C 29.457031 86.054688 29.417969 85.734375 29.332031 85.523438 C 29.25 85.316406 29.105469 85.148438 28.894531 85.023438 C 28.6875 84.890625 28.441406 84.816406 28.167969 84.816406 C 27.71875 84.816406 27.332031 84.960938 27 85.253906 C 26.675781 85.535156 26.519531 86.078125 26.519531 86.878906 L 26.519531 90.273438 Z M 25.457031 90.273438 "/>
<path style=" stroke:none;fill-rule:nonzero;fill:rgb(0%,0%,0%);fill-opacity:1;" d="M 34.445312 89.335938 L 34.589844 90.253906 C 34.285156 90.320312 34.019531 90.359375 33.800781 90.359375 C 33.410156 90.359375 33.113281 90.296875 32.902344 90.171875 C 32.695312 90.046875 32.539062 89.890625 32.445312 89.691406 C 32.363281 89.5 32.320312 89.085938 32.320312 88.460938 L 32.320312 84.878906 L 31.550781 84.878906 L 31.550781 84.046875 L 32.320312 84.046875 L 32.320312 82.503906 L 33.382812 81.878906 L 33.382812 84.046875 L 34.445312 84.046875 L 34.445312 84.878906 L 33.382812 84.878906 L 33.382812 88.503906 C 33.382812 88.8125 33.394531 89.003906 33.425781 89.085938 C 33.464844 89.171875 33.527344 89.242188 33.613281 89.296875 C 33.695312 89.351562 33.808594 89.378906 33.964844 89.378906 C 34.089844 89.378906 34.246094 89.367188 34.445312 89.335938 Z M 34.445312 89.335938 "/>
<path style=" stroke:none;fill-rule:nonzero;fill:rgb(0%,0%,0%);fill-opacity:1;" d="M 39.714844 88.273438 L 40.820312 88.398438 C 40.636719 89.039062 40.308594 89.539062 39.839844 89.898438 C 39.382812 90.25 38.789062 90.421875 38.070312 90.421875 C 37.164062 90.421875 36.445312 90.144531 35.902344 89.585938 C 35.371094 89.019531 35.113281 88.226562 35.113281 87.210938 C 35.113281 86.171875 35.382812 85.367188 35.925781 84.796875 C 36.464844 84.210938 37.164062 83.921875 38.027344 83.921875 C 38.863281 83.921875 39.535156 84.207031 40.050781 84.773438 C 40.574219 85.332031 40.839844 86.125 40.839844 87.148438 C 40.839844 87.222656 40.839844 87.316406 40.839844 87.441406 L 36.195312 87.441406 C 36.238281 88.125 36.429688 88.644531 36.777344 89.003906 C 37.121094 89.367188 37.558594 89.546875 38.089844 89.546875 C 38.476562 89.546875 38.804688 89.453125 39.070312 89.253906 C 39.347656 89.046875 39.558594 88.722656 39.714844 88.273438 Z M 36.257812 86.566406 L 39.738281 86.566406 C 39.695312 86.039062 39.558594 85.644531 39.339844 85.378906 C 39.007812 84.976562 38.570312 84.773438 38.027344 84.773438 C 37.539062 84.773438 37.132812 84.941406 36.800781 85.273438 C 36.476562 85.597656 36.300781 86.023438 36.257812 86.566406 Z M 36.257812 86.566406 "/>
<path style=" stroke:none;fill-rule:nonzero;fill:rgb(0%,0%,0%);fill-opacity:1;" d="M 42.140625 90.273438 L 42.140625 84.046875 L 43.097656 84.046875 L 43.097656 84.941406 C 43.542969 84.265625 44.203125 83.921875 45.078125 83.921875 C 45.453125 83.921875 45.792969 83.992188 46.097656 84.128906 C 46.417969 84.253906 46.652344 84.429688 46.808594 84.648438 C 46.957031 84.859375 47.066406 85.117188 47.140625 85.421875 C 47.183594 85.617188 47.203125 85.957031 47.203125 86.441406 L 47.203125 90.273438 L 46.140625 90.273438 L 46.140625 86.484375 C 46.140625 86.054688 46.097656 85.734375 46.015625 85.523438 C 45.933594 85.316406 45.785156 85.148438 45.578125 85.023438 C 45.371094 84.890625 45.125 84.816406 44.847656 84.816406 C 44.402344 84.816406 44.015625 84.960938 43.683594 85.253906 C 43.359375 85.535156 43.203125 86.078125 43.203125 86.878906 L 43.203125 90.273438 Z M 42.140625 90.273438 "/>
<path style=" stroke:none;fill-rule:nonzero;fill:rgb(0%,0%,0%);fill-opacity:1;" d="M 52.855469 90.273438 L 52.855469 89.484375 C 52.449219 90.109375 51.867188 90.421875 51.105469 90.421875 C 50.617188 90.421875 50.167969 90.28125 49.753906 90.003906 C 49.335938 89.726562 49.007812 89.347656 48.773438 88.859375 C 48.550781 88.375 48.441406 87.8125 48.441406 87.171875 C 48.441406 86.546875 48.542969 85.984375 48.753906 85.484375 C 48.960938 84.972656 49.261719 84.582031 49.667969 84.316406 C 50.085938 84.054688 50.550781 83.921875 51.066406 83.921875 C 51.441406 83.921875 51.773438 84 52.066406 84.148438 C 52.355469 84.304688 52.589844 84.515625 52.773438 84.773438 L 52.773438 81.691406 L 53.835938 81.691406 L 53.835938 90.273438 Z M 49.523438 87.171875 C 49.523438 87.960938 49.691406 88.5625 50.023438 88.960938 C 50.355469 89.351562 50.753906 89.546875 51.210938 89.546875 C 51.667969 89.546875 52.054688 89.359375 52.378906 88.984375 C 52.710938 88.609375 52.878906 88.035156 52.878906 87.253906 C 52.878906 86.410156 52.710938 85.785156 52.378906 85.378906 C 52.042969 84.976562 51.636719 84.773438 51.167969 84.773438 C 50.695312 84.773438 50.300781 84.972656 49.980469 85.359375 C 49.675781 85.75 49.523438 86.351562 49.523438 87.171875 Z M 49.523438 87.171875 "/>
<path style=" stroke:none;fill-rule:nonzero;fill:rgb(0%,0%,0%);fill-opacity:1;" d="M 7.542969 158.273438 L 7.542969 149.691406 L 10.769531 149.691406 C 11.421875 149.691406 11.941406 149.785156 12.332031 149.960938 C 12.734375 150.128906 13.046875 150.394531 13.269531 150.753906 C 13.503906 151.117188 13.625 151.492188 13.625 151.878906 C 13.625 152.253906 13.519531 152.601562 13.3125 152.921875 C 13.113281 153.242188 12.816406 153.503906 12.417969 153.710938 C 12.925781 153.867188 13.324219 154.125 13.605469 154.484375 C 13.894531 154.847656 14.042969 155.273438 14.042969 155.773438 C 14.042969 156.179688 13.949219 156.554688 13.769531 156.898438 C 13.605469 157.25 13.394531 157.519531 13.144531 157.710938 C 12.894531 157.894531 12.582031 158.035156 12.207031 158.128906 C 11.832031 158.226562 11.363281 158.273438 10.8125 158.273438 Z M 8.6875 153.296875 L 10.542969 153.296875 C 11.042969 153.296875 11.402344 153.265625 11.625 153.191406 C 11.917969 153.109375 12.128906 152.972656 12.269531 152.773438 C 12.421875 152.566406 12.5 152.316406 12.5 152.023438 C 12.5 151.734375 12.425781 151.484375 12.292969 151.273438 C 12.152344 151.054688 11.957031 150.898438 11.707031 150.816406 C 11.457031 150.734375 11.019531 150.691406 10.394531 150.691406 L 8.6875 150.691406 Z M 8.6875 157.253906 L 10.8125 157.253906 C 11.1875 157.253906 11.449219 157.242188 11.605469 157.210938 C 11.855469 157.171875 12.066406 157.097656 12.25 156.984375 C 12.425781 156.875 12.574219 156.710938 12.6875 156.503906 C 12.796875 156.296875 12.855469 156.054688 12.855469 155.773438 C 12.855469 155.457031 12.769531 155.179688 12.605469 154.941406 C 12.4375 154.707031 12.207031 154.546875 11.917969 154.460938 C 11.625 154.367188 11.207031 154.316406 10.667969 154.316406 L 8.6875 154.316406 Z M 8.6875 157.253906 "/>
<path style=" stroke:none;fill-rule:nonzero;fill:rgb(0%,0%,0%);fill-opacity:1;" d="M 19.523438 157.503906 C 19.132812 157.835938 18.757812 158.078125 18.398438 158.210938 C 18.035156 158.347656 17.648438 158.421875 17.234375 158.421875 C 16.550781 158.421875 16.023438 158.253906 15.648438 157.921875 C 15.285156 157.585938 15.109375 157.160156 15.109375 156.628906 C 15.109375 156.328125 15.175781 156.046875 15.316406 155.796875 C 15.453125 155.546875 15.632812 155.347656 15.859375 155.191406 C 16.078125 155.039062 16.328125 154.921875 16.609375 154.835938 C 16.816406 154.796875 17.128906 154.75 17.546875 154.691406 C 18.40625 154.597656 19.035156 154.472656 19.441406 154.316406 C 19.441406 154.179688 19.441406 154.085938 19.441406 154.046875 C 19.441406 153.617188 19.34375 153.316406 19.148438 153.148438 C 18.867188 152.898438 18.46875 152.773438 17.941406 152.773438 C 17.441406 152.773438 17.070312 152.867188 16.835938 153.046875 C 16.597656 153.210938 16.425781 153.519531 16.316406 153.960938 L 15.296875 153.835938 C 15.378906 153.394531 15.523438 153.039062 15.734375 152.773438 C 15.953125 152.5 16.265625 152.289062 16.671875 152.148438 C 17.085938 152 17.554688 151.921875 18.085938 151.921875 C 18.628906 151.921875 19.054688 151.984375 19.378906 152.109375 C 19.710938 152.234375 19.953125 152.394531 20.109375 152.585938 C 20.273438 152.769531 20.382812 153.003906 20.441406 153.296875 C 20.484375 153.476562 20.503906 153.796875 20.503906 154.253906 L 20.503906 155.671875 C 20.503906 156.644531 20.523438 157.265625 20.566406 157.523438 C 20.609375 157.789062 20.695312 158.039062 20.835938 158.273438 L 19.734375 158.273438 C 19.617188 158.054688 19.550781 157.796875 19.523438 157.503906 Z M 19.441406 155.148438 C 19.050781 155.304688 18.472656 155.4375 17.710938 155.546875 C 17.28125 155.617188 16.972656 155.691406 16.796875 155.773438 C 16.613281 155.847656 16.472656 155.957031 16.378906 156.109375 C 16.28125 156.265625 16.234375 156.429688 16.234375 156.609375 C 16.234375 156.890625 16.335938 157.125 16.546875 157.316406 C 16.753906 157.5 17.066406 157.585938 17.484375 157.585938 C 17.882812 157.585938 18.242188 157.5 18.566406 157.316406 C 18.882812 157.140625 19.117188 156.894531 19.273438 156.585938 C 19.382812 156.351562 19.441406 156.003906 19.441406 155.546875 Z M 19.441406 155.148438 "/>
<path style=" stroke:none;fill-rule:nonzero;fill:rgb(0%,0%,0%);fill-opacity:1;" d="M 26.199219 156.003906 L 27.242188 156.128906 C 27.125 156.851562 26.835938 157.414062 26.367188 157.816406 C 25.890625 158.222656 25.3125 158.421875 24.636719 158.421875 C 23.789062 158.421875 23.105469 158.144531 22.59375 157.585938 C 22.078125 157.035156 21.824219 156.234375 21.824219 155.191406 C 21.824219 154.515625 21.933594 153.921875 22.15625 153.421875 C 22.375 152.921875 22.710938 152.546875 23.15625 152.296875 C 23.617188 152.046875 24.117188 151.921875 24.65625 151.921875 C 25.324219 151.921875 25.871094 152.097656 26.304688 152.441406 C 26.730469 152.773438 27.011719 153.253906 27.136719 153.878906 L 26.117188 154.046875 C 26.015625 153.628906 25.84375 153.316406 25.59375 153.109375 C 25.34375 152.890625 25.042969 152.773438 24.699219 152.773438 C 24.15625 152.773438 23.71875 152.972656 23.386719 153.359375 C 23.0625 153.734375 22.90625 154.332031 22.90625 155.148438 C 22.90625 156 23.0625 156.609375 23.386719 156.984375 C 23.703125 157.359375 24.121094 157.546875 24.636719 157.546875 C 25.054688 157.546875 25.398438 157.421875 25.679688 157.171875 C 25.953125 156.921875 26.125 156.535156 26.199219 156.003906 Z M 26.199219 156.003906 "/>
<path style=" stroke:none;fill-rule:nonzero;fill:rgb(0%,0%,0%);fill-opacity:1;" d="M 28.136719 158.273438 L 28.136719 149.691406 L 29.199219 149.691406 L 29.199219 154.585938 L 31.699219 152.046875 L 33.054688 152.046875 L 30.679688 154.359375 L 33.304688 158.273438 L 31.992188 158.273438 L 29.949219 155.085938 L 29.199219 155.816406 L 29.199219 158.273438 Z M 28.136719 158.273438 "/>
<path style=" stroke:none;fill-rule:nonzero;fill:rgb(0%,0%,0%);fill-opacity:1;" d="M 38.386719 156.273438 L 39.492188 156.398438 C 39.308594 157.039062 38.980469 157.539062 38.511719 157.898438 C 38.054688 158.25 37.460938 158.421875 36.742188 158.421875 C 35.835938 158.421875 35.117188 158.144531 34.574219 157.585938 C 34.042969 157.019531 33.78125 156.226562 33.78125 155.210938 C 33.78125 154.171875 34.054688 153.367188 34.59375 152.796875 C 35.136719 152.210938 35.835938 151.921875 36.699219 151.921875 C 37.53125 151.921875 38.203125 152.207031 38.71875 152.773438 C 39.246094 153.332031 39.511719 154.125 39.511719 155.148438 C 39.511719 155.222656 39.511719 155.316406 39.511719 155.441406 L 34.867188 155.441406 C 34.90625 156.125 35.101562 156.644531 35.449219 157.003906 C 35.792969 157.367188 36.230469 157.546875 36.761719 157.546875 C 37.148438 157.546875 37.476562 157.453125 37.742188 157.253906 C 38.015625 157.046875 38.230469 156.722656 38.386719 156.273438 Z M 34.929688 154.566406 L 38.40625 154.566406 C 38.367188 154.039062 38.230469 153.644531 38.011719 153.378906 C 37.679688 152.976562 37.242188 152.773438 36.699219 152.773438 C 36.210938 152.773438 35.804688 152.941406 35.46875 153.273438 C 35.148438 153.597656 34.96875 154.023438 34.929688 154.566406 Z M 34.929688 154.566406 "/>
<path style=" stroke:none;fill-rule:nonzero;fill:rgb(0%,0%,0%);fill-opacity:1;" d="M 40.8125 158.273438 L 40.8125 152.046875 L 41.769531 152.046875 L 41.769531 152.941406 C 42.210938 152.265625 42.875 151.921875 43.75 151.921875 C 44.125 151.921875 44.460938 151.992188 44.769531 152.128906 C 45.085938 152.253906 45.320312 152.429688 45.476562 152.648438 C 45.628906 152.859375 45.738281 153.117188 45.8125 153.421875 C 45.851562 153.617188 45.875 153.957031 45.875 154.441406 L 45.875 158.273438 L 44.8125 158.273438 L 44.8125 154.484375 C 44.8125 154.054688 44.769531 153.734375 44.6875 153.523438 C 44.601562 153.316406 44.457031 153.148438 44.25 153.023438 C 44.039062 152.890625 43.796875 152.816406 43.519531 152.816406 C 43.070312 152.816406 42.6875 152.960938 42.351562 153.253906 C 42.03125 153.535156 41.875 154.078125 41.875 154.878906 L 41.875 158.273438 Z M 40.8125 158.273438 "/>
<path style=" stroke:none;fill-rule:nonzero;fill:rgb(0%,0%,0%);fill-opacity:1;" d="M 51.527344 158.273438 L 51.527344 157.484375 C 51.121094 158.109375 50.539062 158.421875 49.777344 158.421875 C 49.289062 158.421875 48.839844 158.28125 48.421875 158.003906 C 48.007812 157.726562 47.679688 157.347656 47.445312 156.859375 C 47.21875 156.375 47.109375 155.8125 47.109375 155.171875 C 47.109375 154.546875 47.214844 153.984375 47.421875 153.484375 C 47.632812 152.972656 47.933594 152.582031 48.339844 152.316406 C 48.757812 152.054688 49.21875 151.921875 49.734375 151.921875 C 50.109375 151.921875 50.445312 152 50.734375 152.148438 C 51.027344 152.304688 51.261719 152.515625 51.445312 152.773438 L 51.445312 149.691406 L 52.507812 149.691406 L 52.507812 158.273438 Z M 48.195312 155.171875 C 48.195312 155.960938 48.359375 156.5625 48.695312 156.960938 C 49.027344 157.351562 49.421875 157.546875 49.882812 157.546875 C 50.339844 157.546875 50.726562 157.359375 51.046875 156.984375 C 51.382812 156.609375 51.546875 156.035156 51.546875 155.253906 C 51.546875 154.410156 51.382812 153.785156 51.046875 153.378906 C 50.714844 152.976562 50.308594 152.773438 49.839844 152.773438 C 49.367188 152.773438 48.96875 152.972656 48.652344 153.359375 C 48.34375 153.75 48.195312 154.351562 48.195312 155.171875 Z M 48.195312 155.171875 "/>
<path style="fill-rule:nonzero;fill:rgb(100%,100%,100%);fill-opacity:1;stroke-width:1;stroke-linecap:round;stroke-linejoin:round;stroke:rgb(0%,0%,0%);stroke-opacity:1;stroke-miterlimit:10;" d="M 44 389 L 68 389 L 68 413 L 44 413 Z M 44 389 " transform="matrix(1.333333,0,0,1.333333,13.333333,-450.666667)"/>
<path style=" stroke:none;fill-rule:nonzero;fill:rgb(0%,0%,0%);fill-opacity:1;" d="M 83.878906 75.457031 L 82.597656 73.933594 L 78 77.78125 L 79.292969 79.3125 Z M 98 77.792969 L 93.402344 73.933594 L 92.109375 75.457031 L 96.707031 79.316406 Z M 88 76.066406 C 83.03125 76.066406 79 80.097656 79 85.066406 C 79 90.042969 83.019531 94.066406 88 94.066406 C 92.96875 94.066406 97 90.042969 97 85.066406 C 97 80.097656 92.96875 76.066406 88 76.066406 Z M 88 92.066406 C 84.128906 92.066406 81 88.9375 81 85.066406 C 81 81.199219 84.128906 78.066406 88 78.066406 C 91.871094 78.066406 95 81.199219 95 85.066406 C 95 88.9375 91.871094 92.066406 88 92.066406 Z M 85 83.066406 L 88.628906 83.066406 L 85 87.269531 L 85 89.066406 L 91 89.066406 L 91 87.066406 L 87.371094 87.066406 L 91 82.871094 L 91 81.066406 L 85 81.066406 Z M 85 83.066406 "/>
<path style="fill-rule:nonzero;fill:rgb(100%,100%,100%);fill-opacity:1;stroke-width:1;stroke-linecap:round;stroke-linejoin:round;stroke:rgb(0%,0%,0%);stroke-opacity:1;stroke-miterlimit:10;" d="M 68 389 L 92 389 L 92 413 L 68 413 Z M 68 389 " transform="matrix(1.333333,0,0,1.333333,13.333333,-450.666667)"/>
<path style=" stroke:none;fill-rule:nonzero;fill:rgb(0%,0%,0%);fill-opacity:1;" d="M 115.878906 75.457031 L 114.597656 73.933594 L 110 77.78125 L 111.292969 79.3125 Z M 130 77.792969 L 125.402344 73.933594 L 124.109375 75.457031 L 128.707031 79.316406 Z M 120 76.066406 C 115.03125 76.066406 111 80.097656 111 85.066406 C 111 90.042969 115.019531 94.066406 120 94.066406 C 124.96875 94.066406 129 90.042969 129 85.066406 C 129 80.097656 124.96875 76.066406 120 76.066406 Z M 120 92.066406 C 116.128906 92.066406 113 88.9375 113 85.066406 C 113 81.199219 116.128906 78.066406 120 78.066406 C 123.871094 78.066406 127 81.199219 127 85.066406 C 127 88.9375 123.871094 92.066406 120 92.066406 Z M 117 83.066406 L 120.628906 83.066406 L 117 87.269531 L 117 89.066406 L 123 89.066406 L 123 87.066406 L 119.371094 87.066406 L 123 82.871094 L 123 81.066406 L 117 81.066406 Z M 117 83.066406 "/>
<path style="fill-rule:nonzero;fill:rgb(100%,100%,100%);fill-opacity:1;stroke-width:1;stroke-linecap:round;stroke-linejoin:round;stroke:rgb(0%,0%,0%);stroke-opacity:1;stroke-miterlimit:10;" d="M 92 389 L 116 389 L 116 413 L 92 413 Z M 92 389 " transform="matrix(1.333333,0,0,1.333333,13.333333,-450.666667)"/>
<path style=" stroke:none;fill-rule:nonzero;fill:rgb(0%,0%,0%);fill-opacity:1;" d="M 147.878906 75.457031 L 146.597656 73.933594 L 142 77.78125 L 143.292969 79.3125 Z M 162 77.792969 L 157.402344 73.933594 L 156.109375 75.457031 L 160.707031 79.316406 Z M 152 76.066406 C 147.03125 76.066406 143 80.097656 143 85.066406 C 143 90.042969 147.019531 94.066406 152 94.066406 C 156.96875 94.066406 161 90.042969 161 85.066406 C 161 80.097656 156.96875 76.066406 152 76.066406 Z M 152 92.066406 C 148.128906 92.066406 145 88.9375 145 85.066406 C 145 81.199219 148.128906 78.066406 152 78.066406 C 155.871094 78.066406 159 81.199219 159 85.066406 C 159 88.9375 155.871094 92.066406 152 92.066406 Z M 149 83.066406 L 152.628906 83.066406 L 149 87.269531 L 149 89.066406 L 155 89.066406 L 155 87.066406 L 151.371094 87.066406 L 155 82.871094 L 155 81.066406 L 149 81.066406 Z M 149 83.066406 "/>
<path style="fill-rule:nonzero;fill:rgb(100%,100%,100%);fill-opacity:1;stroke-width:1;stroke-linecap:round;stroke-linejoin:round;stroke:rgb(0%,0%,0%);stroke-opacity:1;stroke-miterlimit:10;" d="M 116 389 L 140 389 L 140 413 L 116 413 Z M 116 389 " transform="matrix(1.333333,0,0,1.333333,13.333333,-450.666667)"/>
<path style=" stroke:none;fill-rule:nonzero;fill:rgb(0%,0%,0%);fill-opacity:1;" d="M 179.878906 75.457031 L 178.597656 73.933594 L 174 77.78125 L 175.292969 79.3125 Z M 194 77.792969 L 189.402344 73.933594 L 188.109375 75.457031 L 192.707031 79.316406 Z M 184 76.066406 C 179.03125 76.066406 175 80.097656 175 85.066406 C 175 90.042969 179.019531 94.066406 184 94.066406 C 188.96875 94.066406 193 90.042969 193 85.066406 C 193 80.097656 188.96875 76.066406 184 76.066406 Z M 184 92.066406 C 180.128906 92.066406 177 88.9375 177 85.066406 C 177 81.199219 180.128906 78.066406 184 78.066406 C 187.871094 78.066406 191 81.199219 191 85.066406 C 191 88.9375 187.871094 92.066406 184 92.066406 Z M 181 83.066406 L 184.628906 83.066406 L 181 87.269531 L 181 89.066406 L 187 89.066406 L 187 87.066406 L 183.371094 87.066406 L 187 82.871094 L 187 81.066406 L 181 81.066406 Z M 181 83.066406 "/>
<path style="fill-rule:nonzero;fill:rgb(100%,100%,100%);fill-opacity:1;stroke-width:1;stroke-linecap:round;stroke-linejoin:round;stroke:rgb(0%,0%,0%);stroke-opacity:1;stroke-miterlimit:10;" d="M 140 389 L 164 389 L 164 413 L 140 413 Z M 140 389 " transform="matrix(1.333333,0,0,1.333333,13.333333,-450.666667)"/>
<path style=" stroke:none;fill-rule:nonzero;fill:rgb(0%,0%,0%);fill-opacity:1;" d="M 211.878906 75.457031 L 210.597656 73.933594 L 206 77.78125 L 207.292969 79.3125 Z M 226 77.792969 L 221.402344 73.933594 L 220.109375 75.457031 L 224.707031 79.316406 Z M 216 76.066406 C 211.03125 76.066406 207 80.097656 207 85.066406 C 207 90.042969 211.019531 94.066406 216 94.066406 C 220.96875 94.066406 225 90.042969 225 85.066406 C 225 80.097656 220.96875 76.066406 216 76.066406 Z M 216 92.066406 C 212.128906 92.066406 209 88.9375 209 85.066406 C 209 81.199219 212.128906 78.066406 216 78.066406 C 219.871094 78.066406 223 81.199219 223 85.066406 C 223 88.9375 219.871094 92.066406 216 92.066406 Z M 213 83.066406 L 216.628906 83.066406 L 213 87.269531 L 213 89.066406 L 219 89.066406 L 219 87.066406 L 215.371094 87.066406 L 219 82.871094 L 219 81.066406 L 213 81.066406 Z M 213 83.066406 "/>
<path style="fill-rule:nonzero;fill:rgb(40.000001%,74.901962%,100%);fill-opacity:1;stroke-width:1;stroke-linecap:round;stroke-linejoin:round;stroke:rgb(0%,0%,0%);stroke-opacity:1;stroke-miterlimit:10;" d="M 200 440 L 231.573242 440 L 231.573242 464 L 200 464 Z M 200 440 " transform="matrix(1.333333,0,0,1.333333,13.333333,-450.666667)"/>
<path style=" stroke:none;fill-rule:nonzero;fill:rgb(0%,0%,0%);fill-opacity:1;" d="M 289.464844 155.804688 L 291.734375 152.574219 L 289.632812 149.574219 L 290.964844 149.574219 L 291.921875 151.03125 C 292.089844 151.3125 292.226562 151.546875 292.339844 151.742188 C 292.515625 151.480469 292.679688 151.25 292.820312 151.054688 L 293.859375 149.574219 L 295.132812 149.574219 L 292.984375 152.511719 L 295.296875 155.804688 L 294.007812 155.804688 L 292.714844 153.867188 L 292.382812 153.34375 L 290.757812 155.804688 Z M 289.464844 155.804688 "/>
<path style=" stroke:none;fill-rule:nonzero;fill:rgb(0%,0%,0%);fill-opacity:1;" d="M 299.089844 148.78125 L 299.359375 147.949219 C 299.984375 148.171875 300.433594 148.367188 300.714844 148.53125 C 300.640625 147.824219 300.601562 147.339844 300.589844 147.074219 L 301.445312 147.074219 C 301.429688 147.449219 301.386719 147.929688 301.320312 148.511719 C 301.71875 148.320312 302.179688 148.132812 302.695312 147.949219 L 302.964844 148.78125 C 302.464844 148.949219 301.976562 149.0625 301.507812 149.117188 C 301.742188 149.324219 302.074219 149.695312 302.507812 150.21875 L 301.820312 150.71875 C 301.578125 150.417969 301.308594 150 301.007812 149.46875 C 300.714844 150.011719 300.453125 150.429688 300.234375 150.71875 L 299.546875 150.21875 C 300.007812 149.667969 300.328125 149.296875 300.527344 149.117188 C 300.027344 149.023438 299.546875 148.90625 299.089844 148.78125 Z M 299.089844 148.78125 "/>
<path style=" stroke:none;fill-rule:nonzero;fill:rgb(0%,0%,0%);fill-opacity:1;" d="M 307.46875 158.199219 L 307.34375 157.21875 C 307.578125 157.273438 307.78125 157.304688 307.949219 157.304688 C 308.183594 157.304688 308.371094 157.261719 308.511719 157.179688 C 308.644531 157.105469 308.765625 157 308.863281 156.867188 C 308.917969 156.75 309.019531 156.492188 309.175781 156.074219 C 309.203125 156.015625 309.238281 155.933594 309.28125 155.824219 L 306.90625 149.574219 L 308.050781 149.574219 L 309.34375 153.179688 C 309.511719 153.636719 309.660156 154.117188 309.800781 154.617188 C 309.910156 154.148438 310.050781 153.671875 310.21875 153.199219 L 311.550781 149.574219 L 312.613281 149.574219 L 310.238281 155.90625 C 309.988281 156.585938 309.792969 157.058594 309.65625 157.324219 C 309.457031 157.667969 309.246094 157.917969 309.011719 158.074219 C 308.769531 158.242188 308.480469 158.324219 308.136719 158.324219 C 307.9375 158.324219 307.71875 158.28125 307.46875 158.199219 Z M 307.46875 158.199219 "/>
<path style="fill-rule:nonzero;fill:rgb(40.000001%,74.901962%,100%);fill-opacity:1;stroke-width:1;stroke-linecap:round;stroke-linejoin:round;stroke:rgb(0%,0%,0%);stroke-opacity:1;stroke-miterlimit:10;" d="M 231.573242 440 L 263.149414 440 L 263.149414 464 L 231.573242 464 Z M 231.573242 440 " transform="matrix(1.333333,0,0,1.333333,13.333333,-450.666667)"/>
<path style=" stroke:none;fill-rule:nonzero;fill:rgb(0%,0%,0%);fill-opacity:1;" d="M 329.453125 158.179688 L 329.453125 157.429688 L 336.453125 157.429688 L 336.453125 158.179688 Z M 329.453125 158.179688 "/>
<path style=" stroke:none;fill-rule:nonzero;fill:rgb(0%,0%,0%);fill-opacity:1;" d="M 342.648438 154.40625 L 342.648438 152.054688 L 340.3125 152.054688 L 340.3125 151.074219 L 342.648438 151.074219 L 342.648438 148.742188 L 343.648438 148.742188 L 343.648438 151.074219 L 345.980469 151.074219 L 345.980469 152.054688 L 343.648438 152.054688 L 343.648438 154.40625 Z M 342.648438 154.40625 "/>
<path style=" stroke:none;fill-rule:nonzero;fill:rgb(0%,0%,0%);fill-opacity:1;" d="M 356.03125 154.78125 L 356.03125 155.804688 L 350.34375 155.804688 C 350.34375 155.554688 350.382812 155.3125 350.46875 155.074219 C 350.617188 154.6875 350.851562 154.304688 351.175781 153.929688 C 351.492188 153.554688 351.953125 153.125 352.550781 152.636719 C 353.476562 151.859375 354.101562 151.25 354.425781 150.804688 C 354.757812 150.359375 354.925781 149.9375 354.925781 149.53125 C 354.925781 149.117188 354.769531 148.773438 354.46875 148.492188 C 354.175781 148.199219 353.789062 148.054688 353.320312 148.054688 C 352.804688 148.054688 352.394531 148.210938 352.09375 148.511719 C 351.785156 148.820312 351.632812 149.242188 351.632812 149.78125 L 350.550781 149.65625 C 350.617188 148.855469 350.894531 148.242188 351.382812 147.824219 C 351.867188 147.398438 352.519531 147.179688 353.34375 147.179688 C 354.160156 147.179688 354.804688 147.40625 355.28125 147.867188 C 355.765625 148.324219 356.007812 148.886719 356.007812 149.554688 C 356.007812 149.902344 355.9375 150.242188 355.800781 150.574219 C 355.660156 150.90625 355.425781 151.261719 355.09375 151.636719 C 354.769531 152 354.238281 152.5 353.488281 153.136719 C 352.847656 153.667969 352.4375 154.027344 352.257812 154.21875 C 352.078125 154.417969 351.929688 154.605469 351.820312 154.78125 Z M 356.03125 154.78125 "/>
<path style="fill:none;stroke-width:1;stroke-linecap:round;stroke-linejoin:round;stroke:rgb(0%,0%,0%);stroke-opacity:1;stroke-miterlimit:10;" d="M 263 389.500977 L 302.574219 389.500977 L 302.574219 413.500977 L 263 413.500977 Z M 263 389.500977 " transform="matrix(1.333333,0,0,1.333333,13.333333,-450.666667)"/>
<path style=" stroke:none;fill-rule:nonzero;fill:rgb(0%,0%,0%);fill-opacity:1;" d="M 372.507812 90.84375 L 372.507812 82.242188 L 373.464844 82.242188 L 373.464844 83.054688 C 373.683594 82.734375 373.933594 82.5 374.214844 82.34375 C 374.507812 82.195312 374.859375 82.117188 375.277344 82.117188 C 375.804688 82.117188 376.265625 82.257812 376.671875 82.53125 C 377.074219 82.796875 377.382812 83.179688 377.589844 83.679688 C 377.796875 84.179688 377.902344 84.71875 377.902344 85.304688 C 377.902344 85.945312 377.78125 86.523438 377.546875 87.03125 C 377.324219 87.546875 376.996094 87.945312 376.570312 88.21875 C 376.136719 88.480469 375.679688 88.617188 375.195312 88.617188 C 374.84375 88.617188 374.53125 88.539062 374.257812 88.386719 C 373.976562 88.234375 373.746094 88.046875 373.570312 87.824219 L 373.570312 90.84375 Z M 373.464844 85.386719 C 373.464844 86.195312 373.621094 86.792969 373.945312 87.179688 C 374.277344 87.554688 374.671875 87.742188 375.132812 87.742188 C 375.589844 87.742188 375.984375 87.546875 376.320312 87.15625 C 376.664062 86.757812 376.839844 86.136719 376.839844 85.304688 C 376.839844 84.511719 376.671875 83.921875 376.339844 83.53125 C 376.015625 83.132812 375.632812 82.929688 375.171875 82.929688 C 374.726562 82.929688 374.328125 83.148438 373.984375 83.574219 C 373.636719 83.992188 373.464844 84.59375 373.464844 85.386719 Z M 373.464844 85.386719 "/>
<path style=" stroke:none;fill-rule:nonzero;fill:rgb(0%,0%,0%);fill-opacity:1;" d="M 379.160156 88.46875 L 379.160156 82.242188 L 380.117188 82.242188 L 380.117188 83.199219 C 380.351562 82.757812 380.578125 82.464844 380.785156 82.324219 C 380.992188 82.1875 381.222656 82.117188 381.472656 82.117188 C 381.816406 82.117188 382.179688 82.230469 382.554688 82.449219 L 382.179688 83.429688 C 381.929688 83.277344 381.671875 83.199219 381.410156 83.199219 C 381.1875 83.199219 380.976562 83.273438 380.785156 83.40625 C 380.601562 83.546875 380.472656 83.742188 380.390625 83.992188 C 380.273438 84.367188 380.222656 84.777344 380.222656 85.21875 L 380.222656 88.46875 Z M 379.160156 88.46875 "/>
<path style=" stroke:none;fill-rule:nonzero;fill:rgb(0%,0%,0%);fill-opacity:1;" d="M 383.175781 81.09375 L 383.175781 79.886719 L 384.238281 79.886719 L 384.238281 81.09375 Z M 383.175781 88.46875 L 383.175781 82.242188 L 384.238281 82.242188 L 384.238281 88.46875 Z M 383.175781 88.46875 "/>
<path style=" stroke:none;fill-rule:nonzero;fill:rgb(0%,0%,0%);fill-opacity:1;" d="M 385.84375 88.46875 L 385.84375 82.242188 L 386.800781 82.242188 L 386.800781 83.136719 C 387.246094 82.460938 387.90625 82.117188 388.78125 82.117188 C 389.15625 82.117188 389.496094 82.1875 389.800781 82.324219 C 390.121094 82.449219 390.355469 82.625 390.511719 82.84375 C 390.660156 83.054688 390.769531 83.3125 390.84375 83.617188 C 390.886719 83.8125 390.90625 84.152344 390.90625 84.636719 L 390.90625 88.46875 L 389.84375 88.46875 L 389.84375 84.679688 C 389.84375 84.25 389.800781 83.929688 389.71875 83.71875 C 389.636719 83.511719 389.488281 83.34375 389.28125 83.21875 C 389.074219 83.085938 388.828125 83.011719 388.550781 83.011719 C 388.105469 83.011719 387.71875 83.15625 387.386719 83.449219 C 387.0625 83.730469 386.90625 84.273438 386.90625 85.074219 L 386.90625 88.46875 Z M 385.84375 88.46875 "/>
<path style=" stroke:none;fill-rule:nonzero;fill:rgb(0%,0%,0%);fill-opacity:1;" d="M 394.832031 87.53125 L 394.976562 88.449219 C 394.667969 88.515625 394.402344 88.554688 394.183594 88.554688 C 393.792969 88.554688 393.496094 88.492188 393.289062 88.367188 C 393.082031 88.242188 392.925781 88.085938 392.832031 87.886719 C 392.746094 87.695312 392.707031 87.28125 392.707031 86.65625 L 392.707031 83.074219 L 391.933594 83.074219 L 391.933594 82.242188 L 392.707031 82.242188 L 392.707031 80.699219 L 393.769531 80.074219 L 393.769531 82.242188 L 394.832031 82.242188 L 394.832031 83.074219 L 393.769531 83.074219 L 393.769531 86.699219 C 393.769531 87.007812 393.777344 87.199219 393.808594 87.28125 C 393.851562 87.367188 393.914062 87.4375 393.996094 87.492188 C 394.082031 87.546875 394.195312 87.574219 394.351562 87.574219 C 394.476562 87.574219 394.632812 87.5625 394.832031 87.53125 Z M 394.832031 87.53125 "/>
<path style=" stroke:none;fill-rule:nonzero;fill:rgb(0%,0%,0%);fill-opacity:1;" d="M 397.871094 90.992188 C 397.289062 90.25 396.792969 89.398438 396.394531 88.429688 C 395.988281 87.445312 395.789062 86.421875 395.789062 85.367188 C 395.789062 84.4375 395.941406 83.542969 396.246094 82.679688 C 396.589844 81.695312 397.132812 80.714844 397.871094 79.742188 L 398.621094 79.742188 C 398.148438 80.546875 397.835938 81.125 397.683594 81.46875 C 397.445312 82.011719 397.257812 82.574219 397.121094 83.15625 C 396.957031 83.898438 396.871094 84.632812 396.871094 85.367188 C 396.871094 87.242188 397.457031 89.117188 398.621094 90.992188 Z M 397.871094 90.992188 "/>
<path style=" stroke:none;fill-rule:nonzero;fill:rgb(0%,0%,0%);fill-opacity:1;" d="M 399.285156 88.46875 L 399.285156 87.617188 L 403.242188 83.074219 C 402.796875 83.089844 402.398438 83.09375 402.054688 83.09375 L 399.535156 83.09375 L 399.535156 82.242188 L 404.617188 82.242188 L 404.617188 82.949219 L 401.242188 86.886719 L 400.597656 87.617188 C 401.066406 87.574219 401.515625 87.554688 401.929688 87.554688 L 404.804688 87.554688 L 404.804688 88.46875 Z M 399.285156 88.46875 "/>
<path style=" stroke:none;fill-rule:nonzero;fill:rgb(0%,0%,0%);fill-opacity:1;" d="M 406.535156 90.992188 L 405.785156 90.992188 C 406.953125 89.117188 407.535156 87.242188 407.535156 85.367188 C 407.535156 84.632812 407.453125 83.902344 407.285156 83.179688 C 407.144531 82.59375 406.957031 82.03125 406.722656 81.492188 C 406.566406 81.148438 406.253906 80.5625 405.785156 79.742188 L 406.535156 79.742188 C 407.269531 80.714844 407.8125 81.695312 408.160156 82.679688 C 408.460938 83.542969 408.617188 84.4375 408.617188 85.367188 C 408.617188 86.421875 408.414062 87.445312 408.015625 88.429688 C 407.609375 89.398438 407.117188 90.25 406.535156 90.992188 Z M 406.535156 90.992188 "/>
<path style="fill:none;stroke-width:1;stroke-linecap:round;stroke-linejoin:miter;stroke:rgb(0%,0%,0%);stroke-opacity:1;stroke-miterlimit:10;" d="M 68 413.999023 L 68 434.102539 " transform="matrix(1.333333,0,0,1.333333,13.333333,-450.666667)"/>
<path style="fill-rule:nonzero;fill:rgb(0%,0%,0%);fill-opacity:1;stroke-width:1;stroke-linecap:butt;stroke-linejoin:miter;stroke:rgb(0%,0%,0%);stroke-opacity:1;stroke-miterlimit:10;" d="M 68 438.101562 L 69.5 434.102539 L 66.5 434.102539 Z M 68 438.101562 " transform="matrix(1.333333,0,0,1.333333,13.333333,-450.666667)"/>
<path style="fill:none;stroke-width:1;stroke-linecap:round;stroke-linejoin:miter;stroke:rgb(0%,0%,0%);stroke-opacity:1;stroke-miterlimit:10;" d="M 91.000977 413 L 129.004883 436.862305 " transform="matrix(1.333333,0,0,1.333333,13.333333,-450.666667)"/>
<path style="fill-rule:nonzero;fill:rgb(0%,0%,0%);fill-opacity:1;stroke-width:1;stroke-linecap:butt;stroke-linejoin:miter;stroke:rgb(0%,0%,0%);stroke-opacity:1;stroke-miterlimit:10;" d="M 132.391602 438.989258 L 129.801758 435.59375 L 128.208008 438.133789 Z M 132.391602 438.989258 " transform="matrix(1.333333,0,0,1.333333,13.333333,-450.666667)"/>
<path style="fill:none;stroke-width:1;stroke-linecap:round;stroke-linejoin:miter;stroke:rgb(0%,0%,0%);stroke-opacity:1;stroke-miterlimit:10;" d="M 113 413 L 194.363281 438.250977 " transform="matrix(1.333333,0,0,1.333333,13.333333,-450.666667)"/>
<path style="fill-rule:nonzero;fill:rgb(0%,0%,0%);fill-opacity:1;stroke-width:1;stroke-linecap:butt;stroke-linejoin:miter;stroke:rgb(0%,0%,0%);stroke-opacity:1;stroke-miterlimit:10;" d="M 198.183594 439.4375 L 194.808594 436.821289 L 193.920898 439.683594 Z M 198.183594 439.4375 " transform="matrix(1.333333,0,0,1.333333,13.333333,-450.666667)"/>
<path style="fill:none;stroke-width:1;stroke-linecap:round;stroke-linejoin:miter;stroke:rgb(0%,0%,0%);stroke-opacity:1;stroke-miterlimit:10;" d="M 143.500977 413.999023 L 225.918945 438.327148 " transform="matrix(1.333333,0,0,1.333333,13.333333,-450.666667)"/>
<path style="fill-rule:nonzero;fill:rgb(0%,0%,0%);fill-opacity:1;stroke-width:1;stroke-linecap:butt;stroke-linejoin:miter;stroke:rgb(0%,0%,0%);stroke-opacity:1;stroke-miterlimit:10;" d="M 229.753906 439.460938 L 226.34082 436.891602 L 225.491211 439.768555 Z M 229.753906 439.460938 " transform="matrix(1.333333,0,0,1.333333,13.333333,-450.666667)"/>
<path style="fill:none;stroke-width:1;stroke-linecap:round;stroke-linejoin:miter;stroke:rgb(0%,0%,0%);stroke-opacity:1;stroke-dasharray:4,4;stroke-miterlimit:10;" d="M 263 440 L 263 420.898438 " transform="matrix(1.333333,0,0,1.333333,13.333333,-450.666667)"/>
<path style="fill-rule:nonzero;fill:rgb(0%,0%,0%);fill-opacity:1;stroke-width:1;stroke-linecap:butt;stroke-linejoin:miter;stroke:rgb(0%,0%,0%);stroke-opacity:1;stroke-miterlimit:10;" d="M 263 416.899414 L 261.5 420.898438 L 264.5 420.898438 Z M 263 416.899414 " transform="matrix(1.333333,0,0,1.333333,13.333333,-450.666667)"/>
<path style=" stroke:none;fill-rule:nonzero;fill:rgb(0%,0%,0%);fill-opacity:1;" d="M 333.9375 123.609375 L 332.042969 117.378906 L 333.125 117.378906 L 334.125 120.984375 L 334.480469 122.316406 C 334.488281 122.25 334.605469 121.816406 334.8125 121.023438 L 335.792969 117.378906 L 336.875 117.378906 L 337.8125 121.003906 L 338.125 122.191406 L 338.480469 120.984375 L 339.542969 117.378906 L 340.5625 117.378906 L 338.625 123.609375 L 337.542969 123.609375 L 336.542969 119.878906 L 336.292969 118.816406 L 335.042969 123.609375 Z M 333.9375 123.609375 "/>
<path style=" stroke:none;fill-rule:nonzero;fill:rgb(0%,0%,0%);fill-opacity:1;" d="M 345.519531 122.835938 C 345.128906 123.171875 344.753906 123.410156 344.394531 123.546875 C 344.03125 123.679688 343.644531 123.753906 343.230469 123.753906 C 342.546875 123.753906 342.019531 123.585938 341.644531 123.253906 C 341.28125 122.921875 341.105469 122.492188 341.105469 121.960938 C 341.105469 121.660156 341.171875 121.378906 341.3125 121.128906 C 341.449219 120.878906 341.628906 120.679688 341.855469 120.523438 C 342.074219 120.375 342.324219 120.253906 342.605469 120.171875 C 342.8125 120.128906 343.125 120.082031 343.542969 120.023438 C 344.402344 119.929688 345.03125 119.804688 345.4375 119.648438 C 345.4375 119.515625 345.4375 119.421875 345.4375 119.378906 C 345.4375 118.953125 345.339844 118.648438 345.144531 118.484375 C 344.863281 118.234375 344.464844 118.109375 343.9375 118.109375 C 343.4375 118.109375 343.066406 118.203125 342.832031 118.378906 C 342.59375 118.546875 342.421875 118.851562 342.3125 119.296875 L 341.292969 119.171875 C 341.375 118.726562 341.519531 118.375 341.730469 118.109375 C 341.949219 117.832031 342.261719 117.625 342.667969 117.484375 C 343.082031 117.332031 343.550781 117.253906 344.082031 117.253906 C 344.625 117.253906 345.050781 117.316406 345.375 117.441406 C 345.707031 117.566406 345.949219 117.726562 346.105469 117.921875 C 346.269531 118.101562 346.378906 118.335938 346.4375 118.628906 C 346.480469 118.8125 346.5 119.128906 346.5 119.585938 L 346.5 121.003906 C 346.5 121.976562 346.519531 122.597656 346.5625 122.859375 C 346.605469 123.125 346.691406 123.375 346.832031 123.609375 L 345.730469 123.609375 C 345.613281 123.390625 345.546875 123.128906 345.519531 122.835938 Z M 345.4375 120.484375 C 345.046875 120.640625 344.46875 120.769531 343.707031 120.878906 C 343.277344 120.953125 342.96875 121.023438 342.792969 121.109375 C 342.609375 121.179688 342.46875 121.289062 342.375 121.441406 C 342.277344 121.597656 342.230469 121.765625 342.230469 121.941406 C 342.230469 122.222656 342.332031 122.457031 342.542969 122.648438 C 342.75 122.832031 343.0625 122.921875 343.480469 122.921875 C 343.878906 122.921875 344.238281 122.832031 344.5625 122.648438 C 344.878906 122.472656 345.113281 122.226562 345.269531 121.921875 C 345.378906 121.6875 345.4375 121.335938 345.4375 120.878906 Z M 345.4375 120.484375 "/>
<path style=" stroke:none;fill-rule:nonzero;fill:rgb(0%,0%,0%);fill-opacity:1;" d="M 348.132812 116.234375 L 348.132812 115.023438 L 349.195312 115.023438 L 349.195312 116.234375 Z M 348.132812 123.609375 L 348.132812 117.378906 L 349.195312 117.378906 L 349.195312 123.609375 Z M 348.132812 123.609375 "/>
<path style=" stroke:none;fill-rule:nonzero;fill:rgb(0%,0%,0%);fill-opacity:1;" d="M 353.113281 122.671875 L 353.257812 123.585938 C 352.949219 123.65625 352.683594 123.691406 352.464844 123.691406 C 352.074219 123.691406 351.777344 123.628906 351.570312 123.503906 C 351.363281 123.378906 351.207031 123.222656 351.113281 123.023438 C 351.027344 122.832031 350.988281 122.421875 350.988281 121.796875 L 350.988281 118.210938 L 350.214844 118.210938 L 350.214844 117.378906 L 350.988281 117.378906 L 350.988281 115.835938 L 352.050781 115.210938 L 352.050781 117.378906 L 353.113281 117.378906 L 353.113281 118.210938 L 352.050781 118.210938 L 352.050781 121.835938 C 352.050781 122.144531 352.058594 122.335938 352.089844 122.421875 C 352.132812 122.503906 352.195312 122.578125 352.277344 122.628906 C 352.363281 122.6875 352.476562 122.710938 352.632812 122.710938 C 352.757812 122.710938 352.914062 122.703125 353.113281 122.671875 Z M 353.113281 122.671875 "/>
<path style="fill-rule:nonzero;fill:rgb(40.000001%,74.901962%,100%);fill-opacity:1;stroke-width:1;stroke-linecap:round;stroke-linejoin:round;stroke:rgb(0%,0%,0%);stroke-opacity:1;stroke-miterlimit:10;" d="M 158 338.999023 L 224 338.999023 L 224 362.999023 L 158 362.999023 Z M 158 338.999023 " transform="matrix(1.333333,0,0,1.333333,13.333333,-450.666667)"/>
<path style=" stroke:none;fill-rule:nonzero;fill:rgb(0%,0%,0%);fill-opacity:1;" d="M 241.382812 18.03125 C 241.382812 16.882812 241.699219 16.027344 242.339844 15.46875 C 242.882812 15.011719 243.53125 14.78125 244.296875 14.78125 C 245.15625 14.78125 245.859375 15.0625 246.402344 15.617188 C 246.945312 16.171875 247.214844 16.945312 247.214844 17.929688 C 247.214844 18.734375 247.089844 19.367188 246.839844 19.824219 C 246.601562 20.28125 246.257812 20.648438 245.796875 20.90625 C 245.339844 21.15625 244.839844 21.28125 244.296875 21.28125 C 243.421875 21.28125 242.714844 21.007812 242.171875 20.449219 C 241.640625 19.882812 241.382812 19.074219 241.382812 18.03125 Z M 242.464844 18.03125 C 242.464844 18.824219 242.636719 19.421875 242.984375 19.824219 C 243.328125 20.214844 243.765625 20.40625 244.296875 20.40625 C 244.824219 20.40625 245.261719 20.214844 245.609375 19.824219 C 245.953125 19.421875 246.132812 18.8125 246.132812 17.992188 C 246.132812 17.230469 245.953125 16.648438 245.609375 16.242188 C 245.261719 15.839844 244.824219 15.636719 244.296875 15.636719 C 243.765625 15.636719 243.328125 15.839844 242.984375 16.242188 C 242.636719 16.632812 242.464844 17.230469 242.464844 18.03125 Z M 242.464844 18.03125 "/>
<path style=" stroke:none;fill-rule:nonzero;fill:rgb(0%,0%,0%);fill-opacity:1;" d="M 248.453125 21.136719 L 248.453125 14.90625 L 249.410156 14.90625 L 249.410156 15.804688 C 249.851562 15.125 250.515625 14.78125 251.390625 14.78125 C 251.765625 14.78125 252.101562 14.855469 252.410156 14.992188 C 252.726562 15.117188 252.960938 15.292969 253.117188 15.511719 C 253.269531 15.71875 253.378906 15.980469 253.453125 16.28125 C 253.492188 16.480469 253.515625 16.820312 253.515625 17.304688 L 253.515625 21.136719 L 252.453125 21.136719 L 252.453125 17.34375 C 252.453125 16.917969 252.410156 16.59375 252.328125 16.386719 C 252.242188 16.179688 252.097656 16.011719 251.890625 15.886719 C 251.679688 15.75 251.4375 15.679688 251.160156 15.679688 C 250.710938 15.679688 250.328125 15.824219 249.992188 16.117188 C 249.671875 16.398438 249.515625 16.9375 249.515625 17.742188 L 249.515625 21.136719 Z M 248.453125 21.136719 "/>
<path style=" stroke:none;fill-rule:nonzero;fill:rgb(0%,0%,0%);fill-opacity:1;" d="M 259.375 19.136719 L 260.480469 19.261719 C 260.296875 19.902344 259.96875 20.402344 259.5 20.761719 C 259.042969 21.109375 258.449219 21.28125 257.730469 21.28125 C 256.824219 21.28125 256.105469 21.007812 255.5625 20.449219 C 255.03125 19.882812 254.773438 19.089844 254.773438 18.074219 C 254.773438 17.03125 255.042969 16.230469 255.585938 15.65625 C 256.125 15.074219 256.824219 14.78125 257.6875 14.78125 C 258.523438 14.78125 259.195312 15.070312 259.710938 15.636719 C 260.234375 16.195312 260.5 16.984375 260.5 18.011719 C 260.5 18.085938 260.5 18.179688 260.5 18.304688 L 255.855469 18.304688 C 255.898438 18.984375 256.089844 19.507812 256.4375 19.867188 C 256.78125 20.230469 257.21875 20.40625 257.75 20.40625 C 258.136719 20.40625 258.464844 20.3125 258.730469 20.117188 C 259.007812 19.90625 259.21875 19.585938 259.375 19.136719 Z M 255.917969 17.429688 L 259.398438 17.429688 C 259.355469 16.902344 259.21875 16.507812 259 16.242188 C 258.667969 15.839844 258.230469 15.636719 257.6875 15.636719 C 257.199219 15.636719 256.792969 15.804688 256.460938 16.136719 C 256.136719 16.460938 255.960938 16.886719 255.917969 17.429688 Z M 255.917969 17.429688 "/>
<path style=" stroke:none;fill-rule:nonzero;fill:rgb(0%,0%,0%);fill-opacity:1;" d="M 261.382812 19.28125 L 262.425781 19.117188 C 262.476562 19.53125 262.640625 19.855469 262.90625 20.074219 C 263.179688 20.296875 263.554688 20.40625 264.03125 20.40625 C 264.515625 20.40625 264.875 20.3125 265.113281 20.117188 C 265.347656 19.921875 265.46875 19.695312 265.46875 19.429688 C 265.46875 19.179688 265.363281 18.992188 265.15625 18.867188 C 265 18.773438 264.640625 18.648438 264.070312 18.492188 C 263.289062 18.296875 262.75 18.132812 262.445312 17.992188 C 262.15625 17.855469 261.929688 17.65625 261.78125 17.40625 C 261.625 17.15625 261.550781 16.882812 261.550781 16.574219 C 261.550781 16.296875 261.613281 16.042969 261.738281 15.804688 C 261.863281 15.570312 262.035156 15.367188 262.257812 15.199219 C 262.425781 15.089844 262.644531 14.992188 262.925781 14.90625 C 263.21875 14.824219 263.519531 14.78125 263.84375 14.78125 C 264.328125 14.78125 264.75 14.855469 265.113281 14.992188 C 265.488281 15.132812 265.765625 15.320312 265.945312 15.554688 C 266.125 15.792969 266.25 16.109375 266.320312 16.511719 L 265.28125 16.65625 C 265.238281 16.339844 265.097656 16.089844 264.863281 15.90625 C 264.640625 15.730469 264.328125 15.636719 263.925781 15.636719 C 263.4375 15.636719 263.09375 15.71875 262.882812 15.886719 C 262.675781 16.042969 262.570312 16.230469 262.570312 16.449219 C 262.570312 16.589844 262.613281 16.710938 262.695312 16.804688 C 262.78125 16.929688 262.914062 17.027344 263.113281 17.09375 C 263.207031 17.136719 263.515625 17.230469 264.03125 17.367188 C 264.78125 17.5625 265.300781 17.71875 265.59375 17.84375 C 265.894531 17.96875 266.132812 18.15625 266.300781 18.40625 C 266.46875 18.648438 266.550781 18.945312 266.550781 19.304688 C 266.550781 19.667969 266.445312 20 266.238281 20.304688 C 266.03125 20.609375 265.726562 20.855469 265.34375 21.03125 C 264.96875 21.199219 264.53125 21.28125 264.03125 21.28125 C 263.222656 21.28125 262.601562 21.117188 262.175781 20.78125 C 261.757812 20.4375 261.492188 19.9375 261.382812 19.28125 Z M 261.382812 19.28125 "/>
<path style=" stroke:none;fill-rule:nonzero;fill:rgb(0%,0%,0%);fill-opacity:1;" d="M 269.820312 23.65625 C 269.238281 22.917969 268.742188 22.0625 268.34375 21.09375 C 267.9375 20.109375 267.738281 19.089844 267.738281 18.03125 C 267.738281 17.105469 267.890625 16.210938 268.195312 15.34375 C 268.539062 14.359375 269.082031 13.382812 269.820312 12.40625 L 270.570312 12.40625 C 270.097656 13.214844 269.785156 13.792969 269.632812 14.136719 C 269.394531 14.679688 269.207031 15.242188 269.070312 15.824219 C 268.90625 16.5625 268.820312 17.296875 268.820312 18.03125 C 268.820312 19.90625 269.40625 21.78125 270.570312 23.65625 Z M 269.820312 23.65625 "/>
<path style=" stroke:none;fill-rule:nonzero;fill:rgb(0%,0%,0%);fill-opacity:1;" d="M 275.484375 21.136719 L 274.421875 21.136719 L 274.421875 14.40625 C 274.171875 14.65625 273.835938 14.90625 273.421875 15.15625 C 273.003906 15.398438 272.632812 15.570312 272.316406 15.679688 L 272.316406 14.65625 C 272.898438 14.398438 273.410156 14.070312 273.859375 13.679688 C 274.300781 13.277344 274.613281 12.886719 274.796875 12.511719 L 275.484375 12.511719 Z M 275.484375 21.136719 "/>
<path style=" stroke:none;fill-rule:nonzero;fill:rgb(0%,0%,0%);fill-opacity:1;" d="M 278.742188 21.136719 L 278.742188 19.929688 L 279.949219 19.929688 L 279.949219 21.136719 C 279.949219 21.578125 279.867188 21.933594 279.699219 22.199219 C 279.542969 22.476562 279.304688 22.6875 278.96875 22.84375 L 278.679688 22.386719 C 278.898438 22.289062 279.058594 22.140625 279.15625 21.949219 C 279.265625 21.765625 279.328125 21.496094 279.34375 21.136719 Z M 278.742188 21.136719 "/>
<path style=" stroke:none;fill-rule:nonzero;fill:rgb(0%,0%,0%);fill-opacity:1;" d="M 290.386719 20.117188 L 290.386719 21.136719 L 284.699219 21.136719 C 284.699219 20.886719 284.742188 20.648438 284.824219 20.40625 C 284.976562 20.023438 285.210938 19.636719 285.535156 19.261719 C 285.851562 18.886719 286.308594 18.460938 286.910156 17.96875 C 287.835938 17.195312 288.460938 16.585938 288.785156 16.136719 C 289.117188 15.695312 289.285156 15.273438 289.285156 14.867188 C 289.285156 14.449219 289.128906 14.105469 288.824219 13.824219 C 288.535156 13.53125 288.148438 13.386719 287.679688 13.386719 C 287.164062 13.386719 286.753906 13.542969 286.449219 13.84375 C 286.144531 14.152344 285.992188 14.574219 285.992188 15.117188 L 284.910156 14.992188 C 284.976562 14.1875 285.253906 13.574219 285.742188 13.15625 C 286.226562 12.730469 286.878906 12.511719 287.699219 12.511719 C 288.519531 12.511719 289.164062 12.742188 289.636719 13.199219 C 290.121094 13.65625 290.367188 14.21875 290.367188 14.886719 C 290.367188 15.234375 290.292969 15.574219 290.160156 15.90625 C 290.019531 16.242188 289.785156 16.59375 289.449219 16.96875 C 289.128906 17.335938 288.597656 17.835938 287.847656 18.46875 C 287.207031 19 286.792969 19.359375 286.617188 19.554688 C 286.433594 19.75 286.289062 19.9375 286.179688 20.117188 Z M 290.386719 20.117188 "/>
<path style=" stroke:none;fill-rule:nonzero;fill:rgb(0%,0%,0%);fill-opacity:1;" d="M 292.5 23.65625 L 291.75 23.65625 C 292.917969 21.78125 293.5 19.90625 293.5 18.03125 C 293.5 17.296875 293.417969 16.570312 293.25 15.84375 C 293.109375 15.261719 292.921875 14.699219 292.6875 14.15625 C 292.53125 13.8125 292.21875 13.230469 291.75 12.40625 L 292.5 12.40625 C 293.234375 13.382812 293.777344 14.359375 294.125 15.34375 C 294.425781 16.210938 294.582031 17.105469 294.582031 18.03125 C 294.582031 19.089844 294.378906 20.109375 293.980469 21.09375 C 293.574219 22.0625 293.082031 22.917969 292.5 23.65625 Z M 292.5 23.65625 "/>
<path style="fill-rule:nonzero;fill:rgb(40.000001%,74.901962%,100%);fill-opacity:1;stroke-width:1;stroke-linecap:round;stroke-linejoin:round;stroke:rgb(0%,0%,0%);stroke-opacity:1;stroke-miterlimit:10;" d="M 68 440 L 134 440 L 134 464 L 68 464 Z M 68 440 " transform="matrix(1.333333,0,0,1.333333,13.333333,-450.666667)"/>
<path style=" stroke:none;fill-rule:nonzero;fill:rgb(0%,0%,0%);fill-opacity:1;" d="M 121.382812 152.699219 C 121.382812 151.546875 121.699219 150.695312 122.339844 150.136719 C 122.882812 149.679688 123.53125 149.449219 124.296875 149.449219 C 125.15625 149.449219 125.859375 149.730469 126.402344 150.28125 C 126.945312 150.839844 127.214844 151.609375 127.214844 152.59375 C 127.214844 153.402344 127.089844 154.03125 126.839844 154.492188 C 126.601562 154.949219 126.257812 155.3125 125.796875 155.574219 C 125.339844 155.824219 124.839844 155.949219 124.296875 155.949219 C 123.421875 155.949219 122.714844 155.671875 122.171875 155.117188 C 121.640625 154.546875 121.382812 153.742188 121.382812 152.699219 Z M 122.464844 152.699219 C 122.464844 153.492188 122.636719 154.089844 122.984375 154.492188 C 123.328125 154.882812 123.765625 155.074219 124.296875 155.074219 C 124.824219 155.074219 125.261719 154.882812 125.609375 154.492188 C 125.953125 154.089844 126.132812 153.480469 126.132812 152.65625 C 126.132812 151.898438 125.953125 151.3125 125.609375 150.90625 C 125.261719 150.507812 124.824219 150.304688 124.296875 150.304688 C 123.765625 150.304688 123.328125 150.507812 122.984375 150.90625 C 122.636719 151.296875 122.464844 151.898438 122.464844 152.699219 Z M 122.464844 152.699219 "/>
<path style=" stroke:none;fill-rule:nonzero;fill:rgb(0%,0%,0%);fill-opacity:1;" d="M 128.453125 155.804688 L 128.453125 149.574219 L 129.410156 149.574219 L 129.410156 150.46875 C 129.851562 149.792969 130.515625 149.449219 131.390625 149.449219 C 131.765625 149.449219 132.101562 149.523438 132.410156 149.65625 C 132.726562 149.78125 132.960938 149.960938 133.117188 150.179688 C 133.269531 150.386719 133.378906 150.648438 133.453125 150.949219 C 133.492188 151.148438 133.515625 151.484375 133.515625 151.96875 L 133.515625 155.804688 L 132.453125 155.804688 L 132.453125 152.011719 C 132.453125 151.585938 132.410156 151.261719 132.328125 151.054688 C 132.242188 150.84375 132.097656 150.679688 131.890625 150.554688 C 131.679688 150.417969 131.4375 150.34375 131.160156 150.34375 C 130.710938 150.34375 130.328125 150.492188 129.992188 150.78125 C 129.671875 151.0625 129.515625 151.605469 129.515625 152.40625 L 129.515625 155.804688 Z M 128.453125 155.804688 "/>
<path style=" stroke:none;fill-rule:nonzero;fill:rgb(0%,0%,0%);fill-opacity:1;" d="M 139.375 153.804688 L 140.480469 153.929688 C 140.296875 154.570312 139.96875 155.070312 139.5 155.429688 C 139.042969 155.777344 138.449219 155.949219 137.730469 155.949219 C 136.824219 155.949219 136.105469 155.671875 135.5625 155.117188 C 135.03125 154.546875 134.773438 153.757812 134.773438 152.742188 C 134.773438 151.699219 135.042969 150.898438 135.585938 150.324219 C 136.125 149.742188 136.824219 149.449219 137.6875 149.449219 C 138.523438 149.449219 139.195312 149.734375 139.710938 150.304688 C 140.234375 150.859375 140.5 151.652344 140.5 152.679688 C 140.5 152.75 140.5 152.84375 140.5 152.96875 L 135.855469 152.96875 C 135.898438 153.652344 136.089844 154.171875 136.4375 154.53125 C 136.78125 154.898438 137.21875 155.074219 137.75 155.074219 C 138.136719 155.074219 138.464844 154.980469 138.730469 154.78125 C 139.007812 154.574219 139.21875 154.25 139.375 153.804688 Z M 135.917969 152.09375 L 139.398438 152.09375 C 139.355469 151.570312 139.21875 151.171875 139 150.90625 C 138.667969 150.507812 138.230469 150.304688 137.6875 150.304688 C 137.199219 150.304688 136.792969 150.46875 136.460938 150.804688 C 136.136719 151.125 135.960938 151.554688 135.917969 152.09375 Z M 135.917969 152.09375 "/>
<path style=" stroke:none;fill-rule:nonzero;fill:rgb(0%,0%,0%);fill-opacity:1;" d="M 141.382812 153.949219 L 142.425781 153.78125 C 142.476562 154.199219 142.640625 154.523438 142.90625 154.742188 C 143.179688 154.964844 143.554688 155.074219 144.03125 155.074219 C 144.515625 155.074219 144.875 154.980469 145.113281 154.78125 C 145.347656 154.589844 145.46875 154.359375 145.46875 154.09375 C 145.46875 153.84375 145.363281 153.65625 145.15625 153.53125 C 145 153.4375 144.640625 153.3125 144.070312 153.15625 C 143.289062 152.964844 142.75 152.796875 142.445312 152.65625 C 142.15625 152.523438 141.929688 152.324219 141.78125 152.074219 C 141.625 151.824219 141.550781 151.546875 141.550781 151.242188 C 141.550781 150.964844 141.613281 150.710938 141.738281 150.46875 C 141.863281 150.234375 142.035156 150.03125 142.257812 149.867188 C 142.425781 149.757812 142.644531 149.65625 142.925781 149.574219 C 143.21875 149.492188 143.519531 149.449219 143.84375 149.449219 C 144.328125 149.449219 144.75 149.523438 145.113281 149.65625 C 145.488281 149.796875 145.765625 149.984375 145.945312 150.21875 C 146.125 150.460938 146.25 150.777344 146.320312 151.179688 L 145.28125 151.324219 C 145.238281 151.007812 145.097656 150.757812 144.863281 150.574219 C 144.640625 150.398438 144.328125 150.304688 143.925781 150.304688 C 143.4375 150.304688 143.09375 150.386719 142.882812 150.554688 C 142.675781 150.710938 142.570312 150.898438 142.570312 151.117188 C 142.570312 151.257812 142.613281 151.375 142.695312 151.46875 C 142.78125 151.59375 142.914062 151.695312 143.113281 151.761719 C 143.207031 151.804688 143.515625 151.898438 144.03125 152.03125 C 144.78125 152.230469 145.300781 152.386719 145.59375 152.511719 C 145.894531 152.636719 146.132812 152.824219 146.300781 153.074219 C 146.46875 153.3125 146.550781 153.609375 146.550781 153.96875 C 146.550781 154.335938 146.445312 154.667969 146.238281 154.96875 C 146.03125 155.277344 145.726562 155.523438 145.34375 155.699219 C 144.96875 155.867188 144.53125 155.949219 144.03125 155.949219 C 143.222656 155.949219 142.601562 155.78125 142.175781 155.449219 C 141.757812 155.105469 141.492188 154.605469 141.382812 153.949219 Z M 141.382812 153.949219 "/>
<path style=" stroke:none;fill-rule:nonzero;fill:rgb(0%,0%,0%);fill-opacity:1;" d="M 149.820312 158.324219 C 149.238281 157.585938 148.742188 156.730469 148.34375 155.761719 C 147.9375 154.777344 147.738281 153.757812 147.738281 152.699219 C 147.738281 151.773438 147.890625 150.875 148.195312 150.011719 C 148.539062 149.027344 149.082031 148.046875 149.820312 147.074219 L 150.570312 147.074219 C 150.097656 147.882812 149.785156 148.460938 149.632812 148.804688 C 149.394531 149.34375 149.207031 149.90625 149.070312 150.492188 C 148.90625 151.230469 148.820312 151.964844 148.820312 152.699219 C 148.820312 154.574219 149.40625 156.449219 150.570312 158.324219 Z M 149.820312 158.324219 "/>
<path style=" stroke:none;fill-rule:nonzero;fill:rgb(0%,0%,0%);fill-opacity:1;" d="M 155.484375 155.804688 L 154.421875 155.804688 L 154.421875 149.074219 C 154.171875 149.324219 153.835938 149.574219 153.421875 149.824219 C 153.003906 150.0625 152.632812 150.234375 152.316406 150.34375 L 152.316406 149.324219 C 152.898438 149.0625 153.410156 148.734375 153.859375 148.34375 C 154.300781 147.945312 154.613281 147.554688 154.796875 147.179688 L 155.484375 147.179688 Z M 155.484375 155.804688 "/>
<path style=" stroke:none;fill-rule:nonzero;fill:rgb(0%,0%,0%);fill-opacity:1;" d="M 158.742188 155.804688 L 158.742188 154.59375 L 159.949219 154.59375 L 159.949219 155.804688 C 159.949219 156.246094 159.867188 156.601562 159.699219 156.867188 C 159.542969 157.140625 159.304688 157.355469 158.96875 157.511719 L 158.679688 157.054688 C 158.898438 156.953125 159.058594 156.808594 159.15625 156.617188 C 159.265625 156.433594 159.328125 156.164062 159.34375 155.804688 Z M 158.742188 155.804688 "/>
<path style=" stroke:none;fill-rule:nonzero;fill:rgb(0%,0%,0%);fill-opacity:1;" d="M 170.386719 154.78125 L 170.386719 155.804688 L 164.699219 155.804688 C 164.699219 155.554688 164.742188 155.3125 164.824219 155.074219 C 164.976562 154.6875 165.210938 154.304688 165.535156 153.929688 C 165.851562 153.554688 166.308594 153.125 166.910156 152.636719 C 167.835938 151.859375 168.460938 151.25 168.785156 150.804688 C 169.117188 150.359375 169.285156 149.9375 169.285156 149.53125 C 169.285156 149.117188 169.128906 148.773438 168.824219 148.492188 C 168.535156 148.199219 168.148438 148.054688 167.679688 148.054688 C 167.164062 148.054688 166.753906 148.210938 166.449219 148.511719 C 166.144531 148.820312 165.992188 149.242188 165.992188 149.78125 L 164.910156 149.65625 C 164.976562 148.855469 165.253906 148.242188 165.742188 147.824219 C 166.226562 147.398438 166.878906 147.179688 167.699219 147.179688 C 168.519531 147.179688 169.164062 147.40625 169.636719 147.867188 C 170.121094 148.324219 170.367188 148.886719 170.367188 149.554688 C 170.367188 149.902344 170.292969 150.242188 170.160156 150.574219 C 170.019531 150.90625 169.785156 151.261719 169.449219 151.636719 C 169.128906 152 168.597656 152.5 167.847656 153.136719 C 167.207031 153.667969 166.792969 154.027344 166.617188 154.21875 C 166.433594 154.417969 166.289062 154.605469 166.179688 154.78125 Z M 170.386719 154.78125 "/>
<path style=" stroke:none;fill-rule:nonzero;fill:rgb(0%,0%,0%);fill-opacity:1;" d="M 172.5 158.324219 L 171.75 158.324219 C 172.917969 156.449219 173.5 154.574219 173.5 152.699219 C 173.5 151.964844 173.417969 151.234375 173.25 150.511719 C 173.109375 149.929688 172.921875 149.367188 172.6875 148.824219 C 172.53125 148.480469 172.21875 147.898438 171.75 147.074219 L 172.5 147.074219 C 173.234375 148.046875 173.777344 149.027344 174.125 150.011719 C 174.425781 150.875 174.582031 151.773438 174.582031 152.699219 C 174.582031 153.757812 174.378906 154.777344 173.980469 155.761719 C 173.574219 156.730469 173.082031 157.585938 172.5 158.324219 Z M 172.5 158.324219 "/>
<path style="fill-rule:nonzero;fill:rgb(40.000001%,74.901962%,100%);fill-opacity:1;stroke-width:1;stroke-linecap:round;stroke-linejoin:round;stroke:rgb(0%,0%,0%);stroke-opacity:1;stroke-miterlimit:10;" d="M 134 440 L 200 440 L 200 464 L 134 464 Z M 134 440 " transform="matrix(1.333333,0,0,1.333333,13.333333,-450.666667)"/>
<path style=" stroke:none;fill-rule:nonzero;fill:rgb(0%,0%,0%);fill-opacity:1;" d="M 209.382812 152.699219 C 209.382812 151.546875 209.699219 150.695312 210.339844 150.136719 C 210.882812 149.679688 211.53125 149.449219 212.296875 149.449219 C 213.15625 149.449219 213.859375 149.730469 214.402344 150.28125 C 214.945312 150.839844 215.214844 151.609375 215.214844 152.59375 C 215.214844 153.402344 215.089844 154.03125 214.839844 154.492188 C 214.601562 154.949219 214.257812 155.3125 213.796875 155.574219 C 213.339844 155.824219 212.839844 155.949219 212.296875 155.949219 C 211.421875 155.949219 210.714844 155.671875 210.171875 155.117188 C 209.640625 154.546875 209.382812 153.742188 209.382812 152.699219 Z M 210.464844 152.699219 C 210.464844 153.492188 210.636719 154.089844 210.984375 154.492188 C 211.328125 154.882812 211.765625 155.074219 212.296875 155.074219 C 212.824219 155.074219 213.261719 154.882812 213.609375 154.492188 C 213.953125 154.089844 214.132812 153.480469 214.132812 152.65625 C 214.132812 151.898438 213.953125 151.3125 213.609375 150.90625 C 213.261719 150.507812 212.824219 150.304688 212.296875 150.304688 C 211.765625 150.304688 211.328125 150.507812 210.984375 150.90625 C 210.636719 151.296875 210.464844 151.898438 210.464844 152.699219 Z M 210.464844 152.699219 "/>
<path style=" stroke:none;fill-rule:nonzero;fill:rgb(0%,0%,0%);fill-opacity:1;" d="M 216.453125 155.804688 L 216.453125 149.574219 L 217.410156 149.574219 L 217.410156 150.46875 C 217.851562 149.792969 218.515625 149.449219 219.390625 149.449219 C 219.765625 149.449219 220.101562 149.523438 220.410156 149.65625 C 220.726562 149.78125 220.960938 149.960938 221.117188 150.179688 C 221.269531 150.386719 221.378906 150.648438 221.453125 150.949219 C 221.492188 151.148438 221.515625 151.484375 221.515625 151.96875 L 221.515625 155.804688 L 220.453125 155.804688 L 220.453125 152.011719 C 220.453125 151.585938 220.410156 151.261719 220.328125 151.054688 C 220.242188 150.84375 220.097656 150.679688 219.890625 150.554688 C 219.679688 150.417969 219.4375 150.34375 219.160156 150.34375 C 218.710938 150.34375 218.328125 150.492188 217.992188 150.78125 C 217.671875 151.0625 217.515625 151.605469 217.515625 152.40625 L 217.515625 155.804688 Z M 216.453125 155.804688 "/>
<path style=" stroke:none;fill-rule:nonzero;fill:rgb(0%,0%,0%);fill-opacity:1;" d="M 227.375 153.804688 L 228.480469 153.929688 C 228.296875 154.570312 227.96875 155.070312 227.5 155.429688 C 227.042969 155.777344 226.449219 155.949219 225.730469 155.949219 C 224.824219 155.949219 224.105469 155.671875 223.5625 155.117188 C 223.03125 154.546875 222.773438 153.757812 222.773438 152.742188 C 222.773438 151.699219 223.042969 150.898438 223.585938 150.324219 C 224.125 149.742188 224.824219 149.449219 225.6875 149.449219 C 226.523438 149.449219 227.195312 149.734375 227.710938 150.304688 C 228.234375 150.859375 228.5 151.652344 228.5 152.679688 C 228.5 152.75 228.5 152.84375 228.5 152.96875 L 223.855469 152.96875 C 223.898438 153.652344 224.089844 154.171875 224.4375 154.53125 C 224.78125 154.898438 225.21875 155.074219 225.75 155.074219 C 226.136719 155.074219 226.464844 154.980469 226.730469 154.78125 C 227.007812 154.574219 227.21875 154.25 227.375 153.804688 Z M 223.917969 152.09375 L 227.398438 152.09375 C 227.355469 151.570312 227.21875 151.171875 227 150.90625 C 226.667969 150.507812 226.230469 150.304688 225.6875 150.304688 C 225.199219 150.304688 224.792969 150.46875 224.460938 150.804688 C 224.136719 151.125 223.960938 151.554688 223.917969 152.09375 Z M 223.917969 152.09375 "/>
<path style=" stroke:none;fill-rule:nonzero;fill:rgb(0%,0%,0%);fill-opacity:1;" d="M 229.382812 153.949219 L 230.425781 153.78125 C 230.476562 154.199219 230.640625 154.523438 230.90625 154.742188 C 231.179688 154.964844 231.554688 155.074219 232.03125 155.074219 C 232.515625 155.074219 232.875 154.980469 233.113281 154.78125 C 233.347656 154.589844 233.46875 154.359375 233.46875 154.09375 C 233.46875 153.84375 233.363281 153.65625 233.15625 153.53125 C 233 153.4375 232.640625 153.3125 232.070312 153.15625 C 231.289062 152.964844 230.75 152.796875 230.445312 152.65625 C 230.15625 152.523438 229.929688 152.324219 229.78125 152.074219 C 229.625 151.824219 229.550781 151.546875 229.550781 151.242188 C 229.550781 150.964844 229.613281 150.710938 229.738281 150.46875 C 229.863281 150.234375 230.035156 150.03125 230.257812 149.867188 C 230.425781 149.757812 230.644531 149.65625 230.925781 149.574219 C 231.21875 149.492188 231.519531 149.449219 231.84375 149.449219 C 232.328125 149.449219 232.75 149.523438 233.113281 149.65625 C 233.488281 149.796875 233.765625 149.984375 233.945312 150.21875 C 234.125 150.460938 234.25 150.777344 234.320312 151.179688 L 233.28125 151.324219 C 233.238281 151.007812 233.097656 150.757812 232.863281 150.574219 C 232.640625 150.398438 232.328125 150.304688 231.925781 150.304688 C 231.4375 150.304688 231.09375 150.386719 230.882812 150.554688 C 230.675781 150.710938 230.570312 150.898438 230.570312 151.117188 C 230.570312 151.257812 230.613281 151.375 230.695312 151.46875 C 230.78125 151.59375 230.914062 151.695312 231.113281 151.761719 C 231.207031 151.804688 231.515625 151.898438 232.03125 152.03125 C 232.78125 152.230469 233.300781 152.386719 233.59375 152.511719 C 233.894531 152.636719 234.132812 152.824219 234.300781 153.074219 C 234.46875 153.3125 234.550781 153.609375 234.550781 153.96875 C 234.550781 154.335938 234.445312 154.667969 234.238281 154.96875 C 234.03125 155.277344 233.726562 155.523438 233.34375 155.699219 C 232.96875 155.867188 232.53125 155.949219 232.03125 155.949219 C 231.222656 155.949219 230.601562 155.78125 230.175781 155.449219 C 229.757812 155.105469 229.492188 154.605469 229.382812 153.949219 Z M 229.382812 153.949219 "/>
<path style=" stroke:none;fill-rule:nonzero;fill:rgb(0%,0%,0%);fill-opacity:1;" d="M 237.820312 158.324219 C 237.238281 157.585938 236.742188 156.730469 236.34375 155.761719 C 235.9375 154.777344 235.738281 153.757812 235.738281 152.699219 C 235.738281 151.773438 235.890625 150.875 236.195312 150.011719 C 236.539062 149.027344 237.082031 148.046875 237.820312 147.074219 L 238.570312 147.074219 C 238.097656 147.882812 237.785156 148.460938 237.632812 148.804688 C 237.394531 149.34375 237.207031 149.90625 237.070312 150.492188 C 236.90625 151.230469 236.820312 151.964844 236.820312 152.699219 C 236.820312 154.574219 237.40625 156.449219 238.570312 158.324219 Z M 237.820312 158.324219 "/>
<path style=" stroke:none;fill-rule:nonzero;fill:rgb(0%,0%,0%);fill-opacity:1;" d="M 243.484375 155.804688 L 242.421875 155.804688 L 242.421875 149.074219 C 242.171875 149.324219 241.835938 149.574219 241.421875 149.824219 C 241.003906 150.0625 240.632812 150.234375 240.316406 150.34375 L 240.316406 149.324219 C 240.898438 149.0625 241.410156 148.734375 241.859375 148.34375 C 242.300781 147.945312 242.613281 147.554688 242.796875 147.179688 L 243.484375 147.179688 Z M 243.484375 155.804688 "/>
<path style=" stroke:none;fill-rule:nonzero;fill:rgb(0%,0%,0%);fill-opacity:1;" d="M 246.742188 155.804688 L 246.742188 154.59375 L 247.949219 154.59375 L 247.949219 155.804688 C 247.949219 156.246094 247.867188 156.601562 247.699219 156.867188 C 247.542969 157.140625 247.304688 157.355469 246.96875 157.511719 L 246.679688 157.054688 C 246.898438 156.953125 247.058594 156.808594 247.15625 156.617188 C 247.265625 156.433594 247.328125 156.164062 247.34375 155.804688 Z M 246.742188 155.804688 "/>
<path style=" stroke:none;fill-rule:nonzero;fill:rgb(0%,0%,0%);fill-opacity:1;" d="M 258.386719 154.78125 L 258.386719 155.804688 L 252.699219 155.804688 C 252.699219 155.554688 252.742188 155.3125 252.824219 155.074219 C 252.976562 154.6875 253.210938 154.304688 253.535156 153.929688 C 253.851562 153.554688 254.308594 153.125 254.910156 152.636719 C 255.835938 151.859375 256.460938 151.25 256.785156 150.804688 C 257.117188 150.359375 257.285156 149.9375 257.285156 149.53125 C 257.285156 149.117188 257.128906 148.773438 256.824219 148.492188 C 256.535156 148.199219 256.148438 148.054688 255.679688 148.054688 C 255.164062 148.054688 254.753906 148.210938 254.449219 148.511719 C 254.144531 148.820312 253.992188 149.242188 253.992188 149.78125 L 252.910156 149.65625 C 252.976562 148.855469 253.253906 148.242188 253.742188 147.824219 C 254.226562 147.398438 254.878906 147.179688 255.699219 147.179688 C 256.519531 147.179688 257.164062 147.40625 257.636719 147.867188 C 258.121094 148.324219 258.367188 148.886719 258.367188 149.554688 C 258.367188 149.902344 258.292969 150.242188 258.160156 150.574219 C 258.019531 150.90625 257.785156 151.261719 257.449219 151.636719 C 257.128906 152 256.597656 152.5 255.847656 153.136719 C 255.207031 153.667969 254.792969 154.027344 254.617188 154.21875 C 254.433594 154.417969 254.289062 154.605469 254.179688 154.78125 Z M 258.386719 154.78125 "/>
<path style=" stroke:none;fill-rule:nonzero;fill:rgb(0%,0%,0%);fill-opacity:1;" d="M 260.5 158.324219 L 259.75 158.324219 C 260.917969 156.449219 261.5 154.574219 261.5 152.699219 C 261.5 151.964844 261.417969 151.234375 261.25 150.511719 C 261.109375 149.929688 260.921875 149.367188 260.6875 148.824219 C 260.53125 148.480469 260.21875 147.898438 259.75 147.074219 L 260.5 147.074219 C 261.234375 148.046875 261.777344 149.027344 262.125 150.011719 C 262.425781 150.875 262.582031 151.773438 262.582031 152.699219 C 262.582031 153.757812 262.378906 154.777344 261.980469 155.761719 C 261.574219 156.730469 261.082031 157.585938 260.5 158.324219 Z M 260.5 158.324219 "/>
</g>
</svg>
